<svg xmlns="http://www.w3.org/2000/svg" xmlns:xlink="http://www.w3.org/1999/xlink" width="1920" height="1080" viewBox="0 0 1920 1080">
  <defs>
    <clipPath id="clip-Web_1920_1">
      <rect width="1920" height="1080"/>
    </clipPath>
  </defs>
  <g id="Web_1920_1" data-name="Web 1920 – 1" clip-path="url(#clip-Web_1920_1)">
    <rect width="1920" height="1080" fill="#fff"/>
    <g id="Group_20" data-name="Group 20">
      <g id="Group_19" data-name="Group 19">
        <g id="Group_2" data-name="Group 2" transform="translate(-182.353 -1032.713) rotate(30)">
          <g id="Group_1" data-name="Group 1" transform="translate(642 660)">
            <g id="fried-potatoes" transform="translate(0 0)">
              <path id="Path_1" data-name="Path 1" d="M145.37,198.7l-11.517,1.123a7.509,7.509,0,0,1-8.207-6.234L100.486,19.8c-.736-5.092,2.468-9.71,7.131-10.234l18-2.017c4.681-.526,8.917,3.27,9.412,8.4l16.888,175.066A7.12,7.12,0,0,1,145.37,198.7Zm0,0" transform="translate(-39.745 -2.97)" fill="#fccf3f"/>
              <path id="Path_2" data-name="Path 2" d="M99.405,222.9l-11.439.569A7.594,7.594,0,0,1,80,216.988L59.877,45.9c-.59-5.009,2.716-9.349,7.353-9.613l17.879-1.022c4.646-.264,8.733,3.657,9.08,8.688L106.1,215.683A6.844,6.844,0,0,1,99.405,222.9Zm0,0" transform="translate(-23.681 -13.958)" fill="#efc03c"/>
              <path id="Path_3" data-name="Path 3" d="M61.591,245.87l-11.213,1.291a7.684,7.684,0,0,1-8.384-5.838L7.7,75.339c-1-4.849,1.866-9.325,6.385-9.924L31.53,63.1c4.538-.6,8.884,2.935,9.656,7.829L67.568,238.36A6.575,6.575,0,0,1,61.591,245.87Zm0,0" transform="translate(-2.969 -24.959)" fill="#fccf3f"/>
              <path id="Path_4" data-name="Path 4" d="M213.808,198.7l11.517,1.123a7.509,7.509,0,0,0,8.207-6.234L258.69,19.8c.739-5.092-2.466-9.712-7.131-10.234l-18-2.02c-4.679-.524-8.915,3.27-9.41,8.4L207.26,191.019A7.118,7.118,0,0,0,213.808,198.7Zm0,0" transform="translate(-82.05 -2.97)" fill="#fccf3f"/>
              <path id="Path_5" data-name="Path 5" d="M263.224,222.9l11.439.569a7.594,7.594,0,0,0,7.961-6.477L302.752,45.9c.59-5.009-2.716-9.349-7.353-9.613l-17.881-1.022c-4.644-.264-8.73,3.657-9.077,8.688l-11.909,171.73A6.842,6.842,0,0,0,263.224,222.9Zm0,0" transform="translate(-101.565 -13.958)" fill="#efc03c"/>
              <path id="Path_6" data-name="Path 6" d="M291.959,245.871l11.215,1.291a7.679,7.679,0,0,0,8.381-5.838l34.3-165.982c1-4.849-1.864-9.328-6.383-9.927L322.022,63.1c-4.537-.6-8.884,2.935-9.656,7.832L285.982,238.36A6.575,6.575,0,0,0,291.959,245.871Zm0,0" transform="translate(-113.2 -24.96)" fill="#fccf3f"/>
              <path id="Path_7" data-name="Path 7" d="M187.842,233.133h-11.43a7.178,7.178,0,0,1-7.329-6.8L164.732,56.184c-.127-4.981,3.558-9.082,8.2-9.082H190.8c4.637,0,8.336,4.1,8.223,9.082l-3.87,170.151A7.153,7.153,0,0,1,187.842,233.133Zm0,0" transform="translate(-65.223 -18.65)" fill="#efc03c"/>
              <path id="Path_8" data-name="Path 8" d="M142.774,269.641l-10.5,4.306a7.367,7.367,0,0,1-9.46-3.386L50.57,118.534c-2.112-4.445-.385-9.552,3.856-11.324l16.347-6.836c4.245-1.774,9.28.51,11.175,5.054l64.811,155.3A6.851,6.851,0,0,1,142.774,269.641Zm0,0" transform="translate(-19.666 -39.504)" fill="#fccf3f"/>
              <path id="Path_9" data-name="Path 9" d="M180.367,305.553l-11.333.524a7.366,7.366,0,0,1-7.768-6.373L144.39,132.232c-.493-4.9,2.85-9.125,7.44-9.368l17.695-.934c4.594-.243,8.565,3.6,8.823,8.518L187.12,298.5A6.853,6.853,0,0,1,180.367,305.553Zm0,0" transform="translate(-57.151 -48.273)" fill="#efc03c"/>
              <path id="Path_10" data-name="Path 10" d="M280.723,266.072l11.01.493a7.313,7.313,0,0,0,7.692-6.024L319.4,102.811a7.58,7.58,0,0,0-7.008-8.787l-17.117-.878a8.564,8.564,0,0,0-8.73,7.992L274.316,259.408C274.042,262.938,276.9,265.9,280.723,266.072Zm0,0" transform="translate(-108.606 -36.876)" fill="#efc03c"/>
              <path id="Path_11" data-name="Path 11" d="M210.529,303.734l11.961,1.885a7.683,7.683,0,0,0,8.768-6.291l28.089-164.078a7.679,7.679,0,0,0-6.376-8.884l-16.3-2.57a7.682,7.682,0,0,0-8.8,6.491L204.12,295.05A7.681,7.681,0,0,0,210.529,303.734Zm0,0" transform="translate(-80.788 -48.979)" fill="#fccf3f"/>
              <path id="Path_12" data-name="Path 12" d="M177.34,175.262a5.765,5.765,0,0,0-5.375,3.723,53.882,53.882,0,0,1-100.607,0,5.767,5.767,0,0,0-5.375-3.723H13.248a5.749,5.749,0,0,0-5.663,6.725l32.3,187.383a5.748,5.748,0,0,0,5.665,4.771H197.769a5.748,5.748,0,0,0,5.665-4.771l32.3-187.383a5.748,5.748,0,0,0-5.665-6.725Zm0,0" transform="translate(-2.97 -69.393)" fill="#fc4e51"/>
              <path id="Path_13" data-name="Path 13" d="M331.022,175.262H294.764a5.747,5.747,0,0,1,5.663,6.725l-32.3,187.386a5.747,5.747,0,0,1-5.663,4.769h36.258a5.748,5.748,0,0,0,5.665-4.769l32.3-187.386A5.748,5.748,0,0,0,331.022,175.262Zm0,0" transform="translate(-103.919 -69.393)" fill="#ea3942"/>
              <path id="Path_14" data-name="Path 14" d="M230.64,330.027H32.4l6.272,36.39H224.366Zm0,0" transform="translate(-12.83 -130.671)" fill="#f3e8d7"/>
              <path id="Path_15" data-name="Path 15" d="M332.7,330.027h-36.26l-6.274,36.39h36.26Zm0,0" transform="translate(-114.888 -130.671)" fill="#e5d8c6"/>
              <path id="Path_16" data-name="Path 16" d="M212.76,330.99a47.222,47.222,0,1,1-47.223-47.221A47.222,47.222,0,0,1,212.76,330.99Zm0,0" transform="translate(-46.847 -112.356)" fill="#efa335"/>
              <path id="Path_17" data-name="Path 17" d="M188.18,292.207a47.219,47.219,0,0,1-66.555,55.727,47.221,47.221,0,1,0,66.555-55.727Zm0,0" transform="translate(-48.157 -115.697)" fill="#fd8f31"/>
              <path id="Path_18" data-name="Path 18" d="M162.567,276.269a51.751,51.751,0,1,0,51.751,51.751A51.811,51.811,0,0,0,162.567,276.269Zm0,94.441a42.69,42.69,0,1,1,42.692-42.69A42.738,42.738,0,0,1,162.567,370.71Zm0,0" transform="translate(-43.877 -109.386)"/>
              <path id="Path_19" data-name="Path 19" d="M227.1,101.34h-.354L237.089,51.3a13.322,13.322,0,0,0-2.072-10.4,11.813,11.813,0,0,0-8.155-4.932l-17.447-2.31a12.229,12.229,0,0,0-3.884.116l.153-1.3A13.6,13.6,0,0,0,202.7,22.15a12.04,12.04,0,0,0-8.613-4.344l-12.919-.739a14.059,14.059,0,0,0-2.742-10.182A12.318,12.318,0,0,0,170.015,2.1l-18-2.02A12.477,12.477,0,0,0,142.7,2.865a14.278,14.278,0,0,0-5.118,9.684l-1.638,16.975a12.83,12.83,0,0,0-1.468-1.807,12.383,12.383,0,0,0-8.905-3.794H107.707a12.227,12.227,0,0,0-6.626,1.956L99.8,12.548a14.269,14.269,0,0,0-5.118-9.684A12.478,12.478,0,0,0,85.368.078l-18,2.02A12.318,12.318,0,0,0,58.95,6.885a14.059,14.059,0,0,0-2.742,10.182l-12.919.739a12.044,12.044,0,0,0-8.613,4.344A13.6,13.6,0,0,0,31.7,32.471l.153,1.3a12.227,12.227,0,0,0-3.884-.118l-17.447,2.31A11.818,11.818,0,0,0,2.365,40.9,13.322,13.322,0,0,0,.293,51.3l10.34,50.043h-.354A10.276,10.276,0,0,0,.151,113.363l32.3,187.386a10.258,10.258,0,0,0,10.13,8.53H194.8a10.253,10.253,0,0,0,10.127-8.53l32.305-187.386A10.276,10.276,0,0,0,227.1,101.34ZM204.21,45.024a4.167,4.167,0,0,1,4.018-2.386l17.447,2.308a2.81,2.81,0,0,1,1.956,1.2,4.252,4.252,0,0,1,.585,3.32L217.5,101.338h-6.623l4.41-34.833a12.581,12.581,0,0,0-2.756-9.651,11.762,11.762,0,0,0-8.513-4.233l-.7-.035Zm-6.18,16.364,5.524.283a2.77,2.77,0,0,1,2.029,1,3.467,3.467,0,0,1,.715,2.7l-4.556,35.975H180.576l2.449-14.3a12.11,12.11,0,0,0-1.649-8.459l1.078-13.967a4.283,4.283,0,0,1,1.888-3.23,3.468,3.468,0,0,1,2.1-.585l11.586.592ZM175.536,25.831c.059,0,.118,0,.179,0h0l17.86,1.017a3.063,3.063,0,0,1,2.19,1.123,4.528,4.528,0,0,1,.92,3.438L195.3,43.242a.008.008,0,0,0,0,0l-1.043,8.874-7.353-.375a13.091,13.091,0,0,0-13.48,12.166l-.694,8.974-4.238-.668,2.907-41.909C171.565,27.822,173.453,25.814,175.536,25.831Zm-1.442,59.677L171.305,101.8a10.251,10.251,0,0,0-6.538,6.168,49.3,49.3,0,0,1-17.824,22.78c-.871.609-1.758,1.18-2.659,1.727l7.284-50.519a3.153,3.153,0,0,1,3.61-2.664l7.728,1.218a.026.026,0,0,1,.012,0l8.561,1.35a3.151,3.151,0,0,1,2.617,3.646Zm-37.6,32.728L146.6,13.419A5.168,5.168,0,0,1,148.412,9.9,3.486,3.486,0,0,1,151,9.082l18,2.017a3.3,3.3,0,0,1,2.253,1.324,4.986,4.986,0,0,1,.9,3.761L172,17.275c-.076.024-.149.052-.224.076-.094.031-.189.064-.281.1-.283.1-.564.2-.838.321q-.106.042-.212.092a12.8,12.8,0,0,0-1.55.821c-.045.026-.087.054-.132.083-.309.2-.613.408-.906.632-.026.019-.052.035-.078.057-.158.12-.311.245-.462.373l-.1.085c-.26.224-.51.455-.753.7-.061.061-.12.12-.182.184-.123.127-.248.257-.366.392s-.257.295-.38.446-.227.283-.337.427c-.083.111-.163.224-.245.337-.1.146-.208.3-.309.451-.113.175-.224.352-.33.531-.066.111-.13.222-.191.335-.113.2-.222.408-.326.618-.047.1-.1.2-.142.3-.1.212-.193.429-.283.649l-.106.267c-.1.274-.2.552-.29.833-.021.068-.04.139-.059.21-.078.257-.146.519-.21.786-.012.057-.028.113-.04.172-.068.307-.125.618-.175.932-.009.071-.021.144-.031.215-.045.326-.083.656-.106.989L159.5,70.8l-2.919-.458A12.209,12.209,0,0,0,142.6,80.666L136.367,123.9Zm-31.2-84.188a3.342,3.342,0,0,1,2.416-1.064h17.869A3.368,3.368,0,0,1,128,34.052a4.689,4.689,0,0,1,1.269,3.379l-1.784,78.363L125.72,81.942a13.757,13.757,0,0,0-4.158-9.217,12.5,12.5,0,0,0-9.429-3.591l-7.275.385-.153-5.946v0l-.668-26.152A4.662,4.662,0,0,1,105.291,34.047Zm7.322,44.134a3.634,3.634,0,0,1,2.652,1.059,4.715,4.715,0,0,1,1.409,3.174l2.985,57.2c-.321,0-.644.017-.967.017a49.081,49.081,0,0,1-21.8-5.061L91.746,83.507a4.346,4.346,0,0,1,.944-3.268,3.125,3.125,0,0,1,2.227-1.123ZM66.121,12.423A3.306,3.306,0,0,1,68.377,11.1l18-2.017a3.488,3.488,0,0,1,2.593.819,5.166,5.166,0,0,1,1.805,3.518l4.875,50.543L95.807,70l-1.369.071a12.133,12.133,0,0,0-8.627,4.273A13.449,13.449,0,0,0,82.73,84.415l2.492,24.719L79.6,95.666,75.026,29.684c-.024-.333-.061-.661-.106-.986-.009-.073-.021-.144-.031-.217-.05-.314-.106-.625-.175-.934-.012-.052-.026-.106-.038-.158-.064-.274-.134-.54-.212-.807-.019-.061-.038-.127-.057-.189-.09-.29-.189-.573-.3-.854-.028-.076-.059-.151-.09-.227-.1-.248-.205-.491-.316-.729-.021-.047-.04-.094-.064-.137-.125-.264-.262-.519-.4-.769-.045-.083-.092-.165-.139-.248-.144-.243-.293-.484-.448-.715-.042-.064-.087-.125-.132-.189q-.195-.283-.4-.552c-.057-.076-.116-.151-.172-.224-.172-.215-.349-.422-.533-.625-.061-.068-.125-.134-.189-.2-.16-.17-.321-.333-.488-.491-.05-.05-.1-.1-.151-.149-.205-.191-.415-.373-.632-.552-.066-.054-.132-.106-.2-.16-.224-.179-.455-.352-.689-.517l-.09-.057c-.229-.156-.462-.3-.7-.444-.05-.031-.1-.059-.149-.087-.262-.153-.531-.295-.8-.427-.031-.017-.064-.031-.094-.045-.286-.134-.573-.262-.868-.375,0,0,0,0,0,0-.3-.118-.616-.224-.932-.319a.119.119,0,0,1-.031-.012l-.16-1.1a5,5,0,0,1,.9-3.761Zm-24.5,15.55a3.04,3.04,0,0,1,2.19-1.121l17.869-1.022h.012a.617.617,0,0,0,.066,0c2.124-.064,4.061,1.954,4.236,4.479l2.723,39.259-2.249-5.389a13.756,13.756,0,0,0-7.02-7.277c-.392-.179-.79-.333-1.192-.472-.024-.007-.047-.017-.071-.026-.387-.13-.774-.236-1.166-.33-.038-.007-.078-.019-.116-.028-.382-.087-.765-.151-1.149-.2-.047-.007-.1-.014-.144-.019-.378-.045-.757-.073-1.135-.083-.054,0-.106,0-.158,0s-.127,0-.189,0c-.2,0-.4.019-.6.028-.17.009-.342.012-.512.026-.255.024-.507.066-.762.1-.158.026-.319.04-.477.071-.276.057-.55.13-.826.2-.13.035-.262.061-.394.1a12.484,12.484,0,0,0-1.2.429L43.936,58.96l-.819-6.954L40.694,31.414A4.542,4.542,0,0,1,41.617,27.973ZM36.506,71.886l2.683-1.123,2.7-1.126h0L52.855,65.05a3.61,3.61,0,0,1,2.853.1,4.743,4.743,0,0,1,2.4,2.515l22.56,54.061a49.2,49.2,0,0,1-8.044-13.761,10.232,10.232,0,0,0-9.606-6.631H46.522L35,77.086a4.349,4.349,0,0,1-.21-3.4,3.357,3.357,0,0,1,.375-.72A3.024,3.024,0,0,1,36.506,71.886ZM9.167,49.465a4.251,4.251,0,0,1,.583-3.32,2.819,2.819,0,0,1,1.958-1.2l17.447-2.31a4.19,4.19,0,0,1,4.018,2.388l.958,8.134,1.109,9.434-2.23.934a12.112,12.112,0,0,0-6.685,6.925,13.428,13.428,0,0,0,.488,10.521l9.677,20.366H19.885ZM228.3,111.824l-14.309,83h-29.63a4.53,4.53,0,1,0,0,9.061h28.068l-4.712,27.329H184.963a4.53,4.53,0,1,0,0,9.061h21.2L196,299.208a1.216,1.216,0,0,1-1.2,1.01H42.584a1.216,1.216,0,0,1-1.2-1.01L31.225,240.277h21.2a4.53,4.53,0,1,0,0-9.061H29.663l-4.712-27.329H53.157a4.53,4.53,0,1,0,0-9.061H23.389l-14.309-83a1.219,1.219,0,0,1,1.2-1.425H63.014a1.235,1.235,0,0,1,1.147.816,58.42,58.42,0,0,0,54.533,37.478c.618,0,1.244-.014,1.876-.035.295-.009.592-.021.89-.035.26-.014.521-.028.783-.045a58.278,58.278,0,0,0,8.152-1.064l.024,0a58.446,58.446,0,0,0,42.806-36.293,1.237,1.237,0,0,1,1.147-.816h52.735a1.217,1.217,0,0,1,1.2,1.425Zm0,0" transform="translate(-0.001 0)"/>
            </g>
          </g>
        </g>
        <g id="Fill_Outline" data-name="Fill Outline" transform="translate(1260 931.999)">
          <g id="Color">
            <g id="Group_10" data-name="Group 10">
              <g id="Group_4" data-name="Group 4">
                <circle id="Ellipse_1" data-name="Ellipse 1" cx="21" cy="21" r="21" transform="translate(16 15)" fill="#fcbc04"/>
                <path id="Path_20" data-name="Path 20" d="M57.919,34.4A20.837,20.837,0,0,1,34.558,23.972a6,6,0,0,0,4.71-8.845A21.236,21.236,0,0,0,37,15a20.846,20.846,0,0,0-4.923.587,2.879,2.879,0,0,0-.461.149A20.985,20.985,0,1,0,58,36c0-.541-.041-1.072-.081-1.6Z" fill="#e59730"/>
                <path id="Path_21" data-name="Path 21" d="M43.452,3.879,41.368,5.963a18.834,18.834,0,0,0-5.517,13.319,2.2,2.2,0,0,0,4.349.431l.4-1.963A18.834,18.834,0,0,1,46.663,7.269l.624-.546a2.086,2.086,0,0,0-.6-3.508,3,3,0,0,0-3.235.664Z" fill="#c4f236"/>
                <path id="Path_22" data-name="Path 22" d="M18,5h8A10,10,0,0,1,36,15v2H30A12,12,0,0,1,18,5Z" fill="#c4f236"/>
                <g id="Group_3" data-name="Group 3">
                  <path id="Path_23" data-name="Path 23" d="M19.1,10A11.99,11.99,0,0,0,30,17h5.541A10,10,0,0,0,26,10Z" fill="#a1d51c"/>
                  <path id="Path_24" data-name="Path 24" d="M40,12.5a21.323,21.323,0,0,1,.823-5.936,18.819,18.819,0,0,0-4.972,12.718,2.2,2.2,0,0,0,4.353.431l.4-1.963a.342.342,0,0,1,.016-.067A21.7,21.7,0,0,1,40,12.5Z" fill="#a1d51c"/>
                </g>
              </g>
              <g id="Group_7" data-name="Group 7">
                <circle id="Ellipse_2" data-name="Ellipse 2" cx="19" cy="19" r="19" transform="translate(3 23)" fill="#f9e109"/>
                <path id="Path_25" data-name="Path 25" d="M32,38A14,14,0,0,1,18,24v-.57A19.013,19.013,0,1,0,40.57,38Z" fill="#fcbc04"/>
                <g id="Group_6" data-name="Group 6">
                  <g id="Group_5" data-name="Group 5">
                    <path id="Path_26" data-name="Path 26" d="M22,30.38V39a2.993,2.993,0,0,0-2.12.88l-6.1-6.1a2.985,2.985,0,0,1,.52-4.66,15.158,15.158,0,0,1,4-1.66A2.991,2.991,0,0,1,22,30.38Z" fill="#f8664f"/>
                    <path id="Path_27" data-name="Path 27" d="M30.22,33.78l-6.1,6.1A2.993,2.993,0,0,0,22,39V30.38a2.991,2.991,0,0,1,3.7-2.92,15.158,15.158,0,0,1,4,1.66,2.985,2.985,0,0,1,.52,4.66Z" fill="#f8664f"/>
                    <path id="Path_28" data-name="Path 28" d="M33.62,42H25a2.993,2.993,0,0,0-.88-2.12l6.1-6.1a2.985,2.985,0,0,1,4.66.52,15.158,15.158,0,0,1,1.66,4A2.991,2.991,0,0,1,33.62,42Z" fill="#f8664f"/>
                  </g>
                  <path id="Path_29" data-name="Path 29" d="M14.3,29.12a2.985,2.985,0,0,0-.52,4.66l6.1,6.1A2.993,2.993,0,0,1,22,39V33.789a13.965,13.965,0,0,1-3.556-6.348c-.048.01-.1.007-.144.019a15.158,15.158,0,0,0-4,1.66Z" fill="#cc5144"/>
                  <path id="Path_30" data-name="Path 30" d="M22,33.789V39a2.993,2.993,0,0,1,2.12.88l2.833-2.833A13.993,13.993,0,0,1,22,33.789Z" fill="#cc5144"/>
                  <path id="Path_31" data-name="Path 31" d="M26.953,37.047,24.12,39.88A2.993,2.993,0,0,1,25,42h8.62a2.991,2.991,0,0,0,2.92-3.7c-.026-.1-.06-.2-.088-.3H32a13.935,13.935,0,0,1-5.047-.953Z" fill="#cc5144"/>
                  <path id="Path_32" data-name="Path 32" d="M15.194,32.366a1.039,1.039,0,0,1-.293-.857.9.9,0,0,1,.428-.674A13.1,13.1,0,0,1,18.791,29.4a.979.979,0,0,1,.236-.03A1.006,1.006,0,0,1,20,30.38v4.377a1,1,0,0,1-1.707.707Z" fill="#f89c8d"/>
                  <path id="Path_33" data-name="Path 33" d="M19.88,39.88A2.993,2.993,0,0,0,19,42H10.38a2.991,2.991,0,0,1-2.92-3.7,15.158,15.158,0,0,1,1.66-4,2.985,2.985,0,0,1,4.66-.52Z" fill="#cc5144"/>
                  <path id="Path_34" data-name="Path 34" d="M10.38,40a1.02,1.02,0,0,1-.807-.4.927.927,0,0,1-.175-.81,13.13,13.13,0,0,1,1.442-3.47.915.915,0,0,1,.8-.426,1.029,1.029,0,0,1,.729.3l3.1,3.1A1,1,0,0,1,14.758,40Z" fill="#f8664f"/>
                  <path id="Path_35" data-name="Path 35" d="M24,30.38a1.006,1.006,0,0,1,.973-1.012.937.937,0,0,1,.233.03A13.11,13.11,0,0,1,28.68,30.84a.9.9,0,0,1,.419.669,1.036,1.036,0,0,1-.293.856l-3.1,3.1A1,1,0,0,1,24,34.757Z" fill="#f89c8d"/>
                  <path id="Path_36" data-name="Path 36" d="M29.242,40a1,1,0,0,1-.707-1.707l3.1-3.1a1.029,1.029,0,0,1,.729-.3.919.919,0,0,1,.8.435A13.123,13.123,0,0,1,34.6,38.791a.931.931,0,0,1-.175.813,1.02,1.02,0,0,1-.807.4Z" fill="#f89c8d"/>
                  <path id="Path_37" data-name="Path 37" d="M36.54,45.7a15.158,15.158,0,0,1-1.66,4,2.985,2.985,0,0,1-4.66.52l-6.1-6.1A2.993,2.993,0,0,0,25,42h8.62a2.991,2.991,0,0,1,2.92,3.7Z" fill="#cc5144"/>
                  <path id="Path_38" data-name="Path 38" d="M32.363,49.106a1.029,1.029,0,0,1-.729-.3l-3.1-3.1A1,1,0,0,1,29.243,44H33.62a1.02,1.02,0,0,1,.807.4.927.927,0,0,1,.175.81,13.11,13.11,0,0,1-1.442,3.47.915.915,0,0,1-.8.426Z" fill="#f8664f"/>
                  <path id="Path_39" data-name="Path 39" d="M29.7,54.88a15.158,15.158,0,0,1-4,1.66A2.991,2.991,0,0,1,22,53.62V45a2.993,2.993,0,0,0,2.12-.88l6.1,6.1a2.985,2.985,0,0,1-.52,4.66Z" fill="#cc5144"/>
                  <path id="Path_40" data-name="Path 40" d="M24.973,54.632A1.006,1.006,0,0,1,24,53.62V49.243a1,1,0,0,1,1.707-.707l3.1,3.1a1.038,1.038,0,0,1,.293.857.9.9,0,0,1-.428.674A13.1,13.1,0,0,1,25.209,54.6a.979.979,0,0,1-.236.032Z" fill="#f8664f"/>
                  <path id="Path_41" data-name="Path 41" d="M22,45v8.62a2.991,2.991,0,0,1-3.7,2.92,15.158,15.158,0,0,1-4-1.66,2.985,2.985,0,0,1-.52-4.66l6.1-6.1A2.993,2.993,0,0,0,22,45Z" fill="#cc5144"/>
                  <path id="Path_42" data-name="Path 42" d="M19.027,54.632a.937.937,0,0,1-.233-.03A13.11,13.11,0,0,1,15.32,53.16a.9.9,0,0,1-.419-.669,1.038,1.038,0,0,1,.293-.857l3.1-3.1A1,1,0,0,1,20,49.243V53.62a1.006,1.006,0,0,1-.973,1.012Z" fill="#f8664f"/>
                  <path id="Path_43" data-name="Path 43" d="M19.88,44.12l-6.1,6.1a2.985,2.985,0,0,1-4.66-.52,15.158,15.158,0,0,1-1.66-4A2.991,2.991,0,0,1,10.38,42H19a2.993,2.993,0,0,0,.88,2.12Z" fill="#cc5144"/>
                  <path id="Path_44" data-name="Path 44" d="M11.637,49.106a.919.919,0,0,1-.8-.435A13.1,13.1,0,0,1,9.4,45.209a.931.931,0,0,1,.175-.813,1.02,1.02,0,0,1,.807-.4h4.377a1,1,0,0,1,.707,1.707l-3.1,3.1a1.029,1.029,0,0,1-.729.3Z" fill="#f8664f"/>
                  <path id="Path_45" data-name="Path 45" d="M18.791,29.4a13.1,13.1,0,0,0-3.462,1.437.9.9,0,0,0-.428.674,1.039,1.039,0,0,0,.293.857l3.1,3.1A1,1,0,0,0,20,34.757V31.18a14.008,14.008,0,0,1-.907-1.8c-.022,0-.044-.014-.066-.014a.979.979,0,0,0-.236.034Z" fill="#f8664f"/>
                  <path id="Path_46" data-name="Path 46" d="M29.242,40H33.62a1.02,1.02,0,0,0,.807-.4.931.931,0,0,0,.175-.813c-.068-.266-.148-.529-.232-.791H32a13.688,13.688,0,0,1-2.861-.311l-.6.6a1,1,0,0,0,.7,1.715Z" fill="#f8664f"/>
                </g>
              </g>
              <g id="Group_9" data-name="Group 9">
                <path id="Path_47" data-name="Path 47" d="M63,42a19,19,0,0,1-38,0Z" fill="#f9e109"/>
                <path id="Path_48" data-name="Path 48" d="M41,42H25a18.986,18.986,0,0,0,35.147,9.978C49.5,51.753,41,47.379,41,42Z" fill="#fcbc04"/>
                <path id="Path_49" data-name="Path 49" d="M36.305,54.878a14.877,14.877,0,0,0,4,1.662A3,3,0,0,0,44,53.616V42l-8.215,8.215a2.986,2.986,0,0,0,.52,4.663Z" fill="#f8664f"/>
                <path id="Path_50" data-name="Path 50" d="M29.46,45.7a14.877,14.877,0,0,0,1.662,4,2.986,2.986,0,0,0,4.663.52L44,42H32.384a3,3,0,0,0-2.924,3.7Z" fill="#f8664f"/>
                <path id="Path_51" data-name="Path 51" d="M41.6,44.4l-5.818,5.818a2.987,2.987,0,0,0,.521,4.663,14.877,14.877,0,0,0,4,1.659A3,3,0,0,0,44,53.616V47.249A8.689,8.689,0,0,1,41.6,44.4Z" fill="#cc5144"/>
                <path id="Path_52" data-name="Path 52" d="M29.46,45.7a14.877,14.877,0,0,0,1.662,4,2.986,2.986,0,0,0,4.662.52L41.6,44.4A5.389,5.389,0,0,1,41,42H32.384a3,3,0,0,0-2.924,3.7Z" fill="#cc5144"/>
                <g id="Group_8" data-name="Group 8">
                  <path id="Path_53" data-name="Path 53" d="M41.021,54.631a.968.968,0,0,1-.231-.029,12.93,12.93,0,0,1-3.457-1.439.9.9,0,0,1-.428-.674,1.039,1.039,0,0,1,.294-.86l3.094-3.093A1,1,0,0,1,42,49.243v4.373a1.022,1.022,0,0,1-.3.724.975.975,0,0,1-.678.291Z" fill="#f8664f"/>
                  <path id="Path_54" data-name="Path 54" d="M33.64,49.1a.921.921,0,0,1-.8-.436,12.923,12.923,0,0,1-1.44-3.455.932.932,0,0,1,.178-.811,1.021,1.021,0,0,1,.808-.4h4.373a1,1,0,0,1,.707,1.707l-3.1,3.1a1.033,1.033,0,0,1-.731.3Z" fill="#f8664f"/>
                  <path id="Path_55" data-name="Path 55" d="M47.7,56.54a14.877,14.877,0,0,0,4-1.662,2.986,2.986,0,0,0,.52-4.663L44,42V53.616a3,3,0,0,0,3.7,2.924Z" fill="#f8664f"/>
                  <path id="Path_56" data-name="Path 56" d="M55.616,42H44l8.215,8.215a2.986,2.986,0,0,0,4.663-.52A14.877,14.877,0,0,0,58.54,45.7,3,3,0,0,0,55.616,42Z" fill="#f8664f"/>
                </g>
                <path id="Path_57" data-name="Path 57" d="M54.36,49.1a1.033,1.033,0,0,1-.731-.3l-3.093-3.094A1,1,0,0,1,51.243,44h4.373a1.021,1.021,0,0,1,.808.4.933.933,0,0,1,.178.812,12.93,12.93,0,0,1-1.439,3.457.921.921,0,0,1-.8.431Z" fill="#f89c8d"/>
                <path id="Path_58" data-name="Path 58" d="M44,53.616a3,3,0,0,0,3.7,2.924,14.877,14.877,0,0,0,4-1.662,2.949,2.949,0,0,0,1.119-3.767A21.824,21.824,0,0,1,44,47.249Z" fill="#cc5144"/>
                <path id="Path_59" data-name="Path 59" d="M46.979,54.631A1.011,1.011,0,0,1,46,53.616V49.243a1,1,0,0,1,1.707-.707L50.8,51.629a1.039,1.039,0,0,1,.294.86.9.9,0,0,1-.428.674A12.923,12.923,0,0,1,47.209,54.6a.96.96,0,0,1-.23.031Z" fill="#f89c8d"/>
                <path id="Path_60" data-name="Path 60" d="M46,49.243v4.373a1.011,1.011,0,0,0,.979,1.015.96.96,0,0,0,.23-.029,12.923,12.923,0,0,0,3.458-1.439.9.9,0,0,0,.428-.674,1.039,1.039,0,0,0-.294-.86l-1.552-1.551a21.7,21.7,0,0,1-3.08-1.391A.981.981,0,0,0,46,49.243Z" fill="#f8664f"/>
              </g>
            </g>
          </g>
          <g id="Outline_copy" data-name="Outline copy">
            <g id="Group_11" data-name="Group 11">
              <path id="Path_61" data-name="Path 61" d="M42.332,21.863A5,5,0,0,1,35.4,23.234,1,1,0,1,0,34.281,24.9a6.957,6.957,0,0,0,3.882,1.187,7.1,7.1,0,0,0,1.372-.135,6.958,6.958,0,0,0,4.458-2.971,1,1,0,1,0-1.661-1.114Z" fill="#1f2d51"/>
              <circle id="Ellipse_3" data-name="Ellipse 3" cx="1" cy="1" r="1" transform="translate(45 29)" fill="#1f2d51"/>
              <circle id="Ellipse_4" data-name="Ellipse 4" cx="1" cy="1" r="1" transform="translate(48 26)" fill="#1f2d51"/>
              <circle id="Ellipse_5" data-name="Ellipse 5" cx="1" cy="1" r="1" transform="translate(49 30)" fill="#1f2d51"/>
              <path id="Path_62" data-name="Path 62" d="M25.589,17.213a22.135,22.135,0,0,0-2.28,1.594,1,1,0,0,0,1.247,1.563,20.008,20.008,0,0,1,3.965-2.461A12.893,12.893,0,0,0,30,18h4.913c-.027.426-.062.851-.062,1.282a3.2,3.2,0,0,0,6.334.627l.392-1.963c.089-.445.2-.885.322-1.322A20.053,20.053,0,0,1,57,36c0,.569-.033,1.174-.1,1.9a1,1,0,0,0,.9,1.092.8.8,0,0,0,.1.005,1,1,0,0,0,.994-.9c.077-.8.113-1.462.113-2.1A22.062,22.062,0,0,0,42.56,14.73a17.925,17.925,0,0,1,4.761-6.708l.624-.546a3.086,3.086,0,0,0-.886-5.189,4,4,0,0,0-4.314.885L40.661,5.256a19.813,19.813,0,0,0-4.233,6.267A11.012,11.012,0,0,0,26,4H18a1,1,0,0,0-1,1,13.01,13.01,0,0,0,8.589,12.213ZM42.075,6.67l2.084-2.084a2,2,0,0,1,2.157-.442,1.086,1.086,0,0,1,.312,1.827L46,6.517a19.941,19.941,0,0,0-6.388,11.037l-.392,1.963a1.2,1.2,0,0,1-2.373-.235A17.719,17.719,0,0,1,42.075,6.67ZM26,6a9.005,9.005,0,0,1,8.875,7.572A13.02,13.02,0,0,0,25,9a1,1,0,1,0,0,2,11.032,11.032,0,0,1,9.206,5H30A11.015,11.015,0,0,1,19.045,6Z" fill="#1f2d51"/>
              <path id="Path_63" data-name="Path 63" d="M7.2,41.444A4,4,0,0,0,10.38,43h7.75a3.94,3.94,0,0,0,.424,1.032l-5.481,5.481a2.01,2.01,0,0,1-1.686.578,1.9,1.9,0,0,1-1.407-.9,14.128,14.128,0,0,1-1.551-3.735,1,1,0,1,0-1.938.491,16.1,16.1,0,0,0,1.772,4.269,3.885,3.885,0,0,0,2.88,1.861,4.056,4.056,0,0,0,.5.031c.091,0,.179-.02.27-.027a4.12,4.12,0,0,0,.008.777A3.887,3.887,0,0,0,13.79,55.74a16.1,16.1,0,0,0,4.262,1.769,3.916,3.916,0,0,0,3.392-.713A4.018,4.018,0,0,0,22,56.254a4.018,4.018,0,0,0,.556.542,3.914,3.914,0,0,0,3.391.713c.1-.024.187-.052.281-.081l.137-.041a1,1,0,1,0-.544-1.925l-.368.109a1.936,1.936,0,0,1-1.67-.354A2.01,2.01,0,0,1,23,53.62V45a1,1,0,0,0-1-1,2,2,0,0,1,0-4,1,1,0,0,0,1-1V30.38a2.007,2.007,0,0,1,.783-1.6,1.93,1.93,0,0,1,1.672-.354,14.108,14.108,0,0,1,3.731,1.549,1.9,1.9,0,0,1,.905,1.409,2.019,2.019,0,0,1-.578,1.686l-4.536,4.536a1,1,0,1,0,1.414,1.414l4.536-4.536a2.011,2.011,0,0,1,1.686-.578,1.9,1.9,0,0,1,1.407.9,14.133,14.133,0,0,1,1.551,3.735,1,1,0,1,0,1.938-.491,16.071,16.071,0,0,0-1.772-4.269,3.885,3.885,0,0,0-2.88-1.861,4.078,4.078,0,0,0-.773-.007,4.089,4.089,0,0,0-.008-.774A3.887,3.887,0,0,0,30.21,28.26a16.1,16.1,0,0,0-4.262-1.769,3.907,3.907,0,0,0-3.392.713,4.018,4.018,0,0,0-.556.542,4.018,4.018,0,0,0-.556-.542,3.91,3.91,0,0,0-3.39-.713,16.1,16.1,0,0,0-4.269,1.772,3.885,3.885,0,0,0-1.861,2.88,4.089,4.089,0,0,0-.008.774,4,4,0,0,0-.773.007A3.886,3.886,0,0,0,8.26,33.79a16.076,16.076,0,0,0-1.769,4.262A3.917,3.917,0,0,0,7.2,41.444ZM21,53.62a2.007,2.007,0,0,1-.783,1.6,1.935,1.935,0,0,1-1.672.354,14.108,14.108,0,0,1-3.731-1.549,1.9,1.9,0,0,1-.9-1.409,2.019,2.019,0,0,1,.578-1.686l5.481-5.481A3.988,3.988,0,0,0,21,45.875ZM13.909,31.387a1.9,1.9,0,0,1,.9-1.407,14.113,14.113,0,0,1,3.737-1.551,1.926,1.926,0,0,1,1.67.354A2.007,2.007,0,0,1,21,30.38v7.745a3.988,3.988,0,0,0-1.032.429l-5.481-5.481A2.019,2.019,0,0,1,13.909,31.387Zm-5.48,7.158a14.114,14.114,0,0,1,1.549-3.731,1.9,1.9,0,0,1,1.409-.9,1.982,1.982,0,0,1,.255-.015,2.014,2.014,0,0,1,1.431.593l5.481,5.481A3.988,3.988,0,0,0,18.125,41H10.38a2.007,2.007,0,0,1-1.6-.783A1.934,1.934,0,0,1,8.429,38.545Z" fill="#1f2d51"/>
              <path id="Path_64" data-name="Path 64" d="M10.688,28.008A17.79,17.79,0,0,1,22,24,18.082,18.082,0,0,1,39.593,38.209a1,1,0,0,0,.976.791,1.015,1.015,0,0,0,.211-.022,1,1,0,0,0,.768-1.187A19.987,19.987,0,0,0,9.43,26.453a1,1,0,0,0,1.258,1.555Z" fill="#1f2d51"/>
              <path id="Path_65" data-name="Path 65" d="M63,41H25a1,1,0,0,0-1,1,19.969,19.969,0,0,0,7.272,15.415A17.829,17.829,0,0,1,22,60,18.021,18.021,0,0,1,4,42,17.8,17.8,0,0,1,8.008,30.688,1,1,0,0,0,6.453,29.43,19.974,19.974,0,0,0,32.986,58.677a19.943,19.943,0,0,0,23.584-1.13,1,1,0,0,0-1.258-1.555A17.8,17.8,0,0,1,44,60,18.023,18.023,0,0,1,26.027,43h2.909a3.892,3.892,0,0,0-.445,2.948,15.89,15.89,0,0,0,1.773,4.26,3.883,3.883,0,0,0,2.879,1.864,4.1,4.1,0,0,0,.505.031c.092,0,.181-.02.272-.027a4.08,4.08,0,0,0,.008.781,3.883,3.883,0,0,0,1.864,2.879,15.89,15.89,0,0,0,4.26,1.773,3.916,3.916,0,0,0,3.392-.717A4.024,4.024,0,0,0,44,56.249a4.024,4.024,0,0,0,.556.543,3.916,3.916,0,0,0,3.392.717,15.89,15.89,0,0,0,4.26-1.773,3.883,3.883,0,0,0,1.864-2.879,4.08,4.08,0,0,0,.008-.781c.091.007.18.027.272.027a4.1,4.1,0,0,0,.505-.031,3.883,3.883,0,0,0,2.879-1.864,15.89,15.89,0,0,0,1.773-4.26A3.892,3.892,0,0,0,59.064,43h2.909a17.77,17.77,0,0,1-3.981,10.312,1,1,0,1,0,1.555,1.258A20.044,20.044,0,0,0,64,42,1,1,0,0,0,63,41ZM33.388,50.087a1.894,1.894,0,0,1-1.409-.906,13.929,13.929,0,0,1-1.55-3.725,1.936,1.936,0,0,1,.357-1.672,2.014,2.014,0,0,1,1.6-.784h9.2l-6.508,6.508a2.024,2.024,0,0,1-1.69.579Zm8.828,5.127a1.944,1.944,0,0,1-1.672.357,13.929,13.929,0,0,1-3.725-1.55,1.894,1.894,0,0,1-.906-1.409,2.022,2.022,0,0,1,.579-1.69L43,44.414v9.2a2.014,2.014,0,0,1-.784,1.6Zm9.871-2.6a1.894,1.894,0,0,1-.906,1.409,13.929,13.929,0,0,1-3.725,1.55,1.941,1.941,0,0,1-1.672-.357,2.014,2.014,0,0,1-.784-1.6v-9.2l6.508,6.508a2.022,2.022,0,0,1,.579,1.688Zm5.127-8.828a1.936,1.936,0,0,1,.357,1.672,13.929,13.929,0,0,1-1.55,3.725,1.894,1.894,0,0,1-1.409.906,2.022,2.022,0,0,1-1.69-.579L46.414,43h9.2a2.014,2.014,0,0,1,1.6.784Z" fill="#1f2d51"/>
            </g>
          </g>
        </g>
        <g id="watermelon" transform="translate(1513.997 994)">
          <path id="Path_66" data-name="Path 66" d="M8,48.127H8A28.374,28.374,0,0,0,48.127,8h0Z" transform="translate(-7.216 -7.219)" fill="#98db7c"/>
          <path id="Path_67" data-name="Path 67" d="M48.127,218.7A28.374,28.374,0,0,1,9.363,219.97L8,221.333H8a28.374,28.374,0,0,0,48.407-21.382A28.27,28.27,0,0,1,48.127,218.7Z" transform="translate(-7.216 -180.425)" fill="#82d361"/>
          <path id="Path_68" data-name="Path 68" d="M41.638,75.2h0A23.729,23.729,0,1,0,75.2,41.638h0Z" transform="translate(-37.569 -37.572)" fill="#ff4755"/>
          <path id="Path_69" data-name="Path 69" d="M75.2,215.412a23.73,23.73,0,0,1-32.188,1.267l-1.37,1.37h0a23.727,23.727,0,0,0,40.469-18.1A23.639,23.639,0,0,1,75.2,215.412Z" transform="translate(-37.569 -180.426)" fill="#fc2b3a"/>
          <path id="Path_70" data-name="Path 70" d="M194.6,13.634A29.13,29.13,0,0,0,186.959.214a.734.734,0,0,0-1.038,0L172.846,13.289a.734.734,0,0,0,1.038,1.038l9.255-9.255A23.042,23.042,0,0,1,162.115,43.49a.734.734,0,0,0-.268,1.443,24.51,24.51,0,0,0,22.331-40.9l2.255-2.255a27.686,27.686,0,0,1,6.6,26.455.734.734,0,1,0,1.415.391,29.317,29.317,0,0,0,.155-14.99Z" transform="translate(-145.497)"/>
          <path id="Path_71" data-name="Path 71" d="M47.584,170.519a.734.734,0,0,0-.951.416A27.725,27.725,0,0,1,20.84,188.522a27.5,27.5,0,0,1-19.059-7.6l2.255-2.255a24.568,24.568,0,0,0,9.373,5.519.734.734,0,0,0,.444-1.4,22.746,22.746,0,0,1-8.778-5.158l21.237-21.237a.734.734,0,0,0-1.038-1.038L.218,180.41a.734.734,0,0,0,0,1.038,29.164,29.164,0,0,0,41.244,0A28.959,28.959,0,0,0,48,171.47.734.734,0,0,0,47.584,170.519Z" transform="translate(0 -139.989)"/>
          <path id="Path_72" data-name="Path 72" d="M284.64,286.015a1.4,1.4,0,0,0,.987-2.382h0c-.2-.2-1.7-1.329-2.5-.527-.241.241-.451.7-.084,1.544a3.449,3.449,0,0,0,.61.956A1.386,1.386,0,0,0,284.64,286.015Z" transform="translate(-255.219 -255.203)"/>
          <path id="Path_73" data-name="Path 73" d="M216.918,320.641c-1.123.166-1.109,2.043-1.068,2.321a1.395,1.395,0,0,0,2.69.277,2.127,2.127,0,0,0-.333-1.743C217.753,320.7,217.256,320.592,216.918,320.641Z" transform="translate(-194.756 -289.319)"/>
          <path id="Path_74" data-name="Path 74" d="M137.366,327.619a1.386,1.386,0,0,0,.038,1.067,1.395,1.395,0,0,0,2.576-.091,3.446,3.446,0,0,0,.159-1.123c-.014-.916-.4-1.251-.717-1.37-1.063-.4-1.957,1.254-2.055,1.517Z" transform="translate(-123.868 -294.2)"/>
          <path id="Path_75" data-name="Path 75" d="M320.637,216.918c-.165,1.123,1.636,1.651,1.914,1.692a1.4,1.4,0,1,0,.407-2.76C322.68,215.809,320.8,215.795,320.637,216.918Z" transform="translate(-289.312 -194.759)"/>
          <path id="Path_76" data-name="Path 76" d="M327.488,140.163a3.126,3.126,0,0,0,1.123-.158,1.4,1.4,0,0,0-.976-2.614,3.446,3.446,0,0,0-.952.616c-.683.611-.684,1.12-.565,1.44S326.571,140.148,327.488,140.163Z" transform="translate(-294.213 -123.896)"/>
        </g>
        <g id="pizza" transform="translate(1790.832 158)">
          <path id="Path_115" data-name="Path 115" d="M.168,326l326-103.727C326.168,99.516,226.652,0,103.895,0Zm0,0" transform="translate(0 0)" fill="#f59707"/>
          <path id="Path_116" data-name="Path 116" d="M233.984,185.516a36.787,36.787,0,0,1-26.191-10.84L218.269,164.2c8.392,8.379,23.066,8.379,31.431,0a22.254,22.254,0,0,0,0-31.431l10.476-10.476a37.03,37.03,0,0,1-26.191,63.223Zm0,0" transform="translate(-63.408 -37.348)" fill="#ef7f00"/>
          <path id="Path_117" data-name="Path 117" d="M26.508,375.823,314.654,284.3l8.973,28.248L35.481,404.071Zm0,0" transform="translate(-8.044 -86.825)" fill="#e76400"/>
          <path id="Path_118" data-name="Path 118" d="M300.959,245.907c0-89.878-73.123-163-163-163a29.386,29.386,0,0,1-17.1-5.519l-9.147,28.753a58.575,58.575,0,0,0,26.251,6.4c73.541,0,133.364,59.831,133.364,133.364a58.54,58.54,0,0,0,6.4,26.251l28.75-9.147A29.4,29.4,0,0,1,300.959,245.907Zm0,0" transform="translate(-34.064 -23.634)" fill="#e76400"/>
          <path id="Path_119" data-name="Path 119" d="M136.469,0a29.636,29.636,0,1,0,0,59.272,163,163,0,0,1,163,163,29.636,29.636,0,1,0,59.272,0C358.743,99.516,259.227,0,136.469,0Zm0,0" transform="translate(-32.575 0)" fill="#fdcf6d"/>
          <path id="Path_120" data-name="Path 120" d="M443.44,306.969A29.636,29.636,0,1,1,413.8,277.332,29.638,29.638,0,0,1,443.44,306.969Zm0,0" transform="translate(-117.272 -84.696)" fill="#fdbc34"/>
          <path id="Path_121" data-name="Path 121" d="M435.137,313.485a14.819,14.819,0,1,1-14.82-14.817A14.818,14.818,0,0,1,435.137,313.485Zm0,0" transform="translate(-123.787 -91.212)" fill="#fdab00"/>
          <path id="Path_122" data-name="Path 122" d="M138.832,138.092V108.455a7.409,7.409,0,1,0,0-14.817V64a37.046,37.046,0,1,1,0,74.092Zm0,0" transform="translate(-42.348 -19.545)" fill="#c82e25"/>
          <path id="Path_123" data-name="Path 123" d="M79.879,287.424a37.046,37.046,0,1,1,0-74.092v29.637a7.409,7.409,0,1,0,0,14.817Zm0,0" transform="translate(-13.029 -65.151)" fill="#c82e25"/>
          <path id="Path_124" data-name="Path 124" d="M293.213,261.045A37.084,37.084,0,0,1,256.168,224H285.8a7.41,7.41,0,1,0,14.82,0h29.635A37.084,37.084,0,0,1,293.213,261.045Zm0,0" transform="translate(-78.182 -68.409)" fill="#c82e25"/>
          <path id="Path_125" data-name="Path 125" d="M157.013,286.622a44.16,44.16,0,0,1-31.431-13.01l10.479-10.476c11.171,11.171,30.736,11.171,41.907,0a29.661,29.661,0,0,0,0-41.91l10.476-10.476a44.44,44.44,0,0,1-31.431,75.872Zm0,0" transform="translate(-38.301 -64.362)" fill="#ef7f00"/>
          <g id="Group_14" data-name="Group 14" transform="translate(29.803 88.909)">
            <path id="Path_126" data-name="Path 126" d="M187.44,242.969A29.636,29.636,0,1,1,157.8,213.332,29.638,29.638,0,0,1,187.44,242.969Zm0,0" transform="translate(-68.893 -154.06)" fill="#8b2800"/>
            <path id="Path_127" data-name="Path 127" d="M257.955,320.9a22.227,22.227,0,1,1-22.227-22.227A22.228,22.228,0,0,1,257.955,320.9Zm0,0" transform="translate(-94.953 -180.121)" fill="#8b2800"/>
            <path id="Path_128" data-name="Path 128" d="M72.469,377.485a14.819,14.819,0,1,1-14.817-14.817A14.817,14.817,0,0,1,72.469,377.485Zm0,0" transform="translate(-42.832 -199.667)" fill="#8b2800"/>
            <path id="Path_129" data-name="Path 129" d="M257.955,150.227A22.227,22.227,0,1,1,235.727,128,22.228,22.228,0,0,1,257.955,150.227Zm0,0" transform="translate(-94.953 -128)" fill="#8b2800"/>
          </g>
          <path id="Path_130" data-name="Path 130" d="M309.316,170.328c-.13-.507-14.616-54.969-68.606-95.473C201.987,45.82,138.24,41.848,137.605,41.813l1.707-29.594c2.966.174,73.381,4.58,119.168,38.933,62.761,47.068,78.924,109.357,79.576,111.983Zm0,0" transform="translate(-41.973 -3.732)" fill="#fee3aa"/>
        </g>
        <g id="doughnut" transform="translate(323 1018.832)">
          <path id="Path_131" data-name="Path 131" d="M50,21.7C50,9.808,38.807.168,25,.168S0,9.808,0,21.7v2.392C0,35.983,11.193,45.622,25,45.622s25-9.64,25-21.531ZM25,28.876c-4.767,0-8.834-2.477-10.521-5.981,1.687-3.5,5.755-5.981,10.521-5.981s8.833,2.477,10.521,5.981C33.833,26.4,29.766,28.876,25,28.876Zm0,0" transform="translate(0)" fill="#fdbc34"/>
          <path id="Path_132" data-name="Path 132" d="M25,226.193c-13.785,0-25-9.659-25-21.531V202.27H4.546v2.393c0,9.366,9.175,16.986,20.455,16.986s20.455-7.62,20.455-16.986V202.27H50v2.393C50,216.534,38.785,226.193,25,226.193Zm0,0" transform="translate(0 -180.571)" fill="#f59707"/>
          <path id="Path_133" data-name="Path 133" d="M47.727,13.8c-2.273-2.273,0-4.546-2.273-6.818C43.834,5.366,41,5.751,38.637,4.713a23.98,23.98,0,0,1-2.273-2.273C34.091.168,25,.168,25,.168H20.455c-4.546,0-6.818,2.273-9.091,2.273S6.818,4.713,6.818,4.713,4.546,6.986,4.593,9.259A7.271,7.271,0,0,1,2.273,13.8,7.038,7.038,0,0,0,0,18.35,7.039,7.039,0,0,0,2.273,22.9a3.242,3.242,0,0,1,.879,1.482c.03.083.05.17.081.253.3,1.694-.96,3.389-.96,5.083a2.226,2.226,0,0,0,2.273,2.273,2.226,2.226,0,0,1,2.273,2.273,2.226,2.226,0,0,0,2.273,2.273A2.226,2.226,0,0,1,11.364,38.8a2.273,2.273,0,1,0,4.545,0,2.273,2.273,0,0,1,4.546,0s0,4.546,4.546,4.546S29.545,38.8,29.545,38.8a2.273,2.273,0,0,1,4.546,0,2.273,2.273,0,1,0,4.546,0V36.532a2.226,2.226,0,0,1,2.273-2.273,2.226,2.226,0,0,0,2.273-2.273,2.226,2.226,0,0,1,2.273-2.273,2.226,2.226,0,0,0,2.273-2.273c0-2.191,2.273-2.273,2.273-6.818C50,18.35,50,16.077,47.727,13.8ZM36.364,17.213c0,4.393-5.087,7.954-11.363,7.954s-11.364-3.561-11.364-7.954S18.724,9.259,25,9.259,36.364,12.82,36.364,17.213Zm0,0" fill="#993b17"/>
          <path id="Path_134" data-name="Path 134" d="M82.182,160.98c-10.2,0-18.182-6.489-18.182-14.772a12.51,12.51,0,0,1,.111-1.665l2.251.3a10.3,10.3,0,0,0-.089,1.363c0,7.009,6.989,12.5,15.909,12.5s15.909-5.491,15.909-12.5h2.273C100.364,154.491,92.378,160.98,82.182,160.98Zm0,0" transform="translate(-57.182 -128.994)" fill="#ad6143"/>
          <path id="Path_135" data-name="Path 135" d="M133.835,253.063a20.9,20.9,0,0,1-12.023-3.6l1.314-1.855a19.7,19.7,0,0,0,20.632.521l1.2,1.931A21.048,21.048,0,0,1,133.835,253.063Zm0,0" transform="translate(-108.835 -221.077)" fill="#c28a73"/>
          <path id="Path_136" data-name="Path 136" d="M100.013,29.4a12.071,12.071,0,0,0-1.6-.362,17.135,17.135,0,0,1-4.017-1.1l-.726-.4a17.054,17.054,0,0,1-2.681-2.544l-.133-.151a26.422,26.422,0,0,0-8.27-1.065H78.045a10.486,10.486,0,0,0-4.366,1.081,12.034,12.034,0,0,1-4.725,1.192,6.417,6.417,0,0,0-1.328.936,4.026,4.026,0,0,0-.9,1.445l-2.271-.035a5.362,5.362,0,0,1,1.563-3.016,5.663,5.663,0,0,1,2.934-1.6,9.915,9.915,0,0,0,3.853-1.019A12.639,12.639,0,0,1,78.045,21.5H82.59c3.07,0,8.27.5,9.69,1.553l.4.411a15.958,15.958,0,0,0,2.271,2.189l.366.2a15.081,15.081,0,0,0,3.48.939c1.618.3,2.253.468,2.643.859l-.8.8Zm0,0" transform="translate(-57.59 -19.059)" fill="#ad6143"/>
          <path id="Path_137" data-name="Path 137" d="M208.351,27.932l-.724-.4a17.054,17.054,0,0,1-2.681-2.544l-.133-.151a26.408,26.408,0,0,0-8.27-1.065H192V21.5h4.546c3.067,0,8.27.5,9.69,1.553l.4.411a15.958,15.958,0,0,0,2.271,2.189l.366.2Zm0,0" transform="translate(-171.545 -19.059)" fill="#c28a73"/>
          <path id="Path_138" data-name="Path 138" d="M25,100.532a4.342,4.342,0,0,1-4.546-4.539,2.273,2.273,0,1,0-4.546-.007,2.16,2.16,0,0,1-2.257,2.273,2.185,2.185,0,0,1-2.288-2.273,2.238,2.238,0,0,0-2.273-2.273,2.161,2.161,0,0,1-2.273-2.273,2.238,2.238,0,0,0-2.273-2.273A2.161,2.161,0,0,1,2.273,86.9a7.411,7.411,0,0,1,.5-2.275,5.857,5.857,0,0,0,.457-2.807l-.053-.164a3.378,3.378,0,0,0-.908-1.571A7.114,7.114,0,0,1,0,75.551a7.06,7.06,0,0,1,2.273-4.565,7.282,7.282,0,0,0,2.322-4.548l2.273.049A9.455,9.455,0,0,1,3.88,72.593a5.026,5.026,0,0,0-1.607,2.97A5.038,5.038,0,0,0,3.88,78.47a5.611,5.611,0,0,1,1.491,2.568l.075.269a7.825,7.825,0,0,1-.508,4.017A6.03,6.03,0,0,0,4.546,86.9a4.452,4.452,0,0,1,4.545,4.546,4.452,4.452,0,0,1,4.546,4.545,4.452,4.452,0,0,1,4.546-4.545,4.449,4.449,0,0,1,4.545,4.539A2.083,2.083,0,0,0,25,98.259a2.086,2.086,0,0,0,2.273-2.286,4.545,4.545,0,0,1,9.091.013V93.713A4.445,4.445,0,0,1,40.9,89.168a4.47,4.47,0,0,1,4.559-4.545,5.547,5.547,0,0,1,1.238-3.38A4.915,4.915,0,0,0,47.727,77.8c0-2.093,0-3.6-1.607-5.211a6.38,6.38,0,0,1-1.8-5.016c0-1.035-.02-1.352-.471-1.8l1.607-1.607a4.2,4.2,0,0,1,1.136,3.409,4.142,4.142,0,0,0,1.137,3.409C50,73.259,50,75.569,50,77.8a7.1,7.1,0,0,1-1.44,4.734,3.384,3.384,0,0,0-.832,2.084A2.161,2.161,0,0,1,45.455,86.9a2.238,2.238,0,0,0-2.273,2.273,2.16,2.16,0,0,1-2.257,2.273,2.234,2.234,0,0,0-2.288,2.273v2.273a2.273,2.273,0,1,1-4.546,0,2.273,2.273,0,0,0-4.546,0A4.342,4.342,0,0,1,25,100.532Zm0,0" transform="translate(0 -57.182)" fill="#8b2800"/>
          <g id="Group_15" data-name="Group 15" transform="translate(4.546 0.168)">
            <path id="Path_139" data-name="Path 139" d="M89.878,258.441a2.273,2.273,0,1,1-2.273-2.273A2.273,2.273,0,0,1,89.878,258.441Zm0,0" transform="translate(-80.787 -228.895)" fill="#7d1a00"/>
            <path id="Path_140" data-name="Path 140" d="M132.546,45.105a2.273,2.273,0,1,1-2.273-2.273A2.273,2.273,0,0,1,132.546,45.105Zm0,0" transform="translate(-118.909 -38.287)" fill="#7d1a00"/>
            <path id="Path_141" data-name="Path 141" d="M47.213,130.441a2.273,2.273,0,1,1-2.273-2.273A2.273,2.273,0,0,1,47.213,130.441Zm0,0" transform="translate(-42.668 -114.532)" fill="#7d1a00"/>
            <path id="Path_142" data-name="Path 142" d="M388.546,215.773a2.273,2.273,0,1,1-2.273-2.273A2.273,2.273,0,0,1,388.546,215.773Zm0,0" transform="translate(-347.636 -190.773)" fill="#7d1a00"/>
            <path id="Path_143" data-name="Path 143" d="M281.878,279.773a2.273,2.273,0,1,1-2.273-2.273A2.273,2.273,0,0,1,281.878,279.773Zm0,0" transform="translate(-252.332 -247.955)" fill="#7d1a00"/>
            <path id="Path_144" data-name="Path 144" d="M175.213,258.441a2.273,2.273,0,1,1-2.273-2.273A2.273,2.273,0,0,1,175.213,258.441Zm0,0" transform="translate(-157.032 -228.895)" fill="#7d1a00"/>
            <path id="Path_145" data-name="Path 145" d="M217.878,2.441A2.273,2.273,0,1,1,215.605.168,2.273,2.273,0,0,1,217.878,2.441Zm0,0" transform="translate(-195.15 -0.168)" fill="#7d1a00"/>
            <path id="Path_146" data-name="Path 146" d="M324.546,23.773a2.273,2.273,0,1,1-2.273-2.273A2.273,2.273,0,0,1,324.546,23.773Zm0,0" transform="translate(-290.455 -19.227)" fill="#7d1a00"/>
            <path id="Path_147" data-name="Path 147" d="M388.546,109.105a2.273,2.273,0,1,1-2.273-2.273A2.273,2.273,0,0,1,388.546,109.105Zm0,0" transform="translate(-347.636 -95.469)" fill="#7d1a00"/>
          </g>
          <path id="Path_148" data-name="Path 148" d="M120.3,170.4c-7.52,0-13.636-4.588-13.636-10.227h2.273c0,4.385,5.1,7.954,11.364,7.954s11.363-3.569,11.363-7.954h2.273C133.941,165.808,127.824,170.4,120.3,170.4Zm0,0" transform="translate(-95.304 -142.954)" fill="#8b2800"/>
          <path id="Path_149" data-name="Path 149" d="M150.727,93.455h-4.545c0-1.358-2.719-3.409-6.818-3.409s-6.818,2.051-6.818,3.409H128c0-4.386,5.1-7.955,11.364-7.955S150.727,89.069,150.727,93.455Zm0,0" transform="translate(-114.364 -76.241)" fill="#f59707"/>
        </g>
        <g id="fried-chicken" transform="matrix(0.891, -0.454, 0.454, 0.891, 1655.744, 939.466)">
          <path id="Path_77" data-name="Path 77" d="M359.167,146.075c.019.036.04.069.062.1a2.33,2.33,0,0,1-.676,3.142l-41.208,27.919,10.419,15.378L368.971,164.7a2.329,2.329,0,0,1,3.168.539l.071.093a10.96,10.96,0,0,0,17.756-12.836,9.906,9.906,0,0,0-9.413-4.581,2.239,2.239,0,0,1-2.2-3.2,9.928,9.928,0,0,0-.686-10.36,10.96,10.96,0,0,0-18.506,11.727Zm0,0" transform="translate(-124.523 -50.828)" fill="#dfede7"/>
          <path id="Path_78" data-name="Path 78" d="M209.392,177.078l10.187,10.185a13.135,13.135,0,0,0,15.3,2.428,120.705,120.705,0,0,1,32.493-11.224,41.946,41.946,0,1,0-49.2-49.154,120.106,120.106,0,0,1-11.208,32.457A13.141,13.141,0,0,0,209.392,177.078Zm0,0" transform="translate(-80.643 -37.435)" fill="#efa335"/>
          <path id="Path_79" data-name="Path 79" d="M288.6,108.614a41.506,41.506,0,0,0-15.817-9.634,41.947,41.947,0,0,1-31.736,54.559,120.715,120.715,0,0,0-32.49,11.224,12.935,12.935,0,0,1-2.573.99,13.171,13.171,0,0,0,3.415,12.729l10.187,10.185a13.135,13.135,0,0,0,15.3,2.428,120.7,120.7,0,0,1,32.493-11.224A41.951,41.951,0,0,0,288.6,108.614Zm0,0" transform="translate(-80.649 -38.839)" fill="#fd8f31"/>
          <path id="Path_80" data-name="Path 80" d="M24.449,103.078c.028-.024.055-.047.083-.074a2.143,2.143,0,0,1,2.955.093l32.084,32.664,12.19-11.974L39.678,91.123a2.143,2.143,0,0,1-.038-2.957l.071-.078A10.082,10.082,0,0,0,25.157,74.146a9.113,9.113,0,0,0-2.587,9.278,2.058,2.058,0,0,1-2.535,2.516,9.133,9.133,0,0,0-9.261,2.335,10.081,10.081,0,0,0,13.676,14.8Zm0,0" transform="translate(-3.043 -27.96)" fill="#dfede7"/>
          <path id="Path_81" data-name="Path 81" d="M96.643,149.953,85.255,161.14a14.559,14.559,0,0,0-2.841,16.937A133.844,133.844,0,0,1,94.529,214.2a46.487,46.487,0,1,0,54.965-54.034,133.17,133.17,0,0,1-35.861-12.743A14.561,14.561,0,0,0,96.643,149.953Zm0,0" transform="translate(-31.731 -57.191)" fill="#efa335"/>
          <path id="Path_82" data-name="Path 82" d="M174.473,172.91a46.247,46.247,0,0,0-23.678-12.748,133.166,133.166,0,0,1-35.861-12.743,14.564,14.564,0,0,0-16.989,2.535L86.557,161.14a14.675,14.675,0,0,0-2.373,3.059,132.271,132.271,0,0,0,43.024,16.835c16.636,3.363,31.769,15.883,37.3,37.5a32.636,32.636,0,0,1-.028,16.507,58.2,58.2,0,0,1-5.609,13.828,46.5,46.5,0,0,0,15.6-75.956Zm0,0" transform="translate(-33.033 -57.192)" fill="#fd8f31"/>
          <path id="Path_83" data-name="Path 83" d="M184.546,89.645S196.224,78.2,210.422,62.167,226.756,11.1,222.787,8.074s-11.3,15.852-26.258,35.7c-4.244,5.63-10.8,9.712-17.825,13.571a2.042,2.042,0,0,1-3.012-1.927c.152-2.6-.211-5.511-2.663-5.188-3,.4-10.662,10.9-15.107,17.357a58.189,58.189,0,0,1-6.475,7.8c-6.313,6.418-8.279,13.963-5.3,28.223,8.243,39.385,44.576,42.134,76.024,43.966s47.341-2.267,47.341-2.267C269.518,94.881,184.546,89.645,184.546,89.645Zm0,0" transform="translate(-56.813 -3.042)" fill="#fccf3f"/>
          <path id="Path_84" data-name="Path 84" d="M196.672,90.421s11.677-11.447,25.875-27.478C235.9,47.874,238.583,16.008,235.559,9.73c-4.837,16.681-23.528,53.787-50.213,67.867-.19.1-.377.2-.565.3-13.863,7.517-11.338,28.18,3.945,32.077,21.088,5.378,47.006,16.427,53.939,38.742,25.9.741,38.979-2.632,38.979-2.632C281.644,95.657,196.672,90.421,196.672,90.421Zm0,0" transform="translate(-68.939 -3.818)" fill="#efc03c"/>
          <path id="Path_85" data-name="Path 85" d="M64.5,213.137l25.878,168.91a9.4,9.4,0,0,0,9.285,7.97H231.8a9.393,9.393,0,0,0,9.285-7.97l25.878-168.91Zm0,0" transform="translate(-25.307 -83.634)" fill="#fc4e51"/>
          <path id="Path_86" data-name="Path 86" d="M316.077,213.137,290.2,382.047a9.4,9.4,0,0,1-9.285,7.97h35.808a9.393,9.393,0,0,0,9.285-7.97l25.878-168.91Zm0,0" transform="translate(-110.229 -83.634)" fill="#ea3942"/>
          <g id="Group_12" data-name="Group 12" transform="translate(67.867 130.647)">
            <path id="Path_87" data-name="Path 87" d="M232.518,390.755H210.955L207.227,215.02h29.023Zm0,0" transform="translate(-149.181 -215.02)" fill="#f3e8d7"/>
            <path id="Path_88" data-name="Path 88" d="M151.906,390.755H130.344L111.7,215.02h29.023Zm0,0" transform="translate(-111.695 -215.02)" fill="#f3e8d7"/>
            <path id="Path_89" data-name="Path 89" d="M305.9,390.755H284.34L295.528,215.02h29.023Zm0,0" transform="translate(-179.44 -215.02)" fill="#f3e8d7"/>
          </g>
          <path id="Path_90" data-name="Path 90" d="M316.077,213.137,290.2,382.047a9.4,9.4,0,0,1-9.285,7.97h35.808a9.393,9.393,0,0,0,9.285-7.97l25.878-168.91Zm0,0" transform="translate(-110.229 -83.634)" fill="#ea3942"/>
          <path id="Path_91" data-name="Path 91" d="M305.9,390.754l18.648-175.738h-7.305l-25.7,167.768a9.391,9.391,0,0,1-7.187,7.723l-.017.245H305.9Zm0,0" transform="translate(-111.573 -84.371)" fill="#e5d8c6"/>
          <path id="Path_92" data-name="Path 92" d="M260.479,230.907H54.688a10.954,10.954,0,0,1,0-21.907H260.479a10.954,10.954,0,1,1,0,21.907Zm0,0" transform="translate(-17.161 -82.01)" fill="#fc4e51"/>
          <path id="Path_93" data-name="Path 93" d="M384.13,209H358.855v21.907H384.13a10.954,10.954,0,1,0,0-21.907Zm0,0" transform="translate(-140.812 -82.01)" fill="#ea3942"/>
          <path id="Path_94" data-name="Path 94" d="M262.864,337.547H83.559l4.486,29.284H258.376Zm0,0" transform="translate(-32.787 -132.451)" fill="#f3e8d7"/>
          <path id="Path_95" data-name="Path 95" d="M312.34,366.831h35.808l4.488-29.284H316.826Zm0,0" transform="translate(-122.56 -132.451)" fill="#e5d8c6"/>
          <path id="Path_96" data-name="Path 96" d="M245.413,337a40.388,40.388,0,1,1-40.389-40.387A40.388,40.388,0,0,1,245.413,337Zm0,0" transform="translate(-64.602 -116.388)" fill="#efa335"/>
          <path id="Path_97" data-name="Path 97" d="M218.96,299.941a40.389,40.389,0,0,1-50.991,50.991,40.388,40.388,0,1,0,50.991-50.991Zm0,0" transform="translate(-65.909 -117.695)" fill="#fd8f31"/>
          <path id="Path_98" data-name="Path 98" d="M269.343,99.021a14.6,14.6,0,0,0-10.054-6.513,14.441,14.441,0,0,0-2.241-11.632,15.743,15.743,0,0,0-10.386-6.667,15.671,15.671,0,0,0-17.02,21.563L225.3,98.712A46.423,46.423,0,0,0,191.93,55.14a4.712,4.712,0,1,0-2.644,9.045A37.145,37.145,0,0,1,213.5,113.1c-.012.033-.026.066-.038.1q-.231.6-.484,1.194c-.045.107-.09.214-.138.32-.157.366-.323.729-.494,1.092-.036.074-.069.152-.107.225-.2.418-.411.828-.627,1.239-.062.119-.128.237-.192.354-.169.313-.344.622-.522.93-.038.064-.076.128-.114.195a47.689,47.689,0,0,0-3.966-5.457.407.407,0,0,1-.028-.033q-1.47-1.748-3.093-3.37c-.036-.033-.069-.069-.1-.1C187.8,94.053,162,87.08,144.99,84.07A37.382,37.382,0,0,1,152.2,73.717a37,37,0,0,1,17.516-9.947,4.712,4.712,0,1,0-2.25-9.152,46.927,46.927,0,0,0-6.138,1.97c9.413-15.043,11.884-37.057,10.927-46.878-.422-4.341-1.476-6.94-3.42-8.423A6.177,6.177,0,0,0,163.9.109c-4.341.821-7.306,5.713-13.215,15.456a258.715,258.715,0,0,1-14.727,22.33c-2.912,3.866-7.2,7-12.686,10.218A7.617,7.617,0,0,0,121.08,44.2a6.62,6.62,0,0,0-5.478-1.68c-2.074.273-5.547.731-18.373,19.356a53.937,53.937,0,0,1-5.955,7.173,26.183,26.183,0,0,0-7.835,16.7,19.122,19.122,0,0,0-17.547.484L41.572,61.466A14.8,14.8,0,0,0,18.812,42.824a13.8,13.8,0,0,0-4.348,10.054A13.565,13.565,0,0,0,4.427,56.954,14.86,14.86,0,0,0,0,67.732,14.8,14.8,0,0,0,22.66,80.045L46.976,104.8a19.124,19.124,0,0,0-.833,17.476H37.527a15.666,15.666,0,0,0,0,31.332h.589L60.41,299.127a14.025,14.025,0,0,0,13.939,11.967H206.494a14.026,14.026,0,0,0,13.942-11.967L242.73,153.611h.589a15.666,15.666,0,0,0,0-31.332h-2.881l4.906-3.323a15.675,15.675,0,0,0,24-19.935ZM97.994,75.649a63.049,63.049,0,0,0,7-8.433,140.063,140.063,0,0,1,9.515-12.6,6.744,6.744,0,0,0,9.655,3.817c8.312-4.564,14.777-8.841,19.318-14.865A266.54,266.54,0,0,0,158.74,20.45c1.429-2.357,2.95-4.866,4.3-6.938C163.083,23.9,159.8,45.032,150.082,56,136.173,71.7,124.55,83.123,124.436,83.237a4.713,4.713,0,0,0,3,8.067,161.527,161.527,0,0,1,17.089,2.3c.066.014.133.026.2.038.237.045.479.09.719.138,11.564,2.212,27.7,6.475,40.672,14.369l.249.154c.252.154.5.311.752.47a50.419,50.419,0,0,1,14.68,13.505H105.28a38.527,38.527,0,0,1-3.059-3.551l-.062-.083q-.445-.587-.869-1.2c-.066-.093-.128-.19-.192-.285q-.352-.513-.691-1.037c-.083-.131-.161-.261-.244-.392-.2-.323-.4-.648-.591-.978-.09-.152-.176-.306-.263-.46-.18-.313-.356-.629-.527-.952-.09-.169-.18-.342-.268-.513q-.242-.466-.475-.947c-.09-.183-.178-.368-.266-.553-.147-.316-.292-.631-.432-.952-.085-.195-.171-.392-.256-.589-.135-.32-.266-.643-.4-.966-.081-.206-.164-.411-.242-.619-.126-.328-.244-.657-.366-.99-.076-.211-.152-.422-.225-.636-.116-.339-.228-.684-.339-1.03-.069-.214-.14-.427-.206-.641-.109-.361-.214-.726-.318-1.094-.062-.209-.123-.415-.18-.627-.109-.4-.214-.814-.316-1.225-.045-.183-.095-.358-.138-.541-.142-.6-.28-1.2-.408-1.816-.114-.551-.221-1.087-.32-1.619-.024-.128-.045-.254-.069-.38q-.128-.694-.235-1.365l-.036-.209c-.074-.468-.138-.923-.2-1.372-.024-.192-.047-.38-.071-.567-.031-.247-.057-.487-.083-.726C91.939,84.111,94.16,79.549,97.994,75.649ZM68.052,96.282l.152-.147.294-.266c.019-.017.036-.036.052-.052A9.79,9.79,0,0,1,79.7,94.393c1.353.714,2.734,1.415,4.127,2.091.107.741.23,1.5.366,2.279a.009.009,0,0,0,0,.007c.157.895.332,1.813.532,2.767.188.892.394,1.771.612,2.637.062.254.131.5.195.755q.253.961.529,1.9c.074.244.145.491.218.733.252.819.513,1.626.793,2.419a.28.28,0,0,0,.017.047c.287.819.6,1.621.916,2.414.083.206.171.408.256.612.252.605.513,1.2.781,1.787.095.2.185.406.28.608.354.748.717,1.483,1.1,2.2a.052.052,0,0,0,.007.012c.4.745.812,1.476,1.239,2.193.093.154.188.306.28.458q.516.851,1.066,1.676c.062.093.119.192.183.285H56.6c-.56-1.2-1.135-2.373-1.714-3.52a9.79,9.79,0,0,1,1.626-11.117c.019-.021.04-.038.062-.059ZM27.806,71.835a6.847,6.847,0,0,0-9.442-.316s-.047.043-.052.045a5.411,5.411,0,0,1-7.154-.107,5.37,5.37,0,0,1-.126-7.783,4.411,4.411,0,0,1,4.73-1.149,6.769,6.769,0,0,0,8.324-8.253,4.41,4.41,0,0,1,1.332-4.728,5.37,5.37,0,0,1,7.78.268,5.412,5.412,0,0,1-.019,7.149l-.045.05a6.847,6.847,0,0,0,.14,9.451L58.653,92.3,54.4,96.488l-1.208,1.187ZM47.65,153.608H65.565l4.965,46.774H54.816ZM59.3,229.668l-3.043-19.861H96.641a45.136,45.136,0,0,0-.4,19.861H59.3Zm15.741-76.06H93.629l2.979,46.774h-16.6ZM90.754,301.672l-1.97-18.563a4.712,4.712,0,0,0-9.37,1l1.863,17.566H74.351a4.653,4.653,0,0,1-4.626-3.973l-8.979-58.608H74.639l2.454,23.134a4.712,4.712,0,0,0,4.68,4.215,4.447,4.447,0,0,0,.5-.026,4.711,4.711,0,0,0,4.189-5.184l-2.35-22.14h14.96l3.985,62.581Zm21.746,0-3.078-48.355A45.173,45.173,0,0,0,124,262.6l.828,39.074Zm34.092,0H134.255l-.776-36.5a45.209,45.209,0,0,0,13.887,0Zm21.753,0H156.018l.828-39.074a45.14,45.14,0,0,0,14.578-9.283Zm-27.924-45.388A35.677,35.677,0,1,1,176.1,220.609,35.716,35.716,0,0,1,140.422,256.284ZM103.073,153.608h18.613l.548,25.745a45.355,45.355,0,0,0-16.712,12.727Zm28.04,0h18.622l-.484,22.773a45.038,45.038,0,0,0-17.654,0Zm44.21,38.471a45.366,45.366,0,0,0-16.709-12.727l.546-25.745h18.613Zm14.768,109.592h-12.3l3.985-62.581h14.958Zm21.031-3.973a4.658,4.658,0,0,1-4.628,3.973h-6.926l6.641-62.581H220.1Zm10.422-68.031H184.608a45.135,45.135,0,0,0-.4-19.861h40.382Zm-37.306-29.286,2.979-46.774H205.8l-4.963,46.774Zm41.792,0H210.315l4.965-46.774H233.2ZM243.318,131.7a6.242,6.242,0,0,1,0,12.484H37.527a6.242,6.242,0,0,1,0-12.484Zm19.156-22.56a6.224,6.224,0,0,1-2.867,4.016,6.3,6.3,0,0,1-8.184-1.526l-.043-.055a7.037,7.037,0,0,0-9.577-1.607l-18.166,12.309h-4.021c.268-.489.527-.985.776-1.481.055-.112.107-.221.159-.33.249-.508.491-1.021.722-1.538.055-.121.109-.242.161-.363a46.6,46.6,0,0,0,2.58-7.6l12.655-8.575a7.027,7.027,0,0,0,2.072-9.465l-.05-.085a6.3,6.3,0,0,1,1.621-8.165,6.245,6.245,0,0,1,8.934,1.483,5.221,5.221,0,0,1,.335,5.689,6.948,6.948,0,0,0,6.8,9.933,5.224,5.224,0,0,1,5.165,2.525A6.2,6.2,0,0,1,262.474,109.141Zm0,0" transform="translate(0 0)"/>
        </g>
        <g id="sausages" transform="translate(34 286.5)">
          <path id="Path_99" data-name="Path 99" d="M191.7,157.7a30.4,30.4,0,0,1-28.419,28.419,5.118,5.118,0,0,1-5.361-5.835c0-.034.01-.068.014-.1a5.122,5.122,0,0,1,4.757-4.39,20.04,20.04,0,0,0,18.682-18.682,5.122,5.122,0,0,1,4.39-4.757l.1-.014A5.119,5.119,0,0,1,191.7,157.7Zm0,0" transform="translate(-142.451 -136.967)" fill="#f25f50"/>
          <path id="Path_100" data-name="Path 100" d="M189.265,312a30.421,30.421,0,0,1-25.983,18.236,5.119,5.119,0,0,1-5.361-5.835c0-.034.01-.069.014-.1a5.111,5.111,0,0,1,2.044-3.408,5.118,5.118,0,0,0,5.407,5.354A30.365,30.365,0,0,0,189.265,312Zm0,0" transform="translate(-142.452 -281.077)" fill="#d8352e"/>
          <g id="Group_13" data-name="Group 13" transform="translate(4.221 4.721)">
            <path id="Path_101" data-name="Path 101" d="M125.77,413.239l-3.532-2.786v5.573Zm0,0" transform="translate(-114.522 -374.64)" fill="#f25f50"/>
            <path id="Path_102" data-name="Path 102" d="M418.814,120.192l-2.786-3.532H421.6Zm0,0" transform="translate(-379.621 -109.537)" fill="#f25f50"/>
            <path id="Path_103" data-name="Path 103" d="M77.056,49.137A30.4,30.4,0,0,1,48.637,77.556a5.119,5.119,0,0,1-5.361-5.835l.014-.1a5.123,5.123,0,0,1,4.757-4.39A20.04,20.04,0,0,0,66.729,48.547a5.123,5.123,0,0,1,4.39-4.757l.1-.014A5.119,5.119,0,0,1,77.056,49.137Zm0,0" transform="translate(-43.224 -43.724)" fill="#f25f50"/>
          </g>
          <path id="Path_104" data-name="Path 104" d="M74.62,203.43a30.42,30.42,0,0,1-25.983,18.236,5.119,5.119,0,0,1-5.361-5.835l.015-.1a5.11,5.11,0,0,1,2.043-3.408,5.118,5.118,0,0,0,5.407,5.354A30.364,30.364,0,0,0,74.62,203.43Zm0,0" transform="translate(-39.003 -183.112)" fill="#d8352e"/>
          <path id="Path_105" data-name="Path 105" d="M11.125,304.669l-3.532-2.787v5.573Zm0,0" transform="translate(-6.852 -271.951)" fill="#f25f50"/>
          <path id="Path_106" data-name="Path 106" d="M304.173,11.625l-2.786-3.532h5.573Zm0,0" transform="translate(-271.954 -6.852)" fill="#f25f50"/>
          <path id="Path_107" data-name="Path 107" d="M244.632,451.4a.742.742,0,1,0,.443.83A.747.747,0,0,0,244.632,451.4Zm0,0" transform="translate(-219.818 -406.816)"/>
          <path id="Path_108" data-name="Path 108" d="M226.117,467.191a.741.741,0,1,0,.319-.929A.747.747,0,0,0,226.117,467.191Zm0,0" transform="translate(-203.986 -420.192)"/>
          <path id="Path_109" data-name="Path 109" d="M216.571,445.351a.742.742,0,1,0-.951.081A.748.748,0,0,0,216.571,445.351Zm0,0" transform="translate(-194.28 -400.265)"/>
          <path id="Path_110" data-name="Path 110" d="M38.794,10.178a5.862,5.862,0,0,0-5.048-6.144L35.587,1.7A.742.742,0,0,0,35,.5H29.432a.742.742,0,0,0-.583,1.2l2.067,2.62A5.892,5.892,0,0,0,26.986,9.5a19.016,19.016,0,0,1-.887,4.681.742.742,0,0,0,1.411.457,20.51,20.51,0,0,0,.956-5.046A4.4,4.4,0,0,1,32.22,5.522l.1-.014a4.376,4.376,0,0,1,4.99,4.583,29.471,29.471,0,0,1-8.627,19.1,29.471,29.471,0,0,1-19.1,8.627,4.377,4.377,0,0,1-4.583-4.991l.014-.1A4.4,4.4,0,0,1,9.09,28.966,20.808,20.808,0,0,0,26.335,17.505a.742.742,0,1,0-1.326-.664A19.321,19.321,0,0,1,9,27.486a5.892,5.892,0,0,0-5.178,3.931L1.2,29.35a.742.742,0,0,0-1.2.582V35.5a.741.741,0,0,0,1.2.582l2.333-1.841A5.863,5.863,0,0,0,9.328,39.3q.175,0,.35-.01a30.953,30.953,0,0,0,20.057-9.058A30.954,30.954,0,0,0,38.794,10.178Zm-5.319-8.2L32.219,3.576,30.962,1.983ZM1.483,33.975V31.462l1.593,1.257Zm0,0"/>
          <path id="Path_111" data-name="Path 111" d="M317.485,75.687a.741.741,0,1,0-.332.936A.747.747,0,0,0,317.485,75.687Zm0,0" transform="translate(-285.193 -67.44)"/>
          <path id="Path_112" data-name="Path 112" d="M330.052,93.991a.742.742,0,1,0,.8-.593A.753.753,0,0,0,330.052,93.991Zm0,0" transform="translate(-297.809 -83.823)"/>
          <path id="Path_113" data-name="Path 113" d="M308.15,103.085a.742.742,0,1,0,.848.494A.748.748,0,0,0,308.15,103.085Zm0,0" transform="translate(-277.527 -92.554)"/>
          <path id="Path_114" data-name="Path 114" d="M151.558,114.1a5.849,5.849,0,0,0-3.171-1.5l1.841-2.333a.742.742,0,0,0-.582-1.2h-5.573a.742.742,0,0,0-.583,1.2l2.067,2.62a5.891,5.891,0,0,0-3.931,5.178,19.3,19.3,0,0,1-17.987,17.987,5.891,5.891,0,0,0-5.178,3.931l-2.62-2.067a.742.742,0,0,0-1.2.583v5.573a.742.742,0,0,0,1.2.582l2.333-1.841a5.864,5.864,0,0,0,5.794,5.058q.175,0,.35-.01A30.686,30.686,0,0,0,132.9,146.1a.742.742,0,0,0-.5-1.4,29.2,29.2,0,0,1-8.169,1.676,4.377,4.377,0,0,1-4.583-4.99l.014-.1a4.4,4.4,0,0,1,4.068-3.754,20.782,20.782,0,0,0,19.376-19.376,4.4,4.4,0,0,1,3.753-4.068l.1-.014a4.377,4.377,0,0,1,4.99,4.583,29.359,29.359,0,0,1-5.145,14.916,29.872,29.872,0,0,1-11.791,10.043.742.742,0,0,0,.635,1.34,31.353,31.353,0,0,0,12.378-10.542,30.84,30.84,0,0,0,5.4-15.67A5.824,5.824,0,0,0,151.558,114.1Zm-35.434,28.442v-2.513l1.593,1.257Zm31.992-31.992-1.257,1.593L145.6,110.55Zm0,0" transform="translate(-103.445 -97.964)"/>
        </g>
        <g id="pizza-2" data-name="pizza" transform="translate(93.832 459)">
          <path id="Path_115-2" data-name="Path 115" d="M.168,50l50-15.909A34.091,34.091,0,0,0,16.077,0Zm0,0" fill="#f59707"/>
          <path id="Path_116-2" data-name="Path 116" d="M211.81,131.99a5.642,5.642,0,0,1-4.017-1.663l1.607-1.607a3.5,3.5,0,0,0,4.821,0,3.413,3.413,0,0,0,0-4.821l1.607-1.607a5.679,5.679,0,0,1-4.017,9.7Zm0,0" transform="translate(-185.506 -109.265)" fill="#ef7f00"/>
          <path id="Path_117-2" data-name="Path 117" d="M26.508,298.338,70.7,284.3l1.376,4.333L27.884,302.67Zm0,0" transform="translate(-23.534 -254.013)" fill="#e76400"/>
          <path id="Path_118-2" data-name="Path 118" d="M140.733,103.233a25.029,25.029,0,0,0-25-25,4.507,4.507,0,0,1-2.623-.846l-1.4,4.41a8.984,8.984,0,0,0,4.026.982,20.478,20.478,0,0,1,20.455,20.455,8.979,8.979,0,0,0,.982,4.026l4.41-1.4A4.51,4.51,0,0,1,140.733,103.233Zm0,0" transform="translate(-99.656 -69.142)" fill="#e76400"/>
          <path id="Path_119-2" data-name="Path 119" d="M111.378,0a4.545,4.545,0,1,0,0,9.091,25,25,0,0,1,25,25,4.545,4.545,0,1,0,9.091,0A34.091,34.091,0,0,0,111.378,0Zm0,0" transform="translate(-95.301)" fill="#fdcf6d"/>
          <path id="Path_120-2" data-name="Path 120" d="M393.259,281.878a4.545,4.545,0,1,1-4.546-4.546A4.546,4.546,0,0,1,393.259,281.878Zm0,0" transform="translate(-343.091 -247.787)" fill="#fdbc34"/>
          <path id="Path_121-2" data-name="Path 121" d="M410.046,300.941a2.273,2.273,0,1,1-2.273-2.273A2.273,2.273,0,0,1,410.046,300.941Zm0,0" transform="translate(-362.15 -266.85)" fill="#fdab00"/>
          <path id="Path_122-2" data-name="Path 122" d="M138.832,75.364V70.818a1.136,1.136,0,1,0,0-2.273V64a5.682,5.682,0,1,1,0,11.364Zm0,0" transform="translate(-123.892 -57.182)" fill="#c82e25"/>
          <path id="Path_123-2" data-name="Path 123" d="M48.514,224.7a5.682,5.682,0,1,1,0-11.364v4.546a1.136,1.136,0,1,0,0,2.273Zm0,0" transform="translate(-38.119 -190.605)" fill="#c82e25"/>
          <path id="Path_124-2" data-name="Path 124" d="M261.85,229.682A5.688,5.688,0,0,1,256.168,224h4.545a1.137,1.137,0,1,0,2.273,0h4.545A5.688,5.688,0,0,1,261.85,229.682Zm0,0" transform="translate(-228.727 -200.136)" fill="#c82e25"/>
          <path id="Path_125-2" data-name="Path 125" d="M130.4,222.387a6.773,6.773,0,0,1-4.821-2l1.607-1.607a4.661,4.661,0,0,0,6.427,0,4.549,4.549,0,0,0,0-6.428l1.607-1.607a6.816,6.816,0,0,1-4.821,11.637Zm0,0" transform="translate(-112.053 -188.298)" fill="#ef7f00"/>
          <g id="Group_14-2" data-name="Group 14" transform="translate(4.713 13.636)">
            <path id="Path_126-2" data-name="Path 126" d="M137.259,217.878a4.545,4.545,0,1,1-4.546-4.546A4.546,4.546,0,0,1,137.259,217.878Zm0,0" transform="translate(-119.077 -204.241)" fill="#8b2800"/>
            <path id="Path_127-2" data-name="Path 127" d="M220.318,302.077a3.409,3.409,0,1,1-3.409-3.409A3.409,3.409,0,0,1,220.318,302.077Zm0,0" transform="translate(-195.318 -280.486)" fill="#8b2800"/>
            <path id="Path_128-2" data-name="Path 128" d="M47.378,364.941a2.273,2.273,0,1,1-2.273-2.273A2.273,2.273,0,0,1,47.378,364.941Zm0,0" transform="translate(-42.832 -337.668)" fill="#8b2800"/>
            <path id="Path_129-2" data-name="Path 129" d="M220.318,131.409A3.409,3.409,0,1,1,216.909,128,3.409,3.409,0,0,1,220.318,131.409Zm0,0" transform="translate(-195.318 -128)" fill="#8b2800"/>
          </g>
          <path id="Path_130-2" data-name="Path 130" d="M163.942,36.469a29.7,29.7,0,0,0-10.522-14.643c-5.939-4.453-15.716-5.062-15.814-5.068l.262-4.539c.455.027,11.255.7,18.277,5.971a33.718,33.718,0,0,1,12.2,17.175Zm0,0" transform="translate(-122.796 -10.917)" fill="#fee3aa"/>
        </g>
        <g id="doughnut-2" data-name="doughnut" transform="translate(1823 618.832)">
          <path id="Path_131-2" data-name="Path 131" d="M50,21.7C50,9.808,38.807.168,25,.168S0,9.808,0,21.7v2.392C0,35.983,11.193,45.622,25,45.622s25-9.64,25-21.531ZM25,28.876c-4.767,0-8.834-2.477-10.521-5.981,1.687-3.5,5.755-5.981,10.521-5.981s8.833,2.477,10.521,5.981C33.833,26.4,29.766,28.876,25,28.876Zm0,0" transform="translate(0)" fill="#fdbc34"/>
          <path id="Path_132-2" data-name="Path 132" d="M25,226.193c-13.785,0-25-9.659-25-21.531V202.27H4.546v2.393c0,9.366,9.175,16.986,20.455,16.986s20.455-7.62,20.455-16.986V202.27H50v2.393C50,216.534,38.785,226.193,25,226.193Zm0,0" transform="translate(0 -180.571)" fill="#f59707"/>
          <path id="Path_133-2" data-name="Path 133" d="M47.727,13.8c-2.273-2.273,0-4.546-2.273-6.818C43.834,5.366,41,5.751,38.637,4.713a23.98,23.98,0,0,1-2.273-2.273C34.091.168,25,.168,25,.168H20.455c-4.546,0-6.818,2.273-9.091,2.273S6.818,4.713,6.818,4.713,4.546,6.986,4.593,9.259A7.271,7.271,0,0,1,2.273,13.8,7.038,7.038,0,0,0,0,18.35,7.039,7.039,0,0,0,2.273,22.9a3.242,3.242,0,0,1,.879,1.482c.03.083.05.17.081.253.3,1.694-.96,3.389-.96,5.083a2.226,2.226,0,0,0,2.273,2.273,2.226,2.226,0,0,1,2.273,2.273,2.226,2.226,0,0,0,2.273,2.273A2.226,2.226,0,0,1,11.364,38.8a2.273,2.273,0,1,0,4.545,0,2.273,2.273,0,0,1,4.546,0s0,4.546,4.546,4.546S29.545,38.8,29.545,38.8a2.273,2.273,0,0,1,4.546,0,2.273,2.273,0,1,0,4.546,0V36.532a2.226,2.226,0,0,1,2.273-2.273,2.226,2.226,0,0,0,2.273-2.273,2.226,2.226,0,0,1,2.273-2.273,2.226,2.226,0,0,0,2.273-2.273c0-2.191,2.273-2.273,2.273-6.818C50,18.35,50,16.077,47.727,13.8ZM36.364,17.213c0,4.393-5.087,7.954-11.363,7.954s-11.364-3.561-11.364-7.954S18.724,9.259,25,9.259,36.364,12.82,36.364,17.213Zm0,0" fill="#993b17"/>
          <path id="Path_134-2" data-name="Path 134" d="M82.182,160.98c-10.2,0-18.182-6.489-18.182-14.772a12.51,12.51,0,0,1,.111-1.665l2.251.3a10.3,10.3,0,0,0-.089,1.363c0,7.009,6.989,12.5,15.909,12.5s15.909-5.491,15.909-12.5h2.273C100.364,154.491,92.378,160.98,82.182,160.98Zm0,0" transform="translate(-57.182 -128.994)" fill="#ad6143"/>
          <path id="Path_135-2" data-name="Path 135" d="M133.835,253.063a20.9,20.9,0,0,1-12.023-3.6l1.314-1.855a19.7,19.7,0,0,0,20.632.521l1.2,1.931A21.048,21.048,0,0,1,133.835,253.063Zm0,0" transform="translate(-108.835 -221.077)" fill="#c28a73"/>
          <path id="Path_136-2" data-name="Path 136" d="M100.013,29.4a12.071,12.071,0,0,0-1.6-.362,17.135,17.135,0,0,1-4.017-1.1l-.726-.4a17.054,17.054,0,0,1-2.681-2.544l-.133-.151a26.422,26.422,0,0,0-8.27-1.065H78.045a10.486,10.486,0,0,0-4.366,1.081,12.034,12.034,0,0,1-4.725,1.192,6.417,6.417,0,0,0-1.328.936,4.026,4.026,0,0,0-.9,1.445l-2.271-.035a5.362,5.362,0,0,1,1.563-3.016,5.663,5.663,0,0,1,2.934-1.6,9.915,9.915,0,0,0,3.853-1.019A12.639,12.639,0,0,1,78.045,21.5H82.59c3.07,0,8.27.5,9.69,1.553l.4.411a15.958,15.958,0,0,0,2.271,2.189l.366.2a15.081,15.081,0,0,0,3.48.939c1.618.3,2.253.468,2.643.859l-.8.8Zm0,0" transform="translate(-57.59 -19.059)" fill="#ad6143"/>
          <path id="Path_137-2" data-name="Path 137" d="M208.351,27.932l-.724-.4a17.054,17.054,0,0,1-2.681-2.544l-.133-.151a26.408,26.408,0,0,0-8.27-1.065H192V21.5h4.546c3.067,0,8.27.5,9.69,1.553l.4.411a15.958,15.958,0,0,0,2.271,2.189l.366.2Zm0,0" transform="translate(-171.545 -19.059)" fill="#c28a73"/>
          <path id="Path_138-2" data-name="Path 138" d="M25,100.532a4.342,4.342,0,0,1-4.546-4.539,2.273,2.273,0,1,0-4.546-.007,2.16,2.16,0,0,1-2.257,2.273,2.185,2.185,0,0,1-2.288-2.273,2.238,2.238,0,0,0-2.273-2.273,2.161,2.161,0,0,1-2.273-2.273,2.238,2.238,0,0,0-2.273-2.273A2.161,2.161,0,0,1,2.273,86.9a7.411,7.411,0,0,1,.5-2.275,5.857,5.857,0,0,0,.457-2.807l-.053-.164a3.378,3.378,0,0,0-.908-1.571A7.114,7.114,0,0,1,0,75.551a7.06,7.06,0,0,1,2.273-4.565,7.282,7.282,0,0,0,2.322-4.548l2.273.049A9.455,9.455,0,0,1,3.88,72.593a5.026,5.026,0,0,0-1.607,2.97A5.038,5.038,0,0,0,3.88,78.47a5.611,5.611,0,0,1,1.491,2.568l.075.269a7.825,7.825,0,0,1-.508,4.017A6.03,6.03,0,0,0,4.546,86.9a4.452,4.452,0,0,1,4.545,4.546,4.452,4.452,0,0,1,4.546,4.545,4.452,4.452,0,0,1,4.546-4.545,4.449,4.449,0,0,1,4.545,4.539A2.083,2.083,0,0,0,25,98.259a2.086,2.086,0,0,0,2.273-2.286,4.545,4.545,0,0,1,9.091.013V93.713A4.445,4.445,0,0,1,40.9,89.168a4.47,4.47,0,0,1,4.559-4.545,5.547,5.547,0,0,1,1.238-3.38A4.915,4.915,0,0,0,47.727,77.8c0-2.093,0-3.6-1.607-5.211a6.38,6.38,0,0,1-1.8-5.016c0-1.035-.02-1.352-.471-1.8l1.607-1.607a4.2,4.2,0,0,1,1.136,3.409,4.142,4.142,0,0,0,1.137,3.409C50,73.259,50,75.569,50,77.8a7.1,7.1,0,0,1-1.44,4.734,3.384,3.384,0,0,0-.832,2.084A2.161,2.161,0,0,1,45.455,86.9a2.238,2.238,0,0,0-2.273,2.273,2.16,2.16,0,0,1-2.257,2.273,2.234,2.234,0,0,0-2.288,2.273v2.273a2.273,2.273,0,1,1-4.546,0,2.273,2.273,0,0,0-4.546,0A4.342,4.342,0,0,1,25,100.532Zm0,0" transform="translate(0 -57.182)" fill="#8b2800"/>
          <g id="Group_15-2" data-name="Group 15" transform="translate(4.546 0.168)">
            <path id="Path_139-2" data-name="Path 139" d="M89.878,258.441a2.273,2.273,0,1,1-2.273-2.273A2.273,2.273,0,0,1,89.878,258.441Zm0,0" transform="translate(-80.787 -228.895)" fill="#7d1a00"/>
            <path id="Path_140-2" data-name="Path 140" d="M132.546,45.105a2.273,2.273,0,1,1-2.273-2.273A2.273,2.273,0,0,1,132.546,45.105Zm0,0" transform="translate(-118.909 -38.287)" fill="#7d1a00"/>
            <path id="Path_141-2" data-name="Path 141" d="M47.213,130.441a2.273,2.273,0,1,1-2.273-2.273A2.273,2.273,0,0,1,47.213,130.441Zm0,0" transform="translate(-42.668 -114.532)" fill="#7d1a00"/>
            <path id="Path_142-2" data-name="Path 142" d="M388.546,215.773a2.273,2.273,0,1,1-2.273-2.273A2.273,2.273,0,0,1,388.546,215.773Zm0,0" transform="translate(-347.636 -190.773)" fill="#7d1a00"/>
            <path id="Path_143-2" data-name="Path 143" d="M281.878,279.773a2.273,2.273,0,1,1-2.273-2.273A2.273,2.273,0,0,1,281.878,279.773Zm0,0" transform="translate(-252.332 -247.955)" fill="#7d1a00"/>
            <path id="Path_144-2" data-name="Path 144" d="M175.213,258.441a2.273,2.273,0,1,1-2.273-2.273A2.273,2.273,0,0,1,175.213,258.441Zm0,0" transform="translate(-157.032 -228.895)" fill="#7d1a00"/>
            <path id="Path_145-2" data-name="Path 145" d="M217.878,2.441A2.273,2.273,0,1,1,215.605.168,2.273,2.273,0,0,1,217.878,2.441Zm0,0" transform="translate(-195.15 -0.168)" fill="#7d1a00"/>
            <path id="Path_146-2" data-name="Path 146" d="M324.546,23.773a2.273,2.273,0,1,1-2.273-2.273A2.273,2.273,0,0,1,324.546,23.773Zm0,0" transform="translate(-290.455 -19.227)" fill="#7d1a00"/>
            <path id="Path_147-2" data-name="Path 147" d="M388.546,109.105a2.273,2.273,0,1,1-2.273-2.273A2.273,2.273,0,0,1,388.546,109.105Zm0,0" transform="translate(-347.636 -95.469)" fill="#7d1a00"/>
          </g>
          <path id="Path_148-2" data-name="Path 148" d="M120.3,170.4c-7.52,0-13.636-4.588-13.636-10.227h2.273c0,4.385,5.1,7.954,11.364,7.954s11.363-3.569,11.363-7.954h2.273C133.941,165.808,127.824,170.4,120.3,170.4Zm0,0" transform="translate(-95.304 -142.954)" fill="#8b2800"/>
          <path id="Path_149-2" data-name="Path 149" d="M150.727,93.455h-4.545c0-1.358-2.719-3.409-6.818-3.409s-6.818,2.051-6.818,3.409H128c0-4.386,5.1-7.955,11.364-7.955S150.727,89.069,150.727,93.455Zm0,0" transform="translate(-114.364 -76.241)" fill="#f59707"/>
        </g>
        <g id="lollipop" transform="translate(-118 912)">
          <path id="Path_165" data-name="Path 165" d="M95.7,369.321l-73.536,73.53A12.98,12.98,0,0,1,3.8,424.5l73.536-73.536Z" transform="translate(0 -142.401)" fill="#e39382"/>
          <path id="Path_166" data-name="Path 166" d="M139.645,302.755,22.565,419.835A12.987,12.987,0,0,1,.986,414.519,12.978,12.978,0,0,0,14.033,411.3l117.08-117.08Z" transform="translate(-0.4 -119.379)" fill="#dc7f69"/>
          <path id="Path_167" data-name="Path 167" d="M133.53,326.951,113.111,347.37a6.124,6.124,0,0,1-6.545,1.377l-21.2-8.225a6.122,6.122,0,0,1-2.117-10.039l26.908-26.908Z" transform="translate(-33.048 -123.174)" fill="#fdf391"/>
          <path id="Path_168" data-name="Path 168" d="M147.8,326.95l-10.809,10.809a130,130,0,0,1-20.372-26.38l7.8-7.8Z" transform="translate(-47.317 -123.174)" fill="#fde734"/>
          <path id="Path_169" data-name="Path 169" d="M177.3,366.287l-26.908,26.908a6.122,6.122,0,0,1-10.039-2.117l-8.225-21.2a6.123,6.123,0,0,1,1.376-6.545l20.419-20.419Z" transform="translate(-53.441 -139.134)" fill="#f3d730"/>
          <path id="Path_170" data-name="Path 170" d="M185.084,366.287l-7.8,7.8A130,130,0,0,1,150.9,353.72l10.809-10.809Z" transform="translate(-61.226 -139.134)" fill="#e2c92c"/>
          <path id="Path_171" data-name="Path 171" d="M181.165,377.226l-26.908,26.908a6.122,6.122,0,0,1-10.039-2.117l-2.978-7.671a6.133,6.133,0,0,0,8.372-.277l24.2-24.2Z" transform="translate(-57.307 -150.073)" fill="#e2c92c"/>
          <g id="Group_17" data-name="Group 17" transform="translate(59.453 0.002)">
            <path id="Path_172" data-name="Path 172" d="M243.379,205.985S199.736,273.54,249.5,328.234a122.094,122.094,0,0,1-92.674-35.7q-2.7-2.7-5.185-5.516C152.193,258.67,165.411,212.86,243.379,205.985Z" transform="translate(-120.98 -83.58)" fill="#fc7cb6"/>
            <path id="Path_173" data-name="Path 173" d="M222.444,143.2s-65.137-38.562-122.352,3.367a122.049,122.049,0,0,1,35.8-89.919q2.81-2.81,5.761-5.406C167.108,57.957,223.681,80,222.444,143.2Z" transform="translate(-100.045 -20.793)" fill="#fc7cb6"/>
            <path id="Path_174" data-name="Path 174" d="M302.909,122.409S344.863,64.27,298.361.088a122.062,122.062,0,0,1,91.1,35.77q3.526,3.526,6.7,7.255C389.81,69.424,368.635,124.478,302.909,122.409Z" transform="translate(-180.511 -0.004)" fill="#fc7cb6"/>
            <path id="Path_175" data-name="Path 175" d="M392.439,290.66q-3.673,3.673-7.573,6.966c-30-11.093-82.695-38.519-78.979-93.518,0,0,62.407,41.084,122.371-2.749a122.061,122.061,0,0,1-35.819,89.3Z" transform="translate(-183.489 -81.702)" fill="#fc7cb6"/>
          </g>
          <path id="Path_176" data-name="Path 176" d="M452.667,67.165a122.016,122.016,0,0,0-12.574-17.551q3.535,3.021,6.875,6.367,3.526,3.526,6.7,7.255Q453.222,65.108,452.667,67.165Z" transform="translate(-178.565 -20.131)" fill="#fb5fa7"/>
          <path id="Path_177" data-name="Path 177" d="M238.412,369.2A96.75,96.75,0,0,0,248.7,382.636a122.1,122.1,0,0,1-92.679-35.7q-3.352-3.343-6.373-6.881A122.131,122.131,0,0,0,238.412,369.2Z" transform="translate(-60.718 -137.974)" fill="#fb5fa7"/>
          <path id="Path_178" data-name="Path 178" d="M433.241,290.659q-3.673,3.673-7.573,6.966a194.77,194.77,0,0,1-19.406-8.362,123.414,123.414,0,0,0,13.731-11.852,121.8,121.8,0,0,0,34.264-66.888,110.462,110.462,0,0,0,14.809-9.165A122.044,122.044,0,0,1,433.241,290.659Z" transform="translate(-164.838 -81.7)" fill="#fb5fa7"/>
          <path id="Path_179" data-name="Path 179" d="M377.1,292.536a122.013,122.013,0,0,1-86.554,35.852,93.984,93.984,0,0,1,0-122.406A93.976,93.976,0,0,0,377.1,292.536Z" transform="translate(-108.693 -83.576)" fill="#24d1f8"/>
          <path id="Path_180" data-name="Path 180" d="M386.049,348.479A122.013,122.013,0,0,1,299.5,384.331a93.8,93.8,0,0,1-9.55-13.312,121.893,121.893,0,0,0,73.278-27.159A94.033,94.033,0,0,0,386.049,348.479Z" transform="translate(-117.643 -139.519)" fill="#21c1f8"/>
          <path id="Path_181" data-name="Path 181" d="M163.139,217.763a93.624,93.624,0,0,0-27.253,59.3,122.013,122.013,0,0,1-35.852-86.554,93.984,93.984,0,0,1,122.406,0A93.624,93.624,0,0,0,163.139,217.763Z" transform="translate(-40.588 -68.105)" fill="#24d1f8"/>
          <path id="Path_182" data-name="Path 182" d="M246.919,122.406a93.976,93.976,0,0,0-86.554-86.554A122.012,122.012,0,0,1,246.919,0a93.983,93.983,0,0,1,0,122.406Z" transform="translate(-65.067)" fill="#24d1f8"/>
          <path id="Path_183" data-name="Path 183" d="M428.422,146.885a93.984,93.984,0,0,1-122.406,0A93.976,93.976,0,0,0,392.57,60.331,122.016,122.016,0,0,1,428.422,146.885Z" transform="translate(-124.164 -24.479)" fill="#24d1f8"/>
          <path id="Path_184" data-name="Path 184" d="M471.751,157.776a122.418,122.418,0,0,0-20.4-95.294q.109-1.076.187-2.151a122.013,122.013,0,0,1,35.852,86.554A94.574,94.574,0,0,1,471.751,157.776Z" transform="translate(-183.133 -24.479)" fill="#21c1f8"/>
          <circle id="Ellipse_6" data-name="Ellipse 6" cx="25.351" cy="25.351" r="25.351" transform="translate(156.501 97.055)" fill="#c9f0fd"/>
          <path id="Path_185" data-name="Path 185" d="M308.8,208.77a25.361,25.361,0,0,1-40.1-5.627,25.355,25.355,0,0,0,34.47-34.47,25.361,25.361,0,0,1,5.627,40.1Z" transform="translate(-109.026 -68.438)" fill="#9ce6fb"/>
        </g>
        <g id="kebab" transform="translate(44 619)">
          <path id="Path_186" data-name="Path 186" d="M54.869,48.805c0-21.354,0-21.589,0-21.826a6.688,6.688,0,0,0-6.689-6.688h-.047a6.688,6.688,0,0,0-9.156-6.982,6.7,6.7,0,0,0-4.8-.09,6.689,6.689,0,0,0-13.072-.787,6.689,6.689,0,0,0-8.708,8.1,6.692,6.692,0,0,0-4.9,6.446c0,.238,0,.47,0,21.826Zm0,0" transform="translate(-6.183 -6.186)" fill="#a0e557"/>
          <path id="Path_187" data-name="Path 187" d="M224.088,49.6h-.047a6.671,6.671,0,0,0-3.287-6.569V78.11h10.023c0-19.686,0-21.423,0-21.761v-.066A6.689,6.689,0,0,0,224.088,49.6Zm0,0" transform="translate(-182.091 -35.491)" fill="#93cc4a"/>
          <path id="Path_188" data-name="Path 188" d="M83.972,93.93A16.836,16.836,0,1,1,67.137,77.094,16.835,16.835,0,0,1,83.972,93.93Zm0,0" transform="translate(-41.491 -63.591)" fill="#fccf3f"/>
          <path id="Path_189" data-name="Path 189" d="M58.35,84.276c0-7.958-4.258-14.409-9.511-14.409s-9.511,6.451-9.511,14.409,4.258,14.408,9.511,14.408S58.35,92.233,58.35,84.276Zm0,0" transform="translate(-32.44 -57.631)" fill="#fc4e51"/>
          <path id="Path_190" data-name="Path 190" d="M90.865,69.867c-.2,0-.393.012-.588.03V98.654c.194.018.391.03.588.03,5.253,0,9.511-6.451,9.511-14.408S96.118,69.867,90.865,69.867Zm0,0" transform="translate(-74.466 -57.631)" fill="#ea3942"/>
          <path id="Path_191" data-name="Path 191" d="M165.448,132.858c0-7.958-4.258-14.409-9.511-14.409s-9.511,6.451-9.511,14.409,4.258,14.408,9.511,14.408S165.448,140.815,165.448,132.858Zm0,0" transform="translate(-120.781 -97.704)" fill="#fc4e51"/>
          <path id="Path_192" data-name="Path 192" d="M197.789,118.449c-.21,0-.418.014-.625.035v28.748c.207.021.415.034.625.034,5.253,0,9.511-6.451,9.511-14.408S203.042,118.449,197.789,118.449Zm0,0" transform="translate(-162.633 -97.704)" fill="#ea3942"/>
          <path id="Path_193" data-name="Path 193" d="M54.013,198.712c4.522,0,8.188-3.355,8.188-7.493V133.785c-23.62,9.237-40.416,32.46-45.647,55.9-1.04,4.659,2.819,9.027,8.015,9.027Zm0,0" transform="translate(-13.515 -110.354)" fill="#efa335"/>
          <path id="Path_194" data-name="Path 194" d="M192.218,133.785a64.527,64.527,0,0,0-10.023,4.979V191.22c0,4.138-3.666,7.493-8.187,7.493h10.023c4.522,0,8.188-3.354,8.188-7.493Zm0,0" transform="translate(-143.532 -110.354)" fill="#fd8f31"/>
          <path id="Path_195" data-name="Path 195" d="M46.685,188.618c4.522,0,8.188-3.355,8.188-7.493V166.6c0-17.613-13.649-34.392-30.471-37.616a48.9,48.9,0,0,1-7.916-2.182c-2.39-.892-5.422-3.455-8.986-5.253v59.578c0,4.138,3.666,7.493,8.187,7.493Zm0,0" transform="translate(-6.186 -100.259)" fill="#fccf3f"/>
          <path id="Path_196" data-name="Path 196" d="M182.195,273.206c0,4.138-3.666,7.493-8.187,7.493h10.023c4.522,0,8.188-3.355,8.188-7.493V258.678a39.131,39.131,0,0,0-10.023-25.5Zm0,0" transform="translate(-143.532 -192.34)" fill="#efa335"/>
          <path id="Path_197" data-name="Path 197" d="M50,20.793a8.014,8.014,0,0,0-6.7-7.9A8,8,0,0,0,32.794,5.724a7.956,7.956,0,0,0-2.514-.405,8.06,8.06,0,0,0-1.325.109A8,8,0,0,0,14.1,4.669,8,8,0,0,0,4.712,13.5,8.028,8.028,0,0,0,0,20.793a1.305,1.305,0,0,0,.025.255A1.279,1.279,0,0,0,0,21.289v7.695a1.313,1.313,0,1,0,2.626,0V23.514c.906.54,1.779,1.109,2.636,1.666,1.2.783,2.29,1.49,3.318,2.023l.032.016c.131.067.26.132.389.193l.021.01q.187.088.37.167l.082.035q.184.078.366.147c.525.2,1.065.383,1.61.563q.495.163,1,.318l.295.092c.138.041.278.079.417.12.2.057.393.115.592.17l.14.037q1.972.538,4.074.943.418.08.833.172l.209.049q.316.072.631.151l.228.059q.314.081.627.169l.2.057q.341.1.68.2l.143.044q1.258.4,2.5.91l.174.073q.306.127.612.262a38.028,38.028,0,0,1,14.91,12.077l.022.029q.361.485.707.982c.09.128.179.256.267.385s.164.243.245.365c.162.244.323.488.48.735.015.025.031.049.047.073a37.555,37.555,0,0,1,5.806,17.271v0c.023.335.04.668.052,1,0,.077.006.153.009.229.011.341.018.681.018,1.022v3.644a1.313,1.313,0,1,0,2.626,0V20.793Zm-25.558,8.37a34.631,34.631,0,0,0-4.47-1.4l-.081-.018c-.222-.053-.444-.1-.667-.153-.177-.038-.353-.073-.53-.108l-.232-.047a50.067,50.067,0,0,1-5.578-1.4c-.1-.032-.21-.064-.313-.1l-.011,0q-.921-.3-1.8-.626l-.006,0c-.08-.029-.161-.063-.244-.1l-.08-.035c-.061-.026-.122-.053-.184-.082l-.088-.041c-.065-.031-.13-.063-.2-.1l-.075-.038c-.09-.045-.179-.092-.271-.141l-.06-.034c-.072-.039-.144-.078-.216-.119l-.117-.066-.167-.1L8.93,24.39l-.174-.1-.11-.066-.278-.17c.771-6.04,4.138-10.5,8.031-10.5a5.844,5.844,0,0,1,3.782,1.508,1.432,1.432,0,0,0,.108.1,10,10,0,0,1,1.739,2.027A17.343,17.343,0,0,1,24.6,26.645,20.323,20.323,0,0,1,24.442,29.162Zm-.221-13.429q-.272-.412-.561-.79a15.747,15.747,0,0,1,1.985-.127,15.428,15.428,0,0,1,8.841,2.762,15.606,15.606,0,0,1,2.394,2.05,7.778,7.778,0,0,0-1.724-.2,9.031,9.031,0,0,0-6.79,3.441,14.039,14.039,0,0,0-1.238,1.691A19.224,19.224,0,0,0,24.221,15.733Zm7.452,15.884c-.267.205-.534.411-.8.621-.045.036-.09.069-.135.1q-1.586-1-3.24-1.825c1.209-5.028,4.27-8.459,7.657-8.459,2.091,0,4.092,1.3,5.62,3.618l-.124.069q-.541.3-1.078.6l-.227.131q-.519.3-1.035.61l-.226.136q-.525.319-1.047.648l-.192.12q-.557.354-1.11.72l-.113.075q-1.836,1.22-3.615,2.57C31.9,31.445,31.785,31.532,31.672,31.618Zm15.7,21a41.822,41.822,0,0,0-4.3-8.208l-.023-.035c-.2-.3-.4-.59-.61-.882-.01-.014-.02-.029-.031-.044q-.289-.407-.591-.809c-.1-.127-.192-.252-.289-.378s-.2-.26-.3-.389q-.18-.23-.363-.458c-.03-.037-.058-.074-.088-.11-.05-.062-.1-.122-.151-.183-.132-.161-.264-.322-.4-.48-.068-.081-.138-.159-.206-.239q-.331-.386-.67-.764c-.13-.144-.259-.289-.391-.43-.088-.1-.176-.189-.265-.283q-.259-.275-.521-.545l-.155-.159a41.115,41.115,0,0,0-5-4.331l.088-.068q.332-.257.666-.508c.13-.1.261-.194.391-.291l.371-.274q.227-.166.455-.33l.3-.211q.253-.182.51-.361l.195-.135q1.33-.922,2.69-1.772l.1-.066q.326-.2.655-.4l.1-.062q1.422-.858,2.872-1.636l.057-.031q.34-.182.681-.358,2.085-1.084,4.224-2Zm0-30.075q-2.152.877-4.255,1.918-.313-.494-.65-.943A18.164,18.164,0,0,0,21.424,12.684,8.265,8.265,0,0,0,16.4,10.923,9.269,9.269,0,0,0,9.059,15.05a17.985,17.985,0,0,0-3.1,7.448c-1.028-.664-2.141-1.362-3.317-2a5.386,5.386,0,0,1,3.928-4.888,1.314,1.314,0,0,0,.915-1.62,5.377,5.377,0,0,1,7-6.511,1.313,1.313,0,0,0,1.712-.891A5.375,5.375,0,0,1,26.7,7.222a1.313,1.313,0,0,0,1.748,1.046A5.385,5.385,0,0,1,32.3,8.34a1.313,1.313,0,0,0,.988,0,5.369,5.369,0,0,1,7.357,5.612,1.314,1.314,0,0,0,1.3,1.466h.062a5.381,5.381,0,0,1,5.36,5.375Zm0,0"/>
          <path id="Path_198" data-name="Path 198" d="M48.686,233.847a1.313,1.313,0,0,0-1.314,1.314v4.771c0,3.407-3.083,6.179-6.874,6.179H9.5c-3.79,0-6.874-2.772-6.874-6.179V194.153a1.314,1.314,0,0,0-2.627,0v45.778c0,4.855,4.262,8.806,9.5,8.806h31c5.239,0,9.5-3.951,9.5-8.806V235.16A1.314,1.314,0,0,0,48.686,233.847Zm0,0" transform="translate(0 -159.066)"/>
        </g>
        <g id="kebab_1_" data-name="kebab (1)" transform="translate(108.969 767.001)">
          <path id="Path_199" data-name="Path 199" d="M.808,50.005a.789.789,0,0,1-.553-1.336L48.7.228A.783.783,0,0,1,49.8,1.335L1.361,49.776A.78.78,0,0,1,.808,50.005Z" transform="translate(0 0)" fill="#d2a190"/>
          <path id="Path_200" data-name="Path 200" d="M175.794,220.534l-4.428-4.428a2.351,2.351,0,0,0-3.321,0l-3.874,3.874a2.351,2.351,0,0,0,0,3.321l4.428,4.428a2.351,2.351,0,0,0,3.321,0l3.874-3.874A2.351,2.351,0,0,0,175.794,220.534Z" transform="translate(-147.489 -194.38)" fill="#974f2a"/>
          <path id="Path_201" data-name="Path 201" d="M207.7,252.444l-1.66-1.66a2.351,2.351,0,0,1,0,3.321l-3.874,3.874a2.351,2.351,0,0,1-3.321,0l1.66,1.66a2.351,2.351,0,0,0,3.321,0l3.874-3.874A2.351,2.351,0,0,0,207.7,252.444Z" transform="translate(-179.399 -226.291)" fill="#803716"/>
          <rect id="Rectangle_1" data-name="Rectangle 1" width="10.958" height="3.914" transform="translate(24.43 33.348) rotate(-135)" fill="#b07c64"/>
          <g id="Group_18" data-name="Group 18" transform="translate(22.771 9.416)">
            <rect id="Rectangle_2" data-name="Rectangle 2" width="2.348" height="3.914" transform="translate(1.66 23.933) rotate(-135)" fill="#974f2a"/>
            <path id="Path_202" data-name="Path 202" d="M294.8,101.531,290.37,97.1a2.351,2.351,0,0,0-3.321,0l-3.874,3.874a2.351,2.351,0,0,0,0,3.321l4.428,4.428a2.351,2.351,0,0,0,3.321,0l3.874-3.874A2.351,2.351,0,0,0,294.8,101.531Z" transform="translate(-277.641 -96.416)" fill="#974f2a"/>
          </g>
          <path id="Path_203" data-name="Path 203" d="M326.709,133.441l-1.66-1.66a2.351,2.351,0,0,1,0,3.321l-3.874,3.874a2.351,2.351,0,0,1-3.321,0l1.66,1.66a2.351,2.351,0,0,0,3.321,0l3.874-3.874A2.351,2.351,0,0,0,326.709,133.441Z" transform="translate(-286.781 -118.911)" fill="#803716"/>
          <rect id="Rectangle_3" data-name="Rectangle 3" width="10.958" height="3.914" transform="translate(37.161 20.619) rotate(-135)" fill="#b07c64"/>
          <rect id="Rectangle_4" data-name="Rectangle 4" width="2.348" height="3.914" transform="translate(37.16 20.619) rotate(-135)" fill="#974f2a"/>
          <path id="Path_204" data-name="Path 204" d="M248.781,155.935a.782.782,0,0,0-.531-.559,12.524,12.524,0,0,1-8.335-8.335.79.79,0,0,0-1.3-.326L236.4,148.93a.783.783,0,0,0-.2.781,14.088,14.088,0,0,0,9.376,9.376.782.782,0,0,0,.781-.2l2.214-2.214A.782.782,0,0,0,248.781,155.935Z" transform="translate(-213.075 -132.186)" fill="#aebb32"/>
          <path id="Path_205" data-name="Path 205" d="M317.539,233.84a.782.782,0,0,0-.532-.559,12.449,12.449,0,0,1-1.242-.451l-3.4,3.4a14.1,14.1,0,0,0,1.968.767.782.782,0,0,0,.781-.2l2.214-2.214A.783.783,0,0,0,317.539,233.84Z" transform="translate(-281.833 -210.091)" fill="#a3af44"/>
          <path id="Path_206" data-name="Path 206" d="M359.921,45.1l2.214-11.069a.783.783,0,0,0-.921-.921l-11.069,2.214a.791.791,0,0,0-.6,1,14.089,14.089,0,0,0,9.376,9.376A.79.79,0,0,0,359.921,45.1Z" transform="translate(-315.351 -29.864)" fill="#f9cb2a"/>
          <path id="Path_207" data-name="Path 207" d="M423.236,48.635l2.214-11.069a.782.782,0,0,0-.095-.554l-5.671,11.152a14.2,14.2,0,0,0,2.556,1.066A.79.79,0,0,0,423.236,48.635Z" transform="translate(-378.666 -33.398)" fill="#f7b906"/>
          <path id="Path_208" data-name="Path 208" d="M403.089,76.558a2.774,2.774,0,0,1-1.979-.8,2.818,2.818,0,0,1-.775-2.325.783.783,0,1,1,1.55.221,1.174,1.174,0,0,0,1.329,1.328.783.783,0,0,1,.221,1.55A2.538,2.538,0,0,1,403.089,76.558Z" transform="translate(-361.182 -65.658)" fill="#f9a01b"/>
          <path id="Path_209" data-name="Path 209" d="M100.125,300.766a9.17,9.17,0,0,0-7.1-7.1,4.534,4.534,0,0,0-5.513,5.513,9.171,9.171,0,0,0,7.1,7.1,4.534,4.534,0,0,0,5.513-5.513Z" transform="translate(-78.855 -264.904)" fill="#ed3124"/>
          <path id="Path_210" data-name="Path 210" d="M100.138,340.019a7.337,7.337,0,0,0-.336-1.276,4.459,4.459,0,0,1-1.266,2.973A4.811,4.811,0,0,1,94.21,342.9a8.681,8.681,0,0,1-4.609-2.492,9.147,9.147,0,0,1-2.156-3.333,6.165,6.165,0,0,0,.079,1.353,9.171,9.171,0,0,0,7.1,7.1,4.534,4.534,0,0,0,5.513-5.513Z" transform="translate(-78.868 -304.157)" fill="#d32c27"/>
        </g>
        <g id="candy" transform="translate(501 912)">
          <path id="Path_150" data-name="Path 150" d="M351.72,12.746c-2.154-2.154-1.491-2.816-3.645-4.97s-2.816-1.491-4.97-3.645c-1.66-1.66-1.648-2.434-2.541-3.688a.961.961,0,0,0-1.533-.112c-4.111,5.325-2.538,14.162-2.538,14.162l.13,2.522,2.214,2.214,2.522.13s8.838,1.573,14.162-2.538a.961.961,0,0,0-.112-1.533C354.155,14.4,353.38,14.406,351.72,12.746Zm0,0" transform="translate(-298.609 0)" fill="#cc98e8"/>
          <path id="Path_151" data-name="Path 151" d="M358.648,126.382c-.816-.581-1.429-.779-2.215-1.3-5.343,4-14.4,2.809-14.4,2.809l-2.187-.113.017.336,2.214,2.214,2.522.13s8.837,1.572,14.162-2.539A.961.961,0,0,0,358.648,126.382Zm0,0" transform="translate(-301.848 -111.094)" fill="#bf80e2"/>
          <path id="Path_152" data-name="Path 152" d="M12.746,351.72c-2.154-2.154-2.816-1.491-4.97-3.645s-1.491-2.816-3.645-4.97c-1.66-1.66-2.434-1.648-3.688-2.541a.961.961,0,0,1-.112-1.533c5.325-4.111,14.162-2.538,14.162-2.538l2.522.13,2.214,2.214.13,2.522s1.573,8.838-2.538,14.162a.961.961,0,0,1-1.533-.112C14.4,354.155,14.406,353.38,12.746,351.72Zm0,0" transform="translate(0 -298.609)" fill="#cc98e8"/>
          <g id="Group_16" data-name="Group 16" transform="translate(9.715 9.494)">
            <path id="Path_153" data-name="Path 153" d="M127.936,358.763c4.111-5.325,2.538-14.162,2.538-14.162l-.13-2.522-2.214-2.214-.335-.017.112,2.186s1.216,9.069-2.806,14.407c.523.784.721,1.4,1.3,2.211A.961.961,0,0,0,127.936,358.763Zm0,0" transform="translate(-120.83 -311.346)" fill="#bf80e2"/>
            <path id="Path_154" data-name="Path 154" d="M346.732,92.7a.865.865,0,0,1-.834-1.091,18.833,18.833,0,0,1,2.779-6.344.864.864,0,1,1,1.389,1.028,17.057,17.057,0,0,0-2.5,5.77A.864.864,0,0,1,346.732,92.7Zm0,0" transform="translate(-316.913 -84.92)" fill="#bf80e2"/>
            <path id="Path_155" data-name="Path 155" d="M361.731,135.011a.864.864,0,0,1-.216-1.7,16.29,16.29,0,0,0,5.827-2.537.864.864,0,1,1,1.043,1.377,17.818,17.818,0,0,1-6.435,2.831A.872.872,0,0,1,361.731,135.011Zm0,0" transform="translate(-330.237 -125.492)" fill="#bf80e2"/>
            <path id="Path_156" data-name="Path 156" d="M87.758,350.392a.864.864,0,0,1-.5-1.569,19.256,19.256,0,0,1,6.132-2.626.864.864,0,1,1,.453,1.667,17.454,17.454,0,0,0-5.588,2.369A.858.858,0,0,1,87.758,350.392Zm0,0" transform="translate(-86.893 -316.959)" fill="#bf80e2"/>
            <path id="Path_157" data-name="Path 157" d="M133.192,368.8a.864.864,0,0,1-.7-1.368,16.668,16.668,0,0,0,2.379-5.614.864.864,0,0,1,1.672.435,18.209,18.209,0,0,1-2.648,6.187A.862.862,0,0,1,133.192,368.8Zm0,0" transform="translate(-127.248 -330.282)" fill="#bf80e2"/>
          </g>
          <path id="Path_158" data-name="Path 158" d="M133.926,110.076a16.867,16.867,0,1,0,0,23.854A16.866,16.866,0,0,0,133.926,110.076Zm0,0" transform="translate(-93.378 -93.381)" fill="#ff94d4"/>
          <path id="Path_159" data-name="Path 159" d="M163.376,139.522A17.146,17.146,0,0,0,162,138.289,16.869,16.869,0,0,1,138.289,162a16.868,16.868,0,1,0,25.087-22.48Zm0,0" transform="translate(-122.828 -122.828)" fill="#ff73c6"/>
          <path id="Path_160" data-name="Path 160" d="M110.076,162.422a16.937,16.937,0,0,0,1.527,1.354V137.215a16.874,16.874,0,0,0-1.527,25.207Zm0,0" transform="translate(-93.381 -121.874)" fill="#ff73c6"/>
          <path id="Path_161" data-name="Path 161" d="M349.152,137.32v26.537a16.873,16.873,0,0,0,0-26.537Zm0,0" transform="translate(-310.116 -121.967)" fill="#ff73c6"/>
          <path id="Path_162" data-name="Path 162" d="M350.661,139.554a17,17,0,0,0-1.371-1.229,16.873,16.873,0,0,1-.141,21.271v5.154a16.871,16.871,0,0,0,1.512-25.2Zm0,0" transform="translate(-310.112 -122.859)" fill="#ff4fb8"/>
          <path id="Path_163" data-name="Path 163" d="M225.039,105.5v33.018a16.957,16.957,0,0,0,6.938,0V105.506A16.957,16.957,0,0,0,225.039,105.5Zm0,0" transform="translate(-199.879 -93.39)" fill="#ff73c6"/>
          <path id="Path_164" data-name="Path 164" d="M231.977,373.422a16.906,16.906,0,0,1-6.938,1.11V376.8h0a16.961,16.961,0,0,0,6.889.007l.048-.011Zm0,0" transform="translate(-199.879 -331.672)" fill="#ff4fb8"/>
        </g>
      </g>
    </g>
  </g>
</svg>
