<svg xmlns="http://www.w3.org/2000/svg" xmlns:xlink="http://www.w3.org/1999/xlink" width="1920" height="1080" viewBox="0 0 1920 1080">
  <defs>
    <clipPath id="clip-Web_1920_1">
      <rect width="1920" height="1080"/>
    </clipPath>
  </defs>
  <g id="Web_1920_1" data-name="Web 1920 – 1" clip-path="url(#clip-Web_1920_1)">
    <rect width="1920" height="1080" fill="#fff"/>
    <g id="Group_20" data-name="Group 20">
      <g id="Group_19" data-name="Group 19">
        <g id="Group_2" data-name="Group 2" transform="translate(-217.353 -815.713) rotate(30)">
          <g id="Group_1" data-name="Group 1" transform="translate(642 660)">
            <g id="fried-potatoes" transform="translate(0 0)">
              <path id="Path_1" data-name="Path 1" d="M145.37,198.7l-11.517,1.123a7.509,7.509,0,0,1-8.207-6.234L100.486,19.8c-.736-5.092,2.468-9.71,7.131-10.234l18-2.017c4.681-.526,8.917,3.27,9.412,8.4l16.888,175.066A7.12,7.12,0,0,1,145.37,198.7Zm0,0" transform="translate(-39.745 -2.97)" fill="#fccf3f"/>
              <path id="Path_2" data-name="Path 2" d="M99.405,222.9l-11.439.569A7.594,7.594,0,0,1,80,216.988L59.877,45.9c-.59-5.009,2.716-9.349,7.353-9.613l17.879-1.022c4.646-.264,8.733,3.657,9.08,8.688L106.1,215.683A6.844,6.844,0,0,1,99.405,222.9Zm0,0" transform="translate(-23.681 -13.958)" fill="#efc03c"/>
              <path id="Path_3" data-name="Path 3" d="M61.591,245.87l-11.213,1.291a7.684,7.684,0,0,1-8.384-5.838L7.7,75.339c-1-4.849,1.866-9.325,6.385-9.924L31.53,63.1c4.538-.6,8.884,2.935,9.656,7.829L67.568,238.36A6.575,6.575,0,0,1,61.591,245.87Zm0,0" transform="translate(-2.969 -24.959)" fill="#fccf3f"/>
              <path id="Path_4" data-name="Path 4" d="M213.808,198.7l11.517,1.123a7.509,7.509,0,0,0,8.207-6.234L258.69,19.8c.739-5.092-2.466-9.712-7.131-10.234l-18-2.02c-4.679-.524-8.915,3.27-9.41,8.4L207.26,191.019A7.118,7.118,0,0,0,213.808,198.7Zm0,0" transform="translate(-82.05 -2.97)" fill="#fccf3f"/>
              <path id="Path_5" data-name="Path 5" d="M263.224,222.9l11.439.569a7.594,7.594,0,0,0,7.961-6.477L302.752,45.9c.59-5.009-2.716-9.349-7.353-9.613l-17.881-1.022c-4.644-.264-8.73,3.657-9.077,8.688l-11.909,171.73A6.842,6.842,0,0,0,263.224,222.9Zm0,0" transform="translate(-101.565 -13.958)" fill="#efc03c"/>
              <path id="Path_6" data-name="Path 6" d="M291.959,245.871l11.215,1.291a7.679,7.679,0,0,0,8.381-5.838l34.3-165.982c1-4.849-1.864-9.328-6.383-9.927L322.022,63.1c-4.537-.6-8.884,2.935-9.656,7.832L285.982,238.36A6.575,6.575,0,0,0,291.959,245.871Zm0,0" transform="translate(-113.2 -24.96)" fill="#fccf3f"/>
              <path id="Path_7" data-name="Path 7" d="M187.842,233.133h-11.43a7.178,7.178,0,0,1-7.329-6.8L164.732,56.184c-.127-4.981,3.558-9.082,8.2-9.082H190.8c4.637,0,8.336,4.1,8.223,9.082l-3.87,170.151A7.153,7.153,0,0,1,187.842,233.133Zm0,0" transform="translate(-65.223 -18.65)" fill="#efc03c"/>
              <path id="Path_8" data-name="Path 8" d="M142.774,269.641l-10.5,4.306a7.367,7.367,0,0,1-9.46-3.386L50.57,118.534c-2.112-4.445-.385-9.552,3.856-11.324l16.347-6.836c4.245-1.774,9.28.51,11.175,5.054l64.811,155.3A6.851,6.851,0,0,1,142.774,269.641Zm0,0" transform="translate(-19.666 -39.504)" fill="#fccf3f"/>
              <path id="Path_9" data-name="Path 9" d="M180.367,305.553l-11.333.524a7.366,7.366,0,0,1-7.768-6.373L144.39,132.232c-.493-4.9,2.85-9.125,7.44-9.368l17.695-.934c4.594-.243,8.565,3.6,8.823,8.518L187.12,298.5A6.853,6.853,0,0,1,180.367,305.553Zm0,0" transform="translate(-57.151 -48.273)" fill="#efc03c"/>
              <path id="Path_10" data-name="Path 10" d="M280.723,266.072l11.01.493a7.313,7.313,0,0,0,7.692-6.024L319.4,102.811a7.58,7.58,0,0,0-7.008-8.787l-17.117-.878a8.564,8.564,0,0,0-8.73,7.992L274.316,259.408C274.042,262.938,276.9,265.9,280.723,266.072Zm0,0" transform="translate(-108.606 -36.876)" fill="#efc03c"/>
              <path id="Path_11" data-name="Path 11" d="M210.529,303.734l11.961,1.885a7.683,7.683,0,0,0,8.768-6.291l28.089-164.078a7.679,7.679,0,0,0-6.376-8.884l-16.3-2.57a7.682,7.682,0,0,0-8.8,6.491L204.12,295.05A7.681,7.681,0,0,0,210.529,303.734Zm0,0" transform="translate(-80.788 -48.979)" fill="#fccf3f"/>
              <path id="Path_12" data-name="Path 12" d="M177.34,175.262a5.765,5.765,0,0,0-5.375,3.723,53.882,53.882,0,0,1-100.607,0,5.767,5.767,0,0,0-5.375-3.723H13.248a5.749,5.749,0,0,0-5.663,6.725l32.3,187.383a5.748,5.748,0,0,0,5.665,4.771H197.769a5.748,5.748,0,0,0,5.665-4.771l32.3-187.383a5.748,5.748,0,0,0-5.665-6.725Zm0,0" transform="translate(-2.97 -69.393)" fill="#fc4e51"/>
              <path id="Path_13" data-name="Path 13" d="M331.022,175.262H294.764a5.747,5.747,0,0,1,5.663,6.725l-32.3,187.386a5.747,5.747,0,0,1-5.663,4.769h36.258a5.748,5.748,0,0,0,5.665-4.769l32.3-187.386A5.748,5.748,0,0,0,331.022,175.262Zm0,0" transform="translate(-103.919 -69.393)" fill="#ea3942"/>
              <path id="Path_14" data-name="Path 14" d="M230.64,330.027H32.4l6.272,36.39H224.366Zm0,0" transform="translate(-12.83 -130.671)" fill="#f3e8d7"/>
              <path id="Path_15" data-name="Path 15" d="M332.7,330.027h-36.26l-6.274,36.39h36.26Zm0,0" transform="translate(-114.888 -130.671)" fill="#e5d8c6"/>
              <path id="Path_16" data-name="Path 16" d="M212.76,330.99a47.222,47.222,0,1,1-47.223-47.221A47.222,47.222,0,0,1,212.76,330.99Zm0,0" transform="translate(-46.847 -112.356)" fill="#efa335"/>
              <path id="Path_17" data-name="Path 17" d="M188.18,292.207a47.219,47.219,0,0,1-66.555,55.727,47.221,47.221,0,1,0,66.555-55.727Zm0,0" transform="translate(-48.157 -115.697)" fill="#fd8f31"/>
              <path id="Path_18" data-name="Path 18" d="M162.567,276.269a51.751,51.751,0,1,0,51.751,51.751A51.811,51.811,0,0,0,162.567,276.269Zm0,94.441a42.69,42.69,0,1,1,42.692-42.69A42.738,42.738,0,0,1,162.567,370.71Zm0,0" transform="translate(-43.877 -109.386)"/>
              <path id="Path_19" data-name="Path 19" d="M227.1,101.34h-.354L237.089,51.3a13.322,13.322,0,0,0-2.072-10.4,11.813,11.813,0,0,0-8.155-4.932l-17.447-2.31a12.229,12.229,0,0,0-3.884.116l.153-1.3A13.6,13.6,0,0,0,202.7,22.15a12.04,12.04,0,0,0-8.613-4.344l-12.919-.739a14.059,14.059,0,0,0-2.742-10.182A12.318,12.318,0,0,0,170.015,2.1l-18-2.02A12.477,12.477,0,0,0,142.7,2.865a14.278,14.278,0,0,0-5.118,9.684l-1.638,16.975a12.83,12.83,0,0,0-1.468-1.807,12.383,12.383,0,0,0-8.905-3.794H107.707a12.227,12.227,0,0,0-6.626,1.956L99.8,12.548a14.269,14.269,0,0,0-5.118-9.684A12.478,12.478,0,0,0,85.368.078l-18,2.02A12.318,12.318,0,0,0,58.95,6.885a14.059,14.059,0,0,0-2.742,10.182l-12.919.739a12.044,12.044,0,0,0-8.613,4.344A13.6,13.6,0,0,0,31.7,32.471l.153,1.3a12.227,12.227,0,0,0-3.884-.118l-17.447,2.31A11.818,11.818,0,0,0,2.365,40.9,13.322,13.322,0,0,0,.293,51.3l10.34,50.043h-.354A10.276,10.276,0,0,0,.151,113.363l32.3,187.386a10.258,10.258,0,0,0,10.13,8.53H194.8a10.253,10.253,0,0,0,10.127-8.53l32.305-187.386A10.276,10.276,0,0,0,227.1,101.34ZM204.21,45.024a4.167,4.167,0,0,1,4.018-2.386l17.447,2.308a2.81,2.81,0,0,1,1.956,1.2,4.252,4.252,0,0,1,.585,3.32L217.5,101.338h-6.623l4.41-34.833a12.581,12.581,0,0,0-2.756-9.651,11.762,11.762,0,0,0-8.513-4.233l-.7-.035Zm-6.18,16.364,5.524.283a2.77,2.77,0,0,1,2.029,1,3.467,3.467,0,0,1,.715,2.7l-4.556,35.975H180.576l2.449-14.3a12.11,12.11,0,0,0-1.649-8.459l1.078-13.967a4.283,4.283,0,0,1,1.888-3.23,3.468,3.468,0,0,1,2.1-.585l11.586.592ZM175.536,25.831c.059,0,.118,0,.179,0h0l17.86,1.017a3.063,3.063,0,0,1,2.19,1.123,4.528,4.528,0,0,1,.92,3.438L195.3,43.242a.008.008,0,0,0,0,0l-1.043,8.874-7.353-.375a13.091,13.091,0,0,0-13.48,12.166l-.694,8.974-4.238-.668,2.907-41.909C171.565,27.822,173.453,25.814,175.536,25.831Zm-1.442,59.677L171.305,101.8a10.251,10.251,0,0,0-6.538,6.168,49.3,49.3,0,0,1-17.824,22.78c-.871.609-1.758,1.18-2.659,1.727l7.284-50.519a3.153,3.153,0,0,1,3.61-2.664l7.728,1.218a.026.026,0,0,1,.012,0l8.561,1.35a3.151,3.151,0,0,1,2.617,3.646Zm-37.6,32.728L146.6,13.419A5.168,5.168,0,0,1,148.412,9.9,3.486,3.486,0,0,1,151,9.082l18,2.017a3.3,3.3,0,0,1,2.253,1.324,4.986,4.986,0,0,1,.9,3.761L172,17.275c-.076.024-.149.052-.224.076-.094.031-.189.064-.281.1-.283.1-.564.2-.838.321q-.106.042-.212.092a12.8,12.8,0,0,0-1.55.821c-.045.026-.087.054-.132.083-.309.2-.613.408-.906.632-.026.019-.052.035-.078.057-.158.12-.311.245-.462.373l-.1.085c-.26.224-.51.455-.753.7-.061.061-.12.12-.182.184-.123.127-.248.257-.366.392s-.257.295-.38.446-.227.283-.337.427c-.083.111-.163.224-.245.337-.1.146-.208.3-.309.451-.113.175-.224.352-.33.531-.066.111-.13.222-.191.335-.113.2-.222.408-.326.618-.047.1-.1.2-.142.3-.1.212-.193.429-.283.649l-.106.267c-.1.274-.2.552-.29.833-.021.068-.04.139-.059.21-.078.257-.146.519-.21.786-.012.057-.028.113-.04.172-.068.307-.125.618-.175.932-.009.071-.021.144-.031.215-.045.326-.083.656-.106.989L159.5,70.8l-2.919-.458A12.209,12.209,0,0,0,142.6,80.666L136.367,123.9Zm-31.2-84.188a3.342,3.342,0,0,1,2.416-1.064h17.869A3.368,3.368,0,0,1,128,34.052a4.689,4.689,0,0,1,1.269,3.379l-1.784,78.363L125.72,81.942a13.757,13.757,0,0,0-4.158-9.217,12.5,12.5,0,0,0-9.429-3.591l-7.275.385-.153-5.946v0l-.668-26.152A4.662,4.662,0,0,1,105.291,34.047Zm7.322,44.134a3.634,3.634,0,0,1,2.652,1.059,4.715,4.715,0,0,1,1.409,3.174l2.985,57.2c-.321,0-.644.017-.967.017a49.081,49.081,0,0,1-21.8-5.061L91.746,83.507a4.346,4.346,0,0,1,.944-3.268,3.125,3.125,0,0,1,2.227-1.123ZM66.121,12.423A3.306,3.306,0,0,1,68.377,11.1l18-2.017a3.488,3.488,0,0,1,2.593.819,5.166,5.166,0,0,1,1.805,3.518l4.875,50.543L95.807,70l-1.369.071a12.133,12.133,0,0,0-8.627,4.273A13.449,13.449,0,0,0,82.73,84.415l2.492,24.719L79.6,95.666,75.026,29.684c-.024-.333-.061-.661-.106-.986-.009-.073-.021-.144-.031-.217-.05-.314-.106-.625-.175-.934-.012-.052-.026-.106-.038-.158-.064-.274-.134-.54-.212-.807-.019-.061-.038-.127-.057-.189-.09-.29-.189-.573-.3-.854-.028-.076-.059-.151-.09-.227-.1-.248-.205-.491-.316-.729-.021-.047-.04-.094-.064-.137-.125-.264-.262-.519-.4-.769-.045-.083-.092-.165-.139-.248-.144-.243-.293-.484-.448-.715-.042-.064-.087-.125-.132-.189q-.195-.283-.4-.552c-.057-.076-.116-.151-.172-.224-.172-.215-.349-.422-.533-.625-.061-.068-.125-.134-.189-.2-.16-.17-.321-.333-.488-.491-.05-.05-.1-.1-.151-.149-.205-.191-.415-.373-.632-.552-.066-.054-.132-.106-.2-.16-.224-.179-.455-.352-.689-.517l-.09-.057c-.229-.156-.462-.3-.7-.444-.05-.031-.1-.059-.149-.087-.262-.153-.531-.295-.8-.427-.031-.017-.064-.031-.094-.045-.286-.134-.573-.262-.868-.375,0,0,0,0,0,0-.3-.118-.616-.224-.932-.319a.119.119,0,0,1-.031-.012l-.16-1.1a5,5,0,0,1,.9-3.761Zm-24.5,15.55a3.04,3.04,0,0,1,2.19-1.121l17.869-1.022h.012a.617.617,0,0,0,.066,0c2.124-.064,4.061,1.954,4.236,4.479l2.723,39.259-2.249-5.389a13.756,13.756,0,0,0-7.02-7.277c-.392-.179-.79-.333-1.192-.472-.024-.007-.047-.017-.071-.026-.387-.13-.774-.236-1.166-.33-.038-.007-.078-.019-.116-.028-.382-.087-.765-.151-1.149-.2-.047-.007-.1-.014-.144-.019-.378-.045-.757-.073-1.135-.083-.054,0-.106,0-.158,0s-.127,0-.189,0c-.2,0-.4.019-.6.028-.17.009-.342.012-.512.026-.255.024-.507.066-.762.1-.158.026-.319.04-.477.071-.276.057-.55.13-.826.2-.13.035-.262.061-.394.1a12.484,12.484,0,0,0-1.2.429L43.936,58.96l-.819-6.954L40.694,31.414A4.542,4.542,0,0,1,41.617,27.973ZM36.506,71.886l2.683-1.123,2.7-1.126h0L52.855,65.05a3.61,3.61,0,0,1,2.853.1,4.743,4.743,0,0,1,2.4,2.515l22.56,54.061a49.2,49.2,0,0,1-8.044-13.761,10.232,10.232,0,0,0-9.606-6.631H46.522L35,77.086a4.349,4.349,0,0,1-.21-3.4,3.357,3.357,0,0,1,.375-.72A3.024,3.024,0,0,1,36.506,71.886ZM9.167,49.465a4.251,4.251,0,0,1,.583-3.32,2.819,2.819,0,0,1,1.958-1.2l17.447-2.31a4.19,4.19,0,0,1,4.018,2.388l.958,8.134,1.109,9.434-2.23.934a12.112,12.112,0,0,0-6.685,6.925,13.428,13.428,0,0,0,.488,10.521l9.677,20.366H19.885ZM228.3,111.824l-14.309,83h-29.63a4.53,4.53,0,1,0,0,9.061h28.068l-4.712,27.329H184.963a4.53,4.53,0,1,0,0,9.061h21.2L196,299.208a1.216,1.216,0,0,1-1.2,1.01H42.584a1.216,1.216,0,0,1-1.2-1.01L31.225,240.277h21.2a4.53,4.53,0,1,0,0-9.061H29.663l-4.712-27.329H53.157a4.53,4.53,0,1,0,0-9.061H23.389l-14.309-83a1.219,1.219,0,0,1,1.2-1.425H63.014a1.235,1.235,0,0,1,1.147.816,58.42,58.42,0,0,0,54.533,37.478c.618,0,1.244-.014,1.876-.035.295-.009.592-.021.89-.035.26-.014.521-.028.783-.045a58.278,58.278,0,0,0,8.152-1.064l.024,0a58.446,58.446,0,0,0,42.806-36.293,1.237,1.237,0,0,1,1.147-.816h52.735a1.217,1.217,0,0,1,1.2,1.425Zm0,0" transform="translate(-0.001 0)"/>
            </g>
          </g>
        </g>
        <g id="pizza" transform="translate(1790.832 158)">
          <path id="Path_115" data-name="Path 115" d="M.168,326l326-103.727C326.168,99.516,226.652,0,103.895,0Zm0,0" transform="translate(0 0)" fill="#f59707"/>
          <path id="Path_116" data-name="Path 116" d="M233.984,185.516a36.787,36.787,0,0,1-26.191-10.84L218.269,164.2c8.392,8.379,23.066,8.379,31.431,0a22.254,22.254,0,0,0,0-31.431l10.476-10.476a37.03,37.03,0,0,1-26.191,63.223Zm0,0" transform="translate(-63.408 -37.348)" fill="#ef7f00"/>
          <path id="Path_117" data-name="Path 117" d="M26.508,375.823,314.654,284.3l8.973,28.248L35.481,404.071Zm0,0" transform="translate(-8.044 -86.825)" fill="#e76400"/>
          <path id="Path_118" data-name="Path 118" d="M300.959,245.907c0-89.878-73.123-163-163-163a29.386,29.386,0,0,1-17.1-5.519l-9.147,28.753a58.575,58.575,0,0,0,26.251,6.4c73.541,0,133.364,59.831,133.364,133.364a58.54,58.54,0,0,0,6.4,26.251l28.75-9.147A29.4,29.4,0,0,1,300.959,245.907Zm0,0" transform="translate(-34.064 -23.634)" fill="#e76400"/>
          <path id="Path_119" data-name="Path 119" d="M136.469,0a29.636,29.636,0,1,0,0,59.272,163,163,0,0,1,163,163,29.636,29.636,0,1,0,59.272,0C358.743,99.516,259.227,0,136.469,0Zm0,0" transform="translate(-32.575 0)" fill="#fdcf6d"/>
          <path id="Path_120" data-name="Path 120" d="M443.44,306.969A29.636,29.636,0,1,1,413.8,277.332,29.638,29.638,0,0,1,443.44,306.969Zm0,0" transform="translate(-117.272 -84.696)" fill="#fdbc34"/>
          <path id="Path_121" data-name="Path 121" d="M435.137,313.485a14.819,14.819,0,1,1-14.82-14.817A14.818,14.818,0,0,1,435.137,313.485Zm0,0" transform="translate(-123.787 -91.212)" fill="#fdab00"/>
          <path id="Path_122" data-name="Path 122" d="M138.832,138.092V108.455a7.409,7.409,0,1,0,0-14.817V64a37.046,37.046,0,1,1,0,74.092Zm0,0" transform="translate(-42.348 -19.545)" fill="#c82e25"/>
          <path id="Path_123" data-name="Path 123" d="M79.879,287.424a37.046,37.046,0,1,1,0-74.092v29.637a7.409,7.409,0,1,0,0,14.817Zm0,0" transform="translate(-13.029 -65.151)" fill="#c82e25"/>
          <path id="Path_124" data-name="Path 124" d="M293.213,261.045A37.084,37.084,0,0,1,256.168,224H285.8a7.41,7.41,0,1,0,14.82,0h29.635A37.084,37.084,0,0,1,293.213,261.045Zm0,0" transform="translate(-78.182 -68.409)" fill="#c82e25"/>
          <path id="Path_125" data-name="Path 125" d="M157.013,286.622a44.16,44.16,0,0,1-31.431-13.01l10.479-10.476c11.171,11.171,30.736,11.171,41.907,0a29.661,29.661,0,0,0,0-41.91l10.476-10.476a44.44,44.44,0,0,1-31.431,75.872Zm0,0" transform="translate(-38.301 -64.362)" fill="#ef7f00"/>
          <g id="Group_14" data-name="Group 14" transform="translate(29.803 88.909)">
            <path id="Path_126" data-name="Path 126" d="M187.44,242.969A29.636,29.636,0,1,1,157.8,213.332,29.638,29.638,0,0,1,187.44,242.969Zm0,0" transform="translate(-68.893 -154.06)" fill="#8b2800"/>
            <path id="Path_127" data-name="Path 127" d="M257.955,320.9a22.227,22.227,0,1,1-22.227-22.227A22.228,22.228,0,0,1,257.955,320.9Zm0,0" transform="translate(-94.953 -180.121)" fill="#8b2800"/>
            <path id="Path_128" data-name="Path 128" d="M72.469,377.485a14.819,14.819,0,1,1-14.817-14.817A14.817,14.817,0,0,1,72.469,377.485Zm0,0" transform="translate(-42.832 -199.667)" fill="#8b2800"/>
            <path id="Path_129" data-name="Path 129" d="M257.955,150.227A22.227,22.227,0,1,1,235.727,128,22.228,22.228,0,0,1,257.955,150.227Zm0,0" transform="translate(-94.953 -128)" fill="#8b2800"/>
          </g>
          <path id="Path_130" data-name="Path 130" d="M309.316,170.328c-.13-.507-14.616-54.969-68.606-95.473C201.987,45.82,138.24,41.848,137.605,41.813l1.707-29.594c2.966.174,73.381,4.58,119.168,38.933,62.761,47.068,78.924,109.357,79.576,111.983Zm0,0" transform="translate(-41.973 -3.732)" fill="#fee3aa"/>
        </g>
        <g id="fried-chicken" transform="matrix(0.891, -0.454, 0.454, 0.891, 1655.744, 939.466)">
          <path id="Path_77" data-name="Path 77" d="M359.167,146.075c.019.036.04.069.062.1a2.33,2.33,0,0,1-.676,3.142l-41.208,27.919,10.419,15.378L368.971,164.7a2.329,2.329,0,0,1,3.168.539l.071.093a10.96,10.96,0,0,0,17.756-12.836,9.906,9.906,0,0,0-9.413-4.581,2.239,2.239,0,0,1-2.2-3.2,9.928,9.928,0,0,0-.686-10.36,10.96,10.96,0,0,0-18.506,11.727Zm0,0" transform="translate(-124.523 -50.828)" fill="#dfede7"/>
          <path id="Path_78" data-name="Path 78" d="M209.392,177.078l10.187,10.185a13.135,13.135,0,0,0,15.3,2.428,120.705,120.705,0,0,1,32.493-11.224,41.946,41.946,0,1,0-49.2-49.154,120.106,120.106,0,0,1-11.208,32.457A13.141,13.141,0,0,0,209.392,177.078Zm0,0" transform="translate(-80.643 -37.435)" fill="#efa335"/>
          <path id="Path_79" data-name="Path 79" d="M288.6,108.614a41.506,41.506,0,0,0-15.817-9.634,41.947,41.947,0,0,1-31.736,54.559,120.715,120.715,0,0,0-32.49,11.224,12.935,12.935,0,0,1-2.573.99,13.171,13.171,0,0,0,3.415,12.729l10.187,10.185a13.135,13.135,0,0,0,15.3,2.428,120.7,120.7,0,0,1,32.493-11.224A41.951,41.951,0,0,0,288.6,108.614Zm0,0" transform="translate(-80.649 -38.839)" fill="#fd8f31"/>
          <path id="Path_80" data-name="Path 80" d="M24.449,103.078c.028-.024.055-.047.083-.074a2.143,2.143,0,0,1,2.955.093l32.084,32.664,12.19-11.974L39.678,91.123a2.143,2.143,0,0,1-.038-2.957l.071-.078A10.082,10.082,0,0,0,25.157,74.146a9.113,9.113,0,0,0-2.587,9.278,2.058,2.058,0,0,1-2.535,2.516,9.133,9.133,0,0,0-9.261,2.335,10.081,10.081,0,0,0,13.676,14.8Zm0,0" transform="translate(-3.043 -27.96)" fill="#dfede7"/>
          <path id="Path_81" data-name="Path 81" d="M96.643,149.953,85.255,161.14a14.559,14.559,0,0,0-2.841,16.937A133.844,133.844,0,0,1,94.529,214.2a46.487,46.487,0,1,0,54.965-54.034,133.17,133.17,0,0,1-35.861-12.743A14.561,14.561,0,0,0,96.643,149.953Zm0,0" transform="translate(-31.731 -57.191)" fill="#efa335"/>
          <path id="Path_82" data-name="Path 82" d="M174.473,172.91a46.247,46.247,0,0,0-23.678-12.748,133.166,133.166,0,0,1-35.861-12.743,14.564,14.564,0,0,0-16.989,2.535L86.557,161.14a14.675,14.675,0,0,0-2.373,3.059,132.271,132.271,0,0,0,43.024,16.835c16.636,3.363,31.769,15.883,37.3,37.5a32.636,32.636,0,0,1-.028,16.507,58.2,58.2,0,0,1-5.609,13.828,46.5,46.5,0,0,0,15.6-75.956Zm0,0" transform="translate(-33.033 -57.192)" fill="#fd8f31"/>
          <path id="Path_83" data-name="Path 83" d="M184.546,89.645S196.224,78.2,210.422,62.167,226.756,11.1,222.787,8.074s-11.3,15.852-26.258,35.7c-4.244,5.63-10.8,9.712-17.825,13.571a2.042,2.042,0,0,1-3.012-1.927c.152-2.6-.211-5.511-2.663-5.188-3,.4-10.662,10.9-15.107,17.357a58.189,58.189,0,0,1-6.475,7.8c-6.313,6.418-8.279,13.963-5.3,28.223,8.243,39.385,44.576,42.134,76.024,43.966s47.341-2.267,47.341-2.267C269.518,94.881,184.546,89.645,184.546,89.645Zm0,0" transform="translate(-56.813 -3.042)" fill="#fccf3f"/>
          <path id="Path_84" data-name="Path 84" d="M196.672,90.421s11.677-11.447,25.875-27.478C235.9,47.874,238.583,16.008,235.559,9.73c-4.837,16.681-23.528,53.787-50.213,67.867-.19.1-.377.2-.565.3-13.863,7.517-11.338,28.18,3.945,32.077,21.088,5.378,47.006,16.427,53.939,38.742,25.9.741,38.979-2.632,38.979-2.632C281.644,95.657,196.672,90.421,196.672,90.421Zm0,0" transform="translate(-68.939 -3.818)" fill="#efc03c"/>
          <path id="Path_85" data-name="Path 85" d="M64.5,213.137l25.878,168.91a9.4,9.4,0,0,0,9.285,7.97H231.8a9.393,9.393,0,0,0,9.285-7.97l25.878-168.91Zm0,0" transform="translate(-25.307 -83.634)" fill="#fc4e51"/>
          <path id="Path_86" data-name="Path 86" d="M316.077,213.137,290.2,382.047a9.4,9.4,0,0,1-9.285,7.97h35.808a9.393,9.393,0,0,0,9.285-7.97l25.878-168.91Zm0,0" transform="translate(-110.229 -83.634)" fill="#ea3942"/>
          <g id="Group_12" data-name="Group 12" transform="translate(67.867 130.647)">
            <path id="Path_87" data-name="Path 87" d="M232.518,390.755H210.955L207.227,215.02h29.023Zm0,0" transform="translate(-149.181 -215.02)" fill="#f3e8d7"/>
            <path id="Path_88" data-name="Path 88" d="M151.906,390.755H130.344L111.7,215.02h29.023Zm0,0" transform="translate(-111.695 -215.02)" fill="#f3e8d7"/>
            <path id="Path_89" data-name="Path 89" d="M305.9,390.755H284.34L295.528,215.02h29.023Zm0,0" transform="translate(-179.44 -215.02)" fill="#f3e8d7"/>
          </g>
          <path id="Path_90" data-name="Path 90" d="M316.077,213.137,290.2,382.047a9.4,9.4,0,0,1-9.285,7.97h35.808a9.393,9.393,0,0,0,9.285-7.97l25.878-168.91Zm0,0" transform="translate(-110.229 -83.634)" fill="#ea3942"/>
          <path id="Path_91" data-name="Path 91" d="M305.9,390.754l18.648-175.738h-7.305l-25.7,167.768a9.391,9.391,0,0,1-7.187,7.723l-.017.245H305.9Zm0,0" transform="translate(-111.573 -84.371)" fill="#e5d8c6"/>
          <path id="Path_92" data-name="Path 92" d="M260.479,230.907H54.688a10.954,10.954,0,0,1,0-21.907H260.479a10.954,10.954,0,1,1,0,21.907Zm0,0" transform="translate(-17.161 -82.01)" fill="#fc4e51"/>
          <path id="Path_93" data-name="Path 93" d="M384.13,209H358.855v21.907H384.13a10.954,10.954,0,1,0,0-21.907Zm0,0" transform="translate(-140.812 -82.01)" fill="#ea3942"/>
          <path id="Path_94" data-name="Path 94" d="M262.864,337.547H83.559l4.486,29.284H258.376Zm0,0" transform="translate(-32.787 -132.451)" fill="#f3e8d7"/>
          <path id="Path_95" data-name="Path 95" d="M312.34,366.831h35.808l4.488-29.284H316.826Zm0,0" transform="translate(-122.56 -132.451)" fill="#e5d8c6"/>
          <path id="Path_96" data-name="Path 96" d="M245.413,337a40.388,40.388,0,1,1-40.389-40.387A40.388,40.388,0,0,1,245.413,337Zm0,0" transform="translate(-64.602 -116.388)" fill="#efa335"/>
          <path id="Path_97" data-name="Path 97" d="M218.96,299.941a40.389,40.389,0,0,1-50.991,50.991,40.388,40.388,0,1,0,50.991-50.991Zm0,0" transform="translate(-65.909 -117.695)" fill="#fd8f31"/>
          <path id="Path_98" data-name="Path 98" d="M269.343,99.021a14.6,14.6,0,0,0-10.054-6.513,14.441,14.441,0,0,0-2.241-11.632,15.743,15.743,0,0,0-10.386-6.667,15.671,15.671,0,0,0-17.02,21.563L225.3,98.712A46.423,46.423,0,0,0,191.93,55.14a4.712,4.712,0,1,0-2.644,9.045A37.145,37.145,0,0,1,213.5,113.1c-.012.033-.026.066-.038.1q-.231.6-.484,1.194c-.045.107-.09.214-.138.32-.157.366-.323.729-.494,1.092-.036.074-.069.152-.107.225-.2.418-.411.828-.627,1.239-.062.119-.128.237-.192.354-.169.313-.344.622-.522.93-.038.064-.076.128-.114.195a47.689,47.689,0,0,0-3.966-5.457.407.407,0,0,1-.028-.033q-1.47-1.748-3.093-3.37c-.036-.033-.069-.069-.1-.1C187.8,94.053,162,87.08,144.99,84.07A37.382,37.382,0,0,1,152.2,73.717a37,37,0,0,1,17.516-9.947,4.712,4.712,0,1,0-2.25-9.152,46.927,46.927,0,0,0-6.138,1.97c9.413-15.043,11.884-37.057,10.927-46.878-.422-4.341-1.476-6.94-3.42-8.423A6.177,6.177,0,0,0,163.9.109c-4.341.821-7.306,5.713-13.215,15.456a258.715,258.715,0,0,1-14.727,22.33c-2.912,3.866-7.2,7-12.686,10.218A7.617,7.617,0,0,0,121.08,44.2a6.62,6.62,0,0,0-5.478-1.68c-2.074.273-5.547.731-18.373,19.356a53.937,53.937,0,0,1-5.955,7.173,26.183,26.183,0,0,0-7.835,16.7,19.122,19.122,0,0,0-17.547.484L41.572,61.466A14.8,14.8,0,0,0,18.812,42.824a13.8,13.8,0,0,0-4.348,10.054A13.565,13.565,0,0,0,4.427,56.954,14.86,14.86,0,0,0,0,67.732,14.8,14.8,0,0,0,22.66,80.045L46.976,104.8a19.124,19.124,0,0,0-.833,17.476H37.527a15.666,15.666,0,0,0,0,31.332h.589L60.41,299.127a14.025,14.025,0,0,0,13.939,11.967H206.494a14.026,14.026,0,0,0,13.942-11.967L242.73,153.611h.589a15.666,15.666,0,0,0,0-31.332h-2.881l4.906-3.323a15.675,15.675,0,0,0,24-19.935ZM97.994,75.649a63.049,63.049,0,0,0,7-8.433,140.063,140.063,0,0,1,9.515-12.6,6.744,6.744,0,0,0,9.655,3.817c8.312-4.564,14.777-8.841,19.318-14.865A266.54,266.54,0,0,0,158.74,20.45c1.429-2.357,2.95-4.866,4.3-6.938C163.083,23.9,159.8,45.032,150.082,56,136.173,71.7,124.55,83.123,124.436,83.237a4.713,4.713,0,0,0,3,8.067,161.527,161.527,0,0,1,17.089,2.3c.066.014.133.026.2.038.237.045.479.09.719.138,11.564,2.212,27.7,6.475,40.672,14.369l.249.154c.252.154.5.311.752.47a50.419,50.419,0,0,1,14.68,13.505H105.28a38.527,38.527,0,0,1-3.059-3.551l-.062-.083q-.445-.587-.869-1.2c-.066-.093-.128-.19-.192-.285q-.352-.513-.691-1.037c-.083-.131-.161-.261-.244-.392-.2-.323-.4-.648-.591-.978-.09-.152-.176-.306-.263-.46-.18-.313-.356-.629-.527-.952-.09-.169-.18-.342-.268-.513q-.242-.466-.475-.947c-.09-.183-.178-.368-.266-.553-.147-.316-.292-.631-.432-.952-.085-.195-.171-.392-.256-.589-.135-.32-.266-.643-.4-.966-.081-.206-.164-.411-.242-.619-.126-.328-.244-.657-.366-.99-.076-.211-.152-.422-.225-.636-.116-.339-.228-.684-.339-1.03-.069-.214-.14-.427-.206-.641-.109-.361-.214-.726-.318-1.094-.062-.209-.123-.415-.18-.627-.109-.4-.214-.814-.316-1.225-.045-.183-.095-.358-.138-.541-.142-.6-.28-1.2-.408-1.816-.114-.551-.221-1.087-.32-1.619-.024-.128-.045-.254-.069-.38q-.128-.694-.235-1.365l-.036-.209c-.074-.468-.138-.923-.2-1.372-.024-.192-.047-.38-.071-.567-.031-.247-.057-.487-.083-.726C91.939,84.111,94.16,79.549,97.994,75.649ZM68.052,96.282l.152-.147.294-.266c.019-.017.036-.036.052-.052A9.79,9.79,0,0,1,79.7,94.393c1.353.714,2.734,1.415,4.127,2.091.107.741.23,1.5.366,2.279a.009.009,0,0,0,0,.007c.157.895.332,1.813.532,2.767.188.892.394,1.771.612,2.637.062.254.131.5.195.755q.253.961.529,1.9c.074.244.145.491.218.733.252.819.513,1.626.793,2.419a.28.28,0,0,0,.017.047c.287.819.6,1.621.916,2.414.083.206.171.408.256.612.252.605.513,1.2.781,1.787.095.2.185.406.28.608.354.748.717,1.483,1.1,2.2a.052.052,0,0,0,.007.012c.4.745.812,1.476,1.239,2.193.093.154.188.306.28.458q.516.851,1.066,1.676c.062.093.119.192.183.285H56.6c-.56-1.2-1.135-2.373-1.714-3.52a9.79,9.79,0,0,1,1.626-11.117c.019-.021.04-.038.062-.059ZM27.806,71.835a6.847,6.847,0,0,0-9.442-.316s-.047.043-.052.045a5.411,5.411,0,0,1-7.154-.107,5.37,5.37,0,0,1-.126-7.783,4.411,4.411,0,0,1,4.73-1.149,6.769,6.769,0,0,0,8.324-8.253,4.41,4.41,0,0,1,1.332-4.728,5.37,5.37,0,0,1,7.78.268,5.412,5.412,0,0,1-.019,7.149l-.045.05a6.847,6.847,0,0,0,.14,9.451L58.653,92.3,54.4,96.488l-1.208,1.187ZM47.65,153.608H65.565l4.965,46.774H54.816ZM59.3,229.668l-3.043-19.861H96.641a45.136,45.136,0,0,0-.4,19.861H59.3Zm15.741-76.06H93.629l2.979,46.774h-16.6ZM90.754,301.672l-1.97-18.563a4.712,4.712,0,0,0-9.37,1l1.863,17.566H74.351a4.653,4.653,0,0,1-4.626-3.973l-8.979-58.608H74.639l2.454,23.134a4.712,4.712,0,0,0,4.68,4.215,4.447,4.447,0,0,0,.5-.026,4.711,4.711,0,0,0,4.189-5.184l-2.35-22.14h14.96l3.985,62.581Zm21.746,0-3.078-48.355A45.173,45.173,0,0,0,124,262.6l.828,39.074Zm34.092,0H134.255l-.776-36.5a45.209,45.209,0,0,0,13.887,0Zm21.753,0H156.018l.828-39.074a45.14,45.14,0,0,0,14.578-9.283Zm-27.924-45.388A35.677,35.677,0,1,1,176.1,220.609,35.716,35.716,0,0,1,140.422,256.284ZM103.073,153.608h18.613l.548,25.745a45.355,45.355,0,0,0-16.712,12.727Zm28.04,0h18.622l-.484,22.773a45.038,45.038,0,0,0-17.654,0Zm44.21,38.471a45.366,45.366,0,0,0-16.709-12.727l.546-25.745h18.613Zm14.768,109.592h-12.3l3.985-62.581h14.958Zm21.031-3.973a4.658,4.658,0,0,1-4.628,3.973h-6.926l6.641-62.581H220.1Zm10.422-68.031H184.608a45.135,45.135,0,0,0-.4-19.861h40.382Zm-37.306-29.286,2.979-46.774H205.8l-4.963,46.774Zm41.792,0H210.315l4.965-46.774H233.2ZM243.318,131.7a6.242,6.242,0,0,1,0,12.484H37.527a6.242,6.242,0,0,1,0-12.484Zm19.156-22.56a6.224,6.224,0,0,1-2.867,4.016,6.3,6.3,0,0,1-8.184-1.526l-.043-.055a7.037,7.037,0,0,0-9.577-1.607l-18.166,12.309h-4.021c.268-.489.527-.985.776-1.481.055-.112.107-.221.159-.33.249-.508.491-1.021.722-1.538.055-.121.109-.242.161-.363a46.6,46.6,0,0,0,2.58-7.6l12.655-8.575a7.027,7.027,0,0,0,2.072-9.465l-.05-.085a6.3,6.3,0,0,1,1.621-8.165,6.245,6.245,0,0,1,8.934,1.483,5.221,5.221,0,0,1,.335,5.689,6.948,6.948,0,0,0,6.8,9.933,5.224,5.224,0,0,1,5.165,2.525A6.2,6.2,0,0,1,262.474,109.141Zm0,0" transform="translate(0 0)"/>
        </g>
        <g id="lollipop" transform="translate(-146 879)">
          <path id="Path_165" data-name="Path 165" d="M95.7,369.321l-73.536,73.53A12.98,12.98,0,0,1,3.8,424.5l73.536-73.536Z" transform="translate(0 -142.401)" fill="#e39382"/>
          <path id="Path_166" data-name="Path 166" d="M139.645,302.755,22.565,419.835A12.987,12.987,0,0,1,.986,414.519,12.978,12.978,0,0,0,14.033,411.3l117.08-117.08Z" transform="translate(-0.4 -119.379)" fill="#dc7f69"/>
          <path id="Path_167" data-name="Path 167" d="M133.53,326.951,113.111,347.37a6.124,6.124,0,0,1-6.545,1.377l-21.2-8.225a6.122,6.122,0,0,1-2.117-10.039l26.908-26.908Z" transform="translate(-33.048 -123.174)" fill="#fdf391"/>
          <path id="Path_168" data-name="Path 168" d="M147.8,326.95l-10.809,10.809a130,130,0,0,1-20.372-26.38l7.8-7.8Z" transform="translate(-47.317 -123.174)" fill="#fde734"/>
          <path id="Path_169" data-name="Path 169" d="M177.3,366.287l-26.908,26.908a6.122,6.122,0,0,1-10.039-2.117l-8.225-21.2a6.123,6.123,0,0,1,1.376-6.545l20.419-20.419Z" transform="translate(-53.441 -139.134)" fill="#f3d730"/>
          <path id="Path_170" data-name="Path 170" d="M185.084,366.287l-7.8,7.8A130,130,0,0,1,150.9,353.72l10.809-10.809Z" transform="translate(-61.226 -139.134)" fill="#e2c92c"/>
          <path id="Path_171" data-name="Path 171" d="M181.165,377.226l-26.908,26.908a6.122,6.122,0,0,1-10.039-2.117l-2.978-7.671a6.133,6.133,0,0,0,8.372-.277l24.2-24.2Z" transform="translate(-57.307 -150.073)" fill="#e2c92c"/>
          <g id="Group_17" data-name="Group 17" transform="translate(59.453 0.002)">
            <path id="Path_172" data-name="Path 172" d="M243.379,205.985S199.736,273.54,249.5,328.234a122.094,122.094,0,0,1-92.674-35.7q-2.7-2.7-5.185-5.516C152.193,258.67,165.411,212.86,243.379,205.985Z" transform="translate(-120.98 -83.58)" fill="#fc7cb6"/>
            <path id="Path_173" data-name="Path 173" d="M222.444,143.2s-65.137-38.562-122.352,3.367a122.049,122.049,0,0,1,35.8-89.919q2.81-2.81,5.761-5.406C167.108,57.957,223.681,80,222.444,143.2Z" transform="translate(-100.045 -20.793)" fill="#fc7cb6"/>
            <path id="Path_174" data-name="Path 174" d="M302.909,122.409S344.863,64.27,298.361.088a122.062,122.062,0,0,1,91.1,35.77q3.526,3.526,6.7,7.255C389.81,69.424,368.635,124.478,302.909,122.409Z" transform="translate(-180.511 -0.004)" fill="#fc7cb6"/>
            <path id="Path_175" data-name="Path 175" d="M392.439,290.66q-3.673,3.673-7.573,6.966c-30-11.093-82.695-38.519-78.979-93.518,0,0,62.407,41.084,122.371-2.749a122.061,122.061,0,0,1-35.819,89.3Z" transform="translate(-183.489 -81.702)" fill="#fc7cb6"/>
          </g>
          <path id="Path_176" data-name="Path 176" d="M452.667,67.165a122.016,122.016,0,0,0-12.574-17.551q3.535,3.021,6.875,6.367,3.526,3.526,6.7,7.255Q453.222,65.108,452.667,67.165Z" transform="translate(-178.565 -20.131)" fill="#fb5fa7"/>
          <path id="Path_177" data-name="Path 177" d="M238.412,369.2A96.75,96.75,0,0,0,248.7,382.636a122.1,122.1,0,0,1-92.679-35.7q-3.352-3.343-6.373-6.881A122.131,122.131,0,0,0,238.412,369.2Z" transform="translate(-60.718 -137.974)" fill="#fb5fa7"/>
          <path id="Path_178" data-name="Path 178" d="M433.241,290.659q-3.673,3.673-7.573,6.966a194.77,194.77,0,0,1-19.406-8.362,123.414,123.414,0,0,0,13.731-11.852,121.8,121.8,0,0,0,34.264-66.888,110.462,110.462,0,0,0,14.809-9.165A122.044,122.044,0,0,1,433.241,290.659Z" transform="translate(-164.838 -81.7)" fill="#fb5fa7"/>
          <path id="Path_179" data-name="Path 179" d="M377.1,292.536a122.013,122.013,0,0,1-86.554,35.852,93.984,93.984,0,0,1,0-122.406A93.976,93.976,0,0,0,377.1,292.536Z" transform="translate(-108.693 -83.576)" fill="#24d1f8"/>
          <path id="Path_180" data-name="Path 180" d="M386.049,348.479A122.013,122.013,0,0,1,299.5,384.331a93.8,93.8,0,0,1-9.55-13.312,121.893,121.893,0,0,0,73.278-27.159A94.033,94.033,0,0,0,386.049,348.479Z" transform="translate(-117.643 -139.519)" fill="#21c1f8"/>
          <path id="Path_181" data-name="Path 181" d="M163.139,217.763a93.624,93.624,0,0,0-27.253,59.3,122.013,122.013,0,0,1-35.852-86.554,93.984,93.984,0,0,1,122.406,0A93.624,93.624,0,0,0,163.139,217.763Z" transform="translate(-40.588 -68.105)" fill="#24d1f8"/>
          <path id="Path_182" data-name="Path 182" d="M246.919,122.406a93.976,93.976,0,0,0-86.554-86.554A122.012,122.012,0,0,1,246.919,0a93.983,93.983,0,0,1,0,122.406Z" transform="translate(-65.067)" fill="#24d1f8"/>
          <path id="Path_183" data-name="Path 183" d="M428.422,146.885a93.984,93.984,0,0,1-122.406,0A93.976,93.976,0,0,0,392.57,60.331,122.016,122.016,0,0,1,428.422,146.885Z" transform="translate(-124.164 -24.479)" fill="#24d1f8"/>
          <path id="Path_184" data-name="Path 184" d="M471.751,157.776a122.418,122.418,0,0,0-20.4-95.294q.109-1.076.187-2.151a122.013,122.013,0,0,1,35.852,86.554A94.574,94.574,0,0,1,471.751,157.776Z" transform="translate(-183.133 -24.479)" fill="#21c1f8"/>
          <circle id="Ellipse_6" data-name="Ellipse 6" cx="25.351" cy="25.351" r="25.351" transform="translate(156.501 97.055)" fill="#c9f0fd"/>
          <path id="Path_185" data-name="Path 185" d="M308.8,208.77a25.361,25.361,0,0,1-40.1-5.627,25.355,25.355,0,0,0,34.47-34.47,25.361,25.361,0,0,1,5.627,40.1Z" transform="translate(-109.026 -68.438)" fill="#9ce6fb"/>
        </g>
      </g>
    </g>
  </g>
</svg>
