<svg xmlns="http://www.w3.org/2000/svg" width="169.16" height="166.307" viewBox="0 0 169.16 166.307">
  <g id="Group_10" data-name="Group 10" transform="translate(243.906 -47.178)">
    <path id="Path_5" data-name="Path 5" d="M202.257,106.274c-1.327-2.691.124-4.19-2.24-6.876-2.812-3.195-6.629-2.381-9.867-3.983-.213-.106-.42-.22-.625-.338,3.1,13.027.138,27.893-7.25,39.37-10.833,16.83-29.124,27.446-47.8,34.653-9.794,3.78-20.037,6.826-30.533,7.017A47.835,47.835,0,0,1,84.6,172.583c-.38,2.264-2.067,5.706-1.066,8.005,1.447,3.326,5.988,2.969,8.136,5.448,2.794,3.225,1.056,9.864,6.674,11.46,3.764,1.069,6.178-2.549,9.934-2.061,2.361,8.027,6.206,8.391,12.671,10.445,5.291,1.682,8.782,5.456,15.3,4.855,9.861-.909,18.725-3.2,28.19-4.255,7.344-.822,5.989-4.029,10.887-7.079,1.78-1.108,4.64-.855,6.642-1.764,3.166-1.436,2.507-2.037,4.231-3.826,4.126-4.281,20.037-11.6,13.786-20.167,3.271-1.887,5.952-4.321,7.13-7.991.952-2.964-1.241-6.522-.551-8.618,1.165-3.54,6.237-4.685,6.591-9.789.281-4.045-1.353-7.362-.749-11.559.53-3.69,1.108-4.071.036-7.643-.379-1.26-2.231-1.218-2.562-2.279-.525-1.682.58-3.179.492-4.83C209.988,113.707,205.181,112.2,202.257,106.274Zm-80.348,84.567c-6.706,5.705-11.467-5.106-5.983-6.364C122.131,183.054,125.806,187.527,121.909,190.841Zm21.077-3.316c-5.418,9.03-8.678-1.17-5.646-6.892C143.6,179.385,145.77,182.885,142.986,187.525ZM162.6,182.28c-4.9-5.488,1.1-11.005,6.144-9.247C179.542,176.8,170.52,191.162,162.6,182.28Zm24.679-22.759c-2.044,6.274-12.472,5.479-10.952-1.95C177.557,151.555,189.435,152.9,187.278,159.521ZM193.9,137.8c.92-4.976,9.163-4.065,9.929.205C205.381,146.666,192.131,147.351,193.9,137.8Z" transform="translate(-297 -6)" fill="#dc995b"/>
    <path id="Path_6" data-name="Path 6" d="M198.559,155.413c2.691-3.311,3.456-7.6,3.62-11.953-3.209,2.742-9.537,1.13-8.282-5.656.678-3.669,5.332-4.13,8.04-2.41-.442-3.065-1.594-6-4.4-6.818-2.734-.792-5.6,1.09-7.206,3.437s-2.4,5.159-3.845,7.612a32.839,32.839,0,0,1-6.53,7.271l-11.314,10.315a5.684,5.684,0,0,1-2.129,1.416,15.9,15.9,0,0,1-2.673.178c-4.982.562-5.958,8.484-10.795,9.807-1.639.449-3.43.014-5.056.509-2.768.842-4.288,4.107-7.08,4.867-1.456.4-3,.032-4.507.059-4.972.087-8.852,4.281-13.572,5.847-3.034,1.007-6.313.891-9.472,1.39s-6.5,1.865-7.926,4.724a2.664,2.664,0,0,0-.346,1.383c.1,1.166,1.3,1.865,2.362,2.365q5.1,2.407,10.162,4.913a23.12,23.12,0,0,1,5.872,3.7c1.287,1.227,2.393,2.809,4.1,3.325,2.5.758,5.186-1.119,7.734-.542a12.7,12.7,0,0,1,3.233,1.622c6.456,3.61,14.461.613,21.213-2.411-.354-.839.549-1.722,1.444-1.889s1.832.062,2.723-.128c3.323-.711,3-5.744,5.287-8.261,1.489-1.642,3.886-1.978,6.011-2.61,6.053-1.8,10.711-6.533,15.085-11.087a13.94,13.94,0,0,0,3.291-4.51c1.408-3.743-.539-8.216,1.185-11.825C195.644,158.247,197.3,156.968,198.559,155.413Zm-76.65,35.428c-6.706,5.705-11.467-5.106-5.983-6.364C122.131,183.054,125.806,187.527,121.909,190.841Zm21.077-3.316c-5.418,9.03-8.678-1.17-5.646-6.892C143.6,179.385,145.77,182.885,142.986,187.525ZM162.6,182.28c-4.9-5.488,1.1-11.005,6.144-9.247C179.542,176.8,170.52,191.162,162.6,182.28Zm24.679-22.759c-2.044,6.274-12.472,5.479-10.952-1.95C177.557,151.555,189.435,152.9,187.278,159.521Z" transform="translate(-297 -6)" fill="#dfb060"/>
    <path id="Path_8" data-name="Path 8" d="M134.478,169.1c18.673-7.207,36.964-17.823,47.8-34.653,7.388-11.477,10.345-26.343,7.25-39.37a37.513,37.513,0,0,0-8.442-16.5c-8.523-9.53-21.547-13.988-34.293-14.981-32.812-2.555-66.185,17.5-79.324,47.679-7.923,18.2-7.619,42.039,7.262,55.169a36.065,36.065,0,0,0,9.874,6.134,47.835,47.835,0,0,0,19.343,3.534C114.441,175.926,124.684,172.88,134.478,169.1Zm-26.242-68.988c6.331-4.844,15.017-6.126,22.733-4.121,7.3,1.9,14.226,7.246,15.677,14.651,1.171,5.98-1.423,12.2-5.409,16.809-5.6,6.471-14.286,10.427-22.784,9.446s-16.376-7.314-18.3-15.649C98.352,113.481,101.9,104.957,108.236,100.112Z" transform="translate(-297 -6)" fill="#fff9f0"/>
    <path id="Path_9" data-name="Path 9" d="M118.453,136.9c8.5.981,17.188-2.975,22.784-9.446,3.986-4.609,6.58-10.829,5.409-16.809-1.451-7.4-8.374-12.754-15.677-14.651-7.716-2-16.4-.723-22.733,4.121s-9.884,13.369-8.087,21.136C102.077,129.583,109.954,135.915,118.453,136.9Z" transform="translate(-297 -6)" fill="#f8a036"/>
    <path id="Path_10" data-name="Path 10" d="M137.34,183.758c-3.032,5.722.228,15.922,5.646,6.892C145.77,186.01,143.6,182.51,137.34,183.758Z" transform="translate(-297 -6)" fill="#dc995b"/>
    <path id="Path_11" data-name="Path 11" d="M168.743,176.158C163.7,174.4,157.7,179.917,162.6,185.4,170.52,194.287,179.542,179.925,168.743,176.158Z" transform="translate(-297 -6)" fill="#dc995b"/>
    <path id="Path_12" data-name="Path 12" d="M176.326,160.7c-1.52,7.429,8.908,8.224,10.952,1.95C189.435,156.028,177.557,154.68,176.326,160.7Z" transform="translate(-297 -6)" fill="#dc995b"/>
    <path id="Path_13" data-name="Path 13" d="M193.9,140.929c-1.766,9.547,11.484,8.862,9.929.205C203.06,136.864,194.817,135.953,193.9,140.929Z" transform="translate(-297 -6)" fill="#dc995b"/>
    <path id="Path_14" data-name="Path 14" d="M137.34,180.633c-3.032,5.722.228,15.922,5.646,6.892C145.77,182.885,143.6,179.385,137.34,180.633Z" transform="translate(-297 -6)" fill="#ef4e31"/>
    <path id="Path_15" data-name="Path 15" d="M168.743,173.033c-5.039-1.758-11.039,3.759-6.144,9.247C170.52,191.162,179.542,176.8,168.743,173.033Z" transform="translate(-297 -6)" fill="#bcd757"/>
    <path id="Path_16" data-name="Path 16" d="M176.326,157.571c-1.52,7.429,8.908,8.224,10.952,1.95C189.435,152.9,177.557,151.555,176.326,157.571Z" transform="translate(-297 -6)" fill="#ef4e31"/>
    <path id="Path_17" data-name="Path 17" d="M193.9,137.8c-1.766,9.547,11.484,8.862,9.929.205C203.06,133.739,194.817,132.828,193.9,137.8Z" transform="translate(-297 -6)" fill="#bcd757"/>
    <path id="Path_18" data-name="Path 18" d="M115.926,187.6c-5.484,1.258-.723,12.069,5.983,6.364C125.806,190.652,122.131,186.179,115.926,187.6Z" transform="translate(-297 -6)" fill="#dc995b"/>
    <path id="Path_19" data-name="Path 19" d="M189.525,95.077a37.513,37.513,0,0,0-8.442-16.5c-8.523-9.53-21.547-13.988-34.293-14.981-32.812-2.555-66.185,17.5-79.324,47.679-7.923,18.2-7.619,42.039,7.262,55.169a36.065,36.065,0,0,0,9.874,6.134,47.835,47.835,0,0,0,19.343,3.534c.771-.014,1.541-.048,2.31-.093-7.857-3.454-15.012-8.143-18.389-15.788-1.44-3.26-2.057-6.836-3.482-10.1-1.454-3.337-3.725-6.293-4.954-9.72-2.961-8.249.6-17.268,4.1-25.3,2.879-6.6,5.827-13.3,10.531-18.752,3.95-4.576,8.975-8.071,13.943-11.515,5.3-3.672,10.881-7.457,17.283-8.2,6.605-.77,13.216,1.814,19.85,1.356,2.862-.2,5.774-.956,8.552-.24,4.669,1.2,7.478,6.144,11.953,7.939,3.539,1.42,7.7.7,11.151,2.322,2.772,1.306,4.651,3.92,6.5,6.362a44.548,44.548,0,0,0,7.316,7.915A45.055,45.055,0,0,0,189.525,95.077Z" transform="translate(-297 -6)" fill="#ffe7c9"/>
    <path id="Path_20" data-name="Path 20" d="M122.554,136.984l-1.744-1.091c-3.781-2.365-7.665-4.825-10.237-8.469a16.5,16.5,0,0,1-1.444-16.4,15.314,15.314,0,0,1,13.941-8.491c4.233.16,8.2,2.164,12.415,2.58a13.447,13.447,0,0,1,4.239.7c3.993,1.791,3.877,7.805,6.913,10.846a16.136,16.136,0,0,0,.009-6.019c-1.451-7.4-8.374-12.754-15.677-14.651-7.716-2-16.4-.723-22.733,4.121s-9.884,13.369-8.087,21.136c1.928,8.335,9.805,14.667,18.3,15.649A22.858,22.858,0,0,0,122.554,136.984Z" transform="translate(-297 -6)" fill="#f58535"/>
    <path id="Path_21" data-name="Path 21" d="M135.9,121.118c-1.777.541-2.908,1.691-4.425,2.746a31.6,31.6,0,0,1-4.831,2.716c-1.128.52-.323,2.4.843,2,3.252-1.116,7.913-2.707,9.67-5.826A1.122,1.122,0,0,0,135.9,121.118Z" transform="translate(-297 -6)" fill="#ffc861"/>
    <path id="Path_22" data-name="Path 22" d="M140.155,115.816c-.135.039-.27.072-.407.1a2.344,2.344,0,0,0-.994.66l-.054.049c-.022.013-.057.034-.126.082a5.187,5.187,0,0,1-.574.329,1.719,1.719,0,1,0,1.735,2.969,8.451,8.451,0,0,0,1.3-.912,2.591,2.591,0,0,0,.921-1.906A1.433,1.433,0,0,0,140.155,115.816Z" transform="translate(-297 -6)" fill="#ffc861"/>
    <path id="Path_23" data-name="Path 23" d="M185.494,105.306a17.054,17.054,0,0,0-3.9-5.845,1.5,1.5,0,0,0-2.127,2.127,14.812,14.812,0,0,1,3.15,5.636c.6,1.771.981,3.542,2.224,4.989a1.455,1.455,0,0,0,2.468-1.022A17.918,17.918,0,0,0,185.494,105.306Z" transform="translate(-297 -6)" fill="#ffe7c9"/>
    <path id="Path_24" data-name="Path 24" d="M184.423,117.552a14.277,14.277,0,0,0-.493,2.306c-.124.96,1.317,1.229,1.747.473a14.348,14.348,0,0,0,.968-2.167C187.156,116.782,184.85,116.117,184.423,117.552Z" transform="translate(-297 -6)" fill="#ffe7c9"/>
    <path id="Path_25" data-name="Path 25" d="M109.38,168.648a24.324,24.324,0,0,0-6.243-1.436c-.923-.15-1.8.942-.988,1.7a8.119,8.119,0,0,0,6.988,1.6A1.022,1.022,0,0,0,109.38,168.648Z" transform="translate(-297 -6)" fill="#ffe7c9"/>
    <path id="Path_26" data-name="Path 26" d="M85.9,118.889c-1.388,1.284-2.072,3.2-2.793,4.914-.822,1.95-1.533,4.325-.758,6.382a1.241,1.241,0,0,0,2.373,0c.5-1.855.529-3.777,1.1-5.635.516-1.694,1.473-3.244,1.617-5.026C87.5,118.7,86.43,118.4,85.9,118.889Z" transform="translate(-297 -6)" fill="#ffe7c9"/>
    <path id="Path_27" data-name="Path 27" d="M87.263,114.858c-.018.561-.153,1.1-.138,1.666a.749.749,0,0,0,1.267.525,2.586,2.586,0,0,0,.746-2.191A.938.938,0,0,0,87.263,114.858Z" transform="translate(-297 -6)" fill="#ffe7c9"/>
    <path id="Path_28" data-name="Path 28" d="M107.264,80.545c-1.687.389-3.084,1.7-4.483,2.657a29.811,29.811,0,0,1-5.8,3.2c-.786.311-.774,1.736.218,1.612a16.54,16.54,0,0,0,5.68-1.989c1.911-1,4.319-2.134,5.53-3.986A1.024,1.024,0,0,0,107.264,80.545Z" transform="translate(-297 -6)" fill="#fff9f0"/>
    <path id="Path_29" data-name="Path 29" d="M152.112,71.973a12.633,12.633,0,0,0-4.578-.738,1.29,1.29,0,0,0,0,2.579,36.846,36.846,0,0,0,4.333-.038A.923.923,0,0,0,152.112,71.973Z" transform="translate(-297 -6)" fill="#fff9f0"/>
    <path id="Path_30" data-name="Path 30" d="M82.768,153.68c-.148-.518-.342-1.028-.526-1.534a1.426,1.426,0,1,0-2.606,1.1c.4.862.771,1.7,1.253,2.519.53.9,2.256.6,2.111-.572A9.953,9.953,0,0,0,82.768,153.68Z" transform="translate(-297 -6)" fill="#fff9f0"/>
    <path id="Path_31" data-name="Path 31" d="M95.988,131.086a26.055,26.055,0,0,0-2.485.815c-.711.341-.28,1.286.364,1.346a5.683,5.683,0,0,0,2.738-.7C97.437,132.189,96.837,130.777,95.988,131.086Z" transform="translate(-297 -6)" fill="#ffe7c9"/>
    <path id="Path_32" data-name="Path 32" d="M103.523,138c-.406,2.9-2.65,4.928-3.277,7.683a.649.649,0,0,0,1.077.627,14.317,14.317,0,0,0,3.581-8.123C104.969,137.4,103.633,137.22,103.523,138Z" transform="translate(-297 -6)" fill="#ffe7c9"/>
    <path id="Path_33" data-name="Path 33" d="M118.982,140.191c-.115-.974-1.622-1.024-1.562,0a6.651,6.651,0,0,0,.925,3.639.61.61,0,0,0,1.128-.306A26.315,26.315,0,0,0,118.982,140.191Z" transform="translate(-297 -6)" fill="#ffe7c9"/>
    <path id="Path_34" data-name="Path 34" d="M129.715,142.624c-.273-1.245-2.3-.433-1.606.677a4.006,4.006,0,0,1,.47,1.062.648.648,0,0,0,1.266-.172A5.508,5.508,0,0,0,129.715,142.624Z" transform="translate(-297 -6)" fill="#ffe7c9"/>
    <path id="Path_35" data-name="Path 35" d="M156.684,136.041c-1.747-2.073-4.258-3.277-5.859-5.548-.53-.751-1.77-.053-1.248.73a20.46,20.46,0,0,0,6.279,5.892C156.557,137.535,157.165,136.612,156.684,136.041Z" transform="translate(-297 -6)" fill="#ffe7c9"/>
    <path id="Path_36" data-name="Path 36" d="M161.948,119.149c-2.172-.956-4.741-.867-7.081-.8a.84.84,0,0,0,0,1.68c2.252.055,4.436.558,6.667.647C162.312,120.709,162.708,119.484,161.948,119.149Z" transform="translate(-297 -6)" fill="#ffe7c9"/>
    <path id="Path_37" data-name="Path 37" d="M160.473,102.183a17.682,17.682,0,0,1-7.162,3.532c-1.076.21-.6,1.78.446,1.619,2.906-.445,5.979-1.678,7.785-4.082C162.005,102.636,161.09,101.725,160.473,102.183Z" transform="translate(-297 -6)" fill="#ffe7c9"/>
    <path id="Path_38" data-name="Path 38" d="M153.439,90.763a12.212,12.212,0,0,1-4.076,2.473.645.645,0,0,0,.342,1.243c1.86-.395,4.041-1.225,4.746-3.127C154.685,90.723,153.858,90.424,153.439,90.763Z" transform="translate(-297 -6)" fill="#ffe7c9"/>
    <path id="Path_39" data-name="Path 39" d="M139.747,83.415a11.063,11.063,0,0,0-1.653,1.67c-.969,1.037.64,2.614,1.547,1.546a6.211,6.211,0,0,0,1.426-2.2A.905.905,0,0,0,139.747,83.415Z" transform="translate(-297 -6)" fill="#ffe7c9"/>
    <path id="Path_40" data-name="Path 40" d="M127.212,82.671a.71.71,0,0,0-1.285-.168,10.676,10.676,0,0,1-1.375,2.039c-.883.809.4,2.05,1.3,1.3A3.238,3.238,0,0,0,127.212,82.671Z" transform="translate(-297 -6)" fill="#ffe7c9"/>
    <path id="Path_41" data-name="Path 41" d="M95.2,103.706l-1.334.175a.977.977,0,0,0,0,1.953l1.334.176a1.152,1.152,0,0,0,0-2.3Z" transform="translate(-297 -6)" fill="#ffe7c9"/>
    <path id="Path_42" data-name="Path 42" d="M141.63,96.338c-2.328-1.372-6.656-5.651-9.346-5.9-5.007-.457-8.743.957-13.75.5-3.629-.331-7.952,2.48-10.487,5.1-3.468.184-6.548,2.508-8.458,5.408a28.611,28.611,0,0,0-3.573,9.721A34.048,34.048,0,0,0,95,118.812a19.931,19.931,0,0,0,8.178,15.747,39.275,39.275,0,0,0,7.244,3.8,8.253,8.253,0,0,0,4.256,1.01c1.262-.164,2.413-.909,3.685-.95a9.5,9.5,0,0,1,2.8.6,12.092,12.092,0,0,0,9.561-1.391c6.07-3.818,13.824-6.512,17.057-12.912,2.92-5.783,2.05-12.769.08-18.941C146.693,102.1,144.953,98.3,141.63,96.338Zm-.393,31.113c-5.6,6.471-14.286,10.427-22.784,9.446s-16.376-7.314-18.3-15.649c-1.8-7.767,1.756-16.291,8.087-21.136s15.017-6.126,22.733-4.121c7.3,1.9,14.226,7.246,15.677,14.651C147.817,116.622,145.223,122.842,141.237,127.451Z" transform="translate(-297 -6)" fill="#ffe7c9"/>
    <path id="Path_43" data-name="Path 43" d="M201.237,118.572a1.091,1.091,0,0,0-1.578-.642,2.114,2.114,0,0,0-.764.676c.16-.22-.2.268-.237.333l-.036.061c-.015.014-.036.037-.07.076a.613.613,0,0,1-.32.2,1.826,1.826,0,0,1-.7.035.884.884,0,0,0-.443,1.638,3.274,3.274,0,0,0,2.561.249A2.2,2.2,0,0,0,201.237,118.572Z" transform="translate(-297 -6)" fill="#dfb060"/>
    <path id="Path_44" data-name="Path 44" d="M99.9,182.59a1.845,1.845,0,0,0-1.367-.834c.328.041-.946-.134-.494-.076.111.009.077,0-.1-.031-.1-.025-.208-.054-.31-.088-.712-.218-1.972-.676-2.27.4-.275.992.538,1.776,1.355,2.185a4.076,4.076,0,0,0,1.49.447,1.76,1.76,0,0,0,1.7-.8A1.146,1.146,0,0,0,99.9,182.59Z" transform="translate(-297 -6)" fill="#dfb060"/>
    <path id="Path_46" data-name="Path 46" d="M184.276,187.846a3.184,3.184,0,0,0-.918.776,1.858,1.858,0,0,1-.381.4,2.259,2.259,0,0,1-1.443.393c-1.232-.02-1.552,1.966-.3,2.187a4.808,4.808,0,0,0,2.877-.29,4.992,4.992,0,0,0,1.156-.76,2.322,2.322,0,0,0,.768-1.69A1.178,1.178,0,0,0,184.276,187.846Z" transform="translate(-297 -6)" fill="#dfb060"/>
    <path id="Path_47" data-name="Path 47" d="M115.926,184.477c-5.484,1.258-.723,12.069,5.983,6.364C125.806,187.527,122.131,183.054,115.926,184.477Z" transform="translate(-297 -6)" fill="#bcd757"/>
    <path id="Path_48" data-name="Path 48" d="M131.2,181.665c-.941-.012-1.89.6-2.727-.08-1.072-.867-2.593.558-1.547,1.546,1.373,1.3,4.319,1.862,5.1-.378A.865.865,0,0,0,131.2,181.665Z" transform="translate(-297 -6)" fill="#dc995b"/>
    <path id="Path_49" data-name="Path 49" d="M146.815,197.008a5.848,5.848,0,0,0-1.9.168,17.723,17.723,0,0,0-1.989.2,1.023,1.023,0,0,0,0,1.959c1.539.368,3.873.773,4.62-1.032A1.05,1.05,0,0,0,146.815,197.008Z" transform="translate(-297 -6)" fill="#dc995b"/>
    <path id="Path_50" data-name="Path 50" d="M154.46,180.057a1.143,1.143,0,0,0-2.071-.271,2.144,2.144,0,0,1-.106.187c0-.005-.231.337-.263.4s-.253.348-.065.134c-.059.067-.117.13-.178.193.031-.048-.068,0-.079.023-.061.01-.126.02-.137.024a1.368,1.368,0,0,1-.564-.127c-1.235-.436-1.885,1.382-.858,2.035a3.208,3.208,0,0,0,2.785.412A2.389,2.389,0,0,0,154.46,180.057Z" transform="translate(-297 -6)" fill="#dc995b"/>
    <path id="Path_51" data-name="Path 51" d="M184.034,171.234a5.252,5.252,0,0,0-1.466.125,1.007,1.007,0,0,1-.719-.149,1.178,1.178,0,0,0-1.63,0,1.162,1.162,0,0,0,0,1.63c1.287,1.214,3.561,1.4,4.641-.166A.966.966,0,0,0,184.034,171.234Z" transform="translate(-297 -6)" fill="#dc995b"/>
    <path id="Path_52" data-name="Path 52" d="M188.61,149.3c-.406.293-.763.672-1.184.934-.456.283-1.155.262-1.514.669a.663.663,0,0,0-.1.781c.418.784,1.709.683,2.411.44a2.168,2.168,0,0,0,1.652-2.1C189.834,149.451,189.168,148.9,188.61,149.3Z" transform="translate(-297 -6)" fill="#dc995b"/>
    <path id="Path_53" data-name="Path 53" d="M169.35,163.365a8.428,8.428,0,0,0-2.983-.346,1.175,1.175,0,0,0-1.171,1.172,1.2,1.2,0,0,0,1.171,1.172,4.048,4.048,0,0,0,3.177-.5A.959.959,0,0,0,169.35,163.365Z" transform="translate(-297 -6)" fill="#dc995b"/>
    <path id="Path_54" data-name="Path 54" d="M196.358,132.384c-.3.073-.751.389-.993.144a.706.706,0,0,0-1.105.851,1.611,1.611,0,0,0,2.848-.019A.671.671,0,0,0,196.358,132.384Z" transform="translate(-297 -6)" fill="#dc995b"/>
    <path id="Path_55" data-name="Path 55" d="M130.56,194.328c-.424-.144-.868-.184-1.3-.311a1.918,1.918,0,0,1-.857-.7c-.5-.632-1.448.059-1.273.741a2.593,2.593,0,0,0,3.6,1.588A.729.729,0,0,0,130.56,194.328Z" transform="translate(-297 -6)" fill="#fbc26a"/>
    <path id="Path_56" data-name="Path 56" d="M155.63,172.628c-.386.251-.56.58-1.034.6a1.233,1.233,0,0,1-1.123-.626.51.51,0,0,0-.929.391c.415,1.892,3.8,2.965,4.532.746A.991.991,0,0,0,155.63,172.628Z" transform="translate(-297 -6)" fill="#fbc26a"/>
    <path id="Path_57" data-name="Path 57" d="M156.7,191.589a6.15,6.15,0,0,0-.932.357c-.221.108-.4,0-.586-.128-.5-.34-1.234.353-.855.855a2.079,2.079,0,0,0,1.626.9,1.428,1.428,0,0,0,1.516-1.22A.632.632,0,0,0,156.7,191.589Z" transform="translate(-297 -6)" fill="#fbc26a"/>
    <path id="Path_58" data-name="Path 58" d="M182.534,176.793a22,22,0,0,1-2.833.2c-1.167-.148-1.4,1.779-.275,2.034a4.077,4.077,0,0,0,3.743-.7A.9.9,0,0,0,182.534,176.793Z" transform="translate(-297 -6)" fill="#fbc26a"/>
    <path id="Path_59" data-name="Path 59" d="M190.473,142.487a.984.984,0,0,0-1.521.2,1.267,1.267,0,0,0-.191.586,1.119,1.119,0,0,1-.211.143.748.748,0,0,0,.375,1.383,1.973,1.973,0,0,0,1.442-.437A1.255,1.255,0,0,0,190.473,142.487Z" transform="translate(-297 -6)" fill="#fbc26a"/>
    <path id="Path_60" data-name="Path 60" d="M191.977,159.571a.9.9,0,0,0-1.015-.413c-.406.164-.775.363-1.166.555a1.139,1.139,0,0,0-.407,1.55,1.151,1.151,0,0,0,1.779.229,2.63,2.63,0,0,0,.809-1.014A.951.951,0,0,0,191.977,159.571Z" transform="translate(-297 -6)" fill="#fbc26a"/>
    <path id="Path_61" data-name="Path 61" d="M201.326,136.576a5.115,5.115,0,0,0-4.374-.622.941.941,0,0,0,.249,1.841,5.607,5.607,0,0,1,1.552.091,9.291,9.291,0,0,1,1.449.62C201.264,138.938,202.193,137.294,201.326,136.576Z" transform="translate(-297 -6)" fill="#e0e78c"/>
    <path id="Path_62" data-name="Path 62" d="M164.671,175.883a.7.7,0,0,0,.5.505,1.193,1.193,0,0,0,1.012-.187,1.307,1.307,0,0,1,1.059.014c.77.228,1.688.919,2.506.6a.829.829,0,0,0,.6-.791C170.129,173.464,164.177,173.239,164.671,175.883Z" transform="translate(-297 -6)" fill="#e0e78c"/>
    <path id="Path_63" data-name="Path 63" d="M120.781,186.111a2.175,2.175,0,0,0-1.8-.367c-.65.04-1.3.116-1.947.157-1.223.076-1.237,1.975,0,1.914.65-.032,1.3-.091,1.947-.131a2.768,2.768,0,0,0,1.8-.413A.817.817,0,0,0,120.781,186.111Z" transform="translate(-297 -6)" fill="#e0e78c"/>
    <path id="Path_64" data-name="Path 64" d="M141.342,182.161a2.078,2.078,0,0,0-2.576-.165,1.2,1.2,0,0,0-.547,1.345,1.216,1.216,0,0,0,1.465.832c.382-.063.769-.014,1.156-.111A1.146,1.146,0,0,0,141.342,182.161Z" transform="translate(-297 -6)" fill="#f69650"/>
    <path id="Path_65" data-name="Path 65" d="M182.5,155.131a4,4,0,0,0-1.832.477,4.052,4.052,0,0,0-1.464.92.711.711,0,0,0,.31,1.175,3.207,3.207,0,0,0,1.549-.163c.579-.164,1.131-.224,1.718-.332a1.054,1.054,0,0,0,.776-1.02A1.076,1.076,0,0,0,182.5,155.131Z" transform="translate(-297 -6)" fill="#f69650"/>
    <path id="Path_66" data-name="Path 66" d="M219.812,131.149c-1.11-4.645-.076-9.822-2.3-14.049-1.02-1.939-2.638-3.484-3.947-5.24a19.309,19.309,0,0,1-3.613-8.734c-.384-2.66-1.412-6.539-3.48-8.257a14.016,14.016,0,0,0-4.046-2.079c-2.426-.929-6.093-1.66-8.519-2.589-.486-7.518-4.778-14.417-10.43-19.4s-12.586-8.267-19.591-11.039c-7.677-3.038-15.64-5.558-23.861-6.328-14-1.31-28.045,2.531-40.874,8.28-7.137,3.2-14.067,7.037-19.919,12.224C67.7,84.162,61.153,98.873,56.725,113.634A78.642,78.642,0,0,0,53.191,131c-1.235,18.871,9.468,38,26.2,46.826-.148,3.869,1.135,9.134,2.35,12.81a5.036,5.036,0,0,0,1.277,2.289,9.78,9.78,0,0,0,2.917,1.28c5.848,2.406,5.83,12.337,11.916,14.052,2.861.806,5.875-.683,8.841-.489,3.9.255,6.951,3.276,10.144,5.533,7.319,5.172,16.712,6.736,25.646,6.027s17.553-3.517,26.026-6.435a37.711,37.711,0,0,0,8.982-4.021,27.565,27.565,0,0,1,4.2-2.73c1.381-.6,2.9-.807,4.312-1.339,5.829-2.2,8.291-9.218,13.458-12.7,2.207-1.488,4.971-2.389,6.414-4.625,1.554-2.406,1.062-5.554,1.729-8.34,1.249-5.219,6.53-9.021,6.884-14.376.1-1.541-.228-3.09-.085-4.627.217-2.34,1.5-4.428,2.741-6.422,2.826-4.528,5.759-9.565,4.993-14.847C221.744,136.2,220.438,133.764,219.812,131.149Zm-6.674,16.227c-.363,5.1-5.436,6.24-6.608,9.777-.694,2.1,1.493,5.657.537,8.62-1.185,3.667-3.87,6.1-7.144,7.978,6.236,8.582-9.687,15.87-13.821,20.144-1.727,1.785-1.07,2.387-4.237,3.818-2,.906-4.864.647-6.645,1.753-4.9,3.042-3.554,6.251-10.9,7.06-9.468,1.042-18.335,3.314-28.2,4.207-6.514.59-10-3.19-15.287-4.881-6.461-2.066-10.305-2.437-12.653-10.468-3.755-.494-6.175,3.12-9.937,2.044-5.615-1.6-3.866-8.241-6.654-11.471-2.144-2.483-6.686-2.134-8.127-5.462-1-2.3.7-5.74,1.08-8a36.075,36.075,0,0,1-9.864-6.15c-14.858-13.156-15.121-37-7.167-55.182,13.191-30.152,46.6-50.154,79.406-47.542,12.744,1.015,25.76,5.495,34.267,15.039A37.523,37.523,0,0,1,189.6,95.167c.2.118.411.232.624.338,3.235,1.608,7.054.8,9.86,4,2.36,2.69.906,4.186,2.229,6.881,2.913,5.934,7.718,7.446,8.087,14.674.084,1.652-1.023,3.146-.5,4.829.329,1.062,2.182,1.023,2.558,2.284,1.065,3.573.487,3.953-.05,7.642C211.8,140.012,213.426,143.331,213.138,147.376Z" transform="translate(-297 -6)" fill="#8f5d47"/>
  </g>
</svg>
