<svg xmlns="http://www.w3.org/2000/svg" xmlns:xlink="http://www.w3.org/1999/xlink" width="149.668" height="138.954" viewBox="0 0 149.668 138.954">
  <defs>
    <linearGradient id="linear-gradient" x1="0.127" y1="0.93" x2="0.873" y2="0.07" gradientUnits="objectBoundingBox">
      <stop offset="0" stop-color="#f9d792"/>
      <stop offset="0.005" stop-color="#f9d690"/>
      <stop offset="0.126" stop-color="#fad178"/>
      <stop offset="0.262" stop-color="#fbcd64"/>
      <stop offset="0.42" stop-color="#fccb57"/>
      <stop offset="0.618" stop-color="#fcc94f"/>
      <stop offset="0.984" stop-color="#fdc94d"/>
    </linearGradient>
  </defs>
  <g id="Group_377" data-name="Group 377" transform="translate(211.592 -9.585)">
    <path id="Path_4" data-name="Path 4" d="M159.256,103.6a20.675,20.675,0,0,1,9.312,3.236,32.474,32.474,0,0,1,4.17,51.388,26.8,26.8,0,0,1-15.4,7.064,14.224,14.224,0,0,1-5.343-.431,10.782,10.782,0,0,1-6.9-13c1.457-4.695,6.079-7.948,7.3-12.709.816-3.176-.017-6.523-.977-9.659A69.2,69.2,0,0,1,148.628,119a16.784,16.784,0,0,1,1.535-10.559A9.725,9.725,0,0,1,159.256,103.6Z" transform="translate(-275 -55)" fill="#b1b1b1"/>
    <g id="Group_4" data-name="Group 4" transform="translate(-275 -55)" opacity="0.26">
      <path id="Path_5" data-name="Path 5" d="M158.42,108.963a.222.222,0,0,0,.268.3" fill="none" stroke="#fff" stroke-miterlimit="10" stroke-width="0.351"/>
      <path id="Path_6" data-name="Path 6" d="M165.833,112.756a27.917,27.917,0,0,1,9.476,33.5" fill="none" stroke="#fff" stroke-miterlimit="10" stroke-width="0.527"/>
    </g>
    <g id="Group_8" data-name="Group 8" transform="translate(-275 -55)">
      <g id="Group_6" data-name="Group 6">
        <path id="Path_7" data-name="Path 7" d="M93.952,124.108c8.257,12.181,24.945,26.625,40.761,20.741,7.978-2.968,15.326-8.538,21.528-14.281,6.027-5.581,10.246-11.963,9.543-20.479-.73-8.831-3.236-18.04-5.356-26.636-1.883-7.634-7.441-12.666-14.5-15.786A38.928,38.928,0,0,0,122.218,65.5c-7.337,1.539-17.55,5.17-21.56,11.979-1.195,2.03-1.8,4.063-3.538,5.749-1.44,1.4-3.256,2.34-4.652,3.805-2.809,2.947-3.775,6.792-4.145,10.742-.846,9.036.62,18.651,5.629,26.337,2.291,3.515,7.96.239,5.651-3.3a34.788,34.788,0,0,1-4.547-24.511c.84-4.332,3.756-5.769,6.691-8.444,3.106-2.83,3.709-7.251,7.117-9.72a38.666,38.666,0,0,1,24.392-6.962c8.7.578,18.579,4.961,20.862,14.023,1,3.965,1.724,8.021,2.58,12.02,1.007,4.705,2.624,9.718,2.644,14.554.035,8.787-7.9,14.945-14.417,19.708-8.207,6-16.295,10.682-26.282,5.93a48.131,48.131,0,0,1-19.04-16.6c-2.35-3.467-8.022-.2-5.651,3.3Z" fill="#f9d792"/>
      </g>
      <path id="Path_8" data-name="Path 8" d="M96.778,122.457a50.727,50.727,0,0,0,20.214,17.772c3.433,1.663,7.168,2.953,10.979,2.786,4.047-.178,7.841-1.975,11.35-4a81.687,81.687,0,0,0,15.242-11.349c3.26-3.079,6.366-6.606,7.522-10.938s.22-8.928-.719-13.319q-1.892-8.835-3.782-17.669a23.91,23.91,0,0,0-1.663-5.539,16.879,16.879,0,0,0-4.723-5.575,32.545,32.545,0,0,0-21.19-6.794,44.356,44.356,0,0,0-21.468,6.634,14.118,14.118,0,0,0-4.707,4.035c-1.055,1.6-1.521,3.526-2.607,5.1-1.766,2.559-4.912,3.832-6.9,6.22-2.326,2.792-2.748,6.671-2.879,10.3-.278,7.7.918,16.012,5.333,22.331" fill="#d85a1e"/>
      <g id="Group_7" data-name="Group 7">
        <path id="Path_9" data-name="Path 9" d="M96.307,122.732c7.573,11.173,23.107,24.956,37.682,19.487,7.513-2.818,14.476-8.163,20.324-13.579,5.557-5.146,9.381-10.7,8.744-18.551-.7-8.574-3.2-17.565-5.258-25.912-1.712-6.939-6.782-11.385-13.252-14.156a36.162,36.162,0,0,0-21.6-1.9c-6.6,1.384-16.3,4.573-19.931,10.725-1.312,2.221-2.033,4.463-3.964,6.3-1.456,1.385-3.27,2.325-4.652,3.805-2.272,2.434-3.036,5.575-3.346,8.814-.823,8.591.491,17.649,5.257,24.961.382.586,1.326.04.942-.55-4.818-7.392-6.635-17.894-4.822-26.612,1-4.834,4.106-6.623,7.392-9.647s3.85-7.459,7.669-10.146a41.556,41.556,0,0,1,25.768-7.334c9.9.635,20.9,5.731,23.491,16.024,1,3.965,1.724,8.022,2.58,12.02,1.058,4.941,2.724,10.2,2.741,15.279.034,9.9-8.408,16.7-15.767,22.063-4.063,2.96-8.6,6.066-13.414,7.649-5.455,1.794-10.571.7-15.62-1.72a50.959,50.959,0,0,1-20.018-17.576c-.392-.578-1.337-.033-.942.55Z" fill="#d85a1e"/>
      </g>
    </g>
    <path id="Path_10" data-name="Path 10" d="M103.745,126c-.123,2.519,1.475,4.8,3.305,6.541,5.208,4.94,12.722,7.023,19.881,6.506s13.984-3.433,19.986-7.371a13.375,13.375,0,0,0,4.253-3.895,5.307,5.307,0,0,0,.283-5.5,5.973,5.973,0,0,0,5.553-2.02,9.447,9.447,0,0,0,1.656-3.464c2.939-10.114-.9-20.822-4.7-30.648-1.289-3.343-2.725-6.878-5.643-8.956a9.232,9.232,0,0,0-3.419-1.5c-.921-.2-1.869-.252-2.785-.468a19.622,19.622,0,0,1-2.989-1.1c-7.27-3.035-15.775-4.14-22.953-.893a41.624,41.624,0,0,0-8.947,6.115c-3.52,2.886-7.123,5.869-9.338,9.846-3.274,5.881-3.039,13.035-2.306,19.726.723,6.6,3,12.913,8.16,17.09" transform="translate(-275 -55)" fill="#ef9a46" stroke="#ef9a46" stroke-miterlimit="10" stroke-width="0.218"/>
    <g id="Group_9" data-name="Group 9" transform="translate(-275 -55)">
      <path id="Path_11" data-name="Path 11" d="M127.93,128.751" fill="none" stroke="#f9d792" stroke-miterlimit="10" stroke-width="0.218"/>
      <path id="Path_12" data-name="Path 12" d="M116.532,124.583l.266-.118" fill="none" stroke="#f9d792" stroke-miterlimit="10" stroke-width="0.218"/>
      <path id="Path_13" data-name="Path 13" d="M128.583,120.187l-.266.118" fill="none" stroke="#f9d792" stroke-miterlimit="10" stroke-width="0.218"/>
      <path id="Path_14" data-name="Path 14" d="M127.789,111.948" fill="none" stroke="#f9d792" stroke-miterlimit="10" stroke-width="0.218"/>
      <path id="Path_15" data-name="Path 15" d="M113.793,107.66l.266-.117" fill="none" stroke="#f9d792" stroke-miterlimit="10" stroke-width="0.218"/>
      <path id="Path_16" data-name="Path 16" d="M120.089,92.455" fill="none" stroke="#f9d792" stroke-miterlimit="10" stroke-width="0.218"/>
      <path id="Path_17" data-name="Path 17" d="M108.269,111.7" fill="none" stroke="#f9d792" stroke-miterlimit="10" stroke-width="0.218"/>
      <path id="Path_18" data-name="Path 18" d="M108.77,114.982" fill="none" stroke="#f9d792" stroke-miterlimit="10" stroke-width="0.218"/>
      <path id="Path_19" data-name="Path 19" d="M106.562,97.824q.117.266.236.532" fill="none" stroke="#f9d792" stroke-miterlimit="10" stroke-width="0.218"/>
      <path id="Path_20" data-name="Path 20" d="M147.253,102.033l.118.266" fill="none" stroke="#f9d792" stroke-miterlimit="10" stroke-width="0.218"/>
      <path id="Path_21" data-name="Path 21" d="M144.41,121.434" fill="none" stroke="#f9d792" stroke-miterlimit="10" stroke-width="0.218"/>
      <path id="Path_22" data-name="Path 22" d="M141.343,111.658" fill="none" stroke="#f9d792" stroke-miterlimit="10" stroke-width="0.218"/>
      <path id="Path_23" data-name="Path 23" d="M152.8,108.8" fill="none" stroke="#f9d792" stroke-miterlimit="10" stroke-width="0.218"/>
      <path id="Path_24" data-name="Path 24" d="M148.469,89.72" fill="none" stroke="#f9d792" stroke-miterlimit="10" stroke-width="0.218"/>
      <path id="Path_25" data-name="Path 25" d="M135.685,81.712l.118.266" fill="none" stroke="#f9d792" stroke-miterlimit="10" stroke-width="0.218"/>
      <path id="Path_26" data-name="Path 26" d="M121.481,81.972" fill="none" stroke="#f9d792" stroke-miterlimit="10" stroke-width="0.218"/>
      <path id="Path_27" data-name="Path 27" d="M134.113,98.957c-.039-.088-.079-.177-.118-.266" fill="none" stroke="#f9d792" stroke-miterlimit="10" stroke-width="0.218"/>
    </g>
    <g id="Group_13" data-name="Group 13" transform="translate(-275 -55)">
      <g id="Group_11" data-name="Group 11">
        <path id="Path_28" data-name="Path 28" d="M192.688,121.613c-2.965-14.6-13.072-33.839-29.955-34.429-8.705-.3-18.06,2.192-26.092,5.358-7.184,2.831-12.869,6.925-15.458,14.461-2.9,8.439-4.053,18.176-5.4,26.986-1.183,7.744,1.94,14.486,7.219,20.086a38.521,38.521,0,0,0,20.659,11.088c7.357,1.411,17.883,2.13,24.415-2.262,2.169-1.458,3.531-3.433,6.08-4.345,1.994-.713,4.076-.973,6.012-1.88,3.491-1.635,5.852-4.667,7.6-8.025,4.358-8.348,6.615-17.69,4.914-27.038-.754-4.137-7.061-2.384-6.31,1.74,1.421,7.808-.85,19.214-6.35,25.352-2.656,2.965-6.489,2.761-9.848,4.385a21.765,21.765,0,0,0-4.221,3.065,13.152,13.152,0,0,1-7.5,3.041c-8.365,1-17.131-.218-24.427-4.588a28.11,28.11,0,0,1-9.563-9.281c-2.71-4.427-2.61-8.236-1.71-13.281.74-4.151,1.547-8.29,2.32-12.435.79-4.233,1.252-8.935,3.225-12.827,3.652-7.2,13.449-9.523,20.7-11.252,10.1-2.409,18.976-3.273,26.4,5.079a48.454,48.454,0,0,1,10.97,22.742c.837,4.124,7.146,2.378,6.31-1.74Z" fill="#f9d792"/>
      </g>
      <path id="Path_29" data-name="Path 29" d="M189.533,122.483A50.74,50.74,0,0,0,177.721,98.3c-2.528-2.857-5.478-5.485-9.06-6.8-3.8-1.4-8-1.2-12.014-.68a81.622,81.622,0,0,0-18.438,4.6c-4.193,1.585-8.418,3.645-11.153,7.2s-3.641,8.154-4.465,12.568l-3.315,17.763a23.932,23.932,0,0,0-.6,5.752,16.857,16.857,0,0,0,2.212,6.964A32.548,32.548,0,0,0,137.83,160.1a44.353,44.353,0,0,0,22.367,2.145,14.125,14.125,0,0,0,5.9-1.911c1.588-1.066,2.762-2.669,4.37-3.7,2.615-1.682,6.009-1.645,8.765-3.083,3.222-1.681,5.105-5.1,6.624-8.4,3.223-7,5.32-15.131,3.679-22.663" fill="#d85a1e"/>
      <g id="Group_12" data-name="Group 12">
        <path id="Path_30" data-name="Path 30" d="M190.058,122.338c-2.694-13.264-11.765-31.884-27.325-32.427-8.483-.3-17.548,2.174-25.367,5.26-6.26,2.471-11.281,6-13.554,12.557-2.911,8.4-4.1,18.2-5.4,26.986-.991,6.726,1.958,12.6,6.518,17.433a36.086,36.086,0,0,0,19.456,10.386c6.48,1.253,16.2,2.02,22.038-1.773,2.558-1.661,3.961-3.773,7.007-4.833,1.767-.615,3.644-.83,5.361-1.606,3.112-1.4,5.081-4.086,6.627-7.046,4-7.654,6.2-16.35,4.638-24.937-.125-.689-1.176-.4-1.051.29,1.609,8.838-.87,21.072-7.051,28-2.915,3.27-6.758,3.1-10.4,4.812a19.289,19.289,0,0,0-3.669,2.638,16.865,16.865,0,0,1-9.424,3.84c-8.851,1-18.087-.339-25.8-4.961A30.927,30.927,0,0,1,122.118,146.7c-3.1-5.089-3.008-9.62-1.984-15.382,1.461-8.226,1.938-18.435,5.82-25.913,4.1-7.893,14.284-10.587,22.326-12.5,11.019-2.628,20.933-3.319,29.056,5.78a51,51,0,0,1,11.671,23.945c.139.687,1.191.4,1.051-.29Z" fill="#d85a1e"/>
      </g>
    </g>
    <path id="Path_31" data-name="Path 31" d="M184.466,116.532c1.084-2.277.489-5-.531-7.309-2.9-6.564-9.036-11.38-15.843-13.661s-14.228-2.216-21.283-.893a13.38,13.38,0,0,0-5.424,1.957A5.306,5.306,0,0,0,139,101.6a5.978,5.978,0,0,0-5.9-.274,9.475,9.475,0,0,0-2.862,2.559c-6.607,8.2-7.183,19.565-7.467,30.094-.1,3.581-.134,7.4,1.759,10.438a9.241,9.241,0,0,0,2.575,2.706c.775.536,1.628.952,2.391,1.5a19.581,19.581,0,0,1,2.335,2.165c5.541,5.6,12.965,9.9,20.839,9.663a41.637,41.637,0,0,0,10.612-2.2c4.36-1.307,8.834-2.673,12.409-5.491,5.287-4.166,7.825-10.859,9.725-17.317,1.873-6.367,2.2-13.073-.95-18.914" transform="translate(-275 -55)" fill="#ef9a46" stroke="#ef9a46" stroke-miterlimit="10" stroke-width="0.218"/>
    <g id="Group_14" data-name="Group 14" transform="translate(-275 -55)">
      <path id="Path_32" data-name="Path 32" d="M163.207,104.678" fill="none" stroke="#f9d792" stroke-miterlimit="10" stroke-width="0.218"/>
      <path id="Path_33" data-name="Path 33" d="M172.12,112.914l-.291.007" fill="none" stroke="#f9d792" stroke-miterlimit="10" stroke-width="0.218"/>
      <path id="Path_34" data-name="Path 34" d="M159.306,112.33l.291-.006" fill="none" stroke="#f9d792" stroke-miterlimit="10" stroke-width="0.218"/>
      <path id="Path_35" data-name="Path 35" d="M156.866,120.24" fill="none" stroke="#f9d792" stroke-miterlimit="10" stroke-width="0.218"/>
      <path id="Path_36" data-name="Path 36" d="M168.132,129.586l-.291.007" fill="none" stroke="#f9d792" stroke-miterlimit="10" stroke-width="0.218"/>
      <path id="Path_37" data-name="Path 37" d="M156.466,141.2" fill="none" stroke="#f9d792" stroke-miterlimit="10" stroke-width="0.218"/>
      <path id="Path_38" data-name="Path 38" d="M174.787,127.982" fill="none" stroke="#f9d792" stroke-miterlimit="10" stroke-width="0.218"/>
      <path id="Path_39" data-name="Path 39" d="M175.587,124.764" fill="none" stroke="#f9d792" stroke-miterlimit="10" stroke-width="0.218"/>
      <path id="Path_40" data-name="Path 40" d="M171.017,141.449l-.013-.582" fill="none" stroke="#f9d792" stroke-miterlimit="10" stroke-width="0.218"/>
      <path id="Path_41" data-name="Path 41" d="M135.085,121.894l-.006-.29" fill="none" stroke="#f9d792" stroke-miterlimit="10" stroke-width="0.218"/>
      <path id="Path_42" data-name="Path 42" d="M145.179,105.085" fill="none" stroke="#f9d792" stroke-miterlimit="10" stroke-width="0.218"/>
      <path id="Path_43" data-name="Path 43" d="M144.245,115.288" fill="none" stroke="#f9d792" stroke-miterlimit="10" stroke-width="0.218"/>
      <path id="Path_44" data-name="Path 44" d="M132.569,113.515" fill="none" stroke="#f9d792" stroke-miterlimit="10" stroke-width="0.218"/>
      <path id="Path_45" data-name="Path 45" d="M129.221,132.79" fill="none" stroke="#f9d792" stroke-miterlimit="10" stroke-width="0.218"/>
      <path id="Path_46" data-name="Path 46" d="M137.935,145.1l-.006-.291" fill="none" stroke="#f9d792" stroke-miterlimit="10" stroke-width="0.218"/>
      <path id="Path_47" data-name="Path 47" d="M151.144,150.333" fill="none" stroke="#f9d792" stroke-miterlimit="10" stroke-width="0.218"/>
      <path id="Path_48" data-name="Path 48" d="M146.027,129.793l.006.291" fill="none" stroke="#f9d792" stroke-miterlimit="10" stroke-width="0.218"/>
    </g>
    <g id="Group_18" data-name="Group 18" transform="translate(-275 -55)">
      <g id="Group_16" data-name="Group 16">
        <path id="Path_49" data-name="Path 49" d="M170.635,97.852c-14.778,2.063-34.531,11.031-36.045,27.9-.813,9.071,1.207,19.274,4.249,27.8,2.418,6.773,6.323,12.032,13.132,14.77,8.281,3.33,17.866,5.269,26.6,7.078,7.917,1.641,15.076-1.475,21.022-6.645a38.772,38.772,0,0,0,11.9-20.332c1.626-6.89,2.883-16.859-.853-23.3-1.163-2-2.92-3.473-3.782-5.649-.9-2.285-.907-4.81-1.839-7.1-1.373-3.382-4.072-5.785-7.084-7.717-7.693-4.935-17.273-7.992-26.427-6.912-4.131.487-4.181,7.037,0,6.544a34.923,34.923,0,0,1,24.275,6.783c3.821,2.953,3.373,6.39,4.829,10.575,1.16,3.336,4.29,5.49,5.146,8.9,4.051,16.136-7.882,42.375-27.33,38.089-7.709-1.7-15.906-3.363-23.314-6.086-9.163-3.367-11.374-13.468-12.937-22.119-1.723-9.529-2.526-19.017,5.493-25.794,6.984-5.9,15.733-9.212,24.708-10.465,4.153-.58,2.386-6.886-1.739-6.31Z" fill="#f9d792"/>
      </g>
      <path id="Path_50" data-name="Path 50" d="M171.5,101.007a50.725,50.725,0,0,0-24.877,10.274c-3.01,2.344-5.818,5.124-7.353,8.616-1.631,3.709-1.7,7.906-1.431,11.949a81.586,81.586,0,0,0,3.441,18.689c1.32,4.285,3.11,8.63,6.485,11.582s7.91,4.145,12.264,5.244l17.521,4.42a23.936,23.936,0,0,0,5.7.956,16.865,16.865,0,0,0,7.089-1.771,32.549,32.549,0,0,0,15.462-16,44.348,44.348,0,0,0,3.541-22.189,14.105,14.105,0,0,0-1.538-6.005c-.964-1.652-2.491-2.924-3.423-4.594-1.515-2.715-1.265-6.1-2.528-8.941-1.476-3.321-4.768-5.414-7.968-7.137-6.787-3.655-14.768-6.256-22.388-5.09" fill="#d85a1e"/>
      <g id="Group_17" data-name="Group 17">
        <path id="Path_51" data-name="Path 51" d="M171.359,100.481c-13.39,1.87-32.55,9.749-34.042,25.268-.848,8.822,1.2,18.792,4.151,27.07,2.087,5.844,5.386,10.422,11.228,12.866,8.2,3.429,17.915,5.254,26.6,7.078,6.885,1.446,13.213-1.46,18.369-5.944a36.262,36.262,0,0,0,11.2-19.129c1.481-6.274,2.7-15.289-.577-21.2-1.185-2.137-2.991-3.664-3.919-5.976-.961-2.392-.905-5.073-1.977-7.429A14.726,14.726,0,0,0,196.555,107c-7.341-4.709-16.318-7.57-25.051-6.539-.688.081-.7,1.172,0,1.09,8.8-1.038,18.483,1.942,25.651,7.156,4.814,3.5,4.187,7.266,6.082,12.2,1.276,3.326,4.233,5.344,5.146,8.9,4.686,18.251-9.154,46.216-30.684,41.442-7.722-1.712-15.878-3.4-23.314-6.086-10.275-3.716-13.074-14.255-14.842-24.023-1.9-10.477-2.588-20.951,6.2-28.447a50.539,50.539,0,0,1,25.911-11.166c.692-.1.4-1.148-.29-1.052Z" fill="#d85a1e"/>
      </g>
    </g>
    <path id="Path_52" data-name="Path 52" d="M165.248,105.691c-2.205-1.224-4.963-.8-7.328.072-6.734,2.488-11.924,8.306-14.626,14.957s-3.1,14.061-2.225,21.185a13.4,13.4,0,0,0,1.614,5.536,5.308,5.308,0,0,0,4.813,2.689,5.973,5.973,0,0,0-.644,5.873,9.469,9.469,0,0,0,2.375,3.017c7.773,7.108,19.077,8.395,29.567,9.338,3.568.32,7.374.6,10.528-1.1a9.236,9.236,0,0,0,2.862-2.4c.583-.739,1.052-1.565,1.651-2.291a19.485,19.485,0,0,1,2.307-2.2c5.936-5.178,10.688-12.319,10.948-20.192a41.616,41.616,0,0,0-1.528-10.729c-1.033-4.433-2.116-8.984-4.7-12.729-3.827-5.537-10.348-8.489-16.674-10.79-6.237-2.268-12.909-3.016-18.936-.236" transform="translate(-275 -55)" fill="#ef9a46" stroke="#ef9a46" stroke-miterlimit="10" stroke-width="0.218"/>
    <g id="Group_19" data-name="Group 19" transform="translate(-275 -55)">
      <path id="Path_53" data-name="Path 53" d="M152.086,126.166" fill="none" stroke="#f9d792" stroke-miterlimit="10" stroke-width="0.218"/>
      <path id="Path_54" data-name="Path 54" d="M160.864,117.787l-.012.29" fill="none" stroke="#f9d792" stroke-miterlimit="10" stroke-width="0.218"/>
      <path id="Path_55" data-name="Path 55" d="M159.479,130.538l.011-.29" fill="none" stroke="#f9d792" stroke-miterlimit="10" stroke-width="0.218"/>
      <path id="Path_56" data-name="Path 56" d="M167.22,133.469" fill="none" stroke="#f9d792" stroke-miterlimit="10" stroke-width="0.218"/>
      <path id="Path_57" data-name="Path 57" d="M177.253,122.811l-.011.29" fill="none" stroke="#f9d792" stroke-miterlimit="10" stroke-width="0.218"/>
      <path id="Path_58" data-name="Path 58" d="M188.109,135.18" fill="none" stroke="#f9d792" stroke-miterlimit="10" stroke-width="0.218"/>
      <path id="Path_59" data-name="Path 59" d="M176.069,116.068" fill="none" stroke="#f9d792" stroke-miterlimit="10" stroke-width="0.218"/>
      <path id="Path_60" data-name="Path 60" d="M172.907,115.068" fill="none" stroke="#f9d792" stroke-miterlimit="10" stroke-width="0.218"/>
      <path id="Path_61" data-name="Path 61" d="M189.273,120.673l-.581-.023" fill="none" stroke="#f9d792" stroke-miterlimit="10" stroke-width="0.218"/>
      <path id="Path_62" data-name="Path 62" d="M167.508,155.311l-.291-.012" fill="none" stroke="#f9d792" stroke-miterlimit="10" stroke-width="0.218"/>
      <path id="Path_63" data-name="Path 63" d="M151.363,144.184" fill="none" stroke="#f9d792" stroke-miterlimit="10" stroke-width="0.218"/>
      <path id="Path_64" data-name="Path 64" d="M161.488,145.755" fill="none" stroke="#f9d792" stroke-miterlimit="10" stroke-width="0.218"/>
      <path id="Path_65" data-name="Path 65" d="M158.987,157.3" fill="none" stroke="#f9d792" stroke-miterlimit="10" stroke-width="0.218"/>
      <path id="Path_66" data-name="Path 66" d="M178.015,161.845" fill="none" stroke="#f9d792" stroke-miterlimit="10" stroke-width="0.218"/>
      <path id="Path_67" data-name="Path 67" d="M190.849,153.919l-.29-.011" fill="none" stroke="#f9d792" stroke-miterlimit="10" stroke-width="0.218"/>
      <path id="Path_68" data-name="Path 68" d="M196.9,141.064" fill="none" stroke="#f9d792" stroke-miterlimit="10" stroke-width="0.218"/>
      <path id="Path_69" data-name="Path 69" d="M176.076,144.885l.291.012" fill="none" stroke="#f9d792" stroke-miterlimit="10" stroke-width="0.218"/>
    </g>
    <g id="Group_23" data-name="Group 23" transform="translate(-275 -55)">
      <g id="Group_21" data-name="Group 21">
        <path id="Path_70" data-name="Path 70" d="M206.444,108.726c-2.56-14.242-11.994-33.65-28.359-34.978-9.138-.742-19.312,1.767-27.775,5-7.292,2.786-12.679,7.068-15.265,14.614-2.891,8.436-4.653,18.282-5.9,27.1-1.075,7.575,2.371,14.384,7.494,19.819A38.75,38.75,0,0,0,157.4,151.418c7.207,1.4,17.457,2.272,23.833-2.114,2.035-1.4,3.51-3.227,5.947-4.009,2.144-.689,4.317-.887,6.374-1.887,3.354-1.629,5.66-4.542,7.429-7.753,4.55-8.257,6.955-17.548,5.465-26.929-.659-4.147-6.966-2.386-6.31,1.74,1.228,7.728-1.328,19.312-6.991,25.183-2.773,2.876-6.555,2.582-9.956,4.147-3.48,1.6-5.515,4.717-9.438,5.506-16.2,3.257-41.722-6.875-37.594-26.837,1.62-7.83,2.507-16.6,5.44-24.074,3.375-8.606,13.8-10.945,21.94-12.683,4.661-1,9.762-1.966,14.55-1.416,4.977.571,8.49,3.468,11.627,7.172a48.639,48.639,0,0,1,10.422,23c.744,4.138,7.051,2.385,6.31-1.74Z" fill="#f9d792"/>
      </g>
      <path id="Path_71" data-name="Path 71" d="M203.289,109.6a50.732,50.732,0,0,0-11.264-24.445c-2.463-2.914-5.353-5.608-8.9-7-3.771-1.48-7.968-1.376-12-.95a81.655,81.655,0,0,0-18.537,4.188c-4.228,1.49-8.5,3.454-11.312,6.944s-3.825,8.071-4.748,12.465l-3.713,17.684a23.884,23.884,0,0,0-.727,5.737,16.879,16.879,0,0,0,2.054,7.012,32.548,32.548,0,0,0,16.61,14.808,44.357,44.357,0,0,0,22.313,2.648A14.12,14.12,0,0,0,179,146.907c1.612-1.029,2.822-2.606,4.453-3.6,2.652-1.623,6.044-1.509,8.833-2.885,3.258-1.608,5.218-4.982,6.811-8.248,3.38-6.928,5.659-15.006,4.188-22.574" fill="#d85a1e"/>
      <g id="Group_22" data-name="Group 22">
        <path id="Path_72" data-name="Path 72" d="M203.815,109.451c-2.33-12.959-10.7-31.582-25.73-32.977-8.859-.822-18.871,1.76-27.051,4.9-6.354,2.441-11.1,6.121-13.36,12.709a99.532,99.532,0,0,0-2.786,11.87c-1.058,5.038-2.466,10.128-3.118,15.234-.838,6.56,2.382,12.486,6.793,17.166a36.261,36.261,0,0,0,19.557,10.433c6.464,1.254,16.027,2.175,21.732-1.84,2.218-1.56,3.9-3.433,6.6-4.284,2.017-.636,4.126-.8,6.049-1.748,2.8-1.386,4.656-3.973,6.125-6.638,4.166-7.561,6.559-16.212,5.19-24.828-.11-.691-1.161-.4-1.052.29,1.4,8.817-1.352,21.1-7.692,27.836-3.082,3.276-6.784,2.969-10.508,4.574s-5.861,4.879-10.089,5.78c-18.365,3.913-45.508-8.138-40.948-30.191,1.628-7.868,2.576-16.533,5.44-24.074,3.7-9.736,14.591-12.61,23.845-14.587,4.923-1.053,10.218-2.02,15.274-1.514,5.758.576,9.912,3.692,13.555,7.971a51.07,51.07,0,0,1,11.123,24.2c.124.69,1.175.4,1.052-.29Z" fill="#d85a1e"/>
      </g>
    </g>
    <path id="Path_73" data-name="Path 73" d="M198.357,103.533c1.135-2.252.6-4.991-.366-7.319-2.755-6.629-8.777-11.582-15.531-14.015s-14.174-2.536-21.257-1.373a13.411,13.411,0,0,0-5.467,1.834,5.308,5.308,0,0,0-2.494,4.917,5.974,5.974,0,0,0-5.894-.407,9.48,9.48,0,0,0-2.919,2.494c-6.791,8.052-7.623,19.4-8.144,29.918-.177,3.578-.3,7.392,1.524,10.475a9.222,9.222,0,0,0,2.514,2.763c.762.554,1.606.988,2.356,1.558a19.523,19.523,0,0,1,2.285,2.217c5.413,5.724,12.739,10.185,20.616,10.13a41.645,41.645,0,0,0,10.659-1.958c4.388-1.209,8.892-2.474,12.53-5.21,5.379-4.046,8.067-10.681,10.112-17.094,2.016-6.323,2.5-13.02-.524-18.93" transform="translate(-275 -55)" fill="#ef9a46" stroke="#ef9a46" stroke-miterlimit="10" stroke-width="0.218"/>
    <g id="Group_24" data-name="Group 24" transform="translate(-275 -55)">
      <path id="Path_74" data-name="Path 74" d="M177.371,91.2" fill="none" stroke="#f9d792" stroke-miterlimit="10" stroke-width="0.218"/>
      <path id="Path_75" data-name="Path 75" d="M186.1,99.638H185.8" fill="none" stroke="#f9d792" stroke-miterlimit="10" stroke-width="0.218"/>
      <path id="Path_76" data-name="Path 76" d="M173.3,98.765h.291" fill="none" stroke="#f9d792" stroke-miterlimit="10" stroke-width="0.218"/>
      <path id="Path_77" data-name="Path 77" d="M170.681,106.618" fill="none" stroke="#f9d792" stroke-miterlimit="10" stroke-width="0.218"/>
      <path id="Path_78" data-name="Path 78" d="M181.733,116.215h-.29" fill="none" stroke="#f9d792" stroke-miterlimit="10" stroke-width="0.218"/>
      <path id="Path_79" data-name="Path 79" d="M169.809,127.558" fill="none" stroke="#f9d792" stroke-miterlimit="10" stroke-width="0.218"/>
      <path id="Path_80" data-name="Path 80" d="M188.423,114.761" fill="none" stroke="#f9d792" stroke-miterlimit="10" stroke-width="0.218"/>
      <path id="Path_81" data-name="Path 81" d="M189.295,111.562" fill="none" stroke="#f9d792" stroke-miterlimit="10" stroke-width="0.218"/>
      <path id="Path_82" data-name="Path 82" d="M184.351,128.14v-.582" fill="none" stroke="#f9d792" stroke-miterlimit="10" stroke-width="0.218"/>
      <path id="Path_83" data-name="Path 83" d="M148.868,107.781v-.291" fill="none" stroke="#f9d792" stroke-miterlimit="10" stroke-width="0.218"/>
      <path id="Path_84" data-name="Path 84" d="M159.339,91.2" fill="none" stroke="#f9d792" stroke-miterlimit="10" stroke-width="0.218"/>
      <path id="Path_85" data-name="Path 85" d="M158.175,101.383" fill="none" stroke="#f9d792" stroke-miterlimit="10" stroke-width="0.218"/>
      <path id="Path_86" data-name="Path 86" d="M146.542,99.347" fill="none" stroke="#f9d792" stroke-miterlimit="10" stroke-width="0.218"/>
      <path id="Path_87" data-name="Path 87" d="M142.761,118.542" fill="none" stroke="#f9d792" stroke-miterlimit="10" stroke-width="0.218"/>
      <path id="Path_88" data-name="Path 88" d="M151.2,131.048v-.291" fill="none" stroke="#f9d792" stroke-miterlimit="10" stroke-width="0.218"/>
      <path id="Path_89" data-name="Path 89" d="M164.283,136.574" fill="none" stroke="#f9d792" stroke-miterlimit="10" stroke-width="0.218"/>
      <path id="Path_90" data-name="Path 90" d="M159.63,115.925v.29" fill="none" stroke="#f9d792" stroke-miterlimit="10" stroke-width="0.218"/>
    </g>
    <g id="Group_26" data-name="Group 26" transform="translate(-275 -55)">
      <path id="Path_91" data-name="Path 91" d="M181.857,103.194c-9.639-3.107-14.458-3.107-24.1,0a2.512,2.512,0,0,0-1.334,1.234c-3.5,8.267-3.5,12.4,0,20.666a2.5,2.5,0,0,0,1.334,1.234c9.638,3.107,14.457,3.107,24.1,0a2.5,2.5,0,0,0,1.333-1.234c3.5-8.266,3.5-12.4,0-20.666A2.51,2.51,0,0,0,181.857,103.194Z" fill="#fdc94d"/>
    </g>
    <g id="Group_27" data-name="Group 27" transform="translate(-275 -55)">
      <path id="Path_92" data-name="Path 92" d="M155.738,124.741c9.639,3.108,14.458,3.108,24.1,0a2.508,2.508,0,0,0,1.334-1.234c3.5-8.266,3.5-12.4,0-20.665a2.508,2.508,0,0,0-1.334-1.234c-9.638-3.107-14.457-3.108-24.1,0a2.508,2.508,0,0,0-1.334,1.234c-3.5,8.266-3.5,12.4,0,20.665A2.508,2.508,0,0,0,155.738,124.741Z" fill="url(#linear-gradient)"/>
    </g>
    <path id="Path_93" data-name="Path 93" d="M177.917,103.908c-4.906-2.547-10.83-2.312-16.274-1.348a7.244,7.244,0,0,0-4.42,1.984,6.886,6.886,0,0,0-1.273,3,29.585,29.585,0,0,0-.388,11.015,8.165,8.165,0,0,0,1.591,4.176,3.418,3.418,0,0,0,4.058,1.015,4.4,4.4,0,0,0,1.568-1.784c.629-1.119,1.114-2.313,1.723-3.444a17.929,17.929,0,0,1,5.981-6.5c1.9-1.235,4.031-2.1,5.849-3.458a5.755,5.755,0,0,0,1.818-2C178.549,105.748,178.883,104.41,177.917,103.908Z" transform="translate(-275 -55)" fill="#fcc237" stroke="#fcc237" stroke-miterlimit="10" stroke-width="0.161"/>
    <path id="Path_94" data-name="Path 94" d="M157.59,107.7a22.555,22.555,0,0,0,1.043,11.968" transform="translate(-275 -55)" fill="none" stroke="#fff" stroke-miterlimit="10" stroke-width="0.218"/>
    <path id="Path_95" data-name="Path 95" d="M118.979,151.76a1.348,1.348,0,0,1,.224-.38,1.256,1.256,0,0,1,.19-1.317,14.961,14.961,0,0,1,14.228-4.754c3.255.522,7.378,1.733,9.758,4.324a1.477,1.477,0,0,1,1.587,1.01c2.567,7.865-2.245,18.439-9.8,22.052a1.011,1.011,0,0,1-.782.527c-4.422.287-9.007-4.907-11.463-8.121C120.311,161.681,117.309,156.12,118.979,151.76Z" transform="translate(-275 -55)" fill="#a3040e"/>
    <path id="Path_96" data-name="Path 96" d="M118.979,151.76a1.348,1.348,0,0,1,.224-.38,1.256,1.256,0,0,1,.19-1.317,14.961,14.961,0,0,1,14.228-4.754c3.255.522,7.378,1.733,9.758,4.324a1.577,1.577,0,0,1,.417.021,15.334,15.334,0,0,1-1.489.734,29.391,29.391,0,0,1-8.751,1.848,42.938,42.938,0,0,1-6.783.172,24.126,24.126,0,0,0,1.882,11.294,36.5,36.5,0,0,0,5.995,9.454.821.821,0,0,1-.263.066c-4.422.287-9.007-4.907-11.463-8.121C120.311,161.681,117.309,156.12,118.979,151.76Z" transform="translate(-275 -55)" fill="#a3040e" style="mix-blend-mode: screen;isolation: isolate"/>
    <path id="Path_97" data-name="Path 97" d="M137.191,149.728a23.424,23.424,0,0,0,3.118-1.166,4.673,4.673,0,0,0,2.035-1.482,1.849,1.849,0,0,0-.106-2.336,2.155,2.155,0,0,0-2.743.349c-.756.671-1.265,1.594-2.059,2.218a4.175,4.175,0,0,0,.837-4.233,6.3,6.3,0,0,0-2.951-3.326,1.092,1.092,0,0,0-1.018-.161,1.068,1.068,0,0,0-.434.761c-.457,2.131.1,4.333.655,6.44a13.767,13.767,0,0,0-6.6-9.18,1.186,1.186,0,0,0-.735-.217c-.581.086-.718.858-.668,1.443a11.606,11.606,0,0,0,3.1,6.906c.5-.061.208-.857-.21-1.144a10.5,10.5,0,0,0-7.552-1.685,16.448,16.448,0,0,0,14.72,6.141Z" transform="translate(-275 -55)" fill="#008d36" stroke="#008d36" stroke-miterlimit="10" stroke-width="0.206"/>
    <path id="Path_98" data-name="Path 98" d="M141.174,155.34a5.262,5.262,0,0,1-.521,3.665.107.107,0,0,1-.024.032" transform="translate(-275 -55)" fill="none" stroke="#fff" stroke-miterlimit="10" stroke-width="0.206"/>
    <g id="Group_29" data-name="Group 29" transform="translate(-275 -55)">
      <path id="Path_99" data-name="Path 99" d="M135.671,149.376q.518-.3,1.012-.642a3.22,3.22,0,0,0,1.486-1.793,1.008,1.008,0,0,0-.425-1.143,1.175,1.175,0,0,0-1.268.461,7.3,7.3,0,0,0-.856,1.256q-.427.729-.854,1.46" fill="none" stroke="#063" stroke-miterlimit="10" stroke-width="0.301"/>
      <path id="Path_100" data-name="Path 100" d="M134.789,148.585a11.5,11.5,0,0,0-.2-3.782,3.12,3.12,0,0,0-.365-1,1.288,1.288,0,0,0-.843-.613.367.367,0,0,0-.227.021.444.444,0,0,0-.183.325,6.756,6.756,0,0,0,1.826,6.06" fill="none" stroke="#063" stroke-miterlimit="10" stroke-width="0.301"/>
      <path id="Path_101" data-name="Path 101" d="M133.44,148.976a5.536,5.536,0,0,0-4.648-3.791,1.253,1.253,0,0,0-1.122.043.847.847,0,0,0-.032,1.141,2.445,2.445,0,0,0,1.057.668,12.124,12.124,0,0,0,5.6,1.266" fill="none" stroke="#063" stroke-miterlimit="10" stroke-width="0.301"/>
    </g>
    <path id="Path_102" data-name="Path 102" d="M157.121,184.363a1.355,1.355,0,0,1,.024.44,1.257,1.257,0,0,1,.572,1.2,14.96,14.96,0,0,1-9.215,11.838c-3,1.368-7.1,2.643-10.519,1.8a1.477,1.477,0,0,1-1.881.038c-6.493-5.127-8.342-16.6-4.055-23.788a1.014,1.014,0,0,1,.359-.872c3.523-2.687,10.217-.9,14.043.415C150.518,176.84,156.1,179.808,157.121,184.363Z" transform="translate(-275 -55)" fill="#a3040e"/>
    <path id="Path_103" data-name="Path 103" d="M157.121,184.363a1.355,1.355,0,0,1,.024.44,1.257,1.257,0,0,1,.572,1.2,14.96,14.96,0,0,1-9.215,11.838c-3,1.368-7.1,2.643-10.519,1.8a1.6,1.6,0,0,1-.359.213,15.372,15.372,0,0,1,.833-1.436,29.414,29.414,0,0,1,6.263-6.385,42.864,42.864,0,0,1,5.553-3.9,24.122,24.122,0,0,0-7.822-8.362,36.484,36.484,0,0,0-10.227-4.551.86.86,0,0,1,.182-.2c3.523-2.687,10.217-.9,14.043.415C150.518,176.84,156.1,179.808,157.121,184.363Z" transform="translate(-275 -55)" fill="#a3040e" style="mix-blend-mode: screen;isolation: isolate"/>
    <path id="Path_104" data-name="Path 104" d="M143.083,196.141a23.255,23.255,0,0,0-1.951,2.7,4.693,4.693,0,0,0-.874,2.361,1.848,1.848,0,0,0,1.382,1.886c1,.149,1.832-.833,2.091-1.809s.17-2.027.486-2.987a4.175,4.175,0,0,0,1.647,3.988,6.306,6.306,0,0,0,4.3,1.135,1.088,1.088,0,0,0,.937-.429,1.068,1.068,0,0,0-.06-.874c-.8-2.028-2.483-3.553-4.112-5a13.77,13.77,0,0,0,10.583,3.988,1.194,1.194,0,0,0,.732-.226c.435-.393.122-1.113-.243-1.571a11.6,11.6,0,0,0-6.4-4.037c-.386.329.3.829.808.836a10.51,10.51,0,0,0,7.222-2.779,16.45,16.45,0,0,0-15.658,3.038Z" transform="translate(-275 -55)" fill="#008d36" stroke="#008d36" stroke-miterlimit="10" stroke-width="0.206"/>
    <path id="Path_105" data-name="Path 105" d="M136.658,193.674a5.274,5.274,0,0,1-1.6-3.34.189.189,0,0,1,0-.041" transform="translate(-275 -55)" fill="none" stroke="#fff" stroke-miterlimit="10" stroke-width="0.206"/>
    <g id="Group_31" data-name="Group 31" transform="translate(-275 -55)">
      <path id="Path_106" data-name="Path 106" d="M144.543,195.591q-.264.538-.487,1.1a3.219,3.219,0,0,0-.244,2.316,1.009,1.009,0,0,0,.986.717c.477-.073.729-.609.8-1.086a7.362,7.362,0,0,0,.018-1.521q-.05-.843-.1-1.688" fill="none" stroke="#063" stroke-miterlimit="10" stroke-width="0.301"/>
      <path id="Path_107" data-name="Path 107" d="M145.716,195.763a11.527,11.527,0,0,0,2.26,3.038,3.166,3.166,0,0,0,.86.634,1.291,1.291,0,0,0,1.041.043.368.368,0,0,0,.179-.143.441.441,0,0,0-.029-.372,6.753,6.753,0,0,0-4.876-4.035" fill="none" stroke="#063" stroke-miterlimit="10" stroke-width="0.301"/>
      <path id="Path_108" data-name="Path 108" d="M146.622,194.689a5.536,5.536,0,0,0,5.97.583c.371-.119.793-.286.911-.657a.846.846,0,0,0-.606-.967,2.435,2.435,0,0,0-1.25.028,12.1,12.1,0,0,0-5.367,2.05" fill="none" stroke="#063" stroke-miterlimit="10" stroke-width="0.301"/>
    </g>
    <path id="Path_109" data-name="Path 109" d="M106.309,189.762a1.343,1.343,0,0,1-.415-.149,1.256,1.256,0,0,1-1.33.064,14.96,14.96,0,0,1-7.364-13.07c-.1-3.295.3-7.573,2.4-10.4a1.478,1.478,0,0,1,.692-1.749c7.236-4.011,18.53-1.29,23.509,5.441a1.016,1.016,0,0,1,.666.668c1.119,4.287-3.112,9.774-5.8,12.794C115.8,186.574,110.906,190.575,106.309,189.762Z" transform="translate(-275 -55)" fill="#a3040e"/>
    <path id="Path_110" data-name="Path 110" d="M106.309,189.762a1.343,1.343,0,0,1-.415-.149,1.256,1.256,0,0,1-1.33.064,14.96,14.96,0,0,1-7.364-13.07c-.1-3.295.3-7.573,2.4-10.4a1.589,1.589,0,0,1-.057-.413,15.588,15.588,0,0,1,1,1.323,29.424,29.424,0,0,1,3.472,8.243,42.92,42.92,0,0,1,1.454,6.627A24.117,24.117,0,0,0,116.2,178a36.487,36.487,0,0,0,8.147-7.678.862.862,0,0,1,.115.246c1.119,4.287-3.112,9.774-5.8,12.794C115.8,186.574,110.906,190.575,106.309,189.762Z" transform="translate(-275 -55)" fill="#a3040e" style="mix-blend-mode: screen;isolation: isolate"/>
    <path id="Path_111" data-name="Path 111" d="M100.862,172.265a23.214,23.214,0,0,0-1.735-2.841,4.668,4.668,0,0,0-1.841-1.717,1.847,1.847,0,0,0-2.273.547,2.153,2.153,0,0,0,.863,2.626c.8.616,1.8.94,2.567,1.6a4.176,4.176,0,0,0-4.315-.02,6.3,6.3,0,0,0-2.706,3.528,1.092,1.092,0,0,0,.034,1.03,1.07,1.07,0,0,0,.83.282c2.178.045,4.235-.92,6.2-1.863a13.767,13.767,0,0,0-7.763,8.223,1.189,1.189,0,0,0-.073.763c.194.553.978.542,1.543.382a11.6,11.6,0,0,0,6.194-4.348c-.155-.483-.88-.042-1.083.423a10.507,10.507,0,0,0-.223,7.735A16.452,16.452,0,0,0,100.32,173Z" transform="translate(-275 -55)" fill="#008d36" stroke="#008d36" stroke-miterlimit="10" stroke-width="0.206"/>
    <path id="Path_112" data-name="Path 112" d="M105.618,167.29a5.27,5.27,0,0,1,3.7-.183.127.127,0,0,1,.037.018" transform="translate(-275 -55)" fill="none" stroke="#fff" stroke-miterlimit="10" stroke-width="0.206"/>
    <g id="Group_33" data-name="Group 33" transform="translate(-275 -55)">
      <path id="Path_113" data-name="Path 113" d="M100.806,173.824q-.395-.452-.823-.872a3.221,3.221,0,0,0-2.042-1.12,1.009,1.009,0,0,0-1.042.634c-.117.468.28.907.693,1.158a7.32,7.32,0,0,0,1.395.6l1.6.561" fill="none" stroke="#063" stroke-miterlimit="10" stroke-width="0.301"/>
      <path id="Path_114" data-name="Path 114" d="M100.195,174.84a11.477,11.477,0,0,0-3.675.913,3.108,3.108,0,0,0-.917.548,1.288,1.288,0,0,0-.441.944.368.368,0,0,0,.063.22.443.443,0,0,0,.354.117,6.755,6.755,0,0,0,5.6-2.941" fill="none" stroke="#063" stroke-miterlimit="10" stroke-width="0.301"/>
      <path id="Path_115" data-name="Path 115" d="M100.835,176.09a5.539,5.539,0,0,0-2.841,5.282,1.252,1.252,0,0,0,.255,1.094.846.846,0,0,0,1.125-.185,2.436,2.436,0,0,0,.456-1.164,12.1,12.1,0,0,0,.181-5.743" fill="none" stroke="#063" stroke-miterlimit="10" stroke-width="0.301"/>
    </g>
    <path id="Path_116" data-name="Path 116" d="M175.967,185.888a1.338,1.338,0,0,0,.35-.269,1.256,1.256,0,0,0,1.285-.347,14.958,14.958,0,0,0,3-14.7c-.911-3.168-2.612-7.115-5.471-9.165a1.477,1.477,0,0,0-1.2-1.453c-8.116-1.6-18.032,4.457-20.706,12.391a1.011,1.011,0,0,0-.429.84c.25,4.424,5.96,8.347,9.448,10.4C165.958,185.764,171.841,188.073,175.967,185.888Z" transform="translate(-275 -55)" fill="#a3040e"/>
    <path id="Path_117" data-name="Path 117" d="M175.967,185.888a1.338,1.338,0,0,0,.35-.269,1.256,1.256,0,0,0,1.285-.347,14.958,14.958,0,0,0,3-14.7c-.911-3.168-2.612-7.115-5.471-9.165a1.554,1.554,0,0,0-.071-.41,15.07,15.07,0,0,0-.549,1.566,29.4,29.4,0,0,0-.777,8.911,42.909,42.909,0,0,0,.649,6.754,24.134,24.134,0,0,1-11.439-.5,36.509,36.509,0,0,1-10.109-4.809.859.859,0,0,0-.034.27c.25,4.424,5.96,8.347,9.448,10.4C165.958,185.764,171.841,188.073,175.967,185.888Z" transform="translate(-275 -55)" fill="#a3040e" style="mix-blend-mode: screen;isolation: isolate"/>
    <path id="Path_118" data-name="Path 118" d="M175.784,167.564a23.175,23.175,0,0,1,.78-3.236,4.678,4.678,0,0,1,1.225-2.2,1.849,1.849,0,0,1,2.332-.177,2.155,2.155,0,0,1-.015,2.765c-.575.831-1.429,1.448-1.953,2.312a4.175,4.175,0,0,1,4.1-1.343,6.31,6.31,0,0,1,3.658,2.527,1.09,1.09,0,0,1,.283.991,1.067,1.067,0,0,1-.7.523c-2.06.712-4.313.424-6.472.129a13.766,13.766,0,0,1,9.911,5.445,1.189,1.189,0,0,1,.3.7c-.015.587-.765.817-1.351.838a11.6,11.6,0,0,1-7.23-2.238c0-.507.826-.31,1.161.07a10.51,10.51,0,0,1,2.585,7.293,16.452,16.452,0,0,1-7.875-13.87Z" transform="translate(-275 -55)" fill="#008d36" stroke="#008d36" stroke-miterlimit="10" stroke-width="0.206"/>
    <path id="Path_119" data-name="Path 119" d="M169.732,164.288a5.269,5.269,0,0,0-3.576.96.128.128,0,0,0-.029.028" transform="translate(-275 -55)" fill="none" stroke="#fff" stroke-miterlimit="10" stroke-width="0.206"/>
    <g id="Group_35" data-name="Group 35" transform="translate(-275 -55)">
      <path id="Path_120" data-name="Path 120" d="M176.316,169.031q.237-.552.516-1.083a3.218,3.218,0,0,1,1.6-1.692,1.009,1.009,0,0,1,1.186.284,1.177,1.177,0,0,1-.3,1.314,7.285,7.285,0,0,1-1.144,1l-1.346,1.024" fill="none" stroke="#063" stroke-miterlimit="10" stroke-width="0.301"/>
      <path id="Path_121" data-name="Path 121" d="M177.209,169.81a11.514,11.514,0,0,1,3.778-.258,3.112,3.112,0,0,1,1.041.24,1.29,1.29,0,0,1,.709.763.367.367,0,0,1,.008.229.441.441,0,0,1-.3.22,6.754,6.754,0,0,1-6.237-1.08" fill="none" stroke="#063" stroke-miterlimit="10" stroke-width="0.301"/>
      <path id="Path_122" data-name="Path 122" d="M176.983,171.2a5.533,5.533,0,0,1,4.325,4.155,1.256,1.256,0,0,1,.093,1.12.848.848,0,0,1-1.129.169,2.437,2.437,0,0,1-.79-.968,12.1,12.1,0,0,1-1.934-5.41" fill="none" stroke="#063" stroke-miterlimit="10" stroke-width="0.301"/>
    </g>
    <circle id="Ellipse_5" data-name="Ellipse 5" cx="23.06" cy="23.06" r="23.06" transform="translate(-211.592 103.169) rotate(-75.845)" fill="#a3040e"/>
    <g id="Group_38" data-name="Group 38" transform="translate(-275 -55)">
      <path id="Path_123" data-name="Path 123" d="M91.64,121.575a19.572,19.572,0,0,1,16.968,9.642,20.2,20.2,0,0,1-6.808,27.7,19.074,19.074,0,0,1-9.738,2.69,20.543,20.543,0,0,1-17.483-10.15,19.829,19.829,0,0,1-2.32-14.969,19.384,19.384,0,0,1,9.033-12.046,20.258,20.258,0,0,1,10.348-2.869m0-3.049a23.236,23.236,0,0,0-11.907,3.3,22.506,22.506,0,0,0-7.775,31.2,23.547,23.547,0,0,0,20.1,11.64,21.99,21.99,0,0,0,11.3-3.119,23.335,23.335,0,0,0,7.869-31.881A22.69,22.69,0,0,0,91.64,118.526Z" fill="#b1b1b1"/>
      <path id="Path_124" data-name="Path 124" d="M91.367,118.415a22.878,22.878,0,0,0-11.733,3.242h0l-.017.009h0l-.016.01h0A22.994,22.994,0,0,0,69.28,135h0l0,.016h0l0,.017h0l-.005.016h0l0,.017h0l-.005.016h0l0,.016h0l0,.017h0l-.005.016h0l0,.017h0l0,.016h0l0,.016h0l0,.015h0l0,.016h0l0,.015v0l0,.015h0l0,.015v0l0,.015v0l0,.015v0l0,.014v0l0,.015v0l0,.014v0l0,.014v0l0,.015v0l0,.014v0l0,.014v0l0,.015v0l0,.014v0l0,.014v0l0,.013v0l0,.014v0l0,.014v0l0,.013v0l0,.014v0l0,.014v0l0,.013v0l0,.013v0l0,.014v0l0,.013v0l0,.013v0l0,.014v0l0,.013v0l0,.013v0l0,.013v0l0,.012,0,0,0,.012v0l0,.012v0l0,.012a22.955,22.955,0,0,0,2.524,17.455h0l.006.011,0,0,0,.007,0,0,0,.006,0,0,0,.006,0,0,0,.007,0,0,0,.006,0,0,.005.008v0l.007.01v0l.005.008v0l0,.008,0,0,0,.007,0,0,0,.007,0,0,0,.006,0,0,0,.007,0,0,0,.01h0l.006.01,0,.005,0,.005,0,0,0,.006,0,0,0,.006,0,0,0,.006,0,0,0,.007,0,0,.005.007,0,0,.006.01v0l.005.008,0,0,0,.007,0,0,0,.006,0,0,0,.006,0,0,0,.006,0,0,0,.007v0l0,.008,0,0,.006.01,0,0,0,.007,0,0,0,.006,0,0,0,.007,0,0,0,.007,0,0,0,.007,0,0,0,.007,0,0,.006.01h0l.006.01,0,0,0,.007,0,0,0,.006,0,0,0,.006,0,0,.005.007,0,0,0,.007,0,0,.005.008v0l.013.02,0,0,0,.007,0,0,0,.006,0,0,0,.007,0,0,0,.007,0,0,0,.008v0l.013.02h0l.006.01h0l0,.009v0l0,.008,0,0,.005.008v0l.006.008v0l.006.01h0l.013.021h0L72,153.9v0l.005.008,0,0,0,.007,0,0,0,.007,0,0,0,.008v0l.006.009h0l.013.021h0l.006.009h0l.006.009,0,0,0,.008v0l.006.009h0l.007.01h0l.02.031h0l.006.009v0l0,.008v0l.006.008v0l.006.009h0l.027.041h0l.006.009v0l.006.008v0l.006.008v0l.007.009h0l.021.031h0l.006.009v0l.006.008v0l0,.008,0,0,.006.008h0l.028.041h0l.006.01v0l.006.008v0l.006.008v0l.006.009h0l.021.03h0l.007.01h0l.006.009,0,0,.005.008v0l.006.008v0l.027.04h0l.006.009h0l.006.008v0l.006.008h0l.006.009h0l.027.04h0l.006.009v0l.006.008v0l.006.008v0l.006.008v0l.021.03h0l.006.009,0,0,0,.007v0l.006.009h0l.006.009h0l.007.01h0l.021.03h0l.006.009h0l.006.009h0l.006.009h0l.006.009h0l.022.031h0l.007.009v0l.006.008,0,0,.006.009h0l.007.01h0l.007.01h0l.022.03h0l.007.01h0l.007.009h0l.007.009h0l.007.009h0l.028.039h0l.007.009h0l.007.009h0l.006.009h0l.05.069h0l.043.059h0l.006.009h0l.007.008h0l.044.059h0l.007.009h0l.007.009h0l.03.039h0l.007.009h0l.007.009h0l.007.009h0l.044.059h0l.007.009h0l.044.058h0l.007.009h0l.007.01h0l.045.058h0l.007.009h0l.007.01h0l.044.058h0l.006.009h0l.052.068h0l.053.068h0l.007.009h0l.045.057h0l.008.01h0l.007.009h0l.045.057h0l.008.009h0l.007.008v0l.007.009h0l.038.048h0l.008.009h0l.007.009h0l.045.056h0l.007.009h0l.008.009h0l.046.057h0l.062.075h0l.046.057h0l.008.009h0l.062.075h0l.008.01h0l.047.056h0l.063.074h0l.008.008h0l.047.055h0l.008.009h0q.206.24.417.474h0l.065.072h0a23.773,23.773,0,0,0,14.7,7.573l.365-3.028a20.72,20.72,0,0,1-15.247-9.894,20.008,20.008,0,0,1,17.155-30.213v-3.049Zm0,0v3.049a19.925,19.925,0,0,1,4.323.476l.662-2.977q-.753-.167-1.517-.284h0l-.135-.02h0l-.136-.02h0l-.193-.026h0l-.011,0h0L94.3,118.6h-.023l-.045-.006h-.024l-.011,0h0l-.034,0h-.023l-.045,0h0l-.01,0h-.012l-.045,0h0l-.011,0h-.012l-.045,0h0l-.01,0h-.024l-.033,0h-.023l-.045,0h-.035l-.034,0h-.023l-.045-.005h-.035l-.033,0h-.035l-.033,0h-.035l-.023,0H93.45l-.033,0h-.036l-.032,0h-.036l-.033,0h-.035l-.034,0h-.035l-.033,0H92.9l-.022,0H91.367Z" fill="#868686"/>
      <g id="Group_37" data-name="Group 37" style="mix-blend-mode: multiply;isolation: isolate">
        <path id="Path_125" data-name="Path 125" d="M112.02,141.012s-.015.493-.044,1.417a22.427,22.427,0,0,1-.66,4.016,21.322,21.322,0,0,1-2.522,5.773,21.047,21.047,0,0,1-5.6,5.939c-.3.226-.631.418-.951.632l-.243.157-.14.088-.126.068-.506.27-1.027.549c-.351.177-.743.316-1.119.478a20.073,20.073,0,0,1-15.544-.059,18.427,18.427,0,0,1-4.951-2.921,19.432,19.432,0,0,1-4.027-4.308,20.241,20.241,0,0,1-3.7-11.337,20.574,20.574,0,0,1,3.357-11.449,21.055,21.055,0,0,1,19.422-9.251,19.983,19.983,0,0,1,9.142,3.086,19.876,19.876,0,0,1,5.85,5.689,18.789,18.789,0,0,1,2.659,5.712,20,20,0,0,1,.685,4c.059.937.047,1.438.047,1.438Zm-.609-.01s0-.486-.07-1.392a17.456,17.456,0,0,0-.749-3.851,16.861,16.861,0,0,0-8.776-10.06,18.953,18.953,0,0,0-4.018-1.363,18.828,18.828,0,0,0-6.654.028c-.37.062-.736.183-1.1.269a7.67,7.67,0,0,0-1.087.32,18.162,18.162,0,0,0-3.908,1.891c-.329.2-.755.508-1.13.759l-.582.4-.072.049c.07-.037-.209.12.148-.078l-.027.023-.107.093-.215.185a9.93,9.93,0,0,0-.831.757,9.638,9.638,0,0,0-.771.808,17.6,17.6,0,0,0-2.529,3.567,17.154,17.154,0,0,0-1.978,8.291,16.775,16.775,0,0,0,2.261,8.212l.261.482.313.443c.2.3.382.624.6.912a18.753,18.753,0,0,0,1.43,1.661,17.413,17.413,0,0,0,1.608,1.532,18.312,18.312,0,0,0,1.846,1.254,17.233,17.233,0,0,0,8.538,2.517,18.625,18.625,0,0,0,4.327-.485c.339-.1.656-.145,1.017-.275l1.09-.428.538-.211.133-.053c.027-.013-.114.066-.04.026l.029-.014.059-.029.237-.115c.312-.156.637-.293.936-.464a17.089,17.089,0,0,0,5.758-5.01,18.164,18.164,0,0,0,2.717-5.4,19.3,19.3,0,0,0,.726-3.849l.07-1.413Z" fill="#a3040e"/>
      </g>
      <path id="Path_126" data-name="Path 126" d="M91.367,118.415a23,23,0,0,1,19.79,11.285c6.512,10.945,3.19,25.4-7.756,31.911a22.447,22.447,0,0,1-11.523,3.156,23.694,23.694,0,0,1-20.287-11.531,23.059,23.059,0,0,1,19.776-34.821m0-4.574A27.621,27.621,0,0,0,67.66,155.575,28.3,28.3,0,0,0,91.878,169.34a27.122,27.122,0,0,0,13.862-3.8c13.058-7.768,17.251-24.9,9.348-38.181a27.741,27.741,0,0,0-23.721-13.52Z" fill="#d9d9d9"/>
    </g>
    <path id="Path_127" data-name="Path 127" d="M98.765,134.993a6.546,6.546,0,0,0-3.111-4.11,13.857,13.857,0,0,0-11.833-1.57,11.655,11.655,0,0,0-4.981,3.162,11.948,11.948,0,0,0-1.932,11.965,17.416,17.416,0,0,0,8.531,9.072c2.769,1.426,6.2,2.238,8.946.776a7.443,7.443,0,0,0,3.574-4.955,11.845,11.845,0,0,0-.446-6.211,7.526,7.526,0,0,0-2.777-4.153c-1.9-1.231-4.364-.97-6.606-.664" transform="translate(-275 -55)" fill="none" stroke="#bd1622" stroke-miterlimit="10" stroke-width="0.762" opacity="0.75" style="mix-blend-mode: screen;isolation: isolate"/>
    <g id="Group_39" data-name="Group 39" transform="translate(-275 -55)" style="mix-blend-mode: multiply;isolation: isolate">
      <path id="Path_128" data-name="Path 128" d="M86.555,130.7" fill="none" stroke="#bd1622" stroke-miterlimit="10" stroke-width="0.381"/>
      <path id="Path_129" data-name="Path 129" d="M78.533,143.307l-.219.13" fill="none" stroke="#bd1622" stroke-miterlimit="10" stroke-width="0.381"/>
      <path id="Path_130" data-name="Path 130" d="M100.291,140.121l-.218.13" fill="none" stroke="#bd1622" stroke-miterlimit="10" stroke-width="0.381"/>
      <path id="Path_131" data-name="Path 131" d="M100.374,129.575l-.109.065" fill="none" stroke="#bd1622" stroke-miterlimit="10" stroke-width="0.381"/>
      <path id="Path_132" data-name="Path 132" d="M90.972,149.8" fill="none" stroke="#bd1622" stroke-miterlimit="10" stroke-width="0.381"/>
      <path id="Path_133" data-name="Path 133" d="M84.149,156.228" fill="none" stroke="#bd1622" stroke-miterlimit="10" stroke-width="0.381"/>
      <path id="Path_134" data-name="Path 134" d="M99.715,154.064l-.109.065" fill="none" stroke="#bd1622" stroke-miterlimit="10" stroke-width="0.381"/>
    </g>
    <g id="Group_40" data-name="Group 40" transform="translate(-275 -55)">
      <path id="Path_135" data-name="Path 135" d="M79.6,138.309" fill="none" stroke="#000" stroke-miterlimit="10" stroke-width="0.381"/>
      <path id="Path_136" data-name="Path 136" d="M82.841,152.9l-.063.247" fill="none" stroke="#000" stroke-miterlimit="10" stroke-width="0.381"/>
      <path id="Path_137" data-name="Path 137" d="M95.973,135.258l-.062.246" fill="none" stroke="#000" stroke-miterlimit="10" stroke-width="0.381"/>
      <path id="Path_138" data-name="Path 138" d="M88.575,127.742l-.031.123" fill="none" stroke="#000" stroke-miterlimit="10" stroke-width="0.381"/>
      <path id="Path_139" data-name="Path 139" d="M96.23,148.7" fill="none" stroke="#000" stroke-miterlimit="10" stroke-width="0.381"/>
      <path id="Path_140" data-name="Path 140" d="M95.949,158.061" fill="none" stroke="#000" stroke-miterlimit="10" stroke-width="0.381"/>
      <path id="Path_141" data-name="Path 141" d="M105.425,145.525l-.031.123" fill="none" stroke="#000" stroke-miterlimit="10" stroke-width="0.381"/>
    </g>
    <g id="Group_41" data-name="Group 41" transform="translate(-275 -55)">
      <path id="Path_142" data-name="Path 142" d="M94.363,131.529c-1.672-5.876-2-12.1-3.138-18.13s-3.278-12.173-7.643-16.029c-.585-.517-1.453-.985-2.028-.455a1.918,1.918,0,0,0-.457,1.053c-1.183,5.865,0,11.958,1.173,17.825q1.7,8.5,3.409,17Z" fill="#9c9b9b" stroke="#9c9b9b" stroke-miterlimit="10" stroke-width="0.363"/>
      <path id="Path_143" data-name="Path 143" d="M83.088,99.551c3.159,2.418,5.249,6.24,6.464,10.255A64.862,64.862,0,0,1,91.6,122.275a3.812,3.812,0,0,1-.083,1.667,1.082,1.082,0,0,1-1.2.8,1.564,1.564,0,0,1-.719-.637c-4.035-5.512-5.273-12.811-6.38-19.781a17.214,17.214,0,0,1-.313-4.563" fill="#d9d9d9" stroke="#d9d9d9" stroke-miterlimit="10" stroke-width="0.145"/>
    </g>
    <path id="Path_144" data-name="Path 144" d="M146.967,170.611l.254-.254" transform="translate(-275 -55)" fill="none" stroke="#941b80" stroke-miterlimit="10" stroke-width="1.525"/>
    <path id="Path_145" data-name="Path 145" d="M125.622,179.759" transform="translate(-275 -55)" fill="none" stroke="#941b80" stroke-miterlimit="10" stroke-width="1.525"/>
    <path id="Path_146" data-name="Path 146" d="M128.417,195.006v-.254" transform="translate(-275 -55)" fill="none" stroke="#941b80" stroke-miterlimit="10" stroke-width="1.525"/>
    <path id="Path_147" data-name="Path 147" d="M119.75,163.511l.258.506" transform="translate(-275 -55)" fill="none" stroke="#941b80" stroke-miterlimit="10" stroke-width="1.525"/>
    <path id="Path_148" data-name="Path 148" d="M166.025,187.129v.254" transform="translate(-275 -55)" fill="none" stroke="#941b80" stroke-miterlimit="10" stroke-width="1.525"/>
  </g>
</svg>
