<svg xmlns="http://www.w3.org/2000/svg" width="69.924" height="104.023" viewBox="0 0 69.924 104.023">
  <g id="Group_267" data-name="Group 267" transform="translate(-973.744 -605.116)">
    <g id="Group_266" data-name="Group 266">
      <path id="Path_105" data-name="Path 105" d="M1037.954,418.2l-3.358-1.847,12.005-21.827a4.38,4.38,0,0,0,.344-3.39l-4.615-14.886,3.66-1.135L1050.6,390a8.224,8.224,0,0,1-.646,6.37Z" transform="translate(-19 230)" fill="#574553"/>
      <path id="Path_106" data-name="Path 106" d="M1020.774,400.033l1.6-1.7a5.68,5.68,0,0,1,6.875-1.086L1057,412.513a5.68,5.68,0,0,1,2.831,6.1l-.525,2.615Z" transform="translate(-19 230)" fill="#b8c9d2"/>
      <path id="Path_107" data-name="Path 107" d="M1020.774,400.033l-28.031,64.111,27.264,14.995,39.3-57.916Z" transform="translate(-19 230)" fill="#fc3945"/>
      <path id="Path_108" data-name="Path 108" d="M1059.907,422.832,1018.929,400.3a1.864,1.864,0,0,1-.734-2.531h0a1.862,1.862,0,0,1,2.53-.735l40.978,22.538a1.863,1.863,0,0,1,.734,2.53h0A1.863,1.863,0,0,1,1059.907,422.832Z" transform="translate(-19 230)" fill="#d5d9dc"/>
      <path id="Path_109" data-name="Path 109" d="M1057.027,424.635l-37.89-20.941,1.1-2.681,38.529,21.19Z" transform="translate(-19 230)" fill="#c82938"/>
      <path id="Path_110" data-name="Path 110" d="M1057.746,423.628l-19.279-10.142-32.01,58.2,13.55,7.452Z" transform="translate(-19 230)" fill="#c82938"/>
      <circle id="Ellipse_1" data-name="Ellipse 1" cx="10.201" cy="10.201" r="10.201" transform="matrix(0.813, -0.582, 0.582, 0.813, 991.005, 666.809)" fill="#fcfcfc"/>
    </g>
  </g>
</svg>
