<svg xmlns="http://www.w3.org/2000/svg" width="127.033" height="103.733" viewBox="0 0 127.033 103.733">
  <g id="Group_245" data-name="Group 245" transform="translate(-180.977 -135.248)">
    <g id="Group_244" data-name="Group 244">
      <path id="Path_591" data-name="Path 591" d="M219.254,220.153c.642,1.908,6.889-1.8,10.024-3.534-2.256,2.117-11.282,7.867-9.978,9.583,1.628,2.142,9.469-5.816,11.945-8.071-2.673,2.9-7.641,8.6-6.517,9.815,1.55.674,6.468-6.791,9.177-10.61,1.326-1.869,2.584-3.784,3.815-5.716.712-1.117,1.765-3.9,3.217-4.2.1-.136.188-.275.284-.411l.332-.471a148.064,148.064,0,0,0-19.413,10.517C220.924,217.838,218.793,218.783,219.254,220.153Z" fill="#6faa2e"/>
      <path id="Path_592" data-name="Path 592" d="M242.962,225.824a14.653,14.653,0,0,0,1.554,5.365.8.8,0,0,0,.422.4c.458.128.729-.5.78-.971a32.209,32.209,0,0,0-.977-11.978c.559,2.442,2.817,10.31,5.088,9.252,1.918-.893-1.411-7.3-2.268-9.237,1.606,1.517,4.087,4.639,5.4,3.735,1.825-1.257-2.928-6.06-4.837-8.826-.81-1.174-1.779-2.223-2.61-3.378-.492-.685-1.177-2.51-1.964-2.825-1.442-.578-2.028.684-2.282,2.218.118,2.007.247,4.033.394,6.05C241.913,219.051,242.439,222.44,242.962,225.824Z" fill="#6faa2e"/>
      <path id="Path_593" data-name="Path 593" d="M227.016,237.99c2.323.565,5.126-7.19,6.7-11.346-.9,4.05-2.986,12.473-1.638,12.326,1.553.309,3.036-6.143,3.535-9.516-.055,2.191-.1,6.675.742,6.509,1.375-.15,1.6-2.785,1.916-4.374q1.808-9.086,2.743-18.316c.068-.669.024-2.292.256-3.689-.043-.733-.09-1.472-.129-2.195a1.26,1.26,0,0,0-.2.032,116.382,116.382,0,0,0-10.874,19.059C228.418,230.129,225.189,237.146,227.016,237.99Z" fill="#6faa2e"/>
      <path id="Path_594" data-name="Path 594" d="M274.735,141.567c-1.146-2.18-2.456-4.252-4.858-5.079-5.344-1.84-9.206,1.724-9.744,6.989a10.244,10.244,0,0,0,.947,5.229c-6.907-.154-10.92,9.32-6.965,14.588,3.827,5.1,13.884,5.179,16.671-1.128,4.875,2.728,10.334,2.437,12.826-3.142,2.065-4.623,1.03-10.709-4.045-12.812a7.573,7.573,0,0,0-3.49-.49A15.958,15.958,0,0,0,274.735,141.567Zm-1.142,4.591a2.523,2.523,0,0,0,2.661,2.08,5.089,5.089,0,0,1,5.334,3.355,8.417,8.417,0,0,1-.279,6.4,7.856,7.856,0,0,1-.518.976c-2.549,4.052-7.36,1.786-8.774.994a2.523,2.523,0,0,0-3.366.858,2.387,2.387,0,0,0-.172.324,5.1,5.1,0,0,1-.343.646h0a6.442,6.442,0,0,1-5.372,2.692,7.982,7.982,0,0,1-6.632-2.707c-1.662-2.215-1.158-5.557.2-7.715a5.622,5.622,0,0,1,4.693-2.837,2.519,2.519,0,0,0,2.161-1.131l.03-.047a2.52,2.52,0,0,0,.162-2.385,7.714,7.714,0,0,1-.734-3.931,7.5,7.5,0,0,1,1.032-3.213c.826-1.312,2.431-2.664,5.382-1.648,1.443.5,2.357,1.8,3.447,3.869A13.361,13.361,0,0,1,273.593,146.158Z" fill="#acbbbe" opacity="0.5" style="mix-blend-mode: multiply;isolation: isolate"/>
      <path id="Path_595" data-name="Path 595" d="M273.985,140.817c-1.146-2.18-2.456-4.252-4.858-5.079-5.344-1.84-9.206,1.724-9.744,6.989a10.244,10.244,0,0,0,.947,5.229c-6.907-.154-10.92,9.32-6.965,14.588,3.827,5.1,13.884,5.179,16.671-1.128,4.875,2.728,10.334,2.437,12.826-3.142,2.065-4.623,1.03-10.709-4.045-12.812a7.573,7.573,0,0,0-3.49-.49A15.958,15.958,0,0,0,273.985,140.817Zm-1.142,4.591a2.523,2.523,0,0,0,2.661,2.08,5.089,5.089,0,0,1,5.334,3.355,8.417,8.417,0,0,1-.279,6.4,7.856,7.856,0,0,1-.518.976c-2.549,4.052-7.36,1.786-8.774.994a2.523,2.523,0,0,0-3.366.858,2.387,2.387,0,0,0-.172.324,5.1,5.1,0,0,1-.343.646h0a6.442,6.442,0,0,1-5.372,2.692,7.982,7.982,0,0,1-6.632-2.707c-1.662-2.215-1.158-5.557.2-7.715a5.622,5.622,0,0,1,4.693-2.837,2.519,2.519,0,0,0,2.161-1.131l.03-.047a2.52,2.52,0,0,0,.162-2.385,7.714,7.714,0,0,1-.734-3.931,7.5,7.5,0,0,1,1.032-3.213c.826-1.312,2.431-2.664,5.382-1.648,1.443.5,2.357,1.8,3.447,3.869A13.361,13.361,0,0,1,272.843,145.408Z" fill="#5c7811"/>
      <path id="Path_596" data-name="Path 596" d="M264.062,210.874c-.172-2.457-.538-4.881-2.4-6.6-4.152-3.834-9.122-2.124-11.732,2.48a10.252,10.252,0,0,0-1.236,5.168c-6.262-2.919-13.746,4.142-12.244,10.555,1.454,6.206,10.628,10.326,15.717,5.672,3.367,4.459,8.481,6.387,13.007,2.282,3.75-3.4,5.25-9.39,1.449-13.357a7.59,7.59,0,0,0-3-1.852A15.968,15.968,0,0,0,264.062,210.874Zm-2.892,3.744a2.521,2.521,0,0,0,1.6,2.974,5.092,5.092,0,0,1,3.534,5.218,8.417,8.417,0,0,1-2.83,5.749,7.887,7.887,0,0,1-.866.685c-3.964,2.685-7.458-1.325-8.434-2.618a2.522,2.522,0,0,0-3.427-.569,2.588,2.588,0,0,0-.288.227,4.964,4.964,0,0,1-.573.454h0a6.445,6.445,0,0,1-6,.3A7.98,7.98,0,0,1,238.9,221.9c-.632-2.7,1.174-5.554,3.285-6.983a5.619,5.619,0,0,1,5.437-.71,2.52,2.52,0,0,0,2.433-.167l.047-.031a2.521,2.521,0,0,0,1.108-2.118,7.707,7.707,0,0,1,.908-3.894,7.492,7.492,0,0,1,2.237-2.527c1.284-.87,3.3-1.462,5.591.656,1.12,1.035,1.435,2.591,1.6,4.928A13.385,13.385,0,0,1,261.17,214.618Z" fill="#acbbbe" opacity="0.5" style="mix-blend-mode: multiply;isolation: isolate"/>
      <path id="Path_597" data-name="Path 597" d="M263.677,209.886c-.172-2.457-.538-4.881-2.4-6.6-4.152-3.834-9.122-2.124-11.732,2.479a10.258,10.258,0,0,0-1.236,5.169c-6.262-2.919-13.746,4.142-12.244,10.555,1.454,6.206,10.628,10.326,15.717,5.672,3.366,4.459,8.481,6.387,13.007,2.281,3.749-3.4,5.25-9.389,1.449-13.356a7.589,7.589,0,0,0-3-1.853A15.959,15.959,0,0,0,263.677,209.886Zm-2.892,3.743a2.522,2.522,0,0,0,1.6,2.975,5.092,5.092,0,0,1,3.534,5.218,8.415,8.415,0,0,1-2.83,5.748,7.9,7.9,0,0,1-.866.686c-3.964,2.684-7.458-1.325-8.434-2.619a2.521,2.521,0,0,0-3.427-.568,2.583,2.583,0,0,0-.288.227,4.934,4.934,0,0,1-.573.453h0a6.443,6.443,0,0,1-6,.3,7.982,7.982,0,0,1-4.983-5.145c-.631-2.7,1.175-5.554,3.285-6.983a5.621,5.621,0,0,1,5.438-.71,2.523,2.523,0,0,0,2.433-.167l.047-.031a2.519,2.519,0,0,0,1.107-2.118,7.722,7.722,0,0,1,.909-3.895,7.478,7.478,0,0,1,2.237-2.526c1.284-.87,3.3-1.462,5.591.655,1.12,1.036,1.435,2.591,1.6,4.929A13.373,13.373,0,0,1,260.785,213.629Z" fill="#5c7811"/>
      <path id="Path_598" data-name="Path 598" d="M263,148.8c.34-2.439.484-4.887-.985-6.959-3.27-4.61-8.486-3.966-11.992,0a10.247,10.247,0,0,0-2.279,4.8c-5.522-4.152-14.306,1.207-14.163,7.792.138,6.373,8.261,12.3,14.2,8.8,2.371,5.059,6.976,8,12.254,4.924,4.372-2.552,7.079-8.1,4.182-12.767a7.585,7.585,0,0,0-2.55-2.433A16,16,0,0,0,263,148.8Zm-3.6,3.064a2.522,2.522,0,0,0,.949,3.241,5.09,5.09,0,0,1,2.379,5.836,8.415,8.415,0,0,1-3.959,5.039,8.045,8.045,0,0,1-.99.491c-4.433,1.806-7.021-2.84-7.708-4.307a2.524,2.524,0,0,0-3.235-1.266,2.455,2.455,0,0,0-.329.163,4.986,4.986,0,0,1-.655.325h0a6.444,6.444,0,0,1-5.935-.944,7.981,7.981,0,0,1-3.81-6.065c-.06-2.769,2.3-5.191,4.659-6.153a5.623,5.623,0,0,1,5.467.431,2.52,2.52,0,0,0,2.415.341l.052-.021a2.52,2.52,0,0,0,1.522-1.843,7.715,7.715,0,0,1,1.695-3.622,7.49,7.49,0,0,1,2.711-2.009c1.437-.585,3.529-.748,5.335,1.8.882,1.245.868,2.832.544,5.153A13.369,13.369,0,0,1,259.4,151.869Z" fill="#acbbbe" opacity="0.5" style="mix-blend-mode: multiply;isolation: isolate"/>
      <path id="Path_599" data-name="Path 599" d="M262.253,148.055c.34-2.439.484-4.887-.985-6.959-3.27-4.61-8.486-3.966-11.992,0A10.247,10.247,0,0,0,247,145.9c-5.522-4.152-14.306,1.207-14.163,7.792.138,6.373,8.261,12.3,14.2,8.8,2.371,5.059,6.976,8,12.254,4.924,4.372-2.552,7.079-8.1,4.182-12.767a7.585,7.585,0,0,0-2.55-2.433A16,16,0,0,0,262.253,148.055Zm-3.6,3.064a2.522,2.522,0,0,0,.949,3.241,5.09,5.09,0,0,1,2.379,5.836,8.415,8.415,0,0,1-3.959,5.039,8.045,8.045,0,0,1-.99.491c-4.433,1.806-7.021-2.84-7.708-4.307a2.524,2.524,0,0,0-3.235-1.266,2.455,2.455,0,0,0-.329.163,4.986,4.986,0,0,1-.655.325h0a6.444,6.444,0,0,1-5.935-.944,7.981,7.981,0,0,1-3.81-6.065c-.06-2.769,2.3-5.191,4.659-6.153a5.623,5.623,0,0,1,5.467.431,2.52,2.52,0,0,0,2.415.341l.052-.021a2.52,2.52,0,0,0,1.522-1.843,7.715,7.715,0,0,1,1.695-3.622,7.49,7.49,0,0,1,2.711-2.009c1.437-.585,3.529-.748,5.335,1.8.882,1.245.868,2.832.544,5.153A13.369,13.369,0,0,1,258.649,151.119Z" fill="#cf3e32"/>
      <path id="Path_600" data-name="Path 600" d="M280.15,197.743c-1.383-2.038-2.917-3.95-5.4-4.5-5.517-1.228-8.954,2.747-8.9,8.039a10.25,10.25,0,0,0,1.528,5.089c-6.881.622-9.8,10.488-5.284,15.278,4.375,4.636,14.377,3.588,16.439-2.992,5.151,2.164,10.542,1.261,12.393-4.562,1.533-4.825-.179-10.756-5.457-12.277a7.59,7.59,0,0,0-3.524-.1A15.919,15.919,0,0,0,280.15,197.743Zm-.62,4.69a2.524,2.524,0,0,0,2.878,1.768,5.092,5.092,0,0,1,5.678,2.736,8.418,8.418,0,0,1,.441,6.392,8,8,0,0,1-.4,1.028c-2.078,4.312-7.114,2.6-8.607,1.973a2.521,2.521,0,0,0-3.384,1.572,5.058,5.058,0,0,1-.268.68h0a6.446,6.446,0,0,1-5.037,3.278,7.981,7.981,0,0,1-6.893-1.945c-1.9-2.015-1.775-5.393-.668-7.689a5.62,5.62,0,0,1,4.345-3.346,2.521,2.521,0,0,0,2.02-1.366l.024-.05a2.52,2.52,0,0,0-.106-2.388,7.72,7.72,0,0,1-1.172-3.824,7.5,7.5,0,0,1,.666-3.309c.673-1.4,2.116-2.92,5.163-2.242,1.489.332,2.543,1.519,3.859,3.458A13.32,13.32,0,0,1,279.53,202.433Z" fill="#acbbbe" opacity="0.5" style="mix-blend-mode: multiply;isolation: isolate"/>
      <path id="Path_601" data-name="Path 601" d="M279.091,197.69c-1.383-2.038-2.918-3.951-5.4-4.5-5.517-1.228-8.955,2.747-8.9,8.039a10.257,10.257,0,0,0,1.528,5.09c-6.88.622-9.8,10.487-5.283,15.277,4.375,4.636,14.377,3.589,16.439-2.992,5.151,2.164,10.542,1.262,12.392-4.562,1.533-4.825-.178-10.756-5.457-12.276a7.567,7.567,0,0,0-3.523-.1A15.95,15.95,0,0,0,279.091,197.69Zm-.62,4.69a2.522,2.522,0,0,0,2.878,1.767,5.09,5.09,0,0,1,5.677,2.736,8.409,8.409,0,0,1,.441,6.392,7.8,7.8,0,0,1-.4,1.028c-2.079,4.313-7.114,2.6-8.608,1.973a2.521,2.521,0,0,0-3.248,1.231,2.469,2.469,0,0,0-.135.341,4.951,4.951,0,0,1-.268.68h0a6.439,6.439,0,0,1-5.036,3.278,7.977,7.977,0,0,1-6.893-1.945c-1.9-2.014-1.775-5.392-.669-7.689a5.621,5.621,0,0,1,4.345-3.345,2.523,2.523,0,0,0,2.021-1.367l.024-.05a2.52,2.52,0,0,0-.106-2.388,7.706,7.706,0,0,1-1.172-3.824,7.492,7.492,0,0,1,.665-3.308c.674-1.4,2.117-2.921,5.164-2.242,1.489.332,2.542,1.519,3.859,3.457A13.381,13.381,0,0,1,278.471,202.38Z" fill="#cf3e32"/>
      <path id="Path_602" data-name="Path 602" d="M230.085,143.423c-1.869-.747-3.1,6.413-3.806,9.924-.151-3.09,1.321-13.691-.83-13.81-2.687-.148-1.709,10.981-1.6,14.328-.475-3.915-1.6-11.392-3.25-11.324-1.517.743.979,9.326,2.131,13.865.564,2.22,1.206,4.421,1.88,6.61.389,1.266,1.827,3.873,1.112,5.171.042.162.088.322.129.483l.143.558a147.945,147.945,0,0,0,4.575-21.6C230.765,146.2,231.426,143.96,230.085,143.423Z" fill="#6faa2e"/>
      <path id="Path_603" data-name="Path 603" d="M210.4,157.8a14.649,14.649,0,0,0-5.093-2.295.8.8,0,0,0-.582.059c-.394.266-.093.878.234,1.223a32.192,32.192,0,0,0,9.755,7.02c-2.222-1.156-9.677-4.537-10.344-2.122-.563,2.039,6.476,3.659,8.5,4.261-2.2.238-6.181.1-6.344,1.691-.227,2.205,6.512,1.7,9.856,2.038,1.418.144,2.845.086,4.263.2.84.069,2.675.731,3.425.335,1.374-.724.793-1.987-.21-3.175-1.605-1.211-3.231-2.426-4.863-3.621C216.236,161.392,213.315,159.6,210.4,157.8Z" fill="#6faa2e"/>
      <path id="Path_604" data-name="Path 604" d="M211.471,137.772c-1.935,1.4,2.152,8.564,4.3,12.456-2.5-3.315-7.562-10.359-8.324-9.238-1.242.983,2.71,6.294,4.955,8.86-1.632-1.461-5.017-4.4-5.437-3.653-.777,1.144,1.084,3.022,2.089,4.294q5.747,7.266,12.168,13.961c.466.485,1.73,1.5,2.644,2.586.586.442,1.178.886,1.754,1.325a1.279,1.279,0,0,0,.108-.176,116.284,116.284,0,0,0-7.465-20.634C216.548,143.935,213.3,136.928,211.471,137.772Z" fill="#6faa2e"/>
      <path id="Path_605" data-name="Path 605" d="M307.583,184.333c-.435-.183-.693,1.171-1.083,1.25-2.43-3.838-15.56-21.059-43.632-21.937a7.006,7.006,0,0,0-2.119-2.807c-2.3-1.928-6.182-5.188-8.583-3.375-1.219.92.057,3.1.892,4.381-.212-.325-.925-.612-1.259-.806q-.687-.4-1.408-.732a17.754,17.754,0,0,0-2.983-1.067c-1.758-.457-3.744-1.056-5.549-.521-1.46.433-1.09,1.433-.61,2.522a12,12,0,0,0,1.189,2.084c-3.242-1.38-8.1-4.716-10.305-1.965-1.016,1.269,1.108,3.092,2.25,4.249a28.268,28.268,0,0,0-7.934-1.8,2.573,2.573,0,0,0-2.356.661c-.792,1.089.376,2.506,1.438,3.334-1.59-.278-3.047-1.063-4.61-1.466s-3.541-.434-4.538.836c-.776.987-.316,2.291.923,3.807a26.607,26.607,0,0,0-4.884-.695,1.764,1.764,0,0,0-1.9,1.551,2.056,2.056,0,0,0,.407,1.283c.25.383.556.73.768,1.135a16.155,16.155,0,0,0-6.023-.936c-2.254.232-3.1,2.472-1.146,4.255-1.215-.869-5.562-.685-5.876,1.252a1.6,1.6,0,0,0,.35,1.074,12.889,12.889,0,0,0,1.428,1.815l-.372.225c-.345.208-.684.414-1.01.615-.14.086-.273.17-.41.255l-.366.227c-.067-.135-.117-.284-.192-.413-.154-.266-.337-.554-.545-.858l0-.008c-3.079-4.5-11.675-12.626-15.533-9.884s4.417,7.833,4.75,16.167c.332,8.3-6.738,17.068-1.917,19.166,3.966,1.726,10.064-6.32,12.659-11.325h0c.185-.357.352-.7.5-1.021v0c.1-.211.181-.41.26-.6a82.132,82.132,0,0,0,19.676,12.9c-.833.707-1.621,1.535-2.324,2.208-.667.638-1.633,1.9-.667,2.734a2.328,2.328,0,0,0,1.218.464,13.86,13.86,0,0,0,4.725-.4c.821-.173,4.319-.75,4.689-1.555a8.451,8.451,0,0,0-1.051,4.359,1.179,1.179,0,0,0,.723.98,9.8,9.8,0,0,0,8.117-2.31c-1.192,1.6-1.168,4.312.786,4.7,2.41.482,5.411-1.165,6.836-2.558a2.81,2.81,0,0,0,1.288,3.612,6.751,6.751,0,0,0,4.16.512A20.727,20.727,0,0,0,257.7,215c12.846-.415,22.479-3.353,29.632-7.185q.483-.258.951-.521c.3-.171.606-.341.9-.515q.765-.452,1.488-.913c.229-.147.449-.295.672-.443q.572-.38,1.117-.764c.157-.111.317-.221.471-.333q.817-.591,1.576-1.19l.042-.035q1.427-1.128,2.657-2.27c1.511-1.238,2.52-2.137,3.042-2.664,2.521-2.545,4.953-4.894,6.5-8.125C308.167,187.083,308.294,184.633,307.583,184.333Z" fill="#acbbbe" opacity="0.5" style="mix-blend-mode: multiply;isolation: isolate"/>
      <path id="Path_606" data-name="Path 606" d="M252.332,155.3c-1.218.92.057,3.1.893,4.381a4.272,4.272,0,0,0-1.259-.8q-.687-.4-1.408-.732a17.669,17.669,0,0,0-2.983-1.068c-1.759-.457-3.744-1.056-5.55-.521-1.46.433-1.089,1.433-.609,2.523a11.967,11.967,0,0,0,1.189,2.084c-3.243-1.38-8.1-4.717-10.306-1.966-1.016,1.269,1.109,3.092,2.251,4.249a28.309,28.309,0,0,0-7.935-1.8,2.571,2.571,0,0,0-2.355.662c-.792,1.089.376,2.506,1.438,3.334-1.591-.279-3.047-1.063-4.61-1.466s-3.541-.434-4.538.835c-.776.987-.316,2.291.922,3.807a26.667,26.667,0,0,0-4.884-.7,1.763,1.763,0,0,0-1.9,1.551,2.059,2.059,0,0,0,.406,1.283c.251.383.556.731.769,1.136a16.157,16.157,0,0,0-6.024-.937c-2.253.232-3.1,2.472-1.145,4.255-1.216-.869-5.563-.685-5.876,1.252a1.6,1.6,0,0,0,.349,1.074,12.972,12.972,0,0,0,2.6,2.935c1.552,1.287,3.315-.013,4.881-.72,1.941-.878,3.846-1.831,5.744-2.8,3.795-1.934,7.562-3.94,11.51-5.55a95.922,95.922,0,0,1,13.976-4.287,201.429,201.429,0,0,1,21.635-3.939c1.068-.134,3.387.04,3.551-1.461.113-1.046-1.448-2.647-2.158-3.241C258.614,156.745,254.734,153.484,252.332,155.3Z" fill="#718a90"/>
      <path id="Path_607" data-name="Path 607" d="M215.772,207.194c-.666.638-1.632,1.9-.667,2.735a2.33,2.33,0,0,0,1.218.463,13.815,13.815,0,0,0,4.726-.4c.821-.173,4.319-.749,4.689-1.555a8.435,8.435,0,0,0-1.051,4.36,1.175,1.175,0,0,0,.723.979,9.8,9.8,0,0,0,8.117-2.309c-1.193,1.6-1.168,4.312.785,4.7,2.41.482,5.412-1.165,6.837-2.557a2.809,2.809,0,0,0,1.287,3.611,6.754,6.754,0,0,0,4.161.513c6.206-.734,12.4-4.169,14.973-9.864-8.734-.22-16.732-1.364-25.151-2a88.8,88.8,0,0,1-12.016-1.923c-1.943-.419-2.981-.946-4.686-.085A19.042,19.042,0,0,0,215.772,207.194Z" fill="#718a90"/>
      <path id="Path_608" data-name="Path 608" d="M198.25,180.458c1.833,3.167,1.5,8.167.292,11.334-1.689,4.425-9.008,15.223-13.542,13.25-4.821-2.1,2.249-10.863,1.917-19.167-.334-8.333-8.609-13.424-4.75-16.167C186.288,166.779,195.816,176.255,198.25,180.458Z" fill="#718a90"/>
      <path id="Path_609" data-name="Path 609" d="M198.25,180.458a24.993,24.993,0,0,0-3.022-3.932C190.618,178.48,188.7,184.633,190,189a12.059,12.059,0,0,0,6.346,7.014,26.779,26.779,0,0,0,2.2-4.222C199.75,188.625,200.083,183.625,198.25,180.458Z" fill="#90a4a9"/>
      <path id="Path_610" data-name="Path 610" d="M306.833,185.167s-14.5-26.5-51.666-23.5-63.292,23.708-63.292,23.708S211.91,211.427,251,212.833C297.333,214.5,306.833,185.167,306.833,185.167Z" fill="#cfd0bd"/>
      <path id="Path_611" data-name="Path 611" d="M307,185.167s-14.667-26.5-51.833-23.5c-35.011,2.826-60.214,21.358-63.022,23.5Z" fill="#a1b2b6"/>
      <path id="Path_612" data-name="Path 612" d="M307,185.167s-5.876-10.426-19.3-17.458c-8.085,5.811-11.044,17.249-7.7,27.291a30.489,30.489,0,0,0,6.559,11.147C302.688,197.937,307,185.167,307,185.167Z" fill="#799197"/>
      <circle id="Ellipse_23" data-name="Ellipse 23" cx="3.438" cy="3.438" r="3.438" transform="translate(288.688 175.125)" fill="#517078"/>
      <circle id="Ellipse_24" data-name="Ellipse 24" cx="2.938" cy="2.938" r="2.938" transform="translate(289.438 175.313)" fill="#ecece5"/>
      <path id="Path_613" data-name="Path 613" d="M305.628,183.085a12.208,12.208,0,0,1-7.42,3.373l.375,1.209,4.334.666,4.074-3.182C306.943,185.066,306.5,184.3,305.628,183.085Z" fill="#517078"/>
      <path id="Path_614" data-name="Path 614" d="M301.816,186.888c2.934-.971,4.1-3.1,5.976-2.305.71.3-.516,2.61-.875,3.292a34.451,34.451,0,0,1-6.5,8.125,56.732,56.732,0,0,1-4.334,3.708c-1.125-1.541.667-5.937.667-8.458a12.406,12.406,0,0,1,1.458-4.75C299.156,186.439,300.863,187.2,301.816,186.888Z" fill="#799197"/>
      <path id="Path_615" data-name="Path 615" d="M293.937,179.188a2.929,2.929,0,0,1-2.869-3.556,2.932,2.932,0,1,0,4.177,3.236A2.908,2.908,0,0,1,293.937,179.188Z" fill="#d7d8c8"/>
      <path id="Path_616" data-name="Path 616" d="M292.628,175.913c-.448-.069-.8.542-.334.792a2.336,2.336,0,0,1,.825.74c.226.322.333.7.765.789a.536.536,0,0,0,.58-.236C295.126,176.986,293.41,176.034,292.628,175.913Z" fill="#fff"/>
      <path id="Path_617" data-name="Path 617" d="M229.162,168.065c-2.469.074-4.811,1.3-7.066,2.229q-3.693,1.52-7.312,3.206a101.29,101.29,0,0,0-14.879,8.053.457.457,0,0,0,.462.789c4.822-2.309,9.465-4.954,14.339-7.168q3.869-1.756,7.821-3.316c2.288-.9,4.875-1.5,6.848-3.007C229.679,168.618,229.623,168.051,229.162,168.065Z" fill="#c9d3d5"/>
      <path id="Path_618" data-name="Path 618" d="M234.027,166.427c-.3.127-.6.262-.893.4-.467.215-.006.988.4.681.28-.211.558-.423.831-.644S234.288,166.317,234.027,166.427Z" fill="#c9d3d5"/>
      <path id="Path_619" data-name="Path 619" d="M238.333,165.35a.317.317,0,0,0,0,.633A.317.317,0,0,0,238.333,165.35Z" fill="#c9d3d5"/>
      <path id="Path_620" data-name="Path 620" d="M269.762,163.673c-1.385-1.192-3.178-1.188-4.954-1.2a74.6,74.6,0,0,0-7.978.408,67.006,67.006,0,0,0-14.968,3.127.461.461,0,0,0,.245.889,126.149,126.149,0,0,1,14.253-2.381q3.293-.318,6.6-.384c2.182-.041,4.3.4,6.447.4A.505.505,0,0,0,269.762,163.673Z" fill="#c9d3d5"/>
      <path id="Path_621" data-name="Path 621" d="M274.62,165.656c-.06-.082-.118-.165-.175-.25-.474-.69-1.4.228-.705.706.084.057.167.115.25.175C274.359,166.55,274.884,166.026,274.62,165.656Z" fill="#c9d3d5"/>
      <path id="Path_622" data-name="Path 622" d="M227.871,204.377c-3.333-1.668-6.916-2.739-10.246-4.442a62.169,62.169,0,0,1-9.477-5.964c-.357-.273-.827.334-.483.626,5.5,4.662,12.7,9.582,20.038,10.4C228.031,205.032,228.154,204.519,227.871,204.377Z" fill="#c4c5ae"/>
      <path id="Path_623" data-name="Path 623" d="M235.563,205.52a4.14,4.14,0,0,0-1.251-.175,8.977,8.977,0,0,1-1.458-.222.391.391,0,0,0-.208.754,4.381,4.381,0,0,0,2.974.079A.242.242,0,0,0,235.563,205.52Z" fill="#c4c5ae"/>
      <path id="Path_624" data-name="Path 624" d="M240.75,206.45a.05.05,0,0,0,0,.1A.05.05,0,0,0,240.75,206.45Z" fill="#c4c5ae"/>
      <path id="Path_625" data-name="Path 625" d="M275.37,207.13c-2.185-.294-4.43.41-6.606.658s-4.369.394-6.559.483a74.766,74.766,0,0,1-14.854-.9c-.437-.07-.636.584-.187.678a74.374,74.374,0,0,0,14.572,1.63,62.16,62.16,0,0,0,7.495-.412c2.076-.233,4.412-.3,6.239-1.365C275.754,207.737,275.746,207.181,275.37,207.13Z" fill="#c4c5ae"/>
      <path id="Path_626" data-name="Path 626" d="M280.707,205.04a4.961,4.961,0,0,0-1.4.869.432.432,0,1,0,.526.681,5.008,5.008,0,0,0,1.151-1.188A.249.249,0,0,0,280.707,205.04Z" fill="#c4c5ae"/>
      <path id="Path_627" data-name="Path 627" d="M299.351,193.98c-1.574.957-2.767,2.545-4.238,3.674a44.552,44.552,0,0,1-5.191,3.268.334.334,0,0,0,.256.607,19.836,19.836,0,0,0,5.552-2.961c1.485-1.1,3.315-2.411,4.076-4.134C299.93,194.152,299.661,193.791,299.351,193.98Z" fill="#688389"/>
      <path id="Path_629" data-name="Path 629" d="M191.014,200.213a.229.229,0,0,0-.279-.158c-.53.189-.829.857-1.225,1.238a7.486,7.486,0,0,1-1.672,1.158c-.3.162-.083.576.22.521a4.068,4.068,0,0,0,1.989-1.024C190.477,201.555,191.182,200.856,191.014,200.213Z" fill="#688389"/>
      <path id="Path_630" data-name="Path 630" d="M193,198.117a.383.383,0,0,0,0,.766A.383.383,0,0,0,193,198.117Z" fill="#688389"/>
      <path id="Path_631" data-name="Path 631" d="M226.937,173.875a13.843,13.843,0,0,0-14.123,13.979c0,7.476,5.373,13.771,14.873,13.646Z" fill="#acbbbe" opacity="0.5" style="mix-blend-mode: multiply;isolation: isolate"/>
      <path id="Path_632" data-name="Path 632" d="M227,174.25c-7.436.171-12.875,4.773-12.875,12.25s4.562,13.938,13.437,13.563Z" fill="#f6e219"/>
      <path id="Path_633" data-name="Path 633" d="M227.228,174.574a12.283,12.283,0,0,0,0,24.559Z" fill="#fdfad8"/>
      <path id="Path_634" data-name="Path 634" d="M227,176.183A10.687,10.687,0,0,0,218.8,180.7a2.2,2.2,0,0,1,.439.433v0a56.276,56.276,0,0,0,7.649,5.453C226.828,183.122,226.817,179.653,227,176.183Z" fill="#f6e219"/>
      <path id="Path_635" data-name="Path 635" d="M218.7,181.932l-.006,0a2.476,2.476,0,0,1-.463-.316,10.618,10.618,0,0,0,1.151,12.136c2.474-2.042,5.012-3.983,7.44-6.075A60.329,60.329,0,0,1,218.7,181.932Z" fill="#f6e219"/>
      <path id="Path_636" data-name="Path 636" d="M220.035,194.451a10.674,10.674,0,0,0,7.1,3.081c-.03-2.9-.116-5.795-.186-8.691C224.679,190.757,222.33,192.556,220.035,194.451Z" fill="#f6e219"/>
      <path id="Path_637" data-name="Path 637" d="M226.314,185.269a20.238,20.238,0,0,0-.815-2.352,6.82,6.82,0,0,0-.865-1.766c-.111-.139-.3.017-.27.158a11.652,11.652,0,0,0,.843,2.171c.259.643.506,1.29.782,1.926.082.188.375.052.325-.137Z" fill="#fbf18e"/>
      <path id="Path_638" data-name="Path 638" d="M224.1,180.2c-.047-.312-.123-.907-.46-1.051a.125.125,0,0,0-.18.074.865.865,0,0,0,.065.5c.06.2.122.39.165.591.058.273.45.151.41-.113Z" fill="#fbf18e"/>
      <path id="Path_639" data-name="Path 639" d="M226.183,182.579c.049-1.416.288-3.292-.228-4.634-.05-.129-.262-.162-.3,0a7.89,7.89,0,0,0,.022,2.159c.055.826.123,1.65.179,2.475a.162.162,0,0,0,.324,0Z" fill="#fbf18e"/>
      <path id="Path_640" data-name="Path 640" d="M223.79,183.235c-.416-.657-.837-1.316-1.31-1.934a4.713,4.713,0,0,0-1.338-1.434c-.1-.051-.272.037-.218.167a6.327,6.327,0,0,0,1.142,1.439,22.947,22.947,0,0,1,1.465,1.913c.107.16.364.013.259-.151Z" fill="#fbf18e"/>
      <path id="Path_641" data-name="Path 641" d="M222.439,180a.2.2,0,0,0,0-.394.2.2,0,0,0,0,.394Z" fill="#fbf18e"/>
      <path id="Path_642" data-name="Path 642" d="M224.713,178.551a.2.2,0,0,0,0-.4.2.2,0,0,0,0,.4Z" fill="#fbf18e"/>
      <path id="Path_643" data-name="Path 643" d="M225.939,187.63c-1.338.01-2.674-.021-4.011-.047a16.668,16.668,0,0,0-3.58.01c-.161.033-.139.261,0,.3a12.219,12.219,0,0,0,3.58.247c1.338,0,2.676-.07,4.011-.156a.18.18,0,0,0,0-.359Z" fill="#fbf18e"/>
      <path id="Path_644" data-name="Path 644" d="M223.3,186.208c-1.457-.3-3.156-1.409-4.669-1.057a.115.115,0,0,0-.027.207,12.163,12.163,0,0,0,2.484.731,4.485,4.485,0,0,0,2.212.42.157.157,0,0,0,0-.3Z" fill="#fbf18e"/>
      <path id="Path_645" data-name="Path 645" d="M218.118,184.156a1.383,1.383,0,0,0-.182-.007.116.116,0,0,0-.1.173,1.776,1.776,0,0,0,.14.174c.23.251.544-.3.141-.34Z" fill="#fbf18e"/>
      <path id="Path_646" data-name="Path 646" d="M223.893,188.689c-1.605.263-3.744.527-5,1.652-.11.1-.029.334.13.313a12.884,12.884,0,0,0,2.328-.791c.871-.293,1.753-.6,2.645-.813.239-.057.134-.4-.1-.361Z" fill="#fbf18e"/>
      <path id="Path_647" data-name="Path 647" d="M221.233,190.84a2.646,2.646,0,0,0-1.117.62c-.079.108.03.243.143.249a2.771,2.771,0,0,0,1.193-.495c.252-.13.031-.484-.219-.374Z" fill="#fbf18e"/>
      <path id="Path_648" data-name="Path 648" d="M226.31,189.769c-.544.568-1.063,1.158-1.592,1.741a5.939,5.939,0,0,0-1.245,1.518c-.05.12.1.2.2.152a5.85,5.85,0,0,0,1.546-1.506c.484-.541.955-1.094,1.393-1.674.132-.174-.153-.385-.3-.231Z" fill="#fbf18e"/>
      <path id="Path_649" data-name="Path 649" d="M222.836,193.617a1.91,1.91,0,0,0-.509.616c-.032.082.063.162.14.139a1.941,1.941,0,0,0,.662-.463c.2-.173-.1-.479-.293-.292Z" fill="#fbf18e"/>
      <path id="Path_650" data-name="Path 650" d="M225.721,191.708c-.2.454-.427.9-.649,1.343a4.242,4.242,0,0,0-.521,1.256.151.151,0,0,0,.251.146,5.821,5.821,0,0,0,1.3-2.585c.077-.22-.285-.378-.382-.16Z" fill="#fbf18e"/>
      <path id="Path_651" data-name="Path 651" d="M223.91,195.708a1.5,1.5,0,0,0-.032.422.106.106,0,0,0,.207.028.373.373,0,0,1,.149-.2c.362-.274-.248-.6-.324-.249Z" fill="#fbf18e"/>
      <path id="Path_652" data-name="Path 652" d="M226.084,192.719a14.9,14.9,0,0,0-.336,3.144c.008.078.116.125.16.044a8.287,8.287,0,0,0,.6-3.188c.021-.275-.389-.263-.421,0Z" fill="#fbf18e"/>
      <path id="Path_653" data-name="Path 653" d="M227.4,171.512a53.757,53.757,0,0,0-1.392,14.872,153.476,153.476,0,0,0,1.566,16.09s1.826-6,1.826-17.133C229.4,179.948,227.4,171.512,227.4,171.512Z" fill="#718a90"/>
      <path id="Path_654" data-name="Path 654" d="M249.125,174.375c-7.436.171-13.875,7.065-13.875,14.542s7.064,12.412,14.5,12.583Z" fill="#acbbbe" opacity="0.5" style="mix-blend-mode: multiply;isolation: isolate"/>
      <path id="Path_655" data-name="Path 655" d="M249.167,173.917a13.467,13.467,0,0,0-13.417,13.416c0,7.477,6.481,13.162,13.917,13.334Z" fill="#f6e219"/>
      <path id="Path_656" data-name="Path 656" d="M249.36,174.574a12.283,12.283,0,0,0,0,24.559Z" fill="#fdfad8"/>
      <path id="Path_657" data-name="Path 657" d="M249.13,176.183a10.687,10.687,0,0,0-8.193,4.519,2.171,2.171,0,0,1,.439.433v0a56.223,56.223,0,0,0,7.65,5.453C248.961,183.122,248.95,179.653,249.13,176.183Z" fill="#f6e219"/>
      <path id="Path_658" data-name="Path 658" d="M240.836,181.932l-.005,0a2.451,2.451,0,0,1-.464-.316,10.621,10.621,0,0,0,1.152,12.136c2.474-2.042,5.011-3.983,7.439-6.075A60.392,60.392,0,0,1,240.836,181.932Z" fill="#f6e219"/>
      <path id="Path_659" data-name="Path 659" d="M242.167,194.451a10.674,10.674,0,0,0,7.1,3.081c-.03-2.9-.116-5.795-.186-8.691C246.811,190.757,244.462,192.556,242.167,194.451Z" fill="#f6e219"/>
      <path id="Path_660" data-name="Path 660" d="M248.446,185.269a20.241,20.241,0,0,0-.815-2.352,6.82,6.82,0,0,0-.865-1.766c-.111-.139-.3.017-.27.158a11.793,11.793,0,0,0,.843,2.171c.259.643.506,1.29.782,1.926.082.188.375.052.325-.137Z" fill="#fbf18e"/>
      <path id="Path_661" data-name="Path 661" d="M246.233,180.2c-.046-.312-.123-.907-.46-1.051a.125.125,0,0,0-.18.074.865.865,0,0,0,.065.5c.06.2.122.39.165.591.058.273.45.151.41-.113Z" fill="#fbf18e"/>
      <path id="Path_662" data-name="Path 662" d="M248.315,182.579c.049-1.416.288-3.292-.228-4.634-.05-.129-.262-.162-.3,0a7.891,7.891,0,0,0,.022,2.159c.055.826.123,1.65.179,2.475a.162.162,0,0,0,.324,0Z" fill="#fbf18e"/>
      <path id="Path_663" data-name="Path 663" d="M245.923,183.235c-.417-.657-.838-1.316-1.31-1.934a4.729,4.729,0,0,0-1.339-1.434c-.1-.051-.272.037-.218.167a6.327,6.327,0,0,0,1.142,1.439,22.944,22.944,0,0,1,1.465,1.913c.107.16.364.013.26-.151Z" fill="#fbf18e"/>
      <path id="Path_664" data-name="Path 664" d="M244.571,180a.2.2,0,0,0,0-.394.2.2,0,0,0,0,.394Z" fill="#fbf18e"/>
      <path id="Path_665" data-name="Path 665" d="M246.845,178.551a.2.2,0,0,0,0-.4.2.2,0,0,0,0,.4Z" fill="#fbf18e"/>
      <path id="Path_666" data-name="Path 666" d="M248.071,187.63c-1.338.01-2.674-.021-4.011-.047a16.659,16.659,0,0,0-3.579.01c-.161.033-.14.261,0,.3a12.21,12.21,0,0,0,3.579.247c1.338,0,2.676-.07,4.011-.156a.18.18,0,0,0,0-.359Z" fill="#fbf18e"/>
      <path id="Path_667" data-name="Path 667" d="M245.433,186.208c-1.457-.3-3.156-1.409-4.669-1.057a.115.115,0,0,0-.027.207,12.163,12.163,0,0,0,2.484.731,4.485,4.485,0,0,0,2.212.42.157.157,0,0,0,0-.3Z" fill="#fbf18e"/>
      <path id="Path_668" data-name="Path 668" d="M240.25,184.156a1.383,1.383,0,0,0-.182-.007.116.116,0,0,0-.1.173,2.136,2.136,0,0,0,.14.174c.231.251.544-.3.141-.34Z" fill="#fbf18e"/>
      <path id="Path_669" data-name="Path 669" d="M246.025,188.689c-1.6.263-3.744.527-5,1.652-.11.1-.029.334.13.313a12.884,12.884,0,0,0,2.328-.791c.871-.293,1.753-.6,2.646-.813.238-.057.133-.4-.1-.361Z" fill="#fbf18e"/>
      <path id="Path_670" data-name="Path 670" d="M243.366,190.84a2.65,2.65,0,0,0-1.118.62c-.079.108.03.243.143.249a2.766,2.766,0,0,0,1.193-.495c.252-.13.031-.484-.218-.374Z" fill="#fbf18e"/>
      <path id="Path_671" data-name="Path 671" d="M248.442,189.769c-.544.568-1.063,1.158-1.591,1.741a5.923,5.923,0,0,0-1.246,1.518c-.05.12.105.2.2.152a5.821,5.821,0,0,0,1.546-1.506c.484-.541.955-1.094,1.393-1.674.132-.174-.153-.385-.3-.231Z" fill="#fbf18e"/>
      <path id="Path_672" data-name="Path 672" d="M244.968,193.617a1.894,1.894,0,0,0-.508.616c-.033.082.062.162.139.139a1.931,1.931,0,0,0,.662-.463c.2-.173-.1-.479-.293-.292Z" fill="#fbf18e"/>
      <path id="Path_673" data-name="Path 673" d="M247.854,191.708c-.2.454-.428.9-.65,1.343a4.242,4.242,0,0,0-.521,1.256.151.151,0,0,0,.251.146,5.822,5.822,0,0,0,1.3-2.585c.077-.22-.285-.378-.381-.16Z" fill="#fbf18e"/>
      <path id="Path_674" data-name="Path 674" d="M246.042,195.708a1.5,1.5,0,0,0-.032.422.106.106,0,0,0,.207.028.373.373,0,0,1,.149-.2c.362-.274-.248-.6-.324-.249Z" fill="#fbf18e"/>
      <path id="Path_675" data-name="Path 675" d="M248.216,192.719a14.9,14.9,0,0,0-.336,3.144c.008.078.116.125.16.044a8.306,8.306,0,0,0,.6-3.188c.02-.275-.39-.263-.422,0Z" fill="#fbf18e"/>
      <path id="Path_676" data-name="Path 676" d="M249.534,171.512a53.782,53.782,0,0,0-1.391,14.872,153.326,153.326,0,0,0,1.565,16.09s1.826-6,1.826-17.133C251.534,179.948,249.534,171.512,249.534,171.512Z" fill="#718a90"/>
      <path id="Path_677" data-name="Path 677" d="M270.492,174.137a13.724,13.724,0,0,0-13.413,13.717c0,7.476,7.36,13.6,14.8,13.771Z" fill="#acbbbe" opacity="0.5" style="mix-blend-mode: multiply;isolation: isolate"/>
      <path id="Path_678" data-name="Path 678" d="M271.492,173.137a13.72,13.72,0,0,0,0,27.433Z" fill="#f6e219"/>
      <path id="Path_679" data-name="Path 679" d="M271.492,174.574a12.283,12.283,0,0,0,0,24.559Z" fill="#fdfad8"/>
      <path id="Path_680" data-name="Path 680" d="M271.262,176.183a10.687,10.687,0,0,0-8.193,4.519,2.146,2.146,0,0,1,.439.433v0a56.286,56.286,0,0,0,7.65,5.453C271.093,183.122,271.082,179.653,271.262,176.183Z" fill="#f6e219"/>
      <path id="Path_681" data-name="Path 681" d="M262.968,181.932l0,0a2.483,2.483,0,0,1-.464-.316,10.621,10.621,0,0,0,1.152,12.136c2.474-2.042,5.011-3.983,7.439-6.075A60.394,60.394,0,0,1,262.968,181.932Z" fill="#f6e219"/>
      <path id="Path_682" data-name="Path 682" d="M264.3,194.451a10.669,10.669,0,0,0,7.1,3.081c-.03-2.9-.116-5.795-.186-8.691C268.943,190.757,266.594,192.556,264.3,194.451Z" fill="#f6e219"/>
      <path id="Path_683" data-name="Path 683" d="M270.578,185.269a20.057,20.057,0,0,0-.815-2.352,6.817,6.817,0,0,0-.864-1.766c-.112-.139-.3.017-.271.158a11.793,11.793,0,0,0,.843,2.171c.259.643.506,1.29.782,1.926.082.188.375.052.325-.137Z" fill="#fbf18e"/>
      <path id="Path_684" data-name="Path 684" d="M268.366,180.2c-.047-.312-.124-.907-.461-1.051a.125.125,0,0,0-.18.074.865.865,0,0,0,.065.5c.06.2.123.39.166.591.058.273.449.151.41-.113Z" fill="#fbf18e"/>
      <path id="Path_685" data-name="Path 685" d="M270.447,182.579c.049-1.416.288-3.292-.228-4.634-.05-.129-.262-.162-.3,0a7.851,7.851,0,0,0,.023,2.159c.054.826.122,1.65.178,2.475a.162.162,0,0,0,.324,0Z" fill="#fbf18e"/>
      <path id="Path_686" data-name="Path 686" d="M268.055,183.235c-.417-.657-.838-1.316-1.31-1.934a4.729,4.729,0,0,0-1.339-1.434c-.1-.051-.272.037-.218.167a6.355,6.355,0,0,0,1.142,1.439,22.948,22.948,0,0,1,1.465,1.913c.107.16.364.013.26-.151Z" fill="#fbf18e"/>
      <path id="Path_687" data-name="Path 687" d="M266.7,180a.2.2,0,0,0,0-.394.2.2,0,0,0,0,.394Z" fill="#fbf18e"/>
      <path id="Path_688" data-name="Path 688" d="M268.977,178.551a.2.2,0,0,0,0-.4.2.2,0,0,0,0,.4Z" fill="#fbf18e"/>
      <path id="Path_689" data-name="Path 689" d="M270.2,187.63c-1.338.01-2.674-.021-4.011-.047a16.658,16.658,0,0,0-3.579.01c-.161.033-.14.261,0,.3a12.21,12.21,0,0,0,3.579.247c1.338,0,2.676-.07,4.011-.156a.18.18,0,0,0,0-.359Z" fill="#fbf18e"/>
      <path id="Path_690" data-name="Path 690" d="M267.565,186.208c-1.457-.3-3.155-1.409-4.669-1.057a.115.115,0,0,0-.027.207,12.182,12.182,0,0,0,2.484.731,4.485,4.485,0,0,0,2.212.42.157.157,0,0,0,0-.3Z" fill="#fbf18e"/>
      <path id="Path_691" data-name="Path 691" d="M262.382,184.156a1.382,1.382,0,0,0-.182-.007.116.116,0,0,0-.1.173,1.947,1.947,0,0,0,.141.174c.23.251.543-.3.14-.34Z" fill="#fbf18e"/>
      <path id="Path_692" data-name="Path 692" d="M268.157,188.689c-1.605.263-3.743.527-5,1.652-.111.1-.03.334.129.313a12.884,12.884,0,0,0,2.328-.791c.871-.293,1.753-.6,2.646-.813.238-.057.133-.4-.1-.361Z" fill="#fbf18e"/>
      <path id="Path_693" data-name="Path 693" d="M265.5,190.84a2.65,2.65,0,0,0-1.118.62c-.079.108.03.243.143.249a2.767,2.767,0,0,0,1.193-.495c.252-.13.031-.484-.218-.374Z" fill="#fbf18e"/>
      <path id="Path_694" data-name="Path 694" d="M270.574,189.769c-.544.568-1.063,1.158-1.591,1.741a5.923,5.923,0,0,0-1.246,1.518c-.05.12.105.2.2.152a5.82,5.82,0,0,0,1.546-1.506c.485-.541.955-1.094,1.393-1.674.132-.174-.152-.385-.3-.231Z" fill="#fbf18e"/>
      <path id="Path_695" data-name="Path 695" d="M267.1,193.617a1.884,1.884,0,0,0-.509.616c-.033.082.062.162.139.139a1.931,1.931,0,0,0,.662-.463c.2-.173-.1-.479-.292-.292Z" fill="#fbf18e"/>
      <path id="Path_696" data-name="Path 696" d="M269.986,191.708c-.2.454-.428.9-.649,1.343a4.218,4.218,0,0,0-.522,1.256.151.151,0,0,0,.251.146,5.821,5.821,0,0,0,1.3-2.585c.077-.22-.285-.378-.381-.16Z" fill="#fbf18e"/>
      <path id="Path_697" data-name="Path 697" d="M268.174,195.708a1.5,1.5,0,0,0-.032.422.106.106,0,0,0,.207.028.373.373,0,0,1,.149-.2c.362-.274-.248-.6-.324-.249Z" fill="#fbf18e"/>
      <path id="Path_698" data-name="Path 698" d="M270.348,192.719a14.963,14.963,0,0,0-.336,3.144c.008.078.116.125.16.044a8.287,8.287,0,0,0,.6-3.188c.02-.275-.39-.263-.422,0Z" fill="#fbf18e"/>
      <path id="Path_699" data-name="Path 699" d="M271.666,171.512a53.782,53.782,0,0,0-1.391,14.872,153.638,153.638,0,0,0,1.565,16.09s1.827-6,1.827-17.133C273.667,179.948,271.666,171.512,271.666,171.512Z" fill="#718a90"/>
      <path id="Path_700" data-name="Path 700" d="M233,194.575a.05.05,0,0,0,0,.1A.05.05,0,0,0,233,194.575Z" fill="#c9ad83"/>
      <path id="Path_701" data-name="Path 701" d="M232.625,188.7a.05.05,0,0,0,0,.1A.05.05,0,0,0,232.625,188.7Z" fill="#c9ad83"/>
      <path id="Path_702" data-name="Path 702" d="M206.625,187.074a.426.426,0,0,0,0,.852A.426.426,0,0,0,206.625,187.074Z" fill="#c9ad83" style="mix-blend-mode: multiply;isolation: isolate"/>
      <path id="Path_703" data-name="Path 703" d="M210.5,188.977a.4.4,0,0,0,0,.8A.4.4,0,0,0,210.5,188.977Z" fill="#c9ad83" style="mix-blend-mode: multiply;isolation: isolate"/>
      <path id="Path_704" data-name="Path 704" d="M201.625,189.7a.305.305,0,0,0,0,.61A.305.305,0,0,0,201.625,189.7Z" fill="#c9ad83" style="mix-blend-mode: multiply;isolation: isolate"/>
      <path id="Path_705" data-name="Path 705" d="M213.875,194.109a.266.266,0,0,0,0,.532A.266.266,0,0,0,213.875,194.109Z" fill="#c9ad83" style="mix-blend-mode: multiply;isolation: isolate"/>
      <path id="Path_706" data-name="Path 706" d="M231.625,173.078a.422.422,0,0,0,0,.844A.422.422,0,0,0,231.625,173.078Z" fill="#c9ad83" style="mix-blend-mode: multiply;isolation: isolate"/>
      <path id="Path_707" data-name="Path 707" d="M236,170.527a.473.473,0,0,0,0,.946A.473.473,0,0,0,236,170.527Z" fill="#c9ad83" style="mix-blend-mode: multiply;isolation: isolate"/>
      <path id="Path_708" data-name="Path 708" d="M234.125,177.324a.426.426,0,0,0,0,.852A.426.426,0,0,0,234.125,177.324Z" fill="#c9ad83" style="mix-blend-mode: multiply;isolation: isolate"/>
      <path id="Path_709" data-name="Path 709" d="M247.125,169.578a.422.422,0,0,0,0,.844A.422.422,0,0,0,247.125,169.578Z" fill="#c9ad83" style="mix-blend-mode: multiply;isolation: isolate"/>
      <path id="Path_710" data-name="Path 710" d="M252.75,168.047a.453.453,0,0,0,0,.906A.453.453,0,0,0,252.75,168.047Z" fill="#c9ad83" style="mix-blend-mode: multiply;isolation: isolate"/>
      <path id="Path_711" data-name="Path 711" d="M253.375,176.074a.3.3,0,0,0,0,.6A.3.3,0,0,0,253.375,176.074Z" fill="#c9ad83" style="mix-blend-mode: multiply;isolation: isolate"/>
      <path id="Path_712" data-name="Path 712" d="M242.25,172.27a.48.48,0,0,0,0,.96A.48.48,0,0,0,242.25,172.27Z" fill="#c9ad83" style="mix-blend-mode: multiply;isolation: isolate"/>
      <path id="Path_713" data-name="Path 713" d="M245.25,164.254a.371.371,0,0,0,0,.742A.371.371,0,0,0,245.25,164.254Z" fill="#c9ad83" style="mix-blend-mode: multiply;isolation: isolate"/>
      <path id="Path_714" data-name="Path 714" d="M255.25,162.2a.05.05,0,0,0,0,.1A.05.05,0,0,0,255.25,162.2Z" fill="#c9ad83" style="mix-blend-mode: multiply;isolation: isolate"/>
      <path id="Path_715" data-name="Path 715" d="M255.5,162.418a.332.332,0,0,0,0,.664A.332.332,0,0,0,255.5,162.418Z" fill="#c9ad83" style="mix-blend-mode: multiply;isolation: isolate"/>
      <path id="Path_716" data-name="Path 716" d="M210.125,180.477a.4.4,0,0,0,0,.8A.4.4,0,0,0,210.125,180.477Z" fill="#c9ad83" style="mix-blend-mode: multiply;isolation: isolate"/>
      <path id="Path_717" data-name="Path 717" d="M198.875,182.688a.188.188,0,0,0,0,.375A.188.188,0,0,0,198.875,182.688Z" fill="#c9ad83" style="mix-blend-mode: multiply;isolation: isolate"/>
      <path id="Path_718" data-name="Path 718" d="M217,175.938a.438.438,0,0,0,0,.875A.438.438,0,0,0,217,175.938Z" fill="#c9ad83" style="mix-blend-mode: multiply;isolation: isolate"/>
      <path id="Path_719" data-name="Path 719" d="M234.375,181.727a.523.523,0,0,0,0,1.046A.523.523,0,0,0,234.375,181.727Z" fill="#c9ad83" style="mix-blend-mode: multiply;isolation: isolate"/>
      <path id="Path_720" data-name="Path 720" d="M256.165,179.382c-.305-.413-1.033-.188-.878.371C255.482,180.462,256.568,179.928,256.165,179.382Z" fill="#c9ad83" style="mix-blend-mode: multiply;isolation: isolate"/>
      <path id="Path_721" data-name="Path 721" d="M262.5,170.313a.313.313,0,0,0,0,.625A.313.313,0,0,0,262.5,170.313Z" fill="#c9ad83" style="mix-blend-mode: multiply;isolation: isolate"/>
      <path id="Path_722" data-name="Path 722" d="M265.625,163.48a.4.4,0,0,0,0,.79A.4.4,0,0,0,265.625,163.48Z" fill="#c9ad83" style="mix-blend-mode: multiply;isolation: isolate"/>
      <path id="Path_723" data-name="Path 723" d="M274.4,171a.274.274,0,0,0-.273-.273l-.108.007a.535.535,0,1,0,.374.374Z" fill="#c9ad83" style="mix-blend-mode: multiply;isolation: isolate"/>
      <path id="Path_724" data-name="Path 724" d="M278.375,175.352a.4.4,0,0,0,0,.8A.4.4,0,0,0,278.375,175.352Z" fill="#c9ad83" style="mix-blend-mode: multiply;isolation: isolate"/>
      <path id="Path_725" data-name="Path 725" d="M280.5,167.1a.4.4,0,0,0,0,.8A.4.4,0,0,0,280.5,167.1Z" fill="#c9ad83" style="mix-blend-mode: multiply;isolation: isolate"/>
      <path id="Path_726" data-name="Path 726" d="M277.569,179.792a.466.466,0,0,0-.787.326,1.741,1.741,0,0,1-.007.25.219.219,0,0,0,.218.219,1.6,1.6,0,0,1,.25-.008A.466.466,0,0,0,277.569,179.792Z" fill="#c9ad83" style="mix-blend-mode: multiply;isolation: isolate"/>
      <path id="Path_727" data-name="Path 727" d="M258.25,174.988a.262.262,0,0,0,0,.524A.262.262,0,0,0,258.25,174.988Z" fill="#c9ad83" style="mix-blend-mode: multiply;isolation: isolate"/>
      <path id="Path_728" data-name="Path 728" d="M276.875,193.9a.477.477,0,0,0,0,.954A.477.477,0,0,0,276.875,193.9Z" fill="#c9ad83" style="mix-blend-mode: multiply;isolation: isolate"/>
      <path id="Path_729" data-name="Path 729" d="M255.125,192.9a.477.477,0,0,0,0,.954A.477.477,0,0,0,255.125,192.9Z" fill="#c9ad83" style="mix-blend-mode: multiply;isolation: isolate"/>
      <path id="Path_730" data-name="Path 730" d="M259.25,200.711a.414.414,0,0,0,0,.828A.414.414,0,0,0,259.25,200.711Z" fill="#c9ad83" style="mix-blend-mode: multiply;isolation: isolate"/>
      <path id="Path_731" data-name="Path 731" d="M236,196.5a.5.5,0,0,0,0,.992A.5.5,0,0,0,236,196.5Z" fill="#c9ad83" style="mix-blend-mode: multiply;isolation: isolate"/>
      <path id="Path_732" data-name="Path 732" d="M243,201.988a.512.512,0,0,0,0,1.024A.512.512,0,0,0,243,201.988Z" fill="#c9ad83" style="mix-blend-mode: multiply;isolation: isolate"/>
      <path id="Path_733" data-name="Path 733" d="M240.125,208.129a.5.5,0,0,0,0,.992A.5.5,0,0,0,240.125,208.129Z" fill="#c9ad83" style="mix-blend-mode: multiply;isolation: isolate"/>
      <path id="Path_734" data-name="Path 734" d="M262.375,204.977a.523.523,0,0,0,0,1.046A.523.523,0,0,0,262.375,204.977Z" fill="#c9ad83" style="mix-blend-mode: multiply;isolation: isolate"/>
      <path id="Path_735" data-name="Path 735" d="M277.25,202.055a.57.57,0,0,0,0,1.14A.57.57,0,0,0,277.25,202.055Z" fill="#c9ad83" style="mix-blend-mode: multiply;isolation: isolate"/>
      <path id="Path_736" data-name="Path 736" d="M282.375,203.68a.445.445,0,0,0,0,.89A.445.445,0,0,0,282.375,203.68Z" fill="#c9ad83" style="mix-blend-mode: multiply;isolation: isolate"/>
      <path id="Path_737" data-name="Path 737" d="M255.5,196.883a.492.492,0,0,0,0,.984A.492.492,0,0,0,255.5,196.883Z" fill="#c9ad83" style="mix-blend-mode: multiply;isolation: isolate"/>
      <path id="Path_738" data-name="Path 738" d="M253.5,203.945a.555.555,0,0,0,0,1.11A.555.555,0,0,0,253.5,203.945Z" fill="#c9ad83" style="mix-blend-mode: multiply;isolation: isolate"/>
    </g>
  </g>
</svg>
