<svg xmlns="http://www.w3.org/2000/svg" width="154.766" height="153.377" viewBox="0 0 154.766 153.377">
  <g id="Group_173" data-name="Group 173" transform="translate(194.692 -301.037)">
    <path id="Path_639" data-name="Path 639" d="M178.9,325.667c2.905-7.879,21.228-1.1,24.372,4.009,3.552,5.78-.278,11.137,1.662,16.991,1.753,5.291,6.825,7.477,7.64,13.233a27.243,27.243,0,0,1-4.992,19.122c-6.212,8.54-14.716,13.163-24.48,16.76-7,2.579-14.151,1.17-21.529,1.528-9,.436-18.668,8.562-27.877,5.355-4.284-1.491-8.71-7.873-8.814-12.356-.066-2.826,2.135-4.97,3.809-6.968a84.915,84.915,0,0,0,10.786-15.607c4.342-8.322,8.676-16.735,15.7-23.105C162.065,338.385,169.545,329.217,178.9,325.667Z" transform="translate(-256 39)" fill="#aa753a"/>
    <path id="Path_640" data-name="Path 640" d="M138.235,396.5c2.054,4.214,8.427-.156,10.992-1.4,1.6-.776,7.648-3.547,8.668-.753-1.971.417-4.49.163-6.349,1.189-1.917,1.057-3.342,3.139-5.308,4.2C143.8,401.056,137.421,400.765,138.235,396.5Z" transform="translate(-256 39)" fill="#cca17a"/>
    <path id="Path_641" data-name="Path 641" d="M163.4,393.333c3.149-1.954,8.789-.68,12.415-.665,2.359.01,4.79-.093,7.066-.279.754,4.087-10.054,2.778-12.344,2.778C168.939,395.167,163.692,395.849,163.4,393.333Z" transform="translate(-256 39)" fill="#cca17a"/>
    <path id="Path_642" data-name="Path 642" d="M182.235,324a10.248,10.248,0,0,1,.851,4.781c-.205,2.208-1.732,3.859-2.142,5.995-.543,2.824.014,5.253,2.833,6.412,2.669,1.1,4.715,1.092,5.547,4.442,1.108,4.467-2.17,7.185-4.146,10.789-1.664,3.037-.728,6.545-.936,9.881-.2,3.184-2.936,5.73-5.511,7.355-2.84,1.794-5.931,2.687-8.423,5.1-2.3,2.229-2.943,5.175-5.445,7.206-6.06,4.919-14.412,4.64-21.91,4.182-.141-1,.777-2.343,1.118-3.287,1.844-5.107,6.91-6.727,11.32-9.38,4.6-2.766,10.559-8.159,11.754-13.7,1.13-5.241,1.008-10.594,2.613-15.812,1.339-4.35,3.984-8.249,5.782-12.432.682-1.587.741-3.113,1.272-4.635a12.665,12.665,0,0,1,2.756-4.228" transform="translate(-256 39)" fill="#8c5825"/>
    <path id="Path_643" data-name="Path 643" d="M185.9,325a9.609,9.609,0,0,1,9.945,7.69c.863,4.232-1.2,9.412.292,13.459,1.147,3.108,4.464,3.859,6.919,5.559,6.988,4.837,3.345,16.294-4.16,18.47,2.628-3.751,4.878-7.14,3.336-11.836-1.775-5.4-5.98-6.835-9.2-11.024C188.478,341.4,196.622,327.845,185.9,325Z" transform="translate(-256 39)" fill="#cca17a"/>
    <path id="Path_644" data-name="Path 644" d="M159.818,313.25c4.067-.344,9.225,1.557,13.089,2.524,3.285.822,6.568,1.605,9.885,2.27.434,5.222-1.752,10.795-3.233,15.7-2,6.612-3.455,13.523-5.472,20.015-5.149-8.258-10.031-17.338-14.478-26.013-1.837-3.583-4.947-8.455-4.791-12.746" transform="translate(-256 39)" fill="#dbbc21"/>
    <path id="Path_645" data-name="Path 645" d="M100.89,302.481c1.591-3.759,5.678-7.435,8.334-10.4,2.258-2.524,4.482-5.063,6.616-7.687,4.822,2.049,8.734,6.581,12.383,10.178,4.919,4.849,10.353,9.36,15.157,14.171-9.706.706-20.015.792-29.763.683-4.027-.045-9.786.436-13.51-1.7" transform="translate(-256 39)" fill="#dbbc21"/>
    <path id="Path_646" data-name="Path 646" d="M108.4,305.747a11.092,11.092,0,0,1,7.778-4.146c3.5-.164,6.134,3.4,9.682,2.477,3.215-.834,5.321-4.665,8.858-4.839s4.987,4.7,8.2,4.787c1.318.035,3.1-1.328,4.44-1.612a21.62,21.62,0,0,1,13.22,1.679c4.461,2.328,9.607,9.2,8.787,14.409-.775,4.92-5.76,4.236-9.3,5.674a9.491,9.491,0,0,0-3.733,3.3,12.214,12.214,0,0,1-3.982,3.04c-2.185,1.182-5.647,2.359-8.034,1.811-2.831-.65-3.789-3.683-5.332-5.761-2.445-3.29-5.742-1.394-9.278-.939-4.985.641-9.581-.4-11.445-5.809C116.692,315.272,113.644,306.031,108.4,305.747Z" transform="translate(-256 39)" fill="#9aaf1c"/>
    <path id="Path_647" data-name="Path 647" d="M148.791,312.024a19.332,19.332,0,0,1-4.163.934c-.059-.03-.117-.065-.176-.089l.056.1a9.414,9.414,0,0,1-2.014-.091c1.738-.852,3.613-2.8,4.764-3.272,2.149-.886,4.6-.738,6.793-1.884-2.156.629-4.879.827-7.195,1.578a14.59,14.59,0,0,0-5.068,3.447c-.249-.056-.5-.109-.76-.185-1.819-.528-3.213-1.446-5.039-1.356-3.306.164-6.4,1.786-9.756,1.844-.1,0-.181,0-.273,0,1.7-1,3.418-3.368,4.555-4.021,2.016-1.157,4.468-1.329,6.492-2.75-2.057.9-4.731,1.453-6.93,2.5-2,.949-3.317,2.623-4.737,4.257-3.229-.169-4.222-1.644-6.548-4.08a14.242,14.242,0,0,0-7.62-4.6c3.854,2.481,5.831,6.346,9.312,8.155a14.546,14.546,0,0,0,3.712,4.858c1.96,1.444,4.48,2.492,6.328,3.77-1.717-1.779-4.091-2.414-5.85-3.934-.862-.744-1.909-2.846-3.137-4.239,3.519,1.309,7.1.8,10.637.109,1.078,1.866,2.055,3.75,3.828,5.056,1.959,1.444,4.48,2.492,6.328,3.77-1.718-1.78-4.091-2.414-5.85-3.934-1.033-.891-2.329-3.733-3.886-4.967a19.757,19.757,0,0,1,5.944-.286c2.027.236,3.322,1.362,5.11,1.768a7.042,7.042,0,0,0,1.825.153,11.9,11.9,0,0,0,3.1,3.8c1.96,1.445,4.48,2.493,6.328,3.77-1.718-1.779-4.091-2.414-5.85-3.933a38.471,38.471,0,0,1-2.7-3.712c2.24-.271,4.507-1.135,6.9-.769,1.808.277,3.462.939,5.237,1.22a8.638,8.638,0,0,1,3.628,1C161.826,311.3,151.9,311.077,148.791,312.024Z" transform="translate(-256 39)" fill="#7d871b"/>
    <path id="Path_648" data-name="Path 648" d="M123.865,305.516a10.59,10.59,0,0,1-3.461,7.671c-2.55,2.166-6.619,1.009-8.764,3.775-1.944,2.506-1.3,6.63-3.873,8.825s-6.514-.646-8.988,1.162c-1.017.743-1.572,2.815-2.416,3.808a18.6,18.6,0,0,1-3.92,3.423A18.794,18.794,0,0,1,85.39,337.2c-4.73.842-12.628-1.351-15.047-5.767-2.284-4.171,1.883-6.562,3.719-9.712a9.064,9.064,0,0,0,.9-4.669,11.685,11.685,0,0,1,1.237-4.62c.962-2.168,2.893-5.077,5.017-6.055,2.519-1.16,5.013.574,7.391,1.244,3.768,1.062,5.154-2.295,7.561-4.7,3.4-3.393,7.477-5.284,12.04-2.285C112.041,303.153,119.735,308.361,123.865,305.516Z" transform="translate(-256 39)" fill="#9aaf1c"/>
    <path id="Path_649" data-name="Path 649" d="M89.67,324.331a18.477,18.477,0,0,1,2.6-3.134c.061-.012.125-.019.185-.035l-.1-.04a8.866,8.866,0,0,1,1.575-1.106c-.817,1.657-1.1,4.221-1.693,5.251-1.108,1.924-3.048,3.243-4.036,5.387,1.264-1.733,3.206-3.471,4.519-5.39a13.948,13.948,0,0,0,1.821-5.561c.22-.1.438-.208.682-.3,1.682-.662,3.272-.781,4.6-1.914,2.4-2.052,3.8-5.086,6.3-7.084.071-.057.138-.1.208-.158-.7,1.743-.62,4.539-1.1,5.7-.849,2.051-2.6,3.611-3.3,5.865,1.028-1.882,2.729-3.857,3.781-5.93.956-1.882.978-3.917,1.1-5.981,2.54-1.756,4.151-1.22,7.33-.735a13.592,13.592,0,0,0,8.44-.971c-4.36.372-8.109-1.4-11.795-.733a13.89,13.89,0,0,0-5.64-1.507c-2.324.051-4.841.729-6.983.841,2.336.343,4.5-.562,6.717-.439,1.086.06,3.1,1.039,4.844,1.375-3.424,1.063-5.829,3.539-8.1,6.122-1.9-.782-3.741-1.636-5.842-1.589-2.324.051-4.841.729-6.983.841,2.336.344,4.5-.561,6.717-.439,1.3.072,3.938,1.464,5.834,1.488a18.81,18.81,0,0,1-4.327,3.684c-1.669,1-3.305.908-4.893,1.644a6.707,6.707,0,0,0-1.469.949,11.387,11.387,0,0,0-4.563-1.064c-2.324.052-4.84.729-6.983.841,2.337.344,4.5-.561,6.717-.438a36.95,36.95,0,0,1,4.208,1.229c-1.535,1.512-2.745,3.487-4.767,4.606-1.528.845-3.165,1.31-4.671,2.132a8.232,8.232,0,0,1-3.323,1.363C80.238,332.48,87.876,326.858,89.67,324.331Z" transform="translate(-256 39)" fill="#7d871b"/>
    <path id="Path_650" data-name="Path 650" d="M190.355,371.175c-5.439,1.154-11.345-2.2-14.891-6-4.922,4.659-4.61,3.811-.56,7.917,2.462,2.5,4.138,5.826,5.966,8.876a6.413,6.413,0,0,0,2.434-1.528c-1.07-2.463-3.34-3.923-4.665-6.376a4.136,4.136,0,0,0,.494-.667c1.572,1.412,3.505,2.335,5.008,3.521.508-.542,1.229-1.385,1.76-2.1-.553-1.5-3.139-2.506-4.442-3.073C184.658,370.9,188.836,373.466,190.355,371.175Z" transform="translate(-256 39)" fill="#ddd299"/>
    <path id="Path_651" data-name="Path 651" d="M195.263,385.211c3.394,1.048,5.764-1.86,6.012-5.232.17-2.316-1.144-3.7-3.435-3.919,4.514-1.889.937-9.293-3.821-5.719-1.6-2.434-7.336,1.372-6.758,3.718-3.151-1.306-7.777,2.3-5.136,5.433-3.643-1.583-5.063,5.9-.6,4.914-4.684,3.807,3,9.658,5.381,4.173C188.918,392.735,196.7,389.167,195.263,385.211Z" transform="translate(-256 39)" fill="#e2dcba"/>
    <path id="Path_652" data-name="Path 652" d="M190.023,374.489c3.977-.366,7.639,3.1,3.707,4.411.678.706,1.335,1.914.867,2.906-.6,1.285-2.206,1.1-3.362,1.432a3.622,3.622,0,0,0,4.353-.852c.76-1.115.053-1.91-.566-3.011,1.635-1.3,2.306-2.559.732-4.262a4.524,4.524,0,0,0-3.724-1.129" transform="translate(-256 39)" fill="#cec699"/>
    <path id="Path_653" data-name="Path 653" d="M186.2,358.442c.58-4.482,4.747-8.1,8.609-9.8-2.247-5.029-1.681-4.561-5.92-2.562-2.577,1.215-5.582,1.6-8.413,2.184a5.215,5.215,0,0,0,.517,2.278c2.176-.157,3.907-1.505,6.145-1.86a3.455,3.455,0,0,0,.378.559c-1.506.825-2.734,2.058-4.048,2.891.278.536.73,1.315,1.131,1.914,1.3-.02,2.768-1.733,3.554-2.578C187.947,354.147,184.856,356.66,186.2,358.442Z" transform="translate(-256 39)" fill="#95a843"/>
    <path id="Path_654" data-name="Path 654" d="M174.119,358.425c-1.717,2.32-.127,4.92,2.392,6.018a2.77,2.77,0,0,0,3.931-1.578c.232,3.97,6.873,3.222,5.414-1.389,2.3-.568.924-6-1.031-6.183,1.85-2.065.33-6.583-2.782-5.4,2.2-2.366-3.159-5.471-3.606-1.785-1.658-4.617-8.212-.3-4.649,3C170.059,351.533,170.7,358.46,174.119,358.425Z" transform="translate(-256 39)" fill="#5d8227"/>
    <path id="Path_655" data-name="Path 655" d="M183.752,357.3c-.791,3.147-4.437,5.021-4.381,1.654a2.291,2.291,0,0,1-2.462-.118c-.822-.81-.246-1.986-.192-2.964a2.944,2.944,0,0,0-.519,3.568c.649.883,1.45.555,2.461.376.555,1.6,1.341,2.458,3.07,1.71a3.677,3.677,0,0,0,1.869-2.551" transform="translate(-256 39)" fill="#507028"/>
    <path id="Path_656" data-name="Path 656" d="M203.78,360.573c-3.94,2.871-9.869,2.3-14.065.534-2.271,5.492-2.324,4.7,2.387,6.537,2.864,1.116,5.4,3.18,7.953,4.967a5.635,5.635,0,0,0,1.4-2.1c-1.738-1.588-4.078-1.943-6.016-3.432a3.677,3.677,0,0,0,.156-.711c1.764.567,3.641.614,5.269,1.024.212-.615.488-1.548.658-2.306-.981-1.005-3.41-.881-4.655-.869C199.122,362.4,203.384,362.95,203.78,360.573Z" transform="translate(-256 39)" fill="#95a843"/>
    <path id="Path_657" data-name="Path 657" d="M212.735,370.048c3.091-.377,3.946-3.553,2.937-6.34a2.988,2.988,0,0,0-4.153-1.906c2.936-3.129-2.578-7.773-5.106-3.209-2.148-1.376-5.38,3.725-4.076,5.4-2.99.083-5.4,4.627-2.165,6.187-3.482.038-1.94,6.534,1.277,4.149-2.384,4.724,5.857,6.655,5.8,1.412C210.351,378.342,215.3,372.7,212.735,370.048Z" transform="translate(-256 39)" fill="#5d8227"/>
    <path id="Path_659" data-name="Path 659" d="M202.139,335.064c-4.335-2.254-6.467-7.83-6.757-12.382-5.941.414-5.255.013-4.8,5.059.277,3.068-.444,6.263-.907,9.353a5.631,5.631,0,0,0,2.5.322c.649-2.268-.076-4.526.4-6.93a3.673,3.673,0,0,0,.707-.177c.278,1.836,1.075,3.541,1.433,5.185.647-.084,1.606-.254,2.363-.439.464-1.329-.731-3.453-1.3-4.565C198.425,331.7,199.83,335.77,202.139,335.064Z" transform="translate(-256 39)" fill="#ddd299"/>
    <path id="Path_660" data-name="Path 660" d="M197.634,347.327c1.718,2.605,4.949,1.956,7-.194a3,3,0,0,0-.142-4.577c4.117,1.238,5.823-5.782.6-6.013.275-2.542-5.744-3.165-6.661-1.25-1.409-2.645-6.562-2.78-6.518.82-1.588-3.109-6.728,1.175-3.152,3-5.3-.031-3.358,8.225,1.322,5.835C189.128,348.89,196.4,350.813,197.634,347.327Z" transform="translate(-256 39)" fill="#e2dcba"/>
    <path id="Path_661" data-name="Path 661" d="M200.064,337.127c2.9,1.971,3.451,6.369.052,5.061a2.479,2.479,0,0,1-1.033,2.457c-1.128.534-2.109-.488-3.081-.906a3.181,3.181,0,0,0,3.43,1.852c1.137-.331,1.1-1.266,1.3-2.359,1.834.032,2.993-.449,2.876-2.483a3.974,3.974,0,0,0-1.9-2.844" transform="translate(-256 39)" fill="#cec699"/>
    <path id="Path_662" data-name="Path 662" d="M169.135,409.026c-1.282-.135-2.571-.055-3.856-.072,1.207-1.3,1.52-5.792,1.15-7.355a9.07,9.07,0,0,0-6.369-7.022,15.137,15.137,0,0,0-7.053.187c-1.2.418-.1.316-1.294-.375-.541-.312-.679-.753-1.3-.938.9-2.111,4.45-2.537,6.378-2.5a16.549,16.549,0,0,1,10.182,3.131C171.041,397.256,170.469,404.736,169.135,409.026Z" transform="translate(-256 39)" fill="#c12121"/>
    <path id="Path_663" data-name="Path 663" d="M213.517,335.818c-1.283-.135-2.572-.055-3.856-.072,1.207-1.3,1.519-5.792,1.15-7.355a9.073,9.073,0,0,0-6.37-7.022,15.138,15.138,0,0,0-7.053.187c-1.2.418-.094.316-1.294-.375-.541-.312-.679-.753-1.3-.938.9-2.111,4.45-2.537,6.378-2.505a16.561,16.561,0,0,1,10.183,3.132C215.422,324.048,214.851,331.528,213.517,335.818Z" transform="translate(-256 39)" fill="#c12121"/>
    <path id="Path_664" data-name="Path 664" d="M201.55,371.531a10.752,10.752,0,0,0,.752-5.835,6.415,6.415,0,0,0-1.351-2.683,21.6,21.6,0,0,0-5.929-4.426c-2.956-1.658-6.915-3.01-9.776-2.416a3.329,3.329,0,0,0-2.06,1.549c-.514,1.027.295,2.636.806,3.785.663,1.492,5.175,6.011,6.549,7.22,2.337,2.056,4.569,4,7.122,4.354C198.529,373.2,201,373.443,201.55,371.531Z" transform="translate(-256 39)" fill="#ed8f20"/>
    <path id="Path_665" data-name="Path 665" d="M198.867,373.118c1.162-1.1.895-3.242.3-4.935q-.408-1.16-.821-2.317a3.305,3.305,0,0,0-1.293-2,41.536,41.536,0,0,0-9.716-5.931,15.391,15.391,0,0,0-2.078-.549,5.521,5.521,0,0,1-1.57-.326,2.547,2.547,0,0,0-.5.661c-.514,1.027.295,2.636.806,3.785.663,1.492,5.175,6.011,6.549,7.22,2.337,2.056,4.569,4,7.122,4.354a7.8,7.8,0,0,0,1.225.077Z" transform="translate(-256 39)" fill="none"/>
    <path id="Path_666" data-name="Path 666" d="M185.259,357.385a15.391,15.391,0,0,1,2.078.549,41.536,41.536,0,0,1,9.716,5.931,3.305,3.305,0,0,1,1.293,2q.413,1.158.821,2.317c.595,1.693.862,3.833-.3,4.935l.021.038a2.533,2.533,0,0,0,2.662-1.625,10.666,10.666,0,0,0,.752-5.835,6.415,6.415,0,0,0-1.351-2.683,21.585,21.585,0,0,0-5.93-4.426c-2.955-1.658-6.914-3.01-9.775-2.416a3.42,3.42,0,0,0-1.557.888A5.521,5.521,0,0,0,185.259,357.385Z" transform="translate(-256 39)" fill="#d3730b"/>
    <path id="Path_667" data-name="Path 667" d="M195.7,371.062a7.316,7.316,0,0,1-1.849-1.435,37.082,37.082,0,0,0-3.84-2.959,9.934,9.934,0,0,1-2.995-2.509c1.281-.07,2.666.9,3.911,1.407a11.945,11.945,0,0,1,4.1,2.384c.435.417,1.518,1.46,1.631,2.219C196.732,370.655,196.11,371.423,195.7,371.062Z" transform="translate(-256 39)" fill="#edc89f" opacity="0.61"/>
    <path id="Path_668" data-name="Path 668" d="M138.282,413.984a10.755,10.755,0,0,0,5.716,1.4,6.428,6.428,0,0,0,2.817-1.043,21.589,21.589,0,0,0,5.06-5.4c1.978-2.753,3.763-6.535,3.491-9.445a3.326,3.326,0,0,0-1.309-2.22c-.963-.625-2.652,0-3.851.378-1.557.493-6.551,4.472-7.906,5.7-2.3,2.093-4.488,4.094-5.121,6.591C136.964,410.8,136.443,413.227,138.282,413.984Z" transform="translate(-256 39)" fill="#ed8f20"/>
    <path id="Path_669" data-name="Path 669" d="M137.005,411.142c.966,1.277,3.122,1.25,4.87.848q1.2-.276,2.4-.557a3.3,3.3,0,0,0,2.133-1.062,41.5,41.5,0,0,0,6.978-8.993,15.173,15.173,0,0,0,.777-2,5.588,5.588,0,0,1,.5-1.524,2.54,2.54,0,0,0-.6-.573c-.963-.625-2.652,0-3.851.378-1.557.493-6.551,4.472-7.906,5.7-2.3,2.093-4.488,4.094-5.121,6.591a7.616,7.616,0,0,0-.213,1.209Z" transform="translate(-256 39)" fill="none"/>
    <path id="Path_670" data-name="Path 670" d="M154.158,399.374a15.173,15.173,0,0,1-.777,2,41.5,41.5,0,0,1-6.978,8.993,3.3,3.3,0,0,1-2.133,1.062q-1.2.28-2.4.557c-1.748.4-3.9.429-4.87-.848l-.039.016a2.531,2.531,0,0,0,1.316,2.826,10.667,10.667,0,0,0,5.716,1.4,6.428,6.428,0,0,0,2.817-1.043,21.589,21.589,0,0,0,5.06-5.4c1.978-2.753,3.763-6.535,3.491-9.445a3.415,3.415,0,0,0-.708-1.647A5.588,5.588,0,0,0,154.158,399.374Z" transform="translate(-256 39)" fill="#d3730b"/>
    <path id="Path_671" data-name="Path 671" d="M139.4,408.227a7.348,7.348,0,0,1,1.633-1.677,37.149,37.149,0,0,0,3.369-3.485,9.921,9.921,0,0,1,2.827-2.7c-.073,1.281-1.187,2.55-1.834,3.73a11.941,11.941,0,0,1-2.827,3.805,5.558,5.558,0,0,1-2.387,1.374C139.691,409.3,139,408.591,139.4,408.227Z" transform="translate(-256 39)" fill="#edc89f" opacity="0.61"/>
    <path id="Path_672" data-name="Path 672" d="M184.194,394.066a6.968,6.968,0,0,0-1.495-.238c-.363,2.335-1.107,5.123-3.991,5.4-1.881.181-3.814-2.216-2.777-5.286l-.373-.27a5.856,5.856,0,0,0-1.762.1c.591,3.2.6,7.312,4.84,6.62,2.023-.331,3.256-.755,4.444-2.521a9.682,9.682,0,0,0,1.487-3.536C184.587,394.094,184.223,394.272,184.194,394.066Z" transform="translate(-256 39)" fill="#c8a3e8"/>
    <path id="Path_673" data-name="Path 673" d="M184.567,394.335a7.029,7.029,0,0,0-1.495-.237c-.364,2.335-1.108,5.122-3.991,5.4-2.235.214-4.234-2.78-3.15-5.556a5.855,5.855,0,0,0-1.762.1c.59,3.2.6,7.311,4.839,6.62,2.024-.331,3.257-.756,4.445-2.522A6.552,6.552,0,0,0,184.567,394.335Z" transform="translate(-256 39)" fill="#e4dcea"/>
    <path id="Path_674" data-name="Path 674" d="M175.586,399.466c.076-.066.154-.135.233-.206a4.028,4.028,0,0,1,.98-.715,4.052,4.052,0,0,1-.532-.7c-.441.07-.881.153-1.318.238A5.234,5.234,0,0,0,175.586,399.466Z" transform="translate(-256 39)" fill="none"/>
    <path id="Path_675" data-name="Path 675" d="M176.036,399.5c-.087.078-.171.153-.255.224a2.709,2.709,0,0,0,1.667.953l-.091-.021a2.048,2.048,0,0,1,.427-.725,2.4,2.4,0,0,0,.352-.541,3.026,3.026,0,0,1-1.118-.642l.015.043A3.31,3.31,0,0,0,176.036,399.5Z" transform="translate(-256 39)" fill="none"/>
    <path id="Path_676" data-name="Path 676" d="M178.041,400.133a1.931,1.931,0,0,0-.36.58,4.912,4.912,0,0,0,1.327-.051l.146-.025-.183-1.139a2.455,2.455,0,0,1-.515-.032A2.489,2.489,0,0,1,178.041,400.133Z" transform="translate(-256 39)" fill="none"/>
    <path id="Path_677" data-name="Path 677" d="M174.441,394.828a2.15,2.15,0,0,0,1.213.292,4.4,4.4,0,0,1,.277-1.179,5.855,5.855,0,0,0-1.762.1c.054.3.1.6.153.913Z" transform="translate(-256 39)" fill="none"/>
    <path id="Path_678" data-name="Path 678" d="M174.5,396.079a6.855,6.855,0,0,1,1.19.177,4.445,4.445,0,0,1-.06-.812,2.776,2.776,0,0,1-1.276-.282C174.4,395.467,174.45,395.774,174.5,396.079Z" transform="translate(-256 39)" fill="none"/>
    <path id="Path_679" data-name="Path 679" d="M174.856,397.774c.414-.082.83-.161,1.249-.229a4.477,4.477,0,0,1-.346-.941,7.729,7.729,0,0,0-1.2-.2C174.641,396.876,174.736,397.337,174.856,397.774Z" transform="translate(-256 39)" fill="none"/>
    <path id="Path_680" data-name="Path 680" d="M180.922,400.208a5.9,5.9,0,0,0-.381-1.144,3.477,3.477,0,0,1-.533.234c.129.354.254.718.367,1.082C180.565,400.329,180.746,400.271,180.922,400.208Z" transform="translate(-256 39)" fill="none"/>
    <path id="Path_681" data-name="Path 681" d="M182.949,398.8a6.932,6.932,0,0,0,.5-.664c.034-.051.068-.105.1-.16a3.852,3.852,0,0,0-.866-.768c-.126-.092-.245-.181-.359-.271a5.475,5.475,0,0,1-.516.952,4.674,4.674,0,0,0,.654.539C182.631,398.55,182.8,398.673,182.949,398.8Z" transform="translate(-256 39)" fill="none"/>
    <path id="Path_682" data-name="Path 682" d="M184.264,396.441a6.812,6.812,0,0,0,.265-1.047c-.57-.149-1.114-.311-1.6-.475-.042.213-.089.425-.141.638A4.183,4.183,0,0,1,184.264,396.441Z" transform="translate(-256 39)" fill="none"/>
    <path id="Path_683" data-name="Path 683" d="M182.175,399.539a6.2,6.2,0,0,0-.589-1.347,3.647,3.647,0,0,1-.767.7,6.035,6.035,0,0,1,.408,1.192A4.542,4.542,0,0,0,182.175,399.539Z" transform="translate(-256 39)" fill="none"/>
    <path id="Path_684" data-name="Path 684" d="M183.731,397.676a7.736,7.736,0,0,0,.414-.9,3.779,3.779,0,0,0-1.441-.9c-.071.257-.154.508-.246.754.128.106.269.212.422.322A4.735,4.735,0,0,1,183.731,397.676Z" transform="translate(-256 39)" fill="none"/>
    <path id="Path_685" data-name="Path 685" d="M182.178,398.623a6.351,6.351,0,0,1,.27.692c.1-.084.19-.174.283-.27-.14-.119-.293-.233-.454-.35Z" transform="translate(-256 39)" fill="none"/>
    <path id="Path_686" data-name="Path 686" d="M184.567,394.335a7.029,7.029,0,0,0-1.495-.237c-.026.164-.054.331-.084.5.481.163,1.019.324,1.584.473A3.2,3.2,0,0,0,184.567,394.335Z" transform="translate(-256 39)" fill="none"/>
    <path id="Path_687" data-name="Path 687" d="M180.059,400.459c-.112-.359-.236-.72-.364-1.071a4,4,0,0,1-.4.075l.179,1.117C179.676,400.542,179.872,400.5,180.059,400.459Z" transform="translate(-256 39)" fill="none"/>
    <path id="Path_688" data-name="Path 688" d="M177.784,399.933a2.048,2.048,0,0,0-.427.725l.091.021c.076.014.153.025.233.034a1.931,1.931,0,0,1,.36-.58,2.489,2.489,0,0,0,.415-.667,2.554,2.554,0,0,1-.32-.074A2.4,2.4,0,0,1,177.784,399.933Z" transform="translate(-256 39)" fill="#c8a3e8"/>
    <path id="Path_689" data-name="Path 689" d="M175.586,399.466c.062.09.126.178.2.26.084-.071.168-.146.255-.224a3.31,3.31,0,0,1,1-.709l-.015-.043c-.074-.067-.149-.132-.219-.2a4.028,4.028,0,0,0-.98.715C175.74,399.331,175.662,399.4,175.586,399.466Z" transform="translate(-256 39)" fill="#c8a3e8"/>
    <path id="Path_690" data-name="Path 690" d="M174.949,398.087c.437-.085.877-.168,1.318-.238-.059-.1-.11-.2-.162-.3-.419.068-.835.147-1.249.229C174.886,397.88,174.917,397.984,174.949,398.087Z" transform="translate(-256 39)" fill="#c8a3e8"/>
    <path id="Path_691" data-name="Path 691" d="M174.322,394.955l.033.207a2.776,2.776,0,0,0,1.276.282c0-.107.012-.215.023-.324a2.15,2.15,0,0,1-1.213-.292Z" transform="translate(-256 39)" fill="#c8a3e8"/>
    <path id="Path_692" data-name="Path 692" d="M179.474,400.58l-.179-1.117c-.072.011-.139.027-.214.034-.037,0-.073,0-.11,0l.183,1.139Z" transform="translate(-256 39)" fill="#c8a3e8"/>
    <path id="Path_693" data-name="Path 693" d="M174.557,396.4a7.729,7.729,0,0,1,1.2.2c-.028-.114-.049-.23-.068-.348a6.855,6.855,0,0,0-1.19-.177C174.519,396.188,174.538,396.3,174.557,396.4Z" transform="translate(-256 39)" fill="#c8a3e8"/>
    <path id="Path_694" data-name="Path 694" d="M181.227,400.088a6.035,6.035,0,0,0-.408-1.192c-.089.06-.182.116-.278.168a5.9,5.9,0,0,1,.381,1.144C181.026,400.17,181.128,400.13,181.227,400.088Z" transform="translate(-256 39)" fill="#c8a3e8"/>
    <path id="Path_695" data-name="Path 695" d="M184.572,395.069c-.565-.149-1.1-.31-1.584-.473-.019.107-.039.215-.061.323.488.164,1.032.326,1.6.475C184.548,395.284,184.562,395.175,184.572,395.069Z" transform="translate(-256 39)" fill="#c8a3e8"/>
    <path id="Path_696" data-name="Path 696" d="M180.375,400.38c-.113-.364-.238-.728-.367-1.082-.1.034-.205.063-.313.09.128.351.252.712.364,1.071C180.167,400.434,180.272,400.408,180.375,400.38Z" transform="translate(-256 39)" fill="#c8a3e8"/>
    <path id="Path_697" data-name="Path 697" d="M184.145,396.774c.042-.109.082-.221.119-.333a4.183,4.183,0,0,0-1.478-.884c-.026.1-.052.21-.082.315A3.779,3.779,0,0,1,184.145,396.774Z" transform="translate(-256 39)" fill="#c8a3e8"/>
    <path id="Path_698" data-name="Path 698" d="M183.555,397.98c.06-.1.119-.2.176-.3a4.735,4.735,0,0,0-.851-.728c-.153-.11-.294-.216-.422-.322-.04.107-.083.212-.128.315.114.09.233.179.359.271A3.852,3.852,0,0,1,183.555,397.98Z" transform="translate(-256 39)" fill="#c8a3e8"/>
    <path id="Path_699" data-name="Path 699" d="M182.448,399.315a6.351,6.351,0,0,0-.27-.692l.1.072c.161.117.314.231.454.35.073-.076.146-.157.218-.241-.153-.131-.318-.254-.481-.372a4.674,4.674,0,0,1-.654-.539c-.071.1-.148.2-.228.3a6.2,6.2,0,0,1,.589,1.347C182.267,399.469,182.358,399.394,182.448,399.315Z" transform="translate(-256 39)" fill="#c8a3e8"/>
    <path id="Path_728" data-name="Path 728" d="M198.428,372.882a7.018,7.018,0,0,0,.472,1.438c2.243-.744,5.062-1.357,6.627,1.08,1.02,1.591-.227,4.406-3.431,4.888l-.07.455a5.886,5.886,0,0,0,.9,1.521c2.577-1.99,6.226-3.881,3.674-7.331-1.22-1.649-2.161-2.552-4.275-2.8a9.659,9.659,0,0,0-3.824.294C198.274,372.52,198.6,372.762,198.428,372.882Z" transform="translate(-256 39)" fill="#c8a3e8"/>
    <path id="Path_729" data-name="Path 729" d="M198.5,372.427a7.059,7.059,0,0,0,.472,1.438c2.243-.744,5.063-1.357,6.627,1.081,1.213,1.889-.536,5.036-3.5,5.342a5.84,5.84,0,0,0,.9,1.521c2.576-1.99,6.226-3.88,3.673-7.331-1.219-1.649-2.161-2.551-4.274-2.8A6.558,6.558,0,0,0,198.5,372.427Z" transform="translate(-256 39)" fill="#e4dcea"/>
    <path id="Path_738" data-name="Path 738" d="M200.508,371.734a6.622,6.622,0,0,0-1.052.243c.128.575.233,1.132.31,1.641q.312-.09.632-.165A4.2,4.2,0,0,1,200.508,371.734Z" transform="translate(-256 39)" fill="none"/>
    <path id="Path_742" data-name="Path 742" d="M198.5,372.427a7.059,7.059,0,0,0,.472,1.438q.237-.078.482-.153c-.075-.5-.178-1.054-.3-1.625A3.124,3.124,0,0,0,198.5,372.427Z" transform="translate(-256 39)" fill="none"/>
    <path id="Path_751" data-name="Path 751" d="M199.147,372.087c.126.571.229,1.123.3,1.625l.315-.094c-.077-.509-.182-1.066-.31-1.641C199.35,372.011,199.246,372.047,199.147,372.087Z" transform="translate(-256 39)" fill="#c8a3e8"/>
    <path id="Path_756" data-name="Path 756" d="M138.4,383.543a10.588,10.588,0,0,1,1.3-8.314c1.885-2.764,6.114-2.727,7.45-5.962,1.21-2.931-.5-6.738,1.4-9.535s6.452-1.1,8.359-3.5c.784-.986.77-3.131,1.321-4.313A20.627,20.627,0,0,1,167.1,342.8c4.337-2.065,12.534-2.043,16.037,1.574,3.307,3.417-.077,6.826-1.013,10.351a9.066,9.066,0,0,0,.369,4.74,11.663,11.663,0,0,1,.032,4.783c-.354,2.345-1.445,5.661-3.233,7.168-2.122,1.786-4.986.774-7.457.758-3.914-.025-4.362,3.579-6.045,6.537-2.375,4.171-5.81,7.076-11,5.394C150.422,382.689,141.624,379.706,138.4,383.543Z" transform="translate(-256 39)" fill="#9aaf1c"/>
    <path id="Path_757" data-name="Path 757" d="M166.382,356.34a18.48,18.48,0,0,1-1.679,3.712c-.056.027-.116.051-.169.083l.106.012a8.847,8.847,0,0,1-1.226,1.484c.349-1.815-.058-4.361.241-5.512.558-2.149,2.08-3.934,2.465-6.264-.76,2.006-2.172,4.2-2.93,6.394a13.947,13.947,0,0,0-.282,5.846c-.185.158-.368.316-.577.473-1.447,1.085-2.948,1.62-3.928,3.065-1.774,2.616-2.317,5.911-4.2,8.5-.054.074-.106.137-.159.207.216-1.867-.6-4.541-.45-5.784.275-2.2,1.552-4.17,1.631-6.53-.493,2.087-1.609,4.443-2.075,6.72-.423,2.068.1,4.036.526,6.058-1.983,2.366-3.679,2.276-6.873,2.651a13.6,13.6,0,0,0-7.881,3.173c4.106-1.515,8.189-.8,11.568-2.419a13.875,13.875,0,0,0,5.838-.041c2.227-.665,4.474-1.986,6.51-2.661-2.344.288-4.191,1.734-6.361,2.2-1.063.229-3.267-.179-5.035-.042,3.02-1.933,4.684-4.958,6.192-8.051,2.043.25,4.042.586,6.055-.016,2.228-.665,4.475-1.986,6.51-2.661-2.343.288-4.19,1.734-6.36,2.2-1.273.275-4.185-.368-6.02.111a18.817,18.817,0,0,1,3.2-4.7c1.344-1.411,2.947-1.752,4.283-2.883a6.722,6.722,0,0,0,1.165-1.3,11.377,11.377,0,0,0,4.681-.183c2.228-.665,4.475-1.986,6.511-2.661-2.344.288-4.191,1.733-6.361,2.2a37.018,37.018,0,0,1-4.383-.071c1.08-1.865,1.723-4.09,3.377-5.705,1.249-1.219,2.7-2.1,3.938-3.293a8.234,8.234,0,0,1,2.843-2.2C173.318,345.984,167.442,353.428,166.382,356.34Z" transform="translate(-256 39)" fill="#7d871b"/>
    <circle id="Ellipse_39" data-name="Ellipse 39" cx="20.641" cy="20.641" r="20.641" transform="translate(-124.373 357.055)" fill="#c43d33"/>
    <circle id="Ellipse_40" data-name="Ellipse 40" cx="18.819" cy="18.819" r="18.819" transform="translate(-129.534 383.835) rotate(-58.064)" fill="#f46653"/>
    <path id="Path_758" data-name="Path 758" d="M151.494,339.576c-.029-3.952-1.388-12.922-6.336-13.812-3.44-.618-7.176,4.4-8.2,7.146-1.078,2.9-1.881,9.588.91,11.711C141.682,347.521,147.9,342.088,151.494,339.576Z" transform="translate(-256 39)" fill="#c43d33"/>
    <path id="Path_759" data-name="Path 759" d="M151.634,339.343c.1-2.626-4.154-5.209-5.568-2.237C144.4,340.6,150.515,338.744,151.634,339.343Z" transform="translate(-256 39)" fill="#f46653"/>
    <path id="Path_760" data-name="Path 760" d="M146.122,332.073c-1.537-1.049-1.452-3.159-.78-2.927.52.179.767,2.481.78,2.927" transform="translate(-256 39)" fill="#f9dc62"/>
    <path id="Path_761" data-name="Path 761" d="M143.826,335.087c-1.765.59-3.393-.754-2.8-1.149.457-.306,2.439.89,2.8,1.149" transform="translate(-256 39)" fill="#f9dc62"/>
    <path id="Path_762" data-name="Path 762" d="M143.706,340.335c-.943,1.605-3.053,1.661-2.867.975.144-.531,2.423-.932,2.867-.975" transform="translate(-256 39)" fill="#f9dc62"/>
    <path id="Path_763" data-name="Path 763" d="M152.962,338.387c3.6,1.634,12.306,4.167,15.191.048,2.006-2.864-.974-8.361-3.039-10.444-2.177-2.2-7.908-5.735-11.006-4.093C149.877,326.141,152.193,334.07,152.962,338.387Z" transform="translate(-256 39)" fill="#c43d33"/>
    <path id="Path_764" data-name="Path 764" d="M153.115,338.612c2.34,1.194,6.471-1.584,4.368-4.116C155.008,331.517,154.129,337.847,153.115,338.612Z" transform="translate(-256 39)" fill="#f46653"/>
    <path id="Path_765" data-name="Path 765" d="M162.026,336.661c1.6-.955,3.475.008,2.982.521-.381.4-2.572-.346-2.982-.521" transform="translate(-256 39)" fill="#f9dc62"/>
    <path id="Path_766" data-name="Path 766" d="M160.256,333.31c.206-1.85,2.108-2.764,2.219-2.061.085.544-1.832,1.84-2.219,2.061" transform="translate(-256 39)" fill="#f9dc62"/>
    <path id="Path_767" data-name="Path 767" d="M155.546,331c-1.06-1.53-.226-3.469.319-3.012.422.353-.172,2.591-.319,3.012" transform="translate(-256 39)" fill="#f9dc62"/>
    <path id="Path_768" data-name="Path 768" d="M153.737,339.659c-3.512,1.811-10.9,7.074-9.454,11.89,1,3.35,7.166,4.418,10.08,4.089,3.072-.347,9.4-2.651,10.033-6.1C165.259,344.827,157.6,341.731,153.737,339.659Z" transform="translate(-256 39)" fill="#c43d33"/>
    <path id="Path_769" data-name="Path 769" d="M153.466,339.639c-2.388,1.1-2.768,6.06.522,5.979C157.86,345.522,153.437,340.909,153.466,339.639Z" transform="translate(-256 39)" fill="#f46653"/>
    <path id="Path_770" data-name="Path 770" d="M149.473,347.841c-.24,1.845-2.159,2.722-2.257,2.018-.075-.546,1.866-1.805,2.257-2.018" transform="translate(-256 39)" fill="#f9dc62"/>
    <path id="Path_771" data-name="Path 771" d="M153.2,348.529c1.325,1.308.862,3.367.243,3.019-.48-.27-.31-2.579-.243-3.019" transform="translate(-256 39)" fill="#f9dc62"/>
    <path id="Path_772" data-name="Path 772" d="M157.935,346.266c1.857.117,2.862,1.974,2.166,2.118-.539.112-1.927-1.741-2.166-2.118" transform="translate(-256 39)" fill="#f9dc62"/>
    <circle id="Ellipse_41" data-name="Ellipse 41" cx="20.641" cy="20.641" r="20.641" transform="translate(-135.74 390.168)" fill="#c43d33"/>
    <circle id="Ellipse_42" data-name="Ellipse 42" cx="18.819" cy="18.819" r="18.819" transform="translate(-140.902 416.948) rotate(-58.064)" fill="#f46653"/>
    <path id="Path_773" data-name="Path 773" d="M140.127,372.689c-.029-3.953-1.389-12.922-6.336-13.812-3.441-.618-7.176,4.4-8.2,7.146-1.078,2.9-1.881,9.588.91,11.711C130.315,380.634,136.534,375.2,140.127,372.689Z" transform="translate(-256 39)" fill="#c43d33"/>
    <path id="Path_774" data-name="Path 774" d="M140.267,372.456c.1-2.626-4.155-5.21-5.568-2.237C133.036,373.717,139.147,371.857,140.267,372.456Z" transform="translate(-256 39)" fill="#f46653"/>
    <path id="Path_775" data-name="Path 775" d="M134.755,365.185c-1.537-1.048-1.453-3.158-.781-2.927.521.18.768,2.481.781,2.927" transform="translate(-256 39)" fill="#f9dc62"/>
    <path id="Path_776" data-name="Path 776" d="M132.458,368.2c-1.764.59-3.392-.754-2.8-1.149.457-.306,2.438.89,2.8,1.149" transform="translate(-256 39)" fill="#f9dc62"/>
    <path id="Path_777" data-name="Path 777" d="M132.338,373.447c-.943,1.605-3.052,1.662-2.866.976.144-.532,2.423-.932,2.866-.976" transform="translate(-256 39)" fill="#f9dc62"/>
    <path id="Path_778" data-name="Path 778" d="M141.6,371.5c3.6,1.633,12.306,4.166,15.19.048,2.007-2.864-.973-8.362-3.038-10.444-2.177-2.2-7.908-5.735-11.006-4.093C138.509,359.254,140.826,367.183,141.6,371.5Z" transform="translate(-256 39)" fill="#c43d33"/>
    <path id="Path_779" data-name="Path 779" d="M141.748,371.724c2.34,1.2,6.47-1.583,4.368-4.115C143.641,364.63,142.762,370.96,141.748,371.724Z" transform="translate(-256 39)" fill="#f46653"/>
    <path id="Path_780" data-name="Path 780" d="M150.658,369.774c1.6-.955,3.475.007,2.983.521-.381.4-2.573-.346-2.983-.521" transform="translate(-256 39)" fill="#f9dc62"/>
    <path id="Path_781" data-name="Path 781" d="M148.888,366.423c.206-1.85,2.109-2.764,2.219-2.061.086.544-1.831,1.84-2.219,2.061" transform="translate(-256 39)" fill="#f9dc62"/>
    <path id="Path_782" data-name="Path 782" d="M144.179,364.11c-1.06-1.53-.226-3.47.319-3.013.422.354-.172,2.592-.319,3.013" transform="translate(-256 39)" fill="#f9dc62"/>
    <path id="Path_783" data-name="Path 783" d="M142.37,372.772c-3.512,1.81-10.9,7.074-9.454,11.89,1,3.35,7.166,4.418,10.08,4.089,3.072-.347,9.4-2.651,10.033-6.1C153.892,377.94,146.234,374.843,142.37,372.772Z" transform="translate(-256 39)" fill="#c43d33"/>
    <path id="Path_784" data-name="Path 784" d="M142.1,372.752c-2.387,1.1-2.767,6.059.523,5.978C146.493,378.635,142.07,374.021,142.1,372.752Z" transform="translate(-256 39)" fill="#f46653"/>
    <path id="Path_785" data-name="Path 785" d="M138.106,380.953c-.24,1.846-2.16,2.723-2.257,2.018-.076-.545,1.866-1.8,2.257-2.018" transform="translate(-256 39)" fill="#f9dc62"/>
    <path id="Path_786" data-name="Path 786" d="M141.833,381.642c1.324,1.308.862,3.367.242,3.018-.48-.27-.309-2.578-.242-3.018" transform="translate(-256 39)" fill="#f9dc62"/>
    <path id="Path_787" data-name="Path 787" d="M146.567,379.379c1.858.117,2.863,1.974,2.167,2.118-.54.111-1.927-1.742-2.167-2.118" transform="translate(-256 39)" fill="#f9dc62"/>
    <path id="Path_788" data-name="Path 788" d="M90.193,323.957c-.525-3.726,3.443-7.834,6.357-9.485,7.143-4.047,16.153-4.989,24.145-5.01,13.2-.034,25.357,7.4,33.5,17.509,14.6,18.117,9.489,50.85-16.141,55.251-.939-1.129-.8-2.744-1.131-4.138-1.65-7.006-6.3-13.486-10.9-18.832-4.663-5.42-8.91-10.838-13.244-16.463a29.522,29.522,0,0,0-5.45-5.469c-2.805-2.143-5.742-4.057-8.512-6.227C96.453,329.242,92.236,327.539,90.193,323.957Z" transform="translate(-256 39)" fill="#5b290e"/>
    <circle id="Ellipse_43" data-name="Ellipse 43" cx="20.641" cy="20.641" r="20.641" transform="translate(-158.015 333.244)" fill="#c43d33"/>
    <circle id="Ellipse_44" data-name="Ellipse 44" cx="18.819" cy="18.819" r="18.819" transform="matrix(0.542, -0.84, 0.84, 0.542, -163.266, 359.621)" fill="#f46653"/>
    <path id="Path_789" data-name="Path 789" d="M117.853,315.765c-.03-3.953-1.389-12.923-6.336-13.812-3.441-.619-7.176,4.4-8.2,7.145-1.078,2.9-1.881,9.589.909,11.712C108.04,323.71,114.26,318.276,117.853,315.765Z" transform="translate(-256 39)" fill="#c43d33"/>
    <path id="Path_790" data-name="Path 790" d="M117.992,315.532c.1-2.626-4.154-5.21-5.567-2.237C110.762,316.793,116.873,314.933,117.992,315.532Z" transform="translate(-256 39)" fill="#f46653"/>
    <path id="Path_791" data-name="Path 791" d="M112.481,308.261c-1.538-1.049-1.453-3.158-.781-2.927.521.179.767,2.481.781,2.927" transform="translate(-256 39)" fill="#f9dc62"/>
    <path id="Path_792" data-name="Path 792" d="M110.184,311.275c-1.765.591-3.392-.753-2.8-1.148.458-.307,2.439.889,2.8,1.148" transform="translate(-256 39)" fill="#f9dc62"/>
    <path id="Path_793" data-name="Path 793" d="M110.064,316.523c-.943,1.6-3.053,1.662-2.867.975.144-.531,2.423-.932,2.867-.975" transform="translate(-256 39)" fill="#f9dc62"/>
    <path id="Path_794" data-name="Path 794" d="M119.321,314.575c3.6,1.634,12.305,4.167,15.19.049,2.006-2.864-.974-8.362-3.039-10.444-2.176-2.2-7.907-5.735-11-4.093C116.235,302.33,118.551,310.258,119.321,314.575Z" transform="translate(-256 39)" fill="#c43d33"/>
    <path id="Path_795" data-name="Path 795" d="M119.473,314.8c2.34,1.194,6.471-1.584,4.368-4.115C121.366,307.706,120.487,314.036,119.473,314.8Z" transform="translate(-256 39)" fill="#f46653"/>
    <path id="Path_796" data-name="Path 796" d="M128.384,312.85c1.6-.956,3.475.007,2.983.52-.381.4-2.573-.346-2.983-.52" transform="translate(-256 39)" fill="#f9dc62"/>
    <path id="Path_797" data-name="Path 797" d="M126.614,309.5c.206-1.85,2.109-2.763,2.219-2.061.085.544-1.832,1.841-2.219,2.061" transform="translate(-256 39)" fill="#f9dc62"/>
    <path id="Path_798" data-name="Path 798" d="M121.9,307.185c-1.06-1.53-.225-3.469.319-3.012.422.354-.172,2.591-.319,3.012" transform="translate(-256 39)" fill="#f9dc62"/>
    <path id="Path_799" data-name="Path 799" d="M120.1,315.847c-3.512,1.811-10.9,7.074-9.453,11.891,1,3.349,7.165,4.418,10.08,4.089,3.072-.348,9.4-2.652,10.033-6.1C131.617,321.015,123.96,317.919,120.1,315.847Z" transform="translate(-256 39)" fill="#c43d33"/>
    <path id="Path_800" data-name="Path 800" d="M119.824,315.828c-2.387,1.1-2.768,6.059.522,5.978C124.218,321.71,119.8,317.1,119.824,315.828Z" transform="translate(-256 39)" fill="#f46653"/>
    <path id="Path_801" data-name="Path 801" d="M115.832,324.029c-.24,1.845-2.16,2.722-2.258,2.018-.075-.545,1.866-1.8,2.258-2.018" transform="translate(-256 39)" fill="#f9dc62"/>
    <path id="Path_802" data-name="Path 802" d="M119.559,324.717c1.324,1.308.862,3.368.242,3.019-.48-.27-.309-2.578-.242-3.019" transform="translate(-256 39)" fill="#f9dc62"/>
    <path id="Path_803" data-name="Path 803" d="M124.293,322.455c1.858.117,2.862,1.973,2.166,2.117-.539.112-1.927-1.741-2.166-2.117" transform="translate(-256 39)" fill="#f9dc62"/>
    <path id="Path_804" data-name="Path 804" d="M89.318,321.75c-.524-3.726,3.443-7.834,6.358-9.485,7.142-4.047,16.152-4.989,24.145-5.01,13.2-.034,25.356,7.4,33.5,17.509,14.6,18.117,9.489,50.85-16.141,55.251-.94-1.129-.8-2.744-1.131-4.138-1.651-7.006-6.3-13.487-10.9-18.832-4.664-5.421-8.911-10.839-13.244-16.463a29.553,29.553,0,0,0-5.45-5.469c-2.805-2.143-5.742-4.057-8.513-6.227C95.579,327.035,91.362,325.332,89.318,321.75Z" transform="translate(-256 39)" fill="#6d3815"/>
    <path id="Path_805" data-name="Path 805" d="M99.568,318.5c1.75-2.112,6.619-1.313,9.027-1.275a33.421,33.421,0,0,1,14.362,4.251c5.227,2.946,11.9,7.664,15.733,12.359,3.159,3.874,4.143,8.518,6.159,12.94.993,2.176,2.568,4.176,2.949,6.578.228,1.433-.115,2.951.07,4.4.342,2.676,1.455,4.162,3.705,2.272.809-.68,1.022-2.925,1.989-3.031,1.582-.173,1.582,2.036,1.754,3.093a5.819,5.819,0,0,1-.331,3.812c-.932,2.109-1.552,3.748-2.33,6.009-1.371,3.99-3.88,3.415-5.464.1-6.375-13.335-16.394-23.81-27.751-33.2-3.636-3.007-7.508-5.823-10.9-9.089-1.853-1.784-4.075-4.078-6.221-5.214" transform="translate(-256 39)" fill="#5e290b"/>
    <path id="Path_806" data-name="Path 806" d="M118.318,312c-1.482,0-3.335-.422-4.567.494,2.5,1.868,7.551,1.129,10.691,1.494a33.589,33.589,0,0,1,7.511,2.226c4.542,1.669,7.786,5.38,11.85,7.819C144.19,312.052,126.316,311.75,118.318,312Z" transform="translate(-256 39)" fill="#5e290b"/>
    <path id="Path_807" data-name="Path 807" d="M158.975,347.2a7.927,7.927,0,0,0-2.316-3.808,3.781,3.781,0,0,0-2.561-.95,5.589,5.589,0,0,0-2.362.666,17.354,17.354,0,0,0-3.339,2.433c-.488.429-.966.874-1.4,1.233l-1.475,1.233a56.082,56.082,0,0,1-5.861,4.542,26.242,26.242,0,0,1-3.178,1.717,8.548,8.548,0,0,1-1.371.529,12.433,12.433,0,0,1,1.348-3.357,42.143,42.143,0,0,1,3.3-4.874,50.412,50.412,0,0,1,3.861-4.486c1.29-1.359,2.995-2.555,4.506-4.294a8.324,8.324,0,0,0,1.829-3.233,12.188,12.188,0,0,0,.311-3.482,7.888,7.888,0,0,0-.92-3.627,3.79,3.79,0,0,0-.779-.94,4.106,4.106,0,0,0-.59-.4,2.835,2.835,0,0,0-.7-.244,7.063,7.063,0,0,0-1.922-.073l-1.576.126a9.09,9.09,0,0,0-1.756.352,9.66,9.66,0,0,0-3.123,1.625,27.978,27.978,0,0,0-4.4,4.679,76.733,76.733,0,0,1-7.989,9.042,10.14,10.14,0,0,1-2.229,1.652,1.421,1.421,0,0,1-.86.175c-.086-.009-.145-.07-.236-.15a1.735,1.735,0,0,1-.227-.393,1.785,1.785,0,0,1,.061-1.023,8.11,8.11,0,0,1,.526-1.3c.43-.9.91-1.782,1.414-2.656s1.036-1.738,1.578-2.6a21.423,21.423,0,0,1,1.765-2.4,31.746,31.746,0,0,1,2.821-2.876c.514-.192,1.056-.356,1.578-.536a7.681,7.681,0,0,0,3.7-2.709,18.489,18.489,0,0,1,2.414-2.073,4.27,4.27,0,0,0,1.739-3.357,6.457,6.457,0,0,0,.793-1.491,4.065,4.065,0,0,0,.24-1.7,3.8,3.8,0,0,0-.211-.974c.036.012.067.035.1.044.005-1.132-.1-1.214-1.04-1.815a5.15,5.15,0,0,0-1.46-.839,1.261,1.261,0,0,0-.533.036c-.059-.005-.119-.015-.177-.017a6.174,6.174,0,0,0-2.79.655c-.11,0-.22-.005-.327,0-3.261.04-5.45,1.809-7.335,4.415-1.155,1.6-1.942,3.256-3.446,4.593-.818.728-3.02,1.781-2.889,3.075l.644.193a30.019,30.019,0,0,1-7.565,5.936,9.406,9.406,0,0,1-1.231.535,2.575,2.575,0,0,1-.75.144.287.287,0,0,1-.026-.084,3.761,3.761,0,0,1-.038-1.077,13.851,13.851,0,0,1,1.694-5.248,23.962,23.962,0,0,1,3.434-4.668,22.059,22.059,0,0,1,2.1-2.032c.758-.666,1.544-1.348,2.313-2.078a18.5,18.5,0,0,0,2.2-2.434,9.05,9.05,0,0,0,.907-1.527,6.349,6.349,0,0,0,.311-.912l.106-.488c.022-.152.039-.281.053-.439a3.35,3.35,0,0,0-.059-1.177,1.8,1.8,0,0,0-.554-.877,2.046,2.046,0,0,0-.693-.38,6.57,6.57,0,0,0-.9-.22,6.389,6.389,0,0,0-.906-.1,12.949,12.949,0,0,0-3.312.359,35.866,35.866,0,0,0-11.595,4.624,27.438,27.438,0,0,0-8.8,8.658l.248.17a28.483,28.483,0,0,1,9.233-7.658,34.148,34.148,0,0,1,5.5-2.363,45.677,45.677,0,0,1,5.807-1.437,10.984,10.984,0,0,1,2.775-.191,4.265,4.265,0,0,1,.613.1c.1.022.258.064.39.1,0,.049-.009.1-.017.156-.127,1.492-1.558,2.931-2.979,4.233-.731.658-1.51,1.29-2.3,1.955a24.858,24.858,0,0,0-2.331,2.2,26.5,26.5,0,0,0-3.876,5.137,15.511,15.511,0,0,0-2.031,6.335,6.119,6.119,0,0,0,.129,1.969,2.978,2.978,0,0,0,.631,1.226,2.6,2.6,0,0,0,1.4.78,4.26,4.26,0,0,0,2.185-.271,11.783,11.783,0,0,0,1.561-.724c3.909-2.068,6.721-5.359,9.4-8.409l8.263-9.036a10.361,10.361,0,0,1,1.1-1.017,6.634,6.634,0,0,1,.564-.364,5.815,5.815,0,0,1,2.916-.928,4.922,4.922,0,0,1,1.531.127,2.533,2.533,0,0,1,.706.839,3.138,3.138,0,0,1,.221,2.587c-.641,1.741-2.256,3.134-3.734,4.481-1.518,1.342-3.121,2.6-4.7,3.917a40.632,40.632,0,0,0-4.545,4.222,23.973,23.973,0,0,0-1.964,2.453c-.585.844-1.163,1.7-1.718,2.569s-1.092,1.764-1.586,2.688a9.61,9.61,0,0,0-.685,1.514,3.337,3.337,0,0,0-.124,1.989,3.279,3.279,0,0,0,.486.955,2.193,2.193,0,0,0,.993.725,3.02,3.02,0,0,0,2.118-.147,11.634,11.634,0,0,0,2.793-1.82,67.012,67.012,0,0,0,8.611-8.957,25.9,25.9,0,0,1,4.1-4.116,7.424,7.424,0,0,1,2.309-1.14,6.361,6.361,0,0,1,1.249-.225l1.481-.089a4.662,4.662,0,0,1,1.131.038l.023.007c-.014-.005.02.035.035.036a1.045,1.045,0,0,1,.177.245,5.335,5.335,0,0,1,.465,2.281,9.42,9.42,0,0,1-.27,2.6,5.463,5.463,0,0,1-1.239,2.011c-1.19,1.346-2.879,2.505-4.45,4.065a51.635,51.635,0,0,0-7.747,10.027,16.649,16.649,0,0,0-1.367,3.087,8.211,8.211,0,0,0-.351,3.775l.178,1.112,1.124.171a6.157,6.157,0,0,0,2.534-.171,11.525,11.525,0,0,0,2.046-.8,29.452,29.452,0,0,0,3.5-1.964,50.681,50.681,0,0,0,6.055-4.967l1.409-1.262c.531-.474.967-.914,1.421-1.339a15.064,15.064,0,0,1,2.728-2.161,3.221,3.221,0,0,1,1.253-.435,1.25,1.25,0,0,1,.929.327,5.667,5.667,0,0,1,1.662,2.583,3.192,3.192,0,0,1,.165,1.385,3.919,3.919,0,0,1-.475,1.422,9.3,9.3,0,0,1-2.28,2.539,71.881,71.881,0,0,1-6.19,4.274c-2.15,1.347-4.307,2.735-6.376,4.26-2.155,1.488-3.732,3.555-5.756,5.035l.162.252c2.239-1.323,3.97-3.258,6.125-4.514,2.13-1.351,4.378-2.514,6.6-3.767a73.407,73.407,0,0,0,6.6-4.041,11.217,11.217,0,0,0,2.935-2.967,6.075,6.075,0,0,0,.843-2.133A5.129,5.129,0,0,0,158.975,347.2Z" transform="translate(-256 39)" fill="#eda921"/>
    <path id="Path_808" data-name="Path 808" d="M89.068,393.5c8.019,17.3,33.086,14.679,44.727,4.977,3.507-2.923,11.859-6.149,10.3-13.027-1.628-7.18-16.211-5.249-21.685-3.883-8.354,2.087-16.662,4.933-24.982,7.212C93.317,389.9,83.714,391.1,89.068,393.5Z" transform="translate(-256 39)" fill="#d2d6ba" style="mix-blend-mode: multiply;isolation: isolate"/>
    <path id="Path_809" data-name="Path 809" d="M100.068,319.25c-4.311-.784-11.4.53-15.834,1.847-6.348,1.888-10.681,9.29-14.047,14.489-4.947,7.641-8.144,15.487-8.795,24.6-.492,6.886,1.192,15.914,4.926,22.068a33.071,33.071,0,0,0,11.743,11.976c6.7,4.274,14.438,7.666,22.455,8.179,11.618.745,28.46-2.875,36.5-11.916,6.982-7.848,8.857-20.771,8.06-30.77-.548-6.858-3.957-12.734-8.1-18.071-3.713-4.781-7.771-10.392-13.2-13.3C115.287,323.8,108.626,319.014,100.068,319.25Z" transform="translate(-256 39)" fill="#ead8be"/>
    <path id="Path_810" data-name="Path 810" d="M95.714,328.446c-3.589-.653-9.494.441-13.181,1.538-5.285,1.572-8.892,7.734-11.694,12.061-4.119,6.361-6.78,12.894-7.322,20.476-.41,5.733.992,13.248,4.1,18.371a27.527,27.527,0,0,0,9.775,9.97c5.577,3.558,12.02,6.382,18.694,6.809,9.672.62,23.692-2.393,30.389-9.92,5.811-6.533,7.373-17.291,6.709-25.615-.456-5.709-3.294-10.6-6.745-15.044-3.09-3.98-6.469-8.65-10.987-11.07C108.383,332.236,102.838,328.25,95.714,328.446Z" transform="translate(-256 39)" fill="#eaab57"/>
    <path id="Path_811" data-name="Path 811" d="M92.426,335.508c-3.223-.587-8.527.4-11.838,1.381-4.746,1.411-7.986,6.945-10.5,10.832A38.08,38.08,0,0,0,63.51,366.11c-.368,5.149.891,11.9,3.683,16.5a24.714,24.714,0,0,0,8.779,8.954c5.009,3.2,10.795,5.731,16.789,6.115,8.687.557,21.278-2.149,27.293-8.909,5.219-5.867,6.622-15.529,6.025-23-.409-5.128-2.958-9.521-6.057-13.512-2.776-3.574-5.81-7.769-9.868-9.942C103.805,338.911,98.825,335.331,92.426,335.508Z" transform="translate(-256 39)" fill="#d8903a"/>
    <path id="Path_812" data-name="Path 812" d="M90.246,348.746c-2.046-.372-5.412.252-7.513.877-3.013.9-5.069,4.408-6.666,6.875a24.176,24.176,0,0,0-4.174,11.671,19.26,19.26,0,0,0,2.338,10.472,15.689,15.689,0,0,0,5.572,5.683A23.036,23.036,0,0,0,90.458,388.2c5.514.353,13.5-1.364,17.322-5.655,3.313-3.723,4.2-9.856,3.825-14.6-.26-3.255-1.878-6.043-3.845-8.576-1.761-2.268-3.687-4.93-6.262-6.309C97.468,350.906,94.307,348.634,90.246,348.746Z" transform="translate(-256 39)" fill="#cc7e29"/>
    <path id="Path_813" data-name="Path 813" d="M82.613,347.889c-.063-2.049.283-5.9,2.248-7.159a.428.428,0,0,1,.648.358,16.693,16.693,0,0,1-1.648,7.666c-.262-.12-1.067,1.467-1.248-.865" transform="translate(-256 39)" fill="#f9f5cf"/>
    <path id="Path_814" data-name="Path 814" d="M83.687,351.957c1.675-1.183,5.078-3.018,7.212-2.073a.428.428,0,0,1,.058.738,16.666,16.666,0,0,1-7.3,2.852c-.044-.284-1.812-.081.033-1.517" transform="translate(-256 39)" fill="#f9f5cf"/>
    <path id="Path_816" data-name="Path 816" d="M82.084,358.876c1.838.909,5.073,3.026,5.26,5.352a.428.428,0,0,1-.621.4,16.664,16.664,0,0,1-5.989-5.06c.229-.175-.793-1.632,1.35-.7" transform="translate(-256 39)" fill="#f9f5cf"/>
    <path id="Path_817" data-name="Path 817" d="M100.655,348.315c-1.941-.661-5.426-2.336-5.916-4.618a.429.429,0,0,1,.564-.481,16.688,16.688,0,0,1,6.6,4.233c-.2.2,1,1.514-1.247.866" transform="translate(-256 39)" fill="#f9f5cf"/>
    <path id="Path_818" data-name="Path 818" d="M111.3,387.235c-.519-1.983-1.043-5.814.591-7.481a.429.429,0,0,1,.712.205,16.7,16.7,0,0,1,.107,7.84c-.282-.059-.712,1.669-1.41-.564" transform="translate(-256 39)" fill="#f9f5cf"/>
    <path id="Path_819" data-name="Path 819" d="M106.635,375.48c-1.941-.661-5.425-2.336-5.915-4.618a.428.428,0,0,1,.563-.481,16.673,16.673,0,0,1,6.6,4.233c-.2.2,1,1.514-1.247.866" transform="translate(-256 39)" fill="#f9f5cf"/>
    <path id="Path_820" data-name="Path 820" d="M108.726,362.447c1.5-1.4,4.613-3.689,6.858-3.048a.428.428,0,0,1,.159.723,16.669,16.669,0,0,1-6.84,3.832c-.083-.275-1.806.17-.177-1.507" transform="translate(-256 39)" fill="#f9f5cf"/>
    <path id="Path_821" data-name="Path 821" d="M101.245,355.431c2.028-.3,5.893-.4,7.372,1.4a.429.429,0,0,1-.281.686,16.668,16.668,0,0,1-7.8-.748c.088-.274-1.582-.889.713-1.34" transform="translate(-256 39)" fill="#f9f5cf"/>
    <path id="Path_822" data-name="Path 822" d="M98.876,367.3c1.674-1.183,5.078-3.017,7.212-2.073a.429.429,0,0,1,.058.739,16.7,16.7,0,0,1-7.3,2.852c-.045-.285-1.812-.081.033-1.518" transform="translate(-256 39)" fill="#f9f5cf"/>
    <path id="Path_823" data-name="Path 823" d="M90.324,372.307c-.062-2.049.284-5.9,2.248-7.16a.43.43,0,0,1,.649.359,16.689,16.689,0,0,1-1.648,7.665c-.262-.119-1.067,1.468-1.249-.864" transform="translate(-256 39)" fill="#f9f5cf"/>
    <path id="Path_825" data-name="Path 825" d="M95.881,338.3c-.063-2.049.282-5.9,2.247-7.16a.43.43,0,0,1,.649.359,16.689,16.689,0,0,1-1.648,7.665c-.262-.119-1.067,1.468-1.248-.864" transform="translate(-256 39)" fill="#f9f5cf"/>
    <path id="Path_827" data-name="Path 827" d="M81.533,369.648c1.278-.9,3.876-2.3,5.505-1.582a.326.326,0,0,1,.045.563,12.722,12.722,0,0,1-5.575,2.177c-.034-.217-1.383-.062.025-1.158" transform="translate(-256 39)" fill="#f9f5cf"/>
    <path id="Path_829" data-name="Path 829" d="M79.994,372.046c1.4.694,3.872,2.31,4.015,4.085a.327.327,0,0,1-.474.308,12.73,12.73,0,0,1-4.571-3.862c.175-.134-.6-1.246,1.03-.531" transform="translate(-256 39)" fill="#f9f5cf"/>
    <path id="Path_830" data-name="Path 830" d="M91.5,339.076c-1.481-.5-4.141-1.783-4.515-3.524a.327.327,0,0,1,.43-.367,12.732,12.732,0,0,1,5.037,3.23c-.156.156.763,1.156-.952.661" transform="translate(-256 39)" fill="#f9f5cf"/>
    <path id="Path_831" data-name="Path 831" d="M115.378,375.946c-.4-1.514-.8-4.438.451-5.71a.328.328,0,0,1,.544.156,12.754,12.754,0,0,1,.082,5.984c-.216-.045-.544,1.273-1.077-.43" transform="translate(-256 39)" fill="#f9f5cf"/>
    <path id="Path_832" data-name="Path 832" d="M100.608,390.726c-1.481-.5-4.141-1.783-4.515-3.525a.328.328,0,0,1,.431-.367,12.73,12.73,0,0,1,5.036,3.231c-.155.155.763,1.155-.952.661" transform="translate(-256 39)" fill="#f9f5cf"/>
    <path id="Path_833" data-name="Path 833" d="M128.386,361.29c1.548-.229,4.5-.307,5.627,1.071a.327.327,0,0,1-.215.523,12.724,12.724,0,0,1-5.957-.571c.068-.209-1.207-.679.545-1.023" transform="translate(-256 39)" fill="#f9f5cf"/>
    <path id="Path_834" data-name="Path 834" d="M92.811,378.475c1.278-.9,3.876-2.3,5.505-1.582a.327.327,0,0,1,.044.564,12.738,12.738,0,0,1-5.574,2.177c-.034-.218-1.383-.062.025-1.159" transform="translate(-256 39)" fill="#f9f5cf"/>
    <path id="Path_835" data-name="Path 835" d="M84.76,387.861c-.048-1.564.216-4.5,1.716-5.465a.327.327,0,0,1,.5.273,12.728,12.728,0,0,1-1.258,5.851c-.2-.091-.814,1.12-.953-.659" transform="translate(-256 39)" fill="#f9f5cf"/>
    <path id="Path_837" data-name="Path 837" d="M93.724,358.733c-.048-1.564.216-4.5,1.716-5.465a.328.328,0,0,1,.495.274,12.757,12.757,0,0,1-1.258,5.851c-.2-.092-.815,1.12-.953-.66" transform="translate(-256 39)" fill="#f9f5cf"/>
    <path id="Path_838" data-name="Path 838" d="M115.195,339.523c1.674-1.183,5.078-3.017,7.212-2.073a.429.429,0,0,1,.058.739,16.7,16.7,0,0,1-7.3,2.852c-.044-.285-1.812-.081.033-1.518" transform="translate(-256 39)" fill="#f9f5cf"/>
    <path id="Path_839" data-name="Path 839" d="M104.647,351.819c-.063-2.049.283-5.9,2.248-7.16a.429.429,0,0,1,.648.359,16.676,16.676,0,0,1-1.648,7.665c-.262-.12-1.067,1.467-1.248-.864" transform="translate(-256 39)" fill="#f9f5cf"/>
    <path id="Path_840" data-name="Path 840" d="M113.592,346.442c1.837.909,5.073,3.026,5.26,5.352a.428.428,0,0,1-.621.4,16.664,16.664,0,0,1-5.989-5.06c.229-.175-.793-1.632,1.35-.7" transform="translate(-256 39)" fill="#f9f5cf"/>
    <path id="Path_841" data-name="Path 841" d="M115.818,312.167c.392-.5,2.7-.426,3.421-.583a9.9,9.9,0,0,1,2.233-.25c.264,0,3.043-.226,2.134.815-.345.4-3.584-.115-4.075-.072-.439.039-.864.223-1.34.249C117.511,312.364,116.431,312.085,115.818,312.167Z" transform="translate(-256 39)" fill="#ffc257"/>
    <path id="Path_842" data-name="Path 842" d="M132.068,316.667c-1.09.961-1.619,2.32-2.587,3.355a16.53,16.53,0,0,1-2.031,1.745,6.16,6.16,0,0,0-2.623,3.98,17.119,17.119,0,0,0,2.327-2.387,4.056,4.056,0,0,1,1.14-1.4,11.549,11.549,0,0,0,1.651-1.1c.374-.385.4-.832.636-1.258a4.671,4.671,0,0,1,1.515-1.539c.6-.443,1.674-1.21,1.62-2.048C133.418,316,133.118,315.993,132.068,316.667Z" transform="translate(-256 39)" fill="#ffc257"/>
    <path id="Path_843" data-name="Path 843" d="M145.735,327c2.99-1.016,3.756,1.638,3.75,4.155a6.831,6.831,0,0,1-.382,3.39,5.46,5.46,0,0,1-2.085,1.775c-.163-.619,1.1-1.838,1.306-2.591a10.4,10.4,0,0,0,.162-2.858C148.432,329.686,148.225,327.065,145.735,327Z" transform="translate(-256 39)" fill="#ffc257"/>
    <path id="Path_844" data-name="Path 844" d="M156.068,344.333c1.807,1.663,2.736,4.279,1.419,6.417a8.09,8.09,0,0,1-1.912,2.1c-.589.434-1.534.7-1.952,1.357-.345.545-.253.965.479.845.838-.137,1.884-1.5,2.506-2.006a5.864,5.864,0,0,0,2.212-4.619A4.236,4.236,0,0,0,156.068,344.333Z" transform="translate(-256 39)" fill="#ffc257"/>
    <path id="Path_845" data-name="Path 845" d="M133.068,294c4.675,5.43,16.909,1.811,22.413.556,1.031,6.937,5.276,8.369,11.1,9.344,6,1.005,4.52,1.043,8.22,5.776,5.7,7.291,23.868,6.007,29.2-1.7,4.41-6.373-1.068-20.023-7.522-23.972-5.379-3.291-13.08-2-19.171-2-5.428,0-10.546-.138-15.763.868-7.185,1.386-13.488,3.885-20.981,3.632" transform="translate(-256 39)" fill="#d2d6ba" style="mix-blend-mode: multiply;isolation: isolate"/>
    <path id="Path_846" data-name="Path 846" d="M169.277,285.7a8.588,8.588,0,0,1-4.978,4.666c-2.583.828-5.269-1.3-7.736.1-2.235,1.271-3.037,4.559-5.645,5.4s-4.675-2.51-7.09-1.926c-.992.239-2.053,1.618-2.994,2.1a16.742,16.742,0,0,1-10.219,1.408c-3.8-.841-9.033-4.94-9.469-9-.413-3.834,3.451-4.327,5.806-6.114a7.344,7.344,0,0,0,2.126-3.215,9.456,9.456,0,0,1,2.363-3.074c1.4-1.324,3.746-2.9,5.64-2.972,2.247-.085,3.574,1.989,5.146,3.231,2.49,1.967,4.572-.114,7.123-1.167,3.6-1.483,7.242-1.629,9.724,2.035C161.16,280.25,165.3,286.543,169.277,285.7Z" transform="translate(-256 39)" fill="#c3d32a"/>
    <path id="Path_847" data-name="Path 847" d="M137.823,289.144a15.05,15.05,0,0,1,2.924-1.537c.05.011.1.025.149.032l-.061-.061a7.182,7.182,0,0,1,1.523-.338c-1.127.986-2.136,2.818-2.9,3.4-1.428,1.1-3.291,1.478-4.7,2.776,1.486-.9,3.48-1.6,5.06-2.628a11.307,11.307,0,0,0,3.094-3.6c.2-.009.393-.02.605-.015,1.465.028,2.692.433,4.039,0,2.438-.788,4.427-2.624,6.92-3.343.071-.02.136-.035.2-.053-1.068,1.086-1.876,3.2-2.594,3.923-1.274,1.271-3.071,1.893-4.3,3.362,1.356-1.089,3.243-2.038,4.676-3.262a11.832,11.832,0,0,0,2.683-4.136c2.447-.525,3.487.378,5.716,1.73a11.023,11.023,0,0,0,6.621,1.9c-3.381-1.078-5.637-3.568-8.6-4.219a11.277,11.277,0,0,0-3.754-2.883c-1.756-.684-3.85-.96-5.489-1.543,1.642.984,3.544.98,5.165,1.762.794.383,2,1.743,3.2,2.536-2.9-.269-5.466.836-7.972,2.062a11.763,11.763,0,0,0-3.88-3.008c-1.755-.684-3.85-.96-5.489-1.543,1.642.984,3.544.98,5.165,1.762.951.458,2.493,2.321,3.9,2.929a15.283,15.283,0,0,1-4.385,1.411c-1.563.232-2.757-.348-4.175-.291a5.427,5.427,0,0,0-1.4.253,9.217,9.217,0,0,0-3.085-2.216c-1.756-.685-3.85-.96-5.489-1.543,1.642.984,3.544.98,5.165,1.762a29.718,29.718,0,0,1,2.767,2.229c-1.62.654-3.14,1.756-5,1.965-1.406.157-2.776,0-4.159.143a6.668,6.668,0,0,1-2.912-.014C128.227,292.309,135.694,290.477,137.823,289.144Z" transform="translate(-256 39)" fill="#7d871b"/>
    <path id="Path_848" data-name="Path 848" d="M155.832,281.628a8.59,8.59,0,0,1,3.889-5.606c2.352-1.351,5.425.171,7.543-1.718,1.919-1.712,2.014-5.094,4.387-6.465s5.1,1.474,7.337.4c.92-.442,1.667-2.012,2.487-2.68A15.041,15.041,0,0,1,185.1,263.4a15.211,15.211,0,0,1,6.067-1.368c3.895.025,9.868,2.937,11.146,6.813,1.207,3.662-2.467,4.954-4.4,7.2a7.346,7.346,0,0,0-1.4,3.59,9.455,9.455,0,0,1-1.667,3.5c-1.086,1.586-3.054,3.621-4.891,4.088-2.179.554-3.912-1.2-5.709-2.08-2.847-1.4-4.446,1.07-6.72,2.634-3.206,2.2-6.739,3.111-9.935.048C164.911,285.253,159.544,279.968,155.832,281.628Z" transform="translate(-256 39)" fill="#c3d32a"/>
    <path id="Path_849" data-name="Path 849" d="M185.864,271.665a15.043,15.043,0,0,1-2.537,2.115c-.05,0-.1,0-.152,0l.073.046a7.18,7.18,0,0,1-1.419.65c.9-1.2,1.5-3.2,2.123-3.937,1.166-1.37,2.907-2.136,4.011-3.7-1.263,1.2-3.067,2.3-4.4,3.631a11.3,11.3,0,0,0-2.271,4.166c-.191.05-.38.1-.589.141-1.438.28-2.723.141-3.949.849-2.218,1.282-3.778,3.495-6.065,4.72-.065.034-.125.062-.188.1.817-1.286,1.162-3.528,1.714-4.38.979-1.51,2.606-2.5,3.5-4.189-1.1,1.35-2.743,2.674-3.887,4.171a11.827,11.827,0,0,0-1.757,4.606c-2.283,1.026-3.488.362-5.951-.493a11.018,11.018,0,0,0-6.872-.469c3.531.345,6.259,2.307,9.3,2.322a11.281,11.281,0,0,0,4.275,2.032c1.86.3,3.966.131,5.69.358-1.812-.618-3.67-.216-5.419-.64-.857-.208-2.321-1.285-3.66-1.809,2.887-.344,5.169-1.963,7.363-3.688a11.742,11.742,0,0,0,4.424,2.128c1.86.3,3.966.132,5.69.358-1.812-.618-3.67-.215-5.419-.64-1.026-.249-2.924-1.747-4.432-2.045a15.218,15.218,0,0,1,3.992-2.3c1.479-.555,2.769-.238,4.143-.591a5.414,5.414,0,0,0,1.311-.54,9.233,9.233,0,0,0,3.48,1.521c1.861.3,3.967.131,5.691.357-1.812-.618-3.671-.215-5.419-.639a29.79,29.79,0,0,1-3.173-1.6c1.446-.979,2.7-2.376,4.478-2.97,1.343-.449,2.716-.578,4.038-1.012a6.666,6.666,0,0,1,2.85-.6C194.583,266.558,187.666,269.915,185.864,271.665Z" transform="translate(-256 39)" fill="#7d871b"/>
    <path id="Path_850" data-name="Path 850" d="M151.081,274.955a11.092,11.092,0,0,1,8.732-1.2c3.341,1.056,4.581,5.309,8.228,5.672,3.306.329,6.606-2.538,9.985-1.479s3.054,6.137,6.036,7.326c1.225.488,3.372-.174,4.724.022a21.6,21.6,0,0,1,11.824,6.146c3.381,3.726,5.834,11.953,3.264,16.558-2.428,4.349-6.869,1.984-10.686,2.11a9.479,9.479,0,0,0-4.642,1.8,12.221,12.221,0,0,1-4.787,1.476c-2.459.354-6.115.261-8.165-1.078-2.432-1.589-2.282-4.766-3.012-7.249-1.157-3.933-4.906-3.294-8.381-4.089-4.9-1.122-8.851-3.69-8.732-9.407C155.57,286.759,155.9,277.034,151.081,274.955Z" transform="translate(-256 39)" fill="#9aaf1c"/>
    <path id="Path_851" data-name="Path 851" d="M186.813,294.809a19.383,19.383,0,0,1-4.23-.563c-.044-.048-.087-.1-.134-.145.007.037.013.074.019.11a9.367,9.367,0,0,1-1.858-.781c1.925-.2,4.357-1.376,5.6-1.423,2.323-.089,4.573.9,7.026.58-2.241-.155-4.864-.911-7.3-1.006a14.6,14.6,0,0,0-5.948,1.481c-.214-.138-.428-.273-.649-.435-1.524-1.124-2.515-2.468-4.26-3.015-3.158-.989-6.627-.538-9.791-1.642-.09-.032-.169-.065-.255-.1,1.937-.347,4.371-1.978,5.664-2.2,2.292-.389,4.651.3,7.042-.336-2.243.137-4.942-.272-7.366-.051-2.2.2-4.019,1.314-5.917,2.356-2.971-1.274-3.393-3-4.734-6.092a14.242,14.242,0,0,0-5.561-6.946c2.758,3.661,3.278,7.971,5.918,10.871a14.538,14.538,0,0,0,1.8,5.842c1.34,2.033,3.342,3.888,4.635,5.726-1-2.264-3.005-3.68-4.13-5.714-.551-1-.807-3.331-1.478-5.062,2.85,2.445,6.385,3.2,9.944,3.779.365,2.124.632,4.23,1.843,6.067,1.34,2.033,3.343,3.888,4.635,5.726-1-2.264-3-3.68-4.13-5.714-.66-1.194-.894-4.308-1.929-6a19.718,19.718,0,0,1,5.677,1.787c1.821.922,2.646,2.426,4.184,3.425a6.978,6.978,0,0,0,1.66.774,11.917,11.917,0,0,0,1.6,4.64c1.34,2.033,3.343,3.888,4.635,5.725-1-2.263-3-3.679-4.129-5.713a38.588,38.588,0,0,1-1.253-4.417c2.2.52,4.622.493,6.74,1.664,1.6.884,2.924,2.077,4.493,2.955a8.64,8.64,0,0,1,3.059,2.188C199.293,298.638,190.053,294.993,186.813,294.809Z" transform="translate(-256 39)" fill="#7d871b"/>
    <circle id="Ellipse_45" data-name="Ellipse 45" cx="8.409" cy="8.409" r="8.409" transform="matrix(0.72, -0.694, 0.694, 0.72, -93.351, 320.793)" fill="#c43d33"/>
    <circle id="Ellipse_46" data-name="Ellipse 46" cx="7.667" cy="7.667" r="7.667" transform="translate(-89.078 313.401)" fill="#f46653"/>
    <path id="Path_852" data-name="Path 852" d="M173.917,282.6a.7.7,0,0,0,.294-.609c-.09-1.745-.7-4.9-2.569-5.237-1.4-.252-2.923,1.791-3.34,2.911-.439,1.181-.766,3.907.371,4.772C170.122,285.534,172.426,283.679,173.917,282.6Z" transform="translate(-256 39)" fill="#c43d33"/>
    <path id="Path_853" data-name="Path 853" d="M172.771,282.27c.907.017,1-1.394.1-1.44a.86.86,0,0,0-.856.54C171.664,282.1,172.152,282.258,172.771,282.27Z" transform="translate(-256 39)" fill="#f46653"/>
    <path id="Path_854" data-name="Path 854" d="M172.035,279.319c-.627-.427-.592-1.286-.318-1.192.212.073.312,1.011.318,1.192" transform="translate(-256 39)" fill="#f9dc62"/>
    <path id="Path_855" data-name="Path 855" d="M171.1,280.547c-.719.241-1.382-.307-1.141-.468.186-.125.993.363,1.141.468" transform="translate(-256 39)" fill="#f9dc62"/>
    <path id="Path_856" data-name="Path 856" d="M171.05,282.685c-.384.654-1.243.677-1.168.4.059-.217.987-.38,1.168-.4" transform="translate(-256 39)" fill="#f9dc62"/>
    <path id="Path_857" data-name="Path 857" d="M174.751,281.521a.715.715,0,0,0,.437.527c1.623.65,4.735,1.414,5.822-.137.817-1.166-.4-3.406-1.238-4.255-.887-.894-3.222-2.336-4.484-1.667C173.679,276.842,174.394,279.712,174.751,281.521Z" transform="translate(-256 39)" fill="#c43d33"/>
    <path id="Path_858" data-name="Path 858" d="M175.529,280.616c-.4.816.846,1.5,1.265.692a.861.861,0,0,0-.131-1C176.145,279.684,175.8,280.06,175.529,280.616Z" transform="translate(-256 39)" fill="#f46653"/>
    <path id="Path_859" data-name="Path 859" d="M178.514,281.189c.65-.39,1.415,0,1.215.212-.156.162-1.048-.141-1.215-.212" transform="translate(-256 39)" fill="#f9dc62"/>
    <path id="Path_860" data-name="Path 860" d="M177.792,279.823c.084-.753.859-1.125.9-.839.035.221-.746.749-.9.839" transform="translate(-256 39)" fill="#f9dc62"/>
    <path id="Path_861" data-name="Path 861" d="M175.874,278.881c-.432-.623-.092-1.413.13-1.227.172.144-.07,1.056-.13,1.227" transform="translate(-256 39)" fill="#f9dc62"/>
    <path id="Path_862" data-name="Path 862" d="M175.471,282.584a.713.713,0,0,0-.684.017c-1.516.87-4.045,2.839-3.5,4.653.409,1.364,2.919,1.8,4.106,1.666,1.252-.142,3.83-1.08,4.087-2.486C179.807,284.643,177.112,283.425,175.471,282.584Z" transform="translate(-256 39)" fill="#c43d33"/>
    <path id="Path_863" data-name="Path 863" d="M175.7,283.756c-.394-.817-1.7-.264-1.327.564a.861.861,0,0,0,.867.517C176.049,284.817,175.968,284.312,175.7,283.756Z" transform="translate(-256 39)" fill="#f46653"/>
    <path id="Path_864" data-name="Path 864" d="M173.4,285.743c-.1.752-.88,1.109-.92.822-.03-.222.76-.735.92-.822" transform="translate(-256 39)" fill="#f9dc62"/>
    <path id="Path_865" data-name="Path 865" d="M174.918,286.023c.54.533.351,1.372.1,1.23-.2-.11-.126-1.05-.1-1.23" transform="translate(-256 39)" fill="#f9dc62"/>
    <path id="Path_866" data-name="Path 866" d="M176.847,285.1c.757.047,1.166.8.882.862-.219.046-.785-.709-.882-.862" transform="translate(-256 39)" fill="#f9dc62"/>
    <circle id="Ellipse_47" data-name="Ellipse 47" cx="12.182" cy="12.182" r="12.182" transform="translate(-87.605 345.7) rotate(-47.329)" fill="#c43d33"/>
    <circle id="Ellipse_48" data-name="Ellipse 48" cx="11.107" cy="11.107" r="11.107" transform="translate(-86.026 345.073) rotate(-45)" fill="#f46653"/>
    <path id="Path_867" data-name="Path 867" d="M184.706,306.838a1.034,1.034,0,0,0,.427-.9c-.133-2.53-1.023-7.088-3.721-7.573-2.03-.365-4.235,2.6-4.838,4.217-.636,1.711-1.11,5.659.537,6.912C179.21,311.094,182.546,308.409,184.706,306.838Z" transform="translate(-256 39)" fill="#c43d33"/>
    <path id="Path_868" data-name="Path 868" d="M183.083,306.366a1.047,1.047,0,0,0,.18-2.08,1.249,1.249,0,0,0-1.315.776C181.437,306.137,182.17,306.354,183.083,306.366Z" transform="translate(-256 39)" fill="#f46653"/>
    <path id="Path_869" data-name="Path 869" d="M181.981,302.091c-.907-.619-.857-1.864-.461-1.727.308.1.453,1.464.461,1.727" transform="translate(-256 39)" fill="#f9dc62"/>
    <path id="Path_870" data-name="Path 870" d="M180.626,303.87c-1.042.348-2-.445-1.654-.678.27-.181,1.44.525,1.654.678" transform="translate(-256 39)" fill="#f9dc62"/>
    <path id="Path_871" data-name="Path 871" d="M180.555,306.967c-.557.947-1.8.981-1.692.576.085-.314,1.43-.55,1.692-.576" transform="translate(-256 39)" fill="#f9dc62"/>
    <path id="Path_872" data-name="Path 872" d="M185.916,305.279a1.04,1.04,0,0,0,.635.766c2.351.941,6.859,2.047,8.432-.2,1.184-1.69-.575-4.934-1.793-6.164-1.285-1.3-4.667-3.384-6.5-2.415C184.364,298.5,185.4,302.659,185.916,305.279Z" transform="translate(-256 39)" fill="#c43d33"/>
    <path id="Path_873" data-name="Path 873" d="M187.028,304c-.557,1.163,1.161,2.15,1.812,1.036a1.249,1.249,0,0,0-.154-1.515C187.926,302.607,187.422,303.179,187.028,304Z" transform="translate(-256 39)" fill="#f46653"/>
    <path id="Path_874" data-name="Path 874" d="M191.367,304.8c.942-.564,2.051,0,1.76.307-.225.235-1.518-.2-1.76-.307" transform="translate(-256 39)" fill="#f9dc62"/>
    <path id="Path_875" data-name="Path 875" d="M190.322,302.821c.122-1.092,1.245-1.631,1.31-1.216.05.321-1.081,1.086-1.31,1.216" transform="translate(-256 39)" fill="#f9dc62"/>
    <path id="Path_876" data-name="Path 876" d="M187.543,301.456c-.626-.9-.133-2.047.188-1.778.249.209-.1,1.53-.188,1.778" transform="translate(-256 39)" fill="#f9dc62"/>
    <path id="Path_877" data-name="Path 877" d="M186.961,306.822a1.035,1.035,0,0,0-.994.024c-2.2,1.261-5.858,4.113-5.071,6.74.593,1.977,4.229,2.607,5.949,2.413,1.813-.2,5.548-1.565,5.921-3.6C193.241,309.8,189.338,308.04,186.961,306.822Z" transform="translate(-256 39)" fill="#c43d33"/>
    <path id="Path_878" data-name="Path 878" d="M187.275,308.487c-.568-1.159-2.407-.421-1.937.78a1.25,1.25,0,0,0,1.285.818C187.811,310.056,187.676,309.3,187.275,308.487Z" transform="translate(-256 39)" fill="#f46653"/>
    <path id="Path_879" data-name="Path 879" d="M183.959,311.4c-.142,1.089-1.275,1.607-1.332,1.191-.045-.322,1.1-1.065,1.332-1.191" transform="translate(-256 39)" fill="#f9dc62"/>
    <path id="Path_880" data-name="Path 880" d="M186.158,311.8c.782.772.509,1.988.143,1.782-.283-.16-.182-1.522-.143-1.782" transform="translate(-256 39)" fill="#f9dc62"/>
    <path id="Path_881" data-name="Path 881" d="M188.953,310.468c1.1.069,1.689,1.165,1.278,1.25-.318.066-1.137-1.028-1.278-1.25" transform="translate(-256 39)" fill="#f9dc62"/>
    <circle id="Ellipse_49" data-name="Ellipse 49" cx="12.182" cy="12.182" r="12.182" transform="translate(-121.309 306.322)" fill="#bf9477" opacity="0.4" style="mix-blend-mode: multiply;isolation: isolate"/>
    <path id="Path_882" data-name="Path 882" d="M156.5,273.716a12.29,12.29,0,0,1-16.19,16.19,11.186,11.186,0,0,1-6.17-6.17,12.29,12.29,0,0,1,16.19-16.19A11.186,11.186,0,0,1,156.5,273.716Z" transform="translate(-256 39)" fill="#c43d33"/>
    <path id="Path_883" data-name="Path 883" d="M155.584,274.233a11.206,11.206,0,0,1-14.76,14.76,10.2,10.2,0,0,1-5.629-5.63,11.206,11.206,0,0,1,14.76-14.759A10.2,10.2,0,0,1,155.584,274.233Z" transform="translate(-256 39)" fill="#f46653"/>
    <path id="Path_884" data-name="Path 884" d="M144.86,279.245c-.017-2.332-.819-7.626-3.739-8.151-2.031-.365-4.235,2.594-4.838,4.217-.636,1.711-1.11,5.659.537,6.912C139.069,283.934,142.74,280.728,144.86,279.245Z" transform="translate(-256 39)" fill="#c43d33"/>
    <path id="Path_885" data-name="Path 885" d="M144.94,279.107c.063-1.549-2.449-3.074-3.283-1.319C140.677,279.85,144.274,278.756,144.94,279.107Z" transform="translate(-256 39)" fill="#f46653"/>
    <path id="Path_886" data-name="Path 886" d="M141.69,274.817c-.907-.619-.857-1.864-.461-1.728.308.106.453,1.465.461,1.728" transform="translate(-256 39)" fill="#f9dc62"/>
    <path id="Path_887" data-name="Path 887" d="M140.335,276.6c-1.042.348-2-.445-1.654-.678.27-.181,1.439.525,1.654.678" transform="translate(-256 39)" fill="#f9dc62"/>
    <path id="Path_888" data-name="Path 888" d="M140.264,279.693c-.557.947-1.8.981-1.692.576.085-.314,1.43-.551,1.692-.576" transform="translate(-256 39)" fill="#f9dc62"/>
    <path id="Path_889" data-name="Path 889" d="M145.727,278.543c2.123.964,7.262,2.46,8.965.029,1.184-1.69-.575-4.935-1.793-6.164-1.285-1.3-4.667-3.385-6.5-2.415C143.906,271.316,145.273,276,145.727,278.543Z" transform="translate(-256 39)" fill="#c43d33"/>
    <path id="Path_890" data-name="Path 890" d="M145.816,278.676c1.38.705,3.82-.934,2.579-2.429C146.933,274.488,146.414,278.23,145.816,278.676Z" transform="translate(-256 39)" fill="#f46653"/>
    <path id="Path_891" data-name="Path 891" d="M151.076,277.525c.942-.564,2.051,0,1.76.307-.225.235-1.518-.2-1.76-.307" transform="translate(-256 39)" fill="#f9dc62"/>
    <path id="Path_892" data-name="Path 892" d="M150.031,275.547c.122-1.092,1.245-1.631,1.31-1.216.05.321-1.081,1.086-1.31,1.216" transform="translate(-256 39)" fill="#f9dc62"/>
    <path id="Path_893" data-name="Path 893" d="M147.252,274.182c-.626-.9-.133-2.047.188-1.778.249.209-.1,1.529-.188,1.778" transform="translate(-256 39)" fill="#f9dc62"/>
    <path id="Path_894" data-name="Path 894" d="M146.184,279.294c-2.073,1.069-6.431,4.175-5.579,7.017.592,1.977,4.229,2.608,5.949,2.414,1.813-.205,5.548-1.565,5.921-3.6C152.984,282.344,148.464,280.517,146.184,279.294Z" transform="translate(-256 39)" fill="#c43d33"/>
    <path id="Path_895" data-name="Path 895" d="M146.024,279.279c-1.409.648-1.634,3.58.308,3.532C148.621,282.754,146,280.023,146.024,279.279Z" transform="translate(-256 39)" fill="#f46653"/>
    <path id="Path_896" data-name="Path 896" d="M143.668,284.123c-.142,1.089-1.275,1.606-1.332,1.191-.045-.322,1.1-1.065,1.332-1.191" transform="translate(-256 39)" fill="#f9dc62"/>
    <path id="Path_897" data-name="Path 897" d="M145.867,284.529c.782.772.509,1.987.143,1.781-.283-.159-.182-1.521-.143-1.781" transform="translate(-256 39)" fill="#f9dc62"/>
    <path id="Path_898" data-name="Path 898" d="M148.661,283.194c1.1.069,1.69,1.164,1.279,1.249-.318.066-1.137-1.027-1.279-1.249" transform="translate(-256 39)" fill="#f9dc62"/>
  </g>
</svg>
