<svg xmlns="http://www.w3.org/2000/svg" width="119.087" height="114.968" viewBox="0 0 119.087 114.968">
  <g id="Group_247" data-name="Group 247" transform="translate(-347.178 -129.333)">
    <path id="Path_181" data-name="Path 181" d="M461.913,180.04c1.469-1.723,2.378-3.842,1.32-5.946a4.685,4.685,0,0,0-4.764-2.626c.963-1.706,1.5-3.569.56-4.994-.9-1.367-2.768-1.475-4.6-1.189,1.1-1.757,1.836-3.759.827-5.284-1.282-1.935-4.286-1.322-6.718-.506,1.846-1.942,3.174-5.074,2.224-7.3-1.041-2.439-3.738-2.026-5.893-1.033.619-1.8.872-3.79-.565-5.045-1.5-1.308-3.7-.877-5.622.068a3.592,3.592,0,0,0-1.408-2.57c-2.148-1.72-4.719-.987-6.909.228.334-2.18.172-4.421-1.625-5.983a3.612,3.612,0,0,0-4.035-.689c-.262-2.164-1.144-4.376-3.6-4.5-2.432-.123-4.432,2.829-5.8,5.4-.109-1.51-.6-2.883-1.946-3.165-2.55-.535-5.214,1.313-6.942,3.343-.264-2.09-1.017-4.57-3.192-4.154-2.421.462-4.042,3.763-4.9,6.176-1.077-2.789-3.429-7.411-6.492-5.939-2.46,1.182-3.071,4.254-2.842,7.106-2.044-1.986-4.677-3.682-7.116-2.572-2.936,1.337-3.475,5.875-1.676,8.29a5.4,5.4,0,0,0-5.963,7.666c-2.054-.5-4.159-.951-5.98.351-2.379,1.7-2.66,4.679-2.544,7.414-4.553-1.154-6.752-1.364-7.025,3.47-2.212-.745-4.232.755-4.548,3.452,0,.008,0,.013,0,.021a6.7,6.7,0,0,0,.807,6.17,5.919,5.919,0,0,0,1.395,1.321c-2.106,1.016-3.846,2.576-4.214,5.11a5.442,5.442,0,0,0,1.729,5.034,5.184,5.184,0,0,0-4.35,5.174c.048,3.067,2.544,4.754,5.146,4.822a6.78,6.78,0,0,0,4.583,9.346c-2.759,3.955-2.634,10.94,1.12,11.749-1.361,5.182,3.792,9.337,8.253,8.17a6.287,6.287,0,0,0,7.676,5.123c-.294,3.472.727,7.107,4.225,8.478a6.11,6.11,0,0,0,5.557-.526c.96,3.587,6.338,5.037,8.534,1,.9,2.01,2.507,3.693,4.809,3.8a4.222,4.222,0,0,0,3.709-1.742,3.832,3.832,0,0,0,3.483.824c2.044-.478,2.783-2.016,2.925-3.784a5.756,5.756,0,0,0,5.133,1.781,5.083,5.083,0,0,0,3.066-1.778,5.292,5.292,0,0,0,3.14,1.92,5.87,5.87,0,0,0,5.7-2.075,4.758,4.758,0,0,0,4.178,2.72c4.207.238,6.155-3.252,6.979-6.842a3.812,3.812,0,0,0,2.87-.479c1.961-1.151,2.2-3.1,1.807-5.053a5.6,5.6,0,0,0,5.282-7.173,3.4,3.4,0,0,0,3.9-1.551c.9-1.339,1.708-4.989,1.752-7.848a3.609,3.609,0,0,0,3.275-1.345c1.617-1.882,1.2-3.8.106-5.49a5.212,5.212,0,0,0,4.323-1.739c2.2-2.423,1.186-5.007-.6-7.043,1.942-.822,3.577-2.423,3.48-4.764a5.1,5.1,0,0,0-.773-2.464,5.748,5.748,0,0,0,2.652-2.91C467.291,183.724,464.942,181.158,461.913,180.04Z" fill="#acbbbe" opacity="0.5" style="mix-blend-mode: multiply;isolation: isolate"/>
    <path id="Path_182" data-name="Path 182" d="M459.58,176.707c1.469-1.723,2.378-3.842,1.319-5.947a4.685,4.685,0,0,0-4.763-2.626c.963-1.706,1.5-3.568.56-4.993-.905-1.367-2.768-1.475-4.6-1.189,1.105-1.757,1.837-3.759.827-5.284-1.281-1.935-4.285-1.323-6.718-.506,1.847-1.942,3.175-5.074,2.225-7.3-1.041-2.438-3.739-2.025-5.893-1.032.618-1.8.872-3.791-.565-5.045-1.5-1.308-3.7-.877-5.623.068a3.592,3.592,0,0,0-1.408-2.571c-2.147-1.72-4.718-.987-6.909.229.335-2.181.173-4.422-1.624-5.983a3.609,3.609,0,0,0-4.035-.689c-.262-2.165-1.145-4.376-3.6-4.5-2.432-.123-4.432,2.828-5.8,5.395-.109-1.511-.6-2.884-1.945-3.166-2.551-.534-5.214,1.314-6.942,3.343-.264-2.089-1.017-4.569-3.192-4.153-2.421.462-4.042,3.763-4.9,6.176-1.077-2.789-3.429-7.411-6.492-5.94-2.461,1.183-3.071,4.255-2.843,7.107-2.043-1.986-4.676-3.682-7.115-2.572-2.937,1.336-3.475,5.874-1.676,8.29a5.4,5.4,0,0,0-5.964,7.665c-2.053-.5-4.158-.95-5.979.352-2.379,1.7-2.66,4.679-2.544,7.414-4.554-1.154-6.752-1.365-7.026,3.47-2.211-.745-4.231.754-4.548,3.452a.154.154,0,0,1,0,.02,6.707,6.707,0,0,0,.807,6.171,5.9,5.9,0,0,0,1.4,1.32c-2.107,1.017-3.846,2.577-4.215,5.111a5.442,5.442,0,0,0,1.729,5.033A5.184,5.184,0,0,0,347.179,189c.047,3.068,2.543,4.755,5.146,4.823a6.779,6.779,0,0,0,4.583,9.346c-2.76,3.954-2.634,10.94,1.12,11.749-1.361,5.182,3.792,9.336,8.253,8.17a6.288,6.288,0,0,0,7.676,5.123c-.294,3.472.726,7.107,4.225,8.478a6.108,6.108,0,0,0,5.556-.526c.96,3.587,6.339,5.037,8.535,1,.9,2.01,2.507,3.693,4.809,3.8a4.22,4.22,0,0,0,3.708-1.743,3.835,3.835,0,0,0,3.484.825c2.044-.478,2.782-2.016,2.925-3.784a5.756,5.756,0,0,0,5.133,1.781,5.094,5.094,0,0,0,3.066-1.778,5.283,5.283,0,0,0,3.14,1.919,5.868,5.868,0,0,0,5.7-2.074,4.758,4.758,0,0,0,4.178,2.719c4.207.239,6.155-3.252,6.978-6.841a3.811,3.811,0,0,0,2.871-.48c1.961-1.15,2.2-3.1,1.806-5.052a5.6,5.6,0,0,0,5.283-7.173,3.4,3.4,0,0,0,3.9-1.551c.9-1.339,1.709-4.989,1.752-7.848a3.613,3.613,0,0,0,3.276-1.345c1.616-1.883,1.2-3.8.106-5.491a5.207,5.207,0,0,0,4.323-1.739c2.2-2.422,1.186-5.007-.6-7.043,1.942-.821,3.577-2.423,3.48-4.763a5.108,5.108,0,0,0-.773-2.464,5.753,5.753,0,0,0,2.652-2.91C464.957,180.391,462.608,177.824,459.58,176.707Z" fill="#dac6a8"/>
    <path id="Path_183" data-name="Path 183" d="M448.939,178.545a6.123,6.123,0,0,0,.477-2.579,5.054,5.054,0,0,0-2.793-4.544,4.073,4.073,0,0,0,.1-1.106,4.118,4.118,0,0,0-2.825-3.909,4.313,4.313,0,0,0-.4-5.413,3.447,3.447,0,0,0-4.507-1.053c.365-2.922-.093-5.854-3.017-6.852a5.387,5.387,0,0,0-2.342-.287c.636-2.531.653-5.013-1.116-6.679a4.488,4.488,0,0,0-5.492-.682,2.709,2.709,0,0,0-2.7-2.076c-1.946-.158-3.627,1.24-4.958,3.07-.362-2.3-1.179-4.414-2.87-5.2-2.831-1.324-5.187,1.616-6.729,4.278a1.751,1.751,0,0,0-.656-.061c-1.056-3.669-3.163-6.988-7.619-6.5a1.4,1.4,0,0,0-1.3.99,23.479,23.479,0,0,0-.487,8.625c-2.657-1.894-5.892-3.359-7.512-1.007a3.663,3.663,0,0,0-.014,4.151,5.3,5.3,0,0,0-4.588,1.489,4.343,4.343,0,0,0-1.369,4.214,5.377,5.377,0,0,0-4.163.021,5.03,5.03,0,0,0-3.048,3.582c-2.323-1.554-5.423-3.121-7.347-1.7-1.659,1.226-1.259,4.089-.65,6.454a4.792,4.792,0,0,0-5.488,2.6c-1.435,2.747-.584,5.379,1.133,7.491a11.144,11.144,0,0,0-7.431,3.193,1.206,1.206,0,0,0,.242,1.875c.658.393,1.318.749,1.981,1.082a3.791,3.791,0,0,0-2.522,3.9c.054,2.354,1.743,3.316,3.767,3.642-1.8,1.279-3.294,2.919-3.388,4.886a3.263,3.263,0,0,0,2.1,3.458,4.509,4.509,0,0,0-.593,4.378,4.339,4.339,0,0,0,2.066,2.518c-1.406,2.028-2.047,4.466-.773,6.814a4.422,4.422,0,0,0,2.091,1.958c-1.3,2.346-1.642,5.091.952,6.619,3.2,1.885,7.2-.218,10.121-2.931.127,2.254.73,4.435,2.345,5.713a3.9,3.9,0,0,0,4.192.6,4.084,4.084,0,0,0,2.684,3.621c1.79.737,3.452.047,4.857-1.158.4,2.72,1.741,5.082,5.02,5.329,3.888.292,5.828-3.205,6.686-6.927a3.259,3.259,0,0,0,2.767,1.023c1.864-.236,3.061-1.811,3.826-3.66,1.006,1.723,2.276,3.167,4.541,3.317a3.558,3.558,0,0,0,3-1.022c.933,2.841,2.558,5.412,5.4,5.079,3.875-.454,4.328-5.764,4.149-9.573a4.9,4.9,0,0,0,6.036-4.387,7.471,7.471,0,0,0,7.658-3.064c1.272-2.025.57-4.212-.753-6.185a5.9,5.9,0,0,0,5.083-1.358c1.739-1.747.758-3.69-.8-5.419,2.1-1.15,3.375-3.856,2.285-6.111a2.459,2.459,0,0,0,.847-.923,2.629,2.629,0,0,0,.158-2.075C450.847,189.867,452.636,181.035,448.939,178.545Z" fill="#e7dac7"/>
    <path id="Path_184" data-name="Path 184" d="M378.589,228.333c5.245-3.045,10.935-10.655,7.848-17a.387.387,0,0,0-.7.091c-.518,2.687-.426,5.314-1.413,7.931a15.957,15.957,0,0,1-6.342,7.941.6.6,0,0,0,.607,1.039Z" fill="#ff9c30"/>
    <path id="Path_185" data-name="Path 185" d="M382.214,145.72c-3.6,4.272-6.748,10.738-4.856,16.4.134.4.82.49.9,0,.991-5.744,1.358-10.732,5.056-15.547.483-.629-.59-1.461-1.1-.852Z" fill="#ff9c30"/>
    <path id="Path_186" data-name="Path 186" d="M414.623,227.906a2.077,2.077,0,0,0-1.583-1.035A2.169,2.169,0,0,0,410.583,229c0,.065,0,.13-.008.194-.03.138-.084.371-.087.386a2.276,2.276,0,0,0,.467,2.1,1.393,1.393,0,0,0,1.463.645,1.894,1.894,0,0,0,1.45-.6,4.307,4.307,0,0,0,.974-2.15A2.537,2.537,0,0,0,414.623,227.906Z" fill="#e7dac7"/>
    <path id="Path_187" data-name="Path 187" d="M398.936,234.968a3.606,3.606,0,0,0-.909-1.235,1.812,1.812,0,1,0-1.284,3.1,3.916,3.916,0,0,0,1.037-.067,6.224,6.224,0,0,0,.764-.3C399.133,236.216,399.143,235.45,398.936,234.968Z" fill="#f6f1ea"/>
    <path id="Path_188" data-name="Path 188" d="M382.75,228.891c-2.715,0-2.719,4.218,0,4.218S385.469,228.891,382.75,228.891Z" fill="#e7dac7"/>
    <path id="Path_189" data-name="Path 189" d="M432.212,225.751a1.975,1.975,0,0,0-3.605,1.52c.09.239.176.481.27.718a4.373,4.373,0,0,0,.708,1.182,1.925,1.925,0,0,0,3.269-1.354A6.9,6.9,0,0,0,432.212,225.751Z" fill="#f6f1ea"/>
    <path id="Path_190" data-name="Path 190" d="M442.25,212.371c-2.74,0-2.744,4.258,0,4.258S444.994,212.371,442.25,212.371Z" fill="#f6f1ea"/>
    <path id="Path_191" data-name="Path 191" d="M455,189.586a1.915,1.915,0,0,0,0,3.828A1.915,1.915,0,0,0,455,189.586Z" fill="#f6f1ea"/>
    <path id="Path_192" data-name="Path 192" d="M454.5,168.992a1.759,1.759,0,0,0,0,3.516A1.759,1.759,0,0,0,454.5,168.992Z" fill="#e7dac7"/>
    <path id="Path_193" data-name="Path 193" d="M442.5,150.543c-2.84,0-2.845,4.414,0,4.414S445.345,150.543,442.5,150.543Z" fill="#f6f1ea"/>
    <path id="Path_194" data-name="Path 194" d="M389.75,142.2a1.8,1.8,0,0,0,0,3.594A1.8,1.8,0,0,0,389.75,142.2Z" fill="#e7dac7"/>
    <path id="Path_195" data-name="Path 195" d="M376.75,151.367c-3.067,0-3.072,4.766,0,4.766S379.821,151.367,376.75,151.367Z" fill="#e7dac7"/>
    <path id="Path_196" data-name="Path 196" d="M360.5,165.988c-2.589,0-2.593,4.024,0,4.024S363.093,165.988,360.5,165.988Z" fill="#e7dac7"/>
    <path id="Path_197" data-name="Path 197" d="M353.75,185.6c-2.765,0-2.769,4.3,0,4.3S356.519,185.6,353.75,185.6Z" fill="#e7dac7"/>
    <path id="Path_198" data-name="Path 198" d="M399.778,195.5c1.3-2.5,2.3-5.234,1.087-7.988-.65-1.47-1.763-2.037-2.034-3.614-.389-2.268.2-3.87-1.107-6.049-2.232-3.726-7.187-4.222-9.649-1.9a5.934,5.934,0,0,0-4.851-3.373c-2.54-.159-4.039,1.45-4.957,3.444-3.157-2.277-8.786,1.029-6.885,6.015a4.284,4.284,0,0,0-4.918,2.239c-1.477,2.622-.355,5.244,1.687,6.873-3.661,2.448-1.734,8.415,2.5,8.519-1.184,2.222-1.848,4.874-.155,6.9,1.594,1.912,3.708,1.717,5.582.759-.366,2.253-.017,4.546,2.113,5.936a4.489,4.489,0,0,0,4.057.527c.9,4.18,7.5,4.223,9.287-.462,3.5,2.939,8.645-1.348,7.293-6.137C404.961,206.14,406.052,196.98,399.778,195.5Z" fill="#efe7db"/>
    <path id="Path_199" data-name="Path 199" d="M438.867,198.908a4.919,4.919,0,0,0-2.354-4.013c2.127-2.087,3.626-5.026,1.441-7.477-2.217-2.487-4.8-1.442-6.791.394-.707-2.333-2.031-4.408-4.724-4.717a4.2,4.2,0,0,0-2.4.413c-1.547-1.925-4.022-3.194-6.307-2.555-4.084,1.143-3.919,5.725-2.748,9.719-3.6-.356-6.058,2.282-4.917,5.4-1.886.277-3.479,1.29-3.544,3.686-.077,2.827,2.484,3.694,4.727,4.7-3.031,1.227-6.084,2.314-5.673,6.654a5.522,5.522,0,0,0,3.819,4.86c-2.878,5.55,5,10.159,8.107,5.009a2.981,2.981,0,0,0,3.051.605c1.855-.582,2.682-2.4,3.018-4.3a4.616,4.616,0,0,0,5.092.879c2.736-1.232,2.548-3.5,1.878-5.755,2.6.448,5.277.138,6.678-2.514,1.31-2.478.108-4.179-1.426-5.835A5.64,5.64,0,0,0,438.867,198.908Z" fill="#efe7db"/>
    <path id="Path_200" data-name="Path 200" d="M440.3,175.966a4.614,4.614,0,0,0-3.573-1.855,3.632,3.632,0,0,0-3.335,2.573,4.378,4.378,0,0,0,.309,3.65,4.178,4.178,0,0,0,4.169,1.627,4.036,4.036,0,0,0,3.117-2.552A3.663,3.663,0,0,0,440.3,175.966Z" fill="#6faa2e"/>
    <path id="Path_201" data-name="Path 201" d="M440.3,175.966a4.614,4.614,0,0,0-3.573-1.855,3.632,3.632,0,0,0-3.335,2.573,4.378,4.378,0,0,0,.309,3.65,4.178,4.178,0,0,0,4.169,1.627,4.036,4.036,0,0,0,3.117-2.552A3.663,3.663,0,0,0,440.3,175.966Zm-1.792,2.8a2.483,2.483,0,0,1-2.551.708,2.04,2.04,0,0,1-1.367-2.374,1.787,1.787,0,0,1,1.054-1.266,2.277,2.277,0,0,1,2.489.1A1.892,1.892,0,0,1,438.507,178.767Z" fill="#6faa2e"/>
    <path id="Path_202" data-name="Path 202" d="M388.6,154.93a4.613,4.613,0,0,0-2.849,2.844,3.63,3.63,0,0,0,1.442,3.957,4.38,4.38,0,0,0,3.573.81,4.174,4.174,0,0,0,2.812-3.48,4.033,4.033,0,0,0-1.489-3.744A3.661,3.661,0,0,0,388.6,154.93Z" fill="#6faa2e"/>
    <path id="Path_203" data-name="Path 203" d="M388.6,154.93a4.613,4.613,0,0,0-2.849,2.844,3.63,3.63,0,0,0,1.442,3.957,4.379,4.379,0,0,0,3.573.81,4.174,4.174,0,0,0,2.812-3.48,4.033,4.033,0,0,0-1.489-3.744A3.661,3.661,0,0,0,388.6,154.93Zm2.127,2.555a2.483,2.483,0,0,1-.1,2.646,2.04,2.04,0,0,1-2.676.584,1.782,1.782,0,0,1-.888-1.388,2.277,2.277,0,0,1,.849-2.341A1.893,1.893,0,0,1,390.728,157.485Z" fill="#6faa2e"/>
    <path id="Path_204" data-name="Path 204" d="M392.616,219.971a4.616,4.616,0,0,0,1.091,3.875,3.632,3.632,0,0,0,4.158.673,4.381,4.381,0,0,0,2.451-2.723,4.178,4.178,0,0,0-1.664-4.154,4.039,4.039,0,0,0-3.994-.528A3.663,3.663,0,0,0,392.616,219.971Z" fill="#6faa2e"/>
    <path id="Path_205" data-name="Path 205" d="M392.616,219.971a4.616,4.616,0,0,0,1.091,3.875,3.631,3.631,0,0,0,4.158.673,4.381,4.381,0,0,0,2.451-2.723,4.178,4.178,0,0,0-1.664-4.154,4.039,4.039,0,0,0-3.994-.528A3.663,3.663,0,0,0,392.616,219.971Zm3.269-.61a2.482,2.482,0,0,1,2.261,1.378,2.04,2.04,0,0,1-.8,2.62,1.785,1.785,0,0,1-1.645.1,2.277,2.277,0,0,1-1.629-1.884A1.894,1.894,0,0,1,395.885,219.361Z" fill="#6faa2e"/>
    <path id="Path_206" data-name="Path 206" d="M430.451,215.779a4.617,4.617,0,0,0-.995,3.9,3.631,3.631,0,0,0,3.264,2.663,4.378,4.378,0,0,0,3.484-1.131,4.174,4.174,0,0,0,.637-4.429,4.032,4.032,0,0,0-3.194-2.455A3.66,3.66,0,0,0,430.451,215.779Z" fill="#6faa2e"/>
    <path id="Path_207" data-name="Path 207" d="M430.451,215.779a4.617,4.617,0,0,0-.995,3.9,3.631,3.631,0,0,0,3.264,2.663,4.378,4.378,0,0,0,3.484-1.131,4.174,4.174,0,0,0,.637-4.429,4.032,4.032,0,0,0-3.194-2.455A3.66,3.66,0,0,0,430.451,215.779Zm3.135,1.108a2.485,2.485,0,0,1,1.269,2.324,2.043,2.043,0,0,1-2,1.871,1.785,1.785,0,0,1-1.473-.74,2.275,2.275,0,0,1-.467-2.446A1.893,1.893,0,0,1,433.586,216.887Z" fill="#6faa2e"/>
    <path id="Path_208" data-name="Path 208" d="M360.976,181.279a4.612,4.612,0,0,0-3.871,1.107,3.633,3.633,0,0,0-.655,4.161,4.381,4.381,0,0,0,2.733,2.439,4.176,4.176,0,0,0,4.147-1.682,4.037,4.037,0,0,0,.511-4A3.661,3.661,0,0,0,360.976,181.279Z" fill="#6faa2e"/>
    <path id="Path_209" data-name="Path 209" d="M360.976,181.279a4.612,4.612,0,0,0-3.871,1.107,3.633,3.633,0,0,0-.655,4.161,4.381,4.381,0,0,0,2.733,2.439,4.176,4.176,0,0,0,4.147-1.682,4.037,4.037,0,0,0,.511-4A3.661,3.661,0,0,0,360.976,181.279Zm.623,3.265a2.483,2.483,0,0,1-1.367,2.268,2.041,2.041,0,0,1-2.624-.785,1.784,1.784,0,0,1-.1-1.645,2.274,2.274,0,0,1,1.877-1.636A1.892,1.892,0,0,1,361.6,184.544Z" fill="#6faa2e"/>
    <path id="Path_210" data-name="Path 210" d="M431.331,142.984a4.614,4.614,0,0,0-2.067-3.455,3.63,3.63,0,0,0-4.189.438,4.383,4.383,0,0,0-1.654,3.269,4.177,4.177,0,0,0,2.693,3.574,4.034,4.034,0,0,0,3.993-.536A3.66,3.66,0,0,0,431.331,142.984Z" fill="#6faa2e"/>
    <path id="Path_211" data-name="Path 211" d="M431.331,142.984a4.614,4.614,0,0,0-2.067-3.455,3.63,3.63,0,0,0-4.189.438,4.383,4.383,0,0,0-1.654,3.269,4.177,4.177,0,0,0,2.693,3.574,4.034,4.034,0,0,0,3.993-.536A3.66,3.66,0,0,0,431.331,142.984Zm-3,1.443a2.482,2.482,0,0,1-2.543-.738,2.042,2.042,0,0,1,.084-2.738,1.786,1.786,0,0,1,1.562-.524,2.277,2.277,0,0,1,2.064,1.393A1.893,1.893,0,0,1,428.335,144.427Z" fill="#6faa2e"/>
    <path id="Path_212" data-name="Path 212" d="M373.123,214.289a4.615,4.615,0,0,0-4.019.237,3.634,3.634,0,0,0-1.546,3.919,4.382,4.382,0,0,0,2.137,2.976,4.177,4.177,0,0,0,4.413-.739,4.033,4.033,0,0,0,1.369-3.789A3.658,3.658,0,0,0,373.123,214.289Z" fill="#6faa2e"/>
    <path id="Path_213" data-name="Path 213" d="M373.123,214.289a4.615,4.615,0,0,0-4.019.237,3.634,3.634,0,0,0-1.546,3.919,4.382,4.382,0,0,0,2.137,2.976,4.177,4.177,0,0,0,4.413-.739,4.033,4.033,0,0,0,1.369-3.789A3.658,3.658,0,0,0,373.123,214.289Zm-.1,3.323a2.482,2.482,0,0,1-1.828,1.915,2.041,2.041,0,0,1-2.391-1.338,1.786,1.786,0,0,1,.257-1.627,2.276,2.276,0,0,1,2.189-1.189A1.893,1.893,0,0,1,373.02,217.612Z" fill="#6faa2e"/>
    <path id="Path_214" data-name="Path 214" d="M441.8,192.995a3.7,3.7,0,0,0-3.223.19,2.914,2.914,0,0,0-1.24,3.143,3.509,3.509,0,0,0,1.714,2.387,3.349,3.349,0,0,0,3.54-.592,3.237,3.237,0,0,0,1.1-3.039A2.935,2.935,0,0,0,441.8,192.995Z" fill="#fae378"/>
    <path id="Path_215" data-name="Path 215" d="M441.8,192.995a3.7,3.7,0,0,0-3.223.19,2.914,2.914,0,0,0-1.24,3.143,3.509,3.509,0,0,0,1.714,2.387,3.349,3.349,0,0,0,3.54-.592,3.237,3.237,0,0,0,1.1-3.039A2.935,2.935,0,0,0,441.8,192.995Zm-.082,2.665a1.991,1.991,0,0,1-1.467,1.536,1.637,1.637,0,0,1-1.917-1.073,1.43,1.43,0,0,1,.206-1.305,1.828,1.828,0,0,1,1.755-.954A1.519,1.519,0,0,1,441.721,195.66Z" fill="#fae378"/>
    <path id="Path_216" data-name="Path 216" d="M403.919,141.284a3.7,3.7,0,0,0,.957,3.084,2.914,2.914,0,0,0,3.348.451,3.517,3.517,0,0,0,1.908-2.236,3.351,3.351,0,0,0-1.424-3.295,3.235,3.235,0,0,0-3.213-.338A2.936,2.936,0,0,0,403.919,141.284Z" fill="#fae378"/>
    <path id="Path_217" data-name="Path 217" d="M403.919,141.284a3.7,3.7,0,0,0,.957,3.084,2.914,2.914,0,0,0,3.348.451,3.517,3.517,0,0,0,1.908-2.236,3.351,3.351,0,0,0-1.424-3.295,3.235,3.235,0,0,0-3.213-.338A2.936,2.936,0,0,0,403.919,141.284Zm2.608-.558a1.99,1.99,0,0,1,1.842,1.055,1.637,1.637,0,0,1-.583,2.119,1.433,1.433,0,0,1-1.316.113,1.826,1.826,0,0,1-1.346-1.476A1.518,1.518,0,0,1,406.527,140.726Z" fill="#fae378"/>
    <path id="Path_218" data-name="Path 218" d="M367.245,161.975a3.7,3.7,0,0,0-2.814,1.584,2.913,2.913,0,0,0,.262,3.368,3.514,3.514,0,0,0,2.586,1.4,3.351,3.351,0,0,0,2.923-2.084,3.236,3.236,0,0,0-.344-3.213A2.937,2.937,0,0,0,367.245,161.975Z" fill="#fae378"/>
    <path id="Path_219" data-name="Path 219" d="M367.245,161.975a3.7,3.7,0,0,0-2.814,1.584,2.913,2.913,0,0,0,.262,3.368,3.51,3.51,0,0,0,2.586,1.4,3.348,3.348,0,0,0,2.923-2.083,3.236,3.236,0,0,0-.344-3.213A2.937,2.937,0,0,0,367.245,161.975Zm1.093,2.433a1.99,1.99,0,0,1-.645,2.023,1.636,1.636,0,0,1-2.193-.125,1.431,1.431,0,0,1-.387-1.264,1.822,1.822,0,0,1,1.16-1.625A1.516,1.516,0,0,1,368.338,164.408Z" fill="#fae378"/>
    <path id="Path_220" data-name="Path 220" d="M405.942,181.427a3.7,3.7,0,0,0-1.56-2.827,2.914,2.914,0,0,0-3.37.233,3.514,3.514,0,0,0-1.418,2.574,3.352,3.352,0,0,0,2.059,2.941,3.237,3.237,0,0,0,3.216-.317A2.938,2.938,0,0,0,405.942,181.427Z" fill="#fae378"/>
    <path id="Path_221" data-name="Path 221" d="M405.942,181.427a3.7,3.7,0,0,0-1.56-2.827,2.914,2.914,0,0,0-3.37.233,3.512,3.512,0,0,0-1.418,2.574,3.352,3.352,0,0,0,2.059,2.941,3.237,3.237,0,0,0,3.216-.317A2.938,2.938,0,0,0,405.942,181.427ZM403.5,182.5a1.99,1.99,0,0,1-2.018-.663,1.637,1.637,0,0,1,.144-2.192,1.432,1.432,0,0,1,1.267-.376,1.826,1.826,0,0,1,1.616,1.174A1.518,1.518,0,0,1,403.5,182.5Z" fill="#fae378"/>
    <path id="Path_222" data-name="Path 222" d="M371.706,200.523a3.7,3.7,0,0,0-3.045,1.073,2.913,2.913,0,0,0-.324,3.363,3.514,3.514,0,0,0,2.306,1.822,3.351,3.351,0,0,0,3.239-1.547,3.236,3.236,0,0,0,.216-3.225A2.937,2.937,0,0,0,371.706,200.523Z" fill="#fae378"/>
    <path id="Path_223" data-name="Path 223" d="M371.706,200.523a3.7,3.7,0,0,0-3.045,1.073,2.913,2.913,0,0,0-.324,3.363,3.514,3.514,0,0,0,2.306,1.822,3.351,3.351,0,0,0,3.239-1.547,3.236,3.236,0,0,0,.216-3.225A2.937,2.937,0,0,0,371.706,200.523Zm.657,2.585a1.99,1.99,0,0,1-.985,1.881,1.637,1.637,0,0,1-2.139-.5,1.428,1.428,0,0,1-.163-1.311,1.827,1.827,0,0,1,1.424-1.4A1.518,1.518,0,0,1,372.363,203.108Z" fill="#fae378"/>
    <path id="Path_224" data-name="Path 224" d="M411.845,226.083a3.7,3.7,0,0,0,1.7,2.746,2.913,2.913,0,0,0,3.355-.4,3.518,3.518,0,0,0,1.287-2.642,3.352,3.352,0,0,0-2.2-2.834,3.236,3.236,0,0,0-3.2.477A2.937,2.937,0,0,0,411.845,226.083Z" fill="#fae378"/>
    <path id="Path_225" data-name="Path 225" d="M411.845,226.083a3.7,3.7,0,0,0,1.7,2.746,2.913,2.913,0,0,0,3.355-.4,3.513,3.513,0,0,0,1.286-2.642,3.35,3.35,0,0,0-2.2-2.834,3.236,3.236,0,0,0-3.2.477A2.937,2.937,0,0,0,411.845,226.083Zm2.385-1.193a1.993,1.993,0,0,1,2.049.561,1.638,1.638,0,0,1-.034,2.2,1.437,1.437,0,0,1-1.247.439,1.827,1.827,0,0,1-1.673-1.092A1.519,1.519,0,0,1,414.23,224.89Z" fill="#fae378"/>
    <path id="Path_226" data-name="Path 226" d="M443.012,166.166a3.7,3.7,0,0,0,3.224.185,2.912,2.912,0,0,0,1.6-2.978,3.511,3.511,0,0,0-1.425-2.57,3.35,3.35,0,0,0-3.585.178,3.237,3.237,0,0,0-1.443,2.891A2.936,2.936,0,0,0,443.012,166.166Z" fill="#fae378"/>
    <path id="Path_227" data-name="Path 227" d="M443.012,166.166a3.7,3.7,0,0,0,3.224.185,2.912,2.912,0,0,0,1.6-2.978,3.511,3.511,0,0,0-1.425-2.57,3.35,3.35,0,0,0-3.585.178,3.237,3.237,0,0,0-1.443,2.891A2.936,2.936,0,0,0,443.012,166.166Zm.392-2.638a1.992,1.992,0,0,1,1.635-1.356,1.636,1.636,0,0,1,1.779,1.289,1.432,1.432,0,0,1-.356,1.273,1.826,1.826,0,0,1-1.854.743A1.518,1.518,0,0,1,443.4,163.528Z" fill="#fae378"/>
    <path id="Path_228" data-name="Path 228" d="M416.212,172.53c6.578.7,11.025,5.1,14.077,10.654a.55.55,0,0,0,1.009-.4c-1.424-6.882-8.378-11.216-15.046-11.647-.9-.059-.919,1.3-.04,1.39Z" fill="#ff9c30"/>
    <path id="Path_229" data-name="Path 229" d="M414.309,187.6a3.7,3.7,0,0,0,1.494,2.862,2.911,2.911,0,0,0,3.375-.156,3.509,3.509,0,0,0,1.476-2.54,3.347,3.347,0,0,0-1.99-2.987,3.235,3.235,0,0,0-3.222.242A2.938,2.938,0,0,0,414.309,187.6Z" fill="#fae378"/>
    <path id="Path_230" data-name="Path 230" d="M414.309,187.6a3.7,3.7,0,0,0,1.494,2.862,2.911,2.911,0,0,0,3.375-.156,3.509,3.509,0,0,0,1.476-2.54,3.347,3.347,0,0,0-1.99-2.987,3.235,3.235,0,0,0-3.222.242A2.938,2.938,0,0,0,414.309,187.6Zm2.466-1.016a1.989,1.989,0,0,1,2,.708,1.638,1.638,0,0,1-.194,2.189,1.432,1.432,0,0,1-1.275.347,1.829,1.829,0,0,1-1.589-1.211A1.518,1.518,0,0,1,416.775,186.587Z" fill="#fae378"/>
    <path id="Path_231" data-name="Path 231" d="M398.347,168.034a3.7,3.7,0,0,0,3.224.2,2.914,2.914,0,0,0,1.606-2.973,3.511,3.511,0,0,0-1.417-2.575,3.351,3.351,0,0,0-3.585.166,3.238,3.238,0,0,0-1.453,2.887A2.936,2.936,0,0,0,398.347,168.034Z" fill="#fae378"/>
    <path id="Path_232" data-name="Path 232" d="M398.348,168.034a3.7,3.7,0,0,0,3.223.2,2.914,2.914,0,0,0,1.606-2.973,3.511,3.511,0,0,0-1.417-2.575,3.351,3.351,0,0,0-3.585.166,3.238,3.238,0,0,0-1.453,2.887A2.934,2.934,0,0,0,398.348,168.034Zm.4-2.636a1.991,1.991,0,0,1,1.639-1.351,1.637,1.637,0,0,1,1.775,1.295,1.43,1.43,0,0,1-.36,1.271,1.824,1.824,0,0,1-1.856.737A1.517,1.517,0,0,1,398.748,165.4Z" fill="#fae378"/>
    <path id="Path_233" data-name="Path 233" d="M431.565,152.262c-2.941-1.39-6.6-1.786-9.109-.55a4.14,4.14,0,0,0-3.077-3.613c-3.053-.726-4.551,1.63-5.15,4.165a3.754,3.754,0,0,0-3.89.743c-2.418-2.795-5.621-5.163-8.886-2.134-2.926,2.716-1.072,4.675.872,6.594a3.886,3.886,0,0,0-2.48,2.706c-.643,2.4.765,4.118,2.648,5.142-2.019,1.554-3.535,3.751-3.21,6.4a1.612,1.612,0,0,0,1.108,1.456,9.079,9.079,0,0,0,4.26.383,5.153,5.153,0,0,0,6.558,5.028c1.338,2.667,5.6,3.4,7.4.979,2.471,2.354,7.386.287,7.151-3.553a4.679,4.679,0,0,0,4.084-6.85,4.884,4.884,0,0,0,.011-8.2C433.39,158.772,436.538,154.615,431.565,152.262Z" fill="#efe7db"/>
    <path id="Path_234" data-name="Path 234" d="M396.787,205.468c5.114,5.427,13,9.927,20.71,8.907.34-.045.515-.611.091-.675-7.88-1.2-14.489-2.856-20.259-8.774-.345-.354-.879.183-.542.542Z" fill="#ff9c30"/>
    <path id="Path_235" data-name="Path 235" d="M421.366,153.87a42.828,42.828,0,0,1,4.512,5.98,27.058,27.058,0,0,1,2.455,6.766c.1.341.7.4.753,0,.7-5.192-3.815-9.913-7.012-13.453-.436-.481-1.121.223-.708.707Z" fill="#ff9c30"/>
    <path id="Path_236" data-name="Path 236" d="M357.75,194.5c5.767-.035,11.965-1.187,16.713-4.631.273-.2.12-.752-.253-.6-5.479,2.235-10.443,4.067-16.46,4.137a.547.547,0,0,0,0,1.094Z" fill="#ff9c30"/>
    <path id="Path_237" data-name="Path 237" d="M436.435,187.021c5.71-1.045,10.8-1.334,14.869,3.406a.527.527,0,0,0,.875-.51c-2.3-6.474-10.875-5.227-16.085-4.132-.811.171-.462,1.382.341,1.236Z" fill="#ff9c30"/>
    <path id="Path_238" data-name="Path 238" d="M437.348,164a17.8,17.8,0,0,1,2.8-7.928c1.49-2.262,3.491-3.7,5.35-5.6.247-.253,0-.761-.365-.627-5.432,1.986-8.423,8.808-8.921,14.15-.068.734,1.062.72,1.141,0Z" fill="#ff9c30"/>
    <path id="Path_239" data-name="Path 239" d="M373.218,171.436c5.558,2.567,13.667,5.48,19.258,1.419a.424.424,0,0,0-.325-.771c-3.2.749-6.045,1.45-9.39,1.048a46.944,46.944,0,0,1-9.248-2.4c-.406-.136-.692.516-.3.7Z" fill="#ff9c30"/>
    <path id="Path_240" data-name="Path 240" d="M435.332,204.6a10.385,10.385,0,0,1,6.377,6.264c.713,1.98.832,4.209,1.8,6.074a.442.442,0,0,0,.8-.1c1.22-6.178-3.17-11.5-8.663-13.379-.736-.252-1.009.867-.316,1.145Z" fill="#ff9c30"/>
    <path id="Path_241" data-name="Path 241" d="M391.54,199.057c1.2-.772,3.758-2.242,4.547-3.418a4.885,4.885,0,0,0,1.133-2.86c-.05-1.053-1.561-.36-2.067-.073a7.441,7.441,0,0,0-1.978,1.744c-.642.769-1.178,1.627-1.867,2.359a5.946,5.946,0,0,1-3.937,1.736l0,.005h0a7.462,7.462,0,0,1-2.874-.644c0-.027,0-.059,0-.085a.239.239,0,0,0-.414-.112,7.37,7.37,0,0,1-3.947-7.559c.027-.011.056-.017.082-.029a.237.237,0,0,0,0-.418c.447-2.212,1.854-4.2,4.362-4.054a7.06,7.06,0,0,1,3.085,1.175c.053.073.1.152.158.221a.218.218,0,0,0,.314.042,7.449,7.449,0,0,0,1.769.755c2.741.688,4.5-2.024,4.6-4.472.118-2.944-1.809-5.652-4.125-7.3-5.406-3.838-12.782-1.618-17.5,2.292a15.953,15.953,0,0,0-4.335,17.641,12.322,12.322,0,0,0,6.983,6.974,22.837,22.837,0,0,0,10.962.464c-.013.021-.024.045-.038.066a20.044,20.044,0,0,1,7.909-1.615c1.154.058,3.294.49,4.041-.743C399.649,199.068,393.356,198.9,391.54,199.057Z" fill="#99abaf" opacity="0.5" style="mix-blend-mode: multiply;isolation: isolate"/>
    <path id="Path_242" data-name="Path 242" d="M409.8,162.633a4.886,4.886,0,0,0,.049,3.076c.448.953,1.58-.265,1.937-.725a7.422,7.422,0,0,0,1.16-2.368c.3-.956.466-1.953.821-2.893a5.953,5.953,0,0,1,2.973-3.112l0,0h0a7.462,7.462,0,0,1,2.9-.506c.014.024.023.055.037.078a.239.239,0,0,0,.425-.055,7.37,7.37,0,0,1,6.54,5.472c-.02.02-.045.037-.065.058a.237.237,0,0,0,.162.385c.434,2.215-.106,4.587-2.478,5.416a7.052,7.052,0,0,1-3.3.1c-.077-.047-.152-.1-.231-.144a.218.218,0,0,0-.306.082,7.42,7.42,0,0,0-1.924-.021c-2.8.414-3.379,3.591-2.533,5.891,1.018,2.765,3.835,4.529,6.6,5.161,6.463,1.476,12.428-3.4,15.294-8.819a15.953,15.953,0,0,0-2.749-17.956,12.323,12.323,0,0,0-9.121-3.77,22.834,22.834,0,0,0-10.3,3.769c0-.025.006-.052.01-.076a20.032,20.032,0,0,1-6.688,4.52c-1.088.388-3.23.808-3.448,2.232-.37,2.41,5.508.155,7.126-.684C411.87,158.908,410.074,161.244,409.8,162.633Z" fill="#99abaf" opacity="0.5" style="mix-blend-mode: multiply;isolation: isolate"/>
    <path id="Path_243" data-name="Path 243" d="M436.29,202.319c-1.959-1.472-5.17-1.826-6.37.732a7.386,7.386,0,0,0-.534,1.848.219.219,0,0,0-.167.27c.018.088.049.175.071.262a7.039,7.039,0,0,1-1.04,3.133c-1.475,2.033-3.9,1.868-5.9.815a.236.236,0,0,0-.322-.265c-.026.012-.049.031-.074.044a7.368,7.368,0,0,1-3.36-7.837.238.238,0,0,0,.175-.391c-.018-.02-.045-.038-.064-.058a7.469,7.469,0,0,1,1.319-2.633l0,0,0,0a5.947,5.947,0,0,1,3.835-1.952c1-.07,2.005.057,3.007.046a7.426,7.426,0,0,0,2.6-.429c.542-.211,2.035-.943,1.251-1.647a4.883,4.883,0,0,0-2.932-.931c-1.411-.133-4.164.915-5.524,1.36,1.269-1.309,5.12-6.289,2.706-6.629-1.428-.2-2.446,1.73-3.131,2.661a20.042,20.042,0,0,1-6.253,5.105l.076.012a22.835,22.835,0,0,0-6.574,8.786,12.32,12.32,0,0,0,.987,9.819,15.953,15.953,0,0,0,16.406,7.8c6.017-1.186,12.4-5.5,12.846-12.111C439.524,207.295,438.645,204.09,436.29,202.319Z" fill="#99abaf" opacity="0.5" style="mix-blend-mode: multiply;isolation: isolate"/>
    <path id="Path_244" data-name="Path 244" d="M389.232,173.99c-5.406-3.838-12.782-1.618-17.505,2.292a15.953,15.953,0,0,0-4.334,17.641,12.319,12.319,0,0,0,6.982,6.975c3.572,1.31,9.925,1.049,11.4.3.055.036-.14-.2-.078-.263l.009-.013.087-.014a.273.273,0,0,0,.2-.375,3.886,3.886,0,0,0,.49-1.463c.111-.727,1.01-1.711.63-2.367-.037-.065-.1-.144-.162-.158a2.833,2.833,0,0,0-.718-.079,7.425,7.425,0,0,1-7.22-8.579c.383-2.318,1.813-4.47,4.423-4.322,2.014.115,3.434,1.719,5.326,2.194,2.741.687,4.5-2.024,4.6-4.472C393.475,178.343,391.548,175.634,389.232,173.99Z" fill="#ffac98"/>
    <path id="Path_245" data-name="Path 245" d="M390.4,196.974c1.2-.772,3.758-2.242,4.547-3.419a4.89,4.89,0,0,0,1.132-2.86c-.049-1.053-1.561-.36-2.067-.072a7.435,7.435,0,0,0-1.978,1.743c-.641.77-1.178,1.627-1.866,2.359a5.95,5.95,0,0,1-3.937,1.736,6.228,6.228,0,0,1-.935,4.966,20.037,20.037,0,0,1,7.909-1.615c1.154.058,3.293.49,4.04-.742C398.513,196.985,392.22,196.819,390.4,196.974Z" fill="#ff5a30"/>
    <path id="Path_246" data-name="Path 246" d="M388.385,174.389c-3.644,1.637-4,7.807-1.707,10.572.189.228.5-.015.411-.266a9.583,9.583,0,0,1-.746-5.732c.417-1.73,1.514-2.721,2.381-4.175A.273.273,0,0,0,388.385,174.389Z" fill="#ff6e49"/>
    <path id="Path_247" data-name="Path 247" d="M378.83,173.437c-2.286,3.018-1.432,8.759,1.705,10.921.108.074.266-.047.2-.169-.93-1.72-1.973-3.1-2.268-5.1-.287-1.947.307-3.65.713-5.525C379.224,173.364,378.935,173.3,378.83,173.437Z" fill="#ff6e49"/>
    <path id="Path_248" data-name="Path 248" d="M378.934,187.6a8.412,8.412,0,0,1-5.732-.952,7.373,7.373,0,0,1-3.964-5.036.174.174,0,0,0-.342.014c-.641,4.694,6.3,8.182,10.179,6.415C379.31,187.93,379.194,187.533,378.934,187.6Z" fill="#ff6e49"/>
    <path id="Path_249" data-name="Path 249" d="M378.875,191.58c-2.326,2.6-5.5,4.325-9.04,3.532-.156-.035-.26.192-.156.3,2.592,2.688,8.238-1.088,9.64-3.523A.271.271,0,0,0,378.875,191.58Z" fill="#ff6e49"/>
    <path id="Path_250" data-name="Path 250" d="M382.872,195.757a6.091,6.091,0,0,1-.76,2.694,17.292,17.292,0,0,1-1.7,1.8c-.1.122.034.3.176.273,1.829-.306,3.029-3.149,2.764-4.792A.245.245,0,0,0,382.872,195.757Z" fill="#ff6e49"/>
    <path id="Path_251" data-name="Path 251" d="M389.567,176.8a8.8,8.8,0,0,0-5.179-3.388c-1.626-.4-3.97-.664-5.232.665a.392.392,0,0,0,.214.678c1.692.32,3.337-.237,5.066.256a21.678,21.678,0,0,1,4.616,2.356A.388.388,0,0,0,389.567,176.8Z" fill="#ffded6" opacity="0.65"/>
    <path id="Path_252" data-name="Path 252" d="M377.211,175.037c-.31.068-.762.3-.682.688.07.341.455.31.726.338C378.015,176.142,377.951,174.877,377.211,175.037Z" fill="#ffded6" opacity="0.65"/>
    <path id="Path_253" data-name="Path 253" d="M375.041,176.043a11.234,11.234,0,0,0-5.907,4.7c-1.134,1.859-2.314,4.9-1.243,7a.35.35,0,0,0,.636-.03c.811-2.165.588-4.4,1.876-6.476a11.078,11.078,0,0,1,5.082-4.265C376.1,176.7,375.654,175.823,375.041,176.043Z" fill="#ffded6" opacity="0.65"/>
    <path id="Path_254" data-name="Path 254" d="M421.432,176.435c6.463,1.475,12.427-3.4,15.294-8.82a15.952,15.952,0,0,0-2.75-17.956,12.321,12.321,0,0,0-9.12-3.77c-3.8.157-9.571,2.83-10.644,4.086-.064-.013.2.127.173.213l0,.015-.074.047a.273.273,0,0,0-.045.424,3.907,3.907,0,0,0,.108,1.539c.176.714-.278,1.967.324,2.428a.313.313,0,0,0,.21.083,2.759,2.759,0,0,0,.694-.2,7.425,7.425,0,0,1,9.954,5.162c.533,2.288.037,4.824-2.431,5.686-1.9.665-3.831-.273-5.76.012-2.795.415-3.38,3.592-2.533,5.891C415.846,174.038,418.663,175.8,421.432,176.435Z" fill="#ffac98"/>
    <path id="Path_255" data-name="Path 255" d="M411.551,155.65c-.817,1.174-2.614,3.51-2.892,4.9a4.89,4.89,0,0,0,.048,3.075c.449.953,1.58-.265,1.937-.724a7.465,7.465,0,0,0,1.161-2.368c.3-.957.465-1.954.821-2.894a5.942,5.942,0,0,1,2.972-3.111,6.231,6.231,0,0,1-1.037-4.946,20.038,20.038,0,0,1-6.688,4.52c-1.089.388-3.231.808-3.449,2.233C404.055,158.745,409.932,156.489,411.551,155.65Z" fill="#ff5a30"/>
    <path id="Path_256" data-name="Path 256" d="M422.061,175.742c2.74-2.908.706-8.744-2.47-10.421-.262-.138-.459.207-.278.4a9.579,9.579,0,0,1,2.884,5.009c.277,1.759-.358,3.094-.6,4.768A.273.273,0,0,0,422.061,175.742Z" fill="#ff6e49"/>
    <path id="Path_257" data-name="Path 257" d="M431.253,172.963c.957-3.663-2.03-8.639-5.756-9.436a.136.136,0,0,0-.12.233c1.517,1.232,3.011,2.111,4.047,3.842,1.01,1.689,1.113,3.49,1.456,5.377C430.917,173.182,431.209,173.132,431.253,172.963Z" fill="#ff6e49"/>
    <path id="Path_258" data-name="Path 258" d="M425.737,159.922a8.417,8.417,0,0,1,5.66-1.314,7.371,7.371,0,0,1,5.589,3.135.174.174,0,0,0,.311-.144c-1.2-4.582-8.957-5.145-11.86-2.03C425.261,159.758,425.521,160.081,425.737,159.922Z" fill="#ff6e49"/>
    <path id="Path_259" data-name="Path 259" d="M424.266,156.22c1.152-3.295,3.426-6.1,7-6.724a.184.184,0,0,0,.029-.337c-3.423-1.492-7.194,4.158-7.557,6.945A.271.271,0,0,0,424.266,156.22Z" fill="#ff6e49"/>
    <path id="Path_260" data-name="Path 260" d="M418.975,153.891a6.089,6.089,0,0,1-.33-2.78,17.159,17.159,0,0,1,.878-2.317.178.178,0,0,0-.267-.186c-1.573.984-1.593,4.07-.72,5.486A.245.245,0,0,0,418.975,153.891Z" fill="#ff6e49"/>
    <path id="Path_261" data-name="Path 261" d="M420.046,173.965a8.792,8.792,0,0,0,6.081,1.148c1.658-.249,3.922-.907,4.579-2.618a.391.391,0,0,0-.457-.544c-1.685.352-2.993,1.5-4.778,1.7a21.571,21.571,0,0,1-5.166-.409A.388.388,0,0,0,420.046,173.965Z" fill="#ffded6" opacity="0.65"/>
    <path id="Path_262" data-name="Path 262" d="M432.136,170.865c.261-.18.591-.566.367-.9-.2-.289-.539-.112-.8-.035C430.97,170.153,431.513,171.3,432.136,170.865Z" fill="#ffded6" opacity="0.65"/>
    <path id="Path_263" data-name="Path 263" d="M433.755,169.1a11.222,11.222,0,0,0,3.658-6.6c.337-2.151.263-5.411-1.531-6.942a.349.349,0,0,0-.576.271c.08,2.31,1.141,4.291.746,6.7a11.079,11.079,0,0,1-3.062,5.885C432.523,168.9,433.274,169.543,433.755,169.1Z" fill="#ffded6" opacity="0.65"/>
    <path id="Path_264" data-name="Path 264" d="M435.153,200.236c-1.958-1.472-5.169-1.827-6.37.731-.829,1.766-.484,3.88-1.669,5.513-1.536,2.116-4.107,1.862-6.145.693a7.425,7.425,0,0,1-2.08-11.018c.043-.055.432-.564.393-.606a.322.322,0,0,0-.019-.226c-.269-.709-1.6-.635-2.233-1.008a3.887,3.887,0,0,0-1.443-.546.273.273,0,0,0-.419-.08l-.066.058c-.005,0-.01,0-.015,0-.091,0-.148-.293-.155-.227-1.511.666-5.731,5.423-6.975,9.018a12.323,12.323,0,0,0,.988,9.82,15.953,15.953,0,0,0,16.406,7.8c6.016-1.186,12.4-5.5,12.846-12.11C438.388,205.212,437.508,202.006,435.153,200.236Z" fill="#ffac98"/>
    <path id="Path_265" data-name="Path 265" d="M421.134,192.6c1.359-.444,4.113-1.493,5.523-1.36a4.886,4.886,0,0,1,2.932.931c.784.7-.708,1.437-1.251,1.647a7.45,7.45,0,0,1-2.6.43c-1,.01-2.005-.116-3.007-.046a5.947,5.947,0,0,0-3.835,1.952,6.23,6.23,0,0,0-4.438-2.417,20.042,20.042,0,0,0,6.253-5.105c.685-.931,1.7-2.861,3.13-2.66C426.253,186.314,422.4,191.294,421.134,192.6Z" fill="#ff5a30"/>
    <path id="Path_266" data-name="Path 266" d="M437.352,208.449c-3.573,1.788-8.577-1.839-9.269-5.363-.057-.291.329-.38.467-.15a9.582,9.582,0,0,0,3.967,4.2c1.6.771,3.066.547,4.74.795A.273.273,0,0,1,437.352,208.449Z" fill="#ff6e49"/>
    <path id="Path_267" data-name="Path 267" d="M432.047,216.453c-3.783-.138-7.691-4.43-7.382-8.228a.137.137,0,0,1,.258-.047c.744,1.808,1.155,3.49,2.516,4.981,1.326,1.454,3.021,2.07,4.73,2.942C432.353,216.194,432.221,216.459,432.047,216.453Z" fill="#ff6e49"/>
    <path id="Path_268" data-name="Path 268" d="M421.144,207.418a8.424,8.424,0,0,0-2.887,5.043,7.374,7.374,0,0,0,1.394,6.255.173.173,0,0,1-.227.256c-4.041-2.471-2.351-10.058,1.468-11.942C421.124,206.916,421.358,207.257,421.144,207.418Z" fill="#ff6e49"/>
    <path id="Path_269" data-name="Path 269" d="M418.021,204.945c-3.487.156-6.83,1.526-8.453,4.769a.184.184,0,0,1-.331-.069c-.444-3.708,6.052-5.694,8.825-5.24A.271.271,0,0,1,418.021,204.945Z" fill="#ff6e49"/>
    <path id="Path_270" data-name="Path 270" d="M417.312,199.207a6.074,6.074,0,0,0-2.566-1.115,17.209,17.209,0,0,0-2.472.174.177.177,0,0,1-.1-.309c1.394-1.224,4.355-.355,5.46.889A.245.245,0,0,1,417.312,199.207Z" fill="#ff6e49"/>
    <path id="Path_271" data-name="Path 271" d="M436.23,206.008a8.794,8.794,0,0,1-.65,6.154c-.715,1.516-2,3.5-3.824,3.633a.392.392,0,0,1-.39-.6c.822-1.513,2.294-2.436,3.005-4.086a21.676,21.676,0,0,0,1.1-5.066A.388.388,0,0,1,436.23,206.008Z" fill="#ffded6" opacity="0.65"/>
    <path id="Path_272" data-name="Path 272" d="M429.784,216.7c-.249.2-.713.4-.965.093-.22-.27.048-.548.2-.775C429.437,215.374,430.376,216.223,429.784,216.7Z" fill="#ffded6" opacity="0.65"/>
    <path id="Path_273" data-name="Path 273" d="M427.632,217.74a11.228,11.228,0,0,1-7.376,1.6c-2.158-.3-5.258-1.3-6.208-3.464a.349.349,0,0,1,.424-.474c2.19.741,3.782,2.328,6.2,2.642a11.076,11.076,0,0,0,6.517-1.239C427.791,216.5,428.19,217.4,427.632,217.74Z" fill="#ffded6" opacity="0.65"/>
    <path id="Path_274" data-name="Path 274" d="M406.482,222.627a1.842,1.842,0,0,0-2.23,1.266c-.073.312-.163.626-.219.942a2.524,2.524,0,0,0,.287,1.643,1.568,1.568,0,0,0,2.142.561,2.448,2.448,0,0,0,1.037-1.249c.1-.3.166-.624.249-.933A1.838,1.838,0,0,0,406.482,222.627Z" fill="#f6f1ea"/>
    <path id="Path_275" data-name="Path 275" d="M449.259,201.619c-.433-.241-.892-.439-1.339-.653a2.094,2.094,0,0,0-2.113,3.616c.612.292,1.219.588,1.848.843a2.085,2.085,0,0,0,1.6-3.806Z" fill="#f6f1ea"/>
    <path id="Path_276" data-name="Path 276" d="M406.094,192.125a1.65,1.65,0,0,0,.752,1.468,1.012,1.012,0,0,0,1.058,0,1.65,1.65,0,0,0,.752-1.468A1.282,1.282,0,0,0,406.094,192.125Z" fill="#f6f1ea"/>
    <path id="Path_277" data-name="Path 277" d="M412.6,181.7l-.133-.093a1.906,1.906,0,1,0,0,3.292l.133-.092A1.827,1.827,0,0,0,412.6,181.7Z" fill="#f6f1ea"/>
    <path id="Path_278" data-name="Path 278" d="M399.15,171.821l-.209-.379a2.105,2.105,0,1,0-2.382,3.1l.426.1A1.941,1.941,0,0,0,399.15,171.821Z" fill="#f6f1ea"/>
    <path id="Path_279" data-name="Path 279" d="M383.625,164.516a.859.859,0,0,0,0,1.718A.859.859,0,0,0,383.625,164.516Z" fill="#f6f1ea"/>
    <path id="Path_280" data-name="Path 280" d="M366.25,172.578c-3.117,0-3.122,4.844,0,4.844S369.372,172.578,366.25,172.578Z" fill="#f6f1ea"/>
    <path id="Path_281" data-name="Path 281" d="M365.753,197.247a2.153,2.153,0,0,0-3.628,1.5,4.477,4.477,0,0,0-.014.75,1.445,1.445,0,0,0,1.389,1.389,4.476,4.476,0,0,0,.75-.014,2.163,2.163,0,0,0,1.942-1.306A2.116,2.116,0,0,0,365.753,197.247Z" fill="#f6f1ea"/>
    <path id="Path_282" data-name="Path 282" d="M364.5,208.25c-2.574,0-2.578,4,0,4S367.078,208.25,364.5,208.25Z" fill="#f6f1ea"/>
    <path id="Path_283" data-name="Path 283" d="M384.674,208.765a1.594,1.594,0,0,0-2.318,1.782,1.453,1.453,0,0,0,.8,1,.424.424,0,0,0,.16.043c-.019,0-.023,0,.038.02a1.57,1.57,0,0,0,1.321-.12A1.6,1.6,0,0,0,384.674,208.765Z" fill="#fff"/>
    <path id="Path_284" data-name="Path 284" d="M379.074,217.8a2.182,2.182,0,0,0-2.652,1.506c-.2,1.145-.608,2.715.147,3.744a1.531,1.531,0,0,0,2.007.527c1.153-.495,1.6-2.056,2-3.124A2.166,2.166,0,0,0,379.074,217.8Z" fill="#f6f1ea"/>
    <path id="Path_285" data-name="Path 285" d="M402.633,150.234a2.641,2.641,0,0,0-2.49-.738,2.683,2.683,0,0,0-1.688,1.841,2.458,2.458,0,0,0,.643,2.433,2.5,2.5,0,1,0,3.535-3.536Z" fill="#f6f1ea"/>
    <path id="Path_286" data-name="Path 286" d="M415.25,141.3c-3,0-3,4.656,0,4.656S418.251,141.3,415.25,141.3Z" fill="#f6f1ea"/>
    <path id="Path_287" data-name="Path 287" d="M448.85,168.225a3.24,3.24,0,0,0-1.4-.819,2.172,2.172,0,1,0,0,4.188,3.258,3.258,0,0,0,1.4-.819A1.838,1.838,0,0,0,448.85,168.225Z" fill="#f6f1ea"/>
    <path id="Path_288" data-name="Path 288" d="M451.394,181.057a2.115,2.115,0,0,0-.211-1.614,2.093,2.093,0,0,0-3.077-.587,2.066,2.066,0,0,0-.375,2.913,2.118,2.118,0,0,0,2.93.389,1.316,1.316,0,0,0,.518-.6l0,0,.008-.019a1.54,1.54,0,0,0,.061-.145Z" fill="#f6f1ea"/>
    <path id="Path_289" data-name="Path 289" d="M425.375,200.625a1.5,1.5,0,0,0,0,3A1.5,1.5,0,0,0,425.375,200.625Z" fill="#f6f1ea"/>
    <path id="Path_290" data-name="Path 290" d="M405.25,201.109a1.642,1.642,0,0,0,0,3.282A1.642,1.642,0,0,0,405.25,201.109Z" fill="#f6f1ea"/>
    <path id="Path_291" data-name="Path 291" d="M389.679,227.369a1.917,1.917,0,0,0-2.523.15,1.946,1.946,0,0,0,0,2.718l.1.087a.563.563,0,0,0,.045.086,1.277,1.277,0,0,0,.588.509,1.141,1.141,0,0,0,1.161-.209,1.894,1.894,0,0,0,.629-3.341Z" fill="#f6f1ea"/>
    <path id="Path_292" data-name="Path 292" d="M397.787,139.857a.3.3,0,0,0-.466-.06,1.017,1.017,0,0,0-.338.722c0-.049-.018-.094-.019-.144a.313.313,0,0,0-.625,0,4.759,4.759,0,0,0,.47,2.058c.139.294.516.155.614-.08a9.859,9.859,0,0,0,.36-1.386A1.371,1.371,0,0,0,397.787,139.857Z" fill="#6faa2e"/>
    <path id="Path_293" data-name="Path 293" d="M445.725,173.737a1.8,1.8,0,0,1-.962-.057c-.083-.035-.16-.073-.236-.111a.4.4,0,0,0-.619-.315c-.067.04-.131.077-.2.114-.01,0-.018,0-.029,0l.011.011c-.287.167-.519.337-.462.756a1.315,1.315,0,0,0,.963.912,1.587,1.587,0,0,0,1.876-.855A.362.362,0,0,0,445.725,173.737Z" fill="#6faa2e"/>
    <path id="Path_294" data-name="Path 294" d="M410.191,169.245a.242.242,0,0,0-.273-.112c-.519.153-.7.7-.824,1.232-.466-.507-1.4.062-.982.685a1.586,1.586,0,0,0,1.388.787.594.594,0,0,0,.588-.588C410.016,170.565,410.492,169.88,410.191,169.245Z" fill="#6faa2e"/>
    <path id="Path_295" data-name="Path 295" d="M382.315,168.746a5.775,5.775,0,0,0-.829-.73c-.523-.432-1.279.315-.751.751.126.1.252.215.38.324a.984.984,0,0,0-.462.568.369.369,0,0,0,.451.451,2.993,2.993,0,0,0,.785-.55A.484.484,0,0,0,382.315,168.746Z" fill="#6faa2e"/>
    <path id="Path_296" data-name="Path 296" d="M371.278,178.254a9.339,9.339,0,0,0-.887-1.358c-.325-.477-1.1-.035-.782.458.209.321.417.659.642.98a1.215,1.215,0,0,0-1.165.383.342.342,0,0,0,.052.407c.438.474,1.3.116,1.842.014a.339.339,0,0,0,.274-.413A.474.474,0,0,0,371.278,178.254Z" fill="#6faa2e"/>
    <path id="Path_297" data-name="Path 297" d="M405.949,194.643a.4.4,0,0,0-.282-.282c-.263-.05-.529-.078-.795-.111-.434-.054-.534.683-.1.767.166.033.331.058.5.086-.27.441-.563.906-.335,1.4a.246.246,0,0,0,.381.049,1.628,1.628,0,0,0,.385-.994C405.758,195.26,406.044,194.939,405.949,194.643Z" fill="#6faa2e"/>
    <path id="Path_298" data-name="Path 298" d="M377.215,207.229c-.118-.58-1.252-.669-1.666-.741-.816-.141-1.167,1.109-.344,1.251a6.15,6.15,0,0,0,1.285.177.619.619,0,0,0,.635.623A.66.66,0,0,0,377.215,207.229Z" fill="#6faa2e"/>
    <path id="Path_299" data-name="Path 299" d="M395.207,210.374c-.024.28-.122.576-.121.855a5.7,5.7,0,0,0,.1.744.346.346,0,0,0,.505.2,2.389,2.389,0,0,0,1.07-1.594C397.061,209.509,395.311,209.2,395.207,210.374Z" fill="#6faa2e"/>
    <path id="Path_300" data-name="Path 300" d="M394.75,211.7a.05.05,0,0,0,0,.1A.05.05,0,0,0,394.75,211.7Z" fill="#6faa2e"/>
    <path id="Path_301" data-name="Path 301" d="M406.564,218.478a.813.813,0,0,0-1.567-.432,1.564,1.564,0,0,0,.5,1.885.753.753,0,0,0,1.125-.646A3.209,3.209,0,0,1,406.564,218.478Z" fill="#6faa2e"/>
    <path id="Path_302" data-name="Path 302" d="M435.131,195.734c-.573-.281-1.22-.281-1.805-.542-.736-.329-1.375.681-.647,1.106.139.081.288.161.441.238,0,.171,0,.342.005.514a.625.625,0,0,0,1.25,0v-.137a1.694,1.694,0,0,0,.611-.075A.611.611,0,0,0,435.131,195.734Z" fill="#6faa2e"/>
    <path id="Path_303" data-name="Path 303" d="M439.25,187.9a.727.727,0,0,0,0,1.454A.727.727,0,0,0,439.25,187.9Z" fill="#6faa2e"/>
    <path id="Path_304" data-name="Path 304" d="M450.625,181.117a.633.633,0,0,0,0,1.266A.633.633,0,0,0,450.625,181.117Z" fill="#6faa2e"/>
    <path id="Path_305" data-name="Path 305" d="M404.875,185.008a.492.492,0,0,0,0,.984A.492.492,0,0,0,404.875,185.008Z" fill="#6faa2e"/>
    <path id="Path_306" data-name="Path 306" d="M444,205.6a.735.735,0,0,0,0,1.469A.735.735,0,0,0,444,205.6Z" fill="#6faa2e"/>
    <path id="Path_307" data-name="Path 307" d="M432.167,225.18a.82.82,0,0,0,0,1.64A.82.82,0,0,0,432.167,225.18Z" fill="#6faa2e"/>
    <path id="Path_308" data-name="Path 308" d="M405.667,226.88a.453.453,0,0,0,0,.906A.453.453,0,0,0,405.667,226.88Z" fill="#6faa2e"/>
    <path id="Path_309" data-name="Path 309" d="M365,203.958a.375.375,0,0,0,0,.75A.375.375,0,0,0,365,203.958Z" fill="#6faa2e"/>
    <path id="Path_310" data-name="Path 310" d="M371.833,156.047a.954.954,0,0,0,0,1.906A.954.954,0,0,0,371.833,156.047Z" fill="#6faa2e"/>
    <path id="Path_311" data-name="Path 311" d="M412.167,147.414a.586.586,0,0,0,0,1.172A.586.586,0,0,0,412.167,147.414Z" fill="#6faa2e"/>
    <path id="Path_312" data-name="Path 312" d="M437.333,149.018a.649.649,0,0,0,0,1.3A.649.649,0,0,0,437.333,149.018Z" fill="#6faa2e"/>
    <path id="Path_313" data-name="Path 313" d="M418.5,163.346a.821.821,0,0,0,0,1.641A.821.821,0,0,0,418.5,163.346Z" fill="#6faa2e"/>
    <path id="Path_314" data-name="Path 314" d="M452.833,173.641a.86.86,0,0,0,0,1.718A.86.86,0,0,0,452.833,173.641Z" fill="#6faa2e"/>
    <path id="Path_315" data-name="Path 315" d="M386.5,206.283a.05.05,0,0,0,0,.1A.05.05,0,0,0,386.5,206.283Z" fill="#6faa2e"/>
    <path id="Path_316" data-name="Path 316" d="M392.167,190.745a.922.922,0,0,0,0,1.843A.922.922,0,0,0,392.167,190.745Z" fill="#6faa2e"/>
    <path id="Path_317" data-name="Path 317" d="M396,232.815a.852.852,0,0,0,0,1.7A.852.852,0,0,0,396,232.815Z" fill="#6faa2e"/>
  </g>
</svg>
