<svg xmlns="http://www.w3.org/2000/svg" width="187.798" height="186.163" viewBox="0 0 187.798 186.163">
  <g id="Group_172" data-name="Group 172" transform="translate(-561.769 -58.7)">
    <g id="Group_171" data-name="Group 171">
      <path id="Path_249" data-name="Path 249" d="M420.416,125.169c-4.251-2.4-7.951-7.11-11.843-10.22-8.286-6.62-16.856-12.732-25-19.55-1.837-1.539-7.683-4.6-7.948-7.071-.432-4.037,4.312-6.18,7.035-6.315,4.886-.243,9.667-.27,14.582-.782,7.622-.793,15.3-1.357,22.9-1.624A53.84,53.84,0,0,0,430.623,78.6c1.985,4.992,2.541,11.169,3.741,16.494,1.631,7.235,2.995,14.567,2.452,22.234-.4,5.626-2,10.332-4.016,15.563C428.329,131.256,424.48,128.418,420.416,125.169Z" transform="translate(285 2)" fill="#c97c28"/>
      <path id="Path_250" data-name="Path 250" d="M428.188,127.218c-.9-2.788-5.751-4.833-7.645-6.761-2.965-3.02-5.515-6.9-8.657-9.646-2.824-2.47-6.646-3.452-9.606-5.685-2.64-1.993-2.9-4.18-4.719-6.668,2.881-.742,5.923-.712,8.845-1.255,5.373-1,10.094-3.635,15.1-5.805,2.014-.873,5.27-1.616,6.894.206,1.8,2.025,2.172,8.019,2.843,10.7a55.263,55.263,0,0,1,1.658,14.553,21.375,21.375,0,0,1-2.356,10.134A5.089,5.089,0,0,0,428.188,127.218Z" transform="translate(285 2)" fill="#d68c43"/>
      <path id="Path_251" data-name="Path 251" d="M424.747,103.556a1.917,1.917,0,1,1,2.393-.908A1.815,1.815,0,0,1,424.747,103.556Z" transform="translate(285 2)" fill="#ce9228" style="mix-blend-mode: multiply;isolation: isolate"/>
      <path id="Path_252" data-name="Path 252" d="M414.467,97.949a1.1,1.1,0,1,1,1.367-.519A1.038,1.038,0,0,1,414.467,97.949Z" transform="translate(285 2)" fill="#ce9228" style="mix-blend-mode: multiply;isolation: isolate"/>
      <path id="Path_253" data-name="Path 253" d="M416.268,90.318a1.043,1.043,0,1,1,1.3-.494A.986.986,0,0,1,416.268,90.318Z" transform="translate(285 2)" fill="#ce9228" style="mix-blend-mode: multiply;isolation: isolate"/>
      <path id="Path_254" data-name="Path 254" d="M404.56,94.221a1.071,1.071,0,1,1,1.337-.507A1.013,1.013,0,0,1,404.56,94.221Z" transform="translate(285 2)" fill="#ce9228" style="mix-blend-mode: multiply;isolation: isolate"/>
      <path id="Path_255" data-name="Path 255" d="M411.956,105.175A1.635,1.635,0,1,1,414,104.4,1.547,1.547,0,0,1,411.956,105.175Z" transform="translate(285 2)" fill="#ce9228" style="mix-blend-mode: multiply;isolation: isolate"/>
      <path id="Path_256" data-name="Path 256" d="M423.466,115.489a.566.566,0,1,1,.706-.269A.536.536,0,0,1,423.466,115.489Z" transform="translate(285 2)" fill="#ce9228" style="mix-blend-mode: multiply;isolation: isolate"/>
      <path id="Path_257" data-name="Path 257" d="M431.019,115.032l-.746-.386.746.386.747.386Z" transform="translate(285 2)" fill="#ce9228" style="mix-blend-mode: multiply;isolation: isolate"/>
      <path id="Path_258" data-name="Path 258" d="M416.3,115.312a.445.445,0,1,1,.555-.211A.422.422,0,0,1,416.3,115.312Z" transform="translate(285 2)" fill="#ce9228" style="mix-blend-mode: multiply;isolation: isolate"/>
      <path id="Path_259" data-name="Path 259" d="M421.237,109.323a.527.527,0,1,1,.657-.25A.5.5,0,0,1,421.237,109.323Z" transform="translate(285 2)" fill="#ce9228" style="mix-blend-mode: multiply;isolation: isolate"/>
      <path id="Path_260" data-name="Path 260" d="M428.175,118.733a.928.928,0,1,1,1.158-.44A.88.88,0,0,1,428.175,118.733Z" transform="translate(285 2)" fill="#ce9228" style="mix-blend-mode: multiply;isolation: isolate"/>
      <path id="Path_261" data-name="Path 261" d="M431.522,109.38a.544.544,0,1,1,.679-.258A.516.516,0,0,1,431.522,109.38Z" transform="translate(285 2)" fill="#ce9228" style="mix-blend-mode: multiply;isolation: isolate"/>
      <ellipse id="Ellipse_27" data-name="Ellipse 27" cx="1.053" cy="0.944" rx="1.053" ry="0.944" transform="translate(677.386 97.598) rotate(-62.662)" fill="#ce9228" style="mix-blend-mode: multiply;isolation: isolate"/>
      <path id="Path_262" data-name="Path 262" d="M396.272,88.738a.536.536,0,1,1,.669-.254A.507.507,0,0,1,396.272,88.738Z" transform="translate(285 2)" fill="#ce9228" style="mix-blend-mode: multiply;isolation: isolate"/>
      <path id="Path_263" data-name="Path 263" d="M386.378,89.521a.549.549,0,1,1,.686-.26A.521.521,0,0,1,386.378,89.521Z" transform="translate(285 2)" fill="#ce9228" style="mix-blend-mode: multiply;isolation: isolate"/>
      <path id="Path_264" data-name="Path 264" d="M406.964,86.662a.516.516,0,1,1,.644-.244A.489.489,0,0,1,406.964,86.662Z" transform="translate(285 2)" fill="#ce9228" style="mix-blend-mode: multiply;isolation: isolate"/>
      <path id="Path_265" data-name="Path 265" d="M409.7,91.425a.54.54,0,1,1,.674-.256A.512.512,0,0,1,409.7,91.425Z" transform="translate(285 2)" fill="#ce9228" style="mix-blend-mode: multiply;isolation: isolate"/>
      <path id="Path_266" data-name="Path 266" d="M403.5,103.417a.54.54,0,1,1,.674-.256A.512.512,0,0,1,403.5,103.417Z" transform="translate(285 2)" fill="#ce9228" style="mix-blend-mode: multiply;isolation: isolate"/>
      <path id="Path_267" data-name="Path 267" d="M427.226,85.391a.962.962,0,1,1,1.2-.455A.91.91,0,0,1,427.226,85.391Z" transform="translate(285 2)" fill="#ce9228" style="mix-blend-mode: multiply;isolation: isolate"/>
      <path id="Path_268" data-name="Path 268" d="M421.257,87.187Z" transform="translate(285 2)" fill="#ce9228" style="mix-blend-mode: multiply;isolation: isolate"/>
      <path id="Path_269" data-name="Path 269" d="M418.418,83.688a1.273,1.273,0,1,1,1.59-.6A1.206,1.206,0,0,1,418.418,83.688Z" transform="translate(285 2)" fill="#ce9228" style="mix-blend-mode: multiply;isolation: isolate"/>
      <path id="Path_270" data-name="Path 270" d="M385.509,199.634c3.528-3.373,9.111-5.547,13.215-8.37,8.739-6.01,17.074-12.439,25.961-18.254,2.005-1.313,6.626-6.021,9.072-5.557,3.989.758,4.663,5.92,4,8.564-1.185,4.747-2.546,9.33-3.482,14.183-1.451,7.524-3.136,15.032-5.087,22.392a53.791,53.791,0,0,0-2.071,10.317c-5.353.452-11.425-.807-16.871-1.2-7.4-.537-14.808-1.358-21.988-4.1-5.269-2.013-9.31-4.907-13.73-8.357C377.389,205.442,381.22,202.581,385.509,199.634Z" transform="translate(285 2)" fill="#c97c28"/>
      <path id="Path_271" data-name="Path 271" d="M381.294,206.478c2.929-.052,6.293-4.1,8.688-5.355,3.75-1.963,8.2-3.279,11.741-5.488,3.184-1.986,5.231-5.359,8.227-7.544,2.673-1.949,4.841-1.562,7.75-2.583-.125,2.972-1.036,5.875-1.364,8.829-.6,5.431.551,10.714,1.175,16.139.251,2.181.018,5.513-2.2,6.538-2.462,1.14-8.3-.247-11.064-.382A55.3,55.3,0,0,1,389.842,214a21.385,21.385,0,0,1-9.015-5.193A5.1,5.1,0,0,0,381.294,206.478Z" transform="translate(285 2)" fill="#d68c43"/>
      <path id="Path_273" data-name="Path 273" d="M413.284,201.835a1.1,1.1,0,1,1,.1,1.459A1.038,1.038,0,0,1,413.284,201.835Z" transform="translate(285 2)" fill="#ce9228" style="mix-blend-mode: multiply;isolation: isolate"/>
      <path id="Path_274" data-name="Path 274" d="M420.065,205.771a1.042,1.042,0,1,1,.1,1.389A.987.987,0,0,1,420.065,205.771Z" transform="translate(285 2)" fill="#ce9228" style="mix-blend-mode: multiply;isolation: isolate"/>
      <path id="Path_275" data-name="Path 275" d="M419.725,193.435a1.071,1.071,0,1,1,.1,1.426A1.013,1.013,0,0,1,419.725,193.435Z" transform="translate(285 2)" fill="#ce9228" style="mix-blend-mode: multiply;isolation: isolate"/>
      <path id="Path_276" data-name="Path 276" d="M407.1,197.336a1.635,1.635,0,1,1,.149,2.178A1.548,1.548,0,0,1,407.1,197.336Z" transform="translate(285 2)" fill="#ce9228" style="mix-blend-mode: multiply;isolation: isolate"/>
      <path id="Path_277" data-name="Path 277" d="M393.889,205.36a.566.566,0,1,1,.052.754A.535.535,0,0,1,393.889,205.36Z" transform="translate(285 2)" fill="#ce9228" style="mix-blend-mode: multiply;isolation: isolate"/>
      <path id="Path_279" data-name="Path 279" d="M396.137,198.551a.445.445,0,1,1,.04.594A.422.422,0,0,1,396.137,198.551Z" transform="translate(285 2)" fill="#ce9228" style="mix-blend-mode: multiply;isolation: isolate"/>
      <path id="Path_280" data-name="Path 280" d="M400.436,205.015a.526.526,0,1,1,.048.7A.5.5,0,0,1,400.436,205.015Z" transform="translate(285 2)" fill="#ce9228" style="mix-blend-mode: multiply;isolation: isolate"/>
      <path id="Path_283" data-name="Path 283" d="M421.281,182.062a1.059,1.059,0,1,1,.1,1.41A1,1,0,0,1,421.281,182.062Z" transform="translate(285 2)" fill="#ce9228" style="mix-blend-mode: multiply;isolation: isolate"/>
      <path id="Path_284" data-name="Path 284" d="M427.376,187.094a.535.535,0,1,1,.049.713A.507.507,0,0,1,427.376,187.094Z" transform="translate(285 2)" fill="#ce9228" style="mix-blend-mode: multiply;isolation: isolate"/>
      <path id="Path_285" data-name="Path 285" d="M429.5,177.4a.549.549,0,1,1,.05.731A.518.518,0,0,1,429.5,177.4Z" transform="translate(285 2)" fill="#ce9228" style="mix-blend-mode: multiply;isolation: isolate"/>
      <path id="Path_286" data-name="Path 286" d="M426.262,197.928a.516.516,0,1,1,.047.687A.488.488,0,0,1,426.262,197.928Z" transform="translate(285 2)" fill="#ce9228" style="mix-blend-mode: multiply;isolation: isolate"/>
      <path id="Path_287" data-name="Path 287" d="M420.911,199.163a.54.54,0,1,1,.049.719A.511.511,0,0,1,420.911,199.163Z" transform="translate(285 2)" fill="#ce9228" style="mix-blend-mode: multiply;isolation: isolate"/>
      <path id="Path_288" data-name="Path 288" d="M411.233,189.752a.54.54,0,1,1,.049.718A.509.509,0,0,1,411.233,189.752Z" transform="translate(285 2)" fill="#ce9228" style="mix-blend-mode: multiply;isolation: isolate"/>
      <path id="Path_292" data-name="Path 292" d="M326.994,159.984c-1.419,4.671-5.215,9.305-7.406,13.778-4.664,9.526-8.771,19.219-13.659,28.647-1.1,2.128-2.819,8.5-5.177,9.294-3.847,1.3-6.968-2.869-7.691-5.5-1.3-4.718-2.362-9.378-3.928-14.065-2.428-7.268-4.645-14.637-6.557-22.007a53.88,53.88,0,0,0-3.26-10.005c4.442-3.022,10.351-4.9,15.289-7.233,6.708-3.162,13.569-6.085,21.171-7.218,5.579-.832,10.52-.294,16.065.543C331.219,150.939,329.284,155.312,326.994,159.984Z" transform="translate(285 2)" fill="#c97c28"/>
      <path id="Path_293" data-name="Path 293" d="M327.307,151.953c-2.526,1.483-3.469,6.663-4.941,8.93-2.3,3.55-5.535,6.881-7.536,10.544-1.8,3.293-1.928,7.236-3.466,10.611-1.371,3.009-3.451,3.736-5.484,6.053-1.349-2.65-1.981-5.627-3.145-8.361-2.14-5.029-5.738-9.065-8.945-13.485-1.289-1.777-2.721-4.794-1.3-6.774,1.585-2.2,7.357-3.861,9.827-5.1a55.293,55.293,0,0,1,13.846-4.777,21.387,21.387,0,0,1,10.4.1A5.1,5.1,0,0,0,327.307,151.953Z" transform="translate(285 2)" fill="#d68c43"/>
      <path id="Path_294" data-name="Path 294" d="M304.957,160.448a1.918,1.918,0,1,1-1.407-2.14A1.817,1.817,0,0,1,304.957,160.448Z" transform="translate(285 2)" fill="#ce9228" style="mix-blend-mode: multiply;isolation: isolate"/>
      <path id="Path_295" data-name="Path 295" d="M301.714,171.7a1.1,1.1,0,1,1-.8-1.222A1.037,1.037,0,0,1,301.714,171.7Z" transform="translate(285 2)" fill="#ce9228" style="mix-blend-mode: multiply;isolation: isolate"/>
      <path id="Path_296" data-name="Path 296" d="M293.874,171.6a1.042,1.042,0,1,1-.764-1.163A.987.987,0,0,1,293.874,171.6Z" transform="translate(285 2)" fill="#ce9228" style="mix-blend-mode: multiply;isolation: isolate"/>
      <path id="Path_297" data-name="Path 297" d="M300.225,182.179a1.071,1.071,0,1,1-.785-1.2A1.014,1.014,0,0,1,300.225,182.179Z" transform="translate(285 2)" fill="#ce9228" style="mix-blend-mode: multiply;isolation: isolate"/>
      <path id="Path_298" data-name="Path 298" d="M309.313,172.582a1.635,1.635,0,1,1-1.2-1.824A1.548,1.548,0,0,1,309.313,172.582Z" transform="translate(285 2)" fill="#ce9228" style="mix-blend-mode: multiply;isolation: isolate"/>
      <path id="Path_299" data-name="Path 299" d="M316.882,159.108a.565.565,0,1,1-.415-.631A.536.536,0,0,1,316.882,159.108Z" transform="translate(285 2)" fill="#ce9228" style="mix-blend-mode: multiply;isolation: isolate"/>
      <path id="Path_300" data-name="Path 300" d="M314.8,151.834l-.215.812.215-.812.215-.813Z" transform="translate(285 2)" fill="#ce9228" style="mix-blend-mode: multiply;isolation: isolate"/>
      <path id="Path_301" data-name="Path 301" d="M318.266,166.144a.445.445,0,1,1-.327-.5A.421.421,0,0,1,318.266,166.144Z" transform="translate(285 2)" fill="#ce9228" style="mix-blend-mode: multiply;isolation: isolate"/>
      <path id="Path_302" data-name="Path 302" d="M311.347,162.622a.526.526,0,1,1-.386-.587A.5.5,0,0,1,311.347,162.622Z" transform="translate(285 2)" fill="#ce9228" style="mix-blend-mode: multiply;isolation: isolate"/>
      <path id="Path_303" data-name="Path 303" d="M319.027,153.807a.927.927,0,1,1-.68-1.035A.877.877,0,0,1,319.027,153.807Z" transform="translate(285 2)" fill="#ce9228" style="mix-blend-mode: multiply;isolation: isolate"/>
      <path id="Path_304" data-name="Path 304" d="M309.171,152.57a.544.544,0,1,1-.4-.608A.516.516,0,0,1,309.171,152.57Z" transform="translate(285 2)" fill="#ce9228" style="mix-blend-mode: multiply;isolation: isolate"/>
      <path id="Path_305" data-name="Path 305" d="M304.452,192.852a1.059,1.059,0,1,1-.777-1.182A1,1,0,0,1,304.452,192.852Z" transform="translate(285 2)" fill="#ce9228" style="mix-blend-mode: multiply;isolation: isolate"/>
      <path id="Path_306" data-name="Path 306" d="M296.671,191.459a.535.535,0,1,1-.392-.6A.505.505,0,0,1,296.671,191.459Z" transform="translate(285 2)" fill="#ce9228" style="mix-blend-mode: multiply;isolation: isolate"/>
      <path id="Path_307" data-name="Path 307" d="M299.583,200.948a.55.55,0,1,1-.4-.613A.52.52,0,0,1,299.583,200.948Z" transform="translate(285 2)" fill="#ce9228" style="mix-blend-mode: multiply;isolation: isolate"/>
      <path id="Path_308" data-name="Path 308" d="M292.324,181.473a.516.516,0,1,1-.378-.575A.487.487,0,0,1,292.324,181.473Z" transform="translate(285 2)" fill="#ce9228" style="mix-blend-mode: multiply;isolation: isolate"/>
      <path id="Path_309" data-name="Path 309" d="M296.38,177.77a.539.539,0,1,1-.4-.6A.511.511,0,0,1,296.38,177.77Z" transform="translate(285 2)" fill="#ce9228" style="mix-blend-mode: multiply;isolation: isolate"/>
      <path id="Path_310" data-name="Path 310" d="M309.432,181.22a.539.539,0,1,1-.4-.6A.511.511,0,0,1,309.432,181.22Z" transform="translate(285 2)" fill="#ce9228" style="mix-blend-mode: multiply;isolation: isolate"/>
      <path id="Path_314" data-name="Path 314" d="M372.676,190.9c-1.418,4.67-5.215,9.3-7.4,13.778-4.665,9.525-8.771,19.218-13.66,28.646-1.1,2.128-2.818,8.5-5.177,9.294-3.847,1.3-6.968-2.868-7.691-5.5-1.3-4.717-2.361-9.378-3.928-14.065-2.428-7.268-4.645-14.637-6.557-22.007a53.806,53.806,0,0,0-3.26-10c4.442-3.021,10.351-4.9,15.289-7.232,6.708-3.163,13.569-6.086,21.172-7.219,5.579-.831,10.519-.293,16.064.543C376.9,181.854,374.966,186.227,372.676,190.9Z" transform="translate(285 2)" fill="#c97c28"/>
      <path id="Path_315" data-name="Path 315" d="M372.989,182.868c-2.526,1.483-3.469,6.663-4.94,8.93-2.3,3.55-5.536,6.881-7.537,10.544-1.8,3.293-1.927,7.237-3.465,10.611-1.372,3.009-3.451,3.736-5.485,6.054-1.349-2.651-1.98-5.627-3.144-8.362-2.14-5.029-5.739-9.065-8.946-13.485-1.289-1.777-2.721-4.794-1.295-6.774,1.585-2.2,7.357-3.861,9.827-5.1a55.293,55.293,0,0,1,13.846-4.777,21.392,21.392,0,0,1,10.4.1A5.08,5.08,0,0,0,372.989,182.868Z" transform="translate(285 2)" fill="#d68c43"/>
      <ellipse id="Ellipse_28" data-name="Ellipse 28" cx="1.709" cy="1.906" rx="1.709" ry="1.906" transform="translate(631.516 194.041) rotate(-75.193)" fill="#ce9228" style="mix-blend-mode: multiply;isolation: isolate"/>
      <path id="Path_316" data-name="Path 316" d="M347.4,202.614a1.1,1.1,0,1,1-.8-1.222A1.038,1.038,0,0,1,347.4,202.614Z" transform="translate(285 2)" fill="#ce9228" style="mix-blend-mode: multiply;isolation: isolate"/>
      <path id="Path_317" data-name="Path 317" d="M339.556,202.512a1.042,1.042,0,1,1-.764-1.162A.987.987,0,0,1,339.556,202.512Z" transform="translate(285 2)" fill="#ce9228" style="mix-blend-mode: multiply;isolation: isolate"/>
      <path id="Path_319" data-name="Path 319" d="M354.995,203.5a1.635,1.635,0,1,1-1.2-1.824A1.547,1.547,0,0,1,354.995,203.5Z" transform="translate(285 2)" fill="#ce9228" style="mix-blend-mode: multiply;isolation: isolate"/>
      <path id="Path_320" data-name="Path 320" d="M362.565,190.023a.566.566,0,1,1-.415-.631A.536.536,0,0,1,362.565,190.023Z" transform="translate(285 2)" fill="#ce9228" style="mix-blend-mode: multiply;isolation: isolate"/>
      <path id="Path_321" data-name="Path 321" d="M360.479,182.749l-.214.813.214-.813.215-.813Z" transform="translate(285 2)" fill="#ce9228" style="mix-blend-mode: multiply;isolation: isolate"/>
      <path id="Path_322" data-name="Path 322" d="M363.948,197.059a.445.445,0,1,1-.327-.5A.422.422,0,0,1,363.948,197.059Z" transform="translate(285 2)" fill="#ce9228" style="mix-blend-mode: multiply;isolation: isolate"/>
      <path id="Path_323" data-name="Path 323" d="M357.03,193.537a.526.526,0,1,1-.386-.587A.5.5,0,0,1,357.03,193.537Z" transform="translate(285 2)" fill="#ce9228" style="mix-blend-mode: multiply;isolation: isolate"/>
      <path id="Path_324" data-name="Path 324" d="M364.709,184.722a.927.927,0,1,1-.68-1.034A.877.877,0,0,1,364.709,184.722Z" transform="translate(285 2)" fill="#ce9228" style="mix-blend-mode: multiply;isolation: isolate"/>
      <path id="Path_325" data-name="Path 325" d="M354.853,183.485a.544.544,0,1,1-.4-.607A.515.515,0,0,1,354.853,183.485Z" transform="translate(285 2)" fill="#ce9228" style="mix-blend-mode: multiply;isolation: isolate"/>
      <path id="Path_332" data-name="Path 332" d="M332.369,192.885a.962.962,0,1,1-.706-1.074A.911.911,0,0,1,332.369,192.885Z" transform="translate(285 2)" fill="#ce9228" style="mix-blend-mode: multiply;isolation: isolate"/>
      <path id="Path_333" data-name="Path 333" d="M335.417,198.322Z" transform="translate(285 2)" fill="#ce9228" style="mix-blend-mode: multiply;isolation: isolate"/>
      <path id="Path_334" data-name="Path 334" d="M332.618,201.852a1.274,1.274,0,1,1-.934-1.421A1.205,1.205,0,0,1,332.618,201.852Z" transform="translate(285 2)" fill="#ce9228" style="mix-blend-mode: multiply;isolation: isolate"/>
      <path id="Path_335" data-name="Path 335" d="M306.184,95.376c2.788,4.006,4.075,9.857,6.231,14.347,4.59,9.562,9.657,18.789,14.032,28.466.987,2.184,4.927,7.476,4.091,9.821-1.364,3.824-6.568,3.694-9.079,2.634-4.508-1.9-8.826-3.954-13.476-5.627-7.21-2.6-14.369-5.418-21.339-8.481a53.868,53.868,0,0,0-9.875-3.637c.379-5.358,2.56-11.164,3.791-16.483,1.671-7.225,3.625-14.422,7.444-21.093,2.8-4.895,6.284-8.441,10.375-12.276C301.7,86.457,303.933,90.684,306.184,95.376Z" transform="translate(285 2)" fill="#c97c28"/>
      <path id="Path_336" data-name="Path 336" d="M300.072,90.156c-.4,2.9,3.082,6.85,3.951,9.409,1.36,4.008,1.974,8.608,3.611,12.448,1.471,3.452,4.488,6,6.185,9.292,1.513,2.941.8,5.024,1.356,8.055-2.916-.582-5.644-1.929-8.512-2.709-5.274-1.434-10.672-1.108-16.128-1.328-2.194-.088-5.449-.833-6.121-3.179-.746-2.607,1.525-8.167,2.084-10.873a55.334,55.334,0,0,1,4.824-13.829,21.394,21.394,0,0,1,6.523-8.107A5.1,5.1,0,0,0,300.072,90.156Z" transform="translate(285 2)" fill="#d68c43"/>
      <path id="Path_337" data-name="Path 337" d="M292.9,112.965a1.918,1.918,0,1,1-2.551-.221A1.816,1.816,0,0,1,292.9,112.965Z" transform="translate(285 2)" fill="#ce9228" style="mix-blend-mode: multiply;isolation: isolate"/>
      <path id="Path_338" data-name="Path 338" d="M299.725,122.479a1.1,1.1,0,1,1-1.457-.126A1.038,1.038,0,0,1,299.725,122.479Z" transform="translate(285 2)" fill="#ce9228" style="mix-blend-mode: multiply;isolation: isolate"/>
      <path id="Path_339" data-name="Path 339" d="M294.79,128.572a1.042,1.042,0,1,1-1.387-.12A.987.987,0,0,1,294.79,128.572Z" transform="translate(285 2)" fill="#ce9228" style="mix-blend-mode: multiply;isolation: isolate"/>
      <path id="Path_340" data-name="Path 340" d="M307.031,130.139a1.071,1.071,0,1,1-1.424-.124A1.014,1.014,0,0,1,307.031,130.139Z" transform="translate(285 2)" fill="#ce9228" style="mix-blend-mode: multiply;isolation: isolate"/>
      <ellipse id="Ellipse_29" data-name="Ellipse 29" cx="1.625" cy="1.457" rx="1.625" ry="1.457" transform="matrix(0.799, -0.601, 0.601, 0.799, 586.651, 119.848)" fill="#ce9228" style="mix-blend-mode: multiply;isolation: isolate"/>
      <path id="Path_341" data-name="Path 341" d="M299.233,102.772a.566.566,0,1,1-.752-.065A.535.535,0,0,1,299.233,102.772Z" transform="translate(285 2)" fill="#ce9228" style="mix-blend-mode: multiply;isolation: isolate"/>
      <path id="Path_342" data-name="Path 342" d="M292.231,99.9l.5.672-.5-.672-.5-.671Z" transform="translate(285 2)" fill="#ce9228" style="mix-blend-mode: multiply;isolation: isolate"/>
      <path id="Path_343" data-name="Path 343" d="M305.614,106.043a.446.446,0,1,1-.592-.051A.422.422,0,0,1,305.614,106.043Z" transform="translate(285 2)" fill="#ce9228" style="mix-blend-mode: multiply;isolation: isolate"/>
      <path id="Path_344" data-name="Path 344" d="M298.564,109.294a.526.526,0,1,1-.7-.06A.5.5,0,0,1,298.564,109.294Z" transform="translate(285 2)" fill="#ce9228" style="mix-blend-mode: multiply;isolation: isolate"/>
      <path id="Path_345" data-name="Path 345" d="M296.4,97.805a.928.928,0,1,1-1.233-.107A.878.878,0,0,1,296.4,97.805Z" transform="translate(285 2)" fill="#ce9228" style="mix-blend-mode: multiply;isolation: isolate"/>
      <path id="Path_347" data-name="Path 347" d="M318.028,133.43a1.059,1.059,0,1,1-1.408-.122A1,1,0,0,1,318.028,133.43Z" transform="translate(285 2)" fill="#ce9228" style="mix-blend-mode: multiply;isolation: isolate"/>
      <path id="Path_348" data-name="Path 348" d="M312.116,138.676a.535.535,0,1,1-.712-.061A.507.507,0,0,1,312.116,138.676Z" transform="translate(285 2)" fill="#ce9228" style="mix-blend-mode: multiply;isolation: isolate"/>
      <path id="Path_349" data-name="Path 349" d="M321.369,142.267a.549.549,0,1,1-.73-.064A.519.519,0,0,1,321.369,142.267Z" transform="translate(285 2)" fill="#ce9228" style="mix-blend-mode: multiply;isolation: isolate"/>
      <path id="Path_350" data-name="Path 350" d="M301.584,135.9a.516.516,0,1,1-.686-.06A.489.489,0,0,1,301.584,135.9Z" transform="translate(285 2)" fill="#ce9228" style="mix-blend-mode: multiply;isolation: isolate"/>
      <path id="Path_351" data-name="Path 351" d="M301.188,130.427a.539.539,0,1,1-.717-.062A.509.509,0,0,1,301.188,130.427Z" transform="translate(285 2)" fill="#ce9228" style="mix-blend-mode: multiply;isolation: isolate"/>
      <path id="Path_352" data-name="Path 352" d="M311.98,122.316a.54.54,0,1,1-.718-.062A.511.511,0,0,1,311.98,122.316Z" transform="translate(285 2)" fill="#ce9228" style="mix-blend-mode: multiply;isolation: isolate"/>
      <path id="Path_356" data-name="Path 356" d="M379.488,75.5c-.149-6.5,5.694-4.72,9.012-2.978,5.482,2.879,11.431,4.507,15.9,8.946,3.983,3.955,7.338,9.387,10.526,13.97,4.953,7.122,11.089,15.857,6.078,24.486,8.6-.944,10.837,7.975,15.947,12.676,2.414,2.219,3.69,2.192,4.534,5.079,1.43,4.89-1.862,8.124-3.1,12.31-5.781-6.553-11.421-13.987-17.617-20.366-2.039-2.1-4.983-4.058-6.675-6.392-1.39-1.917-2.255-5.206-3.238-7.363-4.6-10.084-9.308-19.31-16.334-27.948C391.26,83.913,387.714,80.011,379.488,75.5Z" transform="translate(285 2)" fill="#aa855f" opacity="0.42" style="mix-blend-mode: multiply;isolation: isolate"/>
      <path id="Path_357" data-name="Path 357" d="M382.067,131.887c-.994-4.8-.222-10.624-.562-15.592-.724-10.578-1.932-21.061-2.448-31.651-.116-2.39-1.635-8.847-.245-10.6,2.267-2.856,6.385-.5,8.065,1.532,3.015,3.651,5.834,7.352,9.034,10.858,4.962,5.434,9.813,11.053,14.439,16.806a56.118,56.118,0,0,0,6.77,7.518c-1.952,4.66-5.482,8.947-8.1,13.205-3.56,5.785-7.337,11.421-12.441,15.784-3.746,3.2-7.62,4.9-12.069,6.588C382.9,141.842,382.421,137.077,382.067,131.887Z" transform="translate(285 2)" fill="#e5a21c"/>
      <path id="Path_358" data-name="Path 358" d="M385.343,139.212c1.213-2.439-.354-7.49-.26-10.167.147-4.192,1.073-8.6.947-12.755-.113-3.739-1.74-7.325-2.081-11.022-.3-3.3.91-4.864,1.4-7.833,2.151,1.778,3.916,4.164,5.967,6.1,3.772,3.557,8.185,5.584,12.477,8.128,1.725,1.022,4.1,3.092,3.911,5.492-.206,2.667-3.732,6.695-5.011,8.889a47.181,47.181,0,0,1-8.112,10.373,15.909,15.909,0,0,1-7.707,4.492A5.314,5.314,0,0,0,385.343,139.212Z" transform="translate(285 2)" fill="#f7b32b"/>
      <path id="Path_359" data-name="Path 359" d="M398.1,121.767a1.617,1.617,0,1,1,1.97,1.3A1.668,1.668,0,0,1,398.1,121.767Z" transform="translate(285 2)" fill="#ce9228"/>
      <path id="Path_360" data-name="Path 360" d="M395.571,110.27a.924.924,0,1,1,1.125.74A.953.953,0,0,1,395.571,110.27Z" transform="translate(285 2)" fill="#ce9228"/>
      <path id="Path_361" data-name="Path 361" d="M401.39,106.909a.879.879,0,1,1,1.07.7A.907.907,0,0,1,401.39,106.909Z" transform="translate(285 2)" fill="#ce9228"/>
      <path id="Path_362" data-name="Path 362" d="M392.092,100.236a.9.9,0,1,1,1.1.723A.93.93,0,0,1,392.092,100.236Z" transform="translate(285 2)" fill="#ce9228"/>
      <path id="Path_363" data-name="Path 363" d="M389.589,112.827a1.379,1.379,0,1,1,1.679,1.1A1.423,1.423,0,0,1,389.589,112.827Z" transform="translate(285 2)" fill="#ce9228"/>
      <path id="Path_364" data-name="Path 364" d="M389.9,128.218a.478.478,0,1,1,.581.382A.492.492,0,0,1,389.9,128.218Z" transform="translate(285 2)" fill="#ce9228"/>
      <path id="Path_365" data-name="Path 365" d="M394.609,133.809c-.108-.454-.2-.821-.2-.821s.088.367.2.821l.2.822Z" transform="translate(285 2)" fill="#ce9228"/>
      <path id="Path_366" data-name="Path 366" d="M385.806,122.531a.376.376,0,1,1,.458.3A.387.387,0,0,1,385.806,122.531Z" transform="translate(285 2)" fill="#ce9228"/>
      <path id="Path_367" data-name="Path 367" d="M392.439,122.636a.444.444,0,1,1,.541.355A.458.458,0,0,1,392.439,122.636Z" transform="translate(285 2)" fill="#ce9228"/>
      <path id="Path_368" data-name="Path 368" d="M390.632,133.907a.783.783,0,1,1,.953.626A.807.807,0,0,1,390.632,133.907Z" transform="translate(285 2)" fill="#ce9228"/>
      <path id="Path_369" data-name="Path 369" d="M398.431,130.673a.459.459,0,1,1,.56.368A.474.474,0,0,1,398.431,130.673Z" transform="translate(285 2)" fill="#ce9228"/>
      <path id="Path_370" data-name="Path 370" d="M384.318,92.546a.893.893,0,1,1,1.088.716A.922.922,0,0,1,384.318,92.546Z" transform="translate(285 2)" fill="#ce9228"/>
      <path id="Path_371" data-name="Path 371" d="M390.657,90.366a.451.451,0,1,1,.55.362A.465.465,0,0,1,390.657,90.366Z" transform="translate(285 2)" fill="#ce9228"/>
      <path id="Path_372" data-name="Path 372" d="M384.369,83.157a.464.464,0,1,1,.565.371A.478.478,0,0,1,384.369,83.157Z" transform="translate(285 2)" fill="#ce9228"/>
      <path id="Path_373" data-name="Path 373" d="M398.219,97.389a.435.435,0,1,1,.53.348A.449.449,0,0,1,398.219,97.389Z" transform="translate(285 2)" fill="#ce9228"/>
      <path id="Path_374" data-name="Path 374" d="M396.849,102.489a.455.455,0,1,1,.554.364A.468.468,0,0,1,396.849,102.489Z" transform="translate(285 2)" fill="#ce9228"/>
      <path id="Path_375" data-name="Path 375" d="M385.729,105.149a.455.455,0,1,1,.555.364A.47.47,0,0,1,385.729,105.149Z" transform="translate(285 2)" fill="#ce9228"/>
      <path id="Path_376" data-name="Path 376" d="M410.887,112.359a.812.812,0,1,1,.989.651A.837.837,0,0,1,410.887,112.359Z" transform="translate(285 2)" fill="#ce9228"/>
      <path id="Path_377" data-name="Path 377" d="M406.268,108.836Z" transform="translate(285 2)" fill="#ce9228"/>
      <path id="Path_378" data-name="Path 378" d="M406.788,104.444a1.074,1.074,0,1,1,1.309.86A1.11,1.11,0,0,1,406.788,104.444Z" transform="translate(285 2)" fill="#ce9228"/>
      <path id="Path_379" data-name="Path 379" d="M394.988,214c4.635-10.115,17.166-15.547,22.471-24.983,5.216,5.548,9.7,3.211,14.866-1.131,2.736-2.3,7.06-5.488,7.953-9.252,1.616-6.815-5.857-4.141-11.3-4.135-4.072.005-9.5-1.374-13.464-.509-4.635,1.011-8.59,7.647-11.389,11.341C401.016,189.435,387.046,207.568,394.988,214Z" transform="translate(285 2)" fill="#aa855f" opacity="0.42" style="mix-blend-mode: multiply;isolation: isolate"/>
      <path id="Path_380" data-name="Path 380" d="M407.17,142.34c4.876.2,10.316,2.709,15.2,3.7,10.392,2.12,20.806,3.658,31.16,6.019,2.337.533,8.934.592,10.3,2.675,2.223,3.4-1.024,7.465-3.386,8.825-4.24,2.442-8.484,4.644-12.627,7.338-6.424,4.178-13,8.176-19.651,11.879a53.864,53.864,0,0,0-8.865,5.67c-4.041-3.539-7.348-8.785-10.843-12.979-4.747-5.7-9.3-11.6-12.309-18.677-2.208-5.191-2.929-10.108-3.513-15.685C397.352,140.525,402.071,141.3,407.17,142.34Z" transform="translate(285 2)" fill="#e5a21c"/>
      <path id="Path_381" data-name="Path 381" d="M399.317,144.056c2.071,2.072,7.321,1.683,9.885,2.537,4.016,1.338,8.052,3.628,12.1,4.644,3.64.913,7.489.046,11.142.686,3.257.572,4.484,2.4,7.238,3.787-2.226,1.972-4.948,3.332-7.3,5.146-4.329,3.335-7.33,7.833-10.8,12.048-1.4,1.695-3.957,3.839-6.232,2.956-2.528-.98-5.586-6.15-7.4-8.23a55.3,55.3,0,0,1-8.105-12.2,21.389,21.389,0,0,1-2.518-10.1A5.075,5.075,0,0,0,399.317,144.056Z" transform="translate(285 2)" fill="#f7b32b"/>
      <path id="Path_382" data-name="Path 382" d="M413.158,163.553a1.918,1.918,0,1,1-1.717,1.9A1.816,1.816,0,0,1,413.158,163.553Z" transform="translate(285 2)" fill="#ce9228"/>
      <path id="Path_383" data-name="Path 383" d="M424.863,163.863a1.1,1.1,0,1,1-.98,1.085A1.039,1.039,0,0,1,424.863,163.863Z" transform="translate(285 2)" fill="#ce9228"/>
      <path id="Path_384" data-name="Path 384" d="M426.736,171.477a1.042,1.042,0,1,1-.934,1.032A.986.986,0,0,1,426.736,171.477Z" transform="translate(285 2)" fill="#ce9228"/>
      <path id="Path_385" data-name="Path 385" d="M435.381,162.67a1.07,1.07,0,1,1-.959,1.06A1.012,1.012,0,0,1,435.381,162.67Z" transform="translate(285 2)" fill="#ce9228"/>
      <path id="Path_386" data-name="Path 386" d="M423.808,156.286a1.635,1.635,0,1,1-1.464,1.619A1.55,1.55,0,0,1,423.808,156.286Z" transform="translate(285 2)" fill="#ce9228"/>
      <path id="Path_387" data-name="Path 387" d="M408.864,152.347a.566.566,0,1,1-.507.561A.535.535,0,0,1,408.864,152.347Z" transform="translate(285 2)" fill="#ce9228"/>
      <path id="Path_388" data-name="Path 388" d="M402.347,156.194l.841,0-.841,0-.84,0Z" transform="translate(285 2)" fill="#ce9228"/>
      <path id="Path_389" data-name="Path 389" d="M415.325,149.239a.446.446,0,1,1-.4.442A.422.422,0,0,1,415.325,149.239Z" transform="translate(285 2)" fill="#ce9228"/>
      <path id="Path_390" data-name="Path 390" d="M413.656,156.821a.527.527,0,1,1-.471.521A.5.5,0,0,1,413.656,156.821Z" transform="translate(285 2)" fill="#ce9228"/>
      <path id="Path_391" data-name="Path 391" d="M403.193,151.6a.928.928,0,1,1-.83.919A.878.878,0,0,1,403.193,151.6Z" transform="translate(285 2)" fill="#ce9228"/>
      <path id="Path_392" data-name="Path 392" d="M404.474,161.454a.545.545,0,1,1-.488.54A.517.517,0,0,1,404.474,161.454Z" transform="translate(285 2)" fill="#ce9228"/>
      <path id="Path_393" data-name="Path 393" d="M444.648,155.9a1.059,1.059,0,1,1-.948,1.049A1,1,0,0,1,444.648,155.9Z" transform="translate(285 2)" fill="#ce9228"/>
      <path id="Path_394" data-name="Path 394" d="M445.257,163.776a.536.536,0,1,1-.48.53A.506.506,0,0,1,445.257,163.776Z" transform="translate(285 2)" fill="#ce9228"/>
      <path id="Path_395" data-name="Path 395" d="M453.708,158.573a.549.549,0,1,1-.491.544A.519.519,0,0,1,453.708,158.573Z" transform="translate(285 2)" fill="#ce9228"/>
      <path id="Path_396" data-name="Path 396" d="M436.684,170.494a.516.516,0,1,1-.462.511A.488.488,0,0,1,436.684,170.494Z" transform="translate(285 2)" fill="#ce9228"/>
      <path id="Path_397" data-name="Path 397" d="M432.08,167.5a.54.54,0,1,1-.483.535A.512.512,0,0,1,432.08,167.5Z" transform="translate(285 2)" fill="#ce9228"/>
      <path id="Path_398" data-name="Path 398" d="M432.138,154a.54.54,0,1,1-.483.535A.512.512,0,0,1,432.138,154Z" transform="translate(285 2)" fill="#ce9228"/>
      <path id="Path_399" data-name="Path 399" d="M419.224,180.854a.962.962,0,1,1-.861.953A.911.911,0,0,1,419.224,180.854Z" transform="translate(285 2)" fill="#ce9228"/>
      <path id="Path_400" data-name="Path 400" d="M423.721,176.536Z" transform="translate(285 2)" fill="#ce9228"/>
      <path id="Path_401" data-name="Path 401" d="M427.841,178.359a1.274,1.274,0,1,1-1.14,1.261A1.205,1.205,0,0,1,427.841,178.359Z" transform="translate(285 2)" fill="#ce9228"/>
      <path id="Path_402" data-name="Path 402" d="M402.328,165.944c-1.852-5.119-1.8-11.687-2.912-17.109-2.375-11.544-5.3-22.892-7.433-34.488-.482-2.617-3.182-9.462-1.821-11.653,2.221-3.574,7.348-1.742,9.6.191,4.034,3.469,7.847,7.032,12.074,10.306,6.555,5.076,13.007,10.377,19.217,15.868a61.349,61.349,0,0,0,8.958,7.041c-1.593,5.507-5.075,10.9-7.5,16.085-3.3,7.049-6.872,13.974-12.172,19.74-3.89,4.231-8.147,6.822-13.072,9.519C404.746,176.779,403.492,171.608,402.328,165.944Z" transform="translate(285 2)" fill="#dd9007"/>
      <path id="Path_403" data-name="Path 403" d="M407.2,173.421c1.056-2.919-1.5-8.2-1.776-11.176-.437-4.655,0-9.689-.748-14.257-.674-4.107-3.085-7.764-4.016-11.782-.831-3.583.353-5.538.487-8.907,2.758,1.563,5.154,3.868,7.819,5.623,4.9,3.226,10.322,4.642,15.679,6.652,2.153.808,5.21,2.652,5.342,5.335.147,2.984-3.368,8.086-4.536,10.747a55.356,55.356,0,0,1-7.925,12.961,19.666,19.666,0,0,1-8.306,6.393A5.8,5.8,0,0,0,407.2,173.421Z" transform="translate(285 2)" fill="#e8a02d"/>
      <path id="Path_404" data-name="Path 404" d="M419.491,151.79a1.906,1.906,0,1,1,2.477,1.063A1.906,1.906,0,0,1,419.491,151.79Z" transform="translate(285 2)" fill="#ce9228" opacity="0.55" style="mix-blend-mode: multiply;isolation: isolate"/>
      <path id="Path_405" data-name="Path 405" d="M414.891,139.567a1.089,1.089,0,1,1,1.414.607A1.089,1.089,0,0,1,414.891,139.567Z" transform="translate(285 2)" fill="#ce9228" opacity="0.55" style="mix-blend-mode: multiply;isolation: isolate"/>
      <path id="Path_406" data-name="Path 406" d="M421.166,134.773a1.036,1.036,0,1,1,1.346.578A1.035,1.035,0,0,1,421.166,134.773Z" transform="translate(285 2)" fill="#ce9228" opacity="0.55" style="mix-blend-mode: multiply;isolation: isolate"/>
      <path id="Path_407" data-name="Path 407" d="M409.392,129.136a1.064,1.064,0,1,1,1.383.594A1.065,1.065,0,0,1,409.392,129.136Z" transform="translate(285 2)" fill="#ce9228" opacity="0.55" style="mix-blend-mode: multiply;isolation: isolate"/>
      <path id="Path_408" data-name="Path 408" d="M408.308,143.5a1.625,1.625,0,1,1,2.112.906A1.625,1.625,0,0,1,408.308,143.5Z" transform="translate(285 2)" fill="#ce9228" opacity="0.55" style="mix-blend-mode: multiply;isolation: isolate"/>
      <path id="Path_409" data-name="Path 409" d="M410.9,160.436a.563.563,0,1,1,.731.314A.561.561,0,0,1,410.9,160.436Z" transform="translate(285 2)" fill="#ce9228" opacity="0.55" style="mix-blend-mode: multiply;isolation: isolate"/>
      <path id="Path_410" data-name="Path 410" d="M417.184,165.733l-.348-.871.348.871.348.871Z" transform="translate(285 2)" fill="#ce9228" opacity="0.55" style="mix-blend-mode: multiply;isolation: isolate"/>
      <path id="Path_411" data-name="Path 411" d="M405.318,154.919a.443.443,0,1,1,.575.247A.442.442,0,0,1,405.318,154.919Z" transform="translate(285 2)" fill="#ce9228" opacity="0.55" style="mix-blend-mode: multiply;isolation: isolate"/>
      <path id="Path_412" data-name="Path 412" d="M413.042,153.8a.524.524,0,1,1,.681.292A.523.523,0,0,1,413.042,153.8Z" transform="translate(285 2)" fill="#ce9228" opacity="0.55" style="mix-blend-mode: multiply;isolation: isolate"/>
      <path id="Path_413" data-name="Path 413" d="M412.576,166.58a.922.922,0,1,1,1.2.514A.921.921,0,0,1,412.576,166.58Z" transform="translate(285 2)" fill="#ce9228" opacity="0.55" style="mix-blend-mode: multiply;isolation: isolate"/>
      <path id="Path_414" data-name="Path 414" d="M421.172,161.559a.541.541,0,1,1,.7.3A.541.541,0,0,1,421.172,161.559Z" transform="translate(285 2)" fill="#ce9228" opacity="0.55" style="mix-blend-mode: multiply;isolation: isolate"/>
      <path id="Path_415" data-name="Path 415" d="M399.243,122.093a1.053,1.053,0,1,1,1.368.587A1.052,1.052,0,0,1,399.243,122.093Z" transform="translate(285 2)" fill="#ce9228" opacity="0.55" style="mix-blend-mode: multiply;isolation: isolate"/>
      <path id="Path_416" data-name="Path 416" d="M406.294,118.507a.532.532,0,1,1,.692.3A.533.533,0,0,1,406.294,118.507Z" transform="translate(285 2)" fill="#ce9228" opacity="0.55" style="mix-blend-mode: multiply;isolation: isolate"/>
      <path id="Path_417" data-name="Path 417" d="M397.942,111.717a.546.546,0,1,1,.709.305A.545.545,0,0,1,397.942,111.717Z" transform="translate(285 2)" fill="#ce9228" opacity="0.55" style="mix-blend-mode: multiply;isolation: isolate"/>
      <path id="Path_418" data-name="Path 418" d="M416.1,124.853a.513.513,0,1,1,.666.286A.513.513,0,0,1,416.1,124.853Z" transform="translate(285 2)" fill="#ce9228" opacity="0.55" style="mix-blend-mode: multiply;isolation: isolate"/>
      <path id="Path_419" data-name="Path 419" d="M415.247,130.738a.536.536,0,1,1,.7.3A.536.536,0,0,1,415.247,130.738Z" transform="translate(285 2)" fill="#ce9228" opacity="0.55" style="mix-blend-mode: multiply;isolation: isolate"/>
      <path id="Path_420" data-name="Path 420" d="M402.71,135.744a.536.536,0,1,1,.7.3A.536.536,0,0,1,402.71,135.744Z" transform="translate(285 2)" fill="#ce9228" opacity="0.55" style="mix-blend-mode: multiply;isolation: isolate"/>
      <path id="Path_421" data-name="Path 421" d="M432.994,139.024a.957.957,0,1,1,1.243.533A.956.956,0,0,1,432.994,139.024Z" transform="translate(285 2)" fill="#ce9228" opacity="0.55" style="mix-blend-mode: multiply;isolation: isolate"/>
      <path id="Path_422" data-name="Path 422" d="M427.115,135.993Z" transform="translate(285 2)" fill="#ce9228" opacity="0.55" style="mix-blend-mode: multiply;isolation: isolate"/>
      <path id="Path_423" data-name="Path 423" d="M427.083,131.047a1.266,1.266,0,1,1,1.645.707A1.266,1.266,0,0,1,427.083,131.047Z" transform="translate(285 2)" fill="#ce9228" opacity="0.55" style="mix-blend-mode: multiply;isolation: isolate"/>
      <path id="Path_424" data-name="Path 424" d="M348.237,195.254c4.854-2.466,11.379-3.217,16.623-4.988,11.166-3.772,22.07-8.064,33.316-11.6,2.539-.8,9-4.318,11.343-3.235,3.82,1.766,2.629,7.079.987,9.546-2.949,4.428-6.018,8.649-8.749,13.246-4.235,7.128-8.7,14.18-13.392,21.017a61.241,61.241,0,0,0-5.89,9.753c-5.662-.906-11.437-3.7-16.885-5.475-7.4-2.41-14.71-5.107-21.082-9.66-4.676-3.342-7.769-7.249-11.05-11.807C337.781,198.981,342.759,197.1,348.237,195.254Z" transform="translate(285 2)" fill="#dd9007"/>
      <path id="Path_425" data-name="Path 425" d="M341.413,201c3.026.691,7.958-2.491,10.874-3.132,4.566-1,9.616-1.187,14.059-2.49,3.993-1.172,7.326-4.013,11.2-5.43,3.454-1.264,5.54-.329,8.9-.609-1.213,2.929-3.207,5.59-4.621,8.45-2.6,5.258-3.343,10.813-4.68,16.376-.538,2.236-1.993,5.5-4.641,5.956-2.943.511-8.437-2.351-11.222-3.185a55.314,55.314,0,0,1-13.834-6.277,19.664,19.664,0,0,1-7.363-7.459A5.8,5.8,0,0,0,341.413,201Z" transform="translate(285 2)" fill="#e8a02d"/>
      <path id="Path_427" data-name="Path 427" d="M375.955,204.488a1.089,1.089,0,1,1-.429,1.479A1.09,1.09,0,0,1,375.955,204.488Z" transform="translate(285 2)" fill="#ce9228" opacity="0.55" style="mix-blend-mode: multiply;isolation: isolate"/>
      <path id="Path_429" data-name="Path 429" d="M385.633,197.753a1.064,1.064,0,1,1-.42,1.445A1.064,1.064,0,0,1,385.633,197.753Z" transform="translate(285 2)" fill="#ce9228" opacity="0.55" style="mix-blend-mode: multiply;isolation: isolate"/>
      <path id="Path_430" data-name="Path 430" d="M371.243,198.438a1.625,1.625,0,1,1-.641,2.207A1.625,1.625,0,0,1,371.243,198.438Z" transform="translate(285 2)" fill="#ce9228" opacity="0.55" style="mix-blend-mode: multiply;isolation: isolate"/>
      <path id="Path_431" data-name="Path 431" d="M354.753,203.083a.563.563,0,1,1-.222.764A.561.561,0,0,1,354.753,203.083Z" transform="translate(285 2)" fill="#ce9228" opacity="0.55" style="mix-blend-mode: multiply;isolation: isolate"/>
      <path id="Path_433" data-name="Path 433" d="M359.545,196.869a.443.443,0,1,1-.174.6A.444.444,0,0,1,359.545,196.869Z" transform="translate(285 2)" fill="#ce9228" opacity="0.55" style="mix-blend-mode: multiply;isolation: isolate"/>
      <path id="Path_434" data-name="Path 434" d="M361.6,204.4a.523.523,0,1,1-.206.711A.523.523,0,0,1,361.6,204.4Z" transform="translate(285 2)" fill="#ce9228" opacity="0.55" style="mix-blend-mode: multiply;isolation: isolate"/>
      <path id="Path_435" data-name="Path 435" d="M348.862,205.5a.922.922,0,1,1-.364,1.252A.922.922,0,0,1,348.862,205.5Z" transform="translate(285 2)" fill="#ce9228" opacity="0.55" style="mix-blend-mode: multiply;isolation: isolate"/>
      <path id="Path_437" data-name="Path 437" d="M391.379,186.817a1.053,1.053,0,1,1-.415,1.43A1.052,1.052,0,0,1,391.379,186.817Z" transform="translate(285 2)" fill="#ce9228" opacity="0.55" style="mix-blend-mode: multiply;isolation: isolate"/>
      <path id="Path_438" data-name="Path 438" d="M395.8,193.375a.532.532,0,1,1-.21.723A.532.532,0,0,1,395.8,193.375Z" transform="translate(285 2)" fill="#ce9228" opacity="0.55" style="mix-blend-mode: multiply;isolation: isolate"/>
      <path id="Path_439" data-name="Path 439" d="M401.517,184.253a.546.546,0,1,1-.215.742A.546.546,0,0,1,401.517,184.253Z" transform="translate(285 2)" fill="#ce9228" opacity="0.55" style="mix-blend-mode: multiply;isolation: isolate"/>
      <path id="Path_440" data-name="Path 440" d="M390.707,203.886a.512.512,0,1,1-.2.7A.512.512,0,0,1,390.707,203.886Z" transform="translate(285 2)" fill="#ce9228" opacity="0.55" style="mix-blend-mode: multiply;isolation: isolate"/>
      <path id="Path_441" data-name="Path 441" d="M384.761,203.76a.536.536,0,1,1-.211.728A.537.537,0,0,1,384.761,203.76Z" transform="translate(285 2)" fill="#ce9228" opacity="0.55" style="mix-blend-mode: multiply;isolation: isolate"/>
      <path id="Path_442" data-name="Path 442" d="M378.256,191.93a.536.536,0,1,1-.211.729A.537.537,0,0,1,378.256,191.93Z" transform="translate(285 2)" fill="#ce9228" opacity="0.55" style="mix-blend-mode: multiply;isolation: isolate"/>
      <path id="Path_446" data-name="Path 446" d="M370.218,88.775c-4.2,2.489-10.128,3.345-14.764,5.167-9.871,3.88-19.444,8.26-29.414,11.917-2.251.825-7.816,4.367-10.093,3.362-3.715-1.639-3.206-6.82-1.965-9.247,2.228-4.356,4.588-8.513,6.6-13.029,3.114-7,6.453-13.935,10.016-20.663a53.791,53.791,0,0,0,4.349-9.582c5.316.768,10.947,3.368,16.162,4.983,7.084,2.195,14.119,4.67,20.493,8.965,4.678,3.152,7.96,6.884,11.487,11.244C379.441,84.953,375.062,86.873,370.218,88.775Z" transform="translate(285 2)" fill="#c97c28"/>
      <path id="Path_447" data-name="Path 447" d="M375.87,83.061c-2.864-.611-7.057,2.574-9.672,3.254-4.1,1.064-8.729,1.34-12.678,2.692-3.55,1.216-6.307,4.039-9.72,5.49-3.043,1.295-5.068.427-8.132.764.794-2.866,2.337-5.488,3.324-8.292,1.815-5.154,1.884-10.561,2.5-15.987.248-2.181,1.228-5.374,3.617-5.872,2.655-.554,8.034,2.117,10.692,2.872a55.329,55.329,0,0,1,13.44,5.821,21.389,21.389,0,0,1,7.609,7.1A5.1,5.1,0,0,0,375.87,83.061Z" transform="translate(285 2)" fill="#d68c43"/>
      <path id="Path_448" data-name="Path 448" d="M353.646,74.242a1.918,1.918,0,1,1,.406-2.528A1.816,1.816,0,0,1,353.646,74.242Z" transform="translate(285 2)" fill="#ce9228" style="mix-blend-mode: multiply;isolation: isolate"/>
      <path id="Path_449" data-name="Path 449" d="M343.659,80.355a1.1,1.1,0,1,1,.232-1.444A1.038,1.038,0,0,1,343.659,80.355Z" transform="translate(285 2)" fill="#ce9228" style="mix-blend-mode: multiply;isolation: isolate"/>
      <path id="Path_450" data-name="Path 450" d="M337.943,74.988a1.042,1.042,0,1,1,.221-1.374A.987.987,0,0,1,337.943,74.988Z" transform="translate(285 2)" fill="#ce9228" style="mix-blend-mode: multiply;isolation: isolate"/>
      <path id="Path_451" data-name="Path 451" d="M335.487,87.082a1.071,1.071,0,1,1,.226-1.411A1.015,1.015,0,0,1,335.487,87.082Z" transform="translate(285 2)" fill="#ce9228" style="mix-blend-mode: multiply;isolation: isolate"/>
      <path id="Path_452" data-name="Path 452" d="M348.669,86.136a1.635,1.635,0,1,1,.347-2.155A1.549,1.549,0,0,1,348.669,86.136Z" transform="translate(285 2)" fill="#ce9228" style="mix-blend-mode: multiply;isolation: isolate"/>
      <path id="Path_453" data-name="Path 453" d="M363.349,81.3a.566.566,0,1,1,.12-.746A.536.536,0,0,1,363.349,81.3Z" transform="translate(285 2)" fill="#ce9228" style="mix-blend-mode: multiply;isolation: isolate"/>
      <path id="Path_454" data-name="Path 454" d="M366.721,74.529l-.707.455.707-.455.707-.455Z" transform="translate(285 2)" fill="#ce9228" style="mix-blend-mode: multiply;isolation: isolate"/>
      <path id="Path_455" data-name="Path 455" d="M359.621,87.428a.445.445,0,1,1,.094-.587A.422.422,0,0,1,359.621,87.428Z" transform="translate(285 2)" fill="#ce9228" style="mix-blend-mode: multiply;isolation: isolate"/>
      <path id="Path_456" data-name="Path 456" d="M356.893,80.16a.526.526,0,1,1,.112-.694A.5.5,0,0,1,356.893,80.16Z" transform="translate(285 2)" fill="#ce9228" style="mix-blend-mode: multiply;isolation: isolate"/>
      <path id="Path_457" data-name="Path 457" d="M368.51,78.84a.928.928,0,1,1,.2-1.222A.878.878,0,0,1,368.51,78.84Z" transform="translate(285 2)" fill="#ce9228" style="mix-blend-mode: multiply;isolation: isolate"/>
      <path id="Path_458" data-name="Path 458" d="M362.073,71.275a.545.545,0,1,1,.115-.718A.517.517,0,0,1,362.073,71.275Z" transform="translate(285 2)" fill="#ce9228" style="mix-blend-mode: multiply;isolation: isolate"/>
      <path id="Path_459" data-name="Path 459" d="M331.4,97.81a1.059,1.059,0,1,1,.225-1.4A1,1,0,0,1,331.4,97.81Z" transform="translate(285 2)" fill="#ce9228" style="mix-blend-mode: multiply;isolation: isolate"/>
      <path id="Path_460" data-name="Path 460" d="M326.6,91.531a.535.535,0,1,1,.114-.706A.507.507,0,0,1,326.6,91.531Z" transform="translate(285 2)" fill="#ce9228" style="mix-blend-mode: multiply;isolation: isolate"/>
      <path id="Path_461" data-name="Path 461" d="M322.344,100.5a.55.55,0,1,1,.116-.724A.52.52,0,0,1,322.344,100.5Z" transform="translate(285 2)" fill="#ce9228" style="mix-blend-mode: multiply;isolation: isolate"/>
      <path id="Path_462" data-name="Path 462" d="M330.134,81.228a.516.516,0,1,1,.109-.68A.488.488,0,0,1,330.134,81.228Z" transform="translate(285 2)" fill="#ce9228" style="mix-blend-mode: multiply;isolation: isolate"/>
      <path id="Path_463" data-name="Path 463" d="M335.626,81.234a.54.54,0,1,1,.114-.711A.511.511,0,0,1,335.626,81.234Z" transform="translate(285 2)" fill="#ce9228" style="mix-blend-mode: multiply;isolation: isolate"/>
      <path id="Path_464" data-name="Path 464" d="M342.927,92.589a.539.539,0,1,1,.114-.711A.511.511,0,0,1,342.927,92.589Z" transform="translate(285 2)" fill="#ce9228" style="mix-blend-mode: multiply;isolation: isolate"/>
      <path id="Path_466" data-name="Path 466" d="M337.718,69.1Z" transform="translate(285 2)" fill="#ce9228" style="mix-blend-mode: multiply;isolation: isolate"/>
      <path id="Path_467" data-name="Path 467" d="M333.269,69.817a1.273,1.273,0,1,1,.27-1.678A1.206,1.206,0,0,1,333.269,69.817Z" transform="translate(285 2)" fill="#ce9228" style="mix-blend-mode: multiply;isolation: isolate"/>
      <path id="Path_468" data-name="Path 468" d="M379.775,112.019c-4.783,2.6-11.285,3.531-16.478,5.447-11.057,4.08-21.839,8.672-32.982,12.523-2.515.869-8.878,4.565-11.249,3.548-3.867-1.659-2.824-7-1.251-9.515,2.825-4.508,5.776-8.813,8.378-13.484,4.036-7.242,8.308-14.416,12.8-21.38a61.3,61.3,0,0,0,5.618-9.912c5.684.749,11.535,3.382,17.029,5,7.463,2.2,14.847,4.7,21.342,9.072,4.767,3.211,7.968,7.031,11.373,11.5C390.124,108,385.2,110.019,379.775,112.019Z" transform="translate(285 2)" fill="#dd9007"/>
      <path id="Path_469" data-name="Path 469" d="M386.437,106.083c-3.044-.606-7.886,2.711-10.783,3.433-4.537,1.13-9.58,1.453-13.984,2.879-3.96,1.281-7.212,4.214-11.045,5.738-3.419,1.359-5.529.482-8.88.854,1.132-2.961,3.051-5.676,4.386-8.574,2.454-5.328,3.041-10.9,4.224-16.5.476-2.251,1.84-5.549,4.474-6.083,2.928-.592,8.5,2.117,11.306,2.873a55.348,55.348,0,0,1,14,5.891,19.661,19.661,0,0,1,7.566,7.253A5.8,5.8,0,0,0,386.437,106.083Z" transform="translate(285 2)" fill="#e8a02d"/>
      <circle id="Ellipse_30" data-name="Ellipse 30" cx="1.906" cy="1.906" r="1.906" transform="translate(645.335 95.624)" fill="#ce9228" opacity="0.55" style="mix-blend-mode: multiply;isolation: isolate"/>
      <path id="Path_470" data-name="Path 470" d="M351.812,103.557a1.089,1.089,0,1,1,.388-1.49A1.09,1.09,0,0,1,351.812,103.557Z" transform="translate(285 2)" fill="#ce9228" opacity="0.55" style="mix-blend-mode: multiply;isolation: isolate"/>
      <path id="Path_471" data-name="Path 471" d="M346.131,98.072a1.037,1.037,0,1,1,.369-1.418A1.036,1.036,0,0,1,346.131,98.072Z" transform="translate(285 2)" fill="#ce9228" opacity="0.55" style="mix-blend-mode: multiply;isolation: isolate"/>
      <path id="Path_472" data-name="Path 472" d="M342.324,110.558a1.064,1.064,0,1,1,.38-1.457A1.064,1.064,0,0,1,342.324,110.558Z" transform="translate(285 2)" fill="#ce9228" opacity="0.55" style="mix-blend-mode: multiply;isolation: isolate"/>
      <path id="Path_473" data-name="Path 473" d="M356.69,109.474a1.625,1.625,0,1,1,.579-2.223A1.625,1.625,0,0,1,356.69,109.474Z" transform="translate(285 2)" fill="#ce9228" opacity="0.55" style="mix-blend-mode: multiply;isolation: isolate"/>
      <path id="Path_474" data-name="Path 474" d="M373.044,104.374a.562.562,0,1,1,.2-.77A.562.562,0,0,1,373.044,104.374Z" transform="translate(285 2)" fill="#ce9228" opacity="0.55" style="mix-blend-mode: multiply;isolation: isolate"/>
      <path id="Path_475" data-name="Path 475" d="M377.337,97.364l-.808.474.808-.474.809-.475Z" transform="translate(285 2)" fill="#ce9228" opacity="0.55" style="mix-blend-mode: multiply;isolation: isolate"/>
      <path id="Path_476" data-name="Path 476" d="M368.426,110.718a.443.443,0,1,1,.158-.606A.442.442,0,0,1,368.426,110.718Z" transform="translate(285 2)" fill="#ce9228" opacity="0.55" style="mix-blend-mode: multiply;isolation: isolate"/>
      <path id="Path_477" data-name="Path 477" d="M366.162,103.248a.524.524,0,1,1,.186-.716A.524.524,0,0,1,366.162,103.248Z" transform="translate(285 2)" fill="#ce9228" opacity="0.55" style="mix-blend-mode: multiply;isolation: isolate"/>
      <path id="Path_478" data-name="Path 478" d="M378.866,101.792a.922.922,0,1,1,.329-1.261A.92.92,0,0,1,378.866,101.792Z" transform="translate(285 2)" fill="#ce9228" opacity="0.55" style="mix-blend-mode: multiply;isolation: isolate"/>
      <path id="Path_479" data-name="Path 479" d="M372.613,94.047a.541.541,0,1,1,.193-.741A.542.542,0,0,1,372.613,94.047Z" transform="translate(285 2)" fill="#ce9228" opacity="0.55" style="mix-blend-mode: multiply;isolation: isolate"/>
      <path id="Path_480" data-name="Path 480" d="M336.883,121.649a1.053,1.053,0,1,1,.376-1.441A1.052,1.052,0,0,1,336.883,121.649Z" transform="translate(285 2)" fill="#ce9228" opacity="0.55" style="mix-blend-mode: multiply;isolation: isolate"/>
      <path id="Path_481" data-name="Path 481" d="M332.28,115.216a.532.532,0,1,1,.189-.729A.534.534,0,0,1,332.28,115.216Z" transform="translate(285 2)" fill="#ce9228" opacity="0.55" style="mix-blend-mode: multiply;isolation: isolate"/>
      <path id="Path_482" data-name="Path 482" d="M326.821,124.492a.546.546,0,1,1,.194-.747A.547.547,0,0,1,326.821,124.492Z" transform="translate(285 2)" fill="#ce9228" opacity="0.55" style="mix-blend-mode: multiply;isolation: isolate"/>
      <path id="Path_483" data-name="Path 483" d="M337.082,104.568a.513.513,0,1,1,.183-.7A.512.512,0,0,1,337.082,104.568Z" transform="translate(285 2)" fill="#ce9228" opacity="0.55" style="mix-blend-mode: multiply;isolation: isolate"/>
      <path id="Path_484" data-name="Path 484" d="M343.029,104.529a.536.536,0,1,1,.191-.734A.536.536,0,0,1,343.029,104.529Z" transform="translate(285 2)" fill="#ce9228" opacity="0.55" style="mix-blend-mode: multiply;isolation: isolate"/>
      <path id="Path_485" data-name="Path 485" d="M349.859,116.173a.536.536,0,1,1,.192-.734A.536.536,0,0,1,349.859,116.173Z" transform="translate(285 2)" fill="#ce9228" opacity="0.55" style="mix-blend-mode: multiply;isolation: isolate"/>
      <path id="Path_486" data-name="Path 486" d="M348.559,85.739a.956.956,0,1,1,.341-1.309A.957.957,0,0,1,348.559,85.739Z" transform="translate(285 2)" fill="#ce9228" opacity="0.55" style="mix-blend-mode: multiply;isolation: isolate"/>
      <path id="Path_487" data-name="Path 487" d="M346.444,92.007Z" transform="translate(285 2)" fill="#ce9228" opacity="0.55" style="mix-blend-mode: multiply;isolation: isolate"/>
      <path id="Path_488" data-name="Path 488" d="M341.559,92.78a1.266,1.266,0,1,1,.452-1.732A1.265,1.265,0,0,1,341.559,92.78Z" transform="translate(285 2)" fill="#ce9228" opacity="0.55" style="mix-blend-mode: multiply;isolation: isolate"/>
      <path id="Path_489" data-name="Path 489" d="M379.775,112.019c-4.783,2.6-11.285,3.531-16.478,5.447-11.057,4.08-21.839,8.672-32.982,12.523-2.515.869-8.878,4.565-11.249,3.548-3.867-1.659-2.824-7-1.251-9.515,2.825-4.508,5.776-8.813,8.378-13.484,4.036-7.242,8.308-14.416,12.8-21.38a61.3,61.3,0,0,0,5.618-9.912c5.684.749,11.535,3.382,17.029,5,7.463,2.2,14.847,4.7,21.342,9.072,4.767,3.211,7.968,7.031,11.373,11.5C390.124,108,385.2,110.019,379.775,112.019Z" transform="translate(285 2)" fill="#dd9007"/>
      <path id="Path_490" data-name="Path 490" d="M386.437,106.083c-3.044-.606-7.886,2.711-10.783,3.433-4.537,1.13-9.58,1.453-13.984,2.879-3.96,1.281-7.212,4.214-11.045,5.738-3.419,1.359-5.529.482-8.88.854,1.132-2.961,3.051-5.676,4.386-8.574,2.454-5.328,3.041-10.9,4.224-16.5.476-2.251,1.84-5.549,4.474-6.083,2.928-.592,8.5,2.117,11.306,2.873a55.348,55.348,0,0,1,14,5.891,19.661,19.661,0,0,1,7.566,7.253A5.8,5.8,0,0,0,386.437,106.083Z" transform="translate(285 2)" fill="#e8a02d"/>
      <circle id="Ellipse_31" data-name="Ellipse 31" cx="1.906" cy="1.906" r="1.906" transform="translate(645.335 95.624)" fill="#ce9228" opacity="0.55" style="mix-blend-mode: multiply;isolation: isolate"/>
      <path id="Path_491" data-name="Path 491" d="M351.812,103.557a1.089,1.089,0,1,1,.388-1.49A1.09,1.09,0,0,1,351.812,103.557Z" transform="translate(285 2)" fill="#ce9228" opacity="0.55" style="mix-blend-mode: multiply;isolation: isolate"/>
      <path id="Path_492" data-name="Path 492" d="M346.131,98.072a1.037,1.037,0,1,1,.369-1.418A1.036,1.036,0,0,1,346.131,98.072Z" transform="translate(285 2)" fill="#ce9228" opacity="0.55" style="mix-blend-mode: multiply;isolation: isolate"/>
      <path id="Path_493" data-name="Path 493" d="M342.324,110.558a1.064,1.064,0,1,1,.38-1.457A1.064,1.064,0,0,1,342.324,110.558Z" transform="translate(285 2)" fill="#ce9228" opacity="0.55" style="mix-blend-mode: multiply;isolation: isolate"/>
      <path id="Path_494" data-name="Path 494" d="M356.69,109.474a1.625,1.625,0,1,1,.579-2.223A1.625,1.625,0,0,1,356.69,109.474Z" transform="translate(285 2)" fill="#ce9228" opacity="0.55" style="mix-blend-mode: multiply;isolation: isolate"/>
      <path id="Path_495" data-name="Path 495" d="M373.044,104.374a.562.562,0,1,1,.2-.77A.562.562,0,0,1,373.044,104.374Z" transform="translate(285 2)" fill="#ce9228" opacity="0.55" style="mix-blend-mode: multiply;isolation: isolate"/>
      <path id="Path_496" data-name="Path 496" d="M377.337,97.364l-.808.474.808-.474.809-.475Z" transform="translate(285 2)" fill="#ce9228" opacity="0.55" style="mix-blend-mode: multiply;isolation: isolate"/>
      <path id="Path_497" data-name="Path 497" d="M368.426,110.718a.443.443,0,1,1,.158-.606A.442.442,0,0,1,368.426,110.718Z" transform="translate(285 2)" fill="#ce9228" opacity="0.55" style="mix-blend-mode: multiply;isolation: isolate"/>
      <path id="Path_498" data-name="Path 498" d="M366.162,103.248a.524.524,0,1,1,.186-.716A.524.524,0,0,1,366.162,103.248Z" transform="translate(285 2)" fill="#ce9228" opacity="0.55" style="mix-blend-mode: multiply;isolation: isolate"/>
      <path id="Path_499" data-name="Path 499" d="M378.866,101.792a.922.922,0,1,1,.329-1.261A.92.92,0,0,1,378.866,101.792Z" transform="translate(285 2)" fill="#ce9228" opacity="0.55" style="mix-blend-mode: multiply;isolation: isolate"/>
      <path id="Path_500" data-name="Path 500" d="M372.613,94.047a.541.541,0,1,1,.193-.741A.542.542,0,0,1,372.613,94.047Z" transform="translate(285 2)" fill="#ce9228" opacity="0.55" style="mix-blend-mode: multiply;isolation: isolate"/>
      <path id="Path_501" data-name="Path 501" d="M336.883,121.649a1.053,1.053,0,1,1,.376-1.441A1.052,1.052,0,0,1,336.883,121.649Z" transform="translate(285 2)" fill="#ce9228" opacity="0.55" style="mix-blend-mode: multiply;isolation: isolate"/>
      <path id="Path_502" data-name="Path 502" d="M332.28,115.216a.532.532,0,1,1,.189-.729A.534.534,0,0,1,332.28,115.216Z" transform="translate(285 2)" fill="#ce9228" opacity="0.55" style="mix-blend-mode: multiply;isolation: isolate"/>
      <path id="Path_503" data-name="Path 503" d="M326.821,124.492a.546.546,0,1,1,.194-.747A.547.547,0,0,1,326.821,124.492Z" transform="translate(285 2)" fill="#ce9228" opacity="0.55" style="mix-blend-mode: multiply;isolation: isolate"/>
      <path id="Path_504" data-name="Path 504" d="M337.082,104.568a.513.513,0,1,1,.183-.7A.512.512,0,0,1,337.082,104.568Z" transform="translate(285 2)" fill="#ce9228" opacity="0.55" style="mix-blend-mode: multiply;isolation: isolate"/>
      <path id="Path_505" data-name="Path 505" d="M343.029,104.529a.536.536,0,1,1,.191-.734A.536.536,0,0,1,343.029,104.529Z" transform="translate(285 2)" fill="#ce9228" opacity="0.55" style="mix-blend-mode: multiply;isolation: isolate"/>
      <path id="Path_506" data-name="Path 506" d="M349.859,116.173a.536.536,0,1,1,.192-.734A.536.536,0,0,1,349.859,116.173Z" transform="translate(285 2)" fill="#ce9228" opacity="0.55" style="mix-blend-mode: multiply;isolation: isolate"/>
      <path id="Path_507" data-name="Path 507" d="M348.559,85.739a.956.956,0,1,1,.341-1.309A.957.957,0,0,1,348.559,85.739Z" transform="translate(285 2)" fill="#ce9228" opacity="0.55" style="mix-blend-mode: multiply;isolation: isolate"/>
      <path id="Path_508" data-name="Path 508" d="M346.444,92.007Z" transform="translate(285 2)" fill="#ce9228" opacity="0.55" style="mix-blend-mode: multiply;isolation: isolate"/>
      <path id="Path_509" data-name="Path 509" d="M341.559,92.78a1.266,1.266,0,1,1,.452-1.732A1.265,1.265,0,0,1,341.559,92.78Z" transform="translate(285 2)" fill="#ce9228" opacity="0.55" style="mix-blend-mode: multiply;isolation: isolate"/>
      <path id="Path_510" data-name="Path 510" d="M296.988,179c-1.269,7.7-.914,16.155-.423,23.924,6.077,1.4,13.131,1.179,19.415,1.463,7.119.322,13.782,1.6,20.821,2.234,6.68.6,17.726,3.621,23.792,1.434-1.964-4.085-6.355-7.226-8.846-11.068-1.2-1.846-1.3-3.646-3.28-4.835-.258,3.722,2.846,6.345,2.493,10.3-11.6,1-24.027-2.109-35.72-2.454-2.681-.079-4.46.382-6.318-1.112C304.554,195.371,302.222,186.778,296.988,179Z" transform="translate(285 2)" fill="#aa855f" opacity="0.42" style="mix-blend-mode: multiply;isolation: isolate"/>
      <path id="Path_511" data-name="Path 511" d="M317.045,155.549c3.562,3.338,6.04,8.792,9.084,12.735,6.481,8.4,13.359,16.365,19.654,24.918,1.421,1.93,6.376,6.286,6.046,8.753-.537,4.024-5.653,4.982-8.33,4.468-4.8-.923-9.456-2.029-14.353-2.7-7.592-1.035-15.182-2.3-22.638-3.849a53.854,53.854,0,0,0-10.415-1.5c-.746-5.32.178-11.452.273-16.911.13-7.415.542-14.861,2.887-22.181,1.721-5.372,4.388-9.565,7.59-14.169C310.8,147.761,313.866,151.429,317.045,155.549Z" transform="translate(285 2)" fill="#e5a21c"/>
      <path id="Path_512" data-name="Path 512" d="M309.98,151.717c.213,2.922,4.442,6.058,5.825,8.38,2.165,3.636,3.724,8.008,6.124,11.422,2.159,3.07,5.639,4.929,7.986,7.8,2.092,2.561,1.825,4.748,3,7.6-2.974.038-5.923-.711-8.89-.877-5.457-.3-10.668,1.14-16.05,2.061-2.164.371-5.5.321-6.649-1.834-1.273-2.394-.21-8.3-.227-11.068a55.3,55.3,0,0,1,1.837-14.531,21.393,21.393,0,0,1,4.691-9.288A5.081,5.081,0,0,0,309.98,151.717Z" transform="translate(285 2)" fill="#f7b32b"/>
      <path id="Path_513" data-name="Path 513" d="M307.716,175.52a1.917,1.917,0,1,1-2.54.316A1.815,1.815,0,0,1,307.716,175.52Z" transform="translate(285 2)" fill="#ce9228"/>
      <path id="Path_514" data-name="Path 514" d="M316.374,183.4a1.1,1.1,0,1,1-1.451.18A1.036,1.036,0,0,1,316.374,183.4Z" transform="translate(285 2)" fill="#ce9228"/>
      <path id="Path_515" data-name="Path 515" d="M312.817,190.39a1.042,1.042,0,1,1-1.382.172A.989.989,0,0,1,312.817,190.39Z" transform="translate(285 2)" fill="#ce9228"/>
      <path id="Path_516" data-name="Path 516" d="M325.116,189.373a1.071,1.071,0,1,1-1.419.176A1.014,1.014,0,0,1,325.116,189.373Z" transform="translate(285 2)" fill="#ce9228"/>
      <path id="Path_517" data-name="Path 517" d="M320.526,176.978a1.635,1.635,0,1,1-2.166.269A1.549,1.549,0,0,1,320.526,176.978Z" transform="translate(285 2)" fill="#ce9228"/>
      <path id="Path_518" data-name="Path 518" d="M311.788,164.231a.566.566,0,1,1-.75.093A.537.537,0,0,1,311.788,164.231Z" transform="translate(285 2)" fill="#ce9228"/>
      <path id="Path_519" data-name="Path 519" d="M304.342,162.885l.633.552-.633-.552-.634-.552Z" transform="translate(285 2)" fill="#ce9228"/>
      <path id="Path_520" data-name="Path 520" d="M318.71,166.1a.445.445,0,1,1-.59.074A.421.421,0,0,1,318.71,166.1Z" transform="translate(285 2)" fill="#ce9228"/>
      <path id="Path_521" data-name="Path 521" d="M312.493,170.75a.527.527,0,1,1-.7.086A.5.5,0,0,1,312.493,170.75Z" transform="translate(285 2)" fill="#ce9228"/>
      <path id="Path_522" data-name="Path 522" d="M307.982,159.964a.927.927,0,1,1-1.229.152A.878.878,0,0,1,307.982,159.964Z" transform="translate(285 2)" fill="#ce9228"/>
      <path id="Path_523" data-name="Path 523" d="M302.514,168.257a.544.544,0,1,1-.721.089A.516.516,0,0,1,302.514,168.257Z" transform="translate(285 2)" fill="#ce9228"/>
      <path id="Path_524" data-name="Path 524" d="M336.557,190.3a1.059,1.059,0,1,1-1.4.174A1,1,0,0,1,336.557,190.3Z" transform="translate(285 2)" fill="#ce9228"/>
      <path id="Path_525" data-name="Path 525" d="M331.868,196.664a.536.536,0,1,1-.709.088A.506.506,0,0,1,331.868,196.664Z" transform="translate(285 2)" fill="#ce9228"/>
      <path id="Path_526" data-name="Path 526" d="M341.666,198.248a.549.549,0,1,1-.728.09A.52.52,0,0,1,341.666,198.248Z" transform="translate(285 2)" fill="#ce9228"/>
      <path id="Path_527" data-name="Path 527" d="M320.989,196.147a.516.516,0,1,1-.683.085A.489.489,0,0,1,320.989,196.147Z" transform="translate(285 2)" fill="#ce9228"/>
      <path id="Path_528" data-name="Path 528" d="M319.461,190.872a.539.539,0,1,1-.715.089A.511.511,0,0,1,319.461,190.872Z" transform="translate(285 2)" fill="#ce9228"/>
      <path id="Path_529" data-name="Path 529" d="M328.327,180.691a.54.54,0,1,1-.715.089A.511.511,0,0,1,328.327,180.691Z" transform="translate(285 2)" fill="#ce9228"/>
      <path id="Path_530" data-name="Path 530" d="M301,192.58a.962.962,0,1,1-1.275.158A.912.912,0,0,1,301,192.58Z" transform="translate(285 2)" fill="#ce9228"/>
      <path id="Path_531" data-name="Path 531" d="M307.228,192.25Z" transform="translate(285 2)" fill="#ce9228"/>
      <path id="Path_532" data-name="Path 532" d="M309.156,196.322a1.274,1.274,0,1,1-1.687.21A1.206,1.206,0,0,1,309.156,196.322Z" transform="translate(285 2)" fill="#ce9228"/>
      <path id="Path_533" data-name="Path 533" d="M395.488,187.5c-12.954,3.6-25.781-.453-38.566,1.6-5.438.873-38.886,9.849-36.336-1.99,14.426-3.052,33.873-14,48.113-7.5A93.1,93.1,0,0,0,395.488,187.5Z" transform="translate(285 2)" fill="#aa855f" opacity="0.42" style="mix-blend-mode: multiply;isolation: isolate"/>
      <path id="Path_534" data-name="Path 534" d="M318.044,144.33c5.077,1.964,9.995,6.318,14.817,9.036,10.267,5.788,20.745,11.034,30.893,17.036,2.291,1.355,9.227,3.813,9.986,6.278,1.238,4.022-3.51,6.686-6.444,7.112-5.265.765-10.455,1.3-15.7,2.341-8.132,1.611-16.366,3-24.585,4.078a61.219,61.219,0,0,0-11.192,2.133c-3.108-4.817-4.888-10.982-7.207-16.22-3.151-7.116-6.029-14.358-6.9-22.142-.638-5.711.2-10.623,1.4-16.109C308.284,139.04,313.008,141.489,318.044,144.33Z" transform="translate(285 2)" fill="#dd9007"/>
      <path id="Path_535" data-name="Path 535" d="M309.207,143.094c1.508,2.713,7.17,4.257,9.6,6,3.8,2.727,7.308,6.362,11.246,8.8,3.54,2.188,7.881,2.77,11.523,4.7,3.249,1.726,3.946,3.9,6.4,6.216-2.99,1.054-6.3,1.348-9.375,2.206-5.65,1.578-10.279,4.738-15.311,7.459-2.023,1.094-5.421,2.189-7.532.527-2.347-1.848-3.888-7.849-5.128-10.478a55.324,55.324,0,0,1-4.573-14.487,19.666,19.666,0,0,1,.631-10.462A5.79,5.79,0,0,0,309.207,143.094Z" transform="translate(285 2)" fill="#e8a02d"/>
      <path id="Path_536" data-name="Path 536" d="M317.452,166.569a1.906,1.906,0,1,1-2.429,1.17A1.9,1.9,0,0,1,317.452,166.569Z" transform="translate(285 2)" fill="#ce9228" opacity="0.55" style="mix-blend-mode: multiply;isolation: isolate"/>
      <path id="Path_537" data-name="Path 537" d="M329.692,171.124a1.089,1.089,0,1,1-1.387.668A1.087,1.087,0,0,1,329.692,171.124Z" transform="translate(285 2)" fill="#ce9228" opacity="0.55" style="mix-blend-mode: multiply;isolation: isolate"/>
      <path id="Path_538" data-name="Path 538" d="M329.188,179a1.036,1.036,0,1,1-1.32.636A1.036,1.036,0,0,1,329.188,179Z" transform="translate(285 2)" fill="#ce9228" opacity="0.55" style="mix-blend-mode: multiply;isolation: isolate"/>
      <path id="Path_539" data-name="Path 539" d="M341.169,173.824a1.065,1.065,0,1,1-1.356.654A1.065,1.065,0,0,1,341.169,173.824Z" transform="translate(285 2)" fill="#ce9228" opacity="0.55" style="mix-blend-mode: multiply;isolation: isolate"/>
      <path id="Path_540" data-name="Path 540" d="M331.046,163.575a1.625,1.625,0,1,1-2.071,1A1.625,1.625,0,0,1,331.046,163.575Z" transform="translate(285 2)" fill="#ce9228" opacity="0.55" style="mix-blend-mode: multiply;isolation: isolate"/>
      <path id="Path_541" data-name="Path 541" d="M316.572,154.409a.562.562,0,1,1-.716.346A.563.563,0,0,1,316.572,154.409Z" transform="translate(285 2)" fill="#ce9228" opacity="0.55" style="mix-blend-mode: multiply;isolation: isolate"/>
      <path id="Path_542" data-name="Path 542" d="M308.449,155.674l.885.31-.885-.31-.884-.309Z" transform="translate(285 2)" fill="#ce9228" opacity="0.55" style="mix-blend-mode: multiply;isolation: isolate"/>
      <path id="Path_543" data-name="Path 543" d="M324.4,153.824a.442.442,0,1,1-.564.272A.443.443,0,0,1,324.4,153.824Z" transform="translate(285 2)" fill="#ce9228" opacity="0.55" style="mix-blend-mode: multiply;isolation: isolate"/>
      <path id="Path_544" data-name="Path 544" d="M320.169,160.385a.523.523,0,1,1-.667.321A.522.522,0,0,1,320.169,160.385Z" transform="translate(285 2)" fill="#ce9228" opacity="0.55" style="mix-blend-mode: multiply;isolation: isolate"/>
      <path id="Path_545" data-name="Path 545" d="M310.836,151.642a.922.922,0,1,1-1.175.566A.923.923,0,0,1,310.836,151.642Z" transform="translate(285 2)" fill="#ce9228" opacity="0.55" style="mix-blend-mode: multiply;isolation: isolate"/>
      <path id="Path_546" data-name="Path 546" d="M308.979,161.422a.541.541,0,1,1-.689.333A.543.543,0,0,1,308.979,161.422Z" transform="translate(285 2)" fill="#ce9228" opacity="0.55" style="mix-blend-mode: multiply;isolation: isolate"/>
      <path id="Path_547" data-name="Path 547" d="M353.145,170.793a1.053,1.053,0,1,1-1.341.647A1.053,1.053,0,0,1,353.145,170.793Z" transform="translate(285 2)" fill="#ce9228" opacity="0.55" style="mix-blend-mode: multiply;isolation: isolate"/>
      <path id="Path_548" data-name="Path 548" d="M351.221,178.466a.532.532,0,1,1-.678.327A.532.532,0,0,1,351.221,178.466Z" transform="translate(285 2)" fill="#ce9228" opacity="0.55" style="mix-blend-mode: multiply;isolation: isolate"/>
      <path id="Path_549" data-name="Path 549" d="M361.826,176.624a.546.546,0,1,1-.7.335A.545.545,0,0,1,361.826,176.624Z" transform="translate(285 2)" fill="#ce9228" opacity="0.55" style="mix-blend-mode: multiply;isolation: isolate"/>
      <path id="Path_550" data-name="Path 550" d="M340,181.7a.513.513,0,1,1-.653.315A.514.514,0,0,1,340,181.7Z" transform="translate(285 2)" fill="#ce9228" opacity="0.55" style="mix-blend-mode: multiply;isolation: isolate"/>
      <path id="Path_551" data-name="Path 551" d="M336.117,177.189a.537.537,0,1,1-.683.33A.538.538,0,0,1,336.117,177.189Z" transform="translate(285 2)" fill="#ce9228" opacity="0.55" style="mix-blend-mode: multiply;isolation: isolate"/>
      <path id="Path_552" data-name="Path 552" d="M340.573,164.446a.536.536,0,1,1-.683.329A.535.535,0,0,1,340.573,164.446Z" transform="translate(285 2)" fill="#ce9228" opacity="0.55" style="mix-blend-mode: multiply;isolation: isolate"/>
      <circle id="Ellipse_32" data-name="Ellipse 32" cx="0.957" cy="0.957" r="0.957" transform="translate(601.943 187.082)" fill="#ce9228" opacity="0.55" style="mix-blend-mode: multiply;isolation: isolate"/>
      <path id="Path_553" data-name="Path 553" d="M324.362,182.69Z" transform="translate(285 2)" fill="#ce9228" opacity="0.55" style="mix-blend-mode: multiply;isolation: isolate"/>
      <path id="Path_554" data-name="Path 554" d="M328.113,185.914a1.266,1.266,0,1,1-1.613.777A1.267,1.267,0,0,1,328.113,185.914Z" transform="translate(285 2)" fill="#ce9228" opacity="0.55" style="mix-blend-mode: multiply;isolation: isolate"/>
      <path id="Path_555" data-name="Path 555" d="M361.282,168.8c3.1-3.163,8.093-5.3,11.729-7.982,7.742-5.709,15.105-11.786,22.986-17.323,1.779-1.25,5.827-5.656,8.057-5.308,3.639.567,4.405,5.226,3.885,7.643-.932,4.338-2.028,8.533-2.731,12.96-1.091,6.863-2.394,13.72-3.942,20.449a48.808,48.808,0,0,0-1.569,9.414c-4.838.57-10.381-.39-15.328-.586-6.721-.265-13.464-.788-20.055-3.06-4.836-1.668-8.585-4.17-12.7-7.165C354.1,174.3,357.483,171.6,361.282,168.8Z" transform="translate(285 2)" fill="#c97c28"/>
      <path id="Path_556" data-name="Path 556" d="M357.667,175.126c2.653-.135,5.581-3.907,7.714-5.115,3.341-1.89,7.336-3.216,10.479-5.325,2.827-1.9,4.582-5.014,7.232-7.085,2.364-1.846,4.342-1.56,6.948-2.572-.025,2.7-.764,5.356-.973,8.044-.384,4.941.82,9.7,1.549,14.594.292,1.969.18,5-1.8,5.992-2.2,1.106-7.535.024-10.041-.015a50.191,50.191,0,0,1-13.139-1.957,19.4,19.4,0,0,1-8.327-4.438A4.621,4.621,0,0,0,357.667,175.126Z" transform="translate(285 2)" fill="#d68c43"/>
      <path id="Path_557" data-name="Path 557" d="M379.2,177.653a1.739,1.739,0,1,1,.236,2.31A1.647,1.647,0,0,1,379.2,177.653Z" transform="translate(285 2)" fill="#ce9228" style="mix-blend-mode: multiply;isolation: isolate"/>
      <path id="Path_558" data-name="Path 558" d="M386.526,169.961a.993.993,0,1,1,.134,1.319A.94.94,0,0,1,386.526,169.961Z" transform="translate(285 2)" fill="#ce9228" style="mix-blend-mode: multiply;isolation: isolate"/>
      <path id="Path_559" data-name="Path 559" d="M392.789,173.326a.945.945,0,1,1,.128,1.256A.9.9,0,0,1,392.789,173.326Z" transform="translate(285 2)" fill="#ce9228" style="mix-blend-mode: multiply;isolation: isolate"/>
      <path id="Path_560" data-name="Path 560" d="M392.112,162.154a.971.971,0,1,1,.132,1.289A.92.92,0,0,1,392.112,162.154Z" transform="translate(285 2)" fill="#ce9228" style="mix-blend-mode: multiply;isolation: isolate"/>
      <path id="Path_561" data-name="Path 561" d="M380.782,166.067a1.483,1.483,0,1,1,.2,1.97A1.405,1.405,0,0,1,380.782,166.067Z" transform="translate(285 2)" fill="#ce9228" style="mix-blend-mode: multiply;isolation: isolate"/>
      <path id="Path_562" data-name="Path 562" d="M369.05,173.736a.513.513,0,1,1,.069.681A.485.485,0,0,1,369.05,173.736Z" transform="translate(285 2)" fill="#ce9228" style="mix-blend-mode: multiply;isolation: isolate"/>
      <path id="Path_563" data-name="Path 563" d="M367.681,180.461l.513-.564-.513.564-.514.564Z" transform="translate(285 2)" fill="#ce9228" style="mix-blend-mode: multiply;isolation: isolate"/>
      <path id="Path_564" data-name="Path 564" d="M370.884,167.5a.4.4,0,1,1,.054.536A.382.382,0,0,1,370.884,167.5Z" transform="translate(285 2)" fill="#ce9228" style="mix-blend-mode: multiply;isolation: isolate"/>
      <path id="Path_565" data-name="Path 565" d="M374.974,173.227a.478.478,0,1,1,.065.634A.453.453,0,0,1,374.974,173.227Z" transform="translate(285 2)" fill="#ce9228" style="mix-blend-mode: multiply;isolation: isolate"/>
      <path id="Path_566" data-name="Path 566" d="M365.1,177.1a.841.841,0,1,1,.114,1.117A.8.8,0,0,1,365.1,177.1Z" transform="translate(285 2)" fill="#ce9228" style="mix-blend-mode: multiply;isolation: isolate"/>
      <path id="Path_567" data-name="Path 567" d="M372.514,182.225a.494.494,0,1,1,.067.656A.47.47,0,0,1,372.514,182.225Z" transform="translate(285 2)" fill="#ce9228" style="mix-blend-mode: multiply;isolation: isolate"/>
      <path id="Path_568" data-name="Path 568" d="M393.182,151.8a.961.961,0,1,1,.13,1.275A.91.91,0,0,1,393.182,151.8Z" transform="translate(285 2)" fill="#ce9228" style="mix-blend-mode: multiply;isolation: isolate"/>
      <path id="Path_569" data-name="Path 569" d="M398.858,156.177a.485.485,0,1,1,.066.645A.461.461,0,0,1,398.858,156.177Z" transform="translate(285 2)" fill="#ce9228" style="mix-blend-mode: multiply;isolation: isolate"/>
      <path id="Path_570" data-name="Path 570" d="M400.49,147.324a.5.5,0,1,1,.068.662A.472.472,0,0,1,400.49,147.324Z" transform="translate(285 2)" fill="#ce9228" style="mix-blend-mode: multiply;isolation: isolate"/>
      <path id="Path_571" data-name="Path 571" d="M398.172,166.031a.468.468,0,1,1,.064.621A.444.444,0,0,1,398.172,166.031Z" transform="translate(285 2)" fill="#ce9228" style="mix-blend-mode: multiply;isolation: isolate"/>
      <path id="Path_572" data-name="Path 572" d="M393.359,167.311a.489.489,0,1,1,.066.65A.462.462,0,0,1,393.359,167.311Z" transform="translate(285 2)" fill="#ce9228" style="mix-blend-mode: multiply;isolation: isolate"/>
      <path id="Path_573" data-name="Path 573" d="M384.3,159.069a.49.49,0,1,1,.067.65A.464.464,0,0,1,384.3,159.069Z" transform="translate(285 2)" fill="#ce9228" style="mix-blend-mode: multiply;isolation: isolate"/>
      <path id="Path_574" data-name="Path 574" d="M394.539,184.081a.873.873,0,1,1,.118,1.159A.826.826,0,0,1,394.539,184.081Z" transform="translate(285 2)" fill="#ce9228" style="mix-blend-mode: multiply;isolation: isolate"/>
      <path id="Path_575" data-name="Path 575" d="M394.364,178.43Z" transform="translate(285 2)" fill="#ce9228" style="mix-blend-mode: multiply;isolation: isolate"/>
      <path id="Path_576" data-name="Path 576" d="M398.1,176.763a1.155,1.155,0,1,1,.156,1.534A1.093,1.093,0,0,1,398.1,176.763Z" transform="translate(285 2)" fill="#ce9228" style="mix-blend-mode: multiply;isolation: isolate"/>
      <path id="Path_577" data-name="Path 577" d="M331.988,94c1.176-5.709,28.931-11.947,31.962-5.255,3.218,7.1-9.782,15.846-11.481,21.7,5.811.3,15.669-5.067,19.035,2.968-10.862.836-28.885,3.585-34.638,14.544-3.015-8.353.972-17.092,1.669-25.4C338.746,100.052,339.342,96.071,331.988,94Z" transform="translate(285 2)" fill="#aa855f" opacity="0.42" style="mix-blend-mode: multiply;isolation: isolate"/>
      <path id="Path_578" data-name="Path 578" d="M349.39,107.4c-1.5,5.234-5.387,10.526-7.658,15.574-4.836,10.748-9.112,21.658-14.172,32.308-1.142,2.4-2.962,9.533-5.349,10.512-3.893,1.6-6.976-2.891-7.666-5.774-1.238-5.174-2.242-10.295-3.751-15.424-2.34-7.954-4.466-16.029-6.285-24.116a61.239,61.239,0,0,0-3.137-10.954c4.517-3.531,10.495-5.861,15.5-8.644,6.8-3.781,13.754-7.3,21.427-8.873,5.63-1.151,10.6-.759,16.17-.061C353.776,97.206,351.764,102.132,349.39,107.4Z" transform="translate(285 2)" fill="#e5a21c"/>
      <path id="Path_579" data-name="Path 579" d="M349.822,98.491c-2.565,1.748-3.591,7.527-5.1,10.1-2.372,4.029-5.675,7.853-7.743,11.995-1.86,3.723-2.047,8.1-3.644,11.9-1.426,3.392-3.53,4.283-5.612,6.935-1.32-2.882-1.913-6.154-3.045-9.137-2.082-5.484-5.648-9.808-8.814-14.574-1.272-1.916-2.67-5.2-1.205-7.453,1.628-2.505,7.465-4.582,9.971-6.055a55.3,55.3,0,0,1,14.013-5.864,19.656,19.656,0,0,1,10.477-.318A5.789,5.789,0,0,0,349.822,98.491Z" transform="translate(285 2)" fill="#f7b32b"/>
      <path id="Path_580" data-name="Path 580" d="M327.19,108.826a1.906,1.906,0,1,1-1.386-2.312A1.907,1.907,0,0,1,327.19,108.826Z" transform="translate(285 2)" fill="#ce9228"/>
      <path id="Path_581" data-name="Path 581" d="M323.76,121.428a1.089,1.089,0,1,1-.791-1.321A1.089,1.089,0,0,1,323.76,121.428Z" transform="translate(285 2)" fill="#ce9228"/>
      <path id="Path_582" data-name="Path 582" d="M315.867,121.639a1.036,1.036,0,1,1-.753-1.257A1.037,1.037,0,0,1,315.867,121.639Z" transform="translate(285 2)" fill="#ce9228"/>
      <path id="Path_583" data-name="Path 583" d="M322.109,133.1a1.064,1.064,0,1,1-.773-1.291A1.064,1.064,0,0,1,322.109,133.1Z" transform="translate(285 2)" fill="#ce9228"/>
      <path id="Path_584" data-name="Path 584" d="M331.4,122.093a1.625,1.625,0,1,1-1.181-1.971A1.625,1.625,0,0,1,331.4,122.093Z" transform="translate(285 2)" fill="#ce9228"/>
      <path id="Path_585" data-name="Path 585" d="M339.219,106.85a.562.562,0,1,1-.408-.682A.561.561,0,0,1,339.219,106.85Z" transform="translate(285 2)" fill="#ce9228"/>
      <path id="Path_586" data-name="Path 586" d="M337.225,98.875l-.228.91.228-.91.228-.909Z" transform="translate(285 2)" fill="#ce9228"/>
      <path id="Path_587" data-name="Path 587" d="M340.511,114.59a.443.443,0,1,1-.322-.537A.444.444,0,0,1,340.511,114.59Z" transform="translate(285 2)" fill="#ce9228"/>
      <path id="Path_588" data-name="Path 588" d="M333.594,110.973a.523.523,0,1,1-.38-.635A.523.523,0,0,1,333.594,110.973Z" transform="translate(285 2)" fill="#ce9228"/>
      <path id="Path_589" data-name="Path 589" d="M341.456,100.887a.922.922,0,1,1-.67-1.118A.921.921,0,0,1,341.456,100.887Z" transform="translate(285 2)" fill="#ce9228"/>
      <path id="Path_590" data-name="Path 590" d="M331.548,99.923a.541.541,0,1,1-.393-.657A.54.54,0,0,1,331.548,99.923Z" transform="translate(285 2)" fill="#ce9228"/>
      <path id="Path_591" data-name="Path 591" d="M326.211,144.756a1.053,1.053,0,1,1-.765-1.278A1.053,1.053,0,0,1,326.211,144.756Z" transform="translate(285 2)" fill="#ce9228"/>
      <path id="Path_592" data-name="Path 592" d="M318.395,143.534a.532.532,0,1,1-.386-.646A.531.531,0,0,1,318.395,143.534Z" transform="translate(285 2)" fill="#ce9228"/>
      <path id="Path_593" data-name="Path 593" d="M321.19,153.928a.546.546,0,1,1-.4-.662A.547.547,0,0,1,321.19,153.928Z" transform="translate(285 2)" fill="#ce9228"/>
      <path id="Path_594" data-name="Path 594" d="M314.163,132.646a.513.513,0,1,1-.373-.621A.513.513,0,0,1,314.163,132.646Z" transform="translate(285 2)" fill="#ce9228"/>
      <path id="Path_595" data-name="Path 595" d="M318.3,128.376a.537.537,0,1,1-.39-.651A.537.537,0,0,1,318.3,128.376Z" transform="translate(285 2)" fill="#ce9228"/>
      <path id="Path_596" data-name="Path 596" d="M331.395,131.661a.536.536,0,1,1-.389-.651A.535.535,0,0,1,331.395,131.661Z" transform="translate(285 2)" fill="#ce9228"/>
      <path id="Path_597" data-name="Path 597" d="M308.768,111.266a.957.957,0,1,1-.7-1.16A.958.958,0,0,1,308.768,111.266Z" transform="translate(285 2)" fill="#ce9228"/>
      <path id="Path_598" data-name="Path 598" d="M311.759,117.166Z" transform="translate(285 2)" fill="#ce9228"/>
      <path id="Path_599" data-name="Path 599" d="M308.888,121.194a1.266,1.266,0,1,1-.92-1.536A1.266,1.266,0,0,1,308.888,121.194Z" transform="translate(285 2)" fill="#ce9228"/>
      <path id="Path_600" data-name="Path 600" d="M336.789,123.926c1.5,4.166,1.245,9.594,2.074,14.035,1.765,9.456,4.026,18.731,5.575,28.238.35,2.145,2.552,7.709,1.267,9.565-2.1,3.027-6.623,1.686-8.572.166-3.5-2.73-6.8-5.544-10.475-8.106-5.7-3.973-11.306-8.133-16.688-12.46a48.833,48.833,0,0,0-7.789-5.513c1.6-4.6,4.874-9.174,7.206-13.541,3.168-5.934,6.577-11.776,11.494-16.717,3.608-3.626,7.494-5.911,11.981-8.305C334.964,115.058,335.925,119.287,336.789,123.926Z" transform="translate(285 2)" fill="#c97c28"/>
      <path id="Path_601" data-name="Path 601" d="M332.668,117.914c-1.035,2.446,1.084,6.726,1.241,9.172.246,3.83-.3,8,.227,11.752.475,3.37,2.517,6.309,3.225,9.6.632,2.932-.487,4.587-.712,7.374-2.417-1.2-4.488-3.021-6.816-4.381-4.28-2.5-9.084-3.487-13.81-4.966-1.9-.594-4.576-2.014-4.611-4.227-.039-2.46,3.262-6.793,4.389-9.031a50.179,50.179,0,0,1,7.486-10.973,19.4,19.4,0,0,1,7.624-5.561A4.626,4.626,0,0,0,332.668,117.914Z" transform="translate(285 2)" fill="#d68c43"/>
      <path id="Path_602" data-name="Path 602" d="M321.007,136.2a1.739,1.739,0,1,1-2.181-.8A1.646,1.646,0,0,1,321.007,136.2Z" transform="translate(285 2)" fill="#ce9228" style="mix-blend-mode: multiply;isolation: isolate"/>
      <path id="Path_603" data-name="Path 603" d="M324.741,146.139a.993.993,0,1,1-1.246-.454A.94.94,0,0,1,324.741,146.139Z" transform="translate(285 2)" fill="#ce9228" style="mix-blend-mode: multiply;isolation: isolate"/>
      <path id="Path_604" data-name="Path 604" d="M318.983,150.31a.946.946,0,1,1-1.186-.432A.9.9,0,0,1,318.983,150.31Z" transform="translate(285 2)" fill="#ce9228" style="mix-blend-mode: multiply;isolation: isolate"/>
      <path id="Path_605" data-name="Path 605" d="M329.333,154.569a.971.971,0,1,1-1.218-.443A.92.92,0,0,1,329.333,154.569Z" transform="translate(285 2)" fill="#ce9228" style="mix-blend-mode: multiply;isolation: isolate"/>
      <path id="Path_606" data-name="Path 606" d="M330.748,142.666a1.483,1.483,0,1,1-1.86-.677A1.4,1.4,0,0,1,330.748,142.666Z" transform="translate(285 2)" fill="#ce9228" style="mix-blend-mode: multiply;isolation: isolate"/>
      <path id="Path_607" data-name="Path 607" d="M328.958,128.765a.513.513,0,1,1-.643-.235A.485.485,0,0,1,328.958,128.765Z" transform="translate(285 2)" fill="#ce9228" style="mix-blend-mode: multiply;isolation: isolate"/>
      <path id="Path_608" data-name="Path 608" d="M323.5,124.6l.284.707-.284-.707-.284-.708Z" transform="translate(285 2)" fill="#ce9228" style="mix-blend-mode: multiply;isolation: isolate"/>
      <path id="Path_609" data-name="Path 609" d="M333.775,133.134a.4.4,0,1,1-.507-.185A.383.383,0,0,1,333.775,133.134Z" transform="translate(285 2)" fill="#ce9228" style="mix-blend-mode: multiply;isolation: isolate"/>
      <path id="Path_610" data-name="Path 610" d="M326.835,134.319a.478.478,0,1,1-.6-.219A.452.452,0,0,1,326.835,134.319Z" transform="translate(285 2)" fill="#ce9228" style="mix-blend-mode: multiply;isolation: isolate"/>
      <path id="Path_611" data-name="Path 611" d="M327.648,123.746a.841.841,0,1,1-1.055-.384A.8.8,0,0,1,327.648,123.746Z" transform="translate(285 2)" fill="#ce9228" style="mix-blend-mode: multiply;isolation: isolate"/>
      <path id="Path_612" data-name="Path 612" d="M319.808,128.184a.494.494,0,1,1-.62-.226A.469.469,0,0,1,319.808,128.184Z" transform="translate(285 2)" fill="#ce9228" style="mix-blend-mode: multiply;isolation: isolate"/>
      <path id="Path_613" data-name="Path 613" d="M338.188,160.045a.96.96,0,1,1-1.2-.439A.909.909,0,0,1,338.188,160.045Z" transform="translate(285 2)" fill="#ce9228" style="mix-blend-mode: multiply;isolation: isolate"/>
      <path id="Path_614" data-name="Path 614" d="M331.773,163.246a.485.485,0,1,1-.609-.222A.459.459,0,0,1,331.773,163.246Z" transform="translate(285 2)" fill="#ce9228" style="mix-blend-mode: multiply;isolation: isolate"/>
      <path id="Path_615" data-name="Path 615" d="M339.03,168.572a.5.5,0,1,1-.625-.227A.471.471,0,0,1,339.03,168.572Z" transform="translate(285 2)" fill="#ce9228" style="mix-blend-mode: multiply;isolation: isolate"/>
      <path id="Path_616" data-name="Path 616" d="M323.2,158.334a.468.468,0,1,1-.587-.213A.444.444,0,0,1,323.2,158.334Z" transform="translate(285 2)" fill="#ce9228" style="mix-blend-mode: multiply;isolation: isolate"/>
      <path id="Path_617" data-name="Path 617" d="M324.149,153.444a.489.489,0,1,1-.614-.223A.464.464,0,0,1,324.149,153.444Z" transform="translate(285 2)" fill="#ce9228" style="mix-blend-mode: multiply;isolation: isolate"/>
      <path id="Path_618" data-name="Path 618" d="M335.512,148.886a.489.489,0,1,1-.614-.224A.462.462,0,0,1,335.512,148.886Z" transform="translate(285 2)" fill="#ce9228" style="mix-blend-mode: multiply;isolation: isolate"/>
      <path id="Path_619" data-name="Path 619" d="M308.54,147.2a.873.873,0,1,1-1.1-.4A.825.825,0,0,1,308.54,147.2Z" transform="translate(285 2)" fill="#ce9228" style="mix-blend-mode: multiply;isolation: isolate"/>
      <path id="Path_620" data-name="Path 620" d="M313.7,149.5Z" transform="translate(285 2)" fill="#ce9228" style="mix-blend-mode: multiply;isolation: isolate"/>
      <path id="Path_621" data-name="Path 621" d="M313.577,153.588a1.155,1.155,0,1,1-1.449-.528A1.094,1.094,0,0,1,313.577,153.588Z" transform="translate(285 2)" fill="#ce9228" style="mix-blend-mode: multiply;isolation: isolate"/>
      <circle id="Ellipse_33" data-name="Ellipse 33" cx="27.878" cy="27.878" r="27.878" transform="translate(621.488 113.558)" fill="#684b23"/>
      <circle id="Ellipse_34" data-name="Ellipse 34" cx="22.355" cy="22.355" r="22.355" transform="translate(627.011 119.32)" fill="#422d15"/>
      <circle id="Ellipse_35" data-name="Ellipse 35" cx="20.737" cy="20.737" r="20.737" transform="matrix(0.922, -0.388, 0.388, 0.922, 622.212, 132.213)" fill="#a2a856"/>
      <path id="Path_622" data-name="Path 622" d="M369.488,127.5c-1.208-1.665-4.665-1.421-6.407-1.413-6.159.031-14.315,5.735-17.071,11.035-2.511,4.829-.455,10.254,3.706,13.109,1.471,1.008,2.608,2.195,3.944,3.254,2.39,1.9,3.909,2.819,6.967,2.429,3.706-.472,7.737-.764,11.229-2.2,1.358-.557,2.538-1.365,3.951-1.838a4.118,4.118,0,0,0,2.624-1.635c3.147-4.3,1.983-11.027-.428-15.47-1.8-3.311-5.7-8.443-9.987-5.559-.6.4-.988,1.328-1.521,1.64-.432.254-1.178.07-1.631.16a6.8,6.8,0,0,0-3.253,1.64c-3.251,3.053-3.236,9.238-1.244,12.952,1.309,2.439,3.335,2.74,5.942,2.356,2.417-.355,8.217-.693,7.385-4.287-.4-1.717-5.285-7.18-6.843-3.937.981.033,1.8-.513,2.658.024.947.59,1.472,2.82.637,3.65-.661.658-2.381.372-3.255.339-1.941-.073-3.159-1.084-4.117-2.911-.8-1.521-.254-2.86.871-4.133a9.749,9.749,0,0,1,2.237-1.946c.728-.43,1.622-.449,2.308-.875,1.131-.7,1.459-2.587,2.857-2.9,2.077-.458,4.52,2.831,5.186,4.355,1.3,2.99,2.472,6.784,1.351,10-.7,2.014-1.541,4.66-3.381,5.888-2.241,1.5-5.213,1.79-7.835,1.9a24.27,24.27,0,0,1-12.668-2.646c-2.313-1.277-2.2-2.662-2.651-5.021-.458-2.38-1.4-4.672-1.588-7.084-.423-5.411,6.493-7.849,10.761-8.891,1.665-.407,3.145-.306,4.763-1.012a7.559,7.559,0,0,1,2.982-.623C368.028,127.465,368.217,127.667,369.488,127.5Z" transform="translate(285 2)" fill="#ccce80"/>
      <path id="Path_623" data-name="Path 623" d="M354.613,134.5c-2.528-.043-3.644,3.617-.563,3.007a2.2,2.2,0,0,0,1.438-2.882" transform="translate(285 2)" fill="#ccce80"/>
      <path id="Path_624" data-name="Path 624" d="M369.988,123.125c-.487-.912-4.1-1.617-3.612.106,2.74.447,5.1,1.829,7.683,2.515.605-1.921-2.552-2.555-4.071-2.621" transform="translate(285 2)" fill="#ccce80"/>
      <path id="Path_625" data-name="Path 625" d="M367.1,141.292a.773.773,0,1,1-.773-.773A.773.773,0,0,1,367.1,141.292Z" transform="translate(285 2)" fill="#5e5142"/>
      <path id="Path_626" data-name="Path 626" d="M374.11,134.818a.939.939,0,1,1-.939-.94A.939.939,0,0,1,374.11,134.818Z" transform="translate(285 2)" fill="#5e5142"/>
      <path id="Path_627" data-name="Path 627" d="M347.952,135.572a1.273,1.273,0,1,1-1.274-1.273A1.273,1.273,0,0,1,347.952,135.572Z" transform="translate(285 2)" fill="#5e5142"/>
      <path id="Path_628" data-name="Path 628" d="M354.689,138.772a1.138,1.138,0,1,1-1.138-1.139A1.138,1.138,0,0,1,354.689,138.772Z" transform="translate(285 2)" fill="#5e5142"/>
      <path id="Path_629" data-name="Path 629" d="M357.185,144.908c1.773-1.351,4.515-1.656,7.643-1.6a1.3,1.3,0,0,1,0,.249c-2.041.034-6.312.417-6.96,1.482C357.594,144.957,357.118,144.829,357.185,144.908Z" transform="translate(285 2)" fill="#7c8c4f"/>
      <path id="Path_630" data-name="Path 630" d="M376.641,133.8c.8,2.08.323,4.8-.609,7.784a1.333,1.333,0,0,1-.239-.069c.54-1.97,1.371-6.176.53-7.1C376.48,134.174,376.737,133.753,376.641,133.8Z" transform="translate(285 2)" fill="#7c8c4f"/>
      <path id="Path_631" data-name="Path 631" d="M356.731,136.141c1.773-2.856,4.515-3.5,7.643-3.379.012.178,0,.348,0,.525-2.041.072-6.312.882-6.96,3.133C357.14,136.243,356.664,135.973,356.731,136.141Z" transform="translate(285 2)" fill="#7c8c4f"/>
      <path id="Path_632" data-name="Path 632" d="M366.093,129.692c-.14-2.225,1.129-4.675,2.913-7.244a1.265,1.265,0,0,1,.207.138c-1.105,1.717-3.158,5.481-2.631,6.611C366.359,129.379,365.989,129.7,366.093,129.692Z" transform="translate(285 2)" fill="#7c8c4f"/>
      <path id="Path_633" data-name="Path 633" d="M352.975,146.542c3.327-.478,5.583,1.21,7.5,3.684-.128.124-.264.227-.4.338-1.367-1.518-4.732-4.27-6.873-3.32C353.159,146.92,353.061,146.381,352.975,146.542Z" transform="translate(285 2)" fill="#7c8c4f"/>
      <path id="Path_634" data-name="Path 634" d="M383.552,145.328c-2.99-1.535-3.854-4.217-3.987-7.344.176-.026.347-.032.523-.043.238,2.029,1.391,6.22,3.687,6.683C383.621,144.913,383.39,145.409,383.552,145.328Z" transform="translate(285 2)" fill="#606b37"/>
      <path id="Path_635" data-name="Path 635" d="M375.067,137.517c.925,2.027.615,4.769-.133,7.807a1.327,1.327,0,0,1-.242-.055c.418-2,.99-6.248.1-7.115C374.929,137.9,375.159,137.468,375.067,137.517Z" transform="translate(285 2)" fill="#606b37"/>
      <path id="Path_636" data-name="Path 636" d="M377.621,151.784c-2.938,1.635-5.647.864-8.322-.761.076-.161.166-.306.255-.459,1.819.929,5.945,2.3,7.605.645C377.313,151.5,377.6,151.964,377.621,151.784Z" transform="translate(285 2)" fill="#606b37"/>
      <path id="Path_637" data-name="Path 637" d="M351.775,126.94c3.287-.7,5.652.829,7.733,3.167-.12.132-.248.244-.378.364-1.468-1.422-5.011-3.939-7.083-2.846C351.984,127.3,351.849,126.774,351.775,126.94Z" transform="translate(285 2)" fill="#606b37"/>
      <path id="Path_638" data-name="Path 638" d="M357.368,152.823c1.507-1.643,4.153-2.426,7.242-2.92a1.341,1.341,0,0,1,.044.244c-2,.393-6.14,1.523-6.59,2.685C357.779,152.8,357.288,152.756,357.368,152.823Z" transform="translate(285 2)" fill="#606b37"/>
    </g>
  </g>
</svg>
