<svg xmlns="http://www.w3.org/2000/svg" width="109.923" height="111.605" viewBox="0 0 109.923 111.605">
  <g id="Group_246" data-name="Group 246" transform="translate(-32.238 -129.907)">
    <path id="Path_105" data-name="Path 105" d="M61.85,136.319a55.382,55.382,0,0,0-10.227,6.813,57.318,57.318,0,0,0-15.512,20.9c-3.945,9.043-4.665,16.82-3.112,26.372,2.255,13.865,7.714,28.046,17.949,38,11.538,11.219,29.385,14.219,44.959,12.767a48.431,48.431,0,0,0,34.535-20.307c8.793-12.538,13.726-32.891,10.941-47.979-3.2-17.321-15.745-33.246-32.282-39.325A59.079,59.079,0,0,0,61.85,136.319Z" fill="#fae378"/>
    <path id="Path_106" data-name="Path 106" d="M85.065,136.132c-7.452-.41-13.852,1.678-20.164,5.664-5.586,3.528-13.272,8.613-15.594,14.995a1.987,1.987,0,0,0,2.427,2.427c6-1.807,10.487-8.021,15.568-11.521a50.466,50.466,0,0,1,18.23-8.112C87.559,139.175,86.959,136.236,85.065,136.132Z" fill="#fcefb3"/>
    <path id="Path_107" data-name="Path 107" d="M46.474,167.9c1.7-2.689-2.439-5.005-4.216-2.464a29.815,29.815,0,0,0-5.316,14.291c-.53,4.652-1.351,11.176,2.123,14.855a1.267,1.267,0,0,0,1.963-.253c2.411-3.381,1.349-8.063,1.485-11.989A28.831,28.831,0,0,1,46.474,167.9Z" fill="#fcefb3"/>
    <path id="Path_108" data-name="Path 108" d="M46.083,207.461a33.259,33.259,0,0,0-1.323-3.433c-.656-1.479-3.127-.1-2.192,1.281a33.058,33.058,0,0,0,2.209,2.912A.787.787,0,0,0,46.083,207.461Z" fill="#fcefb3"/>
    <path id="Path_109" data-name="Path 109" d="M114.819,144.1c-.984-3.715-5.8-4.845-9.152-4.863-1.827-.009-1.789,2.687,0,2.813a10.471,10.471,0,0,1,4.443,1.3,16.7,16.7,0,0,0,3.676,1.779A.847.847,0,0,0,114.819,144.1Z" fill="#fcefb3"/>
    <path id="Path_110" data-name="Path 110" d="M88.006,226.491c-4.344-.425-8.482-.242-12.8-1.316a68.2,68.2,0,0,1-12.366-4.524c-.564-.262-1.061.563-.493.843,7.39,3.638,17.387,8.615,25.741,5.611A.314.314,0,0,0,88.006,226.491Z" fill="#dfceb5" style="mix-blend-mode: multiply;isolation: isolate"/>
    <path id="Path_111" data-name="Path 111" d="M107.333,220.617a.05.05,0,0,0,0,.1A.05.05,0,0,0,107.333,220.617Z" fill="#e08a48"/>
    <path id="Path_112" data-name="Path 112" d="M115.667,214.617a.05.05,0,0,0,0,.1A.05.05,0,0,0,115.667,214.617Z" fill="#e08a48"/>
    <path id="Path_113" data-name="Path 113" d="M131.745,175.868a.55.55,0,0,0-1.074.146c-.32,4.116-.193,8.178-.728,12.292-.785,6.036-3.362,10.293-6.153,15.511a.938.938,0,0,0,1.619.946C130.658,197.455,134.205,184.663,131.745,175.868Z" fill="#dfceb5" style="mix-blend-mode: multiply;isolation: isolate"/>
    <path id="Path_114" data-name="Path 114" d="M131.333,172.491a.176.176,0,0,0,0,.351A.176.176,0,0,0,131.333,172.491Z" fill="#dfceb5" style="mix-blend-mode: multiply;isolation: isolate"/>
    <path id="Path_115" data-name="Path 115" d="M130.333,168a.332.332,0,0,0,0,.664A.332.332,0,0,0,130.333,168Z" fill="#dfceb5" style="mix-blend-mode: multiply;isolation: isolate"/>
    <path id="Path_116" data-name="Path 116" d="M127.333,159.1a.235.235,0,0,0,0,.469A.235.235,0,0,0,127.333,159.1Z" fill="#dfceb5" style="mix-blend-mode: multiply;isolation: isolate"/>
    <path id="Path_117" data-name="Path 117" d="M127.046,155.914a15.511,15.511,0,0,0-3.173-4.363c-1.093-1-2.708-2.383-4.266-2.314a.553.553,0,0,0-.473.823c.744,1.205,2.258,1.967,3.287,2.944a17.407,17.407,0,0,1,3.107,3.8A.88.88,0,0,0,127.046,155.914Z" fill="#dfceb5" style="mix-blend-mode: multiply;isolation: isolate"/>
    <path id="Path_118" data-name="Path 118" d="M65.383,184c-.049-.474-.8-.47-.742,0a9.811,9.811,0,0,0,1.09,3.823.294.294,0,0,0,.535-.226A23,23,0,0,1,65.383,184Z" fill="#dfceb5" style="mix-blend-mode: multiply;isolation: isolate"/>
    <path id="Path_119" data-name="Path 119" d="M100.684,194.813c-5.013,2.759-8.531,4.533-14.5,4.6-5.365.065-9.772-.733-14.276-3.814-.394-.27-.768.374-.374.641,6.829,4.62,25,8.625,29.895-.683A.551.551,0,0,0,100.684,194.813Z" fill="#dfceb5" style="mix-blend-mode: multiply;isolation: isolate"/>
    <path id="Path_120" data-name="Path 120" d="M112.821,179.841a.552.552,0,0,0-.8-.327c-.962.665-1.177,1.806-1.631,2.838a38.783,38.783,0,0,1-1.8,3.546.919.919,0,0,0,1.586.926,39.687,39.687,0,0,0,1.892-3.76C112.509,182.048,113.152,180.96,112.821,179.841Z" fill="#dfceb5" style="mix-blend-mode: multiply;isolation: isolate"/>
    <path id="Path_121" data-name="Path 121" d="M113,176.236a.1.1,0,0,0,0,.2A.1.1,0,0,0,113,176.236Z" fill="#e08a48"/>
    <path id="Path_122" data-name="Path 122" d="M112,167.139a.528.528,0,0,0,0,1.055A.528.528,0,0,0,112,167.139Z" fill="#dfceb5" style="mix-blend-mode: multiply;isolation: isolate"/>
    <path id="Path_123" data-name="Path 123" d="M93.28,154.881a19.756,19.756,0,0,0-10.39-.067c-3.1.781-7.135,1.331-9.394,3.756-.19.2-.072.629.249.6,3.264-.29,6.049-2.154,9.4-2.438,3.3-.28,6.592-.078,9.891-.087A.9.9,0,0,0,93.28,154.881Z" fill="#fcefb3"/>
    <path id="Path_124" data-name="Path 124" d="M70.195,161.091c-1.25.829-2.558,1.419-3.276,2.789-.616,1.176-1.683,2.456-1.848,3.791a.276.276,0,0,0,.467.194c.874-1.068,1.164-2.359,2.265-3.3,1.059-.908,1.682-2.1,2.771-2.98C70.849,161.359,70.49,160.9,70.195,161.091Z" fill="#fcefb3"/>
    <path id="Path_125" data-name="Path 125" d="M60.753,194.555c-.708-2.277-1.831-4.312-2.287-6.687-.107-.554-1.064-.436-1,.135.286,2.455.818,5.125,2.535,6.989A.452.452,0,0,0,60.753,194.555Z" fill="#fcefb3"/>
    <path id="Path_126" data-name="Path 126" d="M62,198.079a.254.254,0,0,0,0,.508A.254.254,0,0,0,62,198.079Z" fill="#fcefb3"/>
    <path id="Path_127" data-name="Path 127" d="M84.277,208.207c-1.709-1.1-3.839-1-5.679-1.9-1.344-.653-2.528,1.312-1.183,2.024,1.992,1.056,4.81,2.28,6.862.818A.555.555,0,0,0,84.277,208.207Z" fill="#fcefb3"/>
    <path id="Path_128" data-name="Path 128" d="M122.739,167.327c-.47-.239-1.2.044-1.147.658.146,1.641.983,3.08,1.453,4.643a12.286,12.286,0,0,1,.472,6.146.782.782,0,0,0,1.507.416C126.137,175.677,126.716,169.352,122.739,167.327Z" fill="#fcefb3"/>
    <path id="Path_129" data-name="Path 129" d="M50.948,228.4c11.538,11.219,29.385,14.219,44.959,12.767a48.431,48.431,0,0,0,34.535-20.307c8.793-12.538,13.726-32.891,10.941-47.979a53.981,53.981,0,0,0-20.5-32.891c17.158,16.556,19.794,41.134,12.368,58.505-8.167,19.1-16.583,30.75-42.25,33.75-7.388.864-19.789-1.128-26.75-3.75-6.794-2.559-15.583-8.167-25.917-20.167-.2-.231-.467-.545-.782-.918A58.379,58.379,0,0,0,50.948,228.4Z" fill="#eadfcf" style="mix-blend-mode: multiply;isolation: isolate"/>
    <path id="Path_130" data-name="Path 130" d="M91.786,145.4a.389.389,0,0,1,.071-.3.347.347,0,0,1,.267-.074c.8.036,1.351.776,1.779,1.448a4.326,4.326,0,0,1-.235-2.156,3.65,3.65,0,0,1,.543-2.079.323.323,0,0,1,.327-.1.453.453,0,0,1,.2.2,5.352,5.352,0,0,1,.737,1.942,10.816,10.816,0,0,1,.146,1.148,3.852,3.852,0,0,1,.062,1.158,1.916,1.916,0,0,1,1.863-1.288.317.317,0,0,1,.287.138.348.348,0,0,1,.032.16,2.216,2.216,0,0,1-.252.946,11.313,11.313,0,0,1-1.767,2.769,2,2,0,0,1-.872.668C93.218,150.511,91.855,146.608,91.786,145.4Z" fill="#93bf62"/>
    <path id="Path_131" data-name="Path 131" d="M62.126,212.495a.389.389,0,0,1-.255.177.347.347,0,0,1-.247-.125,2.545,2.545,0,0,1-.346-2.267A4.338,4.338,0,0,1,60,212.036c-.426.416-1.163,1.139-1.8,1.176a.322.322,0,0,1-.307-.147.45.45,0,0,1-.019-.286,5.347,5.347,0,0,1,.758-1.933,10.748,10.748,0,0,1,.662-.95,3.842,3.842,0,0,1,.731-.9,1.916,1.916,0,0,1-2.246-.3.318.318,0,0,1-.12-.294.353.353,0,0,1,.084-.14,2.2,2.2,0,0,1,.822-.532,11.314,11.314,0,0,1,3.168-.867,1.992,1.992,0,0,1,1.1.091C64.5,207.744,62.887,211.553,62.126,212.495Z" fill="#93bf62"/>
    <path id="Path_132" data-name="Path 132" d="M108.18,215.329a.386.386,0,0,1,.108.29.348.348,0,0,1-.181.209,2.55,2.55,0,0,1-2.283-.219,4.337,4.337,0,0,1,1.39,1.665,3.639,3.639,0,0,1,.7,2.031.322.322,0,0,1-.218.262.451.451,0,0,1-.281-.052,5.353,5.353,0,0,1-1.689-1.208,10.692,10.692,0,0,1-.759-.875,3.8,3.8,0,0,1-.693-.93,1.918,1.918,0,0,1-.837,2.106.318.318,0,0,1-.315.044.354.354,0,0,1-.115-.116,2.2,2.2,0,0,1-.315-.926,11.3,11.3,0,0,1-.064-3.284,2,2,0,0,1,.356-1.04C104.154,211.867,107.452,214.361,108.18,215.329Z" fill="#93bf62"/>
    <path id="Path_133" data-name="Path 133" d="M51.378,176.416a.392.392,0,0,1-.241-.194.343.343,0,0,1,.048-.273,2.551,2.551,0,0,1,2.074-.98,4.324,4.324,0,0,1-2.047-.718c-.521-.289-1.424-.789-1.641-1.387a.323.323,0,0,1,.053-.336.459.459,0,0,1,.268-.1,5.362,5.362,0,0,1,2.07.173,10.875,10.875,0,0,1,1.1.364,3.829,3.829,0,0,1,1.072.443,1.916,1.916,0,0,1-.359-2.237.316.316,0,0,1,.248-.2.366.366,0,0,1,.158.04,2.22,2.22,0,0,1,.745.635,11.318,11.318,0,0,1,1.736,2.788,2,2,0,0,1,.226,1.076C56.609,177.329,52.5,176.875,51.378,176.416Z" fill="#93bf62"/>
    <path id="Path_134" data-name="Path 134" d="M116.741,171.031a.387.387,0,0,1,.309-.026.347.347,0,0,1,.153.231,2.551,2.551,0,0,1-.828,2.139,4.334,4.334,0,0,1,1.978-.89,3.644,3.644,0,0,1,2.145-.125.32.32,0,0,1,.193.28.452.452,0,0,1-.125.257,5.346,5.346,0,0,1-1.62,1.3,10.766,10.766,0,0,1-1.047.495,3.823,3.823,0,0,1-1.082.416,1.919,1.919,0,0,1,1.8,1.375.318.318,0,0,1-.043.315.355.355,0,0,1-.142.079,2.208,2.208,0,0,1-.977.054,11.356,11.356,0,0,1-3.18-.825,2,2,0,0,1-.9-.623C112.321,173.973,115.612,171.47,116.741,171.031Z" fill="#93bf62"/>
    <path id="Path_135" data-name="Path 135" d="M107.607,204.384a1.1,1.1,0,0,1-.161-.013c-4.374-.714-9.818-1.6-13.694-5.047-3.964-3.524-5.375-8.714-6.054-14.071a16.645,16.645,0,0,1-7.227,5.735,13.671,13.671,0,0,1-4.634.756,25.025,25.025,0,0,1-5.931-.821,47.86,47.86,0,0,1-11.448-4.428,1,1,0,0,1-.023-1.744,34.415,34.415,0,0,0,5.625-4.06c.417-.37.827-.752,1.237-1.134a21.5,21.5,0,0,1,4.843-3.714,12.73,12.73,0,0,1,5.8-1.3,17.2,17.2,0,0,1,4.791.705,27.3,27.3,0,0,1,5.555,2.4,16.349,16.349,0,0,1,1.244-8.365,17.784,17.784,0,0,1,8.64-8.914l.743-.376c1.754-.879,4.4-2.208,4.985-3.594a1,1,0,0,1,.922-.615h.035a1,1,0,0,1,.912.679,36.272,36.272,0,0,1,1.629,8.168,14.539,14.539,0,0,1-.947,7.831c-1.582,3.484-5.03,6.453-9.278,8.163l.416.1a14.238,14.238,0,0,1,6.781,3.289c2.641,2.611,3.244,6.423,3.6,9.791l.042.4c.323,3.074.658,6.253,2.4,8.589a1,1,0,0,1-.8,1.6Z" fill="#dfceb5" style="mix-blend-mode: multiply;isolation: isolate"/>
    <path id="Path_136" data-name="Path 136" d="M103.6,192.4c-.351-3.3-.948-6.849-3.311-9.185a13.31,13.31,0,0,0-6.319-3.03c-1.474-.366-2.97-.633-4.473-.855,5.154-.962,10.552-4.14,12.666-8.793a13.577,13.577,0,0,0,.862-7.316,35.818,35.818,0,0,0-1.581-7.949c-.819,1.958-4.272,3.484-6.191,4.474a16.876,16.876,0,0,0-8.188,8.438,15.915,15.915,0,0,0-.836,9.882,29.839,29.839,0,0,0-7.153-3.365,13.637,13.637,0,0,0-9.858.53c-2.245,1.134-3.986,3.034-5.866,4.7a35.326,35.326,0,0,1-5.789,4.177,46.933,46.933,0,0,0,11.209,4.336c3.282.805,6.809,1.239,9.988.1,3.565-1.284,6.094-4.3,8.284-7.468.539,5.888,1.633,12.115,6,16,3.549,3.153,8.507,4.043,13.192,4.808C104.246,199.221,103.947,195.708,103.6,192.4Z" fill="#6faa2e"/>
    <path id="Path_137" data-name="Path 137" d="M71.871,176.81c-1.613-.477-3.244.693-4.45,1.662-1.729,1.39-3.221,3.037-4.973,4.406-.219.17.019.537.266.457a12.966,12.966,0,0,0,4.24-2.783,17.232,17.232,0,0,1,2.354-1.76c.855-.5,1.83-.714,2.658-1.253A.4.4,0,0,0,71.871,176.81Z" fill="#96c166" style="mix-blend-mode: overlay;isolation: isolate"/>
    <path id="Path_138" data-name="Path 138" d="M75.327,175.911a6.439,6.439,0,0,0-.938.1c-.529.081-.262,1.012.31.735a5.947,5.947,0,0,0,.746-.4A.236.236,0,0,0,75.327,175.911Z" fill="#96c166" style="mix-blend-mode: overlay;isolation: isolate"/>
    <path id="Path_139" data-name="Path 139" d="M78.725,175.956c-.214-.062-.429-.113-.645-.163a.3.3,0,1,0-.08.591c.223.005.444.009.667,0A.219.219,0,0,0,78.725,175.956Z" fill="#96c166" style="mix-blend-mode: overlay;isolation: isolate"/>
    <path id="Path_140" data-name="Path 140" d="M92.339,164.31c-3.433,2.365-4.754,7.234-4.689,11.2.007.4.659.521.721.1a19.4,19.4,0,0,1,4.521-10.579C93.205,164.66,92.795,163.995,92.339,164.31Z" fill="#96c166" style="mix-blend-mode: overlay;isolation: isolate"/>
    <path id="Path_141" data-name="Path 141" d="M95.2,161.524c-.161.073-.321.147-.482.222-.53.248.124,1.065.474.614.123-.159.246-.318.366-.478C95.735,161.648,95.408,161.431,95.2,161.524Z" fill="#96c166" style="mix-blend-mode: overlay;isolation: isolate"/>
    <path id="Path_142" data-name="Path 142" d="M97.25,160.176a.324.324,0,0,0,0,.648A.324.324,0,0,0,97.25,160.176Z" fill="#96c166" style="mix-blend-mode: overlay;isolation: isolate"/>
    <path id="Path_143" data-name="Path 143" d="M89.591,180.582c-.4-.064-.58.519-.171.617a19.83,19.83,0,0,1,6.119,2.551,11.76,11.76,0,0,1,4.012,4.471.28.28,0,0,0,.517-.14C100.418,183.542,92.982,181.124,89.591,180.582Z" fill="#96c166" style="mix-blend-mode: overlay;isolation: isolate"/>
    <path id="Path_144" data-name="Path 144" d="M100.766,190.177c-.092-.347-.648-.191-.535.147a11.84,11.84,0,0,1,.363,1.308,8.314,8.314,0,0,0,.258,1.319.126.126,0,0,0,.241,0A6.13,6.13,0,0,0,100.766,190.177Z" fill="#96c166" style="mix-blend-mode: overlay;isolation: isolate"/>
    <path id="Path_145" data-name="Path 145" d="M108.015,159.01c-.42-.935.815-3.627,2.648-3.264s2.308,2.116,1.731,2.72C111.7,159.189,108.49,160.068,108.015,159.01Z" fill="#dfceb5" style="mix-blend-mode: multiply;isolation: isolate"/>
    <path id="Path_146" data-name="Path 146" d="M129.564,161.916c.584.842-.677,3.944-2,3.694-1.836-.346-1.724-1.556-1.268-2.256C126.838,162.516,128.9,160.963,129.564,161.916Z" fill="#dfceb5" style="mix-blend-mode: multiply;isolation: isolate"/>
    <path id="Path_147" data-name="Path 147" d="M112.075,193.059c.156-1.013,3.207-2.4,4-1.3,1.093,1.516.179,2.316-.634,2.51C114.465,194.5,111.9,194.205,112.075,193.059Z" fill="#dfceb5" style="mix-blend-mode: multiply;isolation: isolate"/>
    <path id="Path_148" data-name="Path 148" d="M83.377,196.707c-.6-.828.582-3.96,1.914-3.742,1.844.3,1.761,1.515,1.322,2.225C86.087,196.041,84.061,197.643,83.377,196.707Z" fill="#dfceb5" style="mix-blend-mode: multiply;isolation: isolate"/>
    <path id="Path_149" data-name="Path 149" d="M93.892,220.615c-.979.3-3.555-1.839-2.915-3.028a2.107,2.107,0,0,1,3.356-.42C94.966,217.94,95,220.273,93.892,220.615Z" fill="#dfceb5" style="mix-blend-mode: multiply;isolation: isolate"/>
    <path id="Path_150" data-name="Path 150" d="M67.739,214.722c.85.573.8,3.922-.526,4.17a2.107,2.107,0,0,1-2.434-2.348C64.983,215.565,66.778,214.075,67.739,214.722Z" fill="#dfceb5" style="mix-blend-mode: multiply;isolation: isolate"/>
    <path id="Path_151" data-name="Path 151" d="M67.5,193.346c.752.506.708,3.468-.465,3.687a1.864,1.864,0,0,1-2.153-2.077C65.067,194.091,66.654,192.773,67.5,193.346Z" fill="#dfceb5" style="mix-blend-mode: multiply;isolation: isolate"/>
    <path id="Path_152" data-name="Path 152" d="M46.036,186.236c.747-.513,3.486.615,3.259,1.787-.314,1.622-1.47,2.425-2.087,2.019C46.47,189.556,45.191,186.816,46.036,186.236Z" fill="#dfceb5" style="mix-blend-mode: multiply;isolation: isolate"/>
    <path id="Path_153" data-name="Path 153" d="M120.032,214.351c-.747.514-3.487-.612-3.261-1.784.313-1.623,1.468-2.427,2.085-2.021C119.6,211.031,120.876,213.769,120.032,214.351Z" fill="#dfceb5" style="mix-blend-mode: multiply;isolation: isolate"/>
    <path id="Path_154" data-name="Path 154" d="M65.672,152.8c.781-.46,3.435.856,3.127,2.009-.425,1.6-1.634,2.318-2.221,1.869C65.875,156.144,64.789,153.323,65.672,152.8Z" fill="#dfceb5" style="mix-blend-mode: multiply;isolation: isolate"/>
    <path id="Path_155" data-name="Path 155" d="M98.715,136.2c.885.194,1.934,2.964.924,3.6-1.4.88-2.775.586-2.9-.142C96.589,138.786,97.713,135.98,98.715,136.2Z" fill="#dfceb5" style="mix-blend-mode: multiply;isolation: isolate"/>
    <path id="Path_156" data-name="Path 156" d="M78.614,163.663c.758-.5,3.47.694,3.217,1.861-.351,1.614-1.525,2.391-2.133,1.97C78.971,166.991,77.756,164.224,78.614,163.663Z" fill="#dfceb5" style="mix-blend-mode: multiply;isolation: isolate"/>
    <path id="Path_157" data-name="Path 157" d="M107.682,158.343c-.42-.934.815-3.626,2.647-3.264s2.308,2.116,1.731,2.721C111.37,158.523,108.157,159.4,107.682,158.343Z" fill="#e08a48"/>
    <path id="Path_158" data-name="Path 158" d="M129.231,161.249c.584.842-.678,3.945-2,3.7-1.836-.347-1.724-1.557-1.268-2.257C126.5,161.85,128.569,160.3,129.231,161.249Z" fill="#e08a48"/>
    <path id="Path_159" data-name="Path 159" d="M111.741,192.392c.156-1.013,3.207-2.4,4-1.3,1.093,1.515.179,2.316-.634,2.509C114.132,193.833,111.565,193.538,111.741,192.392Z" fill="#e08a48"/>
    <path id="Path_160" data-name="Path 160" d="M83.044,196.04c-.6-.827.582-3.96,1.914-3.741,1.844.3,1.761,1.514,1.322,2.225C85.754,195.374,83.727,196.977,83.044,196.04Z" fill="#e08a48"/>
    <path id="Path_161" data-name="Path 161" d="M93.559,219.948c-.979.3-3.555-1.839-2.915-3.027A2.108,2.108,0,0,1,94,216.5C94.633,217.274,94.667,219.606,93.559,219.948Z" fill="#e08a48"/>
    <path id="Path_162" data-name="Path 162" d="M67.406,214.056c.85.572.8,3.921-.526,4.17a2.109,2.109,0,0,1-2.435-2.349C64.65,214.9,66.444,213.408,67.406,214.056Z" fill="#e08a48"/>
    <path id="Path_163" data-name="Path 163" d="M67.171,192.679c.752.506.708,3.468-.465,3.687a1.864,1.864,0,0,1-2.153-2.077C64.734,193.424,66.321,192.106,67.171,192.679Z" fill="#e08a48"/>
    <path id="Path_164" data-name="Path 164" d="M45.7,185.569c.747-.513,3.486.615,3.259,1.787-.314,1.622-1.47,2.425-2.087,2.019C46.137,188.889,44.858,186.15,45.7,185.569Z" fill="#e08a48"/>
    <path id="Path_165" data-name="Path 165" d="M119.7,213.684c-.746.514-3.486-.612-3.26-1.784.312-1.622,1.467-2.427,2.085-2.021C119.262,210.365,120.543,213.1,119.7,213.684Z" fill="#e08a48"/>
    <path id="Path_166" data-name="Path 166" d="M65.339,152.136c.781-.46,3.435.855,3.127,2.009-.425,1.6-1.634,2.317-2.222,1.869C65.541,155.477,64.456,152.656,65.339,152.136Z" fill="#e08a48"/>
    <path id="Path_168" data-name="Path 168" d="M78.28,163c.759-.5,3.471.694,3.218,1.861-.351,1.614-1.525,2.391-2.133,1.971C78.638,166.325,77.422,163.557,78.28,163Z" fill="#e08a48"/>
    <path id="Path_170" data-name="Path 170" d="M66.079,152.63a.317.317,0,0,0-.168.61c.6.2,1.044.655,1.637.852a.2.2,0,0,0,.245-.245A2.1,2.1,0,0,0,66.079,152.63Z" fill="#ebb48a"/>
    <path id="Path_171" data-name="Path 171" d="M80.4,163.918a3.212,3.212,0,0,0-1.308-.571.355.355,0,0,0-.189.685c.406.113.793.3,1.205.389C80.372,164.476,80.647,164.125,80.4,163.918Z" fill="#ebb48a"/>
    <path id="Path_172" data-name="Path 172" d="M109.8,156.128a.412.412,0,0,0-.093-.159.368.368,0,0,0-.437-.056,1.848,1.848,0,0,0-1,1.162.315.315,0,0,0,.522.3,11.812,11.812,0,0,1,.918-.9A.356.356,0,0,0,109.8,156.128Z" fill="#ebb48a"/>
    <path id="Path_173" data-name="Path 173" d="M128.2,161.727c-.323-.185-.779.121-1.009.332a2.15,2.15,0,0,0-.642,1.2.293.293,0,0,0,.565.156c.218-.582.67-.7,1.086-1.081C128.39,162.159,128.469,161.879,128.2,161.727Z" fill="#ebb48a"/>
    <path id="Path_174" data-name="Path 174" d="M115.11,191.38c-.542-.355-1.322.039-1.847.277-.322.146-.093.683.241.571.522-.173,1.231-.134,1.65-.5A.22.22,0,0,0,115.11,191.38Z" fill="#ebb48a"/>
    <path id="Path_175" data-name="Path 175" d="M118.293,210.2c-.19-.085-.475.058-.39.3a8.751,8.751,0,0,0,.487.936c.142.286.244.508.556.632a.241.241,0,0,0,.273-.111C119.559,211.348,118.836,210.437,118.293,210.2Z" fill="#ebb48a"/>
    <path id="Path_176" data-name="Path 176" d="M93.427,216.741c-.3-.78-1.513-.529-1.981-.118-.322.283.088.736.436.564a1.037,1.037,0,0,1,.672-.093,2.527,2.527,0,0,0,.54.152A.358.358,0,0,0,93.427,216.741Z" fill="#ebb48a"/>
    <path id="Path_177" data-name="Path 177" d="M84.494,192.9c-.717.261-.941,1.349-1.064,2.014a.332.332,0,0,0,.64.176,10.035,10.035,0,0,1,.477-1.065,1.647,1.647,0,0,0,.283-.869A.269.269,0,0,0,84.494,192.9Z" fill="#ebb48a"/>
    <path id="Path_178" data-name="Path 178" d="M66.855,193.128c-.658-.757-1.678.554-1.9,1.1-.164.409.477.646.693.292a1.708,1.708,0,0,1,.759-.657c.245-.119.419-.209.515-.472A.273.273,0,0,0,66.855,193.128Z" fill="#ebb48a"/>
    <path id="Path_179" data-name="Path 179" d="M66.157,214.529a2.38,2.38,0,0,0-1.2,1.617c-.119.4.5.685.692.292a10.326,10.326,0,0,1,1-1.417C66.879,214.7,66.447,214.4,66.157,214.529Z" fill="#ebb48a"/>
    <path id="Path_180" data-name="Path 180" d="M46.59,185.925a.36.36,0,0,0-.191.693,6.875,6.875,0,0,1,1.177.505,1.552,1.552,0,0,0,.947.3.215.215,0,0,0,.2-.267C48.521,186.378,47.27,186.1,46.59,185.925Z" fill="#ebb48a"/>
  </g>
</svg>
