<svg xmlns="http://www.w3.org/2000/svg" width="66.596" height="66.752" viewBox="0 0 66.596 66.752">
  <g id="Group_264" data-name="Group 264" transform="translate(-772.388 -618.507)">
    <path id="Path_379" data-name="Path 379" d="M1020.686,25.663a33.3,33.3,0,1,0,33.3,33.3A33.3,33.3,0,0,0,1020.686,25.663Zm0,43.934a10.636,10.636,0,1,1,10.637-10.636A10.636,10.636,0,0,1,1020.686,69.6Z" transform="translate(-215 593)" fill="#e4d297" opacity="0.37"/>
    <path id="Path_380" data-name="Path 380" d="M1020.686,25.507a33.3,33.3,0,1,0,33.3,33.3A33.3,33.3,0,0,0,1020.686,25.507Zm0,43.935a10.637,10.637,0,1,1,10.637-10.637A10.636,10.636,0,0,1,1020.686,69.442Z" transform="translate(-215 593)" fill="#f28a96"/>
    <path id="Path_381" data-name="Path 381" d="M1040.5,31.825a33.349,33.349,0,0,1-41.934,51.789A33.349,33.349,0,1,0,1040.5,31.825Z" transform="translate(-215 593)" fill="#c7c7c7" opacity="0.38" style="mix-blend-mode: multiply;isolation: isolate"/>
    <path id="Path_382" data-name="Path 382" d="M1020.686,25.663a33.3,33.3,0,1,0,33.3,33.3A33.3,33.3,0,0,0,1020.686,25.663Zm0,43.934a10.636,10.636,0,1,1,10.637-10.636A10.636,10.636,0,0,1,1020.686,69.6Z" transform="translate(-215 593)" fill="#e4d297" opacity="0.37"/>
    <path id="Path_383" data-name="Path 383" d="M1020.686,25.507a33.3,33.3,0,1,0,33.3,33.3A33.3,33.3,0,0,0,1020.686,25.507Zm0,43.935a10.637,10.637,0,1,1,10.637-10.637A10.636,10.636,0,0,1,1020.686,69.442Z" transform="translate(-215 593)" fill="#f28a96"/>
    <path id="Path_384" data-name="Path 384" d="M1010.05,33.287c-4.986,1.516-3.214,12.43-11.486,12.054s-10.259,13.54-1.889,17.477-2.334,22.1,10,16.527c12.95-5.849,8.492,1,15.431,3.388,5.72,1.967,11.74.07,10.328-5.628-1.109-4.48,3.286-5.362,6.347-4.356,4.611,1.517,6.637-2.848,8.339-6.43,3.5-7.358-4.987-11.344-7.241-12.085s7.423-15.391-4.18-17.272-8.6,3.475-14.052,2.385S1019.178,30.511,1010.05,33.287Z" transform="translate(-215 593)" fill="none"/>
    <path id="Path_385" data-name="Path 385" d="M1038.042,66.724h0a.936.936,0,0,1-1.237-.463L1035,62.3a.936.936,0,0,1,.463-1.237h0a.936.936,0,0,1,1.236.463l1.805,3.965A.936.936,0,0,1,1038.042,66.724Z" transform="translate(-215 593)" fill="#f3dc35"/>
    <path id="Path_386" data-name="Path 386" d="M1021.9,82.086h0a.935.935,0,0,1,.795-1.053l4.315-.6a.936.936,0,0,1,1.053.8h0a.936.936,0,0,1-.795,1.053l-4.315.6A.936.936,0,0,1,1021.9,82.086Z" transform="translate(-215 593)" fill="#f3dc35"/>
    <path id="Path_387" data-name="Path 387" d="M1008.683,36.688h0a.937.937,0,0,1,.064-1.319l3.227-2.927a.937.937,0,0,1,1.319.064h0a.936.936,0,0,1-.065,1.319L1010,36.752A.937.937,0,0,1,1008.683,36.688Z" transform="translate(-215 593)" fill="#579724"/>
    <path id="Path_388" data-name="Path 388" d="M1017.831,39.944h0a.938.938,0,0,1-.528-1.211l1.593-4.055a.936.936,0,0,1,1.21-.527h0a.936.936,0,0,1,.528,1.21l-1.593,4.055A.937.937,0,0,1,1017.831,39.944Z" transform="translate(-215 593)" fill="#be5f3c"/>
    <path id="Path_389" data-name="Path 389" d="M1000.716,45.194h0a.936.936,0,0,1,.1-1.316l3.3-2.839a.937.937,0,0,1,1.317.1h0a.937.937,0,0,1-.1,1.316l-3.3,2.838A.937.937,0,0,1,1000.716,45.194Z" transform="translate(-215 593)" fill="#0c146b"/>
    <path id="Path_390" data-name="Path 390" d="M1040.01,72.7h0a.937.937,0,0,1,.1-1.316l3.305-2.838a.938.938,0,0,1,1.317.1h0a.938.938,0,0,1-.1,1.317l-3.3,2.838A.937.937,0,0,1,1040.01,72.7Z" transform="translate(-215 593)" fill="#0c146b"/>
    <path id="Path_391" data-name="Path 391" d="M998.114,56.74h0a.937.937,0,0,1,1.306.194l2.594,3.5a.937.937,0,0,1-.2,1.306h0a.937.937,0,0,1-1.306-.195l-2.593-3.5A.937.937,0,0,1,998.114,56.74Z" transform="translate(-215 593)" fill="#f3dc35"/>
    <path id="Path_392" data-name="Path 392" d="M1015.377,46.566h0a.936.936,0,0,1-1.1.726l-4.267-.877a.938.938,0,0,1-.726-1.1h0a.937.937,0,0,1,1.1-.726l4.267.877A.937.937,0,0,1,1015.377,46.566Z" transform="translate(-215 593)" fill="#f3dc35"/>
    <path id="Path_393" data-name="Path 393" d="M1009.527,80.812h0a.936.936,0,0,1-1.32-.011l-3.055-3.106a.936.936,0,0,1,.011-1.32h0a.936.936,0,0,1,1.32.011l3.055,3.106A.936.936,0,0,1,1009.527,80.812Z" transform="translate(-215 593)" fill="#f3dc35"/>
    <path id="Path_394" data-name="Path 394" d="M1043.744,58.294h0a.937.937,0,0,1,.728-1.1l4.269-.869a.935.935,0,0,1,1.1.728h0a.936.936,0,0,1-.728,1.1l-4.269.87A.937.937,0,0,1,1043.744,58.294Z" transform="translate(-215 593)" fill="#fd657a"/>
    <path id="Path_395" data-name="Path 395" d="M994.555,52.864h0a.937.937,0,0,1,.729-1.1l4.268-.869a.936.936,0,0,1,1.1.728h0a.937.937,0,0,1-.729,1.1l-4.269.87A.937.937,0,0,1,994.555,52.864Z" transform="translate(-215 593)" fill="#be5f3c"/>
    <path id="Path_396" data-name="Path 396" d="M1006.321,57.494h0a.935.935,0,0,1-.743-1.091l.811-4.28a.937.937,0,0,1,1.091-.743h0a.936.936,0,0,1,.744,1.091l-.812,4.28A.935.935,0,0,1,1006.321,57.494Z" transform="translate(-215 593)" fill="#fd657a"/>
    <path id="Path_397" data-name="Path 397" d="M1035.25,38.289h0a.936.936,0,0,1,1.054-.8l4.314.608a.935.935,0,0,1,.794,1.054h0a.935.935,0,0,1-1.054.794l-4.314-.607A.936.936,0,0,1,1035.25,38.289Z" transform="translate(-215 593)" fill="#fd657a"/>
    <path id="Path_398" data-name="Path 398" d="M1026.018,73.054h0a.936.936,0,0,1,1.054-.795l4.314.608a.935.935,0,0,1,.794,1.054h0a.936.936,0,0,1-1.054.8l-4.314-.608A.936.936,0,0,1,1026.018,73.054Z" transform="translate(-215 593)" fill="#fd657a"/>
    <path id="Path_399" data-name="Path 399" d="M1029.031,40.629h0a.937.937,0,0,1,1.009.851l.367,4.341a.936.936,0,0,1-.851,1.009h0a.936.936,0,0,1-1.009-.851l-.368-4.341A.936.936,0,0,1,1029.031,40.629Z" transform="translate(-215 593)" fill="#fd657a"/>
    <path id="Path_400" data-name="Path 400" d="M1042.561,49.02h0a.936.936,0,0,1-.516-1.215l1.63-4.04a.935.935,0,0,1,1.214-.516h0a.935.935,0,0,1,.517,1.214l-1.63,4.041A.936.936,0,0,1,1042.561,49.02Z" transform="translate(-215 593)" fill="#be5f3c"/>
    <path id="Path_401" data-name="Path 401" d="M1005.293,70.39h0a.937.937,0,0,1-.517-1.215l1.63-4.04a.936.936,0,0,1,1.215-.516h0a.936.936,0,0,1,.517,1.214l-1.63,4.041A.936.936,0,0,1,1005.293,70.39Z" transform="translate(-215 593)" fill="#be5f3c"/>
    <path id="Path_402" data-name="Path 402" d="M1028.219,31.158h0a.936.936,0,0,1,1.235.465l1.8,3.97a.936.936,0,0,1-.465,1.235h0a.937.937,0,0,1-1.236-.466l-1.795-3.969A.935.935,0,0,1,1028.219,31.158Z" transform="translate(-215 593)" fill="#f3dc35"/>
    <path id="Path_403" data-name="Path 403" d="M992.836,64.987h0a.935.935,0,0,1,1.054-.794l4.314.607A.936.936,0,0,1,999,65.854h0a.936.936,0,0,1-1.054.8l-4.314-.607A.936.936,0,0,1,992.836,64.987Z" transform="translate(-215 593)" fill="#0c146b"/>
    <path id="Path_404" data-name="Path 404" d="M1037.267,56.027h0a.937.937,0,0,1-1.3-.205L1033.4,52.3a.937.937,0,0,1,.2-1.3h0a.937.937,0,0,1,1.3.2l2.567,3.519A.938.938,0,0,1,1037.267,56.027Z" transform="translate(-215 593)" fill="#be5f3c"/>
    <path id="Path_405" data-name="Path 405" d="M1018.205,77.756h0a.936.936,0,0,1-1.3-.2l-2.567-3.52a.937.937,0,0,1,.2-1.305h0a.938.938,0,0,1,1.3.205l2.566,3.52A.935.935,0,0,1,1018.205,77.756Z" transform="translate(-215 593)" fill="#be5f3c"/>
  </g>
</svg>
