<?xml version="1.0" encoding="iso-8859-1"?>
<!-- Generator: Adobe Illustrator 22.1.0, SVG Export Plug-In . SVG Version: 6.00 Build 0)  -->
<svg xmlns="http://www.w3.org/2000/svg" xmlns:xlink="http://www.w3.org/1999/xlink" version="1.1" id="Layer_1_1_" x="0px" y="0px" viewBox="0 0 64 64" style="enable-background:new 0 0 64 64;" xml:space="preserve" width="512" height="512">
<g>
	<polygon points="14.707,23.707 15.5,22.914 16.293,23.707 17.707,22.293 16.914,21.5 17.707,20.707 16.293,19.293 15.5,20.086    14.707,19.293 13.293,20.707 14.086,21.5 13.293,22.293  "/>
	<rect x="35" y="19" width="2" height="4"/>
	<rect x="25" y="17" width="2" height="4"/>
	<rect x="41" y="23" width="2" height="4"/>
	<rect x="36" y="28" width="2" height="4"/>
	<path d="M63,36c0-2.319-1.391-4.552-4-6.489V16.829C59,14.717,57.282,13,55.172,13c-1.023,0-1.984,0.398-2.707,1.122l-6.586,6.585   c-0.298-0.183-0.593-0.371-0.879-0.575v-6.551c0-0.491-0.079-0.978-0.235-1.448C44.141,10.259,42.395,9,40.419,9   c-2.392,0-4.785,0.565-6.924,1.634l-4.929,2.465C27.819,13.038,27.069,13,26.315,13c-4.286,0-8.578,1.013-12.411,2.93l-6.708,3.354   C5.842,19.961,5,21.323,5,22.837c0,1.002,0.374,1.959,1.054,2.695l1.969,2.133C3.485,29.963,1,32.891,1,36   c0,2.944,2.223,5.629,6.015,7.786C7.336,50.096,18.19,55,32,55s24.664-4.904,24.985-11.214C60.777,41.629,63,38.944,63,36z    M34.39,12.423C36.252,11.492,38.337,11,40.419,11c1.113,0,2.097,0.709,2.448,1.764C42.955,13.029,43,13.304,43,13.581v5.028   c-3.266-2.459-7.024-4.158-10.996-4.992L34.39,12.423z M7,22.837c0-0.752,0.418-1.428,1.091-1.765l6.708-3.354   C18.355,15.94,22.338,15,26.315,15c6.012,0,11.866,2.12,16.484,5.968C45.92,23.568,49.875,25,53.936,25H55v-2h-1.064   c-2.149,0-4.26-0.462-6.204-1.318l6.147-6.147C54.22,15.195,54.69,15,55.172,15C56.18,15,57,15.82,57,16.829v16.343   C57,34.18,56.18,35,55.172,35c-0.481,0-0.953-0.195-1.293-0.535L47.414,28l1.293-1.293l-1.414-1.414l-4.469,4.469   C38.802,33.784,33.453,36,27.764,36c-1.955,0-3.884-0.277-5.739-0.798c0.577-0.786,1.032-1.643,1.36-2.55   C24.592,33.514,26.055,34,27.548,34c1.104,0,2.21-0.261,3.198-0.755C32.753,32.242,34,30.224,34,27.98v-1.149   c0-0.633-0.078-1.266-0.231-1.879l-0.458-1.833C32.999,21.871,31.885,21,30.599,21c-0.601,0-1.196,0.198-1.678,0.559l-0.32,0.241   c-1.731,1.297-3.839,2.053-5.995,2.175l-0.712-1.422l-1.789,0.895l1.026,2.051C21.7,26.636,22,27.909,22,29.178   c0,1.986-0.705,3.861-1.986,5.351c-2.979-1.165-5.695-2.992-7.901-5.382l-4.59-4.972C7.186,23.811,7,23.335,7,22.837z    M40.043,34.579c-0.021-0.012-0.043-0.023-0.064-0.035c0.024-0.015,0.048-0.03,0.072-0.045   C40.047,34.526,40.045,34.553,40.043,34.579z M11,34.454c0-0.099,0.029-0.195,0.084-0.277l1.311-1.967   C16.621,35.914,22.099,38,27.764,38c2.175,0,4.302-0.302,6.34-0.875C34.04,37.407,34,37.699,34,38c0,0.359,0.063,0.7,0.151,1.031   l-1.328,0.885C32.741,39.971,32.645,40,32.546,40h-1.375c-1.148,0-2.146,0.778-2.425,1.894l-0.432,1.728   C28.259,43.845,28.059,44,27.829,44h-1.658c-0.229,0-0.43-0.155-0.485-0.378l-0.432-1.729C24.976,40.778,23.978,40,22.829,40   h-0.208c-0.658,0-1.302,0.267-1.768,0.732l-1.121,1.121C19.64,41.946,19.511,42,19.379,42H18.5c-0.275,0-0.5-0.225-0.5-0.5   c0-1.379-1.121-2.5-2.5-2.5h-1c-0.275,0-0.5-0.225-0.5-0.5c0-1.379-1.121-2.5-2.5-2.5c-0.275,0-0.5-0.225-0.5-0.5V34.454z    M23.962,29.96c2.462-0.186,4.86-1.077,6.838-2.561l-1.199-1.6c-1.645,1.233-3.632,1.983-5.677,2.159   c-0.085-0.698-0.249-1.385-0.473-2.052c2.289-0.261,4.502-1.122,6.35-2.507l0.32-0.241c0.43-0.32,1.119-0.077,1.249,0.444   l0.459,1.834C31.942,25.892,32,26.36,32,26.831v1.149c0,1.481-0.823,2.813-2.148,3.476c-1.924,0.963-4.423,0.557-5.945-0.964   C23.929,30.316,23.948,30.139,23.962,29.96z M36,38c0-1.103,0.897-2,2-2s2,0.897,2,2s-0.897,2-2,2S36,39.103,36,38z M44,33   c1.103,0,2,0.897,2,2s-0.897,2-2,2s-2-0.897-2-2S42.897,33,44,33z M50,36c1.103,0,2,0.897,2,2s-0.897,2-2,2s-2-0.897-2-2   S48.897,36,50,36z M50,34c-0.749,0-1.443,0.22-2.043,0.579c-0.2-1.881-1.694-3.362-3.581-3.541L46,29.414l4.652,4.652   C50.438,34.031,50.223,34,50,34z M32,53c-11.302,0-21.014-3.575-22.731-8.08C14.89,47.443,22.929,49,32,49s17.11-1.557,22.731-4.08   C53.014,49.425,43.302,53,32,53z M32,47C14.653,47,3,41.312,3,36c0-2.422,2.282-4.823,6.437-6.803l1.206,1.306   c0.094,0.101,0.193,0.196,0.288,0.296L9.42,33.067C9.146,33.479,9,33.959,9,34.454V35.5c0,1.379,1.121,2.5,2.5,2.5   c0.275,0,0.5,0.225,0.5,0.5c0,1.379,1.121,2.5,2.5,2.5h1c0.275,0,0.5,0.225,0.5,0.5c0,1.379,1.121,2.5,2.5,2.5h0.879   c0.658,0,1.302-0.267,1.768-0.732l1.121-1.121C22.36,42.054,22.489,42,22.621,42h0.208c0.229,0,0.43,0.155,0.485,0.378l0.432,1.729   C24.024,45.222,25.022,46,26.171,46h1.658c1.148,0,2.146-0.778,2.425-1.894l0.432-1.728C30.741,42.155,30.941,42,31.171,42h1.375   c0.495,0,0.975-0.146,1.387-0.42l1.201-0.8C35.861,41.53,36.875,42,38,42c2.062,0,3.744-1.573,3.957-3.579   C42.557,38.78,43.251,39,44,39s1.443-0.22,2.043-0.579C46.256,40.427,47.938,42,50,42c2.206,0,4-1.794,4-4   c0-0.446-0.09-0.868-0.226-1.269C54.214,36.904,54.685,37,55.172,37C57.282,37,59,35.282,59,33.172v-1.06   c1.091,1.048,2,2.368,2,3.888C61,41.312,49.347,47,32,47z"/>
</g>
</svg>
