<svg xmlns="http://www.w3.org/2000/svg" width="139.571" height="91.412" viewBox="0 0 139.571 91.412">
  <g id="Group_44" data-name="Group 44" transform="translate(-16.5 -31.536)">
    <g id="Group_43" data-name="Group 43" transform="translate(-0.111 0.06)">
      <path id="Path_27" data-name="Path 27" d="M41.111,47.33l24.154-7.823V83.246Z" transform="translate(-24 6)" fill="#d51e27"/>
      <path id="Path_28" data-name="Path 28" d="M179.182,109.6l-30.356,6.283-.653-36.558Z" transform="translate(-23 7)" fill="#d51e27"/>
      <path id="Path_29" data-name="Path 29" d="M179.182,84.471c-46-36.67-92.009,32.024-138.013-4.557q.072,8.22.146,16.449c30.052,25.755,60.1,6.68,90.158,1.5,15.9-2.858,31.806-1.843,47.709,11.746Z" transform="translate(-24 6)" fill="#d51e27" stroke="#d51e27" stroke-width="1"/>
      <path id="Path_30" data-name="Path 30" d="M179.182,58.945V33.419C139.627,7.165,100.071,58.8,60.516,54.444a42.836,42.836,0,0,1-19.4-7.114V63.548C87.135,97.164,133.158,25.329,179.182,58.945Z" transform="translate(-24 6)" fill="#d51e27" stroke="#d51e27" stroke-width="1"/>
      <path id="Path_31" data-name="Path 31" d="M179.182,84.471V58.945c-46.024-33.617-92.047,38.219-138.071,4.6v9.859q.029,3.252.058,6.507C87.173,116.5,133.178,47.8,179.182,84.471Z" transform="translate(-24 6)" fill="#d51e27" stroke="#d51e27" stroke-width="1"/>
    </g>
    <text id="Hungry_Joker" data-name="Hungry Joker" transform="translate(31 83)" fill="#fff" font-size="17" font-family="Poppins-Regular, Poppins"><tspan x="0" y="0">Hungry Joker</tspan></text>
  </g>
</svg>
