<svg height="511pt" viewBox="1 -24 511.99849 511" width="511pt" xmlns="http://www.w3.org/2000/svg"><path d="m156.585938 153.273438c1.664062 1.664062 3.847656 2.5 6.035156 2.5 2.183594 0 4.367187-.835938 6.03125-2.5 3.335937-3.335938 3.335937-8.730469 0-12.066407-8.660156-8.667969-8.660156-22.765625 0-31.433593 7.425781-7.425782 11.519531-17.289063 11.519531-27.785157 0-10.496093-4.085937-20.363281-11.519531-27.785156-3.335938-3.339844-8.730469-3.339844-12.066406 0-3.335938 3.335937-3.335938 8.730469 0 12.0625 4.199218 4.199219 6.523437 9.78125 6.523437 15.71875 0 5.941406-2.316406 11.519531-6.523437 15.71875-15.316407 15.316406-15.316407 40.253906 0 55.570313zm0 0"/><path d="m344.320312 153.273438c1.664063 1.664062 3.847657 2.5 6.03125 2.5 2.1875 0 4.371094-.835938 6.035157-2.5 3.335937-3.335938 3.335937-8.730469 0-12.066407-8.660157-8.667969-8.660157-22.765625 0-31.433593 7.421875-7.425782 11.519531-17.289063 11.519531-27.785157 0-10.496093-4.085938-20.363281-11.519531-27.785156-3.335938-3.339844-8.730469-3.339844-12.066407 0-3.335937 3.335937-3.335937 8.730469 0 12.0625 4.199219 4.199219 6.519532 9.78125 6.519532 15.71875 0 5.941406-2.3125 11.519531-6.519532 15.71875-15.316406 15.316406-15.316406 40.253906 0 55.570313zm0 0"/><path d="m250.453125 102.074219c1.664063 1.664062 3.851563 2.5 6.035156 2.5 2.183594 0 4.367188-.835938 6.03125-2.5 3.339844-3.335938 3.339844-8.730469 0-12.066407-8.660156-8.667968-8.660156-22.765624 0-31.4375 7.425781-7.421874 11.519531-17.289062 11.519531-27.785156 0-10.492187-4.085937-20.359375-11.519531-27.78125-3.335937-3.339844-8.730469-3.339844-12.0625 0-3.339843 3.335938-3.339843 8.726563 0 12.0625 4.195313 4.199219 6.519531 9.78125 6.519531 15.71875s-2.3125 11.519532-6.519531 15.71875c-15.320312 15.316406-15.320312 40.253906-.003906 55.570313zm0 0"/><path d="m216.277344 219.875c.621094 0 1.253906-.066406 1.886718-.203125 12.269532-2.765625 24.957032-4.167969 37.726563-4.167969h.109375c4.710938 0 8.53125-3.8125 8.53125-8.523437 0-4.71875-3.8125-8.539063-8.53125-8.539063-.035156 0-.078125 0-.121094 0-14.019531 0-27.972656 1.542969-41.46875 4.582032-4.601562 1.03125-7.484375 5.597656-6.453125 10.195312.90625 3.96875 4.417969 6.65625 8.320313 6.65625zm0 0"/><path d="m83.804688 360.429688c.523437.101562 1.035156.144531 1.535156.144531 4.046875 0 7.640625-2.886719 8.390625-7 8.867187-48.621094 38.167969-91.886719 78.386719-115.710938 4.050781-2.394531 5.394531-7.636719 2.996093-11.691406-2.40625-4.050781-7.636719-5.390625-11.691406-2.992187-44.410156 26.304687-76.730469 73.90625-86.476563 127.324218-.851562 4.644532 2.21875 9.078125 6.859376 9.925782zm0 0"/><path d="m474.65625 348.824219c-15.460938-90.804688-86.246094-162.953125-176.359375-180.429688.148437-1.363281.367187-2.738281.367187-4.09375 0-23.527343-19.136718-42.667969-42.664062-42.667969s-42.667969 19.140626-42.667969 42.667969c0 1.355469.214844 2.730469.367188 4.09375-90.113281 17.476563-160.894531 89.625-176.359375 180.429688-17.832032 10.09375-37.339844 24.949219-37.339844 41.617187 0 43.390625 132.367188 72.53125 256 72.53125 123.628906 0 256-29.140625 256-72.53125 0-16.667968-19.507812-31.523437-37.34375-41.617187zm-244.203125-183.050781c-.035156-.496094-.054687-.988282-.054687-1.46875 0-14.113282 11.488281-25.601563 25.601562-25.601563s25.601562 11.488281 25.601562 25.601563c0 .488281-.015624.972656-.050781 1.46875-.402343-.042969-.804687-.058594-1.195312-.101563-2.933594-.324219-5.890625-.554687-8.859375-.761719-1.089844-.074218-2.175782-.1875-3.265625-.246094-4.046875-.222656-8.117188-.351562-12.21875-.351562-4.105469 0-8.175781.128906-12.222657.351562-1.089843.058594-2.175781.171876-3.265624.246094-2.96875.207032-5.921876.445313-8.859376.761719-.410156.042969-.8125.050781-1.210937.101563zm-5.183594 17.90625c4.582031-.683594 9.191407-1.179688 13.816407-1.554688.949218-.078125 1.894531-.144531 2.839843-.210938 9.371094-.632812 18.785157-.632812 28.152344 0 .949219.066407 1.894531.132813 2.84375.210938 4.625.375 9.234375.871094 13.8125 1.554688 88.902344 13.4375 159.207031 84.238281 171.964844 173.363281.390625 2.738281.707031 5.484375.988281 8.234375.09375.945312.222656 1.882812.308594 2.832031.332031 3.777344.578125 7.558594.699218 11.339844-134.058593 31.070312-275.320312 31.070312-409.378906 0 .128906-3.78125.367188-7.5625.699219-11.339844.085937-.949219.207031-1.886719.304687-2.832031.28125-2.757813.597657-5.507813.992188-8.234375 12.753906-89.125 83.058594-159.933594 171.957031-173.363281zm30.730469 262.226562c-145.886719 0-238.933594-36.429688-238.933594-55.464844 0-3.269531 4.042969-10.46875 17.613282-19.863281-.035157.484375-.019532.960937-.054688 1.449219-.289062 4.675781-.492188 9.386718-.492188 14.148437v6.722657l6.542969 1.578124c70.4375 16.898438 142.882813 25.363282 215.320313 25.363282 72.441406 0 144.890625-8.457032 215.324218-25.363282l6.542969-1.578124v-6.722657c0-4.761719-.203125-9.464843-.496093-14.148437-.03125-.488282-.015626-.964844-.050782-1.449219 13.570313 9.394531 17.613282 16.59375 17.613282 19.863281.003906 19.035156-93.042969 55.464844-238.929688 55.464844zm0 0"/></svg>