<svg xmlns="http://www.w3.org/2000/svg" width="120.822" height="113.718" viewBox="0 0 120.822 113.718">
  <g id="Group_243" data-name="Group 243" transform="translate(-21.487 -296.128)">
    <path id="Path_318" data-name="Path 318" d="M43.167,359.5A50.319,50.319,0,0,1,128.141,323,50.321,50.321,0,1,0,53.859,390.5,50.1,50.1,0,0,1,43.167,359.5Z" transform="translate(-7 5)" fill="#eaebe3" style="mix-blend-mode: multiply;isolation: isolate"/>
    <path id="Path_319" data-name="Path 319" d="M109.644,318.407c-.08-.067-.162-.133-.244-.2a19.112,19.112,0,0,0-16.368-3.514c-5.674,1.458-8.248,6.023-9.244,11.5-.788,4.332-1.65,9.337-5.469,11.527-3.163,1.814-7.017.955-10.369,2.12-3.274,1.138-6.329,4-6.607,7.613-.477,6.186,7.468,10.988,5.047,17.292-1.588,4.135-7.151,4.968-10.142,8.235-3.521,3.845-2.526,10.211.552,14.419a19.281,19.281,0,0,0,19.432,7.225c3.1-.716,6.05-2.222,9.229-2.288,4.573-.1,8.605,2.763,12.9,4.339a19.638,19.638,0,0,0,12.685.5,14.572,14.572,0,0,0,9.2-8.456c1.227-3.292,1.1-7.1,3-10.05,2.271-3.524,6.7-4.8,10.332-6.9a22.467,22.467,0,0,0,11.045-18.82,21.656,21.656,0,0,0-10.912-18.8c-4.674-2.573-10.269-3.319-14.623-6.4C115.471,325.176,113.055,321.235,109.644,318.407Z" transform="translate(-7 5)" fill="#7a2900"/>
    <path id="Path_320" data-name="Path 320" d="M87.461,323.228a.494.494,0,0,0,0,.988A.494.494,0,0,0,87.461,323.228Z" transform="translate(-7 5)" fill="#a36b4f"/>
    <path id="Path_321" data-name="Path 321" d="M66.121,342.191c-1.931.883-4.615,4.248-2.639,6.25a.328.328,0,0,0,.512-.066c.4-.85.362-1.734.674-2.609a4.921,4.921,0,0,1,2.044-2.563A.586.586,0,0,0,66.121,342.191Z" transform="translate(-7 5)" fill="#a36b4f"/>
    <path id="Path_322" data-name="Path 322" d="M60.329,371.9a6.09,6.09,0,0,0-3.657,2.629c-.648,1.016-1.528,2.868-.628,3.942a.352.352,0,0,0,.5,0c.675-.868.555-2.189,1.093-3.183A6.554,6.554,0,0,1,60.58,372.5C60.921,372.34,60.678,371.8,60.329,371.9Z" transform="translate(-7 5)" fill="#a36b4f"/>
    <path id="Path_323" data-name="Path 323" d="M56.259,379.589a.511.511,0,0,0,0,1.021A.511.511,0,0,0,56.259,379.589Z" transform="translate(-7 5)" fill="#a36b4f"/>
    <path id="Path_324" data-name="Path 324" d="M64.492,350.607c-.179-.8-1.425-.46-1.227.338a4.146,4.146,0,0,0,.324,1.019.525.525,0,0,0,.281.251c-.032.028-.033.084.022.084s.05-.042.032-.073a.609.609,0,0,0,.745-.554A4.3,4.3,0,0,0,64.492,350.607Z" transform="translate(-7 5)" fill="#a36b4f"/>
    <path id="Path_325" data-name="Path 325" d="M115.789,391.62c-1.464.9-2.449,2.313-4.054,3.1a10.165,10.165,0,0,1-6.492.8c-.514-.1-.737.675-.218.791a11,11,0,0,0,6.81-.574c1.651-.7,3.829-1.984,4.323-3.834A.254.254,0,0,0,115.789,391.62Z" transform="translate(-7 5)" fill="#a36b4f"/>
    <path id="Path_326" data-name="Path 326" d="M117.488,389.237c-.235.256-.448.533-.695.777-.562.557.4,1.359.88.68a1.779,1.779,0,0,0,.387-1.22A.339.339,0,0,0,117.488,389.237Z" transform="translate(-7 5)" fill="#a36b4f"/>
    <path id="Path_327" data-name="Path 327" d="M139.7,363a3.768,3.768,0,0,0-.845,1.072,9.3,9.3,0,0,1-1.417,1.608,18.034,18.034,0,0,1-3.176,2.457.645.645,0,0,0,.65,1.113,11.774,11.774,0,0,0,3.326-2.769c.675-.853,1.788-2.135,1.865-3.25A.269.269,0,0,0,139.7,363Z" transform="translate(-7 5)" fill="#a36b4f"/>
    <path id="Path_328" data-name="Path 328" d="M141.7,359.243a.636.636,0,0,0,0,1.272A.636.636,0,0,0,141.7,359.243Z" fill="#a36b4f"/>
    <path id="Path_329" data-name="Path 329" d="M96.132,392.744a4.44,4.44,0,0,0-.757-.19.561.561,0,0,0-.3,1.081,4.461,4.461,0,0,0,.743.238.619.619,0,0,0,.661-.269.417.417,0,0,0,.08-.3A.616.616,0,0,0,96.132,392.744Z" transform="translate(-7 5)" fill="#a36b4f"/>
    <path id="Path_330" data-name="Path 330" d="M39.144,369.957c1.1,2.371,3.5,3.324,5.953,3.566a7.906,7.906,0,0,0,4.217-.537,6.08,6.08,0,0,0,3.163-4.428c.021-.12.039-.24.055-.362.5-3.893-1.971-8.421-6.179-8.716C41.478,359.138,37.093,365.519,39.144,369.957Z" transform="translate(-7 5)" fill="#d6d6c6" style="mix-blend-mode: multiply;isolation: isolate"/>
    <path id="Path_331" data-name="Path 331" d="M51.844,367.009c-.015.121-.034.242-.055.362a6.079,6.079,0,0,1-3.163,4.428,7.893,7.893,0,0,1-4.216.536c-2.453-.241-4.858-1.195-5.954-3.566-2.051-4.438,2.334-10.818,7.209-10.476C49.874,358.588,52.341,363.115,51.844,367.009Z" transform="translate(-7 5)" fill="#cf3e32"/>
    <path id="Path_332" data-name="Path 332" d="M38.456,368.769c1.1,2.371,3.5,3.325,5.954,3.566a7.893,7.893,0,0,0,4.216-.536,6.079,6.079,0,0,0,3.163-4.428c.022-.12.04-.241.055-.362.5-3.894-1.97-8.421-6.179-8.716C40.79,357.951,36.4,364.331,38.456,368.769Zm2.43-6.691a4.538,4.538,0,0,1,2.4-2c2.043-.746,5.3-.277,6.4,1.8a5.112,5.112,0,0,1,.565,3.35c-.621,2.936-4.08,4.267-6.729,3.4A4.489,4.489,0,0,1,40.886,362.078Z" transform="translate(-7 5)" fill="#e8dcca" style="mix-blend-mode: multiply;isolation: isolate"/>
    <path id="Path_333" data-name="Path 333" d="M46.141,361.2c.894-.645,2.048.031,2.6.787a2.112,2.112,0,0,1,.086,2.765,1.5,1.5,0,0,1-1.77.292,1.868,1.868,0,0,1-.869-1.1c-.032-.111-.054-.219-.091-.327a.692.692,0,0,1-.11-.149c-.031-.05-.3-.609-.157-.309a2.44,2.44,0,0,1-.238-.608A1.321,1.321,0,0,1,46.141,361.2Z" transform="translate(-7 5)" fill="#df8077"/>
    <path id="Path_334" data-name="Path 334" d="M60.608,349.308a11.026,11.026,0,0,0-3.528-5.17,1.268,1.268,0,0,1-.5-1.655c.774-2.756,1.009-6.586-.987-8.94l0,0c-.014-.016-.03-.03-.044-.045-.05-.058-.1-.12-.149-.176-.074-.078-.154-.142-.232-.213-.028-.027-.058-.053-.087-.079-.059-.052-.117-.106-.179-.153-.089-.077-.175-.158-.27-.231-2.243-1.7-4.241-.968-6.685-1.411-1.617-.293-2.352-1.463-3.864-1.948a8.233,8.233,0,0,0-5.459.66c1.1,1.027,2.891.785,4.543.21a5.815,5.815,0,0,0,1.4,4.153,1.061,1.061,0,0,0-.033.372c.056.535.515.939.682,1.451.374,1.144-.753,2.158-1.585,3.027a8.183,8.183,0,0,0,.74,12,6.538,6.538,0,0,1,2.1,2.06,2.725,2.725,0,0,1,.17.549,5.153,5.153,0,0,0-.97,0,6.686,6.686,0,0,0-1.794.516,11.136,11.136,0,0,0-4.587,3.241,15.9,15.9,0,0,1-2.057,2.609c-.5.419-1.1.708-1.627,1.1a7.829,7.829,0,0,0-2.1,2.545c-.66,1.174-.474,1.59.493,2.517a7.607,7.607,0,0,0,5.572,2.111,9.434,9.434,0,0,0,2.344-.453c2.6-.823,5.065-2.717,5.657-5.377a1.049,1.049,0,0,1,.262-.6.974.974,0,0,1,.49-.176,21.805,21.805,0,0,0,8.051-2.671,8.539,8.539,0,0,0,3.907-5.146A7.932,7.932,0,0,0,60.608,349.308Z" transform="translate(-7 5)" fill="#d6d6c6" style="mix-blend-mode: multiply;isolation: isolate"/>
    <path id="Path_335" data-name="Path 335" d="M65.256,301.379c.092.08.183.161.271.245a6.079,6.079,0,0,1,1.957,5.078,7.9,7.9,0,0,1-1.873,3.816c-1.551,1.915-3.671,3.4-6.253,3.008-4.835-.73-7.749-7.9-4.78-11.785C57.14,298.39,62.278,298.822,65.256,301.379Z" transform="translate(-7 5)" fill="#cf3e32"/>
    <path id="Path_336" data-name="Path 336" d="M59.358,313.526c2.582.39,4.7-1.093,6.253-3.008a7.9,7.9,0,0,0,1.873-3.816,6.079,6.079,0,0,0-1.957-5.078c-.088-.084-.179-.165-.271-.245-2.978-2.557-8.116-2.989-10.678.362C51.609,305.623,54.523,312.8,59.358,313.526Zm-4.25-5.712a4.535,4.535,0,0,1-.353-3.1c.5-2.116,2.684-4.574,5.027-4.358a5.1,5.1,0,0,1,3.107,1.372c2.11,2.134,1.318,5.755-.863,7.489A4.488,4.488,0,0,1,55.108,307.814Z" transform="translate(-7 5)" fill="#e8dcca" style="mix-blend-mode: multiply;isolation: isolate"/>
    <path id="Path_337" data-name="Path 337" d="M57.263,302.942c-.046-1.1,1.153-1.693,2.086-1.735a2.116,2.116,0,0,1,2.357,1.45,1.5,1.5,0,0,1-.731,1.639,1.861,1.861,0,0,1-1.4.12c-.11-.034-.213-.075-.323-.1a.742.742,0,0,1-.185.01c-.059,0-.672-.088-.345-.04a2.436,2.436,0,0,1-.638-.135A1.323,1.323,0,0,1,57.263,302.942Z" transform="translate(-7 5)" fill="#df8077"/>
    <path id="Path_338" data-name="Path 338" d="M56.384,334.756a12.042,12.042,0,0,1,2.289,1.661c2.439,1.674,6.014.466,7.823-1.874a8.189,8.189,0,0,1,1-1.211c1.635-1.431,4.352-.55,6.192-1.706a5.153,5.153,0,0,0,1.962-4.15,12.884,12.884,0,0,0-3.892-10.011,5.856,5.856,0,0,0-2.325-1.484c-2.116-.624-4.276.647-6.449,1.025a8.055,8.055,0,0,0-2.414.549,4.524,4.524,0,0,0-1.975,3.133,13.526,13.526,0,0,1-1.038,3.663c-.826,1.466-2.4,2.351-3.415,3.694a8.636,8.636,0,0,0-1.495,5.809C52.963,336.254,54.74,334.129,56.384,334.756Z" transform="translate(-7 5)" fill="#d6d6c6" style="mix-blend-mode: multiply;isolation: isolate"/>
    <path id="Path_339" data-name="Path 339" d="M67.408,318.673a.666.666,0,0,0-.015-.123c-1.038-3.249-2.183-7.411-4.1-10.234-1.221-1.792-3.024-2.026-5.144-2.214-1.889-.169-3.641-.208-5.132,1.036-2.549,2.127-4.512,6.053-6.318,8.815l-.006.015-.01.007c-.359.435.406,1.088.68,1.315a8.051,8.051,0,0,0,1.492.959.282.282,0,0,0,.4.2c.046.021.086.048.132.068.36.156.783-.288.508-.619-.023-.027-.048-.049-.071-.076.829-1.049,1.544-2.2,2.337-3.272.321-.435,2.63-3.852,2.994-3.716.709.266.315,4.575.328,5.391.023,1.475-.126,2.971.018,4.438-.371.057-.681.214-.622.654.217,1.611,4.451.358,5.045-.413a.485.485,0,0,0-.273-.774c.72-2.052,1.114-6.334,1.394-8.452.4.816,1.315,3.684,1.715,4.5.532,1.081.572,2.938,1.349,3.866.883,1.053,2.625.073,3.326-.754A.473.473,0,0,0,67.408,318.673Z" transform="translate(-7 5)" fill="#cae489"/>
    <path id="Path_340" data-name="Path 340" d="M75.491,324.21c-.195-4.994-5.545-9.726-10.434-7.087a5.119,5.119,0,0,0-4.959-1.7,6.855,6.855,0,0,0-3.331,1.97c-1.576-2.3-5.159-2.74-7.795-1.568a5.239,5.239,0,0,0-7.894-2.252,6.95,6.95,0,0,0-2.842,5.646,4.74,4.74,0,0,0,1.96,3.648c-1.9,1.336-3.175,3.643-2.285,5.977.854,2.237,3.169,2.034,5.259,1.306a6.384,6.384,0,0,0,5.448,6.478,7.6,7.6,0,0,0,7.438-3.842c1.571,2.463,3.982,4.431,7.109,3.375a6.233,6.233,0,0,0,3.928-6.131,5.618,5.618,0,0,0,4.823.634C74.647,329.825,75.592,326.806,75.491,324.21Z" transform="translate(-7 5)" fill="#7bb13e"/>
    <path id="Path_341" data-name="Path 341" d="M58.459,329.951a3.771,3.771,0,0,0,3.249.976c.929-.275,1.759-1.138,1.331-2.141a.539.539,0,0,0-.83-.137,3.526,3.526,0,0,1-1.158.785,3.179,3.179,0,0,1-2.034-.369A.524.524,0,0,0,58.459,329.951Z" transform="translate(-7 5)" fill="#a4ca7b"/>
    <path id="Path_342" data-name="Path 342" d="M69.749,325.137a1.688,1.688,0,0,0,.479-.757.451.451,0,0,0-.3-.555,1.51,1.51,0,0,0-.839.087C67.85,324.323,69.048,325.937,69.749,325.137Z" transform="translate(-7 5)" fill="#a4ca7b"/>
    <path id="Path_343" data-name="Path 343" d="M46.386,329.344c1.607,1.4,4.09.36,5.12-1.24a.766.766,0,0,0-1.3-.815,2.394,2.394,0,0,1-1.41,1.032,5.614,5.614,0,0,1-1.9-.12A.687.687,0,0,0,46.386,329.344Z" transform="translate(-7 5)" fill="#a4ca7b"/>
    <path id="Path_344" data-name="Path 344" d="M54.22,323.4a4.105,4.105,0,0,0,2.423,1c.678-.022,1.812-.391,1.726-1.256a.64.64,0,0,0-.439-.606c-.5-.123-.92.2-1.423.2a4.5,4.5,0,0,1-1.761-.495C54.048,321.944,53.666,323,54.22,323.4Z" transform="translate(-7 5)" fill="#a4ca7b"/>
    <path id="Path_345" data-name="Path 345" d="M43.175,324.22c.739.446,1.457-.732.707-1.124-.4-.208-1.28-1.019-1.705-.442C41.713,323.285,42.757,323.968,43.175,324.22Z" transform="translate(-7 5)" fill="#a4ca7b"/>
    <path id="Path_346" data-name="Path 346" d="M42.685,318.694a3.3,3.3,0,0,0,1.79,1.606c.659.222,1.755.238,2.11-.5a.611.611,0,0,0-.066-.7c-.309-.392-.866-.485-1.3-.679a2.544,2.544,0,0,1-1.059-.78C43.516,316.8,42.2,317.8,42.685,318.694Z" transform="translate(-7 5)" fill="#a4ca7b"/>
    <path id="Path_347" data-name="Path 347" d="M62.816,322.952a1.784,1.784,0,0,0,1.249-.662.574.574,0,0,0-.469-.872,7.2,7.2,0,0,0-.927.163A.692.692,0,1,0,62.816,322.952Z" transform="translate(-7 5)" fill="#a4ca7b"/>
    <path id="Path_348" data-name="Path 348" d="M72.015,317.791a6.979,6.979,0,0,1,.928,3.563,6.4,6.4,0,0,1-2.932,5.24,5.756,5.756,0,0,1-5.942.04A4.035,4.035,0,0,1,61,331.68c-2.084.322-4.015-1.06-5.641-2.4a6.934,6.934,0,0,1-11.388-2.419c.127.332-2.132,1.141-2.377,1.2a6.541,6.541,0,0,1-2.75.094,9.322,9.322,0,0,1-1.183-.432,4.317,4.317,0,0,0,.25,1.126c.854,2.237,3.169,2.034,5.259,1.306a6.384,6.384,0,0,0,5.448,6.478,7.6,7.6,0,0,0,7.438-3.842c1.571,2.463,3.982,4.431,7.109,3.375a6.233,6.233,0,0,0,3.928-6.131,5.618,5.618,0,0,0,4.823.634c2.731-.843,3.676-3.862,3.575-6.458A8.673,8.673,0,0,0,72.015,317.791Z" transform="translate(-7 5)" fill="#e0efbb" style="mix-blend-mode: multiply;isolation: isolate"/>
    <path id="Path_349" data-name="Path 349" d="M44.9,360.99a.7.7,0,0,0,.123.009c3.388-.4,7.692-.73,10.829-2.078,1.993-.856,2.566-2.582,3.155-4.627.526-1.823.9-3.534-.038-5.235-1.6-2.909-5.081-5.584-7.448-7.884l-.013-.009-.006-.01c-.359-.436-1.145.19-1.42.416a8.107,8.107,0,0,0-1.227,1.281.282.282,0,0,0-.275.35c-.029.041-.063.076-.092.117-.222.324.133.823.511.617.031-.017.057-.038.088-.056.872,1.014,1.861,1.935,2.766,2.919.366.4,3.28,3.316,3.076,3.648-.4.645-4.55-.563-5.354-.707-1.452-.258-2.892-.69-4.359-.829.014-.375-.081-.708-.524-.734-1.623-.1-1.2,4.3-.557,5.031a.486.486,0,0,0,.812-.121c1.877,1.1,6,2.3,8.03,2.981-.876.233-3.866.587-4.741.825-1.163.316-2.994,0-4.053.587-1.2.666-.572,2.563.106,3.408A.472.472,0,0,0,44.9,360.99Z" transform="translate(-7 5)" fill="#cae489"/>
    <path id="Path_350" data-name="Path 350" d="M37.925,367.868c4.939.761,10.6-3.588,8.946-8.89a5.117,5.117,0,0,0,2.611-4.545,6.838,6.838,0,0,0-1.3-3.645c2.561-1.108,3.674-4.542,3.026-7.354a5.238,5.238,0,0,0,3.716-7.319,6.953,6.953,0,0,0-5-3.867,4.745,4.745,0,0,0-3.955,1.229c-.948-2.122-2.97-3.812-5.431-3.383-2.359.411-2.6,2.723-2.285,4.913a6.383,6.383,0,0,0-7.4,4.112,7.6,7.6,0,0,0,2.352,8.035c-2.717,1.073-5.109,3.063-4.669,6.334a6.235,6.235,0,0,0,5.27,5.026,5.618,5.618,0,0,0-1.543,4.614C32.574,365.969,35.357,367.473,37.925,367.868Z" transform="translate(-7 5)" fill="#7bb13e"/>
    <path id="Path_351" data-name="Path 351" d="M46.051,333.415a7.607,7.607,0,0,1,4.746,2.746,4.126,4.126,0,0,1,.255,4.5,6.111,6.111,0,0,1-4.319,2.851,4.006,4.006,0,0,1,1.177,4.552,7.12,7.12,0,0,1-3.379,3.606,4.809,4.809,0,0,1-.563,7.654,3.455,3.455,0,0,1,.1,3.378,8.532,8.532,0,0,1-6.717,5.045c.192.042.384.09.575.119,4.939.761,10.6-3.588,8.946-8.89a5.117,5.117,0,0,0,2.611-4.545,6.838,6.838,0,0,0-1.3-3.645c2.561-1.108,3.674-4.542,3.026-7.354a5.238,5.238,0,0,0,3.716-7.319,6.953,6.953,0,0,0-5-3.867A4.7,4.7,0,0,0,46.051,333.415Z" transform="translate(-7 5)" fill="#e0efbb" style="mix-blend-mode: multiply;isolation: isolate"/>
    <path id="Path_352" data-name="Path 352" d="M32.858,350.3a3.777,3.777,0,0,0-1.577,3c.092.964.782,1.944,1.848,1.714a.538.538,0,0,0,.293-.788,3.515,3.515,0,0,1-.55-1.286,3.173,3.173,0,0,1,.75-1.927A.524.524,0,0,0,32.858,350.3Z" transform="translate(-7 5)" fill="#a4ca7b"/>
    <path id="Path_353" data-name="Path 353" d="M35.431,362.3a1.688,1.688,0,0,0,.652.615.452.452,0,0,0,.6-.187,1.5,1.5,0,0,0,.075-.841C36.593,360.59,34.78,361.458,35.431,362.3Z" transform="translate(-7 5)" fill="#a4ca7b"/>
    <path id="Path_354" data-name="Path 354" d="M35.757,338.562c-1.685,1.309-1.133,3.946.242,5.262.714.684,1.744-.424,1.047-1.117a2.392,2.392,0,0,1-.744-1.581,5.618,5.618,0,0,1,.479-1.842A.686.686,0,0,0,35.757,338.562Z" transform="translate(-7 5)" fill="#a4ca7b"/>
    <path id="Path_355" data-name="Path 355" d="M40.1,347.386a4.1,4.1,0,0,0-1.442,2.188c-.109.67.037,1.853.9,1.934a.637.637,0,0,0,.678-.316c.218-.47-.017-.94.074-1.435a4.477,4.477,0,0,1,.822-1.634C41.56,347.495,40.6,346.918,40.1,347.386Z" transform="translate(-7 5)" fill="#a4ca7b"/>
    <path id="Path_356" data-name="Path 356" d="M41.4,336.387c-.578.641.44,1.571.969.909.279-.351,1.244-1.063.759-1.589C42.6,335.13,41.727,336.025,41.4,336.387Z" transform="translate(-7 5)" fill="#a4ca7b"/>
    <path id="Path_357" data-name="Path 357" d="M46.918,336.96A3.3,3.3,0,0,0,45,338.411c-.344.6-.568,1.678.089,2.167a.611.611,0,0,0,.7.069c.444-.229.641-.757.915-1.148a2.525,2.525,0,0,1,.968-.89C48.616,338.137,47.887,336.656,46.918,336.96Z" transform="translate(-7 5)" fill="#a4ca7b"/>
    <path id="Path_358" data-name="Path 358" d="M38.9,355.91a1.78,1.78,0,0,0,.412,1.352.574.574,0,0,0,.946-.294,7.376,7.376,0,0,0,.017-.941A.693.693,0,1,0,38.9,355.91Z" transform="translate(-7 5)" fill="#a4ca7b"/>
    <path id="Path_359" data-name="Path 359" d="M100.1,307.408a5.806,5.806,0,0,0-1.255-1.916,10.812,10.812,0,0,0-3.259-2.872,8.982,8.982,0,0,0-5.344-.42,29.144,29.144,0,0,1-5.389.723,24.976,24.976,0,0,0-4.544-.22c-2.314.363-4.092,2.165-6.14,3.3a11.374,11.374,0,0,1-5.225,1.416,4.344,4.344,0,0,0-1.77.242,2.95,2.95,0,0,0-1.213,1.275,9.217,9.217,0,0,0-.958,2.642,18.9,18.9,0,0,0-1.719-3.262,4.436,4.436,0,0,0-2.663-1.833c.088,5.345,4.649,9.555,9.8,9.98a2.981,2.981,0,0,1,1.392.336,2.892,2.892,0,0,1,.738.807q1.591,2.243,3.387,4.329a7.341,7.341,0,0,0,2.1,1.854,7.892,7.892,0,0,0,4.381.413c1.435-.139,3-.335,4.005-1.366a6.724,6.724,0,0,0,1.264-2.33,40.726,40.726,0,0,1,3.748-7.276,3.9,3.9,0,0,0,3.946.951,7.159,7.159,0,0,0,3.419-2.469C99.8,310.5,100.586,308.9,100.1,307.408Z" transform="translate(-7 5)" fill="#d6d6c6" style="mix-blend-mode: multiply;isolation: isolate"/>
    <path id="Path_360" data-name="Path 360" d="M71.634,312.471a.731.731,0,0,0,.039.117c1.664,2.978,3.615,6.829,6.06,9.212,1.553,1.514,3.367,1.384,5.482,1.147,1.885-.211,3.609-.521,4.823-2.037,2.075-2.592,3.217-6.829,4.437-9.9l0-.016.008-.009c.265-.5-.613-.986-.927-1.154a8.16,8.16,0,0,0-1.654-.643.282.282,0,0,0-.428-.12c-.049-.012-.094-.03-.144-.041-.383-.081-.709.438-.374.708.028.022.057.039.085.06-.6,1.194-1.076,2.46-1.639,3.672-.228.49-1.81,4.3-2.195,4.237-.748-.118-1.219-4.42-1.394-5.217-.316-1.441-.468-2.937-.9-4.346.351-.129.623-.345.478-.764-.533-1.536-4.433.535-4.862,1.408a.486.486,0,0,0,.422.7c-.3,2.154.169,6.43.316,8.561-.551-.721-2.021-3.349-2.576-4.066-.737-.954-1.145-2.766-2.091-3.521-1.075-.856-2.587.451-3.109,1.4A.472.472,0,0,0,71.634,312.471Z" transform="translate(-7 5)" fill="#cae489"/>
    <path id="Path_361" data-name="Path 361" d="M62.611,308.654c1.186,4.855,7.37,8.428,11.635,4.868a5.118,5.118,0,0,0,5.2.675,6.841,6.841,0,0,0,2.872-2.593c2,1.942,5.6,1.658,7.952-.016a5.239,5.239,0,0,0,8.184.636,6.95,6.95,0,0,0,1.661-6.1,4.738,4.738,0,0,0-2.647-3.184c1.6-1.687,2.387-4.2,1.05-6.312-1.282-2.023-3.511-1.363-5.414-.233a6.384,6.384,0,0,0-6.628-5.265,7.6,7.6,0,0,0-6.525,5.246c-2.03-2.1-4.784-3.55-7.638-1.893a6.235,6.235,0,0,0-2.629,6.791,5.614,5.614,0,0,0-4.853.338C62.321,302.983,61.995,306.13,62.611,308.654Z" transform="translate(-7 5)" fill="#7bb13e"/>
    <path id="Path_362" data-name="Path 362" d="M97.554,302.991a7.6,7.6,0,0,1-.723,5.435,4.125,4.125,0,0,1-4.063,1.957,6.114,6.114,0,0,1-4.285-2.9,4.008,4.008,0,0,1-3.756,2.828,7.121,7.121,0,0,1-4.624-1.744,4.809,4.809,0,0,1-7.288,2.406,3.456,3.456,0,0,1-3.083,1.383,8.531,8.531,0,0,1-7.23-4.278c.034.194.063.39.109.577,1.186,4.855,7.37,8.428,11.635,4.868a5.118,5.118,0,0,0,5.2.675,6.841,6.841,0,0,0,2.872-2.593c2,1.942,5.6,1.658,7.952-.016a5.239,5.239,0,0,0,8.184.636,6.95,6.95,0,0,0,1.661-6.1A4.7,4.7,0,0,0,97.554,302.991Z" transform="translate(-7 5)" fill="#e0efbb" style="mix-blend-mode: multiply;isolation: isolate"/>
    <path id="Path_363" data-name="Path 363" d="M76.91,297.255a3.774,3.774,0,0,0-3.378-.309,1.665,1.665,0,0,0-.878,2.362.538.538,0,0,0,.841-.031c.318-.35.532-.787.978-1a3.175,3.175,0,0,1,2.067-.044A.524.524,0,0,0,76.91,297.255Z" transform="translate(-7 5)" fill="#a4ca7b"/>
    <path id="Path_364" data-name="Path 364" d="M66.8,304.22a1.7,1.7,0,0,0-.319.837.453.453,0,0,0,.4.485,1.506,1.506,0,0,0,.805-.253C68.828,304.64,67.333,303.3,66.8,304.22Z" transform="translate(-7 5)" fill="#a4ca7b"/>
    <path id="Path_365" data-name="Path 365" d="M88.862,295.447c-1.853-1.057-4.079.461-4.77,2.235a.766.766,0,0,0,1.433.54A2.4,2.4,0,0,1,86.7,296.93a5.613,5.613,0,0,1,1.885-.261A.686.686,0,0,0,88.862,295.447Z" transform="translate(-7 5)" fill="#a4ca7b"/>
    <path id="Path_366" data-name="Path 366" d="M82.369,302.834a4.092,4.092,0,0,0-2.573-.5c-.661.156-1.7.743-1.442,1.574a.639.639,0,0,0,.551.506c.518.021.862-.376,1.355-.481a4.5,4.5,0,0,1,1.824.135C82.826,304.224,82.991,303.112,82.369,302.834Z" transform="translate(-7 5)" fill="#a4ca7b"/>
    <path id="Path_367" data-name="Path 367" d="M93.029,299.829c-.812-.289-1.282,1.008-.469,1.243.431.124,1.458.744,1.759.094C94.648,300.455,93.489,299.993,93.029,299.829Z" transform="translate(-7 5)" fill="#a4ca7b"/>
    <path id="Path_368" data-name="Path 368" d="M94.609,305.147a3.3,3.3,0,0,0-2.073-1.217c-.69-.087-1.768.116-1.969.91a.613.613,0,0,0,.205.675,3.123,3.123,0,0,0,1.41.406,2.542,2.542,0,0,1,1.193.554C94.171,307.166,95.261,305.926,94.609,305.147Z" transform="translate(-7 5)" fill="#a4ca7b"/>
    <path id="Path_369" data-name="Path 369" d="M74.034,304.981a1.785,1.785,0,0,0-1.093.9.574.574,0,0,0,.633.762,7.2,7.2,0,0,0,.876-.344A.692.692,0,1,0,74.034,304.981Z" transform="translate(-7 5)" fill="#a4ca7b"/>
    <path id="Path_370" data-name="Path 370" d="M77.883,316.172c-4.168-.649-7.581,3.217-7.963,7.123-.012.122-.021.243-.027.365a6.082,6.082,0,0,0,2.1,5.021,7.908,7.908,0,0,0,3.991,1.461c2.446.31,5-.085,6.6-2.153C85.568,324.119,82.712,316.923,77.883,316.172Zm-.212,10.548c-2.775.255-5.851-1.811-5.8-4.813a5.1,5.1,0,0,1,1.3-3.139c1.543-1.777,4.819-1.511,6.645-.329a4.495,4.495,0,0,1-2.138,8.281Z" transform="translate(-7 5)" fill="#d6d6c6" style="mix-blend-mode: multiply;isolation: isolate"/>
    <path id="Path_371" data-name="Path 371" d="M69.67,321.927c-.012.121-.021.243-.026.365a6.077,6.077,0,0,0,2.1,5.018,7.9,7.9,0,0,0,3.993,1.458c2.446.308,5-.09,6.6-2.159,2.984-3.873.121-11.067-4.709-11.813C73.457,314.151,70.048,318.02,69.67,321.927Z" transform="translate(-7 5)" fill="#cf3e32"/>
    <path id="Path_372" data-name="Path 372" d="M77.626,314.8c-4.169-.645-7.578,3.224-7.956,7.131-.012.121-.021.243-.026.365a6.077,6.077,0,0,0,2.1,5.018,7.892,7.892,0,0,0,3.993,1.457c2.446.309,5-.089,6.6-2.158C85.319,322.736,82.456,315.542,77.626,314.8Zm-.2,10.548c-2.775.258-5.853-1.8-5.808-4.807a5.11,5.11,0,0,1,1.292-3.141c1.542-1.778,4.818-1.515,6.645-.335a4.494,4.494,0,0,1-2.129,8.283Z" transform="translate(-7 5)" fill="#e8dcca" style="mix-blend-mode: multiply;isolation: isolate"/>
    <path id="Path_373" data-name="Path 373" d="M76.52,317.522c-.729-.828-2-.424-2.707.191a2.115,2.115,0,0,0-.7,2.678,1.5,1.5,0,0,0,1.662.677,1.865,1.865,0,0,0,1.09-.879c.056-.1.1-.2.162-.3a.685.685,0,0,0,.14-.12c.041-.042.424-.529.221-.267a2.412,2.412,0,0,0,.367-.541A1.32,1.32,0,0,0,76.52,317.522Z" transform="translate(-7 5)" fill="#df8077"/>
    <path id="Path_374" data-name="Path 374" d="M54.715,347.638c2.563.5,4.746-.885,6.38-2.73a7.9,7.9,0,0,0,2.039-3.73,6.083,6.083,0,0,0-1.731-5.159c-.085-.087-.172-.173-.261-.257-2.862-2.686-7.977-3.343-10.684-.108C47.322,339.4,49.918,346.7,54.715,347.638Zm-3.994-5.893a4.528,4.528,0,0,1-.216-3.116c.594-2.092,2.882-4.452,5.213-4.133A5.1,5.1,0,0,1,58.762,336c2.015,2.225,1.063,5.807-1.191,7.444A4.488,4.488,0,0,1,50.721,341.745Z" transform="translate(-7 5)" fill="#d6d6c6" style="mix-blend-mode: multiply;isolation: isolate"/>
    <path id="Path_375" data-name="Path 375" d="M59.975,335.1c.089.083.176.169.261.256a6.08,6.08,0,0,1,1.731,5.159,7.9,7.9,0,0,1-2.039,3.73c-1.634,1.845-3.816,3.234-6.379,2.73-4.8-.941-7.394-8.235-4.257-11.983C52,331.753,57.113,332.41,59.975,335.1Z" transform="translate(-7 5)" fill="#cf3e32"/>
    <path id="Path_376" data-name="Path 376" d="M53.549,346.971c2.563.5,4.745-.885,6.379-2.73a7.9,7.9,0,0,0,2.039-3.73,6.08,6.08,0,0,0-1.731-5.159c-.085-.087-.172-.173-.261-.256-2.862-2.686-7.976-3.343-10.683-.108C46.155,338.736,48.751,346.03,53.549,346.971Zm-3.995-5.893a4.534,4.534,0,0,1-.216-3.116c.594-2.092,2.883-4.452,5.214-4.133a5.1,5.1,0,0,1,3.044,1.507c2.014,2.225,1.063,5.808-1.192,7.445A4.489,4.489,0,0,1,49.554,341.078Z" transform="translate(-7 5)" fill="#e8dcca" style="mix-blend-mode: multiply;isolation: isolate"/>
    <path id="Path_377" data-name="Path 377" d="M51.922,336.306c0-1.1,1.226-1.641,2.16-1.642a2.113,2.113,0,0,1,2.29,1.552,1.5,1.5,0,0,1-.8,1.605,1.858,1.858,0,0,1-1.4.059c-.109-.039-.21-.084-.319-.117a.7.7,0,0,1-.185,0c-.059,0-.667-.117-.343-.054a2.422,2.422,0,0,1-.632-.164A1.319,1.319,0,0,1,51.922,336.306Z" transform="translate(-7 5)" fill="#df8077"/>
    <path id="Path_378" data-name="Path 378" d="M134.915,324.745c-6.487-8.2-19.56-11.127-29.295-7.9-12.764,4.225-22.328,17.721-25.756,30.233-1.982,7.236-1.767,14.841-.933,22.232a33.6,33.6,0,0,0,.518,3.644c-3.616,5.065-7.526,9.942-13.186,12.868-3.51,1.815-10.439,1.268-12.82,4.792a5.206,5.206,0,0,0,.959,6.528c2.088,2.038,4.962,1.827,7.473.9-.7,3.374,1.183,6.986,5.235,6.8a5.523,5.523,0,0,0,4.689-2.979c1.887-3.548.138-6.832,3.153-10.158a95.737,95.737,0,0,1,8.222-7.7c.095.572,1.857.672,2.555.762a43.794,43.794,0,0,0,11.86-.215,71.675,71.675,0,0,0,23.562-7.684c9.946-5.25,17.236-13.094,19.6-24.3C142.755,343.03,141.046,332.5,134.915,324.745Z" transform="translate(-7 5)" fill="#d6d6c6" style="mix-blend-mode: multiply;isolation: isolate"/>
    <path id="Path_379" data-name="Path 379" d="M87.808,373.607c-.4-3.28-5.241-9.381-8.795-6.855a.712.712,0,0,0-.086,1.1c-4.053,5.782-8.227,11.633-14.664,14.961-3.51,1.815-10.439,1.268-12.82,4.792a5.206,5.206,0,0,0,.959,6.528c2.088,2.038,4.962,1.827,7.473.9-.7,3.374,1.183,6.986,5.235,6.8a5.523,5.523,0,0,0,4.689-2.979c1.887-3.548.138-6.832,3.153-10.158a136.611,136.611,0,0,1,10.793-9.94C85.708,377.031,88.159,376.454,87.808,373.607Z" transform="translate(-7 5)" fill="#e6d9c6"/>
    <path id="Path_380" data-name="Path 380" d="M77.864,344.073c3.428-12.512,12.992-26.008,25.756-30.233,9.735-3.222,22.808-.3,29.295,7.9,6.131,7.752,7.84,18.285,5.831,27.823-2.359,11.2-9.649,19.046-19.6,24.3a71.675,71.675,0,0,1-23.562,7.684,43.794,43.794,0,0,1-11.86.215c-.739-.1-2.7-.2-2.575-.863a8.606,8.606,0,0,0-.759-5.111c-.507-1.038-1.2-1.962-1.805-2.942-1.26-2.045-1.394-4.19-1.659-6.542C76.1,358.914,75.882,351.309,77.864,344.073Z" transform="translate(-7 5)" fill="#a7623a"/>
    <path id="Path_381" data-name="Path 381" d="M132.915,321.745c-6.487-8.2-19.56-11.127-29.295-7.9-12.764,4.225-22.328,17.721-25.756,30.233-1.982,7.236-1.767,14.841-.933,22.232.265,2.352.4,4.5,1.659,6.542.6.98,1.3,1.9,1.805,2.942a8.606,8.606,0,0,1,.759,5.111c-.122.668,1.836.768,2.575.863a43.794,43.794,0,0,0,11.86-.215,71.675,71.675,0,0,0,23.562-7.684c9.946-5.25,17.236-13.094,19.6-24.3C140.755,340.03,139.046,329.5,132.915,321.745Zm-5.332,12.325c-1.7,6.862-7.006,12.624-12.574,16.7a41.487,41.487,0,0,1-16.915,7.53c-3.651.665-8.146,1.122-11.489-.89-3.376-2.032-4.806-6.1-4.869-9.956a59.018,59.018,0,0,1,1.75-8.168,37.118,37.118,0,0,1,3.385-8.8,25.886,25.886,0,0,1,6.286-7.1c8.9-7.138,19.686-9.531,30-3.668C127.049,323.308,129.126,327.855,127.583,334.07Z" transform="translate(-7 5)" fill="#e8dcca" style="mix-blend-mode: multiply;isolation: isolate"/>
    <path id="Path_382" data-name="Path 382" d="M139.419,344.833c-.017.212-.034.424-.054.635C139.385,345.257,139.4,345.045,139.419,344.833Z" fill="#c9ad83" style="mix-blend-mode: multiply;isolation: isolate"/>
    <path id="Path_383" data-name="Path 383" d="M139.523,340.727c0,.032,0,.064,0,.1C139.523,340.791,139.524,340.759,139.523,340.727Z" fill="#c9ad83" style="mix-blend-mode: multiply;isolation: isolate"/>
    <path id="Path_384" data-name="Path 384" d="M139.527,342.774c0,.171-.011.343-.018.515C139.515,343.117,139.523,342.946,139.527,342.774Z" fill="#c9ad83" style="mix-blend-mode: multiply;isolation: isolate"/>
    <path id="Path_385" data-name="Path 385" d="M138.683,334.1l.024.1Z" fill="#c9ad83" style="mix-blend-mode: multiply;isolation: isolate"/>
    <path id="Path_386" data-name="Path 386" d="M139.11,336.327Z" fill="#c9ad83" style="mix-blend-mode: multiply;isolation: isolate"/>
    <path id="Path_387" data-name="Path 387" d="M80.927,377.208a8.821,8.821,0,0,0-2.573,1.843l-7.282,6.79a7.088,7.088,0,0,0-1.411,1.611c-1.225,2.151.026,4.966-.81,7.3a4.252,4.252,0,0,1-8.2-2.123,7.508,7.508,0,0,1-7.382-.076,5.362,5.362,0,0,1-2.084-2.744,3.811,3.811,0,0,1-.171-1.4,5.367,5.367,0,0,0,1.386,5.73c2.088,2.038,4.962,1.827,7.473.9-.7,3.374,1.183,6.986,5.235,6.8a5.523,5.523,0,0,0,4.689-2.979c1.887-3.548.138-6.832,3.153-10.158a95.737,95.737,0,0,1,8.222-7.7h0c-.006-.034-.027-.063-.02-.1A8.368,8.368,0,0,0,80.927,377.208Z" transform="translate(-7 5)" fill="#e8dcca" style="mix-blend-mode: multiply;isolation: isolate"/>
    <path id="Path_388" data-name="Path 388" d="M139.109,347.547c.03-.2.053-.4.08-.6C139.162,347.15,139.139,347.349,139.109,347.547Z" fill="#c9ad83" style="mix-blend-mode: multiply;isolation: isolate"/>
    <path id="Path_389" data-name="Path 389" d="M139.11,336.327a36,36,0,0,1,.413,4.4A36,36,0,0,0,139.11,336.327Z" fill="#c9ad83" style="mix-blend-mode: multiply;isolation: isolate"/>
    <path id="Path_390" data-name="Path 390" d="M138.707,334.2c.155.7.291,1.412.4,2.126C139,335.613,138.862,334.9,138.707,334.2Z" fill="#c9ad83" style="mix-blend-mode: multiply;isolation: isolate"/>
    <path id="Path_391" data-name="Path 391" d="M139.109,347.547c-.1.678-.222,1.352-.363,2.021C138.887,348.9,139.005,348.225,139.109,347.547Z" fill="#c9ad83" style="mix-blend-mode: multiply;isolation: isolate"/>
    <path id="Path_392" data-name="Path 392" d="M139.365,345.468c-.048.5-.108.991-.176,1.484C139.257,346.459,139.317,345.965,139.365,345.468Z" fill="#c9ad83" style="mix-blend-mode: multiply;isolation: isolate"/>
    <path id="Path_393" data-name="Path 393" d="M139.509,343.289c-.019.515-.05,1.03-.09,1.544Q139.481,344.062,139.509,343.289Z" fill="#c9ad83" style="mix-blend-mode: multiply;isolation: isolate"/>
    <path id="Path_394" data-name="Path 394" d="M139.524,340.822c.019.65.018,1.3,0,1.952Q139.551,341.8,139.524,340.822Z" fill="#c9ad83" style="mix-blend-mode: multiply;isolation: isolate"/>
    <path id="Path_395" data-name="Path 395" d="M81.174,381c.095.572,1.857.672,2.555.762C83.031,381.673,81.269,381.573,81.174,381Z" transform="translate(-7 5)" fill="#c9ad83" style="mix-blend-mode: multiply;isolation: isolate"/>
    <path id="Path_396" data-name="Path 396" d="M139.365,345.468c.02-.211.037-.423.054-.635.04-.514.071-1.029.09-1.544.007-.172.014-.344.018-.515.015-.651.016-1.3,0-1.952,0-.031,0-.063,0-.1a36,36,0,0,0-.413-4.4h0c-.112-.714-.248-1.422-.4-2.126l-.024-.1c-.158-.7-.336-1.4-.539-2.09.023.21.051.42.068.631.769,9.509-4.534,18.49-10.865,25.626a61.823,61.823,0,0,1-18.9,14.86,40.489,40.489,0,0,1-23.49,4.013,8.654,8.654,0,0,0-3.621-.094,4.346,4.346,0,0,0-.413.166,8.368,8.368,0,0,1,.227,3.692c-.007.038.014.067.02.1.095.572,1.857.672,2.555.762a43.794,43.794,0,0,0,11.86-.215,71.675,71.675,0,0,0,23.562-7.684c9.946-5.25,17.236-13.094,19.6-24.3.141-.669.259-1.343.363-2.021.03-.2.053-.4.08-.6C139.257,346.459,139.317,345.965,139.365,345.468Z" transform="translate(-7 5)" fill="#d5bf9e" style="mix-blend-mode: multiply;isolation: isolate"/>
    <path id="Path_397" data-name="Path 397" d="M61.285,385.56c-1.108-.87-2.959-.276-4.2.069a6.806,6.806,0,0,0-3.776,2.346c-.419.56.4,1.356.962.962a9.624,9.624,0,0,1,3.7-1.684c1.051-.219,2.554-.047,3.311-.919A.553.553,0,0,0,61.285,385.56Z" transform="translate(-7 5)" fill="#f1e9de"/>
    <path id="Path_398" data-name="Path 398" d="M63.483,385.169a3.176,3.176,0,0,0-.978.013.58.58,0,1,0,.295,1.092,3.19,3.19,0,0,0,.848-.478A.377.377,0,0,0,63.483,385.169Z" transform="translate(-7 5)" fill="#f1e9de"/>
    <path id="Path_399" data-name="Path 399" d="M71.492,379.4a18.452,18.452,0,0,0-1.738,1.711,18.147,18.147,0,0,1-2.137,1.787.289.289,0,0,0,.291.5,8.739,8.739,0,0,0,2.409-1.545,5.351,5.351,0,0,0,1.554-2.16C71.929,379.492,71.679,379.262,71.492,379.4Z" transform="translate(-7 5)" fill="#f1e9de"/>
    <path id="Path_400" data-name="Path 400" d="M74.382,376.423l-.72.463c-.58.373.2,1.16.577.577q.232-.36.463-.72A.235.235,0,0,0,74.382,376.423Z" transform="translate(-7 5)" fill="#f1e9de"/>
    <path id="Path_401" data-name="Path 401" d="M116.116,314.148a12.98,12.98,0,0,0-4.932-.884c-1.653-.053-3.418-.106-4.861.787a.364.364,0,0,0,.085.657,15.343,15.343,0,0,0,4.415.216c1.679.018,3.344.315,5.021.229C116.326,315.128,116.644,314.38,116.116,314.148Z" transform="translate(-7 5)" fill="#c5977d"/>
    <path id="Path_402" data-name="Path 402" d="M103.5,315.1a.563.563,0,0,0,0,1.125A.563.563,0,0,0,103.5,315.1Z" transform="translate(-7 5)" fill="#c5977d"/>
    <path id="Path_403" data-name="Path 403" d="M95.027,319.812a10.393,10.393,0,0,0-2.174,1.239,3.019,3.019,0,0,0-1.4,1.679.4.4,0,0,0,.491.49,5.555,5.555,0,0,0,1.733-1.21,10.064,10.064,0,0,1,1.974-1.132C96.379,320.557,95.747,319.507,95.027,319.812Z" transform="translate(-7 5)" fill="#c5977d"/>
    <path id="Path_404" data-name="Path 404" d="M81.289,338.792c-1.321,3.186-2.523,7.011-1.669,10.469a.362.362,0,0,0,.693,0c.865-3.388,1-6.8,2.226-10.124C82.832,338.342,81.6,338.04,81.289,338.792Z" transform="translate(-7 5)" fill="#c5977d"/>
    <path id="Path_405" data-name="Path 405" d="M116.814,357.853c-3.779-3.389-9.148-5.319-13.774-7.294a120,120,0,0,0-14.809-5.2.579.579,0,0,0-.307,1.115c5.376,1.909,10.721,3.949,15.927,6.288,4.156,1.868,8.158,4.567,12.53,5.834A.448.448,0,0,0,116.814,357.853Z" transform="translate(-7 5)" fill="#7a2900"/>
    <path id="Path_406" data-name="Path 406" d="M126.472,350.381A70.325,70.325,0,0,0,92.15,335.109c-.68-.106-.991.912-.29,1.054a82.675,82.675,0,0,1,33.656,15.457C126.225,352.156,127.16,350.954,126.472,350.381Z" transform="translate(-7 5)" fill="#7a2900"/>
    <path id="Path_407" data-name="Path 407" d="M132.6,338.364c-8.553-8.108-22.329-11.851-33.781-12.581-.875-.056-.841,1.249,0,1.344a70.13,70.13,0,0,1,17.277,4.04c5.678,2.171,10.345,5.483,15.624,8.338C132.431,339.887,133.223,338.949,132.6,338.364Z" transform="translate(-7 5)" fill="#7a2900"/>
    <path id="Path_408" data-name="Path 408" d="M127.359,323.1c-3.294-2.6-8.124-3.527-12.194-4-.741-.086-.725,1.063,0,1.156,4.264.552,7.742,2.318,11.768,3.575C127.329,323.954,127.709,323.377,127.359,323.1Z" transform="translate(-7 5)" fill="#7a2900"/>
    <path id="Path_409" data-name="Path 409" d="M87.417,348.878a.539.539,0,0,0,0,1.078A.539.539,0,0,0,87.417,348.878Z" transform="translate(-7 5)" fill="#e08a48"/>
    <path id="Path_410" data-name="Path 410" d="M99.25,353.6a.321.321,0,0,0,0,.641A.321.321,0,0,0,99.25,353.6Z" transform="translate(-7 5)" fill="#e08a48"/>
    <path id="Path_411" data-name="Path 411" d="M91.333,353.172a.578.578,0,0,0,0,1.156A.578.578,0,0,0,91.333,353.172Z" transform="translate(-7 5)" fill="#e08a48"/>
    <path id="Path_412" data-name="Path 412" d="M91.083,359.331a.586.586,0,0,0,0,1.172A.586.586,0,0,0,91.083,359.331Z" transform="translate(-7 5)" fill="#e08a48"/>
    <path id="Path_413" data-name="Path 413" d="M101.417,361.893a.774.774,0,0,0,0,1.547A.774.774,0,0,0,101.417,361.893Z" transform="translate(-7 5)" fill="#e08a48"/>
    <path id="Path_414" data-name="Path 414" d="M105.333,343.354a.313.313,0,0,0,0,.625A.313.313,0,0,0,105.333,343.354Z" transform="translate(-7 5)" fill="#e08a48"/>
    <path id="Path_415" data-name="Path 415" d="M113.75,347.526a.641.641,0,0,0,0,1.281A.641.641,0,0,0,113.75,347.526Z" transform="translate(-7 5)" fill="#e08a48"/>
    <path id="Path_416" data-name="Path 416" d="M115.833,355.135a.782.782,0,0,0,0,1.563A.782.782,0,0,0,115.833,355.135Z" transform="translate(-7 5)" fill="#e08a48"/>
    <path id="Path_417" data-name="Path 417" d="M108.917,362.995a.672.672,0,0,0,0,1.343A.672.672,0,0,0,108.917,362.995Z" transform="translate(-7 5)" fill="#e08a48"/>
    <path id="Path_418" data-name="Path 418" d="M83.333,366.016a.484.484,0,0,0,0,.968A.484.484,0,0,0,83.333,366.016Z" transform="translate(-7 5)" fill="#e08a48"/>
    <path id="Path_419" data-name="Path 419" d="M82.917,350.6a.821.821,0,0,0,0,1.641A.821.821,0,0,0,82.917,350.6Z" transform="translate(-7 5)" fill="#e08a48"/>
    <path id="Path_420" data-name="Path 420" d="M90.083,327.385a.782.782,0,0,0,0,1.563A.782.782,0,0,0,90.083,327.385Z" transform="translate(-7 5)" fill="#e08a48"/>
    <path id="Path_421" data-name="Path 421" d="M89.583,337.117a.383.383,0,0,0,0,.766A.383.383,0,0,0,89.583,337.117Z" transform="translate(-7 5)" fill="#e08a48"/>
    <path id="Path_422" data-name="Path 422" d="M98,328.956a.711.711,0,0,0,0,1.422A.711.711,0,0,0,98,328.956Z" transform="translate(-7 5)" fill="#e08a48"/>
    <path id="Path_423" data-name="Path 423" d="M106.5,330.57a.931.931,0,0,0,0,1.86A.931.931,0,0,0,106.5,330.57Z" transform="translate(-7 5)" fill="#e08a48"/>
    <path id="Path_424" data-name="Path 424" d="M106.75,335.167a.75.75,0,0,0,0,1.5A.75.75,0,0,0,106.75,335.167Z" transform="translate(-7 5)" fill="#e08a48"/>
    <path id="Path_425" data-name="Path 425" d="M117.417,333.807a.86.86,0,0,0,0,1.719A.86.86,0,0,0,117.417,333.807Z" transform="translate(-7 5)" fill="#e08a48"/>
    <path id="Path_426" data-name="Path 426" d="M120.667,340.224a.86.86,0,0,0,0,1.719A.86.86,0,0,0,120.667,340.224Z" transform="translate(-7 5)" fill="#e08a48"/>
    <path id="Path_427" data-name="Path 427" d="M127.667,327.938a.813.813,0,0,0,0,1.625A.813.813,0,0,0,127.667,327.938Z" transform="translate(-7 5)" fill="#e08a48"/>
    <path id="Path_428" data-name="Path 428" d="M111.583,320.667a.75.75,0,0,0,0,1.5A.75.75,0,0,0,111.583,320.667Z" transform="translate(-7 5)" fill="#e08a48"/>
    <path id="Path_429" data-name="Path 429" d="M104.667,317.833a.5.5,0,0,0,0,1A.5.5,0,0,0,104.667,317.833Z" transform="translate(-7 5)" fill="#e08a48"/>
    <path id="Path_430" data-name="Path 430" d="M118.75,313.9a.68.68,0,0,0,0,1.359A.68.68,0,0,0,118.75,313.9Z" transform="translate(-7 5)" fill="#e08a48"/>
    <path id="Path_431" data-name="Path 431" d="M125.333,319.977a.023.023,0,0,0,0,.046A.023.023,0,0,0,125.333,319.977Z" transform="translate(-7 5)" fill="#e08a48"/>
    <path id="Path_432" data-name="Path 432" d="M125,318.523a.477.477,0,0,0,0,.954A.477.477,0,0,0,125,318.523Z" transform="translate(-7 5)" fill="#e08a48"/>
    <path id="Path_433" data-name="Path 433" d="M95.667,340.591a.743.743,0,0,0,0,1.485A.743.743,0,0,0,95.667,340.591Z" transform="translate(-7 5)" fill="#e08a48"/>
    <path id="Path_434" data-name="Path 434" d="M126.333,341.391a.609.609,0,0,0,0,1.218A.609.609,0,0,0,126.333,341.391Z" transform="translate(-7 5)" fill="#e08a48"/>
    <path id="Path_435" data-name="Path 435" d="M133.333,329.544a.789.789,0,0,0,0,1.578A.789.789,0,0,0,133.333,329.544Z" transform="translate(-7 5)" fill="#e08a48"/>
    <path id="Path_436" data-name="Path 436" d="M119.667,325.505a.828.828,0,0,0,0,1.656A.828.828,0,0,0,119.667,325.505Z" transform="translate(-7 5)" fill="#e08a48"/>
  </g>
</svg>
