<svg xmlns="http://www.w3.org/2000/svg" width="118.782" height="117.579" viewBox="0 0 118.782 117.579">
  <g id="Group_242" data-name="Group 242" transform="translate(-188.149 -294.735)">
    <path id="Path_437" data-name="Path 437" d="M248.163,351.276a17.652,17.652,0,0,0,12.212,5.643.244.244,0,0,0,.166.064c13.885.035,30.179-2.345,40.249-12.86,1.366-1.427,4.014-3.894,3.472-6.162-.482-2.017-2.9-2.349-4.287-3.494-2.406-1.982,1.148-4.125.74-6.384-.209-1.161-1.249-1.668-2.145-2.254a3.262,3.262,0,0,1-1.495-3.654c.292-2.018,1.182-4.17.044-6.091a4.322,4.322,0,0,0-2.444-1.912c-1.145-.336-2.266.109-3.409-.079-1.932-.318-1.491-2.363-2.154-3.7a2.667,2.667,0,0,0-1.91-1.447c-2.551-.546-4.389,1.774-5.716,3.585-4.159,5.68-6.656,12.33-12.1,17.025-4.935,4.253-10.959,6.913-16.393,10.428C249.107,342.5,243.9,346.589,248.163,351.276Z" fill="#5c7811"/>
    <path id="Path_438" data-name="Path 438" d="M249.75,349.087c.756,0,1.506-.028,2.252-.067,7.189-3,14.267-7.028,19.676-12.7a27.369,27.369,0,0,0,5.187-8.169c-.129.03-.245-.138-.114-.221.1-.063.193-.128.291-.19q.344-.805.67-1.631c1.283-3.245,2.536-6.771,5.187-9.171.138-.125.335.1.222.233-2.5,3.057-3.874,6.484-5.332,10.08,1.63-1.075,3.227-2.207,4.745-3.433,1.842-1.487,3.43-3.252,5.261-4.74.086-.069.185.052.127.134A25.678,25.678,0,0,1,283.014,324a41.947,41.947,0,0,1-5.427,3.75l-.019.046a27.72,27.72,0,0,1-6.509,9.83,54.741,54.741,0,0,1-17.84,11.314c11.576-.918,21.994-6.235,31.763-12.426a.151.151,0,0,1,.138-.249c.07.01.14.017.21.027,3.092-1.969,6.119-4.021,9.1-6.044.221-.15.464.184.243.337-2.815,1.946-5.681,3.91-8.61,5.8,3.014.362,5.958.4,9.006.5.143.005.115.207,0,.232a22,22,0,0,1-9.5-.413c-10.326,6.616-21.433,12.24-33.8,12.784-.228.082-.455.166-.683.245a.154.154,0,0,1-.186-.216c-.363.009-.725.019-1.09.019C249.51,349.538,249.458,349.087,249.75,349.087Z" fill="#7f9443"/>
    <path id="Path_439" data-name="Path 439" d="M284.142,331.318a42.231,42.231,0,0,1-6.544,9.391.134.134,0,0,1-.208-.168c2.349-3.013,4.315-6.262,6.561-9.338A.113.113,0,0,1,284.142,331.318Z" fill="#7f9443"/>
    <path id="Path_440" data-name="Path 440" d="M262.457,347.985a60.06,60.06,0,0,0,16.756-.89c5.6-1.118,10.614-3.326,15.726-5.794.112-.054.206.123.1.192a46.406,46.406,0,0,1-15.538,6.063,49.185,49.185,0,0,1-17.092.726C262.218,348.256,262.266,347.969,262.457,347.985Z" fill="#7f9443"/>
    <path id="Path_441" data-name="Path 441" d="M265.565,344.2c4.281-5.117,7.671-11.058,12.976-15.242,2.626-2.071,5.586-3.666,8.25-5.685,1.01-.765,3.437-2.406,2.426-4.013-1.153-1.836-3.742.794-5.085-.612-1.417-1.483.708-3.815,1.384-5.105.337-.642,1.256-2.734.065-3.022a1.636,1.636,0,0,0-.961.144c-1.676.652-3.039,2.087-4.837,2.417a1.8,1.8,0,0,1-2.351-1.952,15.573,15.573,0,0,0,.19-1.631,2.135,2.135,0,0,0-.68-1.457,1.249,1.249,0,0,0-1.5-.074,15.9,15.9,0,0,0-2.941,2.609c-1.322,1.2-3.5,3.535-4.821,1.011-.513-.98-.573-2.145-1.241-3.056a3.767,3.767,0,0,0-5.007-.714c-2.016,1.184-3.212,3.511-3.981,5.634a55.37,55.37,0,0,0-2.042,8.533q-.623,3.276-1.025,6.583a.354.354,0,0,0-.18.277,80.957,80.957,0,0,0-.745,9.265,11.143,11.143,0,0,0,1.69,6.626,6.645,6.645,0,0,0,4.795,2.887C262.408,347.772,264.108,345.94,265.565,344.2Z" fill="#6faa2e"/>
    <path id="Path_442" data-name="Path 442" d="M259.225,342.586c.208-4.988,3.6-9.626,6.122-13.748,1.329-2.174,2.689-4.328,4.009-6.506a77.13,77.13,0,0,1,4.863-6.676c.118-.155-.124-.368-.261-.226a48.588,48.588,0,0,0-4.913,6.7c-1.593,2.347-3.059,4.788-4.528,7.215-2.259,3.734-5.151,7.9-5.6,12.38-1.573-4.5-.8-9.591.069-14.159a58.5,58.5,0,0,1,4.671-13.967c.081-.172-.217-.318-.3-.146a54.322,54.322,0,0,0-4.826,14.587c-.864,4.707-1.517,10.076.351,14.617A.185.185,0,0,0,259.225,342.586Z" fill="#8dbc5a"/>
    <path id="Path_443" data-name="Path 443" d="M260.675,342.541a67.978,67.978,0,0,1,8.647-12.928c1.723-2.111,3.383-4.275,5.12-6.373s4.228-3.381,5.92-5.486c.133-.164-.128-.383-.279-.241-1.93,1.807-4.153,3.23-5.85,5.281-1.789,2.164-3.526,4.382-5.25,6.6-3.179,4.084-6.51,8.23-8.483,13.065C260.459,342.558,260.626,342.641,260.675,342.541Z" fill="#8dbc5a"/>
    <path id="Path_444" data-name="Path 444" d="M280.213,324.665a.089.089,0,0,0-.1-.146c-2,.924-4.016,1.981-5.96,3.021a11.833,11.833,0,0,0-4.312,3.584c-.1.146.119.28.228.148a16.529,16.529,0,0,1,5.487-4.038A22.5,22.5,0,0,0,280.213,324.665Z" fill="#8dbc5a"/>
    <path id="Path_445" data-name="Path 445" d="M262.6,326.069a18.072,18.072,0,0,0,2.643-5.38.117.117,0,0,0-.222-.073,37.266,37.266,0,0,1-2.713,5.262A.175.175,0,0,0,262.6,326.069Z" fill="#8dbc5a"/>
    <path id="Path_446" data-name="Path 446" d="M279.316,327.282a3.7,3.7,0,0,0-1.56-2.827,2.914,2.914,0,0,0-3.37.233,3.517,3.517,0,0,0-1.418,2.575,3.351,3.351,0,0,0,2.059,2.94,3.237,3.237,0,0,0,3.216-.317A2.938,2.938,0,0,0,279.316,327.282Z" fill="#f6e219"/>
    <path id="Path_447" data-name="Path 447" d="M279.316,327.282a3.7,3.7,0,0,0-1.56-2.827,2.914,2.914,0,0,0-3.37.233,3.517,3.517,0,0,0-1.418,2.575,3.351,3.351,0,0,0,2.059,2.94,3.237,3.237,0,0,0,3.216-.317A2.938,2.938,0,0,0,279.316,327.282Zm-2.442,1.073a1.989,1.989,0,0,1-2.018-.663A1.637,1.637,0,0,1,275,325.5a1.432,1.432,0,0,1,1.267-.376,1.826,1.826,0,0,1,1.616,1.174A1.518,1.518,0,0,1,276.874,328.355Z" fill="#fae378"/>
    <path id="Path_448" data-name="Path 448" d="M256.973,360.466c6.174,1.939,12.69,2.9,18.58,5.68,6.5,3.073,10.682,8.815,16.2,13.181,1.762,1.392,4.152,3.137,6.465,1.931a2.664,2.664,0,0,0,1.455-1.9c.283-1.464-.687-3.318,1.09-4.139,1.052-.486,2.251-.357,3.264-.986a4.318,4.318,0,0,0,1.846-2.493c.585-2.156-.847-3.992-1.666-5.86a3.261,3.261,0,0,1,.466-3.92c.707-.8,1.574-1.57,1.467-2.744-.21-2.286-4.206-3.4-2.417-5.956,1.034-1.474,3.275-2.438,3.2-4.511-.082-2.33-3.292-4-4.99-5.013-12.509-7.449-28.847-5.4-42.22-1.661a.237.237,0,0,0-.143.1,17.659,17.659,0,0,0-10.265,8.7C246.447,356.527,252.562,359.081,256.973,360.466Z" fill="#5c7811"/>
    <path id="Path_449" data-name="Path 449" d="M251.424,352.558c.729-.2,1.459-.375,2.188-.536,7.73.979,15.625,2.969,22.349,6.99a27.322,27.322,0,0,1,7.177,6.49c-.132,0-.2.2-.05.244.11.034.22.071.331.105q.546.684,1.081,1.393c2.1,2.785,4.25,5.849,7.445,7.456.166.083.3-.181.151-.284-3.222-2.28-5.463-5.216-7.827-8.293,1.858.6,3.7,1.266,5.489,2.043,2.172.942,4.172,2.22,6.335,3.166.1.044.164-.1.086-.164a25.7,25.7,0,0,0-6.007-3.3,41.992,41.992,0,0,0-6.23-2.167l-.03-.04a27.728,27.728,0,0,0-8.9-7.738,54.734,54.734,0,0,0-20.21-6.147c11.4-2.2,22.86.144,33.926,3.507a.151.151,0,0,0,.2.2c.065-.029.13-.054.2-.082,3.5,1.073,6.969,2.243,10.379,3.4a.208.208,0,0,0,.144-.39c-3.231-1.124-6.518-2.253-9.844-3.294,2.808-1.153,5.635-1.975,8.547-2.883.136-.042.055-.229-.067-.222a22,22,0,0,0-9.044,2.931c-11.717-3.623-23.921-6.082-35.991-3.307-.241-.018-.482-.039-.723-.053a.153.153,0,0,0-.121.257c-.352.088-.7.175-1.056.272C251.072,352.188,251.143,352.636,251.424,352.558Z" fill="#7f9443"/>
    <path id="Path_450" data-name="Path 450" d="M289.309,360.513a42.215,42.215,0,0,0-8.811-7.306.134.134,0,0,0-.156.217c3.068,2.278,5.828,4.885,8.814,7.251C289.255,360.754,289.391,360.609,289.309,360.513Z" fill="#7f9443"/>
    <path id="Path_451" data-name="Path 451" d="M263.965,350.232a60.017,60.017,0,0,1,16.386-3.61c5.7-.417,11.117.375,16.7,1.391.122.022.166-.175.048-.213a46.4,46.4,0,0,0-16.592-1.7,49.218,49.218,0,0,0-16.667,3.857C263.663,350.034,263.785,350.3,263.965,350.232Z" fill="#7f9443"/>
    <path id="Path_452" data-name="Path 452" d="M285.6,340.141a2.692,2.692,0,0,0-1.174-1.514,5.645,5.645,0,0,0-3.344-.813,1.08,1.08,0,0,1-.134-.136,4.706,4.706,0,0,0,.62-3.171,3.741,3.741,0,0,0-1.652-2.455,2.893,2.893,0,0,0-1.258-.379c-.132-.009-1.3.031-1.3.2-.051-1.567-.237-3.347-1.6-4.313a2.56,2.56,0,0,0-3.169-.01c-.934-1.709-2.858-3.3-4.671-.786-4.333,6.015-9.512,10.248-15.41,14.257-1.725,1.173-4.45,2.949-3.427,5.451.912,2.231,4.4,1.439,6.194,1.113,3.114-.566,6.12-1.651,9.265-2.058,3.314-.43,6.6.153,9.9.432,2.754.233,5.8.314,8.37-.862C284.721,344.229,286.319,342.335,285.6,340.141Z" fill="#b5d959"/>
    <path id="Path_453" data-name="Path 453" d="M270.82,331.543c.169-.212-.17-.443-.342-.24a47.452,47.452,0,0,1-18.58,13.424c-.147.06-.047.273.1.222A41.794,41.794,0,0,0,270.82,331.543Z" fill="#c4e17c"/>
    <path id="Path_454" data-name="Path 454" d="M279.219,341.75c-2.2.5-4.226.056-6.433-.077a36.981,36.981,0,0,0-6.072.155c-.86.089-1.716.21-2.568.347,2.96-1.773,7.261-2.865,7.912-6.662.023-.133-.188-.179-.23-.052-1.293,3.829-5.418,4.637-8.365,6.823a73.932,73.932,0,0,0-9.194,2.306c-.179.056-.087.37.094.317a83.536,83.536,0,0,1,8.735-2.147.121.121,0,0,0,.158.005l.063-.045c1.335-.236,2.678-.428,4.032-.55a36.339,36.339,0,0,1,6.831-.008c1.665.166,3.56.678,5.1-.216C279.371,341.892,279.343,341.722,279.219,341.75Z" fill="#c4e17c"/>
    <path id="Path_455" data-name="Path 455" d="M277.829,337.666c.071-.073,0-.232-.105-.169-2.583,1.5-4.785,2.954-7.742,3.677-.124.03-.1.225.032.2C272.767,340.8,275.834,339.734,277.829,337.666Z" fill="#c4e17c"/>
    <path id="Path_456" data-name="Path 456" d="M260.246,344.227c2.067-8.2,2.663-16.847,6.413-24.545,1.856-3.81,4.356-7.261,6.285-11.032.731-1.43,2.6-4.64.559-5.918-2.329-1.46-3.834,2.968-6.142,2.1-2.434-.911-1.293-4.744-1.232-6.589.03-.919-.073-3.813-1.591-3.485a2.077,2.077,0,0,0-1.017.693c-1.554,1.668-2.319,4.057-4.19,5.425-1.411,1.031-2.921.861-3.758-.934a19.683,19.683,0,0,0-.682-1.965,2.7,2.7,0,0,0-1.578-1.289,1.583,1.583,0,0,0-1.755.742c-.928,1.2-1.351,3.2-1.919,4.6-.848,2.1-2.048,5.963-4.946,3.81-1.125-.836-1.835-2.132-3.1-2.8-2.232-1.188-4.782-.036-6.108,1.943-1.648,2.463-1.731,5.778-1.439,8.624a70.132,70.132,0,0,0,2.369,10.865q1.1,4.082,2.457,8.077a.445.445,0,0,0-.053.415,102.427,102.427,0,0,0,4.254,10.985c1.25,2.62,2.965,5.215,5.578,6.633a8.422,8.422,0,0,0,7.064.653C258.611,350.045,259.542,347.018,260.246,344.227Z" fill="#5c7811"/>
    <path id="Path_457" data-name="Path 457" d="M252.121,345.88c-2.511-5.809-1.189-12.973-.586-19.065.319-3.213.685-6.42.991-9.634a98.032,98.032,0,0,1,1.874-10.3.222.222,0,0,0-.423-.114c-1.1,3.341-1.406,6.891-1.917,10.353-.525,3.556-.854,7.15-1.194,10.728-.522,5.507-1.527,11.854.426,17.217-4.273-4.265-6.2-10.505-7.722-16.2a74.149,74.149,0,0,1-2.363-18.515c0-.24-.422-.243-.426,0a68.845,68.845,0,0,0,2.528,19.307c1.606,5.849,3.819,12.337,8.452,16.49A.235.235,0,0,0,252.121,345.88Z" fill="#7f9443"/>
    <path id="Path_458" data-name="Path 458" d="M253.751,345.029A86.174,86.174,0,0,1,256.5,325.51c.8-3.359,1.507-6.742,2.334-10.1s2.963-6.187,3.735-9.522c.06-.261-.357-.366-.452-.121-1.207,3.125-2.961,5.974-3.767,9.249-.851,3.456-1.61,6.945-2.358,10.423-1.379,6.413-2.9,12.98-2.485,19.585C253.514,345.167,253.75,345.17,253.751,345.029Z" fill="#7f9443"/>
    <path id="Path_459" data-name="Path 459" d="M266.2,313.862a.113.113,0,0,0-.192-.112c-1.772,2.156-3.492,4.473-5.139,6.731a15.018,15.018,0,0,0-2.947,6.466c-.037.224.291.255.342.044a20.976,20.976,0,0,1,4.038-7.632C263.647,317.6,265.313,315.906,266.2,313.862Z" fill="#7f9443"/>
    <path id="Path_460" data-name="Path 460" d="M246.877,325.166a22.922,22.922,0,0,0,.052-7.6.148.148,0,0,0-.294.039,47.2,47.2,0,0,1-.2,7.5A.221.221,0,0,0,246.877,325.166Z" fill="#7f9443"/>
    <path id="Path_461" data-name="Path 461" d="M259.592,318.52a2.434,2.434,0,0,0-1.674.435,5.084,5.084,0,0,0-1.863,2.485.963.963,0,0,1-.161.063,4.252,4.252,0,0,0-2.41-1.642,3.387,3.387,0,0,0-2.625.5,2.621,2.621,0,0,0-.761.909c-.054.106-.437,1.091-.294,1.147-1.319-.515-2.861-.994-4.147-.208a2.311,2.311,0,0,0-1.135,2.626c-1.75.168-3.757,1.2-2.313,3.6,3.45,5.733,5.121,11.535,6.35,17.853.36,1.849.864,4.741,3.3,4.782,2.176.037,2.759-3.14,3.126-4.744.637-2.784.806-5.664,1.586-8.418.822-2.9,2.475-5.423,3.879-8.061,1.172-2.2,2.321-4.7,2.26-7.25C262.669,320.7,261.666,318.706,259.592,318.52Z" fill="#b5d959"/>
    <path id="Path_462" data-name="Path 462" d="M247.2,327.728c-.117-.215-.428-.016-.321.2a42.854,42.854,0,0,1,4.532,20.189c0,.144.21.136.219,0A37.725,37.725,0,0,0,247.2,327.728Z" fill="#c4e17c"/>
    <path id="Path_463" data-name="Path 463" d="M258.657,324.389c-.368,2-1.456,3.526-2.352,5.31a33.385,33.385,0,0,0-2.03,5.093c-.232.746-.436,1.5-.625,2.254-.419-3.086.205-7.043-2.714-8.933-.1-.066-.216.092-.126.172,2.718,2.434,1.922,6.144,2.688,9.366a66.737,66.737,0,0,0-1.356,8.449c-.017.168.276.2.3.034a75.775,75.775,0,0,1,1.324-8.01.11.11,0,0,0,.061-.129l-.015-.069c.279-1.192.6-2.375.977-3.541a32.787,32.787,0,0,1,2.423-5.671c.729-1.322,1.827-2.712,1.632-4.3C258.828,324.314,258.677,324.276,258.657,324.389Z" fill="#c4e17c"/>
    <path id="Path_464" data-name="Path 464" d="M254.774,324.09c-.036-.085-.191-.084-.178.027.324,2.675.75,5.02.3,7.731-.019.114.152.159.176.044C255.578,329.406,255.78,326.481,254.774,324.09Z" fill="#c4e17c"/>
    <path id="Path_465" data-name="Path 465" d="M252.39,357.472a8.231,8.231,0,0,0-6.1,3.285c-1.809,2.273-2.36,5.263-2.485,8.1a100.635,100.635,0,0,0,.37,11.5.44.44,0,0,0,.206.353q.3,4.114.876,8.2a68.559,68.559,0,0,0,2.018,10.675c.824,2.672,2.165,5.621,4.588,7.206,1.948,1.275,4.681,1.336,6.235-.585.88-1.088,1.024-2.524,1.716-3.706,1.784-3.043,4.34-.023,5.9,1.537,1.046,1.043,2.189,2.68,3.482,3.4a1.546,1.546,0,0,0,1.861,0,2.641,2.641,0,0,0,.927-1.762,19.248,19.248,0,0,0-.137-2.027c.067-1.935,1.361-2.664,3.024-2.275,2.2.515,3.8,2.371,5.839,3.278a2.029,2.029,0,0,0,1.179.235c1.491-.285.478-2.927.1-3.741-.76-1.637-3.249-4.648-1.408-6.4,1.745-1.659,4.79,1.748,6.326-.454,1.345-1.928-1.558-4.1-2.762-5.109-3.175-2.654-6.741-4.8-9.865-7.521-6.313-5.491-10.151-13.041-15.142-19.624C257.44,359.8,255.447,357.434,252.39,357.472Z" fill="#5c7811"/>
    <path id="Path_466" data-name="Path 466" d="M251.2,363.658c-.04,6.182,3.885,12.12,6.754,17.368,1.513,2.768,3.067,5.513,4.57,8.286a95.811,95.811,0,0,0,5.618,8.546c.137.2-.176.447-.337.264a60.156,60.156,0,0,1-5.677-8.578c-1.831-3-3.5-6.1-5.171-9.193-2.572-4.752-5.9-10.077-6.192-15.645-2.213,5.467-1.562,11.815-.759,17.516a72.485,72.485,0,0,0,4.946,17.552c.09.218-.287.38-.383.162a67.239,67.239,0,0,1-5.1-18.328c-.789-5.873-1.276-12.552,1.3-18.057A.229.229,0,0,1,251.2,363.658Z" fill="#7f9443"/>
    <path id="Path_467" data-name="Path 467" d="M252.992,363.8a84.181,84.181,0,0,0,9.924,16.505c2.006,2.713,3.93,5.487,5.954,8.187s5.028,4.433,6.995,7.137c.154.211-.181.465-.36.281-2.279-2.35-4.944-4.242-6.92-6.879-2.084-2.783-4.1-5.631-6.1-8.473-3.688-5.241-7.561-10.567-9.714-16.664C252.725,363.766,252.937,363.673,252.992,363.8Z" fill="#7f9443"/>
    <path id="Path_468" data-name="Path 468" d="M276.092,387.073a.11.11,0,0,1-.129.174c-2.418-1.262-4.849-2.689-7.193-4.09a14.668,14.668,0,0,1-5.119-4.69c-.119-.187.164-.34.291-.17a20.464,20.464,0,0,0,6.546,5.321C272.366,384.688,274.511,385.575,276.092,387.073Z" fill="#7f9443"/>
    <path id="Path_469" data-name="Path 469" d="M254.4,384.288a22.368,22.368,0,0,1,2.948,6.811.145.145,0,0,1-.279.077,46.2,46.2,0,0,0-3.041-6.67A.216.216,0,0,1,254.4,384.288Z" fill="#7f9443"/>
    <path id="Path_470" data-name="Path 470" d="M249.362,364.317c5.024,4.078,10.728,7.37,15.177,12.128,4.913,5.253,6.682,12.132,10.207,18.227,1.124,1.943,2.7,4.446,5.3,4.178a2.669,2.669,0,0,0,2.054-1.234c.8-1.257.584-3.338,2.539-3.446,1.157-.065,2.224.5,3.4.287a4.323,4.323,0,0,0,2.635-1.638c1.338-1.788.683-4.023.61-6.062a3.26,3.26,0,0,1,1.879-3.471c.953-.487,2.042-.879,2.375-2.011.647-2.2-2.655-4.714-.051-6.427,1.5-.989,3.942-1.059,4.638-3.013.782-2.2-1.586-4.934-2.791-6.5-8.883-11.535-24.827-15.65-38.635-17.106a.244.244,0,0,0-.173.045,17.65,17.65,0,0,0-12.746,4.3C241.028,356.775,245.772,361.4,249.362,364.317Z" fill="#6faa2e"/>
    <path id="Path_471" data-name="Path 471" d="M247.118,354.921c.752.082,1.494.189,2.232.308,6.824,3.759,13.43,8.519,18.2,14.735a27.381,27.381,0,0,1,4.28,8.678c-.125-.043-.258.112-.137.208.09.073.178.148.268.221q.257.837.492,1.693c.927,3.363,1.8,7,4.173,9.675.123.139.342-.059.245-.209-2.155-3.307-3.156-6.862-4.219-10.593,1.506,1.243,2.971,2.54,4.349,3.922,1.672,1.676,3.061,3.6,4.722,5.277.078.078.19-.031.141-.119a25.712,25.712,0,0,0-4.367-5.286,41.916,41.916,0,0,0-4.992-4.311l-.014-.048a27.736,27.736,0,0,0-5.416-10.472,54.778,54.778,0,0,0-16.523-13.164c11.411,2.156,21.2,8.56,30.246,15.765a.151.151,0,0,0,.11.262l.212,0c2.862,2.289,5.652,4.654,8.4,6.985.2.173.48-.133.277-.309-2.589-2.236-5.228-4.5-7.937-6.69,3.036-.037,5.966.241,9.008.47.142.011.136-.193.02-.231a21.986,21.986,0,0,0-9.488-.609c-9.557-7.686-19.995-14.471-32.238-16.339-.217-.106-.434-.215-.653-.317a.153.153,0,0,0-.207.2c-.36-.048-.719-.1-1.082-.136C246.928,354.447,246.828,354.889,247.118,354.921Z" fill="#8dbc5a"/>
    <path id="Path_472" data-name="Path 472" d="M279.4,376.28a42.207,42.207,0,0,0-5.5-10.04.134.134,0,0,0-.225.144c2.012,3.249,3.617,6.69,5.521,9.989A.112.112,0,0,0,279.4,376.28Z" fill="#8dbc5a"/>
    <path id="Path_473" data-name="Path 473" d="M259.633,357.38a60.076,60.076,0,0,1,16.563,2.684c5.452,1.713,10.2,4.447,15.014,7.449.105.066.218-.1.123-.179a46.4,46.4,0,0,0-14.8-7.7,49.21,49.21,0,0,0-16.915-2.557A.15.15,0,0,0,259.633,357.38Z" fill="#8dbc5a"/>
    <path id="Path_474" data-name="Path 474" d="M232.527,324.024c9.947-1.143,19.914-2.5,29.747-4.4,3.412-.66,6.819-1.359,10.239-1.977.634-.114,2.668-.046,2.29-1.119-3.481-9.881-13.4-17.826-24.44-15.176a26.131,26.131,0,0,0-12.847,6.948c-4.013,4.214-4.966,9.624-5.472,15.225A.442.442,0,0,0,232.527,324.024Z" fill="#acbbbe" opacity="0.5" style="mix-blend-mode: multiply;isolation: isolate"/>
    <path id="Path_475" data-name="Path 475" d="M230.527,322.024c9.947-1.143,19.914-2.5,29.747-4.4,3.412-.66,6.819-1.359,10.239-1.977.634-.114,2.668-.046,2.29-1.119-3.481-9.881-13.4-17.826-24.44-15.176a26.131,26.131,0,0,0-12.847,6.948c-4.013,4.214-4.966,9.624-5.472,15.225A.442.442,0,0,0,230.527,322.024Z" fill="#cf3e32"/>
    <path id="Path_476" data-name="Path 476" d="M260.788,304.831a20.019,20.019,0,0,0-14.79-1.4,18.629,18.629,0,0,0-12.769,18.28c9.048-1.077,18.1-2.351,27.045-4.08,3.352-.648,6.7-1.333,10.061-1.943C269.58,311,264.677,306.776,260.788,304.831Z" fill="#ff6a45"/>
    <path id="Path_477" data-name="Path 477" d="M236.179,320.107a2.978,2.978,0,0,0,1.279.3c1.569.1,10.263-.327,8.74-3.783a7.793,7.793,0,0,0-.663-1.06,2.43,2.43,0,0,1-.412-1.646,2.525,2.525,0,0,1,.333-1.07c.965-1.554,3.676-2,5.313-1.769a4.035,4.035,0,0,1,1.759.628c1.459,1.016.966,2.515.471,3.92a1.308,1.308,0,0,0,.924,1.879,7.778,7.778,0,0,0,2.885-.046,75,75,0,0,0,7.859-1.448c1.116-.283,2.332-.728,2.009-2.09-1.239-5.214-7.283-8.342-11.991-8.959a18.779,18.779,0,0,0-15.3,5.2,12.342,12.342,0,0,0-1.408,1.621,13.578,13.578,0,0,0-2.473,6.241c-.08.691-.031,1.653.626,2.057Z" fill="#cf3e32"/>
    <path id="Path_478" data-name="Path 478" d="M258.016,314.928c.718-.373,2.105-.9,2.083-1.858a.406.406,0,0,0-.335-.345c-.445-.126-.84.188-1.183.433-.373.268-.73.558-1.106.821C256.974,314.33,257.455,315.22,258.016,314.928Z" fill="#fbc532"/>
    <path id="Path_479" data-name="Path 479" d="M257.06,311.844a4.48,4.48,0,0,0,.554-1.286c.1-.494-.523-.65-.815-.352a4.6,4.6,0,0,0-.739,1.2C255.738,312.041,256.728,312.451,257.06,311.844Z" fill="#fbc532"/>
    <path id="Path_480" data-name="Path 480" d="M252.58,309.372c.086.765,1.171.6,1.163-.14-.007-.565.111-1.368-.287-1.826a.5.5,0,0,0-.782-.007A2.994,2.994,0,0,0,252.58,309.372Z" fill="#fbc532"/>
    <path id="Path_481" data-name="Path 481" d="M247.64,309.32a.54.54,0,0,0,1.071-.128,4.767,4.767,0,0,0-.157-.952.52.52,0,0,0-.988.119A4.691,4.691,0,0,0,247.64,309.32Z" fill="#fbc532"/>
    <path id="Path_482" data-name="Path 482" d="M242.844,310.787a3.138,3.138,0,0,0,.835.885c.6.525,1.393-.476.765-.975a2.9,2.9,0,0,0-.889-.606C243.156,309.973,242.611,310.32,242.844,310.787Z" fill="#fbc532"/>
    <path id="Path_483" data-name="Path 483" d="M241.073,314.236a3.812,3.812,0,0,0,1.242.2c.711.066.881-1.025.166-1.1a3.954,3.954,0,0,0-1.267-.064A.512.512,0,0,0,241.073,314.236Z" fill="#fbc532"/>
    <path id="Path_484" data-name="Path 484" d="M241.5,317.907c.638-.047.51-1.006-.118-.98-.481.02-.954-.036-1.432-.032-.307,0-.817.066-.8.48C239.183,318.181,241.008,317.943,241.5,317.907Z" fill="#fbc532"/>
    <path id="Path_485" data-name="Path 485" d="M283.455,334.44c.276,10.008.76,20.055,1.8,30.016.361,3.456.762,6.911,1.081,10.372.059.641-.186,2.662.916,2.378,10.146-2.611,18.921-11.8,17.239-23.031a26.128,26.128,0,0,0-5.808-13.4c-3.85-4.363-9.156-5.781-14.693-6.771A.441.441,0,0,0,283.455,334.44Z" fill="#acbbbe" opacity="0.5" style="mix-blend-mode: multiply;isolation: isolate"/>
    <path id="Path_486" data-name="Path 486" d="M281.455,332.44c.276,10.008.76,20.055,1.8,30.016.361,3.456.762,6.911,1.081,10.372.059.641-.186,2.662.916,2.378,10.146-2.611,18.921-11.8,17.239-23.031a26.128,26.128,0,0,0-5.808-13.4c-3.85-4.363-9.156-5.781-14.693-6.771A.441.441,0,0,0,281.455,332.44Z" fill="#cf3e32"/>
    <path id="Path_487" data-name="Path 487" d="M295.958,364.078a20.016,20.016,0,0,0,2.683-14.613,18.628,18.628,0,0,0-17.1-14.306c.288,9.107.772,18.238,1.719,27.3.355,3.4.747,6.791,1.063,10.191C289.054,372.3,293.683,367.783,295.958,364.078Z" fill="#ff6a45"/>
    <path id="Path_488" data-name="Path 488" d="M282.875,338.236a2.988,2.988,0,0,0-.4,1.249c-.238,1.554-.564,10.253,3.01,9.035a7.587,7.587,0,0,0,1.114-.569,2.435,2.435,0,0,1,1.675-.267,2.537,2.537,0,0,1,1.038.425c1.465,1.1,1.672,3.835,1.3,5.447a4.048,4.048,0,0,1-.779,1.7c-1.138,1.366-2.589.744-3.946.129a1.308,1.308,0,0,0-1.952.758,7.8,7.8,0,0,0-.2,2.878,74.91,74.91,0,0,0,.761,7.955c.184,1.136.523,2.387,1.907,2.182,5.3-.781,8.943-6.531,9.966-11.168a18.783,18.783,0,0,0-3.851-15.7,12.446,12.446,0,0,0-1.493-1.544,13.583,13.583,0,0,0-6-3.005,2.1,2.1,0,0,0-2.1.445Z" fill="#cf3e32"/>
    <path id="Path_489" data-name="Path 489" d="M286.14,360.441c.31.747.711,2.174,1.671,2.235a.4.4,0,0,0,.372-.3c.165-.433-.114-.853-.329-1.216-.234-.4-.492-.776-.722-1.174C286.826,359.454,285.9,359.856,286.14,360.441Z" fill="#fbc532"/>
    <path id="Path_490" data-name="Path 490" d="M289.3,359.755a4.434,4.434,0,0,0,1.233.664c.483.141.693-.465.421-.781a4.6,4.6,0,0,0-1.135-.841C289.214,358.421,288.72,359.372,289.3,359.755Z" fill="#fbc532"/>
    <path id="Path_491" data-name="Path 491" d="M292.147,355.507c-.769.02-.7,1.115.038,1.17.564.042,1.354.229,1.845-.127a.5.5,0,0,0,.074-.778C293.58,355.35,292.778,355.491,292.147,355.507Z" fill="#fbc532"/>
    <path id="Path_492" data-name="Path 492" d="M292.627,350.59a.54.54,0,0,0,.035,1.078,4.7,4.7,0,0,0,.962-.074.52.52,0,0,0-.033-.995A4.7,4.7,0,0,0,292.627,350.59Z" fill="#fbc532"/>
    <path id="Path_493" data-name="Path 493" d="M291.581,345.685a3.157,3.157,0,0,0-.954.755c-.574.549.354,1.429.9.847a2.938,2.938,0,0,0,.682-.833C292.365,346.066,292.067,345.493,291.581,345.685Z" fill="#fbc532"/>
    <path id="Path_494" data-name="Path 494" d="M288.3,343.622a3.772,3.772,0,0,0-.3,1.22c-.127.7.945.966,1.083.26a3.971,3.971,0,0,0,.174-1.256A.512.512,0,0,0,288.3,343.622Z" fill="#fbc532"/>
    <path id="Path_495" data-name="Path 495" d="M284.605,343.724c-.008.64.958.6.987-.032.021-.481.118-.947.156-1.424.024-.306.005-.819-.409-.837C284.533,341.4,284.611,343.235,284.605,343.724Z" fill="#fbc532"/>
    <path id="Path_496" data-name="Path 496" d="M290.289,352.137c.878-.072,2.806-.1,3.337-1.066.581-1.058-.863-2.034-1.39-2.743-2.208-2.966,2.2-3.137,3.647-4.242a2.13,2.13,0,0,0,.807-2.668,2.632,2.632,0,0,0-2.168-.966c-.571-.056-1.54.04-2.022-.34-1.317-1.037.7-2.377,1.2-3.073,1.519-2.091-.6-4.455-2.935-3.685a7.75,7.75,0,0,0-1.52.852c-.381.232-1.206.871-1.666.343a11.188,11.188,0,0,0,.194-1.12,3.154,3.154,0,0,0-1.074-2.908c-2.448-1.739-4.032,2.191-4.9,3.72a6.967,6.967,0,0,1-5.982,3.9,22.184,22.184,0,0,0-6.1,1.158c-1.2.452-2.593,1.136-3.044,2.443a2.011,2.011,0,0,0,.415,2.129,4.8,4.8,0,0,0,1.329.835c3.369,1.634,6.714,3.334,10.142,4.841C282.22,351.152,286.24,352.468,290.289,352.137Z" fill="#6faa2e"/>
    <path id="Path_497" data-name="Path 497" d="M281.937,342.361c3.05-.382,5.41-2.7,7.815-4.419a.15.15,0,0,0-.143-.264,15.492,15.492,0,0,0-3.121,2.112,9.739,9.739,0,0,1-5.088,2.232,34.072,34.072,0,0,1-5.21-.067c-.853-.051-1.7-.118-2.555-.187-.31-.025-1.158-.211-1.858-.3.412,0,.829.007.971,0,.659-.048,1.319-.1,1.977-.17a21.334,21.334,0,0,0,4.716-1.005,11.142,11.142,0,0,0,5.876-4.535.148.148,0,0,0-.25-.157c-3.269,4.837-9.457,5.608-14.825,5.82a.1.1,0,0,0-.006.209C274,342.226,278.124,342.839,281.937,342.361Z" fill="#8dbc5a"/>
    <path id="Path_498" data-name="Path 498" d="M281.312,344.816a72.857,72.857,0,0,0,11.6-1.993c.152-.034.094-.256-.056-.232-3.83.612-7.651,1.581-11.529,1.829a37.2,37.2,0,0,1-12.171-1.715c-.145-.039-.215.183-.07.224C273.017,344.033,277.193,345.042,281.312,344.816Z" fill="#8dbc5a"/>
    <path id="Path_499" data-name="Path 499" d="M286.165,349.024a.144.144,0,0,0,.009-.276,28.551,28.551,0,0,1-6.706-2.08,34.266,34.266,0,0,0-5.859-2.393c-.2-.053-.3.255-.1.31a44.334,44.334,0,0,1,7.045,3.058C282.266,348.448,284.241,349.293,286.165,349.024Z" fill="#8dbc5a"/>
    <path id="Path_500" data-name="Path 500" d="M242.256,362.365c3.57,5.636,8.2,10.674,10.568,17,1.173,3.132,1.791,6.437,2.9,9.589.421,1.2,1.245,4.006,3.084,3.533,2.1-.54.383-3.806,2.131-4.658,1.844-.9,3.418,1.836,4.441,2.874.51.516,2.222,2.028,2.859.981a1.64,1.64,0,0,0,.156-.959c-.111-1.8-1.063-3.53-.83-5.344a1.794,1.794,0,0,1,2.575-1.644,15.858,15.858,0,0,0,1.495.677,2.134,2.134,0,0,0,1.6-.2,1.247,1.247,0,0,0,.528-1.407,15.911,15.911,0,0,0-1.59-3.6c-.739-1.624-2.3-4.41.505-4.9,1.09-.19,2.217.107,3.289-.251a3.77,3.77,0,0,0,2.205-4.552c-.515-2.281-2.367-4.129-4.156-5.508a55.371,55.371,0,0,0-7.506-4.543q-2.931-1.59-5.958-2.98a.351.351,0,0,0-.209-.256,80.917,80.917,0,0,0-8.6-3.53,11.149,11.149,0,0,0-6.826-.409,6.645,6.645,0,0,0-4.21,3.69C239.813,358.271,241.041,360.447,242.256,362.365Z" fill="#b5d959"/>
    <path id="Path_501" data-name="Path 501" d="M245.722,356.817c4.689,1.717,8.072,6.364,11.232,10.018,1.666,1.927,3.3,3.878,4.977,5.8a77.393,77.393,0,0,1,4.878,6.665c.111.16.388-.007.3-.18a48.634,48.634,0,0,0-4.886-6.72c-1.75-2.232-3.629-4.371-5.493-6.509-2.869-3.289-5.956-7.311-10.087-9.106,4.762-.129,9.38,2.157,13.466,4.376a58.478,58.478,0,0,1,11.882,8.7c.139.129.368-.11.231-.244a54.337,54.337,0,0,0-12.425-9.038c-4.22-2.257-9.136-4.513-14.03-4.117A.186.186,0,0,0,245.722,356.817Z" fill="#c4e17c"/>
    <path id="Path_502" data-name="Path 502" d="M245.324,358.212a67.978,67.978,0,0,1,9.682,12.173c1.486,2.284,3.041,4.523,4.511,6.818s1.933,5.056,3.423,7.309c.117.176.4-.006.315-.193-1.134-2.389-1.813-4.94-3.249-7.18-1.516-2.363-3.1-4.693-4.687-7.01-2.922-4.271-5.857-8.706-9.862-12.058C245.374,358,245.243,358.135,245.324,358.212Z" fill="#c4e17c"/>
    <path id="Path_503" data-name="Path 503" d="M256.4,382.265a.089.089,0,0,0,.169-.048c-.272-2.186-.665-4.428-1.063-6.6a11.83,11.83,0,0,0-2.1-5.2c-.108-.142-.3.028-.211.172a16.529,16.529,0,0,1,2.176,6.456A22.49,22.49,0,0,0,256.4,382.265Z" fill="#c4e17c"/>
    <path id="Path_504" data-name="Path 504" d="M260.427,365.064a18.114,18.114,0,0,0,4.32,4.155.117.117,0,0,0,.137-.19,37.346,37.346,0,0,1-4.186-4.186A.175.175,0,0,0,260.427,365.064Z" fill="#c4e17c"/>
    <path id="Path_505" data-name="Path 505" d="M237.471,358.277c-7.895,2.433-15.418,6.324-23.748,7.1-4.124.384-8.273.047-12.4.35-1.565.115-5.191.185-5.224,2.536-.038,2.684,4.423,1.7,4.872,4.061.473,2.495-3.305,3.487-4.877,4.372-.782.44-3.147,1.995-2.1,3.1a2.04,2.04,0,0,0,1.1.5c2.182.451,4.564-.122,6.655.746,1.577.655,2.2,2,1.127,3.612a19.1,19.1,0,0,0-1.294,1.566,2.638,2.638,0,0,0-.276,1.971,1.545,1.545,0,0,0,1.51,1.089c1.471.168,3.355-.494,4.813-.731,2.18-.354,6.018-1.315,5.69,2.2-.127,1.363-.848,2.614-.769,4.011.14,2.466,2.4,4.012,4.721,4.114,2.893.127,5.7-1.485,7.931-3.174a68.422,68.422,0,0,0,7.87-7.49q2.852-2.985,5.5-6.15a.436.436,0,0,0,.373-.166,100.34,100.34,0,0,0,7.014-9.125c1.553-2.372,2.85-5.122,2.708-8.023a8.233,8.233,0,0,0-3.039-6.23C243.157,356.691,240.158,357.449,237.471,358.277Z" fill="#5c7811"/>
    <path id="Path_506" data-name="Path 506" d="M242.973,364.223c-3.576,5.043-10.229,7.575-15.622,10.161-2.844,1.364-5.708,2.686-8.547,4.061a96,96,0,0,1-9.549,3.661.216.216,0,0,0,.119.41,60.081,60.081,0,0,0,9.617-3.652c3.236-1.365,6.4-2.914,9.563-4.446,4.863-2.358,10.673-4.739,14.16-9.09-1.394,5.731-5.627,10.505-9.607,14.666a72.474,72.474,0,0,1-14.261,11.366c-.2.124.012.476.217.355A67.219,67.219,0,0,0,233.9,379.809c4.069-4.308,8.363-9.448,9.481-15.424A.229.229,0,0,0,242.973,364.223Z" fill="#7f9443"/>
    <path id="Path_507" data-name="Path 507" d="M241.435,363.293a84.205,84.205,0,0,1-17.691,7.61c-3.212,1.032-6.394,2.162-9.613,3.173s-6.67.665-9.846,1.712c-.248.082-.124.484.128.439,3.223-.578,6.491-.559,9.635-1.547,3.316-1.043,6.615-2.179,9.9-3.32,6.054-2.1,12.307-4.167,17.613-7.862C241.671,363.421,241.554,363.222,241.435,363.293Z" fill="#7f9443"/>
    <path id="Path_508" data-name="Path 508" d="M209.1,368.709a.11.11,0,0,0,0,.217c2.7.386,5.507.646,8.228.876a14.673,14.673,0,0,0,6.894-.82c.205-.083.065-.372-.137-.308a20.475,20.475,0,0,1-8.421.5C213.512,368.947,211.253,368.415,209.1,368.709Z" fill="#7f9443"/>
    <path id="Path_509" data-name="Path 509" d="M228.338,379.11a22.417,22.417,0,0,0-6.369,3.81.145.145,0,0,0,.182.226,46.209,46.209,0,0,1,6.362-3.641A.216.216,0,0,0,228.338,379.11Z" fill="#7f9443"/>
    <path id="Path_510" data-name="Path 510" d="M231.835,339.834c-2.709-6.1-6.552-11.755-7.974-18.36-.7-3.27-.833-6.63-1.473-9.91-.242-1.244-.648-4.146-2.536-3.946-2.156.228-.934,3.71-2.787,4.3-1.955.62-3.114-2.315-3.975-3.49-.428-.585-1.9-2.331-2.685-1.388a1.64,1.64,0,0,0-.294.925c-.152,1.793.537,3.648.042,5.408a1.8,1.8,0,0,1-2.788,1.252,15.377,15.377,0,0,0-1.381-.888,2.129,2.129,0,0,0-1.607-.031,1.248,1.248,0,0,0-.728,1.315,15.932,15.932,0,0,0,1.049,3.789c.494,1.714,1.633,4.7-1.215,4.774-1.106.029-2.178-.429-3.29-.231a3.767,3.767,0,0,0-2.845,4.181c.176,2.332,1.739,4.43,3.307,6.055a55.332,55.332,0,0,0,6.763,5.59q2.669,2,5.459,3.817a.355.355,0,0,0,.17.284,80.985,80.985,0,0,0,7.991,4.747,11.144,11.144,0,0,0,6.694,1.4,6.648,6.648,0,0,0,4.7-3.036C233.654,344.241,232.758,341.909,231.835,339.834Z" fill="#5c7811"/>
    <path id="Path_511" data-name="Path 511" d="M227.6,344.817c-4.388-2.383-7.057-7.473-9.65-11.549-1.367-2.149-2.7-4.319-4.078-6.463a77.311,77.311,0,0,1-3.853-7.306.175.175,0,0,0-.318.136,48.586,48.586,0,0,0,3.853,7.36c1.406,2.463,2.952,4.854,4.485,7.241,2.358,3.672,4.826,8.1,8.65,10.48-4.73-.566-8.965-3.5-12.684-6.294a58.521,58.521,0,0,1-10.485-10.342c-.118-.148-.38.055-.264.208a54.32,54.32,0,0,0,10.974,10.754c3.846,2.848,8.38,5.8,13.279,6.119A.185.185,0,0,0,227.6,344.817Z" fill="#7f9443"/>
    <path id="Path_512" data-name="Path 512" d="M228.194,343.495a67.994,67.994,0,0,1-7.8-13.455c-1.137-2.476-2.349-4.919-3.469-7.4s-1.174-5.284-2.319-7.73c-.09-.191-.4-.054-.34.145.773,2.528,1.073,5.151,2.167,7.577,1.155,2.559,2.383,5.1,3.614,7.618,2.267,4.652,4.524,9.468,8,13.368C228.115,343.7,228.263,343.583,228.194,343.495Z" fill="#7f9443"/>
    <path id="Path_513" data-name="Path 513" d="M220.743,318.083a.089.089,0,0,0-.174.023c-.05,2.2.011,4.478.089,6.682a11.846,11.846,0,0,0,1.32,5.45c.086.156.3.016.234-.14a16.537,16.537,0,0,1-1.211-6.7A22.483,22.483,0,0,0,220.743,318.083Z" fill="#7f9443"/>
    <path id="Path_514" data-name="Path 514" d="M214.252,334.514a18.083,18.083,0,0,0-3.667-4.741.117.117,0,0,0-.164.167,37.441,37.441,0,0,1,3.532,4.752A.174.174,0,0,0,214.252,334.514Z" fill="#7f9443"/>
    <path id="Path_515" data-name="Path 515" d="M245.213,305.734a3.163,3.163,0,0,0-2.431-.076c-.49.18-.912.53-1.4.707-1.441.523-2.44-.225-3.172-1.416-.9-1.464-1.74-3.991-4-3.493a1.821,1.821,0,0,0-1.38,1.386,11.607,11.607,0,0,0-.148,1.442c-.212,1.48-1.229,1.89-2.539,1.543-2.526-.668-3.421-4.394-6.251-4.422-2.013-.019-2.317,2.058-2.025,3.627.338,1.818.736,3.849-1.8,4.136-1.224.138-2.552-.331-3.753-.038-2.021.493-1.441,2.558-.6,3.893,1.335,2.128,4.538,3.958,4.012,6.87-.294,1.626-2.289,1.853-2.784,3.347a3.166,3.166,0,0,0,.438,2.448c1.491,2.742,4.15,5.1,6.42,7.191,2.858,2.634,5.97,4.986,8.739,7.717a40.125,40.125,0,0,1,4.44,5.377c1.158,1.63,1.937,3.65,3.967,4.262a6.862,6.862,0,0,0,5.88-1.123,8.634,8.634,0,0,0,3.521-5.219c.526-2.495-.257-5.012-1.1-7.342-1.172-3.232-2.483-6.412-3.876-9.555a9.325,9.325,0,0,1-1.2-4.435,11.509,11.509,0,0,1,1.567-4.2C247.4,315.122,249.9,307.8,245.213,305.734Z" fill="#6faa2e"/>
    <path id="Path_516" data-name="Path 516" d="M223.646,316.638c.261,5.078,5.2,8.885,8.541,12.135q.864.84,1.679,1.722a29.079,29.079,0,0,1-5.276-1.4,46.438,46.438,0,0,1-5.378-2.679c-.113-.061-.212.111-.116.189a21.228,21.228,0,0,0,11.152,4.311A44.125,44.125,0,0,1,242.76,344.9a.172.172,0,0,0,.322-.12,41.866,41.866,0,0,0-8.182-13.816.154.154,0,0,0-.021-.3l-.29-.047c-.186-.2-.371-.407-.56-.607-1.981-2.092-4.185-3.962-6.11-6.108a18.814,18.814,0,0,1-4.065-7.313C223.816,316.469,223.64,316.52,223.646,316.638Z" fill="#8dbc5a"/>
    <path id="Path_517" data-name="Path 517" d="M228.493,314.8a58.855,58.855,0,0,1,4.619,7.5c1.176,2.457,2.257,4.961,3.372,7.446,2.387,5.317,4.8,10.621,7.207,15.931.081.178.367.074.287-.106-2.486-5.6-4.959-11.207-7.462-16.8-1.179-2.635-2.306-5.3-3.611-7.877a20.113,20.113,0,0,0-4.25-6.25C228.558,314.568,228.423,314.7,228.493,314.8Z" fill="#8dbc5a"/>
    <path id="Path_518" data-name="Path 518" d="M241.231,310.823c-.563,2.667-1.686,5.156-2.193,7.835a27.922,27.922,0,0,0-.344,7.28c.423,5.616,2.243,10.982,4.116,16.251a.137.137,0,0,0,.256-.1c-1.729-5.36-3.571-10.791-3.951-16.45a26.649,26.649,0,0,1,.57-7.891c.53-2.252,1.99-4.568,1.788-6.922A.123.123,0,0,0,241.231,310.823Z" fill="#8dbc5a"/>
    <path id="Path_519" data-name="Path 519" d="M236.35,310.328a23.069,23.069,0,0,0,2.1,8.656.146.146,0,0,0,.273-.1,56.86,56.86,0,0,1-2.153-8.577A.113.113,0,0,0,236.35,310.328Z" fill="#8dbc5a"/>
    <path id="Path_520" data-name="Path 520" d="M255.946,392.857a11.5,11.5,0,0,1-2.055-3.979,9.338,9.338,0,0,1,.662-4.547c1.01-3.286,1.934-6.6,2.713-9.948.562-2.413,1.04-5.005.222-7.42a8.634,8.634,0,0,0-4.116-4.764,6.865,6.865,0,0,0-5.972-.416c-1.943.849-2.476,2.947-3.433,4.7a40.173,40.173,0,0,1-3.769,5.866c-2.425,3.041-5.236,5.746-7.761,8.7-2,2.347-4.365,5-5.52,7.9a3.168,3.168,0,0,0-.144,2.483c.669,1.424,2.677,1.412,3.162,2.992.869,2.828-2.094,5.026-3.167,7.3-.674,1.425-1,3.544,1.06,3.793,1.228.149,2.491-.475,3.722-.483,2.556-.017,2.4,2.047,2.283,3.892-.1,1.593.445,3.619,2.441,3.361,2.807-.363,3.253-4.17,5.681-5.134,1.26-.5,2.318-.213,2.705,1.231a11.478,11.478,0,0,0,.318,1.414,1.821,1.821,0,0,0,1.535,1.213c2.3.226,2.834-2.383,3.553-3.943.585-1.269,1.488-2.131,2.981-1.783.505.117.966.415,1.474.536a3.161,3.161,0,0,0,2.4-.365C261.336,402.858,257.978,395.88,255.946,392.857Z" fill="#6faa2e"/>
    <path id="Path_521" data-name="Path 521" d="M234.216,397.2c-.344-5.073,4.1-9.44,7.039-13.064q.759-.937,1.462-1.91a29.054,29.054,0,0,0-5.072,2.014,46.5,46.5,0,0,0-5.022,3.3c-.1.073-.224-.085-.138-.175a21.227,21.227,0,0,1,10.561-5.6,44.127,44.127,0,0,0,6.791-14.892.172.172,0,0,1,.334.081,41.881,41.881,0,0,1-6.482,14.691.153.153,0,0,1,.014.3l-.283.082c-.159.224-.319.448-.484.669-1.718,2.313-3.684,4.431-5.341,6.791a18.82,18.82,0,0,0-3.167,7.744C234.4,397.345,234.224,397.315,234.216,397.2Z" fill="#8dbc5a"/>
    <path id="Path_522" data-name="Path 522" d="M239.246,398.442a58.978,58.978,0,0,0,3.7-8c.875-2.579,1.651-5.194,2.463-7.793,1.738-5.564,3.508-11.117,5.263-16.675.059-.187.356-.117.3.072-1.8,5.855-3.593,11.716-5.414,17.566-.857,2.756-1.659,5.538-2.649,8.25a20.139,20.139,0,0,1-3.477,6.711A.113.113,0,0,1,239.246,398.442Z" fill="#8dbc5a"/>
    <path id="Path_523" data-name="Path 523" d="M252.368,400.881c-.877-2.581-2.288-4.919-3.109-7.518a27.958,27.958,0,0,1-1.206-7.188c-.248-5.626.922-11.171,2.156-16.625a.136.136,0,0,1,.265.063c-1.08,5.529-2.263,11.139-1.968,16.8a26.622,26.622,0,0,0,1.5,7.767c.794,2.173,2.519,4.3,2.6,6.661A.122.122,0,0,1,252.368,400.881Z" fill="#8dbc5a"/>
    <path id="Path_524" data-name="Path 524" d="M247.58,401.953a23.078,23.078,0,0,1,1.06-8.845.146.146,0,0,1,.284.068,56.72,56.72,0,0,0-1.119,8.772A.113.113,0,0,1,247.58,401.953Z" fill="#8dbc5a"/>
    <path id="Path_525" data-name="Path 525" d="M238.155,347.668c-6.378-1.1-12.963-1.177-19.172-3.148-6.855-2.177-11.764-7.311-17.82-10.9-1.932-1.145-4.533-2.555-6.665-1.051a2.667,2.667,0,0,0-1.188,2.081c-.085,1.489,1.124,3.2-.527,4.248-.977.622-2.183.654-3.1,1.413a4.314,4.314,0,0,0-1.5,2.718c-.292,2.214,1.372,3.842,2.434,5.584a3.262,3.262,0,0,1,.061,3.947c-.593.891-1.351,1.766-1.087,2.916.512,2.237,4.622,2.811,3.189,5.58-.827,1.6-2.919,2.853-2.57,4.9.393,2.3,3.8,3.527,5.615,4.3,13.392,5.713,29.31,1.5,42.064-3.99a.239.239,0,0,0,.128-.124,17.652,17.652,0,0,0,9.012-9.987C249.113,350.167,242.711,348.452,238.155,347.668Z" fill="#6faa2e"/>
    <path id="Path_526" data-name="Path 526" d="M244.709,354.764c-.695.3-1.4.567-2.1.824-7.791.061-15.881-.857-23.082-3.944a27.325,27.325,0,0,1-7.98-5.474c.13-.022.171-.222.018-.248-.114-.019-.228-.041-.342-.06q-.633-.606-1.258-1.236c-2.454-2.48-4.992-5.23-8.373-6.4-.176-.06-.271.219-.112.3,3.5,1.83,6.11,4.44,8.864,7.174-1.922-.348-3.835-.761-5.713-1.292-2.278-.644-4.431-1.643-6.7-2.291-.106-.031-.15.12-.064.173a25.724,25.724,0,0,0,6.394,2.473,41.9,41.9,0,0,0,6.464,1.315l.035.036a27.746,27.746,0,0,0,9.849,6.482,54.759,54.759,0,0,0,20.851,3.393c-11.006,3.705-22.676,2.909-34.092,1.054a.151.151,0,0,0-.224-.175c-.061.037-.122.071-.183.108-3.616-.6-7.206-1.293-10.74-1.984a.208.208,0,0,0-.091.406c3.353.683,6.761,1.363,10.2,1.95-2.629,1.518-5.32,2.71-8.085,4-.13.061-.024.236.1.212a22.011,22.011,0,0,0,8.573-4.113c12.1,2.027,24.518,2.834,36.109-1.527.242-.015.484-.026.724-.044a.153.153,0,0,0,.086-.271c.337-.134.674-.267,1.01-.411C245.108,355.085,244.978,354.65,244.709,354.764Z" fill="#8dbc5a"/>
    <path id="Path_527" data-name="Path 527" d="M206.1,351.938A42.2,42.2,0,0,0,215.81,358a.134.134,0,0,0,.125-.236c-3.344-1.848-6.428-4.063-9.7-6.01A.113.113,0,0,0,206.1,351.938Z" fill="#8dbc5a"/>
    <path id="Path_528" data-name="Path 528" d="M232.592,358.744a60.05,60.05,0,0,1-15.758,5.766c-5.592,1.174-11.067,1.112-16.737.851-.125-.006-.142.2-.02.217a46.394,46.394,0,0,0,16.671-.53,49.211,49.211,0,0,0,16-6.048C232.918,358.9,232.761,358.654,232.592,358.744Z" fill="#8dbc5a"/>
    <path id="Path_529" data-name="Path 529" d="M247.442,323.594a3.7,3.7,0,0,0-1.56-2.828,2.912,2.912,0,0,0-3.37.234,3.512,3.512,0,0,0-1.418,2.574,3.349,3.349,0,0,0,2.059,2.94,3.234,3.234,0,0,0,3.216-.316A2.939,2.939,0,0,0,247.442,323.594Z" fill="#f6e219"/>
    <path id="Path_530" data-name="Path 530" d="M247.442,323.594a3.7,3.7,0,0,0-1.56-2.828,2.912,2.912,0,0,0-3.37.234,3.512,3.512,0,0,0-1.418,2.574,3.349,3.349,0,0,0,2.059,2.94,3.234,3.234,0,0,0,3.216-.316A2.94,2.94,0,0,0,247.442,323.594ZM245,324.667a1.992,1.992,0,0,1-2.018-.663,1.637,1.637,0,0,1,.144-2.192,1.429,1.429,0,0,1,1.267-.376,1.825,1.825,0,0,1,1.616,1.174A1.518,1.518,0,0,1,245,324.667Z" fill="#fae378"/>
    <path id="Path_531" data-name="Path 531" d="M266.942,395.344a3.7,3.7,0,0,0-1.56-2.828,2.912,2.912,0,0,0-3.37.234,3.512,3.512,0,0,0-1.418,2.574,3.349,3.349,0,0,0,2.059,2.94,3.234,3.234,0,0,0,3.216-.316A2.939,2.939,0,0,0,266.942,395.344Z" fill="#f6e219"/>
    <path id="Path_532" data-name="Path 532" d="M266.942,395.344a3.7,3.7,0,0,0-1.56-2.828,2.912,2.912,0,0,0-3.37.234,3.512,3.512,0,0,0-1.418,2.574,3.349,3.349,0,0,0,2.059,2.94,3.234,3.234,0,0,0,3.216-.316A2.94,2.94,0,0,0,266.942,395.344Zm-2.442,1.073a1.992,1.992,0,0,1-2.018-.663,1.637,1.637,0,0,1,.144-2.192,1.429,1.429,0,0,1,1.267-.376,1.825,1.825,0,0,1,1.616,1.174A1.518,1.518,0,0,1,264.5,396.417Z" fill="#fae378"/>
    <path id="Path_533" data-name="Path 533" d="M260.042,394.387c-9.461-3.275-19.032-6.37-28.719-8.912-3.361-.882-6.736-1.726-10.086-2.65-.621-.171-2.425-1.114-2.549.018-1.139,10.414,4.365,21.87,15.463,24.259a26.122,26.122,0,0,0,14.589-.7c5.441-2.062,8.641-6.526,11.522-11.356A.441.441,0,0,0,260.042,394.387Z" fill="#acbbbe" opacity="0.5" style="mix-blend-mode: multiply;isolation: isolate"/>
    <path id="Path_534" data-name="Path 534" d="M258.042,392.387c-9.461-3.275-19.032-6.37-28.719-8.912-3.361-.882-6.736-1.726-10.086-2.65-.621-.171-2.425-1.114-2.549.018-1.139,10.414,4.365,21.87,15.463,24.259a26.122,26.122,0,0,0,14.589-.7c5.441-2.062,8.641-6.526,11.522-11.356A.441.441,0,0,0,258.042,392.387Z" fill="#cf3e32"/>
    <path id="Path_535" data-name="Path 535" d="M223.321,394.787a20.017,20.017,0,0,0,12.725,7.668A18.627,18.627,0,0,0,255.469,391.5c-8.623-2.946-17.336-5.717-26.146-8.029-3.3-.867-6.618-1.7-9.911-2.6C218.064,385.423,220.657,391.35,223.321,394.787Z" fill="#ff6a45"/>
    <path id="Path_536" data-name="Path 536" d="M252.117,391.669a2.974,2.974,0,0,0-1.025-.82c-1.37-.771-9.393-4.148-9.516-.373a7.69,7.69,0,0,0,.139,1.243,2.428,2.428,0,0,1-.342,1.661,2.511,2.511,0,0,1-.763.821c-1.542.984-4.178.211-5.556-.7a4.032,4.032,0,0,1-1.312-1.328c-.877-1.547.217-2.685,1.272-3.737a1.309,1.309,0,0,0-.02-2.094,7.8,7.8,0,0,0-2.621-1.207,74.869,74.869,0,0,0-7.711-2.1c-1.129-.228-2.418-.353-2.716,1.015-1.14,5.236,2.954,10.672,6.931,13.266a18.779,18.779,0,0,0,16.047,1.939,12.367,12.367,0,0,0,1.971-.851,13.571,13.571,0,0,0,4.931-4.556,2.1,2.1,0,0,0,.326-2.125C252.141,391.7,252.129,391.686,252.117,391.669Z" fill="#cf3e32"/>
    <path id="Path_537" data-name="Path 537" d="M230.19,386.884c-.808.026-2.285-.1-2.681.774a.4.4,0,0,0,.152.455,1.447,1.447,0,0,0,1.254.122c.452-.079.9-.186,1.353-.261C230.871,387.875,230.823,386.864,230.19,386.884Z" fill="#fbc532"/>
    <path id="Path_538" data-name="Path 538" d="M229.717,390.079a4.468,4.468,0,0,0-1.056.919c-.3.4.19.813.582.67a4.586,4.586,0,0,0,1.188-.765C230.995,390.473,230.279,389.675,229.717,390.079Z" fill="#fbc532"/>
    <path id="Path_539" data-name="Path 539" d="M232.685,394.246c.254-.726-.8-1.045-1.108-.377-.238.513-.692,1.185-.532,1.771a.5.5,0,0,0,.7.344C232.326,395.642,232.478,394.842,232.685,394.246Z" fill="#fbc532"/>
    <path id="Path_540" data-name="Path 540" d="M237.117,396.431a.54.54,0,0,0-1.021-.347,4.748,4.748,0,0,0-.271.926.52.52,0,0,0,.943.32A4.783,4.783,0,0,0,237.117,396.431Z" fill="#fbc532"/>
    <path id="Path_541" data-name="Path 541" d="M242.075,397.184a3.153,3.153,0,0,0-.369-1.158c-.312-.732-1.463-.174-1.112.547a2.911,2.911,0,0,0,.538.932C241.441,397.783,242.083,397.707,242.075,397.184Z" fill="#fbc532"/>
    <path id="Path_542" data-name="Path 542" d="M245.164,394.843a3.78,3.78,0,0,0-1.035-.715c-.611-.367-1.237.543-.625.921a3.935,3.935,0,0,0,1.113.606A.512.512,0,0,0,245.164,394.843Z" fill="#fbc532"/>
    <path id="Path_543" data-name="Path 543" d="M246.372,391.35c-.6-.233-.895.686-.318.934.442.19.844.446,1.278.65.277.13.764.294.927-.088C248.575,392.1,246.828,391.529,246.372,391.35Z" fill="#fbc532"/>
    <path id="Path_544" data-name="Path 544" d="M219.854,377.449a2.435,2.435,0,0,0,1.274,1.171,5.09,5.09,0,0,0,3.1.218,1.047,1.047,0,0,1,.14.1,4.249,4.249,0,0,0-.073,2.915,3.382,3.382,0,0,0,1.841,1.936,2.619,2.619,0,0,0,1.177.147c.118-.012,1.153-.224,1.123-.374.282,1.386.716,2.942,2.073,3.6a2.31,2.31,0,0,0,2.822-.469c1.09,1.38,3.042,2.508,4.276-.006,2.948-6.007,6.917-10.556,11.56-15.015,1.359-1.3,3.515-3.3,2.227-5.368-1.148-1.848-4.134-.617-5.681-.056-2.685.974-5.2,2.394-7.934,3.231-2.884.883-5.9.86-8.876,1.111-2.486.208-5.205.6-7.318,2.031C220.022,373.678,218.886,375.605,219.854,377.449Z" fill="#b5d959"/>
    <path id="Path_545" data-name="Path 545" d="M234.309,382.868c-.118.215.218.369.341.163a42.837,42.837,0,0,1,14.508-14.753c.122-.075,0-.25-.122-.183A37.733,37.733,0,0,0,234.309,382.868Z" fill="#c4e17c"/>
    <path id="Path_546" data-name="Path 546" d="M225.293,375.053c1.879-.774,3.752-.688,5.737-.9a33.511,33.511,0,0,0,5.38-1.055c.752-.21,1.495-.447,2.233-.7-2.366,2.025-6.029,3.646-6.035,7.123a.108.108,0,0,0,.213.012c.572-3.6,4.121-4.945,6.413-7.336a66.5,66.5,0,0,0,7.835-3.44c.15-.077.021-.343-.132-.268a75.5,75.5,0,0,1-7.449,3.23.11.11,0,0,0-.142.019l-.049.05c-1.153.412-2.319.786-3.5,1.1a32.708,32.708,0,0,1-6.079,1.039c-1.506.1-3.269-.065-4.5.962C225.137,374.95,225.187,375.1,225.293,375.053Z" fill="#c4e17c"/>
    <path id="Path_547" data-name="Path 547" d="M227.147,378.478c-.052.076.033.206.119.135,2.072-1.722,3.812-3.352,6.334-4.442.106-.046.052-.215-.058-.172C231.178,374.92,228.61,376.336,227.147,378.478Z" fill="#c4e17c"/>
    <path id="Path_548" data-name="Path 548" d="M226.442,358.594a3.7,3.7,0,0,0-1.56-2.828,2.912,2.912,0,0,0-3.37.234,3.512,3.512,0,0,0-1.418,2.574,3.349,3.349,0,0,0,2.059,2.94,3.234,3.234,0,0,0,3.216-.316A2.939,2.939,0,0,0,226.442,358.594Z" fill="#f6e219"/>
    <path id="Path_549" data-name="Path 549" d="M226.442,358.594a3.7,3.7,0,0,0-1.56-2.828,2.912,2.912,0,0,0-3.37.234,3.512,3.512,0,0,0-1.418,2.574,3.349,3.349,0,0,0,2.059,2.94,3.234,3.234,0,0,0,3.216-.316A2.94,2.94,0,0,0,226.442,358.594ZM224,359.667a1.992,1.992,0,0,1-2.018-.663,1.637,1.637,0,0,1,.144-2.192,1.429,1.429,0,0,1,1.267-.376,1.825,1.825,0,0,1,1.616,1.174A1.518,1.518,0,0,1,224,359.667Z" fill="#fae378"/>
    <path id="Path_550" data-name="Path 550" d="M251.442,356.844a3.7,3.7,0,0,0-1.56-2.828,2.912,2.912,0,0,0-3.37.234,3.512,3.512,0,0,0-1.418,2.574,3.349,3.349,0,0,0,2.059,2.94,3.234,3.234,0,0,0,3.216-.316A2.939,2.939,0,0,0,251.442,356.844Z" fill="#f6e219"/>
    <path id="Path_551" data-name="Path 551" d="M251.442,356.844a3.7,3.7,0,0,0-1.56-2.828,2.912,2.912,0,0,0-3.37.234,3.512,3.512,0,0,0-1.418,2.574,3.349,3.349,0,0,0,2.059,2.94,3.234,3.234,0,0,0,3.216-.316A2.94,2.94,0,0,0,251.442,356.844ZM249,357.917a1.992,1.992,0,0,1-2.018-.663,1.637,1.637,0,0,1,.144-2.192,1.429,1.429,0,0,1,1.267-.376,1.825,1.825,0,0,1,1.616,1.174A1.518,1.518,0,0,1,249,357.917Z" fill="#fae378"/>
    <path id="Path_552" data-name="Path 552" d="M254.942,340.094a3.7,3.7,0,0,0-1.56-2.828,2.912,2.912,0,0,0-3.37.234,3.512,3.512,0,0,0-1.418,2.574,3.349,3.349,0,0,0,2.059,2.94,3.234,3.234,0,0,0,3.216-.316A2.939,2.939,0,0,0,254.942,340.094Z" fill="#f6e219"/>
    <path id="Path_553" data-name="Path 553" d="M254.942,340.094a3.7,3.7,0,0,0-1.56-2.828,2.912,2.912,0,0,0-3.37.234,3.512,3.512,0,0,0-1.418,2.574,3.349,3.349,0,0,0,2.059,2.94,3.234,3.234,0,0,0,3.216-.316A2.94,2.94,0,0,0,254.942,340.094Zm-2.442,1.073a1.992,1.992,0,0,1-2.018-.663,1.637,1.637,0,0,1,.144-2.192,1.429,1.429,0,0,1,1.267-.376,1.825,1.825,0,0,1,1.616,1.174A1.518,1.518,0,0,1,252.5,341.167Z" fill="#fae378"/>
    <path id="Path_554" data-name="Path 554" d="M268.683,334.984a3.7,3.7,0,0,0-1.56-2.827,2.91,2.91,0,0,0-3.37.233,3.511,3.511,0,0,0-1.417,2.574,3.349,3.349,0,0,0,2.058,2.941,3.237,3.237,0,0,0,3.216-.317A2.938,2.938,0,0,0,268.683,334.984Z" fill="#f6e219"/>
    <path id="Path_555" data-name="Path 555" d="M268.683,334.984a3.7,3.7,0,0,0-1.56-2.827,2.91,2.91,0,0,0-3.37.233,3.511,3.511,0,0,0-1.417,2.574,3.349,3.349,0,0,0,2.058,2.941,3.237,3.237,0,0,0,3.216-.317A2.938,2.938,0,0,0,268.683,334.984Zm-2.442,1.073a1.993,1.993,0,0,1-2.018-.663,1.637,1.637,0,0,1,.144-2.192,1.429,1.429,0,0,1,1.267-.376A1.826,1.826,0,0,1,267.25,334,1.518,1.518,0,0,1,266.241,336.057Z" fill="#fae378"/>
    <path id="Path_556" data-name="Path 556" d="M277.942,355.927a3.7,3.7,0,0,0-1.56-2.827,2.912,2.912,0,0,0-3.37.233,3.514,3.514,0,0,0-1.418,2.574,3.352,3.352,0,0,0,2.059,2.941,3.237,3.237,0,0,0,3.216-.317A2.938,2.938,0,0,0,277.942,355.927Z" fill="#f6e219"/>
    <path id="Path_557" data-name="Path 557" d="M277.942,355.927a3.7,3.7,0,0,0-1.56-2.827,2.912,2.912,0,0,0-3.37.233,3.514,3.514,0,0,0-1.418,2.574,3.352,3.352,0,0,0,2.059,2.941,3.237,3.237,0,0,0,3.216-.317A2.938,2.938,0,0,0,277.942,355.927ZM275.5,357a1.991,1.991,0,0,1-2.018-.663,1.637,1.637,0,0,1,.144-2.192,1.432,1.432,0,0,1,1.267-.376,1.826,1.826,0,0,1,1.616,1.174A1.518,1.518,0,0,1,275.5,357Z" fill="#fae378"/>
    <path id="Path_558" data-name="Path 558" d="M265.566,376.532a3.7,3.7,0,0,0-1.56-2.827,2.914,2.914,0,0,0-3.37.233,3.517,3.517,0,0,0-1.418,2.575,3.351,3.351,0,0,0,2.059,2.94,3.237,3.237,0,0,0,3.216-.317A2.938,2.938,0,0,0,265.566,376.532Z" fill="#f6e219"/>
    <path id="Path_559" data-name="Path 559" d="M265.566,376.532a3.7,3.7,0,0,0-1.56-2.827,2.914,2.914,0,0,0-3.37.233,3.517,3.517,0,0,0-1.418,2.575,3.351,3.351,0,0,0,2.059,2.94,3.237,3.237,0,0,0,3.216-.317A2.938,2.938,0,0,0,265.566,376.532Zm-2.442,1.073a1.989,1.989,0,0,1-2.018-.663,1.637,1.637,0,0,1,.144-2.192,1.432,1.432,0,0,1,1.267-.376,1.826,1.826,0,0,1,1.616,1.174A1.518,1.518,0,0,1,263.124,377.605Z" fill="#fae378"/>
    <path id="Path_560" data-name="Path 560" d="M243.316,375.032a3.7,3.7,0,0,0-1.56-2.827,2.914,2.914,0,0,0-3.37.233,3.517,3.517,0,0,0-1.418,2.575,3.351,3.351,0,0,0,2.059,2.94,3.237,3.237,0,0,0,3.216-.317A2.938,2.938,0,0,0,243.316,375.032Z" fill="#f6e219"/>
    <path id="Path_561" data-name="Path 561" d="M243.316,375.032a3.7,3.7,0,0,0-1.56-2.827,2.914,2.914,0,0,0-3.37.233,3.517,3.517,0,0,0-1.418,2.575,3.351,3.351,0,0,0,2.059,2.94,3.237,3.237,0,0,0,3.216-.317A2.938,2.938,0,0,0,243.316,375.032Zm-2.442,1.073a1.989,1.989,0,0,1-2.018-.663A1.637,1.637,0,0,1,239,373.25a1.432,1.432,0,0,1,1.267-.376,1.826,1.826,0,0,1,1.616,1.174A1.518,1.518,0,0,1,240.874,376.105Z" fill="#fae378"/>
    <path id="Path_562" data-name="Path 562" d="M284.692,336.677a3.7,3.7,0,0,0-1.56-2.827,2.912,2.912,0,0,0-3.37.233,3.514,3.514,0,0,0-1.418,2.574A3.352,3.352,0,0,0,280.4,339.6a3.237,3.237,0,0,0,3.216-.317A2.938,2.938,0,0,0,284.692,336.677Z" fill="#f6e219"/>
    <path id="Path_563" data-name="Path 563" d="M284.692,336.677a3.7,3.7,0,0,0-1.56-2.827,2.912,2.912,0,0,0-3.37.233,3.514,3.514,0,0,0-1.418,2.574A3.352,3.352,0,0,0,280.4,339.6a3.237,3.237,0,0,0,3.216-.317A2.938,2.938,0,0,0,284.692,336.677Zm-2.442,1.073a1.991,1.991,0,0,1-2.018-.663,1.637,1.637,0,0,1,.144-2.192,1.432,1.432,0,0,1,1.267-.376,1.826,1.826,0,0,1,1.616,1.174A1.518,1.518,0,0,1,282.25,337.75Z" fill="#fae378"/>
    <path id="Path_564" data-name="Path 564" d="M238.245,351.872A16.974,16.974,0,0,0,225.02,338.8c-5.319-1.217-11.417-1.051-16.007,2.207-5.377,3.816-7.374,10.516-6.5,16.865A18.233,18.233,0,0,0,223.329,373.8C233.809,372.312,240.379,362.111,238.245,351.872Zm-14.258,19.793a16.232,16.232,0,0,1-19.4-12.889,17.866,17.866,0,0,1,1.9-12.432c6.645-11.455,26-6.885,29.429,4.95C238.483,360.162,233.092,369.751,223.987,371.665Z" fill="#fef7d8"/>
    <path id="Path_565" data-name="Path 565" d="M293.969,325.4a.5.5,0,0,0-.686.166,1.463,1.463,0,0,0-.141.844,16.547,16.547,0,0,1-4.422,11.7,15.586,15.586,0,0,1-11.482,4.852,14.728,14.728,0,0,1-11.128-5.513,15.662,15.662,0,0,1-3.163-8.21,19.655,19.655,0,0,1,1.294-8.748c.051-.137-.615-.221-.684-.23-.459-.061-.663-.048-.869.411a17.807,17.807,0,0,0-1.571,8.353,16.846,16.846,0,0,0,1.7,6.471,17.041,17.041,0,0,0,12.117,9.075,16.863,16.863,0,0,0,14.454-4.46,16.687,16.687,0,0,0,4.739-14.351.66.66,0,0,0-.106-.31A.312.312,0,0,0,293.969,325.4Z" fill="#fef7d8"/>
    <path id="Path_566" data-name="Path 566" d="M244.217,310.392a.556.556,0,0,0-.149.768,1.613,1.613,0,0,0,.786.53,18.334,18.334,0,0,1,9.75,9.839,17.254,17.254,0,0,1-.4,13.8A16.307,16.307,0,0,1,243.532,344a17.343,17.343,0,0,1-9.726-.593,21.773,21.773,0,0,1-8.217-5.329c-.114-.114-.505.517-.546.583-.273.435-.353.646.015,1.065a19.712,19.712,0,0,0,7.691,5.426,18.636,18.636,0,0,0,7.3,1.271,18.879,18.879,0,0,0,14.718-8.03,18.674,18.674,0,0,0,2.159-16.613A18.482,18.482,0,0,0,244.649,310.4a.744.744,0,0,0-.361-.035A.393.393,0,0,0,244.217,310.392Z" fill="#fef7d8"/>
    <path id="Path_567" data-name="Path 567" d="M246.461,383.748a.5.5,0,0,0,.7-.093,1.462,1.462,0,0,0,.228-.824,16.557,16.557,0,0,1,5.627-11.171,15.581,15.581,0,0,1,11.927-3.618,14.722,14.722,0,0,1,10.488,6.651,15.658,15.658,0,0,1,2.283,8.5,19.674,19.674,0,0,1-2.2,8.564c-.065.13.588.284.656.3.45.109.654.117.907-.318a17.8,17.8,0,0,0,2.44-8.141,16.869,16.869,0,0,0-1.006-6.614,17.042,17.042,0,0,0-11.1-10.3,16.859,16.859,0,0,0-14.842,2.917,16.686,16.686,0,0,0-6.221,13.774.668.668,0,0,0,.073.319A.279.279,0,0,0,246.461,383.748Z" fill="#fef7d8"/>
    <path id="Path_568" data-name="Path 568" d="M262.355,352.374q-.27.129-.522.27c-3.657,2.034-3.389,6.27-2.7,9.906a49.262,49.262,0,0,0,3.495,10.2c1.542,3.572,3.353,8.256,6.309,10.947,1.7,1.544,2.5-2.979,2.662-3.794a63.421,63.421,0,0,0,.988-6.884,53.165,53.165,0,0,0-.86-16.836C270.62,351.574,266.453,350.415,262.355,352.374Z" fill="#acbbbe" opacity="0.5" style="mix-blend-mode: multiply;isolation: isolate"/>
    <path id="Path_569" data-name="Path 569" d="M260.355,350.374q-.27.129-.522.27c-3.657,2.034-3.389,6.27-2.7,9.906a49.262,49.262,0,0,0,3.495,10.2c1.542,3.572,3.353,8.256,6.309,10.947,1.7,1.544,2.5-2.979,2.662-3.794a63.421,63.421,0,0,0,.988-6.884,53.165,53.165,0,0,0-.86-16.836C268.62,349.574,264.453,348.415,260.355,350.374Z" fill="#ff9c30"/>
    <path id="Path_570" data-name="Path 570" d="M269.727,354.187c-1.107-4.613-5.274-5.772-9.372-3.813-.179.086-.354.176-.522.269-3.657,2.035-3.389,6.271-2.7,9.907a49.206,49.206,0,0,0,3.5,10.2c1.541,3.572,3.352,8.256,6.308,10.947,1.7,1.544,2.5-2.979,2.662-3.795a63.367,63.367,0,0,0,.988-6.883A53.165,53.165,0,0,0,269.727,354.187Zm-5.085,20.968c-1.781-.881-3.089-4.509-3.962-6.89a43.843,43.843,0,0,1-2.437-9.072c-.291-2.119-.18-4.8,1.034-6.653a3.98,3.98,0,0,1,5.369-1.007c1.5,1.137,1.792,3.466,2.073,4.768C267.377,359.357,268.294,376.96,264.642,375.155Z" fill="#f5d7c1" style="mix-blend-mode: multiply;isolation: isolate"/>
    <path id="Path_571" data-name="Path 571" d="M260.725,352.86c-1.131,1.554-1.108,3.348-1.112,5.209,0,1.671-.227,4.051.987,5.34a.54.54,0,0,0,.911-.125c.619-1.3.13-2.774.034-4.168-.122-1.791-.4-3.895.344-5.587A.68.68,0,0,0,260.725,352.86Z" fill="#ffaf58"/>
    <path id="Path_572" data-name="Path 572" d="M262.331,365.426c-.191-.822-1.46-.682-1.324.182.092.577.3,2.19,1.242,1.971S262.449,365.933,262.331,365.426Z" fill="#ffaf58"/>
    <path id="Path_573" data-name="Path 573" d="M263.127,369.028a.422.422,0,1,0-.81.224,4.887,4.887,0,0,0,1.044,2.273c.081.083.267.073.272-.074A8.271,8.271,0,0,0,263.127,369.028Z" fill="#ffaf58"/>
    <path id="Path_574" data-name="Path 574" d="M211.949,376.2a4.177,4.177,0,0,0-2.5-1.4,4.91,4.91,0,0,0-4.243,1.47,4.366,4.366,0,0,0-.87,4.652,4.187,4.187,0,0,0,6.279,1.771C212.648,381.235,213.619,378.279,211.949,376.2Zm-2.251,3.172a1.383,1.383,0,0,1-.1.294,1.485,1.485,0,0,1-.721.716.99.99,0,0,1-1.348-.372c-.287-.557-.376-1.692.275-2.1a1.53,1.53,0,0,1,1.3-.073A1.3,1.3,0,0,1,209.7,379.376Z" fill="#5c483c"/>
    <path id="Path_575" data-name="Path 575" d="M261.449,343.2a4.177,4.177,0,0,0-2.5-1.4,4.91,4.91,0,0,0-4.243,1.47,4.366,4.366,0,0,0-.87,4.652,4.187,4.187,0,0,0,6.279,1.771C262.148,348.235,263.119,345.279,261.449,343.2Zm-2.251,3.172a1.382,1.382,0,0,1-.1.294,1.485,1.485,0,0,1-.721.716.99.99,0,0,1-1.348-.372c-.287-.557-.376-1.692.275-2.1a1.53,1.53,0,0,1,1.3-.073A1.3,1.3,0,0,1,259.2,346.376Z" fill="#5c483c"/>
    <path id="Path_576" data-name="Path 576" d="M258.323,371.568a4.176,4.176,0,0,0-2.5-1.4,4.906,4.906,0,0,0-4.243,1.469,4.368,4.368,0,0,0-.87,4.652,4.186,4.186,0,0,0,6.279,1.771C259.022,376.6,259.993,373.643,258.323,371.568Zm-2.251,3.172a1.372,1.372,0,0,1-.1.3,1.487,1.487,0,0,1-.721.715.991.991,0,0,1-1.348-.371c-.287-.557-.376-1.692.275-2.1a1.526,1.526,0,0,1,1.3-.074A1.3,1.3,0,0,1,256.072,374.74Z" fill="#5c483c"/>
    <path id="Path_577" data-name="Path 577" d="M237.968,331.56c-.607-.638-1.839-2.121-2.924-1.928-1.188.212-1.041,1.949-1.262,2.8-.923,3.58-3.825.255-5.592-.175a2.13,2.13,0,0,0-2.583,1.047,2.627,2.627,0,0,0,.61,2.294c.314.48,1,1.173,1,1.787.02,1.676-2.287.95-3.146.993-2.582.131-3.092,3.264-1.026,4.6a7.711,7.711,0,0,0,1.617.649c.42.151,1.435.392,1.314,1.082a11.012,11.012,0,0,0-.994.552,3.151,3.151,0,0,0-1.589,2.661c.183,3,4.237,1.762,5.971,1.478a6.966,6.966,0,0,1,6.789,2.208,22.2,22.2,0,0,0,4.731,4.02c1.1.649,2.512,1.306,3.813.836a2.008,2.008,0,0,0,1.4-1.66,4.781,4.781,0,0,0-.184-1.559c-.844-3.647-1.621-7.318-2.6-10.932C242.269,338.459,240.768,334.5,237.968,331.56Z" fill="#b5d959"/>
    <path id="Path_578" data-name="Path 578" d="M235.6,344.2c-2.212-2.134-5.5-2.513-8.345-3.308a.15.15,0,0,0-.116.277,15.446,15.446,0,0,0,3.6,1.1,9.746,9.746,0,0,1,4.932,2.56,34.091,34.091,0,0,1,3.218,4.1c.5.7.978,1.4,1.459,2.105.175.258.563,1.035.936,1.633-.257-.322-.516-.649-.613-.753-.451-.483-.9-.967-1.373-1.432a21.357,21.357,0,0,0-3.744-3.04,11.145,11.145,0,0,0-7.219-1.727.149.149,0,0,0,.035.295c5.817-.493,10.3,3.839,13.837,7.884a.1.1,0,0,0,.167-.126C240.479,350.459,238.369,346.867,235.6,344.2Z" fill="#c4e17c"/>
    <path id="Path_579" data-name="Path 579" d="M237.907,343.144a72.833,72.833,0,0,0-8.833-7.776c-.121-.1-.258.088-.145.19,2.881,2.6,6.034,4.962,8.661,7.825,2.838,3.091,4.629,6.739,6.308,10.55.06.137.277.052.217-.087C242.505,350.092,240.669,346.207,237.907,343.144Z" fill="#c4e17c"/>
    <path id="Path_580" data-name="Path 580" d="M238.135,336.724a.144.144,0,0,0-.22.166,28.535,28.535,0,0,1,2.59,6.526,34.427,34.427,0,0,0,1.817,6.063c.085.19.385.072.3-.12a44.32,44.32,0,0,1-2.043-7.4C240.134,340.121,239.552,338.053,238.135,336.724Z" fill="#c4e17c"/>
    <path id="Path_581" data-name="Path 581" d="M224.28,320.349c-.189-.06-.378-.113-.565-.16-4.06-1.017-6.761,2.257-8.744,5.381a49.181,49.181,0,0,0-4.429,9.835c-1.318,3.66-3.2,8.316-2.883,12.3.181,2.286,3.86-.464,4.537-.947a63.522,63.522,0,0,0,5.428-4.347,53.143,53.143,0,0,0,10.886-12.871C230.858,325.418,228.61,321.722,224.28,320.349Z" fill="#acbbbe" opacity="0.5" style="mix-blend-mode: multiply;isolation: isolate"/>
    <path id="Path_582" data-name="Path 582" d="M222.28,318.349c-.189-.06-.378-.113-.565-.16-4.06-1.017-6.761,2.257-8.744,5.381a49.181,49.181,0,0,0-4.429,9.835c-1.318,3.66-3.2,8.316-2.883,12.3.181,2.286,3.86-.464,4.537-.947a63.522,63.522,0,0,0,5.428-4.347,53.143,53.143,0,0,0,10.886-12.871C228.858,323.418,226.61,319.722,222.28,318.349Z" fill="#ff9c30"/>
    <path id="Path_583" data-name="Path 583" d="M226.51,327.541c2.348-4.123.1-7.819-4.23-9.192-.189-.06-.378-.113-.564-.16-4.061-1.017-6.762,2.257-8.745,5.381a49.181,49.181,0,0,0-4.429,9.835c-1.318,3.66-3.2,8.316-2.883,12.3.181,2.286,3.86-.464,4.537-.947a63.522,63.522,0,0,0,5.428-4.347A53.143,53.143,0,0,0,226.51,327.541Zm-18.049,11.82c-.7-1.861.83-5.4,1.821-7.737a43.8,43.8,0,0,1,4.426-8.285c1.237-1.745,3.152-3.626,5.305-4.147a3.979,3.979,0,0,1,4.6,2.937c.315,1.854-1.062,3.755-1.748,4.9C221.26,329.7,209.891,343.175,208.461,339.361Z" fill="#f5d7c1" style="mix-blend-mode: multiply;isolation: isolate"/>
    <path id="Path_584" data-name="Path 584" d="M220.85,320.416c-1.888.36-3.1,1.685-4.373,3.04-1.146,1.217-2.937,2.8-2.933,4.57a.541.541,0,0,0,.751.533c1.34-.525,1.992-1.936,2.876-3.018,1.135-1.391,2.369-3.117,4.071-3.84A.68.68,0,0,0,220.85,320.416Z" fill="#ffaf58"/>
    <path id="Path_585" data-name="Path 585" d="M213.428,330.683c.423-.731-.6-1.5-1.09-.774-.328.484-1.281,1.8-.442,2.288S213.167,331.133,213.428,330.683Z" fill="#ffaf58"/>
    <path id="Path_586" data-name="Path 586" d="M211.546,333.854a.422.422,0,1,0-.745-.39,4.9,4.9,0,0,0-.793,2.372c0,.116.145.236.25.133A8.3,8.3,0,0,0,211.546,333.854Z" fill="#ffaf58"/>
    <path id="Path_587" data-name="Path 587" d="M226.7,343.7a4.177,4.177,0,0,0-2.5-1.4,4.91,4.91,0,0,0-4.243,1.47,4.366,4.366,0,0,0-.87,4.652,4.187,4.187,0,0,0,6.279,1.771C227.4,348.735,228.369,345.779,226.7,343.7Zm-2.251,3.172a1.383,1.383,0,0,1-.1.294,1.485,1.485,0,0,1-.721.716.99.99,0,0,1-1.348-.372c-.287-.557-.376-1.692.275-2.1a1.53,1.53,0,0,1,1.3-.073A1.3,1.3,0,0,1,224.448,346.876Z" fill="#5c483c"/>
    <path id="Path_588" data-name="Path 588" d="M244.751,361.078a4.187,4.187,0,0,0-2.5-1.4,4.911,4.911,0,0,0-4.244,1.47,4.368,4.368,0,0,0-.87,4.652,4.187,4.187,0,0,0,6.279,1.771C245.45,366.109,246.421,363.153,244.751,361.078ZM242.5,364.25a1.364,1.364,0,0,1-.1.294,1.491,1.491,0,0,1-.722.716.991.991,0,0,1-1.348-.371c-.286-.558-.376-1.692.275-2.1a1.527,1.527,0,0,1,1.3-.074A1.3,1.3,0,0,1,242.5,364.25Z" fill="#5c483c"/>
    <path id="Path_589" data-name="Path 589" d="M268.5,323.828a4.187,4.187,0,0,0-2.5-1.4,4.911,4.911,0,0,0-4.244,1.47,4.368,4.368,0,0,0-.87,4.652,4.187,4.187,0,0,0,6.279,1.771C269.2,328.859,270.171,325.9,268.5,323.828ZM266.25,327a1.363,1.363,0,0,1-.1.294,1.491,1.491,0,0,1-.722.716.991.991,0,0,1-1.348-.371c-.286-.558-.376-1.692.275-2.1a1.527,1.527,0,0,1,1.3-.074A1.3,1.3,0,0,1,266.25,327Z" fill="#5c483c"/>
  </g>
</svg>
