<svg xmlns="http://www.w3.org/2000/svg" width="112.062" height="109.61" viewBox="0 0 112.062 109.61">
  <g id="Group_248" data-name="Group 248" transform="translate(-353.562 -295.774)">
    <path id="Path_1" data-name="Path 1" d="M361.667,359.5A50.319,50.319,0,0,1,446.641,323,50.321,50.321,0,1,0,372.359,390.5,50.1,50.1,0,0,1,361.667,359.5Z" fill="#eaebe3" style="mix-blend-mode: multiply;isolation: isolate"/>
    <path id="Path_2" data-name="Path 2" d="M409.626,298.922c-.333-.106-.671-.2-1.01-.273-17.69-4-35.741,9.111-43.834,24.057a20.362,20.362,0,0,0-2.8,9.49,8.494,8.494,0,0,0,1.631,5.436c5.174,6.479,12.507-2.485,15.242-6.656,5.077-7.741,10.367-14.256,19.624-17.072,3.7-1.126,7.664-1.1,11.3-2.512,4.058-1.572,7.434-5.836,3.962-9.9A8.839,8.839,0,0,0,409.626,298.922Z" fill="#acbbbe" opacity="0.5" style="mix-blend-mode: multiply;isolation: isolate"/>
    <path id="Path_3" data-name="Path 3" d="M409.627,296.775q-.5-.157-1.011-.273c-17.69-4-35.74,9.111-43.834,24.057a20.35,20.35,0,0,0-2.8,9.49,8.494,8.494,0,0,0,1.63,5.436c5.174,6.48,12.508-2.485,15.243-6.656,5.076-7.741,10.367-14.256,19.623-17.072,3.7-1.126,7.664-1.1,11.3-2.512,4.058-1.572,7.434-5.836,3.962-9.9A8.849,8.849,0,0,0,409.627,296.775Z" fill="#a7623a"/>
    <path id="Path_4" data-name="Path 4" d="M413.734,299.346a8.84,8.84,0,0,0-4.107-2.571q-.5-.157-1.011-.273a29.536,29.536,0,0,0-4.211-.625,14.028,14.028,0,0,0-.242,2.545,27.447,27.447,0,0,1,.091,3.886.417.417,0,0,1-.751.13c-1.217-1.808-1.01-4.379-.408-6.636a32.321,32.321,0,0,0-8.78.933,17.263,17.263,0,0,0,.8,8.174.251.251,0,0,1-.354.3c-1.634-.855-1.757-2.9-1.749-4.565a24.589,24.589,0,0,1,.251-3.629,40.271,40.271,0,0,0-8.628,3.536,18.4,18.4,0,0,0,0,3.377c.152,1.621.852,3.281.716,4.9a.331.331,0,0,1-.55.255c-1.861-1.732-2-4.918-1.593-7.714A49.484,49.484,0,0,0,375.588,307a21.1,21.1,0,0,0,.3,4.1c.3,1.725,1.03,3.333,1.281,5.06.053.364-.423.412-.6.191-1.771-2.168-2.185-5.4-2.022-8.4a52.451,52.451,0,0,0-6.365,7.228,19.156,19.156,0,0,0,.355,3.969c.279,1.415,1.013,2.778,1.06,4.217a.324.324,0,0,1-.538.25c-1.6-1.52-2.027-4.279-2.018-6.793-.819,1.226-1.578,2.472-2.261,3.733a20.362,20.362,0,0,0-2.8,9.49,8.5,8.5,0,0,0,1.631,5.436c5.174,6.48,12.508-2.485,15.243-6.656,5.076-7.741,10.367-14.256,19.623-17.072,3.7-1.125,7.664-1.1,11.3-2.512C413.83,307.673,417.206,303.409,413.734,299.346Z" fill="none"/>
    <path id="Path_5" data-name="Path 5" d="M369.061,323.619a.324.324,0,0,0,.538-.25c-.047-1.439-.781-2.8-1.06-4.217a19.156,19.156,0,0,1-.355-3.969c-.394.542-.772,1.091-1.141,1.643C367.034,319.34,367.461,322.1,369.061,323.619Z" fill="#7a2900"/>
    <path id="Path_6" data-name="Path 6" d="M376.571,316.355c.18.221.656.173.6-.191-.251-1.727-.977-3.335-1.281-5.06a21.1,21.1,0,0,1-.3-4.1q-.527.471-1.039.955C374.386,310.954,374.8,314.187,376.571,316.355Z" fill="#7a2900"/>
    <path id="Path_7" data-name="Path 7" d="M384.8,309.079a.331.331,0,0,0,.55-.255c.136-1.62-.564-3.28-.716-4.9a18.4,18.4,0,0,1,0-3.377q-.722.4-1.43.819C382.8,304.161,382.937,307.347,384.8,309.079Z" fill="#7a2900"/>
    <path id="Path_8" data-name="Path 8" d="M394.761,305.2a.251.251,0,0,0,.354-.3,17.263,17.263,0,0,1-.8-8.174q-.528.129-1.052.275a24.589,24.589,0,0,0-.251,3.629C393,302.3,393.127,304.349,394.761,305.2Z" fill="#7a2900"/>
    <path id="Path_9" data-name="Path 9" d="M403.5,302.438a.417.417,0,0,0,.751-.13,27.447,27.447,0,0,0-.091-3.886,14.028,14.028,0,0,1,.242-2.545c-.437-.034-.874-.06-1.31-.075C402.493,298.059,402.286,300.63,403.5,302.438Z" fill="#7a2900"/>
    <path id="Path_10" data-name="Path 10" d="M414.4,300.279a5.828,5.828,0,0,1-.741,1.722c-1.605,2.483-4.85,3.2-7.757,3.744-6.074,1.137-12.315,2.529-17.321,6.154-4.91,3.557-8.144,8.9-11.926,13.642-2.065,2.588-4.463,5.117-7.6,6.179a7.963,7.963,0,0,1-7.059-.888,8.125,8.125,0,0,0,1.613,4.653c5.174,6.48,12.508-2.485,15.243-6.656,5.076-7.741,10.367-14.256,19.623-17.072,3.7-1.125,7.664-1.1,11.3-2.512C413.52,307.793,416.674,304.044,414.4,300.279Z" fill="#d5bf9e" style="mix-blend-mode: multiply;isolation: isolate"/>
    <path id="Path_11" data-name="Path 11" d="M361.662,336.711s-3.441,4.952-2.127,6.075,22.7,9.732,25.76,10.742,7.883,2.171,7.883,2.171,1.889-5.271-.288-6.789S361.662,336.711,361.662,336.711Z" fill="#acbbbe" opacity="0.5" style="mix-blend-mode: multiply;isolation: isolate"/>
    <path id="Path_12" data-name="Path 12" d="M363.951,334.784s-3.756,4.717-2.518,5.924,22.015,11.19,25,12.4,7.725,2.68,7.725,2.68,2.229-5.136.155-6.793S363.951,334.784,363.951,334.784Z" fill="#fbc532"/>
    <path id="Path_13" data-name="Path 13" d="M370.575,344.263c-3.58-2.052-6.975-4.645-7.384-8.452-1.025,1.458-2.63,4.047-1.758,4.9,1.238,1.206,22.015,11.19,25,12.4s7.725,2.68,7.725,2.68.115-.269.266-.691C386.52,351.438,378.087,348.568,370.575,344.263Z" fill="#fcd66d" opacity="0.5" style="mix-blend-mode: multiply;isolation: isolate"/>
    <path id="Path_14" data-name="Path 14" d="M377.871,342.967c-1.654-1.013-3.6-1.5-5.331-2.436a39.41,39.41,0,0,0-5.292-2.526c-.135-.049-.277.125-.147.226a20.473,20.473,0,0,0,5.173,2.855c.9.356,1.891.62,2.767,1.011a12.418,12.418,0,0,0,2.73,1.174A.162.162,0,0,0,377.871,342.967Z" fill="#fcd057"/>
    <path id="Path_15" data-name="Path 15" d="M393.359,350.385a51.844,51.844,0,0,0-7.04-3.437,66.22,66.22,0,0,0-6.376-2.749c-.386-.12-.5.443-.2.623a32.506,32.506,0,0,0,3.587,1.579c1.186.551,2.306,1.221,3.5,1.756a52.8,52.8,0,0,0,6.385,2.675C393.492,350.915,393.566,350.516,393.359,350.385Z" fill="#fcd057"/>
    <path id="Path_16" data-name="Path 16" d="M365.185,392.445s3.9,4.839,6.306,3.318,27.291-24.809,26.753-27-3.988-2.536-3.988-2.536-29.387,20.377-30.338,21.539S365.185,392.445,365.185,392.445Z" fill="#acbbbe" opacity="0.5" style="mix-blend-mode: multiply;isolation: isolate"/>
    <path id="Path_17" data-name="Path 17" d="M363.773,389.8s3.574,5.083,6.076,3.723,28.851-22.978,28.456-25.2-3.813-2.791-3.813-2.791-30.654,18.419-31.678,19.516S363.773,389.8,363.773,389.8Z" fill="#f0b129"/>
    <path id="Path_18" data-name="Path 18" d="M388.353,374.085c-3.333,2.912-6.4,6.107-9.77,8.984-2.836,2.425-8.088,8-12.7,9.114,1.2,1.094,2.715,2.015,3.961,1.338,2.5-1.361,28.851-22.978,28.456-25.2a2.386,2.386,0,0,0-.482-1.056A96.927,96.927,0,0,0,388.353,374.085Z" fill="#edbb95" opacity="0.5" style="mix-blend-mode: multiply;isolation: isolate"/>
    <path id="Path_19" data-name="Path 19" d="M374.506,382.346a15.779,15.779,0,0,0-3.981,2.311c-1.64,1.076-3.352,2.107-4.894,3.321-.392.308.023,1.005.476.754,1.542-.856,2.985-1.9,4.45-2.884,1.407-.942,3.118-1.793,4.189-3.117C374.871,382.576,374.712,382.285,374.506,382.346Z" fill="#fbc532"/>
    <path id="Path_20" data-name="Path 20" d="M381.449,377.329a4.993,4.993,0,0,0-2.159,1.2,9.249,9.249,0,0,1-1.537,1.208c-.419.241-.827.471-1.223.752-.566.4.2,1.312.683.822.293-.3.563-.612.843-.923a6.164,6.164,0,0,1,1.68-1.241,6.488,6.488,0,0,0,1.928-1.476A.223.223,0,0,0,381.449,377.329Z" fill="#fbc532"/>
    <path id="Path_21" data-name="Path 21" d="M382.653,376.361a1.467,1.467,0,0,0-.772.513c-.261.284.247.669.5.356.14-.176.306-.307.46-.467S382.9,376.3,382.653,376.361Z" fill="#fbc532"/>
    <path id="Path_22" data-name="Path 22" d="M388.765,372.342a10.952,10.952,0,0,0-2.4,1.285c-.292.23.094.694.369.444a11.745,11.745,0,0,1,2.058-1.667A.034.034,0,0,0,388.765,372.342Z" fill="#fbc532"/>
    <path id="Path_23" data-name="Path 23" d="M391.72,370.2c-.51.281-.96.654-1.479.926-.349.184-.023.7.287.456a4.91,4.91,0,0,0,1.265-1.294C391.82,370.245,391.778,370.171,391.72,370.2Z" fill="#fbc532"/>
    <path id="Path_24" data-name="Path 24" d="M393.816,368.529a3.03,3.03,0,0,0-.9.619c-.187.152.049.435.238.288a3.019,3.019,0,0,0,.8-.73A.12.12,0,0,0,393.816,368.529Z" fill="#fbc532"/>
    <path id="Path_25" data-name="Path 25" d="M395.264,367.485a3.585,3.585,0,0,0-.89.57c-.22.161.051.487.271.326a3.5,3.5,0,0,0,.807-.669C395.551,367.58,395.4,367.438,395.264,367.485Z" fill="#fbc532"/>
    <path id="Path_26" data-name="Path 26" d="M356.273,376.184s1.279,5.562,4.633,4.73,33.238-15.536,32.938-17.964-3.211-6.78-4.682-6.482S355.99,374.977,356.273,376.184Z" fill="#acbbbe" opacity="0.5" style="mix-blend-mode: multiply;isolation: isolate"/>
    <path id="Path_27" data-name="Path 27" d="M355.94,372.991s.914,5.634,4.316,5.022,34.179-13.336,34.038-15.779-2.762-6.974-4.25-6.773S355.737,371.769,355.94,372.991Z" fill="#f0b129"/>
    <path id="Path_28" data-name="Path 28" d="M367.668,368.852c-3.233.943-6.448,2.824-9.534,4.189-.378.167-.136.762.245.6q2.721-1.185,5.441-2.368c1.349-.586,2.981-1.026,4.049-2.067A.2.2,0,0,0,367.668,368.852Z" fill="#fbc532"/>
    <path id="Path_29" data-name="Path 29" d="M371.96,366.3a6.834,6.834,0,0,0-1.243.418c-.565.25-.046,1.1.41.715a6.764,6.764,0,0,0,.941-.943C372.129,366.417,372.063,366.275,371.96,366.3Z" fill="#fbc532"/>
    <path id="Path_30" data-name="Path 30" d="M374.51,364.819a3.685,3.685,0,0,0-1.558.677.363.363,0,1,0,.36.627,3.678,3.678,0,0,0,1.367-1A.189.189,0,0,0,374.51,364.819Z" fill="#fbc532"/>
    <path id="Path_31" data-name="Path 31" d="M379.834,362.049a6.7,6.7,0,0,0-1.782.748c-.674.285-1.315.626-1.965.964-.474.247-.146,1.027.317.768.626-.349,1.254-.691,1.857-1.078a7,7,0,0,0,1.712-1.157A.154.154,0,0,0,379.834,362.049Z" fill="#fbc532"/>
    <path id="Path_32" data-name="Path 32" d="M382.584,360.513a.789.789,0,0,0-.625.211c-.308.239-.6.487-.918.714-.115.082,0,.288.125.219.344-.182.692-.333,1.043-.5a.79.79,0,0,0,.48-.459A.138.138,0,0,0,382.584,360.513Z" fill="#fbc532"/>
    <path id="Path_33" data-name="Path 33" d="M385.414,358.874c-.343-.085-.566.122-.831.32-.3.225-.019.751.335.583.334-.158.6-.257.7-.633A.242.242,0,0,0,385.414,358.874Z" fill="#fbc532"/>
    <path id="Path_34" data-name="Path 34" d="M368.86,372.361c-3.047,1.532-7.985,4.462-11.839,3.74.666,1.182,1.693,2.189,3.235,1.912,3.4-.612,34.179-13.336,34.038-15.779a8.809,8.809,0,0,0-.838-2.887C385.5,364.06,377.08,368.227,368.86,372.361Z" fill="#edbb95" opacity="0.5" style="mix-blend-mode: multiply;isolation: isolate"/>
    <path id="Path_35" data-name="Path 35" d="M444.058,340.748c-20.865-6.531-23.856,16.53-31.573,30.081-5.187,6.414-16.112,1.928-20.41,9.31-2.9,4.977-.024,11.4,3.224,15.4,9.371,11.549,28.537,11.286,41.637,7.546,15.179-4.333,27.42-18.2,28.625-34.347C466.534,355.693,455.937,344.466,444.058,340.748Z" fill="#acbbbe" opacity="0.5" style="mix-blend-mode: multiply;isolation: isolate"/>
    <path id="Path_36" data-name="Path 36" d="M442.845,337.326c-20.865-6.531-23.855,16.53-31.573,30.081-5.187,6.414-16.112,1.928-20.409,9.311-2.9,4.976-.025,11.4,3.223,15.4,9.371,11.549,28.537,11.286,41.638,7.547,15.179-4.334,27.419-18.2,28.624-34.347C465.321,352.272,454.724,341.045,442.845,337.326Z" fill="#fff"/>
    <path id="Path_37" data-name="Path 37" d="M439.851,358.958c-8.234-1.542-16.1,6.587-17.148,14.533-.982,7.442,4.11,13.985,11.741,15.534,9.607,1.951,18.315-7.176,17.5-16.5A15.277,15.277,0,0,0,439.851,358.958Z" fill="#e0d0b8" opacity="0.5" style="mix-blend-mode: multiply;isolation: isolate"/>
    <path id="Path_38" data-name="Path 38" d="M438.965,357.83c-7.9-1.48-15.028,5.183-16.035,12.807-.943,7.141,3.487,14.934,10.809,16.421,9.218,1.871,17.612-7.264,16.829-16.208A14.657,14.657,0,0,0,438.965,357.83Z" fill="#fbc532"/>
    <path id="Path_39" data-name="Path 39" d="M437.217,359.661a10.21,10.21,0,0,0-7.8,2.935c-1.877,1.811-3.586,4.514-2.8,7.191a.705.705,0,0,0,1.182.26c1.329-1.675,1.933-3.772,3.451-5.316a12.861,12.861,0,0,1,6.282-3.3C438.6,361.2,438.176,359.7,437.217,359.661Z" fill="#f6e219" opacity="0.6"/>
    <path id="Path_40" data-name="Path 40" d="M425.006,373.26a8.531,8.531,0,0,0,.449,1.862.547.547,0,0,0,1.044-.044,8.568,8.568,0,0,0,.291-1.893C426.893,372.033,424.806,372.119,425.006,373.26Z" fill="#f6e219" opacity="0.6"/>
    <path id="Path_41" data-name="Path 41" d="M450.568,370.85a14.615,14.615,0,0,0-2.447-6.842,14.161,14.161,0,0,1,.54,2.781c.782,8.945-7.611,18.08-16.829,16.208a13.149,13.149,0,0,1-8.328-5.835c1.464,4.786,5.149,8.863,10.235,9.9C442.957,388.929,451.351,379.794,450.568,370.85Z" fill="#fbc532" opacity="0.5" style="mix-blend-mode: multiply;isolation: isolate"/>
    <path id="Path_42" data-name="Path 42" d="M430.647,395.2c-2.26-.344-4.3.244-6.566.422a35.074,35.074,0,0,1-10.132-.677c-6.269-1.35-11.011-4.519-16.367-7.759-.545-.33-1.274.42-.863.939,3.813,4.814,9.987,7.713,15.859,9.151,5.264,1.288,13.683,2.5,18.261-.97C431.219,396.018,431.207,395.285,430.647,395.2Z" fill="#efe6da" opacity="0.5" style="mix-blend-mode: multiply;isolation: isolate"/>
    <path id="Path_43" data-name="Path 43" d="M433.587,394.04a7.248,7.248,0,0,0-1.086.167c-.948.232-.482,1.677.465,1.446a5.772,5.772,0,0,0,.856-.3C434.485,395.085,434.394,393.968,433.587,394.04Z" fill="#efe6da" opacity="0.5" style="mix-blend-mode: multiply;isolation: isolate"/>
    <path id="Path_44" data-name="Path 44" d="M452.035,382.433c-2.223,1.2-3.883,3.618-5.793,5.277a44.327,44.327,0,0,1-6.935,5.026c-.524.3-.02,1.066.505.786a48.472,48.472,0,0,0,7.662-4.873c1.9-1.536,4.348-3.257,5.239-5.593A.48.48,0,0,0,452.035,382.433Z" fill="#efe6da" opacity="0.5" style="mix-blend-mode: multiply;isolation: isolate"/>
    <path id="Path_45" data-name="Path 45" d="M455.95,377.458a7.6,7.6,0,0,0-.812,1.044c-.534.8,1.006,1.549,1.317.491a6.741,6.741,0,0,0,.237-1.143A.438.438,0,0,0,455.95,377.458Z" fill="#efe6da" opacity="0.5" style="mix-blend-mode: multiply;isolation: isolate"/>
    <path id="Path_46" data-name="Path 46" d="M456.059,348.625c-.571-.161-.922.506-.676.96,3.058,5.64,4.769,10.935,4.077,17.511-.1.923,1.236,1.293,1.447.334C462.011,362.4,462.67,350.489,456.059,348.625Z" fill="#efe6da" opacity="0.5" style="mix-blend-mode: multiply;isolation: isolate"/>
    <path id="Path_47" data-name="Path 47" d="M453.128,346.322a.91.91,0,0,0,.076,1.817A.91.91,0,0,0,453.128,346.322Z" fill="#efe6da" opacity="0.5" style="mix-blend-mode: multiply;isolation: isolate"/>
    <path id="Path_48" data-name="Path 48" d="M452.264,319.939c-.226-.267-.464-.523-.711-.768-12.869-12.781-35.126-11.251-49.919-2.881a20.359,20.359,0,0,0-7.412,6.555,8.5,8.5,0,0,0-1.5,5.473c.945,8.237,11.919,4.533,16.451,2.45,8.411-3.866,16.353-6.578,25.693-4.052,3.732,1.01,7.081,3.132,10.906,3.868,4.274.822,9.4-1,8.613-6.286A8.839,8.839,0,0,0,452.264,319.939Z" fill="#acbbbe" opacity="0.5" style="mix-blend-mode: multiply;isolation: isolate"/>
    <path id="Path_49" data-name="Path 49" d="M453.174,317.335q-.347-.406-.724-.781c-13.087-12.989-35.716-11.44-50.754-2.94a20.67,20.67,0,0,0-7.534,6.658,8.625,8.625,0,0,0-1.528,5.56c.964,8.37,12.12,4.609,16.727,2.494,8.551-3.925,16.625-6.679,26.121-4.11,3.8,1.027,7.2,3.185,11.09,3.933,4.345.836,9.555-1.013,8.755-6.385A8.981,8.981,0,0,0,453.174,317.335Z" fill="#a7623a"/>
    <path id="Path_50" data-name="Path 50" d="M455.244,322.972a5.9,5.9,0,0,1-1.564,1.081c-2.716,1.271-5.89.139-8.681-.958-5.832-2.292-11.945-4.455-18.2-4.034-6.134.413-11.791,3.266-17.592,5.3-3.168,1.112-6.59,1.995-9.857,1.22a8.079,8.079,0,0,1-5.588-4.563,8.239,8.239,0,0,0-1.118,4.867c.959,8.353,12.086,4.6,16.681,2.485,8.53-3.92,16.583-6.671,26.054-4.109,3.784,1.024,7.181,3.176,11.06,3.922C450.443,328.957,455.171,327.432,455.244,322.972Z" fill="#d5bf9e" style="mix-blend-mode: multiply;isolation: isolate"/>
    <path id="Path_51" data-name="Path 51" d="M455.327,321.764a8.981,8.981,0,0,0-2.153-4.429c-.23-.271-.473-.531-.724-.781a29.938,29.938,0,0,0-3.292-2.81,14.226,14.226,0,0,0-1.581,2.061,27.9,27.9,0,0,1-2.018,3.394.424.424,0,0,1-.718-.293c-.073-2.214,1.493-4.315,3.229-5.934a32.9,32.9,0,0,0-8.07-3.933,17.517,17.517,0,0,0-3.72,7.468.256.256,0,0,1-.465.063c-.946-1.617.051-3.445.956-4.873a24.8,24.8,0,0,1,2.174-2.99A40.944,40.944,0,0,0,429.6,307.1,18.7,18.7,0,0,0,427.777,310c-.743,1.478-1.035,3.284-2.026,4.606a.338.338,0,0,1-.612-.077c-.67-2.495.93-5.313,2.789-7.5a50.367,50.367,0,0,0-9.6.741,21.406,21.406,0,0,0-1.952,3.7c-.668,1.649-.91,3.426-1.625,5.048-.151.341-.587.125-.624-.161-.356-2.823,1.032-5.829,2.79-8.323a53.315,53.315,0,0,0-9.385,2.788,19.5,19.5,0,0,0-1.835,3.609c-.523,1.368-.625,2.938-1.361,4.2a.33.33,0,0,1-.6-.075c-.558-2.172.562-4.778,1.925-6.937-1.366.614-2.693,1.277-3.961,1.994a20.665,20.665,0,0,0-7.535,6.658,8.625,8.625,0,0,0-1.528,5.56c.964,8.37,12.12,4.609,16.727,2.494,8.551-3.925,16.625-6.679,26.121-4.11,3.8,1.027,7.2,3.185,11.09,3.933C450.917,328.985,456.127,327.136,455.327,321.764Z" fill="none"/>
    <path id="Path_52" data-name="Path 52" d="M403.733,318.557a.33.33,0,0,0,.6.075c.736-1.264.838-2.834,1.361-4.2a19.5,19.5,0,0,1,1.835-3.609c-.632.255-1.254.523-1.87.8C404.3,313.779,403.175,316.385,403.733,318.557Z" fill="#7a2900"/>
    <path id="Path_53" data-name="Path 53" d="M414.123,316.356c.037.286.473.5.624.161.715-1.622.957-3.4,1.625-5.048a21.406,21.406,0,0,1,1.952-3.7q-.708.121-1.411.262C415.155,310.527,413.767,313.533,414.123,316.356Z" fill="#7a2900"/>
    <path id="Path_54" data-name="Path 54" d="M425.139,314.531a.338.338,0,0,0,.612.077c.991-1.322,1.283-3.128,2.026-4.606A18.7,18.7,0,0,1,429.6,307.1q-.835-.048-1.674-.066C426.069,309.218,424.469,312.036,425.139,314.531Z" fill="#7a2900"/>
    <path id="Path_55" data-name="Path 55" d="M435.815,316.57a.256.256,0,0,0,.465-.063,17.517,17.517,0,0,1,3.72-7.468q-.525-.174-1.055-.332a24.8,24.8,0,0,0-2.174,2.99C435.866,313.125,434.869,314.953,435.815,316.57Z" fill="#7a2900"/>
    <path id="Path_56" data-name="Path 56" d="M444.841,318.906a.424.424,0,0,0,.718.293,27.9,27.9,0,0,0,2.018-3.394,14.226,14.226,0,0,1,1.581-2.061q-.537-.4-1.088-.772C446.334,314.591,444.768,316.692,444.841,318.906Z" fill="#7a2900"/>
    <path id="Path_57" data-name="Path 57" d="M355.771,357.668c.378.2,36.36,5.12,37.935,2.722s-1.151-4.046-1.151-4.046-32.25-8.838-33.507-8.6S354.081,356.77,355.771,357.668Z" fill="#acbbbe" opacity="0.5" style="mix-blend-mode: multiply;isolation: isolate"/>
    <path id="Path_58" data-name="Path 58" d="M356.647,354.482c.364.225,35.949,7.479,37.676,5.189s-.884-4.113-.884-4.113-31.606-10.92-32.875-10.771S355.019,353.476,356.647,354.482Z" fill="#f0b129"/>
    <path id="Path_59" data-name="Path 59" d="M383.841,357.356a231.879,231.879,0,0,1-27.14-5.923c-.469,1.471-.612,2.7-.054,3.049.364.225,35.949,7.479,37.676,5.189a2.441,2.441,0,0,0,.243-2.844C392.97,359.374,386.261,357.753,383.841,357.356Z" fill="#edbb95" opacity="0.5" style="mix-blend-mode: multiply;isolation: isolate"/>
    <path id="Path_60" data-name="Path 60" d="M367.891,353.407c-3.05-.9-6.3-1.344-9.408-2.081-.389-.093-.556.592-.164.687a57.691,57.691,0,0,0,9.462,1.852C368.037,353.881,368.161,353.486,367.891,353.407Z" fill="#fbc532"/>
    <path id="Path_61" data-name="Path 61" d="M369.722,354.089a.3.3,0,0,0,.1.586A.3.3,0,0,0,369.722,354.089Z" fill="#fbc532"/>
    <path id="Path_62" data-name="Path 62" d="M386.307,350.47s-5.68,2.285-12.3,5.05a.237.237,0,0,0-.294-.22.241.241,0,0,0-.124.394c-9.082,3.8-19.736,8.415-19.984,9.293-.433,1.537,2.761,6.82,2.761,6.82s31.954-14.594,32.536-16.786S386.307,350.47,386.307,350.47Z" fill="#acbbbe" opacity="0.5" style="mix-blend-mode: multiply;isolation: isolate"/>
    <path id="Path_63" data-name="Path 63" d="M387.587,349.289s-5.817,1.911-12.607,4.238a.237.237,0,0,0-.279-.239.242.242,0,0,0-.149.386c-9.31,3.195-20.242,7.11-20.547,7.971-.533,1.505,2.311,6.985,2.311,6.985s32.837-12.481,33.56-14.63S387.587,349.289,387.587,349.289Z" fill="#fbc532"/>
    <path id="Path_64" data-name="Path 64" d="M388.6,350.333c.247,3.15-2.047,4.505-5.944,5.96-9.011,3.364-18.353,6.753-27.067,10.842.4.874.725,1.495.725,1.495s32.837-12.481,33.56-14.63C390.31,352.71,389.4,351.277,388.6,350.333Z" fill="#fcd66d" opacity="0.5" style="mix-blend-mode: multiply;isolation: isolate"/>
    <path id="Path_65" data-name="Path 65" d="M373.893,356.222c-2.735.507-5.312,1.877-7.911,2.864-3.019,1.147-6.067,2.213-9.134,3.228-.724.239-.221,1.312.5,1.078,5.394-1.761,12.144-3.3,16.812-6.589C374.431,356.611,374.2,356.165,373.893,356.222Z" fill="#fcd057"/>
    <path id="Path_66" data-name="Path 66" d="M380.115,353.592c-1-.114-1.948.615-2.808,1.06-.722.373-.165,1.543.526,1.14.873-.51,2.027-.927,2.486-1.868A.248.248,0,0,0,380.115,353.592Z" fill="#fcd057"/>
    <path id="Path_67" data-name="Path 67" d="M387.873,350.5c-1.061-.248-2.024.505-3.021.8a18.979,18.979,0,0,0-2.973,1.161c-.739.365-.176,1.555.533,1.155.952-.537,1.916-1.076,2.9-1.552.92-.445,1.961-.306,2.724-1.03A.31.31,0,0,0,387.873,350.5Z" fill="#fcd057"/>
    <path id="Path_68" data-name="Path 68" d="M361.44,383.8s3.145,5.145,4.7,4.4,18.057-16.848,20.215-19.243,5.165-6.339,5.165-6.339-4.062-3.854-6.329-2.474S361.44,383.8,361.44,383.8Z" fill="#acbbbe" opacity="0.5" style="mix-blend-mode: multiply;isolation: isolate"/>
    <path id="Path_69" data-name="Path 69" d="M360.6,380.933s2.8,5.339,4.406,4.693,19.116-15.636,21.426-17.886S392,361.751,392,361.751s-3.8-4.11-6.154-2.88S360.6,380.933,360.6,380.933Z" fill="#fbc532"/>
    <path id="Path_70" data-name="Path 70" d="M371.945,378.692c-3.321,2.45-7.063,4.511-10.711,3.35.92,1.527,2.642,4.039,3.771,3.583,1.6-.646,19.117-15.635,21.427-17.885S392,361.751,392,361.751s-.2-.214-.525-.522C384.939,366.993,378.912,373.554,371.945,378.692Z" fill="#fcd66d" opacity="0.5" style="mix-blend-mode: multiply;isolation: isolate"/>
    <path id="Path_71" data-name="Path 71" d="M373.7,371.493c-1.594,1.106-2.821,2.7-4.379,3.9a39.493,39.493,0,0,0-4.445,3.824c-.1.1,0,.3.148.225a20.454,20.454,0,0,0,4.7-3.582c.688-.68,1.33-1.48,2.041-2.125a12.412,12.412,0,0,0,2.174-2.025C374.048,371.548,373.843,371.393,373.7,371.493Z" fill="#fcd057"/>
    <path id="Path_72" data-name="Path 72" d="M386.731,360.31a51.775,51.775,0,0,0-5.982,5.057,66,66,0,0,0-5.086,4.726c-.266.306.2.634.487.439a32.669,32.669,0,0,0,2.891-2.645c.982-.864,2.047-1.619,3.019-2.5a52.99,52.99,0,0,0,5.022-4.764C387.271,360.4,386.935,360.173,386.731,360.31Z" fill="#fcd057"/>
    <path id="Path_73" data-name="Path 73" d="M388.647,359.59a.093.093,0,0,0,.011.186A.093.093,0,0,0,388.647,359.59Z" fill="#fcd057"/>
    <path id="Path_74" data-name="Path 74" d="M384.323,381.626s-9.13,14.888-7.525,16.541,7.416,1.074,7.416,1.074,15.381-26.555,15-28.277-4.643-.016-4.643-.016Z" fill="#acbbbe" opacity="0.5" style="mix-blend-mode: multiply;isolation: isolate"/>
    <path id="Path_75" data-name="Path 75" d="M383.576,380.25s-10.081,14.261-8.587,16.016,7.33,1.554,7.33,1.554,17.079-25.495,16.807-27.239-4.632-.319-4.632-.319Z" fill="#fbc532"/>
    <path id="Path_76" data-name="Path 76" d="M398.254,369.79c-1.928,5.1-6.174,9.525-9.289,13.831-3.409,4.711-6.3,9.679-10.078,14.041a25.683,25.683,0,0,0,3.432.158s17.079-25.495,16.807-27.239A.993.993,0,0,0,398.254,369.79Z" fill="#fcd66d" opacity="0.5" style="mix-blend-mode: multiply;isolation: isolate"/>
    <path id="Path_77" data-name="Path 77" d="M384.3,386.265c-1.492,1.223-2.393,3.157-3.411,4.772a27.4,27.4,0,0,0-3.01,5.1c-.1.268.25.569.48.344a27.281,27.281,0,0,0,3.33-4.869c1.032-1.613,2.413-3.268,2.891-5.144A.18.18,0,0,0,384.3,386.265Z" fill="#fcd057"/>
    <path id="Path_78" data-name="Path 78" d="M386.294,383.612a.28.28,0,0,0-.36-.133c-.345.134-.446.44-.584.76-.25.578.732.94.9.346A1.184,1.184,0,0,0,386.294,383.612Z" fill="#fcd057"/>
    <path id="Path_79" data-name="Path 79" d="M387.049,381.88a.314.314,0,0,0,.1.619A.314.314,0,0,0,387.049,381.88Z" fill="#fcd057"/>
    <path id="Path_80" data-name="Path 80" d="M394.856,371.3c-1.387.5-2.319,2.438-3.133,3.608-1.106,1.588-2.219,3.158-3.369,4.714-.352.475.42,1.026.744.533,1.07-1.624,2.2-3.164,3.423-4.675.9-1.113,2.521-2.462,2.7-3.922A.258.258,0,0,0,394.856,371.3Z" fill="#fcd057"/>
    <circle id="Ellipse_4" data-name="Ellipse 4" cx="17.162" cy="17.162" r="17.162" transform="translate(390 331.509)" fill="#acbbbe" opacity="0.5" style="mix-blend-mode: multiply;isolation: isolate"/>
    <circle id="Ellipse_5" data-name="Ellipse 5" cx="16.458" cy="16.458" r="16.458" transform="translate(390.222 330.99)" fill="#fefae7"/>
    <circle id="Ellipse_6" data-name="Ellipse 6" cx="14.012" cy="14.012" r="14.012" transform="translate(392.669 333.436)" fill="#c9ad83"/>
    <circle id="Ellipse_7" data-name="Ellipse 7" cx="12.677" cy="12.677" r="12.677" transform="translate(394.003 334.771)" fill="#cf3e32"/>
    <path id="Path_81" data-name="Path 81" d="M406.68,334.771a12.677,12.677,0,1,0,12.678,12.677A12.677,12.677,0,0,0,406.68,334.771Zm-.722,22.463a10.509,10.509,0,1,1,10.508-10.509A10.509,10.509,0,0,1,405.958,357.234Z" fill="#e4d5c0" style="mix-blend-mode: multiply;isolation: isolate"/>
    <path id="Path_82" data-name="Path 82" d="M405.235,338.885a.667.667,0,0,0,0,1.334A.667.667,0,0,0,405.235,338.885Z" fill="#dcc9ad" style="mix-blend-mode: multiply;isolation: isolate"/>
    <path id="Path_83" data-name="Path 83" d="M411.907,340.588a.41.41,0,0,0,0,.82A.41.41,0,0,0,411.907,340.588Z" fill="#dcc9ad" style="mix-blend-mode: multiply;isolation: isolate"/>
    <path id="Path_84" data-name="Path 84" d="M405.68,345.272a.508.508,0,0,0,0,1.015A.508.508,0,0,0,405.68,345.272Z" fill="#dcc9ad" style="mix-blend-mode: multiply;isolation: isolate"/>
    <path id="Path_85" data-name="Path 85" d="M408.015,351.518a.045.045,0,0,0,0,.089A.045.045,0,0,0,408.015,351.518Z" fill="#dcc9ad" style="mix-blend-mode: multiply;isolation: isolate"/>
    <path id="Path_86" data-name="Path 86" d="M413.464,345.877a.793.793,0,0,0,0,1.585A.793.793,0,0,0,413.464,345.877Z" fill="#dcc9ad" style="mix-blend-mode: multiply;isolation: isolate"/>
    <path id="Path_87" data-name="Path 87" d="M405.791,354.474a.758.758,0,0,0,0,1.515A.758.758,0,0,0,405.791,354.474Z" fill="#dcc9ad" style="mix-blend-mode: multiply;isolation: isolate"/>
    <path id="Path_88" data-name="Path 88" d="M399.452,350.666a.785.785,0,0,0,0,1.57A.785.785,0,0,0,399.452,350.666Z" fill="#dcc9ad" style="mix-blend-mode: multiply;isolation: isolate"/>
    <path id="Path_89" data-name="Path 89" d="M398.451,345.383a.508.508,0,0,0,0,1.015A.508.508,0,0,0,398.451,345.383Z" fill="#dcc9ad" style="mix-blend-mode: multiply;isolation: isolate"/>
    <path id="Path_90" data-name="Path 90" d="M411.017,350.151a.633.633,0,0,0,0,1.265A.633.633,0,0,0,411.017,350.151Z" fill="#dcc9ad" style="mix-blend-mode: multiply;isolation: isolate"/>
    <path id="Path_91" data-name="Path 91" d="M400.564,340.359a.528.528,0,0,0,0,1.056A.528.528,0,0,0,400.564,340.359Z" fill="#dcc9ad" style="mix-blend-mode: multiply;isolation: isolate"/>
    <path id="Path_92" data-name="Path 92" d="M408.627,340.616a.549.549,0,0,0,0,1.1A.549.549,0,0,0,408.627,340.616Z" fill="#df8077"/>
    <path id="Path_93" data-name="Path 93" d="M403.4,342.214a.23.23,0,0,0,0,.459A.23.23,0,0,0,403.4,342.214Z" fill="#df8077"/>
    <path id="Path_94" data-name="Path 94" d="M402.51,346.857a.591.591,0,0,0,0,1.182A.591.591,0,0,0,402.51,346.857Z" fill="#df8077"/>
    <path id="Path_95" data-name="Path 95" d="M404.679,350.478a.528.528,0,0,0,0,1.056A.528.528,0,0,0,404.679,350.478Z" fill="#df8077"/>
    <path id="Path_96" data-name="Path 96" d="M409.4,346.252a.362.362,0,0,0,0,.723A.362.362,0,0,0,409.4,346.252Z" fill="#df8077"/>
    <path id="Path_97" data-name="Path 97" d="M408.46,352.014a.494.494,0,0,0,0,.987A.494.494,0,0,0,408.46,352.014Z" fill="#df8077"/>
    <path id="Path_98" data-name="Path 98" d="M401.621,353.091a.64.64,0,0,0,0,1.279A.64.64,0,0,0,401.621,353.091Z" fill="#df8077"/>
    <path id="Path_99" data-name="Path 99" d="M399.007,342.8a.758.758,0,0,0,0,1.515A.758.758,0,0,0,399.007,342.8Z" fill="#df8077"/>
    <path id="Path_100" data-name="Path 100" d="M407.4,337.683a.313.313,0,0,0,0,.625A.313.313,0,0,0,407.4,337.683Z" fill="#df8077"/>
    <path id="Path_101" data-name="Path 101" d="M412.352,342.979a.466.466,0,0,0,0,.931A.466.466,0,0,0,412.352,342.979Z" fill="#df8077"/>
    <path id="Path_102" data-name="Path 102" d="M407.9,343.014a.709.709,0,0,0,0,1.417A.709.709,0,0,0,407.9,343.014Z" fill="#df8077"/>
    <path id="Path_103" data-name="Path 103" d="M407.181,348.24a.6.6,0,0,0,0,1.2A.6.6,0,0,0,407.181,348.24Z" fill="#df8077"/>
    <path id="Path_104" data-name="Path 104" d="M413.8,349.575a.264.264,0,0,0,0,.528A.264.264,0,0,0,413.8,349.575Z" fill="#df8077"/>
  </g>
</svg>
