<svg height="512pt" viewBox="0 -36 512 512" width="512pt" xmlns="http://www.w3.org/2000/svg"><path d="m502 210c0 89.550781-58.859375 154.511719-140 180h-212c-81.140625-25.488281-140-90.449219-140-180zm0 0" fill="#ff637b"/><path d="m150 390h212v40h-212zm0 0" fill="#766e6e"/><path d="m376 10c-11.050781 0-20 8.949219-20 20 0-11.050781-8.949219-20-20-20s-20 8.949219-20 20c0-11.050781-8.949219-20-20-20s-20 8.949219-20 20v180h120c0-11.554688 0-169.898438 0-180 0-11.050781-8.949219-20-20-20zm0 0" fill="#fdbf00"/><path d="m180 210c0 5.523438-4.476562 10-10 10s-10-4.476562-10-10 4.476562-10 10-10 10 4.476562 10 10zm0 0"/><path d="m502 40c5.523438 0 10-4.476562 10-10s-4.476562-10-10-10h-97.71875c-4.128906-11.640625-15.246094-20-28.28125-20-7.679688 0-14.6875 2.902344-20 7.664062-5.3125-4.761718-12.320312-7.664062-20-7.664062s-14.6875 2.902344-20 7.664062c-5.3125-4.761718-12.320312-7.664062-20-7.664062-13.035156 0-24.152344 8.359375-28.28125 20h-257.71875c-5.523438 0-10 4.476562-10 10s4.476562 10 10 10h256v20h-256c-5.523438 0-10 4.476562-10 10s4.476562 10 10 10h256v120h-56c-5.523438 0-10 4.476562-10 10s4.476562 9.988281 10 9.988281h281.726562c-4.070312 74.378907-53.554687 135.042969-131.300781 160.011719h-208.851562c-77.746094-24.96875-127.230469-85.621094-131.300781-160h109.726562c5.523438 0 10-4.476562 10-10s-4.476562-10-10-10h-120c-5.523438 0-10 4.476562-10 10 0 88.480469 55.363281 157.902344 140 187.222656v32.777344c0 5.523438 4.476562 10 10 10h212c5.523438 0 10-4.476562 10-10v-32.777344c84.605469-29.308594 140-98.710937 140-187.222656 0-5.523438-4.476562-10-10-10h-96v-120h96c5.523438 0 10-4.476562 10-10s-4.476562-10-10-10h-96v-20zm-150 380h-192v-20h192zm-16-400c5.515625 0 10 4.484375 10 10v170h-20v-170c0-5.515625 4.484375-10 10-10zm-50 10c0-5.515625 4.484375-10 10-10s10 4.484375 10 10v170h-20zm80 170v-170c0-5.515625 4.484375-10 10-10s10 4.484375 10 10v170zm0 0"/></svg>