<svg height="442pt" viewBox="-101 0 442 442.41722" width="442pt" xmlns="http://www.w3.org/2000/svg"><path d="m240.558594 120.175781c0-65.070312-51.789063-118.320312-116.835938-120.128906s-119.714844 48.484375-123.328125 113.457031c-3.613281 64.96875 45.144531 121.015625 109.988281 126.429688v192.484375c0 5.523437 4.476563 10 10 10 5.523438 0 10-4.476563 10-10v-192.414063c28.210938-2.082031 54.734376-14.214844 74.761719-34.195312 22.816407-22.632813 35.578125-53.492188 35.414063-85.632813zm-119.414063 100.179688c-.230469 0-.464843 0-.691406 0h-.070313c-47.417968-.355469-87.984374-34.144531-96.910156-80.714844-8.925781-46.570313 16.277344-92.964844 60.203125-110.828125 43.925781-17.859375 94.351563-2.214844 120.457031 37.367188 26.109376 39.585937 20.628907 92.097656-13.085937 125.441406-18.550781 18.496094-43.707031 28.835937-69.902344 28.734375zm0 0"/><path d="m83.183594 66.457031c-4.378906-3.367187-10.65625-2.546875-14.023438 1.832031-18.171875 23.625-23.140625 56.121094-12.964844 84.796876 1.84375 5.207031 7.5625 7.929687 12.765626 6.082031 5.207031-1.847657 7.929687-7.5625 6.082031-12.769531-7.929688-22.355469-4.109375-47.613282 9.972656-65.917969 3.363281-4.378907 2.542969-10.65625-1.832031-14.023438zm0 0"/></svg>